<?xml version="1.0" standalone="no"?>
<!DOCTYPE svg PUBLIC "-//W3C//DTD SVG 20010904//EN"
 "http://www.w3.org/TR/2001/REC-SVG-20010904/DTD/svg10.dtd">
<svg version="1.0" xmlns="http://www.w3.org/2000/svg"
 width="589.000000pt" height="603.000000pt" viewBox="0 0 589.000000 603.000000"
 preserveAspectRatio="xMidYMid meet">
<metadata>
Created by potrace 1.16, written by Peter Selinger 2001-2019
</metadata>
<g transform="translate(0.000000,603.000000) scale(0.100000,-0.100000)"
fill="#000000" stroke="none">
<path d="M3519 5888 c-24 -4 -105 -17 -179 -28 -217 -35 -527 -117 -800 -212
-484 -170 -504 -180 -731 -362 -388 -311 -689 -730 -849 -1181 -39 -112 -89
-309 -96 -378 -3 -29 -15 -89 -26 -135 -13 -53 -17 -87 -11 -93 9 -9 610 -99
659 -99 29 0 226 98 220 109 -4 5 3 55 13 111 53 269 165 523 340 771 76 107
270 312 391 413 279 233 670 428 1056 527 242 61 391 80 681 86 281 6 460 -8
671 -54 64 -14 145 -27 180 -30 56 -5 62 -4 62 14 0 10 4 23 8 29 5 5 17 37
27 71 l18 61 -77 91 c-195 227 -292 260 -840 281 -343 13 -662 17 -717 8z
m873 -78 c193 -11 297 -30 383 -70 64 -29 158 -106 224 -181 l40 -46 -103 18
c-667 115 -1328 54 -1901 -176 -770 -309 -1314 -885 -1480 -1569 -14 -54 -26
-100 -27 -101 -3 -3 -572 86 -576 89 -6 7 61 244 94 333 127 342 321 641 594
914 161 162 259 243 431 359 109 73 128 81 290 133 570 182 867 258 1149 292
128 16 648 19 882 5z m139 -261 c148 -11 348 -39 457 -64 l71 -16 -11 -30
c-11 -32 -16 -33 -69 -19 -251 70 -747 101 -1059 66 -666 -75 -1263 -348
-1686 -771 -276 -278 -476 -613 -562 -945 -19 -73 -20 -75 -56 -84 -21 -4 -39
-6 -41 -4 -2 2 5 43 15 91 157 717 762 1321 1615 1614 398 136 891 196 1326
162z m-3304 -1849 c142 -22 267 -42 278 -45 20 -4 20 -8 11 -95 -7 -76 -12
-90 -25 -86 -9 2 -137 21 -286 42 -148 20 -274 40 -279 45 -13 11 15 179 30
179 7 0 129 -18 271 -40z"/>
</g>
</svg>
