<?xml version="1.0" standalone="no"?>
<!DOCTYPE svg PUBLIC "-//W3C//DTD SVG 20010904//EN"
 "http://www.w3.org/TR/2001/REC-SVG-20010904/DTD/svg10.dtd">
<svg version="1.0" xmlns="http://www.w3.org/2000/svg"
 width="589.000000pt" height="603.000000pt" viewBox="0 0 589.000000 603.000000"
 preserveAspectRatio="xMidYMid meet">
<metadata>
Created by potrace 1.16, written by Peter Selinger 2001-2019
</metadata>
<g transform="translate(0.000000,603.000000) scale(0.100000,-0.100000)"
fill="#000000" stroke="none">
<path d="M1200 3447 c0 -20 4 -23 33 -20 17 2 37 0 44 -4 9 -6 3 -87 -24 -328
-19 -176 -39 -321 -44 -323 -5 -2 -9 -10 -9 -18 0 -12 44 -14 271 -14 240 0
270 2 259 15 -9 11 -35 15 -107 15 l-94 0 6 43 c3 23 19 168 35 321 17 166 34
282 41 286 18 12 -38 21 -89 14 -31 -4 -81 1 -146 15 -55 12 -116 21 -138 21
-33 0 -38 -3 -38 -23z m256 -50 c0 -1 -15 -143 -34 -314 l-36 -313 -58 0 c-39
0 -58 4 -58 12 0 23 61 583 66 607 5 23 8 23 62 17 31 -4 57 -8 58 -9z m89
-34 c-3 -16 -16 -136 -30 -268 -35 -337 -33 -325 -56 -325 -14 0 -19 7 -19 28
1 38 67 590 69 572 1 -12 4 -12 12 3 15 26 29 20 24 -10z"/>
</g>
</svg>
