<?xml version="1.0" standalone="no"?>
<!DOCTYPE svg PUBLIC "-//W3C//DTD SVG 20010904//EN"
 "http://www.w3.org/TR/2001/REC-SVG-20010904/DTD/svg10.dtd">
<svg version="1.0" xmlns="http://www.w3.org/2000/svg"
 width="589.000000pt" height="603.000000pt" viewBox="0 0 589.000000 603.000000"
 preserveAspectRatio="xMidYMid meet">
<metadata>
Created by potrace 1.16, written by Peter Selinger 2001-2019
</metadata>
<g transform="translate(0.000000,603.000000) scale(0.100000,-0.100000)"
fill="#000000" stroke="none">
<path d="M707 2706 c-47 -28 -147 -122 -200 -186 -70 -86 -144 -227 -195 -371
-40 -113 -81 -296 -98 -439 -16 -137 -18 -422 -4 -558 56 -522 266 -926 550
-1057 l65 -30 413 0 c356 0 415 2 425 15 7 8 34 26 62 39 257 121 462 515 520
1001 17 137 19 442 4 578 -24 224 -83 448 -164 619 -75 159 -153 263 -272 363
l-73 60 -488 0 -488 0 -57 -34z m392 -55 c235 -120 420 -483 476 -936 17 -138
20 -439 5 -570 -55 -474 -244 -851 -486 -970 -53 -27 -69 -30 -159 -30 -90 0
-106 3 -160 30 -84 40 -205 165 -272 279 -104 176 -179 420 -209 676 -20 167
-14 515 10 660 81 471 283 808 536 891 14 5 63 7 110 5 73 -2 94 -7 149 -35z"/>
</g>
</svg>
