<?xml version="1.0" standalone="no"?>
<!DOCTYPE svg PUBLIC "-//W3C//DTD SVG 20010904//EN"
 "http://www.w3.org/TR/2001/REC-SVG-20010904/DTD/svg10.dtd">
<svg version="1.0" xmlns="http://www.w3.org/2000/svg"
 width="589.000000pt" height="603.000000pt" viewBox="0 0 589.000000 603.000000"
 preserveAspectRatio="xMidYMid meet">
<metadata>
Created by potrace 1.16, written by Peter Selinger 2001-2019
</metadata>
<g transform="translate(0.000000,603.000000) scale(0.100000,-0.100000)"
fill="#000000" stroke="none">
<path d="M842 2150 c-122 -55 -224 -239 -269 -484 -23 -125 -23 -398 1 -524
55 -302 195 -503 350 -502 208 1 376 348 376 775 0 98 -25 282 -50 375 -78
281 -249 432 -408 360z m173 -60 c87 -54 168 -212 208 -405 27 -134 30 -407 5
-541 -46 -245 -158 -428 -275 -450 -209 -39 -386 389 -345 834 38 424 222 677
407 562z"/>
</g>
</svg>
