<svg version="1.1" viewBox="0.0 0.0 423.0 585.0" fill="none" stroke="none" stroke-linecap="square" stroke-miterlimit="10" xmlns:xlink="http://www.w3.org/1999/xlink" xmlns="http://www.w3.org/2000/svg"><clipPath id="p.0"><path d="m0 0l423.0 0l0 585.0l-423.0 0l0 -585.0z" clip-rule="nonzero"/></clipPath><g clip-path="url(#p.0)"><path fill="#000000" fill-opacity="0.0" d="m0 0l423.0 0l0 585.0l-423.0 0z" fill-rule="evenodd"/><path fill="#cfe2f3" d="m216.8683 288.25165c1.7639008 4.7476807 8.172592 22.188385 10.583389 28.486023c2.410797 6.297638 2.0390472 7.7301025 3.8814087 9.299744c1.8423615 1.5696716 4.6443634 1.2953186 7.1727295 0.118133545c2.5283813 -1.177185 9.291336 -0.11834717 7.9975433 -7.1812134c-1.293808 -7.062866 -11.173904 -27.799744 -15.760345 -35.196014c-4.586441 -7.3962708 -9.798584 -7.651367 -11.758301 -9.181641" fill-rule="evenodd"/><path stroke="#000000" stroke-width="2.0" stroke-linejoin="round" stroke-linecap="butt" d="m216.8683 288.25165c1.7639008 4.7476807 8.172592 22.188385 10.583389 28.486023c2.410797 6.297638 2.0390472 7.7301025 3.8814087 9.299744c1.8423615 1.5696716 4.6443634 1.2953186 7.1727295 0.118133545c2.5283813 -1.177185 9.291336 -0.11834717 7.9975433 -7.1812134c-1.293808 -7.062866 -11.173904 -27.799744 -15.760345 -35.196014c-4.586441 -7.3962708 -9.798584 -7.651367 -11.758301 -9.181641" fill-rule="evenodd"/><path fill="#cfe2f3" d="m228.74971 320.14972c1.6664124 4.4529724 7.7440186 20.734436 9.99855 26.717926c2.2545319 5.98349 1.6863098 7.6132812 3.5286713 9.182953c1.8423615 1.5696411 4.977646 1.4121094 7.525467 0.23495483c2.5478363 -1.177185 7.722809 -2.7468567 7.761505 -7.298065c0.03869629 -4.5512085 -5.49057 -14.241699 -7.5294037 -20.009247c-2.0388336 -5.7675476 -3.9196472 -12.163422 -4.703583 -14.5961" fill-rule="evenodd"/><path stroke="#000000" stroke-width="2.0" stroke-linejoin="round" stroke-linecap="butt" d="m228.74971 320.14972c1.6664124 4.4529724 7.7440186 20.734436 9.99855 26.717926c2.2545319 5.98349 1.6863098 7.6132812 3.5286713 9.182953c1.8423615 1.5696411 4.977646 1.4121094 7.525467 0.23495483c2.5478363 -1.177185 7.722809 -2.7468567 7.761505 -7.298065c0.03869629 -4.5512085 -5.49057 -14.241699 -7.5294037 -20.009247c-2.0388336 -5.7675476 -3.9196472 -12.163422 -4.703583 -14.5961" fill-rule="evenodd"/><path fill="#cfe2f3" d="m256.03305 343.3379c1.2002563 1.7761841 5.3338623 7.476349 7.201599 10.657013c1.8677063 3.1806335 3.670929 5.7660217 4.0046387 8.42688c0.33374023 2.6608582 -0.70458984 5.6166077 -2.0023193 7.5382385c-1.2977295 1.9216614 -3.4849548 3.585144 -5.784088 3.9916077c-2.2991028 0.40646362 -6.22554 -0.5510559 -8.010635 -1.5527954c-1.7851105 -1.0017395 -2.0539246 -2.9888 -2.6999512 -4.4575806c-0.6460266 -1.468811 -0.72535706 -4.3355103 -1.1762238 -4.355194c-0.45085144 -0.019714355 -0.7657776 3.2117004 -1.5289459 4.2370605c-0.76316833 1.0253601 -2.0113068 1.7973938 -3.050064 1.9150696c-1.0387573 0.1177063 -2.7696533 0.3069458 -3.1824799 -1.2088928c-0.4128418 -1.5158386 0.5487671 -5.512268 0.7054596 -7.8861084c0.15670776 -2.3738098 0.43077087 -4.3164673 0.23472595 -6.356903c-0.19602966 -2.0404358 -1.1757812 -4.9047546 -1.4109497 -5.885681" fill-rule="evenodd"/><path stroke="#000000" stroke-width="2.0" stroke-linejoin="round" stroke-linecap="butt" d="m256.03305 343.3379c1.2002563 1.7761841 5.3338623 7.476349 7.201599 10.657013c1.8677063 3.1806335 3.670929 5.7660217 4.0046387 8.42688c0.33374023 2.6608582 -0.70458984 5.6166077 -2.0023193 7.5382385c-1.2977295 1.9216614 -3.4849548 3.585144 -5.784088 3.9916077c-2.2991028 0.40646362 -6.22554 -0.5510559 -8.010635 -1.5527954c-1.7851105 -1.0017395 -2.0539246 -2.9888 -2.6999512 -4.4575806c-0.6460266 -1.468811 -0.72535706 -4.3355103 -1.1762238 -4.355194c-0.45085144 -0.019714355 -0.7657776 3.2117004 -1.5289459 4.2370605c-0.76316833 1.0253601 -2.0113068 1.7973938 -3.050064 1.9150696c-1.0387573 0.1177063 -2.7696533 0.3069458 -3.1824799 -1.2088928c-0.4128418 -1.5158386 0.5487671 -5.512268 0.7054596 -7.8861084c0.15670776 -2.3738098 0.43077087 -4.3164673 0.23472595 -6.356903c-0.19602966 -2.0404358 -1.1757812 -4.9047546 -1.4109497 -5.885681" fill-rule="evenodd"/><path fill="#cfe2f3" d="m217.0881 269.2687c-0.54855347 -1.7879944 -0.07714844 -4.270752 -0.70414734 -5.3632812c-0.62701416 -1.0925293 -0.27471924 -1.1124268 -3.0579224 -1.1918335c-2.7832031 -0.07940674 -11.01503 -0.27804565 -13.641312 0.71536255c-2.6262817 0.9934082 -1.4109497 3.6956177 -2.1164093 5.2451477c-0.70547485 1.54953 -1.0188751 2.7011108 -2.1164246 4.0519714c-1.0975494 1.3508911 -2.9790192 3.1791382 -4.468857 4.053314c-1.4898376 0.87420654 -3.254837 0.43688965 -4.4701843 1.1918335c-1.215332 0.75497437 -2.508484 1.3907166 -2.8218842 3.3379517c-0.31340027 1.9472351 0.43185425 3.6168518 0.9414978 8.3454895c0.5096588 4.7286377 1.4500732 14.979828 2.1164246 20.026306c0.6663513 5.046509 1.9992676 6.199402 1.8816986 10.252716c-0.11758423 4.053314 -0.9799652 9.060211 -2.5871735 14.067108c-1.607193 5.0069275 -5.3802032 11.699432 -7.0560303 15.974335c-1.675827 4.2749023 -3.3221436 7.3857727 -2.9989166 9.675171c0.3232422 2.2893982 -1.0103455 3.2497559 4.9383087 4.0611877c5.948654 0.81140137 21.276932 0.513855 30.753601 0.80722046c9.476654 0.29336548 20.853806 1.4298706 26.106384 0.9529724c5.2525787 -0.4769287 4.507553 -1.2714844 5.4090576 -3.8144226c0.9015045 -2.5429382 0.47032166 -7.151703 0 -11.443237c-0.4703064 -4.2915344 -1.900711 -10.014252 -2.8218842 -14.306c-0.92118835 -4.2917786 -1.9798279 -6.7555237 -2.705185 -11.44455c-0.72535706 -4.6890564 -1.078537 -11.205872 -1.6469727 -16.689697c-0.5684509 -5.4838257 -0.6464691 -11.921661 -1.7636871 -16.213226c-1.117218 -4.2915344 -2.50914 -6.714813 -4.9396057 -9.536011c-2.430481 -2.821228 -7.6048126 -5.265259 -9.643204 -7.3912354c-2.038391 -2.1259766 -2.0386047 -3.5766296 -2.5871735 -5.3645935z" fill-rule="evenodd"/><path stroke="#000000" stroke-width="2.0" stroke-linejoin="round" stroke-linecap="butt" d="m217.0881 269.2687c-0.54855347 -1.7879944 -0.07714844 -4.270752 -0.70414734 -5.3632812c-0.62701416 -1.0925293 -0.27471924 -1.1124268 -3.0579224 -1.1918335c-2.7832031 -0.07940674 -11.01503 -0.27804565 -13.641312 0.71536255c-2.6262817 0.9934082 -1.4109497 3.6956177 -2.1164093 5.2451477c-0.70547485 1.54953 -1.0188751 2.7011108 -2.1164246 4.0519714c-1.0975494 1.3508911 -2.9790192 3.1791382 -4.468857 4.053314c-1.4898376 0.87420654 -3.254837 0.43688965 -4.4701843 1.1918335c-1.215332 0.75497437 -2.508484 1.3907166 -2.8218842 3.3379517c-0.31340027 1.9472351 0.43185425 3.6168518 0.9414978 8.3454895c0.5096588 4.7286377 1.4500732 14.979828 2.1164246 20.026306c0.6663513 5.046509 1.9992676 6.199402 1.8816986 10.252716c-0.11758423 4.053314 -0.9799652 9.060211 -2.5871735 14.067108c-1.607193 5.0069275 -5.3802032 11.699432 -7.0560303 15.974335c-1.675827 4.2749023 -3.3221436 7.3857727 -2.9989166 9.675171c0.3232422 2.2893982 -1.0103455 3.2497559 4.9383087 4.0611877c5.948654 0.81140137 21.276932 0.513855 30.753601 0.80722046c9.476654 0.29336548 20.853806 1.4298706 26.106384 0.9529724c5.2525787 -0.4769287 4.507553 -1.2714844 5.4090576 -3.8144226c0.9015045 -2.5429382 0.47032166 -7.151703 0 -11.443237c-0.4703064 -4.2915344 -1.900711 -10.014252 -2.8218842 -14.306c-0.92118835 -4.2917786 -1.9798279 -6.7555237 -2.705185 -11.44455c-0.72535706 -4.6890564 -1.078537 -11.205872 -1.6469727 -16.689697c-0.5684509 -5.4838257 -0.6464691 -11.921661 -1.7636871 -16.213226c-1.117218 -4.2915344 -2.50914 -6.714813 -4.9396057 -9.536011c-2.430481 -2.821228 -7.6048126 -5.265259 -9.643204 -7.3912354c-2.038391 -2.1259766 -2.0386047 -3.5766296 -2.5871735 -5.3645935z" fill-rule="evenodd"/><path fill="#cfe2f3" d="m278.69345 214.71277c0.39230347 -2.118454 1.4907532 -1.0199738 1.8830872 -5.6492157c0.39233398 -4.629242 0.9416199 -15.221603 0.4708557 -22.126236c-0.47073364 -6.904648 -1.2554016 -12.710785 -3.2954102 -19.301575c-2.039978 -6.59079 -5.7276917 -14.829315 -8.944611 -20.24318c-3.216919 -5.413864 -5.0215454 -8.081558 -10.356964 -12.240021c-5.3354034 -4.158478 -15.378555 -9.886162 -21.655502 -12.71077c-6.276947 -2.8246078 -10.984619 -3.3737946 -16.006165 -4.2368774c-5.0215454 -0.86307526 -9.729248 -0.78466797 -14.123093 -0.941597c-4.39386 -0.15693665 -7.846176 -0.47077942 -12.240036 0c-4.3938446 0.47077942 -9.258453 1.2554245 -14.123093 2.824669c-4.8646393 1.569252 -10.592361 4.236969 -15.064697 6.5908127c-4.472336 2.353859 -7.6892853 3.6876602 -11.769287 7.53228c-4.080017 3.8446198 -9.493835 9.807724 -12.71077 15.535446c-3.216919 5.727707 -5.1784973 12.396973 -6.590805 18.830826c-1.412323 6.4338684 -1.9615479 13.26001 -1.8830719 19.772324c0.07847595 6.512314 1.3339233 14.044632 2.3539276 19.301575c1.0200195 5.2569275 1.8046265 7.1399994 3.7661438 12.240021c1.9615326 5.1000214 4.629181 12.710861 8.003021 18.360107c3.3738403 5.649231 6.433853 11.376831 12.240021 15.535294c5.8061676 4.158478 15.3785095 7.296997 22.596985 9.415497c7.2184906 2.1184692 11.847733 2.9031067 20.713913 3.2954102c8.86618 0.39230347 23.303177 -6.1035156E-5 32.4832 -0.9416199c9.180038 -0.9415283 16.398514 -2.275299 22.596985 -4.707611c6.198456 -2.432312 10.906128 -5.9631195 14.593842 -9.886215c3.687683 -3.9230957 6.4339294 -9.807739 7.5324097 -13.652359c1.0984497 -3.8446198 -0.78466797 -6.826111 -0.9416199 -9.4153595c-0.15692139 -2.5892334 -0.078430176 -3.9231415 0 -6.1200714c0.07846069 -2.1969452 0.07846069 -4.9430847 0.47073364 -7.061554z" fill-rule="evenodd"/><path stroke="#000000" stroke-width="2.0" stroke-linejoin="round" stroke-linecap="butt" d="m278.69345 214.71277c0.39230347 -2.118454 1.4907532 -1.0199738 1.8830872 -5.6492157c0.39233398 -4.629242 0.9416199 -15.221603 0.4708557 -22.126236c-0.47073364 -6.904648 -1.2554016 -12.710785 -3.2954102 -19.301575c-2.039978 -6.59079 -5.7276917 -14.829315 -8.944611 -20.24318c-3.216919 -5.413864 -5.0215454 -8.081558 -10.356964 -12.240021c-5.3354034 -4.158478 -15.378555 -9.886162 -21.655502 -12.71077c-6.276947 -2.8246078 -10.984619 -3.3737946 -16.006165 -4.2368774c-5.0215454 -0.86307526 -9.729248 -0.78466797 -14.123093 -0.941597c-4.39386 -0.15693665 -7.846176 -0.47077942 -12.240036 0c-4.3938446 0.47077942 -9.258453 1.2554245 -14.123093 2.824669c-4.8646393 1.569252 -10.592361 4.236969 -15.064697 6.5908127c-4.472336 2.353859 -7.6892853 3.6876602 -11.769287 7.53228c-4.080017 3.8446198 -9.493835 9.807724 -12.71077 15.535446c-3.216919 5.727707 -5.1784973 12.396973 -6.590805 18.830826c-1.412323 6.4338684 -1.9615479 13.26001 -1.8830719 19.772324c0.07847595 6.512314 1.3339233 14.044632 2.3539276 19.301575c1.0200195 5.2569275 1.8046265 7.1399994 3.7661438 12.240021c1.9615326 5.1000214 4.629181 12.710861 8.003021 18.360107c3.3738403 5.649231 6.433853 11.376831 12.240021 15.535294c5.8061676 4.158478 15.3785095 7.296997 22.596985 9.415497c7.2184906 2.1184692 11.847733 2.9031067 20.713913 3.2954102c8.86618 0.39230347 23.303177 -6.1035156E-5 32.4832 -0.9416199c9.180038 -0.9415283 16.398514 -2.275299 22.596985 -4.707611c6.198456 -2.432312 10.906128 -5.9631195 14.593842 -9.886215c3.687683 -3.9230957 6.4339294 -9.807739 7.5324097 -13.652359c1.0984497 -3.8446198 -0.78466797 -6.826111 -0.9416199 -9.4153595c-0.15692139 -2.5892334 -0.078430176 -3.9231415 0 -6.1200714c0.07846069 -2.1969452 0.07846069 -4.9430847 0.47073364 -7.061554z" fill-rule="evenodd"/><path fill="#cfe2f3" d="m142.2939 222.22008c-0.862381 -0.6670227 -3.5277863 -3.4527893 -5.1743317 -4.002121c-1.6465454 -0.5493164 -3.4895477 -0.11790466 -4.704895 0.70617676c-1.2153473 0.8240967 -1.9992676 2.7472687 -2.5871735 4.238388c-0.5878906 1.4911041 -1.4498444 2.5501556 -0.94018555 4.7082825c0.5096588 2.158142 2.743866 6.082367 3.998108 8.240494c1.254242 2.158142 2.0770874 3.2171783 3.527359 4.7082977c1.4502869 1.4911041 2.939911 3.4928284 5.1743317 4.238373c2.234436 0.7455597 6.4681396 0.7845001 8.232254 0.23495483c1.7641296 -0.54953 1.9603729 -2.9434967 2.3524475 -3.532196" fill-rule="evenodd"/><path stroke="#000000" stroke-width="2.0" stroke-linejoin="round" stroke-linecap="butt" d="m142.2939 222.22008c-0.862381 -0.6670227 -3.5277863 -3.4527893 -5.1743317 -4.002121c-1.6465454 -0.5493164 -3.4895477 -0.11790466 -4.704895 0.70617676c-1.2153473 0.8240967 -1.9992676 2.7472687 -2.5871735 4.238388c-0.5878906 1.4911041 -1.4498444 2.5501556 -0.94018555 4.7082825c0.5096588 2.158142 2.743866 6.082367 3.998108 8.240494c1.254242 2.158142 2.0770874 3.2171783 3.527359 4.7082977c1.4502869 1.4911041 2.939911 3.4928284 5.1743317 4.238373c2.234436 0.7455597 6.4681396 0.7845001 8.232254 0.23495483c1.7641296 -0.54953 1.9603729 -2.9434967 2.3524475 -3.532196" fill-rule="evenodd"/><path fill="#cfe2f3" d="m135.74968 231.18271c-0.27450562 -0.31391907 -1.6076355 -0.86346436 -1.6469727 -1.8835754c-0.03933716 -1.0201111 0.705246 -3.7662811 1.4109344 -4.2370605c0.7056885 -0.47079468 1.4120331 0.078308105 2.8231964 1.4123535c1.4111633 1.3340302 4.5855713 4.5514374 5.6437836 6.591873c1.0582123 2.0404205 0.5878906 4.7089386 0.70547485 5.6507263" fill-rule="evenodd"/><path stroke="#000000" stroke-width="2.0" stroke-linejoin="round" stroke-linecap="butt" d="m135.74968 231.18271c-0.27450562 -0.31391907 -1.6076355 -0.86346436 -1.6469727 -1.8835754c-0.03933716 -1.0201111 0.705246 -3.7662811 1.4109344 -4.2370605c0.7056885 -0.47079468 1.4120331 0.078308105 2.8231964 1.4123535c1.4111633 1.3340302 4.5855713 4.5514374 5.6437836 6.591873c1.0582123 2.0404205 0.5878906 4.7089386 0.70547485 5.6507263" fill-rule="evenodd"/><path fill="#cfe2f3" d="m194.05916 289.5504c-1.7639008 4.74765 -8.172592 22.188385 -10.583389 28.485992c-2.410797 6.297638 -2.0390472 7.730133 -3.8814087 9.299774c-1.8423615 1.5696411 -4.644348 1.2953186 -7.1727295 0.118133545c-2.5283813 -1.177185 -9.291336 -0.11834717 -7.9975433 -7.181244c1.293808 -7.062866 11.17392 -27.799713 15.760361 -35.196014c4.586441 -7.3962708 9.798584 -7.6513367 11.758301 -9.18161" fill-rule="evenodd"/><path stroke="#000000" stroke-width="2.0" stroke-linejoin="round" stroke-linecap="butt" d="m194.05916 289.5504c-1.7639008 4.74765 -8.172592 22.188385 -10.583389 28.485992c-2.410797 6.297638 -2.0390472 7.730133 -3.8814087 9.299774c-1.8423615 1.5696411 -4.644348 1.2953186 -7.1727295 0.118133545c-2.5283813 -1.177185 -9.291336 -0.11834717 -7.9975433 -7.181244c1.293808 -7.062866 11.17392 -27.799713 15.760361 -35.196014c4.586441 -7.3962708 9.798584 -7.6513367 11.758301 -9.18161" fill-rule="evenodd"/><path fill="#cfe2f3" d="m182.16016 321.44846c-1.6664276 4.453003 -7.7440186 20.734467 -9.998566 26.717926c-2.2545319 5.98349 -1.6863098 7.613312 -3.528656 9.182953c-1.8423615 1.5696411 -4.977646 1.4121399 -7.525482 0.23495483c-2.547821 -1.177185 -7.722809 -2.7468262 -7.761505 -7.2980347c-0.03868103 -4.551239 5.4905853 -14.241699 7.5294037 -20.009277c2.0388336 -5.7675476 3.9196625 -12.163391 4.703598 -14.596069" fill-rule="evenodd"/><path stroke="#000000" stroke-width="2.0" stroke-linejoin="round" stroke-linecap="butt" d="m182.16016 321.44846c-1.6664276 4.453003 -7.7440186 20.734467 -9.998566 26.717926c-2.2545319 5.98349 -1.6863098 7.613312 -3.528656 9.182953c-1.8423615 1.5696411 -4.977646 1.4121399 -7.525482 0.23495483c-2.547821 -1.177185 -7.722809 -2.7468262 -7.761505 -7.2980347c-0.03868103 -4.551239 5.4905853 -14.241699 7.5294037 -20.009277c2.0388336 -5.7675476 3.9196625 -12.163391 4.703598 -14.596069" fill-rule="evenodd"/><path fill="#cfe2f3" d="m154.8768 344.63666c-1.2002563 1.7761536 -5.3338776 7.476349 -7.201584 10.656982c-1.8677063 3.1806335 -3.6709442 5.7660217 -4.004669 8.42688c-0.33370972 2.6608582 0.7046051 5.6166077 2.0023346 7.538269c1.2977448 1.9216309 3.48497 3.585144 5.784088 3.9916077c2.299118 0.40646362 6.2255554 -0.5510864 8.010651 -1.5528259c1.7850952 -1.001709 2.0539093 -2.9887695 2.699936 -4.4575806c0.6460266 -1.4687805 0.72535706 -4.3355103 1.1762238 -4.355194c0.4508667 -0.019683838 0.76579285 3.2117004 1.5289612 4.2370605c0.76316833 1.0253601 2.0112915 1.7973938 3.0500488 1.9151001c1.0387573 0.11767578 2.7696533 0.30691528 3.182495 -1.2089233c0.41282654 -1.5158386 -0.54878235 -5.5122375 -0.70547485 -7.886078c-0.1566925 -2.3738403 -0.43075562 -4.316498 -0.23472595 -6.3569336c0.19604492 -2.0404053 1.1757965 -4.904724 1.4109497 -5.885681" fill-rule="evenodd"/><path stroke="#000000" stroke-width="2.0" stroke-linejoin="round" stroke-linecap="butt" d="m154.8768 344.63666c-1.2002563 1.7761536 -5.3338776 7.476349 -7.201584 10.656982c-1.8677063 3.1806335 -3.6709442 5.7660217 -4.004669 8.42688c-0.33370972 2.6608582 0.7046051 5.6166077 2.0023346 7.538269c1.2977448 1.9216309 3.48497 3.585144 5.784088 3.9916077c2.299118 0.40646362 6.2255554 -0.5510864 8.010651 -1.5528259c1.7850952 -1.001709 2.0539093 -2.9887695 2.699936 -4.4575806c0.6460266 -1.4687805 0.72535706 -4.3355103 1.1762238 -4.355194c0.4508667 -0.019683838 0.76579285 3.2117004 1.5289612 4.2370605c0.76316833 1.0253601 2.0112915 1.7973938 3.0500488 1.9151001c1.0387573 0.11767578 2.7696533 0.30691528 3.182495 -1.2089233c0.41282654 -1.5158386 -0.54878235 -5.5122375 -0.70547485 -7.886078c-0.1566925 -2.3738403 -0.43075562 -4.316498 -0.23472595 -6.3569336c0.19604492 -2.0404053 1.1757965 -4.904724 1.4109497 -5.885681" fill-rule="evenodd"/><path fill="#cfe2f3" d="m177.87451 352.68765c-0.22877502 0.7187195 -1.1854706 2.6351929 -1.3726959 4.3123474c-0.18722534 1.6771545 -1.708664 4.1671143 0.24934387 5.7506714c1.9580078 1.5835266 5.915573 2.9588623 11.498688 3.7506409c5.5831146 0.79177856 14.291336 0.8753357 22.0 1.0c7.708664 0.12466431 18.668411 0.20648193 24.251968 -0.25198364c5.583542 -0.45843506 7.718277 -1.0822144 9.249344 -2.4986572c1.5310516 -1.4164734 -0.021438599 -4.2917786 -0.06300354 -6.0c-0.041549683 -1.708252 -0.1552887 -3.5411377 -0.18634033 -4.249359" fill-rule="evenodd"/><path stroke="#000000" stroke-width="2.0" stroke-linejoin="round" stroke-linecap="butt" d="m177.87451 352.68765c-0.22877502 0.7187195 -1.1854706 2.6351929 -1.3726959 4.3123474c-0.18722534 1.6771545 -1.708664 4.1671143 0.24934387 5.7506714c1.9580078 1.5835266 5.915573 2.9588623 11.498688 3.7506409c5.5831146 0.79177856 14.291336 0.8753357 22.0 1.0c7.708664 0.12466431 18.668411 0.20648193 24.251968 -0.25198364c5.583542 -0.45843506 7.718277 -1.0822144 9.249344 -2.4986572c1.5310516 -1.4164734 -0.021438599 -4.2917786 -0.06300354 -6.0c-0.041549683 -1.708252 -0.1552887 -3.5411377 -0.18634033 -4.249359" fill-rule="evenodd"/><path fill="#cfe2f3" d="m175.98787 358.6453c-0.12741089 3.7080994 -0.5194855 15.322845 -0.7644806 22.248566c-0.24499512 6.9256897 -0.39186096 13.184387 -0.70547485 19.305695c-0.3136139 6.121277 -1.5289612 13.733704 -1.1762238 17.42212c0.35273743 3.688385 1.6069794 3.6096191 3.292633 4.7082825c1.685669 1.0986328 3.9205322 1.4911194 6.8213196 1.8835754c2.9007874 0.39245605 7.721939 0.6282959 10.583389 0.47122192c2.8614502 -0.15707397 4.860504 -0.5895691 6.5852814 -1.4136658c1.7247772 -0.8240967 2.901001 -1.9223022 3.763382 -3.5308838c0.86239624 -1.6086121 0.47010803 0.7855835 1.4109497 -6.1206665c0.9408417 -6.9062195 3.254181 -26.684021 4.234146 -35.316772c0.9799652 -8.632721 1.3713837 -13.733063 1.6456604 -16.479675" fill-rule="evenodd"/><path stroke="#000000" stroke-width="2.0" stroke-linejoin="round" stroke-linecap="butt" d="m175.98787 358.6453c-0.12741089 3.7080994 -0.5194855 15.322845 -0.7644806 22.248566c-0.24499512 6.9256897 -0.39186096 13.184387 -0.70547485 19.305695c-0.3136139 6.121277 -1.5289612 13.733704 -1.1762238 17.42212c0.35273743 3.688385 1.6069794 3.6096191 3.292633 4.7082825c1.685669 1.0986328 3.9205322 1.4911194 6.8213196 1.8835754c2.9007874 0.39245605 7.721939 0.6282959 10.583389 0.47122192c2.8614502 -0.15707397 4.860504 -0.5895691 6.5852814 -1.4136658c1.7247772 -0.8240967 2.901001 -1.9223022 3.763382 -3.5308838c0.86239624 -1.6086121 0.47010803 0.7855835 1.4109497 -6.1206665c0.9408417 -6.9062195 3.254181 -26.684021 4.234146 -35.316772c0.9799652 -8.632721 1.3713837 -13.733063 1.6456604 -16.479675" fill-rule="evenodd"/><path fill="#cfe2f3" d="m173.34267 413.37918c-0.2351532 2.0795898 -1.1364441 7.2588806 -1.4109344 12.47757c-0.27450562 5.2186584 -0.2557068 12.928864 -0.23603821 18.834473c0.01966858 5.9055786 0.079559326 12.94986 0.35404968 16.599121c0.27449036 3.649231 0.13659668 4.0996704 1.292923 5.2963257c1.1563416 1.1966553 2.3131104 1.4519348 5.645096 1.8835754c3.3319702 0.4316101 11.054138 1.1377869 14.346771 0.70617676c3.2926483 -0.43164062 4.311508 -1.6871338 5.4090576 -3.295929c1.0975494 -1.6088257 0.9801941 -4.0025635 1.1762238 -6.3569336c0.19604492 -2.3543396 -0.35273743 -4.1593933 0 -7.7692566c0.35273743 -3.6098633 1.332489 -8.828308 2.1164246 -13.889923c0.7839203 -5.0615845 1.999054 -12.595032 2.5871582 -16.479675c0.5881195 -3.884613 0.7845917 -5.690094 0.94151306 -6.828125" fill-rule="evenodd"/><path stroke="#000000" stroke-width="2.0" stroke-linejoin="round" stroke-linecap="butt" d="m173.34267 413.37918c-0.2351532 2.0795898 -1.1364441 7.2588806 -1.4109344 12.47757c-0.27450562 5.2186584 -0.2557068 12.928864 -0.23603821 18.834473c0.01966858 5.9055786 0.079559326 12.94986 0.35404968 16.599121c0.27449036 3.649231 0.13659668 4.0996704 1.292923 5.2963257c1.1563416 1.1966553 2.3131104 1.4519348 5.645096 1.8835754c3.3319702 0.4316101 11.054138 1.1377869 14.346771 0.70617676c3.2926483 -0.43164062 4.311508 -1.6871338 5.4090576 -3.295929c1.0975494 -1.6088257 0.9801941 -4.0025635 1.1762238 -6.3569336c0.19604492 -2.3543396 -0.35273743 -4.1593933 0 -7.7692566c0.35273743 -3.6098633 1.332489 -8.828308 2.1164246 -13.889923c0.7839203 -5.0615845 1.999054 -12.595032 2.5871582 -16.479675c0.5881195 -3.884613 0.7845917 -5.690094 0.94151306 -6.828125" fill-rule="evenodd"/><path fill="#cfe2f3" d="m171.93114 459.4044c0.058792114 1.0004272 -0.27449036 3.7072144 0.35273743 6.002533c0.6272278 2.295288 2.019165 5.728821 3.4106598 7.7692566c1.3914948 2.0404358 3.3311005 3.4138489 4.9382935 4.4733276c1.6072083 1.0595093 2.35289 1.4911194 4.704895 1.883606c2.3520203 0.39245605 6.898468 0.510376 9.407166 0.47122192c2.5087128 -0.03918457 4.390625 -0.23519897 5.645096 -0.70617676c1.2544556 -0.4710083 1.7641144 -1.138916 1.8816986 -2.119873c0.11756897 -0.9809265 -0.70570374 -1.7256165 -1.1762238 -3.7658386c-0.47053528 -2.0402222 -1.450943 -6.2387695 -1.6469879 -8.475433c-0.19602966 -2.2366638 0.39230347 -4.1204834 0.47076416 -4.94458" fill-rule="evenodd"/><path stroke="#000000" stroke-width="2.0" stroke-linejoin="round" stroke-linecap="butt" d="m171.93114 459.4044c0.058792114 1.0004272 -0.27449036 3.7072144 0.35273743 6.002533c0.6272278 2.295288 2.019165 5.728821 3.4106598 7.7692566c1.3914948 2.0404358 3.3311005 3.4138489 4.9382935 4.4733276c1.6072083 1.0595093 2.35289 1.4911194 4.704895 1.883606c2.3520203 0.39245605 6.898468 0.510376 9.407166 0.47122192c2.5087128 -0.03918457 4.390625 -0.23519897 5.645096 -0.70617676c1.2544556 -0.4710083 1.7641144 -1.138916 1.8816986 -2.119873c0.11756897 -0.9809265 -0.70570374 -1.7256165 -1.1762238 -3.7658386c-0.47053528 -2.0402222 -1.450943 -6.2387695 -1.6469879 -8.475433c-0.19602966 -2.2366638 0.39230347 -4.1204834 0.47076416 -4.94458" fill-rule="evenodd"/><path fill="#cfe2f3" d="m209.80183 359.58652c0.30749512 3.736969 1.0536194 15.501556 1.844986 22.421783c0.7913513 6.9202576 2.0707397 13.026886 2.903183 19.09964c0.83244324 6.0727234 1.0575562 13.778778 2.091507 17.336792c1.0339508 3.558014 2.25148 3.2464905 4.1121826 4.0112915c1.8607178 0.764801 4.1290283 0.7335205 7.052109 0.57754517c2.9230652 -0.15597534 7.704239 -0.82473755 10.486343 -1.5134277c2.7821198 -0.68865967 4.665344 -1.4869385 6.206314 -2.6186218c1.5409851 -1.1316833 2.4918823 -2.4300537 3.039566 -4.1714478c0.5476837 -1.7413635 0.60887146 0.68408203 0.246521 -6.276825c-0.36235046 -6.9609375 -1.7346039 -26.951813 -2.4206238 -35.48874c-0.68603516 -8.536926 -1.4129181 -13.110657 -1.6954956 -15.732788" fill-rule="evenodd"/><path stroke="#000000" stroke-width="2.0" stroke-linejoin="round" stroke-linecap="butt" d="m209.80183 359.58652c0.30749512 3.736969 1.0536194 15.501556 1.844986 22.421783c0.7913513 6.9202576 2.0707397 13.026886 2.903183 19.09964c0.83244324 6.0727234 1.0575562 13.778778 2.091507 17.336792c1.0339508 3.558014 2.25148 3.2464905 4.1121826 4.0112915c1.8607178 0.764801 4.1290283 0.7335205 7.052109 0.57754517c2.9230652 -0.15597534 7.704239 -0.82473755 10.486343 -1.5134277c2.7821198 -0.68865967 4.665344 -1.4869385 6.206314 -2.6186218c1.5409851 -1.1316833 2.4918823 -2.4300537 3.039566 -4.1714478c0.5476837 -1.7413635 0.60887146 0.68408203 0.246521 -6.276825c-0.36235046 -6.9609375 -1.7346039 -26.951813 -2.4206238 -35.48874c-0.68603516 -8.536926 -1.4129181 -13.110657 -1.6954956 -15.732788" fill-rule="evenodd"/><path fill="#cfe2f3" d="m215.84416 414.27484c0.15649414 2.086914 0.23612976 7.343384 0.9389801 12.521484c0.70285034 5.1781006 2.1582031 12.749115 3.278122 18.54712c1.1199036 5.798004 2.4915314 12.707153 3.44133 16.240936c0.9497986 3.5337524 0.89823914 4.002014 2.2574615 4.96167c1.3592072 0.95965576 2.5434113 0.9944458 5.897812 0.7962036c3.3543854 -0.19821167 11.073685 -0.9465637 14.228546 -1.9854736c3.1548615 -1.0389404 3.9220123 -2.462616 4.7006226 -4.2480774c0.7786102 -1.7854614 0.2171936 -4.1151733 -0.028945923 -6.4647217c-0.24613953 -2.3495483 -1.1217499 -4.020355 -1.4479065 -7.6325684c-0.32614136 -3.6122131 -0.33598328 -8.921814 -0.5090027 -14.040741c-0.17300415 -5.118927 -0.3829956 -12.746735 -0.52908325 -16.672821c-0.14607239 -3.926117 -0.289505 -5.736511 -0.34739685 -6.8838196" fill-rule="evenodd"/><path stroke="#000000" stroke-width="2.0" stroke-linejoin="round" stroke-linecap="butt" d="m215.84416 414.27484c0.15649414 2.086914 0.23612976 7.343384 0.9389801 12.521484c0.70285034 5.1781006 2.1582031 12.749115 3.278122 18.54712c1.1199036 5.798004 2.4915314 12.707153 3.44133 16.240936c0.9497986 3.5337524 0.89823914 4.002014 2.2574615 4.96167c1.3592072 0.95965576 2.5434113 0.9944458 5.897812 0.7962036c3.3543854 -0.19821167 11.073685 -0.9465637 14.228546 -1.9854736c3.1548615 -1.0389404 3.9220123 -2.462616 4.7006226 -4.2480774c0.7786102 -1.7854614 0.2171936 -4.1151733 -0.028945923 -6.4647217c-0.24613953 -2.3495483 -1.1217499 -4.020355 -1.4479065 -7.6325684c-0.32614136 -3.6122131 -0.33598328 -8.921814 -0.5090027 -14.040741c-0.17300415 -5.118927 -0.3829956 -12.746735 -0.52908325 -16.672821c-0.14607239 -3.926117 -0.289505 -5.736511 -0.34739685 -6.8838196" fill-rule="evenodd"/><path fill="#cfe2f3" d="m223.02637 459.75754c0.24420166 0.9718323 0.4211731 3.6932373 1.4652405 5.831024c1.0440674 2.1377563 3.0516357 5.250946 4.799164 6.9956055c1.7475281 1.74469 3.909317 2.73172 5.685974 3.472412c1.7766571 0.74069214 2.589798 1.0254822 4.973984 0.97180176c2.384201 -0.05368042 6.873459 -0.78689575 9.331177 -1.2938538c2.457718 -0.5069885 4.27034 -1.0509949 5.4151764 -1.7479858c1.1448364 -0.69696045 1.5211487 -1.4483032 1.4538574 -2.4339294c-0.06726074 -0.98565674 -1.0149841 -1.5634766 -1.857544 -3.4799194c-0.8425598 -1.9164429 -2.5883484 -5.8580627 -3.1977997 -8.018738c-0.6094513 -2.1607056 -0.3824463 -4.121216 -0.45892334 -4.945465" fill-rule="evenodd"/><path stroke="#000000" stroke-width="2.0" stroke-linejoin="round" stroke-linecap="butt" d="m223.02637 459.75754c0.24420166 0.9718323 0.4211731 3.6932373 1.4652405 5.831024c1.0440674 2.1377563 3.0516357 5.250946 4.799164 6.9956055c1.7475281 1.74469 3.909317 2.73172 5.685974 3.472412c1.7766571 0.74069214 2.589798 1.0254822 4.973984 0.97180176c2.384201 -0.05368042 6.873459 -0.78689575 9.331177 -1.2938538c2.457718 -0.5069885 4.27034 -1.0509949 5.4151764 -1.7479858c1.1448364 -0.69696045 1.5211487 -1.4483032 1.4538574 -2.4339294c-0.06726074 -0.98565674 -1.0149841 -1.5634766 -1.857544 -3.4799194c-0.8425598 -1.9164429 -2.5883484 -5.8580627 -3.1977997 -8.018738c-0.6094513 -2.1607056 -0.3824463 -4.121216 -0.45892334 -4.945465" fill-rule="evenodd"/><path fill="#cfe2f3" d="m169.12718 217.89319c0.8022766 1.3333282 2.8460236 3.0122528 4.627304 4.5643005c1.7812805 1.552063 3.5603638 3.1334229 6.060364 4.7480316c2.5 1.6146088 6.2309723 3.5643158 8.939636 4.939636c2.708664 1.3753357 4.9168854 2.8438263 7.312332 3.3123322c2.3954468 0.46850586 5.060364 0.3114624 7.060364 -0.50131226c2.0 -0.81277466 3.6163635 -2.9483795 4.939636 -4.3753204c1.3232727 -1.4269562 2.1671143 -2.7804108 3.0 -4.1863556c0.832901 -1.4059448 1.4252014 -2.4265137 1.9973755 -4.249344c0.57218933 -1.8228302 1.175415 -4.437439 1.4356995 -6.687668c0.26028442 -2.2502136 0.24060059 -4.6780396 0.12597656 -6.8136444c-0.114608765 -2.1356049 -0.3136444 -4.0 -0.8136444 -6.0c-0.5 -2.0 -1.0201263 -4.6041107 -2.1863556 -6.0c-1.1662292 -1.3958893 -2.6237946 -1.8648224 -4.81102 -2.3753204c-2.1872253 -0.51049805 -5.3438263 -0.5940552 -8.312332 -0.68766785c-2.9685059 -0.09361267 -6.6237946 -0.28041077 -9.498688 0.12597656c-2.8748932 0.40638733 -5.198593 0.8538971 -7.750656 2.3123474c-2.552063 1.458435 -5.676285 4.2926483 -7.561676 6.4383087c-1.8853912 2.1456757 -2.9588776 4.4356995 -3.7506561 6.4356995c-0.79177856 2.0 -0.86439514 4.0643005 -1.0 5.5643005c-0.13560486 1.5 -0.615921 2.1023712 0.18634033 3.4356995z" fill-rule="evenodd"/><path stroke="#000000" stroke-width="1.0" stroke-linejoin="round" stroke-linecap="butt" d="m169.12718 217.89319c0.8022766 1.3333282 2.8460236 3.0122528 4.627304 4.5643005c1.7812805 1.552063 3.5603638 3.1334229 6.060364 4.7480316c2.5 1.6146088 6.2309723 3.5643158 8.939636 4.939636c2.708664 1.3753357 4.9168854 2.8438263 7.312332 3.3123322c2.3954468 0.46850586 5.060364 0.3114624 7.060364 -0.50131226c2.0 -0.81277466 3.6163635 -2.9483795 4.939636 -4.3753204c1.3232727 -1.4269562 2.1671143 -2.7804108 3.0 -4.1863556c0.832901 -1.4059448 1.4252014 -2.4265137 1.9973755 -4.249344c0.57218933 -1.8228302 1.175415 -4.437439 1.4356995 -6.687668c0.26028442 -2.2502136 0.24060059 -4.6780396 0.12597656 -6.8136444c-0.114608765 -2.1356049 -0.3136444 -4.0 -0.8136444 -6.0c-0.5 -2.0 -1.0201263 -4.6041107 -2.1863556 -6.0c-1.1662292 -1.3958893 -2.6237946 -1.8648224 -4.81102 -2.3753204c-2.1872253 -0.51049805 -5.3438263 -0.5940552 -8.312332 -0.68766785c-2.9685059 -0.09361267 -6.6237946 -0.28041077 -9.498688 0.12597656c-2.8748932 0.40638733 -5.198593 0.8538971 -7.750656 2.3123474c-2.552063 1.458435 -5.676285 4.2926483 -7.561676 6.4383087c-1.8853912 2.1456757 -2.9588776 4.4356995 -3.7506561 6.4356995c-0.79177856 2.0 -0.86439514 4.0643005 -1.0 5.5643005c-0.13560486 1.5 -0.615921 2.1023712 0.18634033 3.4356995z" fill-rule="evenodd"/><path fill="#cfe2f3" d="m173.18628 217.45639c0.7497711 -0.9374542 1.4474945 -2.010498 2.6246643 -3.6876678c1.1771698 -1.6771698 2.6570435 -4.3753204 4.438324 -6.3753204c1.7812805 -2.0 3.7283478 -4.3018494 6.249344 -5.6246796c2.520996 -1.3228302 4.5638733 -2.343399 8.876633 -2.3123322c4.3127747 0.031051636 14.489502 3.1863556 17.0 2.4986877c2.510498 -0.68766785 -0.9995575 -5.395447 -1.9369965 -6.6246796c-0.9374542 -1.2292175 -1.0936127 -0.47987366 -3.6876678 -0.7506561c-2.5940552 -0.2707672 -8.209976 -0.92607117 -11.876648 -0.8740082c-3.6666565 0.05204773 -7.269455 0.1342926 -10.123352 1.1863556c-2.853897 1.0520477 -4.6767273 3.0008698 -7.0 5.1259766c-2.3232727 2.1251068 -5.3875732 5.1246796 -6.939636 7.6246796c-1.5520477 2.5 -2.456253 5.4168854 -2.372696 7.3753204c0.08354187 1.9584503 2.082672 3.9689484 2.8740082 4.3753357c0.79133606 0.40638733 1.1242371 -0.99957275 1.8740234 -1.9370117z" fill-rule="evenodd"/><path stroke="#000000" stroke-width="1.0" stroke-linejoin="round" stroke-linecap="butt" d="m173.18628 217.45639c0.7497711 -0.9374542 1.4474945 -2.010498 2.6246643 -3.6876678c1.1771698 -1.6771698 2.6570435 -4.3753204 4.438324 -6.3753204c1.7812805 -2.0 3.7283478 -4.3018494 6.249344 -5.6246796c2.520996 -1.3228302 4.5638733 -2.343399 8.876633 -2.3123322c4.3127747 0.031051636 14.489502 3.1863556 17.0 2.4986877c2.510498 -0.68766785 -0.9995575 -5.395447 -1.9369965 -6.6246796c-0.9374542 -1.2292175 -1.0936127 -0.47987366 -3.6876678 -0.7506561c-2.5940552 -0.2707672 -8.209976 -0.92607117 -11.876648 -0.8740082c-3.6666565 0.05204773 -7.269455 0.1342926 -10.123352 1.1863556c-2.853897 1.0520477 -4.6767273 3.0008698 -7.0 5.1259766c-2.3232727 2.1251068 -5.3875732 5.1246796 -6.939636 7.6246796c-1.5520477 2.5 -2.456253 5.4168854 -2.372696 7.3753204c0.08354187 1.9584503 2.082672 3.9689484 2.8740082 4.3753357c0.79133606 0.40638733 1.1242371 -0.99957275 1.8740234 -1.9370117z" fill-rule="evenodd"/><path fill="#cfe2f3" d="m188.60718 229.53404c0.6045532 0.6509094 1.3796997 1.8604584 2.6036682 2.7900238c1.2239685 0.9295654 2.9116364 2.3692017 4.740158 2.7873993c1.8285217 0.41819763 4.526245 0.20210266 6.2309723 -0.2782135c1.7047272 -0.48031616 2.85083 -1.5498657 3.9973755 -2.6036682c1.1465454 -1.0538177 1.9676361 -2.2318573 2.881897 -3.719162c0.91426086 -1.48732 1.9838104 -3.515747 2.6036682 -5.204727c0.6198578 -1.6889801 0.8985138 -3.131668 1.1154785 -4.929138c0.21697998 -1.7974548 0.24847412 -3.8412018 0.18635559 -5.8556366c-0.06211853 -2.0144348 -0.26464844 -4.2939606 -0.5590515 -6.2309723c-0.29440308 -1.9370117 -0.556427 -3.5936127 -1.2073517 -5.391083c-0.6509094 -1.7974548 -1.442688 -4.0612335 -2.698166 -5.393692c-1.2554626 -1.3324585 -3.2541504 -2.1517944 -4.8346405 -2.601059c-1.5804901 -0.44924927 -2.773407 -0.07873535 -4.6483 -0.09448242c-1.8748779 -0.01574707 -4.602356 -0.38757324 -6.6010437 0c-1.9986877 0.38757324 -3.8263397 1.4422607 -5.391083 2.3254547c-1.5647278 0.8832092 -3.145218 1.6259918 -3.9973755 2.973755c-0.85214233 1.3477631 -1.0069885 2.710846 -1.1154785 5.1128693c-0.10848999 2.402008 0.21697998 6.726593 0.4645691 9.29921c0.24758911 2.5726166 0.556427 4.2615814 1.0209961 6.1364746c0.4645691 1.8748932 1.0691223 3.4860077 1.7664032 5.1128693c0.6972809 1.6268616 1.8438263 3.6876526 2.417328 4.648285c0.5734863 0.9606323 0.41906738 0.4645691 1.0236206 1.1154938z" fill-rule="evenodd"/><path stroke="#000000" stroke-width="1.0" stroke-linejoin="round" stroke-linecap="butt" d="m188.60718 229.53404c0.6045532 0.6509094 1.3796997 1.8604584 2.6036682 2.7900238c1.2239685 0.9295654 2.9116364 2.3692017 4.740158 2.7873993c1.8285217 0.41819763 4.526245 0.20210266 6.2309723 -0.2782135c1.7047272 -0.48031616 2.85083 -1.5498657 3.9973755 -2.6036682c1.1465454 -1.0538177 1.9676361 -2.2318573 2.881897 -3.719162c0.91426086 -1.48732 1.9838104 -3.515747 2.6036682 -5.204727c0.6198578 -1.6889801 0.8985138 -3.131668 1.1154785 -4.929138c0.21697998 -1.7974548 0.24847412 -3.8412018 0.18635559 -5.8556366c-0.06211853 -2.0144348 -0.26464844 -4.2939606 -0.5590515 -6.2309723c-0.29440308 -1.9370117 -0.556427 -3.5936127 -1.2073517 -5.391083c-0.6509094 -1.7974548 -1.442688 -4.0612335 -2.698166 -5.393692c-1.2554626 -1.3324585 -3.2541504 -2.1517944 -4.8346405 -2.601059c-1.5804901 -0.44924927 -2.773407 -0.07873535 -4.6483 -0.09448242c-1.8748779 -0.01574707 -4.602356 -0.38757324 -6.6010437 0c-1.9986877 0.38757324 -3.8263397 1.4422607 -5.391083 2.3254547c-1.5647278 0.8832092 -3.145218 1.6259918 -3.9973755 2.973755c-0.85214233 1.3477631 -1.0069885 2.710846 -1.1154785 5.1128693c-0.10848999 2.402008 0.21697998 6.726593 0.4645691 9.29921c0.24758911 2.5726166 0.556427 4.2615814 1.0209961 6.1364746c0.4645691 1.8748932 1.0691223 3.4860077 1.7664032 5.1128693c0.6972809 1.6268616 1.8438263 3.6876526 2.417328 4.648285c0.5734863 0.9606323 0.41906738 0.4645691 1.0236206 1.1154938z" fill-rule="evenodd"/><path fill="#cfe2f3" d="m202.14572 203.81606c-1.785614 -0.66023254 -6.2626495 -1.2102509 -7.9916534 0c-1.7290039 1.2102356 -2.155487 4.8138733 -2.3823242 7.261444c-0.22683716 2.447586 0.36912537 5.554306 1.0213165 7.424057c0.65219116 1.8697357 1.4179993 3.1894684 2.891861 3.794403c1.4738464 0.60494995 4.505722 0.5225525 5.9512787 -0.16477966c1.4455414 -0.68733215 2.0701904 -2.4743195 2.7220001 -3.959198c0.65182495 -1.4848785 1.1039886 -3.2176666 1.1889038 -4.9500885c0.08491516 -1.7324219 -0.112472534 -3.8768158 -0.67936707 -5.444458c-0.56689453 -1.567627 -0.93640137 -3.3011475 -2.7220154 -3.96138z" fill-rule="evenodd"/><path stroke="#000000" stroke-width="1.0" stroke-linejoin="round" stroke-linecap="butt" d="m202.14572 203.81606c-1.785614 -0.66023254 -6.2626495 -1.2102509 -7.9916534 0c-1.7290039 1.2102356 -2.155487 4.8138733 -2.3823242 7.261444c-0.22683716 2.447586 0.36912537 5.554306 1.0213165 7.424057c0.65219116 1.8697357 1.4179993 3.1894684 2.891861 3.794403c1.4738464 0.60494995 4.505722 0.5225525 5.9512787 -0.16477966c1.4455414 -0.68733215 2.0701904 -2.4743195 2.7220001 -3.959198c0.65182495 -1.4848785 1.1039886 -3.2176666 1.1889038 -4.9500885c0.08491516 -1.7324219 -0.112472534 -3.8768158 -0.67936707 -5.444458c-0.56689453 -1.567627 -0.93640137 -3.3011475 -2.7220154 -3.96138z" fill-rule="evenodd"/><path fill="#cfe2f3" d="m189.81682 210.19308c1.7510986 -0.32502747 3.0831146 -1.3311462 4.4619446 -2.3228455c1.37883 -0.99168396 3.082672 -2.588791 3.81102 -3.6272888c0.7283478 -1.0384979 0.5279999 -1.6894226 0.5590515 -2.6036835c0.031066895 -0.91426086 0.10762024 -2.0761108 -0.37269592 -2.8818817c-0.48031616 -0.8057709 -1.2694702 -1.6273041 -2.5091858 -1.9527588c-1.2397156 -0.3254547 -3.518814 -0.01574707 -4.929138 0c-1.4103241 0.01574707 -2.2930908 -0.27734375 -3.5328064 0.09448242c-1.2397156 0.37184143 -2.743225 1.4549408 -3.9055176 2.1364899c-1.1622925 0.6815338 -2.3556366 1.0384979 -3.0682373 1.9527588c-0.7126007 0.91426086 -1.1299133 2.370514 -1.2073517 3.5328064c-0.077423096 1.1622925 -0.031921387 2.5577393 0.7427826 3.4409485c0.77471924 0.88319397 2.2471619 1.4864349 3.9055176 1.8582611c1.6583557 0.37182617 4.293518 0.6977234 6.0446167 0.37271118z" fill-rule="evenodd"/><path stroke="#000000" stroke-width="1.0" stroke-linejoin="round" stroke-linecap="butt" d="m189.81682 210.19308c1.7510986 -0.32502747 3.0831146 -1.3311462 4.4619446 -2.3228455c1.37883 -0.99168396 3.082672 -2.588791 3.81102 -3.6272888c0.7283478 -1.0384979 0.5279999 -1.6894226 0.5590515 -2.6036835c0.031066895 -0.91426086 0.10762024 -2.0761108 -0.37269592 -2.8818817c-0.48031616 -0.8057709 -1.2694702 -1.6273041 -2.5091858 -1.9527588c-1.2397156 -0.3254547 -3.518814 -0.01574707 -4.929138 0c-1.4103241 0.01574707 -2.2930908 -0.27734375 -3.5328064 0.09448242c-1.2397156 0.37184143 -2.743225 1.4549408 -3.9055176 2.1364899c-1.1622925 0.6815338 -2.3556366 1.0384979 -3.0682373 1.9527588c-0.7126007 0.91426086 -1.1299133 2.370514 -1.2073517 3.5328064c-0.077423096 1.1622925 -0.031921387 2.5577393 0.7427826 3.4409485c0.77471924 0.88319397 2.2471619 1.4864349 3.9055176 1.8582611c1.6583557 0.37182617 4.293518 0.6977234 6.0446167 0.37271118z" fill-rule="evenodd"/><path fill="#cfe2f3" d="m212.87183 199.31693c0.04637146 0.6045532 -1.2707825 -0.93000793 -2.417328 -1.4881897c-1.1465302 -0.55818176 -3.0673523 -1.442688 -4.4619293 -1.8608856c-1.394577 -0.41819763 -2.557312 -0.46238708 -3.9055176 -0.6483002c-1.3482056 -0.18591309 -2.6496124 -0.4671936 -4.183731 -0.4671936c-1.5341187 0 -3.3783875 0.20341492 -5.020996 0.4671936c-1.6426086 0.2637787 -3.3626404 0.6045532 -4.8346405 1.1154938c-1.4720001 0.5109253 -2.494751 1.0826721 -3.9973755 1.9501343c-1.5026245 0.8674469 -3.5153198 1.937439 -5.0183716 3.254593c-1.503067 1.3171387 -2.961502 3.2847748 -4.0 4.648285c-1.0384979 1.3635254 -1.9055176 2.1688538 -2.2309723 3.5328064c-0.3254547 1.3639526 -0.031936646 2.9772644 0.2782135 4.6509247c0.31015015 1.6736603 0.69903564 3.4234467 1.5826721 5.3910675c0.88365173 1.9676361 3.719162 5.639984 3.719162 6.4147034c0 0.77471924 -2.510498 -1.0848694 -3.719162 -1.7664032c-1.208664 -0.6815338 -2.4943085 -1.4860077 -3.5328064 -2.3228302c-1.0384979 -0.83683777 -1.8766327 -1.783905 -2.698166 -2.698166c-0.82151794 -0.91426086 -1.564743 -1.9816284 -2.2309723 -2.7873993c-0.66622925 -0.8057709 -1.1622925 -1.0245056 -1.7664032 -2.0472412c-0.6041107 -1.0227509 -1.9824982 -2.7878418 -1.8582611 -4.0892487c0.12423706 -1.3013916 1.3486481 -2.216095 2.6036682 -3.719162c1.2550354 -1.5030518 2.8814545 -3.3932648 4.9265137 -5.2992096c2.0450592 -1.9059448 4.9575653 -4.5713043 7.3438263 -6.1364746c2.3862762 -1.5651855 4.6028137 -2.4024506 6.973755 -3.254593c2.3709564 -0.85214233 5.005249 -1.5638733 7.2519684 -1.8582764c2.2467194 -0.29440308 3.7335968 -0.2642212 6.228348 0.09187317c2.494751 0.3560791 6.6946716 1.4094391 8.740158 2.0446167c2.0455017 0.63516235 2.494751 0.6194153 3.5328064 1.7664032c1.0380707 1.1469727 2.64917 4.5109406 2.6955414 5.1154785z" fill-rule="evenodd"/><path stroke="#000000" stroke-width="1.0" stroke-linejoin="round" stroke-linecap="butt" d="m212.87183 199.31693c0.04637146 0.6045532 -1.2707825 -0.93000793 -2.417328 -1.4881897c-1.1465302 -0.55818176 -3.0673523 -1.442688 -4.4619293 -1.8608856c-1.394577 -0.41819763 -2.557312 -0.46238708 -3.9055176 -0.6483002c-1.3482056 -0.18591309 -2.6496124 -0.4671936 -4.183731 -0.4671936c-1.5341187 0 -3.3783875 0.20341492 -5.020996 0.4671936c-1.6426086 0.2637787 -3.3626404 0.6045532 -4.8346405 1.1154938c-1.4720001 0.5109253 -2.494751 1.0826721 -3.9973755 1.9501343c-1.5026245 0.8674469 -3.5153198 1.937439 -5.0183716 3.254593c-1.503067 1.3171387 -2.961502 3.2847748 -4.0 4.648285c-1.0384979 1.3635254 -1.9055176 2.1688538 -2.2309723 3.5328064c-0.3254547 1.3639526 -0.031936646 2.9772644 0.2782135 4.6509247c0.31015015 1.6736603 0.69903564 3.4234467 1.5826721 5.3910675c0.88365173 1.9676361 3.719162 5.639984 3.719162 6.4147034c0 0.77471924 -2.510498 -1.0848694 -3.719162 -1.7664032c-1.208664 -0.6815338 -2.4943085 -1.4860077 -3.5328064 -2.3228302c-1.0384979 -0.83683777 -1.8766327 -1.783905 -2.698166 -2.698166c-0.82151794 -0.91426086 -1.564743 -1.9816284 -2.2309723 -2.7873993c-0.66622925 -0.8057709 -1.1622925 -1.0245056 -1.7664032 -2.0472412c-0.6041107 -1.0227509 -1.9824982 -2.7878418 -1.8582611 -4.0892487c0.12423706 -1.3013916 1.3486481 -2.216095 2.6036682 -3.719162c1.2550354 -1.5030518 2.8814545 -3.3932648 4.9265137 -5.2992096c2.0450592 -1.9059448 4.9575653 -4.5713043 7.3438263 -6.1364746c2.3862762 -1.5651855 4.6028137 -2.4024506 6.973755 -3.254593c2.3709564 -0.85214233 5.005249 -1.5638733 7.2519684 -1.8582764c2.2467194 -0.29440308 3.7335968 -0.2642212 6.228348 0.09187317c2.494751 0.3560791 6.6946716 1.4094391 8.740158 2.0446167c2.0455017 0.63516235 2.494751 0.6194153 3.5328064 1.7664032c1.0380707 1.1469727 2.64917 4.5109406 2.6955414 5.1154785z" fill-rule="evenodd"/><path fill="#cfe2f3" d="m200.22845 221.90846c-0.7283478 0.15486145 -1.1474152 0.4033203 -1.6745453 0.837265c-0.52711487 0.43395996 -1.3022614 1.1929169 -1.4881897 1.7664185c-0.18591309 0.5734863 -0.2471466 1.0546722 0.37271118 1.67453c0.6198578 0.6198578 2.0446167 1.6885376 3.3464508 2.0446167c1.3018494 0.35609436 3.1163635 0.21566772 4.464569 0.09187317c1.3482056 -0.123794556 2.7725372 -0.3237152 3.6246796 -0.83465576c0.85214233 -0.5109253 1.4571228 -1.4715576 1.4881897 -2.230957c0.031051636 -0.7594147 -0.7283478 -1.7519684 -1.3018494 -2.32547c-0.5734863 -0.5734863 -1.1163483 -0.9295654 -2.1390991 -1.1154785c-1.0227509 -0.18591309 -2.881897 -0.015319824 -3.9973755 0c-1.1154938 0.015304565 -1.9671936 -0.06298828 -2.6955414 0.09185791z" fill-rule="evenodd"/><path stroke="#000000" stroke-width="1.0" stroke-linejoin="round" stroke-linecap="butt" d="m200.22845 221.90846c-0.7283478 0.15486145 -1.1474152 0.4033203 -1.6745453 0.837265c-0.52711487 0.43395996 -1.3022614 1.1929169 -1.4881897 1.7664185c-0.18591309 0.5734863 -0.2471466 1.0546722 0.37271118 1.67453c0.6198578 0.6198578 2.0446167 1.6885376 3.3464508 2.0446167c1.3018494 0.35609436 3.1163635 0.21566772 4.464569 0.09187317c1.3482056 -0.123794556 2.7725372 -0.3237152 3.6246796 -0.83465576c0.85214233 -0.5109253 1.4571228 -1.4715576 1.4881897 -2.230957c0.031051636 -0.7594147 -0.7283478 -1.7519684 -1.3018494 -2.32547c-0.5734863 -0.5734863 -1.1163483 -0.9295654 -2.1390991 -1.1154785c-1.0227509 -0.18591309 -2.881897 -0.015319824 -3.9973755 0c-1.1154938 0.015304565 -1.9671936 -0.06298828 -2.6955414 0.09185791z" fill-rule="evenodd"/><path fill="#cfe2f3" d="m274.56583 217.35634c-0.4673767 1.1897278 -1.658081 2.6878204 -2.6958618 4.0727234c-1.0377502 1.384903 -2.0742493 2.7959595 -3.5307617 4.236664c-1.4564819 1.4407196 -3.6301575 3.1804352 -5.2082214 4.4076385c-1.578064 1.2272034 -2.8645935 2.5375519 -4.2601624 2.955597c-1.3955994 0.41804504 -2.9481812 0.27792358 -4.113373 -0.44732666c-1.1652069 -0.725235 -2.106903 -2.6308289 -2.8778381 -3.9040985c-0.77093506 -1.2732697 -1.262558 -2.480957 -1.7478027 -3.735489c-0.48524475 -1.2545166 -0.83032227 -2.1651611 -1.1636658 -3.791687c-0.33335876 -1.6265106 -0.6847992 -3.9595337 -0.83644104 -5.967392c-0.15164185 -2.0078735 -0.14016724 -4.174225 -0.073394775 -6.0798187c0.06677246 -1.9056091 0.18273926 -3.5691986 0.47402954 -5.3538055c0.29130554 -1.7846069 0.59432983 -4.108246 1.2737732 -5.3538055c0.67944336 -1.2455444 1.5286255 -1.6639862 2.8029022 -2.1195068c1.2742767 -0.45550537 3.1133118 -0.5300598 4.8427734 -0.6136017c1.7294312 -0.08352661 3.8590088 -0.25019836 5.5339355 0.11242676c1.6748962 0.36260986 3.0286865 0.7619171 4.5155334 2.0632935c1.4868164 1.3013611 3.3070068 3.8303375 4.405426 5.744919c1.0984192 1.9145813 1.7238464 3.957962 2.1851196 5.742569c0.4613037 1.7845917 0.5036011 3.6265717 0.5826111 4.965027c0.07901001 1.3384552 0.35882568 1.8759308 -0.10858154 3.0656738z" fill-rule="evenodd"/><path stroke="#000000" stroke-width="1.0" stroke-linejoin="round" stroke-linecap="butt" d="m274.56583 217.35634c-0.4673767 1.1897278 -1.658081 2.6878204 -2.6958618 4.0727234c-1.0377502 1.384903 -2.0742493 2.7959595 -3.5307617 4.236664c-1.4564819 1.4407196 -3.6301575 3.1804352 -5.2082214 4.4076385c-1.578064 1.2272034 -2.8645935 2.5375519 -4.2601624 2.955597c-1.3955994 0.41804504 -2.9481812 0.27792358 -4.113373 -0.44732666c-1.1652069 -0.725235 -2.106903 -2.6308289 -2.8778381 -3.9040985c-0.77093506 -1.2732697 -1.262558 -2.480957 -1.7478027 -3.735489c-0.48524475 -1.2545166 -0.83032227 -2.1651611 -1.1636658 -3.791687c-0.33335876 -1.6265106 -0.6847992 -3.9595337 -0.83644104 -5.967392c-0.15164185 -2.0078735 -0.14016724 -4.174225 -0.073394775 -6.0798187c0.06677246 -1.9056091 0.18273926 -3.5691986 0.47402954 -5.3538055c0.29130554 -1.7846069 0.59432983 -4.108246 1.2737732 -5.3538055c0.67944336 -1.2455444 1.5286255 -1.6639862 2.8029022 -2.1195068c1.2742767 -0.45550537 3.1133118 -0.5300598 4.8427734 -0.6136017c1.7294312 -0.08352661 3.8590088 -0.25019836 5.5339355 0.11242676c1.6748962 0.36260986 3.0286865 0.7619171 4.5155334 2.0632935c1.4868164 1.3013611 3.3070068 3.8303375 4.405426 5.744919c1.0984192 1.9145813 1.7238464 3.957962 2.1851196 5.742569c0.4613037 1.7845917 0.5036011 3.6265717 0.5826111 4.965027c0.07901001 1.3384552 0.35882568 1.8759308 -0.10858154 3.0656738z" fill-rule="evenodd"/><path fill="#cfe2f3" d="m272.20102 216.96657c-0.4368286 -0.83647156 -0.84332275 -1.7939606 -1.5291443 -3.2904968c-0.68582153 -1.4965363 -1.5479736 -3.9040985 -2.5857544 -5.6887054c-1.0377808 -1.7845917 -2.1721497 -3.8385315 -3.6408691 -5.0188904c-1.4687195 -1.1803741 -2.658905 -2.0910187 -5.1715393 -2.0632935c-2.5126038 0.027709961 -8.441574 2.8431702 -9.90419 2.2295685c-1.462616 -0.6136017 0.5823364 -4.8143616 1.1284943 -5.911194c0.54615784 -1.0968323 0.637146 -0.42819214 2.1484375 -0.66981506c1.5112915 -0.24160767 4.783142 -0.82632446 6.919342 -0.7798767c2.1362 0.046447754 4.2351685 0.11982727 5.8978577 1.0585785c1.6626892 0.9387512 2.7246704 2.6776886 4.078186 4.5739136c1.3535461 1.8962402 3.1388245 4.572754 4.04303 6.8034973c0.90423584 2.2307587 1.4310303 4.833496 1.3823547 6.581009c-0.048675537 1.7475128 -1.2133789 3.5414886 -1.674408 3.9040985c-0.46102905 0.36262512 -0.65496826 -0.89190674 -1.0917969 -1.7283936z" fill-rule="evenodd"/><path stroke="#000000" stroke-width="1.0" stroke-linejoin="round" stroke-linecap="butt" d="m272.20102 216.96657c-0.4368286 -0.83647156 -0.84332275 -1.7939606 -1.5291443 -3.2904968c-0.68582153 -1.4965363 -1.5479736 -3.9040985 -2.5857544 -5.6887054c-1.0377808 -1.7845917 -2.1721497 -3.8385315 -3.6408691 -5.0188904c-1.4687195 -1.1803741 -2.658905 -2.0910187 -5.1715393 -2.0632935c-2.5126038 0.027709961 -8.441574 2.8431702 -9.90419 2.2295685c-1.462616 -0.6136017 0.5823364 -4.8143616 1.1284943 -5.911194c0.54615784 -1.0968323 0.637146 -0.42819214 2.1484375 -0.66981506c1.5112915 -0.24160767 4.783142 -0.82632446 6.919342 -0.7798767c2.1362 0.046447754 4.2351685 0.11982727 5.8978577 1.0585785c1.6626892 0.9387512 2.7246704 2.6776886 4.078186 4.5739136c1.3535461 1.8962402 3.1388245 4.572754 4.04303 6.8034973c0.90423584 2.2307587 1.4310303 4.833496 1.3823547 6.581009c-0.048675537 1.7475128 -1.2133789 3.5414886 -1.674408 3.9040985c-0.46102905 0.36262512 -0.65496826 -0.89190674 -1.0917969 -1.7283936z" fill-rule="evenodd"/><path fill="#cfe2f3" d="m263.2168 227.74347c-0.35220337 0.58081055 -0.8038025 1.66008 -1.5169067 2.4895325c-0.71307373 0.8294525 -1.6963196 2.1140442 -2.7615967 2.4871979c-1.0653076 0.3731537 -2.6369934 0.18034363 -3.6301727 -0.24824524c-0.9931793 -0.42858887 -1.6608887 -1.3829498 -2.3288727 -2.3232574c-0.66796875 -0.9403229 -1.1463318 -1.9914856 -1.6789856 -3.3186188c-0.5326538 -1.3271179 -1.155777 -3.1371002 -1.5169067 -4.644165c-0.36112976 -1.5070801 -0.523468 -2.7943878 -0.6498718 -4.3982697c-0.12641907 -1.6038818 -0.14476013 -3.4275055 -0.10858154 -5.224991c0.036193848 -1.7974854 0.15419006 -3.8314972 0.3257141 -5.5598907c0.17152405 -1.7283936 0.32417297 -3.2065887 0.70339966 -4.8104553c0.37922668 -1.6038818 0.84051514 -3.6238556 1.5719452 -4.812805c0.7314453 -1.1889496 1.895874 -1.920044 2.8166656 -2.3209229c0.9207916 -0.40086365 1.6157837 -0.070251465 2.7080994 -0.08430481c1.0923157 -0.014053345 2.6813354 -0.34584045 3.8457642 0c1.1644287 0.34584045 2.2292175 1.2869263 3.1408386 2.0750122c0.9116211 0.7880707 1.832428 1.4508667 2.328888 2.653473c0.49645996 1.2026215 0.5866699 2.4188843 0.6498718 4.56221c0.063201904 2.1433105 -0.12640381 6.002136 -0.2706604 8.297684c-0.14422607 2.2955475 -0.3241577 3.8026123 -0.5948181 5.475586c-0.2706604 1.6729584 -0.62286377 3.1105652 -1.0291138 4.56221c-0.40625 1.4516449 -1.0742188 3.2904968 -1.4083252 4.1476593c-0.33413696 0.85717773 -0.24417114 0.41453552 -0.5963745 0.9953613z" fill-rule="evenodd"/><path stroke="#000000" stroke-width="1.0" stroke-linejoin="round" stroke-linecap="butt" d="m263.2168 227.74347c-0.35220337 0.58081055 -0.8038025 1.66008 -1.5169067 2.4895325c-0.71307373 0.8294525 -1.6963196 2.1140442 -2.7615967 2.4871979c-1.0653076 0.3731537 -2.6369934 0.18034363 -3.6301727 -0.24824524c-0.9931793 -0.42858887 -1.6608887 -1.3829498 -2.3288727 -2.3232574c-0.66796875 -0.9403229 -1.1463318 -1.9914856 -1.6789856 -3.3186188c-0.5326538 -1.3271179 -1.155777 -3.1371002 -1.5169067 -4.644165c-0.36112976 -1.5070801 -0.523468 -2.7943878 -0.6498718 -4.3982697c-0.12641907 -1.6038818 -0.14476013 -3.4275055 -0.10858154 -5.224991c0.036193848 -1.7974854 0.15419006 -3.8314972 0.3257141 -5.5598907c0.17152405 -1.7283936 0.32417297 -3.2065887 0.70339966 -4.8104553c0.37922668 -1.6038818 0.84051514 -3.6238556 1.5719452 -4.812805c0.7314453 -1.1889496 1.895874 -1.920044 2.8166656 -2.3209229c0.9207916 -0.40086365 1.6157837 -0.070251465 2.7080994 -0.08430481c1.0923157 -0.014053345 2.6813354 -0.34584045 3.8457642 0c1.1644287 0.34584045 2.2292175 1.2869263 3.1408386 2.0750122c0.9116211 0.7880707 1.832428 1.4508667 2.328888 2.653473c0.49645996 1.2026215 0.5866699 2.4188843 0.6498718 4.56221c0.063201904 2.1433105 -0.12640381 6.002136 -0.2706604 8.297684c-0.14422607 2.2955475 -0.3241577 3.8026123 -0.5948181 5.475586c-0.2706604 1.6729584 -0.62286377 3.1105652 -1.0291138 4.56221c-0.40625 1.4516449 -1.0742188 3.2904968 -1.4083252 4.1476593c-0.33413696 0.85717773 -0.24417114 0.41453552 -0.5963745 0.9953613z" fill-rule="evenodd"/><path fill="#cfe2f3" d="m261.99783 206.71361c-1.1798706 -0.572052 -4.138092 -1.0485992 -5.280548 0c-1.1424408 1.0486145 -1.4242401 4.1709595 -1.5741272 6.2916565c-0.14988708 2.1206818 0.24389648 4.8124847 0.67485046 6.4325104c0.43092346 1.6200256 0.9369354 2.763504 1.9108124 3.2876434c0.97384644 0.52415466 2.9771729 0.4527588 3.9323425 -0.14277649c0.95513916 -0.5955353 1.3678894 -2.1438446 1.798584 -3.43042c0.43069458 -1.28656 0.72946167 -2.7879333 0.785553 -4.288971c0.056121826 -1.5010529 -0.0743103 -3.3590393 -0.44888306 -4.7173157c-0.37460327 -1.3582611 -0.6187439 -2.86026 -1.798584 -3.4323273z" fill-rule="evenodd"/><path stroke="#000000" stroke-width="1.0" stroke-linejoin="round" stroke-linecap="butt" d="m261.99783 206.71361c-1.1798706 -0.572052 -4.138092 -1.0485992 -5.280548 0c-1.1424408 1.0486145 -1.4242401 4.1709595 -1.5741272 6.2916565c-0.14988708 2.1206818 0.24389648 4.8124847 0.67485046 6.4325104c0.43092346 1.6200256 0.9369354 2.763504 1.9108124 3.2876434c0.97384644 0.52415466 2.9771729 0.4527588 3.9323425 -0.14277649c0.95513916 -0.5955353 1.3678894 -2.1438446 1.798584 -3.43042c0.43069458 -1.28656 0.72946167 -2.7879333 0.785553 -4.288971c0.056121826 -1.5010529 -0.0743103 -3.3590393 -0.44888306 -4.7173157c-0.37460327 -1.3582611 -0.6187439 -2.86026 -1.798584 -3.4323273z" fill-rule="evenodd"/><path fill="#cfe2f3" d="m262.51205 210.48552c-1.0201721 -0.29000854 -1.7962036 -1.1877747 -2.5995178 -2.0726624c-0.8033142 -0.8848877 -1.7959595 -2.3099823 -2.2203064 -3.2366333c-0.42434692 -0.926651 -0.3076172 -1.5074615 -0.3257141 -2.3232574c-0.018096924 -0.8157959 -0.062683105 -1.8525238 0.21713257 -2.571518c0.2798462 -0.71899414 0.7395935 -1.4520264 1.461853 -1.7424469c0.7222595 -0.29040527 2.0500793 -0.014038086 2.8717346 0c0.8216553 0.014053345 1.3359375 -0.24746704 2.058197 0.08432007c0.7222595 0.3317871 1.5982056 1.2982483 2.27536 1.9063873c0.67715454 0.60813904 1.372406 0.926651 1.7875671 1.7424316c0.41516113 0.8157959 0.6582947 2.115219 0.70339966 3.1523285c0.04510498 1.0371246 0.018585205 2.2822723 -0.43273926 3.0703583c-0.45135498 0.78808594 -1.3092041 1.326355 -2.27536 1.6581268c-0.966156 0.3317871 -2.5014038 0.6225891 -3.5216064 0.3325653z" fill-rule="evenodd"/><path stroke="#000000" stroke-width="1.0" stroke-linejoin="round" stroke-linecap="butt" d="m262.51205 210.48552c-1.0201721 -0.29000854 -1.7962036 -1.1877747 -2.5995178 -2.0726624c-0.8033142 -0.8848877 -1.7959595 -2.3099823 -2.2203064 -3.2366333c-0.42434692 -0.926651 -0.3076172 -1.5074615 -0.3257141 -2.3232574c-0.018096924 -0.8157959 -0.062683105 -1.8525238 0.21713257 -2.571518c0.2798462 -0.71899414 0.7395935 -1.4520264 1.461853 -1.7424469c0.7222595 -0.29040527 2.0500793 -0.014038086 2.8717346 0c0.8216553 0.014053345 1.3359375 -0.24746704 2.058197 0.08432007c0.7222595 0.3317871 1.5982056 1.2982483 2.27536 1.9063873c0.67715454 0.60813904 1.372406 0.926651 1.7875671 1.7424316c0.41516113 0.8157959 0.6582947 2.115219 0.70339966 3.1523285c0.04510498 1.0371246 0.018585205 2.2822723 -0.43273926 3.0703583c-0.45135498 0.78808594 -1.3092041 1.326355 -2.27536 1.6581268c-0.966156 0.3317871 -2.5014038 0.6225891 -3.5216064 0.3325653z" fill-rule="evenodd"/><path fill="#cfe2f3" d="m249.08022 200.78073c-0.027023315 0.53944397 0.74035645 -0.82984924 1.4083252 -1.3279114c0.667984 -0.49806213 1.7870483 -1.2873077 2.599533 -1.6604614c0.81248474 -0.37316895 1.4898834 -0.4125824 2.2753448 -0.57847595c0.7854767 -0.16589355 1.5436554 -0.41688538 2.4374542 -0.41688538c0.8937683 0 1.9682312 0.1815033 2.925232 0.41688538c0.9569702 0.23536682 1.9590759 0.5394287 2.8166504 0.99534607c0.857605 0.4559021 1.4534607 0.96606445 2.328888 1.740097c0.87542725 0.7740326 2.0480042 1.7287903 2.923706 2.9040833c0.8756714 1.1752777 1.7253723 2.9309998 2.3303833 4.1476593c0.6050415 1.2166748 1.1101685 1.9352722 1.2997742 3.1523285c0.18960571 1.2170563 0.018585205 2.656601 -0.16210938 4.1500244c-0.18066406 1.4934082 -0.40725708 3.0547333 -0.9220581 4.8104553c-0.514801 1.7557068 -2.1667786 5.032547 -2.1667786 5.723831c0 0.6912842 1.462616 -0.96803284 2.1667786 -1.5761566c0.7041626 -0.60813904 1.453186 -1.3259735 2.0582275 -2.0726776c0.605011 -0.7467041 1.0933228 -1.5917664 1.5719299 -2.4075623c0.4786377 -0.8157959 0.9116211 -1.7682037 1.2997742 -2.4871979c0.38815308 -0.71899414 0.67715454 -0.9141693 1.0291138 -1.826767c0.35195923 -0.9125824 1.1549988 -2.4875793 1.0826111 -3.648819c-0.07235718 -1.1612396 -0.78570557 -1.9774323 -1.5168762 -3.3186035c-0.7312012 -1.3411865 -1.6787415 -3.0278168 -2.8702087 -4.728485c-1.1914368 -1.7006836 -2.8882751 -4.0789795 -4.2785034 -5.475586c-1.3902283 -1.3966217 -2.6815796 -2.1437073 -4.0629272 -2.9040833c-1.3813171 -0.7603607 -2.9160461 -1.3954315 -4.2249756 -1.6581268c-1.3089294 -0.2626953 -2.1752014 -0.23576355 -3.6286316 0.081970215c-1.4534607 0.31773376 -3.9003143 1.2576447 -5.0920258 1.8244171c-1.1917114 0.5667572 -1.4534454 0.55270386 -2.0582123 1.5761566c-0.60476685 1.0234528 -1.5434113 4.025116 -1.5704193 4.5645447z" fill-rule="evenodd"/><path stroke="#000000" stroke-width="1.0" stroke-linejoin="round" stroke-linecap="butt" d="m249.08022 200.78073c-0.027023315 0.53944397 0.74035645 -0.82984924 1.4083252 -1.3279114c0.667984 -0.49806213 1.7870483 -1.2873077 2.599533 -1.6604614c0.81248474 -0.37316895 1.4898834 -0.4125824 2.2753448 -0.57847595c0.7854767 -0.16589355 1.5436554 -0.41688538 2.4374542 -0.41688538c0.8937683 0 1.9682312 0.1815033 2.925232 0.41688538c0.9569702 0.23536682 1.9590759 0.5394287 2.8166504 0.99534607c0.857605 0.4559021 1.4534607 0.96606445 2.328888 1.740097c0.87542725 0.7740326 2.0480042 1.7287903 2.923706 2.9040833c0.8756714 1.1752777 1.7253723 2.9309998 2.3303833 4.1476593c0.6050415 1.2166748 1.1101685 1.9352722 1.2997742 3.1523285c0.18960571 1.2170563 0.018585205 2.656601 -0.16210938 4.1500244c-0.18066406 1.4934082 -0.40725708 3.0547333 -0.9220581 4.8104553c-0.514801 1.7557068 -2.1667786 5.032547 -2.1667786 5.723831c0 0.6912842 1.462616 -0.96803284 2.1667786 -1.5761566c0.7041626 -0.60813904 1.453186 -1.3259735 2.0582275 -2.0726776c0.605011 -0.7467041 1.0933228 -1.5917664 1.5719299 -2.4075623c0.4786377 -0.8157959 0.9116211 -1.7682037 1.2997742 -2.4871979c0.38815308 -0.71899414 0.67715454 -0.9141693 1.0291138 -1.826767c0.35195923 -0.9125824 1.1549988 -2.4875793 1.0826111 -3.648819c-0.07235718 -1.1612396 -0.78570557 -1.9774323 -1.5168762 -3.3186035c-0.7312012 -1.3411865 -1.6787415 -3.0278168 -2.8702087 -4.728485c-1.1914368 -1.7006836 -2.8882751 -4.0789795 -4.2785034 -5.475586c-1.3902283 -1.3966217 -2.6815796 -2.1437073 -4.0629272 -2.9040833c-1.3813171 -0.7603607 -2.9160461 -1.3954315 -4.2249756 -1.6581268c-1.3089294 -0.2626953 -2.1752014 -0.23576355 -3.6286316 0.081970215c-1.4534607 0.31773376 -3.9003143 1.2576447 -5.0920258 1.8244171c-1.1917114 0.5667572 -1.4534454 0.55270386 -2.0582123 1.5761566c-0.60476685 1.0234528 -1.5434113 4.025116 -1.5704193 4.5645447z" fill-rule="evenodd"/><path fill="#cfe2f3" d="m256.44623 220.93916c0.42434692 0.1381836 0.66848755 0.3598938 0.97561646 0.74710083c0.3070984 0.38720703 0.7586975 1.0644379 0.8670044 1.5761566c0.108306885 0.511734 0.14398193 0.9410858 -0.21713257 1.4942017c-0.36114502 0.5531006 -1.1911926 1.5066833 -1.949646 1.8244019c-0.75845337 0.31773376 -1.8155975 0.19244385 -2.601059 0.081970215c-0.7854614 -0.110458374 -1.6152802 -0.28884888 -2.11174 -0.744751c-0.49645996 -0.4559021 -0.8489227 -1.3130798 -0.86701965 -1.9906921c-0.018096924 -0.6776123 0.42434692 -1.5632782 0.75845337 -2.0750122c0.3341217 -0.51171875 0.6503906 -0.8294525 1.2462463 -0.99534607c0.5958557 -0.16589355 1.6789856 -0.013656616 2.3288727 0c0.6498871 0.013656616 1.1460876 -0.05621338 1.570404 0.081970215z" fill-rule="evenodd"/><path stroke="#000000" stroke-width="1.0" stroke-linejoin="round" stroke-linecap="butt" d="m256.44623 220.93916c0.42434692 0.1381836 0.66848755 0.3598938 0.97561646 0.74710083c0.3070984 0.38720703 0.7586975 1.0644379 0.8670044 1.5761566c0.108306885 0.511734 0.14398193 0.9410858 -0.21713257 1.4942017c-0.36114502 0.5531006 -1.1911926 1.5066833 -1.949646 1.8244019c-0.75845337 0.31773376 -1.8155975 0.19244385 -2.601059 0.081970215c-0.7854614 -0.110458374 -1.6152802 -0.28884888 -2.11174 -0.744751c-0.49645996 -0.4559021 -0.8489227 -1.3130798 -0.86701965 -1.9906921c-0.018096924 -0.6776123 0.42434692 -1.5632782 0.75845337 -2.0750122c0.3341217 -0.51171875 0.6503906 -0.8294525 1.2462463 -0.99534607c0.5958557 -0.16589355 1.6789856 -0.013656616 2.3288727 0c0.6498871 0.013656616 1.1460876 -0.05621338 1.570404 0.081970215z" fill-rule="evenodd"/></g></svg>