<svg version="1.1" viewBox="0.0 0.0 416.51443569553805 585.3517060367454" fill="none" stroke="none" stroke-linecap="square" stroke-miterlimit="10" xmlns:xlink="http://www.w3.org/1999/xlink" xmlns="http://www.w3.org/2000/svg"><clipPath id="p.0"><path d="m0 0l416.51443 0l0 585.3517l-416.51443 0l0 -585.3517z" clip-rule="nonzero"/></clipPath><g clip-path="url(#p.0)"><path fill="#000000" fill-opacity="0.0" d="m0 0l416.51443 0l0 585.3517l-416.51443 0z" fill-rule="evenodd"/><path fill="#cfe2f3" d="m216.8683 288.25165c1.7639008 4.7476807 8.172592 22.188385 10.583389 28.486023c2.410797 6.297638 2.0390472 7.7301025 3.8814087 9.299744c1.8423615 1.5696716 4.6443634 1.2953186 7.1727295 0.118133545c2.5283813 -1.177185 9.291336 -0.11834717 7.9975433 -7.1812134c-1.293808 -7.062866 -11.173904 -27.799744 -15.760345 -35.196014c-4.586441 -7.3962708 -9.798584 -7.651367 -11.758301 -9.181641" fill-rule="evenodd"/><path stroke="#000000" stroke-width="2.0" stroke-linejoin="round" stroke-linecap="butt" d="m216.8683 288.25165c1.7639008 4.7476807 8.172592 22.188385 10.583389 28.486023c2.410797 6.297638 2.0390472 7.7301025 3.8814087 9.299744c1.8423615 1.5696716 4.6443634 1.2953186 7.1727295 0.118133545c2.5283813 -1.177185 9.291336 -0.11834717 7.9975433 -7.1812134c-1.293808 -7.062866 -11.173904 -27.799744 -15.760345 -35.196014c-4.586441 -7.3962708 -9.798584 -7.651367 -11.758301 -9.181641" fill-rule="evenodd"/><path fill="#cfe2f3" d="m228.74971 320.14972c1.6664124 4.4529724 7.7440186 20.734436 9.99855 26.717926c2.2545319 5.98349 1.6863098 7.6132812 3.5286713 9.182953c1.8423615 1.5696411 4.977646 1.4121094 7.525467 0.23495483c2.5478363 -1.177185 7.722809 -2.7468567 7.761505 -7.298065c0.03869629 -4.5512085 -5.49057 -14.241699 -7.5294037 -20.009247c-2.0388336 -5.7675476 -3.9196472 -12.163422 -4.703583 -14.5961" fill-rule="evenodd"/><path stroke="#000000" stroke-width="2.0" stroke-linejoin="round" stroke-linecap="butt" d="m228.74971 320.14972c1.6664124 4.4529724 7.7440186 20.734436 9.99855 26.717926c2.2545319 5.98349 1.6863098 7.6132812 3.5286713 9.182953c1.8423615 1.5696411 4.977646 1.4121094 7.525467 0.23495483c2.5478363 -1.177185 7.722809 -2.7468567 7.761505 -7.298065c0.03869629 -4.5512085 -5.49057 -14.241699 -7.5294037 -20.009247c-2.0388336 -5.7675476 -3.9196472 -12.163422 -4.703583 -14.5961" fill-rule="evenodd"/><path fill="#cfe2f3" d="m196.9779 96.82029c1.6687164 -1.7758179 2.7815857 -2.6919708 2.0038605 -5.490143c-0.7777252 -2.7981644 -4.22377 -8.178726 -6.670212 -11.298843c-2.446457 -3.1201172 -4.61615 -5.2698593 -8.008484 -7.4218597c-3.392334 -2.1520004 -7.562393 -4.198944 -12.34552 -5.490143c-4.783127 -1.2911987 -10.179321 -2.4185944 -16.353256 -2.2570572c-6.173935 0.1615448 -13.90564 0.9669876 -20.690308 3.226303c-6.784668 2.2593231 -13.733986 5.8640594 -20.017677 10.329605c-6.283699 4.465538 -12.011543 7.5867844 -17.684502 16.463646c-5.672966 8.876862 -12.015045 24.208588 -16.353264 36.79751c-4.338211 12.588913 -7.6184387 27.760239 -9.676025 38.735992c-2.0575867 10.975769 -2.8364868 16.788986 -2.6694946 27.118591c0.16699219 10.329605 -0.2767563 24.153244 3.6714249 34.85901c3.9481888 10.70578 9.729744 18.938736 20.017677 29.375656c10.287941 10.43692 41.653877 34.26819 41.709923 33.24585c0.05606079 -1.0223389 -32.30831 -28.888763 -41.373604 -39.379898c-9.065292 -10.49115 -9.847694 -15.282028 -13.01815 -23.56694c-3.170456 -8.284927 -5.3938675 -15.382568 -6.0046005 -26.142563c-0.61074066 -10.76001 2.2841263 -37.932816 2.3401794 -38.417435c0.05605316 -0.4846344 -2.1696854 25.663574 -2.003868 35.50969c0.16582489 9.8461 -1.5612869 13.451981 2.9988022 23.56694c4.560089 10.11496 15.963226 26.900558 24.361732 37.122833c8.398499 10.22229 25.640427 24.588165 26.02929 24.210846c0.3888626 -0.37728882 -18.134094 -19.103638 -23.696114 -26.47467c-5.562027 -7.3710175 -6.728615 -9.520767 -9.676033 -17.75145c-2.9474106 -8.230698 -7.118637 -28.781448 -8.008469 -31.632706c-0.88983154 -2.8512726 -0.2779312 6.2402344 2.669487 14.5251465c2.9474182 8.284912 7.6184464 24.424347 15.015015 35.184357c7.3965683 10.76001 26.471863 27.385193 29.364395 29.37564c2.8925323 1.990448 -9.228775 -11.353058 -12.009201 -17.432892c-2.780426 -6.079834 -3.2276764 -9.7388 -4.6733627 -19.046051c-1.4456787 -9.307251 -4.0007324 -23.240463 -4.0007324 -36.7975c0 -13.557037 1.2203064 -30.287277 4.0007324 -44.54471c2.7804337 -14.257416 6.00811 -29.593674 12.681831 -40.999832c6.6737366 -11.406166 17.350525 -22.380806 27.360535 -27.437157c10.01001 -5.0563507 25.914856 -1.5566711 32.69951 -2.9009628c6.784668 -1.3442917 6.339752 -3.388977 8.008484 -5.1648026z" fill-rule="evenodd"/><path stroke="#000000" stroke-width="2.0" stroke-linejoin="round" stroke-linecap="butt" d="m196.9779 96.82029c1.6687164 -1.7758179 2.7815857 -2.6919708 2.0038605 -5.490143c-0.7777252 -2.7981644 -4.22377 -8.178726 -6.670212 -11.298843c-2.446457 -3.1201172 -4.61615 -5.2698593 -8.008484 -7.4218597c-3.392334 -2.1520004 -7.562393 -4.198944 -12.34552 -5.490143c-4.783127 -1.2911987 -10.179321 -2.4185944 -16.353256 -2.2570572c-6.173935 0.1615448 -13.90564 0.9669876 -20.690308 3.226303c-6.784668 2.2593231 -13.733986 5.8640594 -20.017677 10.329605c-6.283699 4.465538 -12.011543 7.5867844 -17.684502 16.463646c-5.672966 8.876862 -12.015045 24.208588 -16.353264 36.79751c-4.338211 12.588913 -7.6184387 27.760239 -9.676025 38.735992c-2.0575867 10.975769 -2.8364868 16.788986 -2.6694946 27.118591c0.16699219 10.329605 -0.2767563 24.153244 3.6714249 34.85901c3.9481888 10.70578 9.729744 18.938736 20.017677 29.375656c10.287941 10.43692 41.653877 34.26819 41.709923 33.24585c0.05606079 -1.0223389 -32.30831 -28.888763 -41.373604 -39.379898c-9.065292 -10.49115 -9.847694 -15.282028 -13.01815 -23.56694c-3.170456 -8.284927 -5.3938675 -15.382568 -6.0046005 -26.142563c-0.61074066 -10.76001 2.2841263 -37.932816 2.3401794 -38.417435c0.05605316 -0.4846344 -2.1696854 25.663574 -2.003868 35.50969c0.16582489 9.8461 -1.5612869 13.451981 2.9988022 23.56694c4.560089 10.11496 15.963226 26.900558 24.361732 37.122833c8.398499 10.22229 25.640427 24.588165 26.02929 24.210846c0.3888626 -0.37728882 -18.134094 -19.103638 -23.696114 -26.47467c-5.562027 -7.3710175 -6.728615 -9.520767 -9.676033 -17.75145c-2.9474106 -8.230698 -7.118637 -28.781448 -8.008469 -31.632706c-0.88983154 -2.8512726 -0.2779312 6.2402344 2.669487 14.5251465c2.9474182 8.284912 7.6184464 24.424347 15.015015 35.184357c7.3965683 10.76001 26.471863 27.385193 29.364395 29.37564c2.8925323 1.990448 -9.228775 -11.353058 -12.009201 -17.432892c-2.780426 -6.079834 -3.2276764 -9.7388 -4.6733627 -19.046051c-1.4456787 -9.307251 -4.0007324 -23.240463 -4.0007324 -36.7975c0 -13.557037 1.2203064 -30.287277 4.0007324 -44.54471c2.7804337 -14.257416 6.00811 -29.593674 12.681831 -40.999832c6.6737366 -11.406166 17.350525 -22.380806 27.360535 -27.437157c10.01001 -5.0563507 25.914856 -1.5566711 32.69951 -2.9009628c6.784668 -1.3442917 6.339752 -3.388977 8.008484 -5.1648026z" fill-rule="evenodd"/><path fill="#cfe2f3" d="m194.3088 104.2441c4.004242 -1.7215958 5.5631866 -8.504066 8.344788 -11.624191c2.781601 -3.1201172 4.841522 -4.9445114 8.344788 -7.096512c3.5032654 -2.1520004 9.505539 -4.846237 12.674835 -5.815483c3.169281 -0.9692459 4.4491425 -1.3454285 6.340912 0c1.8917694 1.3454208 4.230774 5.059738 5.009674 8.07254c0.77890015 3.0128021 -0.61424255 7.206093 -0.33631897 10.004257c0.27792358 2.7981644 1.1700897 4.2554245 2.0038757 6.784729c0.83377075 2.5293121 2.720871 5.6483 2.9987946 8.391106c0.27792358 2.742813 -0.275589 6.0753098 -1.3312378 8.065765c-1.0556488 1.9904633 -1.9443207 3.5539093 -5.0026703 3.8769913c-3.0583496 0.32308197 -9.398102 -0.97037506 -13.347458 -1.9384995c-3.949356 -0.96811676 -7.7901 -2.3101501 -10.348648 -3.8702087c-2.5585632 -1.5600586 -2.9450836 -3.6600952 -5.0026703 -5.490143c-2.0575867 -1.8300476 -4.2833405 -5.221283 -7.3428497 -5.490143c-3.0595245 -0.26885223 -7.287979 1.9938507 -11.014282 3.8769913c-3.7263184 1.8831406 -7.951248 4.3017426 -11.343582 7.4218597c-3.392334 3.1201172 -5.2841034 8.177597 -9.0104065 11.298843c-3.7263184 3.1212463 -9.343231 5.4381866 -13.347458 7.4286346c-4.004242 1.9904633 -7.6756744 3.97641 -10.677963 4.5141144c-3.002304 0.5377197 -5.668289 0.3253479 -7.335846 -1.2878113c-1.6675568 -1.6131439 -2.7243805 -4.6790466 -2.6694946 -8.391098c0.054885864 -3.7120514 3.332779 -10.16806 2.9987946 -13.881248c-0.33396912 -3.7131882 -3.613037 -5.2235413 -5.0026703 -8.397881c-1.3896332 -3.1743393 -3.1120682 -7.4749527 -3.335106 -10.648163c-0.22304535 -3.1732178 -0.22771454 -6.992592 1.9968643 -8.391106c2.2245789 -1.3985214 6.956314 -0.053092957 11.350586 0c4.394272 0.053092957 10.120941 -0.48801422 15.015015 0.31855774c4.8940735 0.8065796 10.401199 2.6919785 14.349396 4.520897c3.9481812 1.8289185 5.169647 5.161415 9.339706 6.452614c4.170059 1.2911987 11.676407 3.0161896 15.680634 1.2945862z" fill-rule="evenodd"/><path stroke="#000000" stroke-width="2.0" stroke-linejoin="round" stroke-linecap="butt" d="m194.3088 104.2441c4.004242 -1.7215958 5.5631866 -8.504066 8.344788 -11.624191c2.781601 -3.1201172 4.841522 -4.9445114 8.344788 -7.096512c3.5032654 -2.1520004 9.505539 -4.846237 12.674835 -5.815483c3.169281 -0.9692459 4.4491425 -1.3454285 6.340912 0c1.8917694 1.3454208 4.230774 5.059738 5.009674 8.07254c0.77890015 3.0128021 -0.61424255 7.206093 -0.33631897 10.004257c0.27792358 2.7981644 1.1700897 4.2554245 2.0038757 6.784729c0.83377075 2.5293121 2.720871 5.6483 2.9987946 8.391106c0.27792358 2.742813 -0.275589 6.0753098 -1.3312378 8.065765c-1.0556488 1.9904633 -1.9443207 3.5539093 -5.0026703 3.8769913c-3.0583496 0.32308197 -9.398102 -0.97037506 -13.347458 -1.9384995c-3.949356 -0.96811676 -7.7901 -2.3101501 -10.348648 -3.8702087c-2.5585632 -1.5600586 -2.9450836 -3.6600952 -5.0026703 -5.490143c-2.0575867 -1.8300476 -4.2833405 -5.221283 -7.3428497 -5.490143c-3.0595245 -0.26885223 -7.287979 1.9938507 -11.014282 3.8769913c-3.7263184 1.8831406 -7.951248 4.3017426 -11.343582 7.4218597c-3.392334 3.1201172 -5.2841034 8.177597 -9.0104065 11.298843c-3.7263184 3.1212463 -9.343231 5.4381866 -13.347458 7.4286346c-4.004242 1.9904633 -7.6756744 3.97641 -10.677963 4.5141144c-3.002304 0.5377197 -5.668289 0.3253479 -7.335846 -1.2878113c-1.6675568 -1.6131439 -2.7243805 -4.6790466 -2.6694946 -8.391098c0.054885864 -3.7120514 3.332779 -10.16806 2.9987946 -13.881248c-0.33396912 -3.7131882 -3.613037 -5.2235413 -5.0026703 -8.397881c-1.3896332 -3.1743393 -3.1120682 -7.4749527 -3.335106 -10.648163c-0.22304535 -3.1732178 -0.22771454 -6.992592 1.9968643 -8.391106c2.2245789 -1.3985214 6.956314 -0.053092957 11.350586 0c4.394272 0.053092957 10.120941 -0.48801422 15.015015 0.31855774c4.8940735 0.8065796 10.401199 2.6919785 14.349396 4.520897c3.9481812 1.8289185 5.169647 5.161415 9.339706 6.452614c4.170059 1.2911987 11.676407 3.0161896 15.680634 1.2945862z" fill-rule="evenodd"/><path fill="#cfe2f3" d="m188.97157 96.82051c-2.8364716 0.054222107 -5.78389 -0.48349762 -8.008469 0c-2.2245789 0.48349 -4.8391876 1.2878113 -5.338974 2.9009628c-0.49980164 1.6131516 3.8967896 6.13179 2.3401794 6.777954c-1.5566254 0.64616394 -11.7908325 -2.9009628 -11.679901 -2.9009628c0.1109314 0 10.343979 0.42700958 12.34552 2.9009628c2.0015411 2.4739532 -1.3370819 9.574982 -0.33631897 11.942749c1.0007782 2.3677673 2.8364868 2.3711548 6.340927 2.2638397c3.504425 -0.10732269 11.404297 -1.5623245 14.685699 -2.9077454c3.2813873 -1.3454208 4.279831 -2.9597015 5.0026703 -5.1648026c0.72283936 -2.2050934 -2.1113129 -5.967987 -0.6656189 -8.065758c1.4456787 -2.0977783 9.395767 -4.57399 9.339706 -4.520897c-0.056045532 0.053092957 -7.4514465 4.8936844 -9.676025 4.8394547c-2.2245789 -0.054222107 -2.781601 -3.7662811 -3.6714325 -5.164795c-0.88983154 -1.3985214 0.11210632 -2.742813 -1.6675568 -3.2263107c-1.7796478 -0.48349 -6.1739197 0.27111816 -9.0104065 0.3253479z" fill-rule="evenodd"/><path stroke="#000000" stroke-width="2.0" stroke-linejoin="round" stroke-linecap="butt" d="m188.97157 96.82051c-2.8364716 0.054222107 -5.78389 -0.48349762 -8.008469 0c-2.2245789 0.48349 -4.8391876 1.2878113 -5.338974 2.9009628c-0.49980164 1.6131516 3.8967896 6.13179 2.3401794 6.777954c-1.5566254 0.64616394 -11.7908325 -2.9009628 -11.679901 -2.9009628c0.1109314 0 10.343979 0.42700958 12.34552 2.9009628c2.0015411 2.4739532 -1.3370819 9.574982 -0.33631897 11.942749c1.0007782 2.3677673 2.8364868 2.3711548 6.340927 2.2638397c3.504425 -0.10732269 11.404297 -1.5623245 14.685699 -2.9077454c3.2813873 -1.3454208 4.279831 -2.9597015 5.0026703 -5.1648026c0.72283936 -2.2050934 -2.1113129 -5.967987 -0.6656189 -8.065758c1.4456787 -2.0977783 9.395767 -4.57399 9.339706 -4.520897c-0.056045532 0.053092957 -7.4514465 4.8936844 -9.676025 4.8394547c-2.2245789 -0.054222107 -2.781601 -3.7662811 -3.6714325 -5.164795c-0.88983154 -1.3985214 0.11210632 -2.742813 -1.6675568 -3.2263107c-1.7796478 -0.48349 -6.1739197 0.27111816 -9.0104065 0.3253479z" fill-rule="evenodd"/><path fill="#cfe2f3" d="m256.03305 343.3379c1.2002563 1.7761841 5.3338623 7.476349 7.201599 10.657013c1.8677063 3.1806335 3.670929 5.7660217 4.0046387 8.42688c0.33374023 2.6608582 -0.70458984 5.6166077 -2.0023193 7.5382385c-1.2977295 1.9216614 -3.4849548 3.585144 -5.784088 3.9916077c-2.2991028 0.40646362 -6.22554 -0.5510559 -8.010635 -1.5527954c-1.7851105 -1.0017395 -2.0539246 -2.9888 -2.6999512 -4.4575806c-0.6460266 -1.468811 -0.72535706 -4.3355103 -1.1762238 -4.355194c-0.45085144 -0.019714355 -0.7657776 3.2117004 -1.5289459 4.2370605c-0.76316833 1.0253601 -2.0113068 1.7973938 -3.050064 1.9150696c-1.0387573 0.1177063 -2.7696533 0.3069458 -3.1824799 -1.2088928c-0.4128418 -1.5158386 0.5487671 -5.512268 0.7054596 -7.8861084c0.15670776 -2.3738098 0.43077087 -4.3164673 0.23472595 -6.356903c-0.19602966 -2.0404358 -1.1757812 -4.9047546 -1.4109497 -5.885681" fill-rule="evenodd"/><path stroke="#000000" stroke-width="2.0" stroke-linejoin="round" stroke-linecap="butt" d="m256.03305 343.3379c1.2002563 1.7761841 5.3338623 7.476349 7.201599 10.657013c1.8677063 3.1806335 3.670929 5.7660217 4.0046387 8.42688c0.33374023 2.6608582 -0.70458984 5.6166077 -2.0023193 7.5382385c-1.2977295 1.9216614 -3.4849548 3.585144 -5.784088 3.9916077c-2.2991028 0.40646362 -6.22554 -0.5510559 -8.010635 -1.5527954c-1.7851105 -1.0017395 -2.0539246 -2.9888 -2.6999512 -4.4575806c-0.6460266 -1.468811 -0.72535706 -4.3355103 -1.1762238 -4.355194c-0.45085144 -0.019714355 -0.7657776 3.2117004 -1.5289459 4.2370605c-0.76316833 1.0253601 -2.0113068 1.7973938 -3.050064 1.9150696c-1.0387573 0.1177063 -2.7696533 0.3069458 -3.1824799 -1.2088928c-0.4128418 -1.5158386 0.5487671 -5.512268 0.7054596 -7.8861084c0.15670776 -2.3738098 0.43077087 -4.3164673 0.23472595 -6.356903c-0.19602966 -2.0404358 -1.1757812 -4.9047546 -1.4109497 -5.885681" fill-rule="evenodd"/><path fill="#cfe2f3" d="m217.0881 269.2687c-0.54855347 -1.7879944 -0.07714844 -4.270752 -0.70414734 -5.3632812c-0.62701416 -1.0925293 -0.27471924 -1.1124268 -3.0579224 -1.1918335c-2.7832031 -0.07940674 -11.01503 -0.27804565 -13.641312 0.71536255c-2.6262817 0.9934082 -1.4109497 3.6956177 -2.1164093 5.2451477c-0.70547485 1.54953 -1.0188751 2.7011108 -2.1164246 4.0519714c-1.0975494 1.3508911 -2.9790192 3.1791382 -4.468857 4.053314c-1.4898376 0.87420654 -3.254837 0.43688965 -4.4701843 1.1918335c-1.215332 0.75497437 -2.508484 1.3907166 -2.8218842 3.3379517c-0.31340027 1.9472351 0.43185425 3.6168518 0.9414978 8.3454895c0.5096588 4.7286377 1.4500732 14.979828 2.1164246 20.026306c0.6663513 5.046509 1.9992676 6.199402 1.8816986 10.252716c-0.11758423 4.053314 -0.9799652 9.060211 -2.5871735 14.067108c-1.607193 5.0069275 -5.3802032 11.699432 -7.0560303 15.974335c-1.675827 4.2749023 -3.3221436 7.3857727 -2.9989166 9.675171c0.3232422 2.2893982 -1.0103455 3.2497559 4.9383087 4.0611877c5.948654 0.81140137 21.276932 0.513855 30.753601 0.80722046c9.476654 0.29336548 20.853806 1.4298706 26.106384 0.9529724c5.2525787 -0.4769287 4.507553 -1.2714844 5.4090576 -3.8144226c0.9015045 -2.5429382 0.47032166 -7.151703 0 -11.443237c-0.4703064 -4.2915344 -1.900711 -10.014252 -2.8218842 -14.306c-0.92118835 -4.2917786 -1.9798279 -6.7555237 -2.705185 -11.44455c-0.72535706 -4.6890564 -1.078537 -11.205872 -1.6469727 -16.689697c-0.5684509 -5.4838257 -0.6464691 -11.921661 -1.7636871 -16.213226c-1.117218 -4.2915344 -2.50914 -6.714813 -4.9396057 -9.536011c-2.430481 -2.821228 -7.6048126 -5.265259 -9.643204 -7.3912354c-2.038391 -2.1259766 -2.0386047 -3.5766296 -2.5871735 -5.3645935z" fill-rule="evenodd"/><path stroke="#000000" stroke-width="2.0" stroke-linejoin="round" stroke-linecap="butt" d="m217.0881 269.2687c-0.54855347 -1.7879944 -0.07714844 -4.270752 -0.70414734 -5.3632812c-0.62701416 -1.0925293 -0.27471924 -1.1124268 -3.0579224 -1.1918335c-2.7832031 -0.07940674 -11.01503 -0.27804565 -13.641312 0.71536255c-2.6262817 0.9934082 -1.4109497 3.6956177 -2.1164093 5.2451477c-0.70547485 1.54953 -1.0188751 2.7011108 -2.1164246 4.0519714c-1.0975494 1.3508911 -2.9790192 3.1791382 -4.468857 4.053314c-1.4898376 0.87420654 -3.254837 0.43688965 -4.4701843 1.1918335c-1.215332 0.75497437 -2.508484 1.3907166 -2.8218842 3.3379517c-0.31340027 1.9472351 0.43185425 3.6168518 0.9414978 8.3454895c0.5096588 4.7286377 1.4500732 14.979828 2.1164246 20.026306c0.6663513 5.046509 1.9992676 6.199402 1.8816986 10.252716c-0.11758423 4.053314 -0.9799652 9.060211 -2.5871735 14.067108c-1.607193 5.0069275 -5.3802032 11.699432 -7.0560303 15.974335c-1.675827 4.2749023 -3.3221436 7.3857727 -2.9989166 9.675171c0.3232422 2.2893982 -1.0103455 3.2497559 4.9383087 4.0611877c5.948654 0.81140137 21.276932 0.513855 30.753601 0.80722046c9.476654 0.29336548 20.853806 1.4298706 26.106384 0.9529724c5.2525787 -0.4769287 4.507553 -1.2714844 5.4090576 -3.8144226c0.9015045 -2.5429382 0.47032166 -7.151703 0 -11.443237c-0.4703064 -4.2915344 -1.900711 -10.014252 -2.8218842 -14.306c-0.92118835 -4.2917786 -1.9798279 -6.7555237 -2.705185 -11.44455c-0.72535706 -4.6890564 -1.078537 -11.205872 -1.6469727 -16.689697c-0.5684509 -5.4838257 -0.6464691 -11.921661 -1.7636871 -16.213226c-1.117218 -4.2915344 -2.50914 -6.714813 -4.9396057 -9.536011c-2.430481 -2.821228 -7.6048126 -5.265259 -9.643204 -7.3912354c-2.038391 -2.1259766 -2.0386047 -3.5766296 -2.5871735 -5.3645935z" fill-rule="evenodd"/><path fill="#cfe2f3" d="m278.69345 214.71277c0.39230347 -2.118454 1.4907532 -1.0199738 1.8830872 -5.6492157c0.39233398 -4.629242 0.9416199 -15.221603 0.4708557 -22.126236c-0.47073364 -6.904648 -1.2554016 -12.710785 -3.2954102 -19.301575c-2.039978 -6.59079 -5.7276917 -14.829315 -8.944611 -20.24318c-3.216919 -5.413864 -5.0215454 -8.081558 -10.356964 -12.240021c-5.3354034 -4.158478 -15.378555 -9.886162 -21.655502 -12.71077c-6.276947 -2.8246078 -10.984619 -3.3737946 -16.006165 -4.2368774c-5.0215454 -0.86307526 -9.729248 -0.78466797 -14.123093 -0.941597c-4.39386 -0.15693665 -7.846176 -0.47077942 -12.240036 0c-4.3938446 0.47077942 -9.258453 1.2554245 -14.123093 2.824669c-4.8646393 1.569252 -10.592361 4.236969 -15.064697 6.5908127c-4.472336 2.353859 -7.6892853 3.6876602 -11.769287 7.53228c-4.080017 3.8446198 -9.493835 9.807724 -12.71077 15.535446c-3.216919 5.727707 -5.1784973 12.396973 -6.590805 18.830826c-1.412323 6.4338684 -1.9615479 13.26001 -1.8830719 19.772324c0.07847595 6.512314 1.3339233 14.044632 2.3539276 19.301575c1.0200195 5.2569275 1.8046265 7.1399994 3.7661438 12.240021c1.9615326 5.1000214 4.629181 12.710861 8.003021 18.360107c3.3738403 5.649231 6.433853 11.376831 12.240021 15.535294c5.8061676 4.158478 15.3785095 7.296997 22.596985 9.415497c7.2184906 2.1184692 11.847733 2.9031067 20.713913 3.2954102c8.86618 0.39230347 23.303177 -6.1035156E-5 32.4832 -0.9416199c9.180038 -0.9415283 16.398514 -2.275299 22.596985 -4.707611c6.198456 -2.432312 10.906128 -5.9631195 14.593842 -9.886215c3.687683 -3.9230957 6.4339294 -9.807739 7.5324097 -13.652359c1.0984497 -3.8446198 -0.78466797 -6.826111 -0.9416199 -9.4153595c-0.15692139 -2.5892334 -0.078430176 -3.9231415 0 -6.1200714c0.07846069 -2.1969452 0.07846069 -4.9430847 0.47073364 -7.061554z" fill-rule="evenodd"/><path stroke="#000000" stroke-width="2.0" stroke-linejoin="round" stroke-linecap="butt" d="m278.69345 214.71277c0.39230347 -2.118454 1.4907532 -1.0199738 1.8830872 -5.6492157c0.39233398 -4.629242 0.9416199 -15.221603 0.4708557 -22.126236c-0.47073364 -6.904648 -1.2554016 -12.710785 -3.2954102 -19.301575c-2.039978 -6.59079 -5.7276917 -14.829315 -8.944611 -20.24318c-3.216919 -5.413864 -5.0215454 -8.081558 -10.356964 -12.240021c-5.3354034 -4.158478 -15.378555 -9.886162 -21.655502 -12.71077c-6.276947 -2.8246078 -10.984619 -3.3737946 -16.006165 -4.2368774c-5.0215454 -0.86307526 -9.729248 -0.78466797 -14.123093 -0.941597c-4.39386 -0.15693665 -7.846176 -0.47077942 -12.240036 0c-4.3938446 0.47077942 -9.258453 1.2554245 -14.123093 2.824669c-4.8646393 1.569252 -10.592361 4.236969 -15.064697 6.5908127c-4.472336 2.353859 -7.6892853 3.6876602 -11.769287 7.53228c-4.080017 3.8446198 -9.493835 9.807724 -12.71077 15.535446c-3.216919 5.727707 -5.1784973 12.396973 -6.590805 18.830826c-1.412323 6.4338684 -1.9615479 13.26001 -1.8830719 19.772324c0.07847595 6.512314 1.3339233 14.044632 2.3539276 19.301575c1.0200195 5.2569275 1.8046265 7.1399994 3.7661438 12.240021c1.9615326 5.1000214 4.629181 12.710861 8.003021 18.360107c3.3738403 5.649231 6.433853 11.376831 12.240021 15.535294c5.8061676 4.158478 15.3785095 7.296997 22.596985 9.415497c7.2184906 2.1184692 11.847733 2.9031067 20.713913 3.2954102c8.86618 0.39230347 23.303177 -6.1035156E-5 32.4832 -0.9416199c9.180038 -0.9415283 16.398514 -2.275299 22.596985 -4.707611c6.198456 -2.432312 10.906128 -5.9631195 14.593842 -9.886215c3.687683 -3.9230957 6.4339294 -9.807739 7.5324097 -13.652359c1.0984497 -3.8446198 -0.78466797 -6.826111 -0.9416199 -9.4153595c-0.15692139 -2.5892334 -0.078430176 -3.9231415 0 -6.1200714c0.07846069 -2.1969452 0.07846069 -4.9430847 0.47073364 -7.061554z" fill-rule="evenodd"/><path fill="#cfe2f3" d="m142.2939 222.22008c-0.862381 -0.6670227 -3.5277863 -3.4527893 -5.1743317 -4.002121c-1.6465454 -0.5493164 -3.4895477 -0.11790466 -4.704895 0.70617676c-1.2153473 0.8240967 -1.9992676 2.7472687 -2.5871735 4.238388c-0.5878906 1.4911041 -1.4498444 2.5501556 -0.94018555 4.7082825c0.5096588 2.158142 2.743866 6.082367 3.998108 8.240494c1.254242 2.158142 2.0770874 3.2171783 3.527359 4.7082977c1.4502869 1.4911041 2.939911 3.4928284 5.1743317 4.238373c2.234436 0.7455597 6.4681396 0.7845001 8.232254 0.23495483c1.7641296 -0.54953 1.9603729 -2.9434967 2.3524475 -3.532196" fill-rule="evenodd"/><path stroke="#000000" stroke-width="2.0" stroke-linejoin="round" stroke-linecap="butt" d="m142.2939 222.22008c-0.862381 -0.6670227 -3.5277863 -3.4527893 -5.1743317 -4.002121c-1.6465454 -0.5493164 -3.4895477 -0.11790466 -4.704895 0.70617676c-1.2153473 0.8240967 -1.9992676 2.7472687 -2.5871735 4.238388c-0.5878906 1.4911041 -1.4498444 2.5501556 -0.94018555 4.7082825c0.5096588 2.158142 2.743866 6.082367 3.998108 8.240494c1.254242 2.158142 2.0770874 3.2171783 3.527359 4.7082977c1.4502869 1.4911041 2.939911 3.4928284 5.1743317 4.238373c2.234436 0.7455597 6.4681396 0.7845001 8.232254 0.23495483c1.7641296 -0.54953 1.9603729 -2.9434967 2.3524475 -3.532196" fill-rule="evenodd"/><path fill="#cfe2f3" d="m135.74968 231.18271c-0.27450562 -0.31391907 -1.6076355 -0.86346436 -1.6469727 -1.8835754c-0.03933716 -1.0201111 0.705246 -3.7662811 1.4109344 -4.2370605c0.7056885 -0.47079468 1.4120331 0.078308105 2.8231964 1.4123535c1.4111633 1.3340302 4.5855713 4.5514374 5.6437836 6.591873c1.0582123 2.0404205 0.5878906 4.7089386 0.70547485 5.6507263" fill-rule="evenodd"/><path stroke="#000000" stroke-width="2.0" stroke-linejoin="round" stroke-linecap="butt" d="m135.74968 231.18271c-0.27450562 -0.31391907 -1.6076355 -0.86346436 -1.6469727 -1.8835754c-0.03933716 -1.0201111 0.705246 -3.7662811 1.4109344 -4.2370605c0.7056885 -0.47079468 1.4120331 0.078308105 2.8231964 1.4123535c1.4111633 1.3340302 4.5855713 4.5514374 5.6437836 6.591873c1.0582123 2.0404205 0.5878906 4.7089386 0.70547485 5.6507263" fill-rule="evenodd"/><path fill="#cfe2f3" d="m194.05916 289.5504c-1.7639008 4.74765 -8.172592 22.188385 -10.583389 28.485992c-2.410797 6.297638 -2.0390472 7.730133 -3.8814087 9.299774c-1.8423615 1.5696411 -4.644348 1.2953186 -7.1727295 0.118133545c-2.5283813 -1.177185 -9.291336 -0.11834717 -7.9975433 -7.181244c1.293808 -7.062866 11.17392 -27.799713 15.760361 -35.196014c4.586441 -7.3962708 9.798584 -7.6513367 11.758301 -9.18161" fill-rule="evenodd"/><path stroke="#000000" stroke-width="2.0" stroke-linejoin="round" stroke-linecap="butt" d="m194.05916 289.5504c-1.7639008 4.74765 -8.172592 22.188385 -10.583389 28.485992c-2.410797 6.297638 -2.0390472 7.730133 -3.8814087 9.299774c-1.8423615 1.5696411 -4.644348 1.2953186 -7.1727295 0.118133545c-2.5283813 -1.177185 -9.291336 -0.11834717 -7.9975433 -7.181244c1.293808 -7.062866 11.17392 -27.799713 15.760361 -35.196014c4.586441 -7.3962708 9.798584 -7.6513367 11.758301 -9.18161" fill-rule="evenodd"/><path fill="#cfe2f3" d="m182.16016 321.44846c-1.6664276 4.453003 -7.7440186 20.734467 -9.998566 26.717926c-2.2545319 5.98349 -1.6863098 7.613312 -3.528656 9.182953c-1.8423615 1.5696411 -4.977646 1.4121399 -7.525482 0.23495483c-2.547821 -1.177185 -7.722809 -2.7468262 -7.761505 -7.2980347c-0.03868103 -4.551239 5.4905853 -14.241699 7.5294037 -20.009277c2.0388336 -5.7675476 3.9196625 -12.163391 4.703598 -14.596069" fill-rule="evenodd"/><path stroke="#000000" stroke-width="2.0" stroke-linejoin="round" stroke-linecap="butt" d="m182.16016 321.44846c-1.6664276 4.453003 -7.7440186 20.734467 -9.998566 26.717926c-2.2545319 5.98349 -1.6863098 7.613312 -3.528656 9.182953c-1.8423615 1.5696411 -4.977646 1.4121399 -7.525482 0.23495483c-2.547821 -1.177185 -7.722809 -2.7468262 -7.761505 -7.2980347c-0.03868103 -4.551239 5.4905853 -14.241699 7.5294037 -20.009277c2.0388336 -5.7675476 3.9196625 -12.163391 4.703598 -14.596069" fill-rule="evenodd"/><path fill="#cfe2f3" d="m154.8768 344.63666c-1.2002563 1.7761536 -5.3338776 7.476349 -7.201584 10.656982c-1.8677063 3.1806335 -3.6709442 5.7660217 -4.004669 8.42688c-0.33370972 2.6608582 0.7046051 5.6166077 2.0023346 7.538269c1.2977448 1.9216309 3.48497 3.585144 5.784088 3.9916077c2.299118 0.40646362 6.2255554 -0.5510864 8.010651 -1.5528259c1.7850952 -1.001709 2.0539093 -2.9887695 2.699936 -4.4575806c0.6460266 -1.4687805 0.72535706 -4.3355103 1.1762238 -4.355194c0.4508667 -0.019683838 0.76579285 3.2117004 1.5289612 4.2370605c0.76316833 1.0253601 2.0112915 1.7973938 3.0500488 1.9151001c1.0387573 0.11767578 2.7696533 0.30691528 3.182495 -1.2089233c0.41282654 -1.5158386 -0.54878235 -5.5122375 -0.70547485 -7.886078c-0.1566925 -2.3738403 -0.43075562 -4.316498 -0.23472595 -6.3569336c0.19604492 -2.0404053 1.1757965 -4.904724 1.4109497 -5.885681" fill-rule="evenodd"/><path stroke="#000000" stroke-width="2.0" stroke-linejoin="round" stroke-linecap="butt" d="m154.8768 344.63666c-1.2002563 1.7761536 -5.3338776 7.476349 -7.201584 10.656982c-1.8677063 3.1806335 -3.6709442 5.7660217 -4.004669 8.42688c-0.33370972 2.6608582 0.7046051 5.6166077 2.0023346 7.538269c1.2977448 1.9216309 3.48497 3.585144 5.784088 3.9916077c2.299118 0.40646362 6.2255554 -0.5510864 8.010651 -1.5528259c1.7850952 -1.001709 2.0539093 -2.9887695 2.699936 -4.4575806c0.6460266 -1.4687805 0.72535706 -4.3355103 1.1762238 -4.355194c0.4508667 -0.019683838 0.76579285 3.2117004 1.5289612 4.2370605c0.76316833 1.0253601 2.0112915 1.7973938 3.0500488 1.9151001c1.0387573 0.11767578 2.7696533 0.30691528 3.182495 -1.2089233c0.41282654 -1.5158386 -0.54878235 -5.5122375 -0.70547485 -7.886078c-0.1566925 -2.3738403 -0.43075562 -4.316498 -0.23472595 -6.3569336c0.19604492 -2.0404053 1.1757965 -4.904724 1.4109497 -5.885681" fill-rule="evenodd"/><path fill="#cfe2f3" d="m177.87451 352.68765c-0.22877502 0.7187195 -1.1854706 2.6351929 -1.3726959 4.3123474c-0.18722534 1.6771545 -1.708664 4.1671143 0.24934387 5.7506714c1.9580078 1.5835266 5.915573 2.9588623 11.498688 3.7506409c5.5831146 0.79177856 14.291336 0.8753357 22.0 1.0c7.708664 0.12466431 18.668411 0.20648193 24.251968 -0.25198364c5.583542 -0.45843506 7.718277 -1.0822144 9.249344 -2.4986572c1.5310516 -1.4164734 -0.021438599 -4.2917786 -0.06300354 -6.0c-0.041549683 -1.708252 -0.1552887 -3.5411377 -0.18634033 -4.249359" fill-rule="evenodd"/><path stroke="#000000" stroke-width="2.0" stroke-linejoin="round" stroke-linecap="butt" d="m177.87451 352.68765c-0.22877502 0.7187195 -1.1854706 2.6351929 -1.3726959 4.3123474c-0.18722534 1.6771545 -1.708664 4.1671143 0.24934387 5.7506714c1.9580078 1.5835266 5.915573 2.9588623 11.498688 3.7506409c5.5831146 0.79177856 14.291336 0.8753357 22.0 1.0c7.708664 0.12466431 18.668411 0.20648193 24.251968 -0.25198364c5.583542 -0.45843506 7.718277 -1.0822144 9.249344 -2.4986572c1.5310516 -1.4164734 -0.021438599 -4.2917786 -0.06300354 -6.0c-0.041549683 -1.708252 -0.1552887 -3.5411377 -0.18634033 -4.249359" fill-rule="evenodd"/><path fill="#cfe2f3" d="m175.98787 358.6453c-0.12741089 3.7080994 -0.5194855 15.322845 -0.7644806 22.248566c-0.24499512 6.9256897 -0.39186096 13.184387 -0.70547485 19.305695c-0.3136139 6.121277 -1.5289612 13.733704 -1.1762238 17.42212c0.35273743 3.688385 1.6069794 3.6096191 3.292633 4.7082825c1.685669 1.0986328 3.9205322 1.4911194 6.8213196 1.8835754c2.9007874 0.39245605 7.721939 0.6282959 10.583389 0.47122192c2.8614502 -0.15707397 4.860504 -0.5895691 6.5852814 -1.4136658c1.7247772 -0.8240967 2.901001 -1.9223022 3.763382 -3.5308838c0.86239624 -1.6086121 0.47010803 0.7855835 1.4109497 -6.1206665c0.9408417 -6.9062195 3.254181 -26.684021 4.234146 -35.316772c0.9799652 -8.632721 1.3713837 -13.733063 1.6456604 -16.479675" fill-rule="evenodd"/><path stroke="#000000" stroke-width="2.0" stroke-linejoin="round" stroke-linecap="butt" d="m175.98787 358.6453c-0.12741089 3.7080994 -0.5194855 15.322845 -0.7644806 22.248566c-0.24499512 6.9256897 -0.39186096 13.184387 -0.70547485 19.305695c-0.3136139 6.121277 -1.5289612 13.733704 -1.1762238 17.42212c0.35273743 3.688385 1.6069794 3.6096191 3.292633 4.7082825c1.685669 1.0986328 3.9205322 1.4911194 6.8213196 1.8835754c2.9007874 0.39245605 7.721939 0.6282959 10.583389 0.47122192c2.8614502 -0.15707397 4.860504 -0.5895691 6.5852814 -1.4136658c1.7247772 -0.8240967 2.901001 -1.9223022 3.763382 -3.5308838c0.86239624 -1.6086121 0.47010803 0.7855835 1.4109497 -6.1206665c0.9408417 -6.9062195 3.254181 -26.684021 4.234146 -35.316772c0.9799652 -8.632721 1.3713837 -13.733063 1.6456604 -16.479675" fill-rule="evenodd"/><path fill="#cfe2f3" d="m173.34267 413.37918c-0.2351532 2.0795898 -1.1364441 7.2588806 -1.4109344 12.47757c-0.27450562 5.2186584 -0.2557068 12.928864 -0.23603821 18.834473c0.01966858 5.9055786 0.079559326 12.94986 0.35404968 16.599121c0.27449036 3.649231 0.13659668 4.0996704 1.292923 5.2963257c1.1563416 1.1966553 2.3131104 1.4519348 5.645096 1.8835754c3.3319702 0.4316101 11.054138 1.1377869 14.346771 0.70617676c3.2926483 -0.43164062 4.311508 -1.6871338 5.4090576 -3.295929c1.0975494 -1.6088257 0.9801941 -4.0025635 1.1762238 -6.3569336c0.19604492 -2.3543396 -0.35273743 -4.1593933 0 -7.7692566c0.35273743 -3.6098633 1.332489 -8.828308 2.1164246 -13.889923c0.7839203 -5.0615845 1.999054 -12.595032 2.5871582 -16.479675c0.5881195 -3.884613 0.7845917 -5.690094 0.94151306 -6.828125" fill-rule="evenodd"/><path stroke="#000000" stroke-width="2.0" stroke-linejoin="round" stroke-linecap="butt" d="m173.34267 413.37918c-0.2351532 2.0795898 -1.1364441 7.2588806 -1.4109344 12.47757c-0.27450562 5.2186584 -0.2557068 12.928864 -0.23603821 18.834473c0.01966858 5.9055786 0.079559326 12.94986 0.35404968 16.599121c0.27449036 3.649231 0.13659668 4.0996704 1.292923 5.2963257c1.1563416 1.1966553 2.3131104 1.4519348 5.645096 1.8835754c3.3319702 0.4316101 11.054138 1.1377869 14.346771 0.70617676c3.2926483 -0.43164062 4.311508 -1.6871338 5.4090576 -3.295929c1.0975494 -1.6088257 0.9801941 -4.0025635 1.1762238 -6.3569336c0.19604492 -2.3543396 -0.35273743 -4.1593933 0 -7.7692566c0.35273743 -3.6098633 1.332489 -8.828308 2.1164246 -13.889923c0.7839203 -5.0615845 1.999054 -12.595032 2.5871582 -16.479675c0.5881195 -3.884613 0.7845917 -5.690094 0.94151306 -6.828125" fill-rule="evenodd"/><path fill="#cfe2f3" d="m171.93114 459.4044c0.058792114 1.0004272 -0.27449036 3.7072144 0.35273743 6.002533c0.6272278 2.295288 2.019165 5.728821 3.4106598 7.7692566c1.3914948 2.0404358 3.3311005 3.4138489 4.9382935 4.4733276c1.6072083 1.0595093 2.35289 1.4911194 4.704895 1.883606c2.3520203 0.39245605 6.898468 0.510376 9.407166 0.47122192c2.5087128 -0.03918457 4.390625 -0.23519897 5.645096 -0.70617676c1.2544556 -0.4710083 1.7641144 -1.138916 1.8816986 -2.119873c0.11756897 -0.9809265 -0.70570374 -1.7256165 -1.1762238 -3.7658386c-0.47053528 -2.0402222 -1.450943 -6.2387695 -1.6469879 -8.475433c-0.19602966 -2.2366638 0.39230347 -4.1204834 0.47076416 -4.94458" fill-rule="evenodd"/><path stroke="#000000" stroke-width="2.0" stroke-linejoin="round" stroke-linecap="butt" d="m171.93114 459.4044c0.058792114 1.0004272 -0.27449036 3.7072144 0.35273743 6.002533c0.6272278 2.295288 2.019165 5.728821 3.4106598 7.7692566c1.3914948 2.0404358 3.3311005 3.4138489 4.9382935 4.4733276c1.6072083 1.0595093 2.35289 1.4911194 4.704895 1.883606c2.3520203 0.39245605 6.898468 0.510376 9.407166 0.47122192c2.5087128 -0.03918457 4.390625 -0.23519897 5.645096 -0.70617676c1.2544556 -0.4710083 1.7641144 -1.138916 1.8816986 -2.119873c0.11756897 -0.9809265 -0.70570374 -1.7256165 -1.1762238 -3.7658386c-0.47053528 -2.0402222 -1.450943 -6.2387695 -1.6469879 -8.475433c-0.19602966 -2.2366638 0.39230347 -4.1204834 0.47076416 -4.94458" fill-rule="evenodd"/><path fill="#cfe2f3" d="m209.80183 359.58652c0.30749512 3.736969 1.0536194 15.501556 1.844986 22.421783c0.7913513 6.9202576 2.0707397 13.026886 2.903183 19.09964c0.83244324 6.0727234 1.0575562 13.778778 2.091507 17.336792c1.0339508 3.558014 2.25148 3.2464905 4.1121826 4.0112915c1.8607178 0.764801 4.1290283 0.7335205 7.052109 0.57754517c2.9230652 -0.15597534 7.704239 -0.82473755 10.486343 -1.5134277c2.7821198 -0.68865967 4.665344 -1.4869385 6.206314 -2.6186218c1.5409851 -1.1316833 2.4918823 -2.4300537 3.039566 -4.1714478c0.5476837 -1.7413635 0.60887146 0.68408203 0.246521 -6.276825c-0.36235046 -6.9609375 -1.7346039 -26.951813 -2.4206238 -35.48874c-0.68603516 -8.536926 -1.4129181 -13.110657 -1.6954956 -15.732788" fill-rule="evenodd"/><path stroke="#000000" stroke-width="2.0" stroke-linejoin="round" stroke-linecap="butt" d="m209.80183 359.58652c0.30749512 3.736969 1.0536194 15.501556 1.844986 22.421783c0.7913513 6.9202576 2.0707397 13.026886 2.903183 19.09964c0.83244324 6.0727234 1.0575562 13.778778 2.091507 17.336792c1.0339508 3.558014 2.25148 3.2464905 4.1121826 4.0112915c1.8607178 0.764801 4.1290283 0.7335205 7.052109 0.57754517c2.9230652 -0.15597534 7.704239 -0.82473755 10.486343 -1.5134277c2.7821198 -0.68865967 4.665344 -1.4869385 6.206314 -2.6186218c1.5409851 -1.1316833 2.4918823 -2.4300537 3.039566 -4.1714478c0.5476837 -1.7413635 0.60887146 0.68408203 0.246521 -6.276825c-0.36235046 -6.9609375 -1.7346039 -26.951813 -2.4206238 -35.48874c-0.68603516 -8.536926 -1.4129181 -13.110657 -1.6954956 -15.732788" fill-rule="evenodd"/><path fill="#cfe2f3" d="m215.84416 414.27484c0.15649414 2.086914 0.23612976 7.343384 0.9389801 12.521484c0.70285034 5.1781006 2.1582031 12.749115 3.278122 18.54712c1.1199036 5.798004 2.4915314 12.707153 3.44133 16.240936c0.9497986 3.5337524 0.89823914 4.002014 2.2574615 4.96167c1.3592072 0.95965576 2.5434113 0.9944458 5.897812 0.7962036c3.3543854 -0.19821167 11.073685 -0.9465637 14.228546 -1.9854736c3.1548615 -1.0389404 3.9220123 -2.462616 4.7006226 -4.2480774c0.7786102 -1.7854614 0.2171936 -4.1151733 -0.028945923 -6.4647217c-0.24613953 -2.3495483 -1.1217499 -4.020355 -1.4479065 -7.6325684c-0.32614136 -3.6122131 -0.33598328 -8.921814 -0.5090027 -14.040741c-0.17300415 -5.118927 -0.3829956 -12.746735 -0.52908325 -16.672821c-0.14607239 -3.926117 -0.289505 -5.736511 -0.34739685 -6.8838196" fill-rule="evenodd"/><path stroke="#000000" stroke-width="2.0" stroke-linejoin="round" stroke-linecap="butt" d="m215.84416 414.27484c0.15649414 2.086914 0.23612976 7.343384 0.9389801 12.521484c0.70285034 5.1781006 2.1582031 12.749115 3.278122 18.54712c1.1199036 5.798004 2.4915314 12.707153 3.44133 16.240936c0.9497986 3.5337524 0.89823914 4.002014 2.2574615 4.96167c1.3592072 0.95965576 2.5434113 0.9944458 5.897812 0.7962036c3.3543854 -0.19821167 11.073685 -0.9465637 14.228546 -1.9854736c3.1548615 -1.0389404 3.9220123 -2.462616 4.7006226 -4.2480774c0.7786102 -1.7854614 0.2171936 -4.1151733 -0.028945923 -6.4647217c-0.24613953 -2.3495483 -1.1217499 -4.020355 -1.4479065 -7.6325684c-0.32614136 -3.6122131 -0.33598328 -8.921814 -0.5090027 -14.040741c-0.17300415 -5.118927 -0.3829956 -12.746735 -0.52908325 -16.672821c-0.14607239 -3.926117 -0.289505 -5.736511 -0.34739685 -6.8838196" fill-rule="evenodd"/><path fill="#cfe2f3" d="m223.02637 459.75754c0.24420166 0.9718323 0.4211731 3.6932373 1.4652405 5.831024c1.0440674 2.1377563 3.0516357 5.250946 4.799164 6.9956055c1.7475281 1.74469 3.909317 2.73172 5.685974 3.472412c1.7766571 0.74069214 2.589798 1.0254822 4.973984 0.97180176c2.384201 -0.05368042 6.873459 -0.78689575 9.331177 -1.2938538c2.457718 -0.5069885 4.27034 -1.0509949 5.4151764 -1.7479858c1.1448364 -0.69696045 1.5211487 -1.4483032 1.4538574 -2.4339294c-0.06726074 -0.98565674 -1.0149841 -1.5634766 -1.857544 -3.4799194c-0.8425598 -1.9164429 -2.5883484 -5.8580627 -3.1977997 -8.018738c-0.6094513 -2.1607056 -0.3824463 -4.121216 -0.45892334 -4.945465" fill-rule="evenodd"/><path stroke="#000000" stroke-width="2.0" stroke-linejoin="round" stroke-linecap="butt" d="m223.02637 459.75754c0.24420166 0.9718323 0.4211731 3.6932373 1.4652405 5.831024c1.0440674 2.1377563 3.0516357 5.250946 4.799164 6.9956055c1.7475281 1.74469 3.909317 2.73172 5.685974 3.472412c1.7766571 0.74069214 2.589798 1.0254822 4.973984 0.97180176c2.384201 -0.05368042 6.873459 -0.78689575 9.331177 -1.2938538c2.457718 -0.5069885 4.27034 -1.0509949 5.4151764 -1.7479858c1.1448364 -0.69696045 1.5211487 -1.4483032 1.4538574 -2.4339294c-0.06726074 -0.98565674 -1.0149841 -1.5634766 -1.857544 -3.4799194c-0.8425598 -1.9164429 -2.5883484 -5.8580627 -3.1977997 -8.018738c-0.6094513 -2.1607056 -0.3824463 -4.121216 -0.45892334 -4.945465" fill-rule="evenodd"/></g></svg>