<svg version="1.1" viewBox="0.0 0.0 417.04461942257217 585.3517060367454" fill="none" stroke="none" stroke-linecap="square" stroke-miterlimit="10" xmlns:xlink="http://www.w3.org/1999/xlink" xmlns="http://www.w3.org/2000/svg"><clipPath id="p.0"><path d="m0 0l417.04462 0l0 585.3517l-417.04462 0l0 -585.3517z" clip-rule="nonzero"/></clipPath><g clip-path="url(#p.0)"><path fill="#000000" fill-opacity="0.0" d="m0 0l417.04462 0l0 585.3517l-417.04462 0z" fill-rule="evenodd"/><path fill="#cfe2f3" d="m216.8683 288.25165c1.7639008 4.7476807 8.172592 22.188385 10.583389 28.486023c2.410797 6.297638 2.0390472 7.7301025 3.8814087 9.299744c1.8423615 1.5696716 4.6443634 1.2953186 7.1727295 0.118133545c2.5283813 -1.177185 9.291336 -0.11834717 7.9975433 -7.1812134c-1.293808 -7.062866 -11.173904 -27.799744 -15.760345 -35.196014c-4.586441 -7.3962708 -9.798584 -7.651367 -11.758301 -9.181641" fill-rule="evenodd"/><path stroke="#000000" stroke-width="2.0" stroke-linejoin="round" stroke-linecap="butt" d="m216.8683 288.25165c1.7639008 4.7476807 8.172592 22.188385 10.583389 28.486023c2.410797 6.297638 2.0390472 7.7301025 3.8814087 9.299744c1.8423615 1.5696716 4.6443634 1.2953186 7.1727295 0.118133545c2.5283813 -1.177185 9.291336 -0.11834717 7.9975433 -7.1812134c-1.293808 -7.062866 -11.173904 -27.799744 -15.760345 -35.196014c-4.586441 -7.3962708 -9.798584 -7.651367 -11.758301 -9.181641" fill-rule="evenodd"/><path fill="#cfe2f3" d="m228.74971 320.14972c1.6664124 4.4529724 7.7440186 20.734436 9.99855 26.717926c2.2545319 5.98349 1.6863098 7.6132812 3.5286713 9.182953c1.8423615 1.5696411 4.977646 1.4121094 7.525467 0.23495483c2.5478363 -1.177185 7.722809 -2.7468567 7.761505 -7.298065c0.03869629 -4.5512085 -5.49057 -14.241699 -7.5294037 -20.009247c-2.0388336 -5.7675476 -3.9196472 -12.163422 -4.703583 -14.5961" fill-rule="evenodd"/><path stroke="#000000" stroke-width="2.0" stroke-linejoin="round" stroke-linecap="butt" d="m228.74971 320.14972c1.6664124 4.4529724 7.7440186 20.734436 9.99855 26.717926c2.2545319 5.98349 1.6863098 7.6132812 3.5286713 9.182953c1.8423615 1.5696411 4.977646 1.4121094 7.525467 0.23495483c2.5478363 -1.177185 7.722809 -2.7468567 7.761505 -7.298065c0.03869629 -4.5512085 -5.49057 -14.241699 -7.5294037 -20.009247c-2.0388336 -5.7675476 -3.9196472 -12.163422 -4.703583 -14.5961" fill-rule="evenodd"/><path fill="#cfe2f3" d="m256.03305 343.3379c1.2002563 1.7761841 5.3338623 7.476349 7.201599 10.657013c1.8677063 3.1806335 3.670929 5.7660217 4.0046387 8.42688c0.33374023 2.6608582 -0.70458984 5.6166077 -2.0023193 7.5382385c-1.2977295 1.9216614 -3.4849548 3.585144 -5.784088 3.9916077c-2.2991028 0.40646362 -6.22554 -0.5510559 -8.010635 -1.5527954c-1.7851105 -1.0017395 -2.0539246 -2.9888 -2.6999512 -4.4575806c-0.6460266 -1.468811 -0.72535706 -4.3355103 -1.1762238 -4.355194c-0.45085144 -0.019714355 -0.7657776 3.2117004 -1.5289459 4.2370605c-0.76316833 1.0253601 -2.0113068 1.7973938 -3.050064 1.9150696c-1.0387573 0.1177063 -2.7696533 0.3069458 -3.1824799 -1.2088928c-0.4128418 -1.5158386 0.5487671 -5.512268 0.7054596 -7.8861084c0.15670776 -2.3738098 0.43077087 -4.3164673 0.23472595 -6.356903c-0.19602966 -2.0404358 -1.1757812 -4.9047546 -1.4109497 -5.885681" fill-rule="evenodd"/><path stroke="#000000" stroke-width="2.0" stroke-linejoin="round" stroke-linecap="butt" d="m256.03305 343.3379c1.2002563 1.7761841 5.3338623 7.476349 7.201599 10.657013c1.8677063 3.1806335 3.670929 5.7660217 4.0046387 8.42688c0.33374023 2.6608582 -0.70458984 5.6166077 -2.0023193 7.5382385c-1.2977295 1.9216614 -3.4849548 3.585144 -5.784088 3.9916077c-2.2991028 0.40646362 -6.22554 -0.5510559 -8.010635 -1.5527954c-1.7851105 -1.0017395 -2.0539246 -2.9888 -2.6999512 -4.4575806c-0.6460266 -1.468811 -0.72535706 -4.3355103 -1.1762238 -4.355194c-0.45085144 -0.019714355 -0.7657776 3.2117004 -1.5289459 4.2370605c-0.76316833 1.0253601 -2.0113068 1.7973938 -3.050064 1.9150696c-1.0387573 0.1177063 -2.7696533 0.3069458 -3.1824799 -1.2088928c-0.4128418 -1.5158386 0.5487671 -5.512268 0.7054596 -7.8861084c0.15670776 -2.3738098 0.43077087 -4.3164673 0.23472595 -6.356903c-0.19602966 -2.0404358 -1.1757812 -4.9047546 -1.4109497 -5.885681" fill-rule="evenodd"/><path fill="#cfe2f3" d="m217.0881 269.2687c-0.54855347 -1.7879944 -0.07714844 -4.270752 -0.70414734 -5.3632812c-0.62701416 -1.0925293 -0.27471924 -1.1124268 -3.0579224 -1.1918335c-2.7832031 -0.07940674 -11.01503 -0.27804565 -13.641312 0.71536255c-2.6262817 0.9934082 -1.4109497 3.6956177 -2.1164093 5.2451477c-0.70547485 1.54953 -1.0188751 2.7011108 -2.1164246 4.0519714c-1.0975494 1.3508911 -2.9790192 3.1791382 -4.468857 4.053314c-1.4898376 0.87420654 -3.254837 0.43688965 -4.4701843 1.1918335c-1.215332 0.75497437 -2.508484 1.3907166 -2.8218842 3.3379517c-0.31340027 1.9472351 0.43185425 3.6168518 0.9414978 8.3454895c0.5096588 4.7286377 1.4500732 14.979828 2.1164246 20.026306c0.6663513 5.046509 1.9992676 6.199402 1.8816986 10.252716c-0.11758423 4.053314 -0.9799652 9.060211 -2.5871735 14.067108c-1.607193 5.0069275 -5.3802032 11.699432 -7.0560303 15.974335c-1.675827 4.2749023 -3.3221436 7.3857727 -2.9989166 9.675171c0.3232422 2.2893982 -1.0103455 3.2497559 4.9383087 4.0611877c5.948654 0.81140137 21.276932 0.513855 30.753601 0.80722046c9.476654 0.29336548 20.853806 1.4298706 26.106384 0.9529724c5.2525787 -0.4769287 4.507553 -1.2714844 5.4090576 -3.8144226c0.9015045 -2.5429382 0.47032166 -7.151703 0 -11.443237c-0.4703064 -4.2915344 -1.900711 -10.014252 -2.8218842 -14.306c-0.92118835 -4.2917786 -1.9798279 -6.7555237 -2.705185 -11.44455c-0.72535706 -4.6890564 -1.078537 -11.205872 -1.6469727 -16.689697c-0.5684509 -5.4838257 -0.6464691 -11.921661 -1.7636871 -16.213226c-1.117218 -4.2915344 -2.50914 -6.714813 -4.9396057 -9.536011c-2.430481 -2.821228 -7.6048126 -5.265259 -9.643204 -7.3912354c-2.038391 -2.1259766 -2.0386047 -3.5766296 -2.5871735 -5.3645935z" fill-rule="evenodd"/><path stroke="#000000" stroke-width="2.0" stroke-linejoin="round" stroke-linecap="butt" d="m217.0881 269.2687c-0.54855347 -1.7879944 -0.07714844 -4.270752 -0.70414734 -5.3632812c-0.62701416 -1.0925293 -0.27471924 -1.1124268 -3.0579224 -1.1918335c-2.7832031 -0.07940674 -11.01503 -0.27804565 -13.641312 0.71536255c-2.6262817 0.9934082 -1.4109497 3.6956177 -2.1164093 5.2451477c-0.70547485 1.54953 -1.0188751 2.7011108 -2.1164246 4.0519714c-1.0975494 1.3508911 -2.9790192 3.1791382 -4.468857 4.053314c-1.4898376 0.87420654 -3.254837 0.43688965 -4.4701843 1.1918335c-1.215332 0.75497437 -2.508484 1.3907166 -2.8218842 3.3379517c-0.31340027 1.9472351 0.43185425 3.6168518 0.9414978 8.3454895c0.5096588 4.7286377 1.4500732 14.979828 2.1164246 20.026306c0.6663513 5.046509 1.9992676 6.199402 1.8816986 10.252716c-0.11758423 4.053314 -0.9799652 9.060211 -2.5871735 14.067108c-1.607193 5.0069275 -5.3802032 11.699432 -7.0560303 15.974335c-1.675827 4.2749023 -3.3221436 7.3857727 -2.9989166 9.675171c0.3232422 2.2893982 -1.0103455 3.2497559 4.9383087 4.0611877c5.948654 0.81140137 21.276932 0.513855 30.753601 0.80722046c9.476654 0.29336548 20.853806 1.4298706 26.106384 0.9529724c5.2525787 -0.4769287 4.507553 -1.2714844 5.4090576 -3.8144226c0.9015045 -2.5429382 0.47032166 -7.151703 0 -11.443237c-0.4703064 -4.2915344 -1.900711 -10.014252 -2.8218842 -14.306c-0.92118835 -4.2917786 -1.9798279 -6.7555237 -2.705185 -11.44455c-0.72535706 -4.6890564 -1.078537 -11.205872 -1.6469727 -16.689697c-0.5684509 -5.4838257 -0.6464691 -11.921661 -1.7636871 -16.213226c-1.117218 -4.2915344 -2.50914 -6.714813 -4.9396057 -9.536011c-2.430481 -2.821228 -7.6048126 -5.265259 -9.643204 -7.3912354c-2.038391 -2.1259766 -2.0386047 -3.5766296 -2.5871735 -5.3645935z" fill-rule="evenodd"/><path fill="#cfe2f3" d="m278.69345 214.71277c0.39230347 -2.118454 1.4907532 -1.0199738 1.8830872 -5.6492157c0.39233398 -4.629242 0.9416199 -15.221603 0.4708557 -22.126236c-0.47073364 -6.904648 -1.2554016 -12.710785 -3.2954102 -19.301575c-2.039978 -6.59079 -5.7276917 -14.829315 -8.944611 -20.24318c-3.216919 -5.413864 -5.0215454 -8.081558 -10.356964 -12.240021c-5.3354034 -4.158478 -15.378555 -9.886162 -21.655502 -12.71077c-6.276947 -2.8246078 -10.984619 -3.3737946 -16.006165 -4.2368774c-5.0215454 -0.86307526 -9.729248 -0.78466797 -14.123093 -0.941597c-4.39386 -0.15693665 -7.846176 -0.47077942 -12.240036 0c-4.3938446 0.47077942 -9.258453 1.2554245 -14.123093 2.824669c-4.8646393 1.569252 -10.592361 4.236969 -15.064697 6.5908127c-4.472336 2.353859 -7.6892853 3.6876602 -11.769287 7.53228c-4.080017 3.8446198 -9.493835 9.807724 -12.71077 15.535446c-3.216919 5.727707 -5.1784973 12.396973 -6.590805 18.830826c-1.412323 6.4338684 -1.9615479 13.26001 -1.8830719 19.772324c0.07847595 6.512314 1.3339233 14.044632 2.3539276 19.301575c1.0200195 5.2569275 1.8046265 7.1399994 3.7661438 12.240021c1.9615326 5.1000214 4.629181 12.710861 8.003021 18.360107c3.3738403 5.649231 6.433853 11.376831 12.240021 15.535294c5.8061676 4.158478 15.3785095 7.296997 22.596985 9.415497c7.2184906 2.1184692 11.847733 2.9031067 20.713913 3.2954102c8.86618 0.39230347 23.303177 -6.1035156E-5 32.4832 -0.9416199c9.180038 -0.9415283 16.398514 -2.275299 22.596985 -4.707611c6.198456 -2.432312 10.906128 -5.9631195 14.593842 -9.886215c3.687683 -3.9230957 6.4339294 -9.807739 7.5324097 -13.652359c1.0984497 -3.8446198 -0.78466797 -6.826111 -0.9416199 -9.4153595c-0.15692139 -2.5892334 -0.078430176 -3.9231415 0 -6.1200714c0.07846069 -2.1969452 0.07846069 -4.9430847 0.47073364 -7.061554z" fill-rule="evenodd"/><path stroke="#000000" stroke-width="2.0" stroke-linejoin="round" stroke-linecap="butt" d="m278.69345 214.71277c0.39230347 -2.118454 1.4907532 -1.0199738 1.8830872 -5.6492157c0.39233398 -4.629242 0.9416199 -15.221603 0.4708557 -22.126236c-0.47073364 -6.904648 -1.2554016 -12.710785 -3.2954102 -19.301575c-2.039978 -6.59079 -5.7276917 -14.829315 -8.944611 -20.24318c-3.216919 -5.413864 -5.0215454 -8.081558 -10.356964 -12.240021c-5.3354034 -4.158478 -15.378555 -9.886162 -21.655502 -12.71077c-6.276947 -2.8246078 -10.984619 -3.3737946 -16.006165 -4.2368774c-5.0215454 -0.86307526 -9.729248 -0.78466797 -14.123093 -0.941597c-4.39386 -0.15693665 -7.846176 -0.47077942 -12.240036 0c-4.3938446 0.47077942 -9.258453 1.2554245 -14.123093 2.824669c-4.8646393 1.569252 -10.592361 4.236969 -15.064697 6.5908127c-4.472336 2.353859 -7.6892853 3.6876602 -11.769287 7.53228c-4.080017 3.8446198 -9.493835 9.807724 -12.71077 15.535446c-3.216919 5.727707 -5.1784973 12.396973 -6.590805 18.830826c-1.412323 6.4338684 -1.9615479 13.26001 -1.8830719 19.772324c0.07847595 6.512314 1.3339233 14.044632 2.3539276 19.301575c1.0200195 5.2569275 1.8046265 7.1399994 3.7661438 12.240021c1.9615326 5.1000214 4.629181 12.710861 8.003021 18.360107c3.3738403 5.649231 6.433853 11.376831 12.240021 15.535294c5.8061676 4.158478 15.3785095 7.296997 22.596985 9.415497c7.2184906 2.1184692 11.847733 2.9031067 20.713913 3.2954102c8.86618 0.39230347 23.303177 -6.1035156E-5 32.4832 -0.9416199c9.180038 -0.9415283 16.398514 -2.275299 22.596985 -4.707611c6.198456 -2.432312 10.906128 -5.9631195 14.593842 -9.886215c3.687683 -3.9230957 6.4339294 -9.807739 7.5324097 -13.652359c1.0984497 -3.8446198 -0.78466797 -6.826111 -0.9416199 -9.4153595c-0.15692139 -2.5892334 -0.078430176 -3.9231415 0 -6.1200714c0.07846069 -2.1969452 0.07846069 -4.9430847 0.47073364 -7.061554z" fill-rule="evenodd"/><path fill="#cfe2f3" d="m142.2939 222.22008c-0.862381 -0.6670227 -3.5277863 -3.4527893 -5.1743317 -4.002121c-1.6465454 -0.5493164 -3.4895477 -0.11790466 -4.704895 0.70617676c-1.2153473 0.8240967 -1.9992676 2.7472687 -2.5871735 4.238388c-0.5878906 1.4911041 -1.4498444 2.5501556 -0.94018555 4.7082825c0.5096588 2.158142 2.743866 6.082367 3.998108 8.240494c1.254242 2.158142 2.0770874 3.2171783 3.527359 4.7082977c1.4502869 1.4911041 2.939911 3.4928284 5.1743317 4.238373c2.234436 0.7455597 6.4681396 0.7845001 8.232254 0.23495483c1.7641296 -0.54953 1.9603729 -2.9434967 2.3524475 -3.532196" fill-rule="evenodd"/><path stroke="#000000" stroke-width="2.0" stroke-linejoin="round" stroke-linecap="butt" d="m142.2939 222.22008c-0.862381 -0.6670227 -3.5277863 -3.4527893 -5.1743317 -4.002121c-1.6465454 -0.5493164 -3.4895477 -0.11790466 -4.704895 0.70617676c-1.2153473 0.8240967 -1.9992676 2.7472687 -2.5871735 4.238388c-0.5878906 1.4911041 -1.4498444 2.5501556 -0.94018555 4.7082825c0.5096588 2.158142 2.743866 6.082367 3.998108 8.240494c1.254242 2.158142 2.0770874 3.2171783 3.527359 4.7082977c1.4502869 1.4911041 2.939911 3.4928284 5.1743317 4.238373c2.234436 0.7455597 6.4681396 0.7845001 8.232254 0.23495483c1.7641296 -0.54953 1.9603729 -2.9434967 2.3524475 -3.532196" fill-rule="evenodd"/><path fill="#cfe2f3" d="m135.74968 231.18271c-0.27450562 -0.31391907 -1.6076355 -0.86346436 -1.6469727 -1.8835754c-0.03933716 -1.0201111 0.705246 -3.7662811 1.4109344 -4.2370605c0.7056885 -0.47079468 1.4120331 0.078308105 2.8231964 1.4123535c1.4111633 1.3340302 4.5855713 4.5514374 5.6437836 6.591873c1.0582123 2.0404205 0.5878906 4.7089386 0.70547485 5.6507263" fill-rule="evenodd"/><path stroke="#000000" stroke-width="2.0" stroke-linejoin="round" stroke-linecap="butt" d="m135.74968 231.18271c-0.27450562 -0.31391907 -1.6076355 -0.86346436 -1.6469727 -1.8835754c-0.03933716 -1.0201111 0.705246 -3.7662811 1.4109344 -4.2370605c0.7056885 -0.47079468 1.4120331 0.078308105 2.8231964 1.4123535c1.4111633 1.3340302 4.5855713 4.5514374 5.6437836 6.591873c1.0582123 2.0404205 0.5878906 4.7089386 0.70547485 5.6507263" fill-rule="evenodd"/><path fill="#cfe2f3" d="m194.05916 289.5504c-1.7639008 4.74765 -8.172592 22.188385 -10.583389 28.485992c-2.410797 6.297638 -2.0390472 7.730133 -3.8814087 9.299774c-1.8423615 1.5696411 -4.644348 1.2953186 -7.1727295 0.118133545c-2.5283813 -1.177185 -9.291336 -0.11834717 -7.9975433 -7.181244c1.293808 -7.062866 11.17392 -27.799713 15.760361 -35.196014c4.586441 -7.3962708 9.798584 -7.6513367 11.758301 -9.18161" fill-rule="evenodd"/><path stroke="#000000" stroke-width="2.0" stroke-linejoin="round" stroke-linecap="butt" d="m194.05916 289.5504c-1.7639008 4.74765 -8.172592 22.188385 -10.583389 28.485992c-2.410797 6.297638 -2.0390472 7.730133 -3.8814087 9.299774c-1.8423615 1.5696411 -4.644348 1.2953186 -7.1727295 0.118133545c-2.5283813 -1.177185 -9.291336 -0.11834717 -7.9975433 -7.181244c1.293808 -7.062866 11.17392 -27.799713 15.760361 -35.196014c4.586441 -7.3962708 9.798584 -7.6513367 11.758301 -9.18161" fill-rule="evenodd"/><path fill="#cfe2f3" d="m182.16016 321.44846c-1.6664276 4.453003 -7.7440186 20.734467 -9.998566 26.717926c-2.2545319 5.98349 -1.6863098 7.613312 -3.528656 9.182953c-1.8423615 1.5696411 -4.977646 1.4121399 -7.525482 0.23495483c-2.547821 -1.177185 -7.722809 -2.7468262 -7.761505 -7.2980347c-0.03868103 -4.551239 5.4905853 -14.241699 7.5294037 -20.009277c2.0388336 -5.7675476 3.9196625 -12.163391 4.703598 -14.596069" fill-rule="evenodd"/><path stroke="#000000" stroke-width="2.0" stroke-linejoin="round" stroke-linecap="butt" d="m182.16016 321.44846c-1.6664276 4.453003 -7.7440186 20.734467 -9.998566 26.717926c-2.2545319 5.98349 -1.6863098 7.613312 -3.528656 9.182953c-1.8423615 1.5696411 -4.977646 1.4121399 -7.525482 0.23495483c-2.547821 -1.177185 -7.722809 -2.7468262 -7.761505 -7.2980347c-0.03868103 -4.551239 5.4905853 -14.241699 7.5294037 -20.009277c2.0388336 -5.7675476 3.9196625 -12.163391 4.703598 -14.596069" fill-rule="evenodd"/><path fill="#cfe2f3" d="m154.8768 344.63666c-1.2002563 1.7761536 -5.3338776 7.476349 -7.201584 10.656982c-1.8677063 3.1806335 -3.6709442 5.7660217 -4.004669 8.42688c-0.33370972 2.6608582 0.7046051 5.6166077 2.0023346 7.538269c1.2977448 1.9216309 3.48497 3.585144 5.784088 3.9916077c2.299118 0.40646362 6.2255554 -0.5510864 8.010651 -1.5528259c1.7850952 -1.001709 2.0539093 -2.9887695 2.699936 -4.4575806c0.6460266 -1.4687805 0.72535706 -4.3355103 1.1762238 -4.355194c0.4508667 -0.019683838 0.76579285 3.2117004 1.5289612 4.2370605c0.76316833 1.0253601 2.0112915 1.7973938 3.0500488 1.9151001c1.0387573 0.11767578 2.7696533 0.30691528 3.182495 -1.2089233c0.41282654 -1.5158386 -0.54878235 -5.5122375 -0.70547485 -7.886078c-0.1566925 -2.3738403 -0.43075562 -4.316498 -0.23472595 -6.3569336c0.19604492 -2.0404053 1.1757965 -4.904724 1.4109497 -5.885681" fill-rule="evenodd"/><path stroke="#000000" stroke-width="2.0" stroke-linejoin="round" stroke-linecap="butt" d="m154.8768 344.63666c-1.2002563 1.7761536 -5.3338776 7.476349 -7.201584 10.656982c-1.8677063 3.1806335 -3.6709442 5.7660217 -4.004669 8.42688c-0.33370972 2.6608582 0.7046051 5.6166077 2.0023346 7.538269c1.2977448 1.9216309 3.48497 3.585144 5.784088 3.9916077c2.299118 0.40646362 6.2255554 -0.5510864 8.010651 -1.5528259c1.7850952 -1.001709 2.0539093 -2.9887695 2.699936 -4.4575806c0.6460266 -1.4687805 0.72535706 -4.3355103 1.1762238 -4.355194c0.4508667 -0.019683838 0.76579285 3.2117004 1.5289612 4.2370605c0.76316833 1.0253601 2.0112915 1.7973938 3.0500488 1.9151001c1.0387573 0.11767578 2.7696533 0.30691528 3.182495 -1.2089233c0.41282654 -1.5158386 -0.54878235 -5.5122375 -0.70547485 -7.886078c-0.1566925 -2.3738403 -0.43075562 -4.316498 -0.23472595 -6.3569336c0.19604492 -2.0404053 1.1757965 -4.904724 1.4109497 -5.885681" fill-rule="evenodd"/><path fill="#cfe2f3" d="m177.87451 352.68765c-0.22877502 0.7187195 -1.1854706 2.6351929 -1.3726959 4.3123474c-0.18722534 1.6771545 -1.708664 4.1671143 0.24934387 5.7506714c1.9580078 1.5835266 5.915573 2.9588623 11.498688 3.7506409c5.5831146 0.79177856 14.291336 0.8753357 22.0 1.0c7.708664 0.12466431 18.668411 0.20648193 24.251968 -0.25198364c5.583542 -0.45843506 7.718277 -1.0822144 9.249344 -2.4986572c1.5310516 -1.4164734 -0.021438599 -4.2917786 -0.06300354 -6.0c-0.041549683 -1.708252 -0.1552887 -3.5411377 -0.18634033 -4.249359" fill-rule="evenodd"/><path stroke="#000000" stroke-width="2.0" stroke-linejoin="round" stroke-linecap="butt" d="m177.87451 352.68765c-0.22877502 0.7187195 -1.1854706 2.6351929 -1.3726959 4.3123474c-0.18722534 1.6771545 -1.708664 4.1671143 0.24934387 5.7506714c1.9580078 1.5835266 5.915573 2.9588623 11.498688 3.7506409c5.5831146 0.79177856 14.291336 0.8753357 22.0 1.0c7.708664 0.12466431 18.668411 0.20648193 24.251968 -0.25198364c5.583542 -0.45843506 7.718277 -1.0822144 9.249344 -2.4986572c1.5310516 -1.4164734 -0.021438599 -4.2917786 -0.06300354 -6.0c-0.041549683 -1.708252 -0.1552887 -3.5411377 -0.18634033 -4.249359" fill-rule="evenodd"/><path fill="#cfe2f3" d="m175.98787 358.6453c-0.12741089 3.7080994 -0.5194855 15.322845 -0.7644806 22.248566c-0.24499512 6.9256897 -0.39186096 13.184387 -0.70547485 19.305695c-0.3136139 6.121277 -1.5289612 13.733704 -1.1762238 17.42212c0.35273743 3.688385 1.6069794 3.6096191 3.292633 4.7082825c1.685669 1.0986328 3.9205322 1.4911194 6.8213196 1.8835754c2.9007874 0.39245605 7.721939 0.6282959 10.583389 0.47122192c2.8614502 -0.15707397 4.860504 -0.5895691 6.5852814 -1.4136658c1.7247772 -0.8240967 2.901001 -1.9223022 3.763382 -3.5308838c0.86239624 -1.6086121 0.47010803 0.7855835 1.4109497 -6.1206665c0.9408417 -6.9062195 3.254181 -26.684021 4.234146 -35.316772c0.9799652 -8.632721 1.3713837 -13.733063 1.6456604 -16.479675" fill-rule="evenodd"/><path stroke="#000000" stroke-width="2.0" stroke-linejoin="round" stroke-linecap="butt" d="m175.98787 358.6453c-0.12741089 3.7080994 -0.5194855 15.322845 -0.7644806 22.248566c-0.24499512 6.9256897 -0.39186096 13.184387 -0.70547485 19.305695c-0.3136139 6.121277 -1.5289612 13.733704 -1.1762238 17.42212c0.35273743 3.688385 1.6069794 3.6096191 3.292633 4.7082825c1.685669 1.0986328 3.9205322 1.4911194 6.8213196 1.8835754c2.9007874 0.39245605 7.721939 0.6282959 10.583389 0.47122192c2.8614502 -0.15707397 4.860504 -0.5895691 6.5852814 -1.4136658c1.7247772 -0.8240967 2.901001 -1.9223022 3.763382 -3.5308838c0.86239624 -1.6086121 0.47010803 0.7855835 1.4109497 -6.1206665c0.9408417 -6.9062195 3.254181 -26.684021 4.234146 -35.316772c0.9799652 -8.632721 1.3713837 -13.733063 1.6456604 -16.479675" fill-rule="evenodd"/><path fill="#cfe2f3" d="m173.34267 413.37918c-0.2351532 2.0795898 -1.1364441 7.2588806 -1.4109344 12.47757c-0.27450562 5.2186584 -0.2557068 12.928864 -0.23603821 18.834473c0.01966858 5.9055786 0.079559326 12.94986 0.35404968 16.599121c0.27449036 3.649231 0.13659668 4.0996704 1.292923 5.2963257c1.1563416 1.1966553 2.3131104 1.4519348 5.645096 1.8835754c3.3319702 0.4316101 11.054138 1.1377869 14.346771 0.70617676c3.2926483 -0.43164062 4.311508 -1.6871338 5.4090576 -3.295929c1.0975494 -1.6088257 0.9801941 -4.0025635 1.1762238 -6.3569336c0.19604492 -2.3543396 -0.35273743 -4.1593933 0 -7.7692566c0.35273743 -3.6098633 1.332489 -8.828308 2.1164246 -13.889923c0.7839203 -5.0615845 1.999054 -12.595032 2.5871582 -16.479675c0.5881195 -3.884613 0.7845917 -5.690094 0.94151306 -6.828125" fill-rule="evenodd"/><path stroke="#000000" stroke-width="2.0" stroke-linejoin="round" stroke-linecap="butt" d="m173.34267 413.37918c-0.2351532 2.0795898 -1.1364441 7.2588806 -1.4109344 12.47757c-0.27450562 5.2186584 -0.2557068 12.928864 -0.23603821 18.834473c0.01966858 5.9055786 0.079559326 12.94986 0.35404968 16.599121c0.27449036 3.649231 0.13659668 4.0996704 1.292923 5.2963257c1.1563416 1.1966553 2.3131104 1.4519348 5.645096 1.8835754c3.3319702 0.4316101 11.054138 1.1377869 14.346771 0.70617676c3.2926483 -0.43164062 4.311508 -1.6871338 5.4090576 -3.295929c1.0975494 -1.6088257 0.9801941 -4.0025635 1.1762238 -6.3569336c0.19604492 -2.3543396 -0.35273743 -4.1593933 0 -7.7692566c0.35273743 -3.6098633 1.332489 -8.828308 2.1164246 -13.889923c0.7839203 -5.0615845 1.999054 -12.595032 2.5871582 -16.479675c0.5881195 -3.884613 0.7845917 -5.690094 0.94151306 -6.828125" fill-rule="evenodd"/><path fill="#cfe2f3" d="m171.93114 459.4044c0.058792114 1.0004272 -0.27449036 3.7072144 0.35273743 6.002533c0.6272278 2.295288 2.019165 5.728821 3.4106598 7.7692566c1.3914948 2.0404358 3.3311005 3.4138489 4.9382935 4.4733276c1.6072083 1.0595093 2.35289 1.4911194 4.704895 1.883606c2.3520203 0.39245605 6.898468 0.510376 9.407166 0.47122192c2.5087128 -0.03918457 4.390625 -0.23519897 5.645096 -0.70617676c1.2544556 -0.4710083 1.7641144 -1.138916 1.8816986 -2.119873c0.11756897 -0.9809265 -0.70570374 -1.7256165 -1.1762238 -3.7658386c-0.47053528 -2.0402222 -1.450943 -6.2387695 -1.6469879 -8.475433c-0.19602966 -2.2366638 0.39230347 -4.1204834 0.47076416 -4.94458" fill-rule="evenodd"/><path stroke="#000000" stroke-width="2.0" stroke-linejoin="round" stroke-linecap="butt" d="m171.93114 459.4044c0.058792114 1.0004272 -0.27449036 3.7072144 0.35273743 6.002533c0.6272278 2.295288 2.019165 5.728821 3.4106598 7.7692566c1.3914948 2.0404358 3.3311005 3.4138489 4.9382935 4.4733276c1.6072083 1.0595093 2.35289 1.4911194 4.704895 1.883606c2.3520203 0.39245605 6.898468 0.510376 9.407166 0.47122192c2.5087128 -0.03918457 4.390625 -0.23519897 5.645096 -0.70617676c1.2544556 -0.4710083 1.7641144 -1.138916 1.8816986 -2.119873c0.11756897 -0.9809265 -0.70570374 -1.7256165 -1.1762238 -3.7658386c-0.47053528 -2.0402222 -1.450943 -6.2387695 -1.6469879 -8.475433c-0.19602966 -2.2366638 0.39230347 -4.1204834 0.47076416 -4.94458" fill-rule="evenodd"/><path fill="#cfe2f3" d="m209.80183 359.58652c0.30749512 3.736969 1.0536194 15.501556 1.844986 22.421783c0.7913513 6.9202576 2.0707397 13.026886 2.903183 19.09964c0.83244324 6.0727234 1.0575562 13.778778 2.091507 17.336792c1.0339508 3.558014 2.25148 3.2464905 4.1121826 4.0112915c1.8607178 0.764801 4.1290283 0.7335205 7.052109 0.57754517c2.9230652 -0.15597534 7.704239 -0.82473755 10.486343 -1.5134277c2.7821198 -0.68865967 4.665344 -1.4869385 6.206314 -2.6186218c1.5409851 -1.1316833 2.4918823 -2.4300537 3.039566 -4.1714478c0.5476837 -1.7413635 0.60887146 0.68408203 0.246521 -6.276825c-0.36235046 -6.9609375 -1.7346039 -26.951813 -2.4206238 -35.48874c-0.68603516 -8.536926 -1.4129181 -13.110657 -1.6954956 -15.732788" fill-rule="evenodd"/><path stroke="#000000" stroke-width="2.0" stroke-linejoin="round" stroke-linecap="butt" d="m209.80183 359.58652c0.30749512 3.736969 1.0536194 15.501556 1.844986 22.421783c0.7913513 6.9202576 2.0707397 13.026886 2.903183 19.09964c0.83244324 6.0727234 1.0575562 13.778778 2.091507 17.336792c1.0339508 3.558014 2.25148 3.2464905 4.1121826 4.0112915c1.8607178 0.764801 4.1290283 0.7335205 7.052109 0.57754517c2.9230652 -0.15597534 7.704239 -0.82473755 10.486343 -1.5134277c2.7821198 -0.68865967 4.665344 -1.4869385 6.206314 -2.6186218c1.5409851 -1.1316833 2.4918823 -2.4300537 3.039566 -4.1714478c0.5476837 -1.7413635 0.60887146 0.68408203 0.246521 -6.276825c-0.36235046 -6.9609375 -1.7346039 -26.951813 -2.4206238 -35.48874c-0.68603516 -8.536926 -1.4129181 -13.110657 -1.6954956 -15.732788" fill-rule="evenodd"/><path fill="#cfe2f3" d="m215.84416 414.27484c0.15649414 2.086914 0.23612976 7.343384 0.9389801 12.521484c0.70285034 5.1781006 2.1582031 12.749115 3.278122 18.54712c1.1199036 5.798004 2.4915314 12.707153 3.44133 16.240936c0.9497986 3.5337524 0.89823914 4.002014 2.2574615 4.96167c1.3592072 0.95965576 2.5434113 0.9944458 5.897812 0.7962036c3.3543854 -0.19821167 11.073685 -0.9465637 14.228546 -1.9854736c3.1548615 -1.0389404 3.9220123 -2.462616 4.7006226 -4.2480774c0.7786102 -1.7854614 0.2171936 -4.1151733 -0.028945923 -6.4647217c-0.24613953 -2.3495483 -1.1217499 -4.020355 -1.4479065 -7.6325684c-0.32614136 -3.6122131 -0.33598328 -8.921814 -0.5090027 -14.040741c-0.17300415 -5.118927 -0.3829956 -12.746735 -0.52908325 -16.672821c-0.14607239 -3.926117 -0.289505 -5.736511 -0.34739685 -6.8838196" fill-rule="evenodd"/><path stroke="#000000" stroke-width="2.0" stroke-linejoin="round" stroke-linecap="butt" d="m215.84416 414.27484c0.15649414 2.086914 0.23612976 7.343384 0.9389801 12.521484c0.70285034 5.1781006 2.1582031 12.749115 3.278122 18.54712c1.1199036 5.798004 2.4915314 12.707153 3.44133 16.240936c0.9497986 3.5337524 0.89823914 4.002014 2.2574615 4.96167c1.3592072 0.95965576 2.5434113 0.9944458 5.897812 0.7962036c3.3543854 -0.19821167 11.073685 -0.9465637 14.228546 -1.9854736c3.1548615 -1.0389404 3.9220123 -2.462616 4.7006226 -4.2480774c0.7786102 -1.7854614 0.2171936 -4.1151733 -0.028945923 -6.4647217c-0.24613953 -2.3495483 -1.1217499 -4.020355 -1.4479065 -7.6325684c-0.32614136 -3.6122131 -0.33598328 -8.921814 -0.5090027 -14.040741c-0.17300415 -5.118927 -0.3829956 -12.746735 -0.52908325 -16.672821c-0.14607239 -3.926117 -0.289505 -5.736511 -0.34739685 -6.8838196" fill-rule="evenodd"/><path fill="#cfe2f3" d="m223.02637 459.75754c0.24420166 0.9718323 0.4211731 3.6932373 1.4652405 5.831024c1.0440674 2.1377563 3.0516357 5.250946 4.799164 6.9956055c1.7475281 1.74469 3.909317 2.73172 5.685974 3.472412c1.7766571 0.74069214 2.589798 1.0254822 4.973984 0.97180176c2.384201 -0.05368042 6.873459 -0.78689575 9.331177 -1.2938538c2.457718 -0.5069885 4.27034 -1.0509949 5.4151764 -1.7479858c1.1448364 -0.69696045 1.5211487 -1.4483032 1.4538574 -2.4339294c-0.06726074 -0.98565674 -1.0149841 -1.5634766 -1.857544 -3.4799194c-0.8425598 -1.9164429 -2.5883484 -5.8580627 -3.1977997 -8.018738c-0.6094513 -2.1607056 -0.3824463 -4.121216 -0.45892334 -4.945465" fill-rule="evenodd"/><path stroke="#000000" stroke-width="2.0" stroke-linejoin="round" stroke-linecap="butt" d="m223.02637 459.75754c0.24420166 0.9718323 0.4211731 3.6932373 1.4652405 5.831024c1.0440674 2.1377563 3.0516357 5.250946 4.799164 6.9956055c1.7475281 1.74469 3.909317 2.73172 5.685974 3.472412c1.7766571 0.74069214 2.589798 1.0254822 4.973984 0.97180176c2.384201 -0.05368042 6.873459 -0.78689575 9.331177 -1.2938538c2.457718 -0.5069885 4.27034 -1.0509949 5.4151764 -1.7479858c1.1448364 -0.69696045 1.5211487 -1.4483032 1.4538574 -2.4339294c-0.06726074 -0.98565674 -1.0149841 -1.5634766 -1.857544 -3.4799194c-0.8425598 -1.9164429 -2.5883484 -5.8580627 -3.1977997 -8.018738c-0.6094513 -2.1607056 -0.3824463 -4.121216 -0.45892334 -4.945465" fill-rule="evenodd"/><path fill="#cfe2f3" d="m179.2398 120.514435c-0.8953705 0.07361603 -3.3095398 0.1091156 -5.372162 0.44168854c-2.062622 0.33257294 -4.5520477 0.5179138 -7.0035706 1.5537415c-2.451538 1.0358276 -4.709152 1.9609756 -7.7055817 4.661232c-2.9964447 2.7002563 -7.5490417 7.2868195 -10.27301 11.540298c-2.7239838 4.253479 -4.241699 8.506424 -6.070877 13.980545c-1.8291626 5.4741364 -3.6198883 12.687347 -4.9041443 18.864197c-1.2842712 6.1768646 -2.1790771 12.094238 -2.8014374 18.19696c-0.622345 6.102722 -0.81570435 14.240036 -0.93270874 18.419373c-0.117004395 4.1793365 -0.19718933 2.2549133 0.23071289 6.656662c0.42790222 4.4017487 1.402359 12.725967 2.3367157 19.75383c0.9343567 7.0278625 1.9077301 14.424332 3.2694397 22.413376c1.3617096 7.9890137 2.9162292 20.712372 4.9008484 25.520844c1.9846191 4.8084717 4.983261 3.699524 7.0068817 3.329895c2.0236206 -0.3696289 5.485306 2.0345764 5.134857 -5.5477295c-0.35046387 -7.5823364 -5.6808624 -31.253937 -7.2375793 -39.946228c-1.5567169 -8.6923065 -1.596817 -7.1401215 -2.1027222 -12.207535c-0.50590515 -5.0674133 -0.8162689 -12.463882 -0.93270874 -18.19696c-0.11645508 -5.733078 -0.23291016 -9.617966 0.23399353 -16.201523c0.4669037 -6.5835724 1.4776154 -16.531494 2.5674286 -23.299881c1.0898132 -6.768387 2.06427 -12.317169 3.9714508 -17.310455c1.9071655 -4.993271 4.9810486 -9.61586 7.471573 -12.649216c2.4905243 -3.0333557 7.3161316 -5.4767303 7.471573 -5.550873c0.15545654 -0.074142456 -3.8148804 1.5547943 -6.538864 5.1060486c-2.7239838 3.5512695 -7.6649323 10.653275 -9.805008 16.201523c-2.1400757 5.5482635 -2.1010742 9.912949 -3.035431 17.088043c-0.9343567 7.1750946 -2.259262 17.97351 -2.5707245 25.96254c-0.31144714 7.989044 0.27355957 15.461731 0.7020111 21.97168c0.42845154 6.5099487 0.934906 11.909943 1.8687134 17.088043c0.9338074 5.1781006 2.0999756 6.8049316 3.734146 13.980545c1.6341705 7.1756134 3.4633331 23.636093 6.070862 29.073166c2.6075287 5.437042 6.7723236 3.4750366 9.574295 3.5491638c2.8019867 0.074157715 6.731674 1.6670532 7.2375793 -3.1043396c0.50590515 -4.771393 -2.9568787 -18.570251 -4.202133 -25.523987c-1.2452698 -6.9537354 -2.413086 -10.317566 -3.2694397 -16.198395c-0.85635376 -5.880844 -1.6352692 -12.354767 -1.8687134 -19.086609c-0.23345947 -6.731842 0.23454285 -14.683807 0.46800232 -21.304443c0.23344421 -6.620636 1.6330566 -14.683807 0.93270874 -18.419373c-0.70036316 -3.7355652 -4.2790527 -1.7745819 -5.134857 -3.993988c-0.8558197 -2.2194214 -0.38890076 -6.1784363 0 -9.322464c0.38890076 -3.1440277 1.4776154 -6.6937256 2.3334198 -9.541733c0.8558197 -2.8480072 1.7896271 -4.95726 2.8014374 -7.5463104c1.0118103 -2.589035 2.02417 -6.175812 3.2694244 -7.9879913c1.2452698 -1.8121643 4.163147 -2.8480072 4.2021484 -2.8850708c0.039001465 -0.0370636 -2.60643 0.8134155 -3.9681396 2.662674c-1.3617096 1.8492432 -2.9958801 4.882065 -4.2021484 8.4328c-1.206253 3.5507507 -2.1790771 8.655228 -3.035431 12.871643c-0.85635376 4.2164 -2.7250824 9.80069 -2.1027222 12.426804c0.6223602 2.626114 3.346344 2.4788818 5.8368683 3.329895c2.4905243 0.8510132 6.3043213 1.73909 9.106293 1.7761536c2.8019867 0.0370636 5.993408 1.7380371 7.7055817 -1.5537415c1.7121735 -3.2917786 1.7110748 -14.5720825 2.5674286 -18.19696c0.85635376 -3.624878 2.2592773 -4.2921143 2.5707245 -3.5523071c0.31144714 0.7398071 -0.46800232 4.551071 -0.7020111 7.9911194c-0.23399353 3.4400635 -0.9744568 9.801224 -0.70199585 12.649231c0.27244568 2.8480072 0.3130951 3.477127 2.3367157 4.4388123c2.0236206 0.96170044 6.6141205 1.0728912 9.805008 1.3313293c3.1908875 0.2584381 7.316681 1.3292542 9.3403015 0.21928406c2.0236206 -1.1099701 1.9450684 -2.625595 2.8014374 -6.879074c0.85635376 -4.253479 2.0252686 -18.12387 2.3367157 -18.641785c0.31144714 -0.5179138 -0.62345886 11.39151 -0.46800232 15.534302c0.15545654 4.1427917 -0.7393646 7.435623 1.400711 9.322449c2.1400757 1.8868408 7.4704895 2.0356445 11.439728 1.9985657c3.9692383 -0.0370636 10.66301 2.1437073 12.375732 -2.2209625c1.7127075 -4.364685 -2.3328857 -22.302689 -2.0994263 -23.967117c0.23344421 -1.6644287 2.644333 9.986038 3.5001373 13.98056c0.85580444 3.9945068 -0.58335876 8.247986 1.6347198 9.986557c2.2180786 1.7385559 8.98819 0.5925598 11.673721 0.44480896c2.6855316 -0.14775085 3.5440826 0.18534851 4.439438 -1.3313293c0.8953552 -1.5166779 1.2441711 -4.29158 0.93270874 -7.7687073c-0.31143188 -3.477127 -1.7896118 -10.1719055 -2.801422 -13.09404c-1.0118103 -2.9221497 -3.619339 -5.474655 -3.2694244 -4.4388275c0.3498993 1.0358276 3.9681244 6.7699585 5.3688507 10.653793c1.4007263 3.8838348 1.5567322 10.466873 3.035431 12.649216c1.4787292 2.1823425 3.540802 0.7774048 5.836853 0.44482422c2.2960815 -0.3325653 6.7717896 -0.7387543 7.9396057 -2.4402466c1.1678162 -1.7014923 -0.38781738 -4.9201965 -0.93270874 -7.7687225c-0.5449219 -2.848526 -1.0524597 -5.919464 -2.336731 -9.322449c-1.2842712 -3.4029999 -3.812683 -8.136795 -5.368866 -11.0954895c-1.5561523 -2.9586792 -2.5284119 -4.5855255 -3.9681396 -6.6566467c-1.4397278 -2.0711365 -5.564972 -7.1756287 -4.670166 -5.770157c0.8948364 1.4054718 7.3540344 9.357437 10.039032 14.202957c2.684967 4.8455353 4.6701355 10.505524 6.070862 14.870209c1.4006958 4.36467 3.0727844 8.840042 2.333435 11.317886c-0.7393799 2.4778442 -5.6023254 1.2561493 -6.7695923 3.5491638c-1.1672668 2.2930298 -0.23400879 5.8442993 -0.23400879 10.208969c0 4.364685 0.4284668 9.765198 0.23400879 15.979126c-0.19445801 6.213928 -0.73934937 9.764664 -1.4007263 21.304443c-0.66134644 11.53978 -3.6956787 38.87227 -2.5674133 47.93422c1.1282654 9.06192 6.7690125 5.771179 9.337006 6.437378c2.5679626 0.66619873 4.864044 0.33413696 6.070862 -2.4402466c1.2068176 -2.7743835 0.858551 -7.659088 1.1700134 -14.206116c0.3114624 -6.546997 0.270813 -17.198181 0.69869995 -25.07602c0.42791748 -7.877823 1.596283 -14.867584 1.8687134 -22.190948c0.27246094 -7.3233795 -0.117004395 -15.794296 -0.23397827 -21.749268c-0.117004395 -5.9549713 -0.040100098 -9.28331 -0.46801758 -13.98056c-0.42791748 -4.6972504 -0.815155 -9.135544 -2.0994263 -14.202957c-1.2842712 -5.0674133 -4.0494385 -12.576645 -5.60614 -16.201523c-1.5567322 -3.624878 -4.1625977 -6.3246155 -3.7341614 -5.5477448c0.4284668 0.7768707 4.5147095 5.6223907 6.3048706 10.208969c1.7901611 4.586563 3.3858948 9.912933 4.436157 17.31044c1.0502625 7.3975067 1.8654175 16.01567 1.8654175 27.0746c0 11.058929 -1.476532 26.740463 -1.8654175 39.27899c-0.38891602 12.538544 -1.3628235 28.776611 -0.46801758 35.95224c0.8948059 7.175598 3.852234 6.9166565 5.836853 7.101471c1.9846497 0.18481445 5.292511 0.77633667 6.0708923 -5.9925537c0.77835083 -6.768921 -1.1282654 -26.03981 -1.4007263 -34.620895c-0.27246094 -8.5811 -0.31201172 -9.394516 -0.23400879 -16.865631c0.07800293 -7.4711304 0.7409973 -20.15689 0.70199585 -27.961105c-0.038970947 -7.8042145 -0.27407837 -12.982834 -0.93600464 -18.864197c-0.66189575 -5.8813477 -1.4402466 -11.245834 -3.035431 -16.423935c-1.5951538 -5.1781006 -3.4226685 -9.503616 -6.535553 -14.644653c-3.1128845 -5.141037 -7.549591 -12.0216675 -12.141724 -16.201523c-4.592163 -4.1798706 -11.4809265 -6.9913254 -15.411163 -8.87764c-3.930252 -1.8863144 -6.8085938 -2.0335464 -8.170303 -2.4402542" fill-rule="evenodd"/><path stroke="#000000" stroke-width="2.0" stroke-linejoin="round" stroke-linecap="butt" d="m179.2398 120.514435c-0.8953705 0.07361603 -3.3095398 0.1091156 -5.372162 0.44168854c-2.062622 0.33257294 -4.5520477 0.5179138 -7.0035706 1.5537415c-2.451538 1.0358276 -4.709152 1.9609756 -7.7055817 4.661232c-2.9964447 2.7002563 -7.5490417 7.2868195 -10.27301 11.540298c-2.7239838 4.253479 -4.241699 8.506424 -6.070877 13.980545c-1.8291626 5.4741364 -3.6198883 12.687347 -4.9041443 18.864197c-1.2842712 6.1768646 -2.1790771 12.094238 -2.8014374 18.19696c-0.622345 6.102722 -0.81570435 14.240036 -0.93270874 18.419373c-0.117004395 4.1793365 -0.19718933 2.2549133 0.23071289 6.656662c0.42790222 4.4017487 1.402359 12.725967 2.3367157 19.75383c0.9343567 7.0278625 1.9077301 14.424332 3.2694397 22.413376c1.3617096 7.9890137 2.9162292 20.712372 4.9008484 25.520844c1.9846191 4.8084717 4.983261 3.699524 7.0068817 3.329895c2.0236206 -0.3696289 5.485306 2.0345764 5.134857 -5.5477295c-0.35046387 -7.5823364 -5.6808624 -31.253937 -7.2375793 -39.946228c-1.5567169 -8.6923065 -1.596817 -7.1401215 -2.1027222 -12.207535c-0.50590515 -5.0674133 -0.8162689 -12.463882 -0.93270874 -18.19696c-0.11645508 -5.733078 -0.23291016 -9.617966 0.23399353 -16.201523c0.4669037 -6.5835724 1.4776154 -16.531494 2.5674286 -23.299881c1.0898132 -6.768387 2.06427 -12.317169 3.9714508 -17.310455c1.9071655 -4.993271 4.9810486 -9.61586 7.471573 -12.649216c2.4905243 -3.0333557 7.3161316 -5.4767303 7.471573 -5.550873c0.15545654 -0.074142456 -3.8148804 1.5547943 -6.538864 5.1060486c-2.7239838 3.5512695 -7.6649323 10.653275 -9.805008 16.201523c-2.1400757 5.5482635 -2.1010742 9.912949 -3.035431 17.088043c-0.9343567 7.1750946 -2.259262 17.97351 -2.5707245 25.96254c-0.31144714 7.989044 0.27355957 15.461731 0.7020111 21.97168c0.42845154 6.5099487 0.934906 11.909943 1.8687134 17.088043c0.9338074 5.1781006 2.0999756 6.8049316 3.734146 13.980545c1.6341705 7.1756134 3.4633331 23.636093 6.070862 29.073166c2.6075287 5.437042 6.7723236 3.4750366 9.574295 3.5491638c2.8019867 0.074157715 6.731674 1.6670532 7.2375793 -3.1043396c0.50590515 -4.771393 -2.9568787 -18.570251 -4.202133 -25.523987c-1.2452698 -6.9537354 -2.413086 -10.317566 -3.2694397 -16.198395c-0.85635376 -5.880844 -1.6352692 -12.354767 -1.8687134 -19.086609c-0.23345947 -6.731842 0.23454285 -14.683807 0.46800232 -21.304443c0.23344421 -6.620636 1.6330566 -14.683807 0.93270874 -18.419373c-0.70036316 -3.7355652 -4.2790527 -1.7745819 -5.134857 -3.993988c-0.8558197 -2.2194214 -0.38890076 -6.1784363 0 -9.322464c0.38890076 -3.1440277 1.4776154 -6.6937256 2.3334198 -9.541733c0.8558197 -2.8480072 1.7896271 -4.95726 2.8014374 -7.5463104c1.0118103 -2.589035 2.02417 -6.175812 3.2694244 -7.9879913c1.2452698 -1.8121643 4.163147 -2.8480072 4.2021484 -2.8850708c0.039001465 -0.0370636 -2.60643 0.8134155 -3.9681396 2.662674c-1.3617096 1.8492432 -2.9958801 4.882065 -4.2021484 8.4328c-1.206253 3.5507507 -2.1790771 8.655228 -3.035431 12.871643c-0.85635376 4.2164 -2.7250824 9.80069 -2.1027222 12.426804c0.6223602 2.626114 3.346344 2.4788818 5.8368683 3.329895c2.4905243 0.8510132 6.3043213 1.73909 9.106293 1.7761536c2.8019867 0.0370636 5.993408 1.7380371 7.7055817 -1.5537415c1.7121735 -3.2917786 1.7110748 -14.5720825 2.5674286 -18.19696c0.85635376 -3.624878 2.2592773 -4.2921143 2.5707245 -3.5523071c0.31144714 0.7398071 -0.46800232 4.551071 -0.7020111 7.9911194c-0.23399353 3.4400635 -0.9744568 9.801224 -0.70199585 12.649231c0.27244568 2.8480072 0.3130951 3.477127 2.3367157 4.4388123c2.0236206 0.96170044 6.6141205 1.0728912 9.805008 1.3313293c3.1908875 0.2584381 7.316681 1.3292542 9.3403015 0.21928406c2.0236206 -1.1099701 1.9450684 -2.625595 2.8014374 -6.879074c0.85635376 -4.253479 2.0252686 -18.12387 2.3367157 -18.641785c0.31144714 -0.5179138 -0.62345886 11.39151 -0.46800232 15.534302c0.15545654 4.1427917 -0.7393646 7.435623 1.400711 9.322449c2.1400757 1.8868408 7.4704895 2.0356445 11.439728 1.9985657c3.9692383 -0.0370636 10.66301 2.1437073 12.375732 -2.2209625c1.7127075 -4.364685 -2.3328857 -22.302689 -2.0994263 -23.967117c0.23344421 -1.6644287 2.644333 9.986038 3.5001373 13.98056c0.85580444 3.9945068 -0.58335876 8.247986 1.6347198 9.986557c2.2180786 1.7385559 8.98819 0.5925598 11.673721 0.44480896c2.6855316 -0.14775085 3.5440826 0.18534851 4.439438 -1.3313293c0.8953552 -1.5166779 1.2441711 -4.29158 0.93270874 -7.7687073c-0.31143188 -3.477127 -1.7896118 -10.1719055 -2.801422 -13.09404c-1.0118103 -2.9221497 -3.619339 -5.474655 -3.2694244 -4.4388275c0.3498993 1.0358276 3.9681244 6.7699585 5.3688507 10.653793c1.4007263 3.8838348 1.5567322 10.466873 3.035431 12.649216c1.4787292 2.1823425 3.540802 0.7774048 5.836853 0.44482422c2.2960815 -0.3325653 6.7717896 -0.7387543 7.9396057 -2.4402466c1.1678162 -1.7014923 -0.38781738 -4.9201965 -0.93270874 -7.7687225c-0.5449219 -2.848526 -1.0524597 -5.919464 -2.336731 -9.322449c-1.2842712 -3.4029999 -3.812683 -8.136795 -5.368866 -11.0954895c-1.5561523 -2.9586792 -2.5284119 -4.5855255 -3.9681396 -6.6566467c-1.4397278 -2.0711365 -5.564972 -7.1756287 -4.670166 -5.770157c0.8948364 1.4054718 7.3540344 9.357437 10.039032 14.202957c2.684967 4.8455353 4.6701355 10.505524 6.070862 14.870209c1.4006958 4.36467 3.0727844 8.840042 2.333435 11.317886c-0.7393799 2.4778442 -5.6023254 1.2561493 -6.7695923 3.5491638c-1.1672668 2.2930298 -0.23400879 5.8442993 -0.23400879 10.208969c0 4.364685 0.4284668 9.765198 0.23400879 15.979126c-0.19445801 6.213928 -0.73934937 9.764664 -1.4007263 21.304443c-0.66134644 11.53978 -3.6956787 38.87227 -2.5674133 47.93422c1.1282654 9.06192 6.7690125 5.771179 9.337006 6.437378c2.5679626 0.66619873 4.864044 0.33413696 6.070862 -2.4402466c1.2068176 -2.7743835 0.858551 -7.659088 1.1700134 -14.206116c0.3114624 -6.546997 0.270813 -17.198181 0.69869995 -25.07602c0.42791748 -7.877823 1.596283 -14.867584 1.8687134 -22.190948c0.27246094 -7.3233795 -0.117004395 -15.794296 -0.23397827 -21.749268c-0.117004395 -5.9549713 -0.040100098 -9.28331 -0.46801758 -13.98056c-0.42791748 -4.6972504 -0.815155 -9.135544 -2.0994263 -14.202957c-1.2842712 -5.0674133 -4.0494385 -12.576645 -5.60614 -16.201523c-1.5567322 -3.624878 -4.1625977 -6.3246155 -3.7341614 -5.5477448c0.4284668 0.7768707 4.5147095 5.6223907 6.3048706 10.208969c1.7901611 4.586563 3.3858948 9.912933 4.436157 17.31044c1.0502625 7.3975067 1.8654175 16.01567 1.8654175 27.0746c0 11.058929 -1.476532 26.740463 -1.8654175 39.27899c-0.38891602 12.538544 -1.3628235 28.776611 -0.46801758 35.95224c0.8948059 7.175598 3.852234 6.9166565 5.836853 7.101471c1.9846497 0.18481445 5.292511 0.77633667 6.0708923 -5.9925537c0.77835083 -6.768921 -1.1282654 -26.03981 -1.4007263 -34.620895c-0.27246094 -8.5811 -0.31201172 -9.394516 -0.23400879 -16.865631c0.07800293 -7.4711304 0.7409973 -20.15689 0.70199585 -27.961105c-0.038970947 -7.8042145 -0.27407837 -12.982834 -0.93600464 -18.864197c-0.66189575 -5.8813477 -1.4402466 -11.245834 -3.035431 -16.423935c-1.5951538 -5.1781006 -3.4226685 -9.503616 -6.535553 -14.644653c-3.1128845 -5.141037 -7.549591 -12.0216675 -12.141724 -16.201523c-4.592163 -4.1798706 -11.4809265 -6.9913254 -15.411163 -8.87764c-3.930252 -1.8863144 -6.8085938 -2.0335464 -8.170303 -2.4402542" fill-rule="evenodd"/></g></svg>