<svg version="1.1" viewBox="0.0 0.0 397.9186351706037 583.1207349081365" fill="none" stroke="none" stroke-linecap="square" stroke-miterlimit="10" xmlns:xlink="http://www.w3.org/1999/xlink" xmlns="http://www.w3.org/2000/svg"><clipPath id="p.0"><path d="m0 0l397.91864 0l0 583.1207l-397.91864 0l0 -583.1207z" clip-rule="nonzero"/></clipPath><g clip-path="url(#p.0)"><path fill="#000000" fill-opacity="0.0" d="m0 0l397.91864 0l0 583.1207l-397.91864 0z" fill-rule="evenodd"/><path fill="#cfe2f3" d="m216.8683 288.25165c1.7639008 4.7476807 8.172592 22.188385 10.583389 28.486023c2.410797 6.297638 2.0390472 7.7301025 3.8814087 9.299744c1.8423615 1.5696716 4.6443634 1.2953186 7.1727295 0.118133545c2.5283813 -1.177185 9.291336 -0.11834717 7.9975433 -7.1812134c-1.293808 -7.062866 -11.173904 -27.799744 -15.760345 -35.196014c-4.586441 -7.3962708 -9.798584 -7.651367 -11.758301 -9.181641" fill-rule="evenodd"/><path stroke="#000000" stroke-width="2.0" stroke-linejoin="round" stroke-linecap="butt" d="m216.8683 288.25165c1.7639008 4.7476807 8.172592 22.188385 10.583389 28.486023c2.410797 6.297638 2.0390472 7.7301025 3.8814087 9.299744c1.8423615 1.5696716 4.6443634 1.2953186 7.1727295 0.118133545c2.5283813 -1.177185 9.291336 -0.11834717 7.9975433 -7.1812134c-1.293808 -7.062866 -11.173904 -27.799744 -15.760345 -35.196014c-4.586441 -7.3962708 -9.798584 -7.651367 -11.758301 -9.181641" fill-rule="evenodd"/><path fill="#cfe2f3" d="m228.74971 320.14972c1.6664124 4.4529724 7.7440186 20.734436 9.99855 26.717926c2.2545319 5.98349 1.6863098 7.6132812 3.5286713 9.182953c1.8423615 1.5696411 4.977646 1.4121094 7.525467 0.23495483c2.5478363 -1.177185 7.722809 -2.7468567 7.761505 -7.298065c0.03869629 -4.5512085 -5.49057 -14.241699 -7.5294037 -20.009247c-2.0388336 -5.7675476 -3.9196472 -12.163422 -4.703583 -14.5961" fill-rule="evenodd"/><path stroke="#000000" stroke-width="2.0" stroke-linejoin="round" stroke-linecap="butt" d="m228.74971 320.14972c1.6664124 4.4529724 7.7440186 20.734436 9.99855 26.717926c2.2545319 5.98349 1.6863098 7.6132812 3.5286713 9.182953c1.8423615 1.5696411 4.977646 1.4121094 7.525467 0.23495483c2.5478363 -1.177185 7.722809 -2.7468567 7.761505 -7.298065c0.03869629 -4.5512085 -5.49057 -14.241699 -7.5294037 -20.009247c-2.0388336 -5.7675476 -3.9196472 -12.163422 -4.703583 -14.5961" fill-rule="evenodd"/><path fill="#cfe2f3" d="m256.03305 343.3379c1.2002563 1.7761841 5.3338623 7.476349 7.201599 10.657013c1.8677063 3.1806335 3.670929 5.7660217 4.0046387 8.42688c0.33374023 2.6608582 -0.70458984 5.6166077 -2.0023193 7.5382385c-1.2977295 1.9216614 -3.4849548 3.585144 -5.784088 3.9916077c-2.2991028 0.40646362 -6.22554 -0.5510559 -8.010635 -1.5527954c-1.7851105 -1.0017395 -2.0539246 -2.9888 -2.6999512 -4.4575806c-0.6460266 -1.468811 -0.72535706 -4.3355103 -1.1762238 -4.355194c-0.45085144 -0.019714355 -0.7657776 3.2117004 -1.5289459 4.2370605c-0.76316833 1.0253601 -2.0113068 1.7973938 -3.050064 1.9150696c-1.0387573 0.1177063 -2.7696533 0.3069458 -3.1824799 -1.2088928c-0.4128418 -1.5158386 0.5487671 -5.512268 0.7054596 -7.8861084c0.15670776 -2.3738098 0.43077087 -4.3164673 0.23472595 -6.356903c-0.19602966 -2.0404358 -1.1757812 -4.9047546 -1.4109497 -5.885681" fill-rule="evenodd"/><path stroke="#000000" stroke-width="2.0" stroke-linejoin="round" stroke-linecap="butt" d="m256.03305 343.3379c1.2002563 1.7761841 5.3338623 7.476349 7.201599 10.657013c1.8677063 3.1806335 3.670929 5.7660217 4.0046387 8.42688c0.33374023 2.6608582 -0.70458984 5.6166077 -2.0023193 7.5382385c-1.2977295 1.9216614 -3.4849548 3.585144 -5.784088 3.9916077c-2.2991028 0.40646362 -6.22554 -0.5510559 -8.010635 -1.5527954c-1.7851105 -1.0017395 -2.0539246 -2.9888 -2.6999512 -4.4575806c-0.6460266 -1.468811 -0.72535706 -4.3355103 -1.1762238 -4.355194c-0.45085144 -0.019714355 -0.7657776 3.2117004 -1.5289459 4.2370605c-0.76316833 1.0253601 -2.0113068 1.7973938 -3.050064 1.9150696c-1.0387573 0.1177063 -2.7696533 0.3069458 -3.1824799 -1.2088928c-0.4128418 -1.5158386 0.5487671 -5.512268 0.7054596 -7.8861084c0.15670776 -2.3738098 0.43077087 -4.3164673 0.23472595 -6.356903c-0.19602966 -2.0404358 -1.1757812 -4.9047546 -1.4109497 -5.885681" fill-rule="evenodd"/><path fill="#cfe2f3" d="m217.0881 269.2687c-0.54855347 -1.7879944 -0.07714844 -4.270752 -0.70414734 -5.3632812c-0.62701416 -1.0925293 -0.27471924 -1.1124268 -3.0579224 -1.1918335c-2.7832031 -0.07940674 -11.01503 -0.27804565 -13.641312 0.71536255c-2.6262817 0.9934082 -1.4109497 3.6956177 -2.1164093 5.2451477c-0.70547485 1.54953 -1.0188751 2.7011108 -2.1164246 4.0519714c-1.0975494 1.3508911 -2.9790192 3.1791382 -4.468857 4.053314c-1.4898376 0.87420654 -3.254837 0.43688965 -4.4701843 1.1918335c-1.215332 0.75497437 -2.508484 1.3907166 -2.8218842 3.3379517c-0.31340027 1.9472351 0.43185425 3.6168518 0.9414978 8.3454895c0.5096588 4.7286377 1.4500732 14.979828 2.1164246 20.026306c0.6663513 5.046509 1.9992676 6.199402 1.8816986 10.252716c-0.11758423 4.053314 -0.9799652 9.060211 -2.5871735 14.067108c-1.607193 5.0069275 -5.3802032 11.699432 -7.0560303 15.974335c-1.675827 4.2749023 -3.3221436 7.3857727 -2.9989166 9.675171c0.3232422 2.2893982 -1.0103455 3.2497559 4.9383087 4.0611877c5.948654 0.81140137 21.276932 0.513855 30.753601 0.80722046c9.476654 0.29336548 20.853806 1.4298706 26.106384 0.9529724c5.2525787 -0.4769287 4.507553 -1.2714844 5.4090576 -3.8144226c0.9015045 -2.5429382 0.47032166 -7.151703 0 -11.443237c-0.4703064 -4.2915344 -1.900711 -10.014252 -2.8218842 -14.306c-0.92118835 -4.2917786 -1.9798279 -6.7555237 -2.705185 -11.44455c-0.72535706 -4.6890564 -1.078537 -11.205872 -1.6469727 -16.689697c-0.5684509 -5.4838257 -0.6464691 -11.921661 -1.7636871 -16.213226c-1.117218 -4.2915344 -2.50914 -6.714813 -4.9396057 -9.536011c-2.430481 -2.821228 -7.6048126 -5.265259 -9.643204 -7.3912354c-2.038391 -2.1259766 -2.0386047 -3.5766296 -2.5871735 -5.3645935z" fill-rule="evenodd"/><path stroke="#000000" stroke-width="2.0" stroke-linejoin="round" stroke-linecap="butt" d="m217.0881 269.2687c-0.54855347 -1.7879944 -0.07714844 -4.270752 -0.70414734 -5.3632812c-0.62701416 -1.0925293 -0.27471924 -1.1124268 -3.0579224 -1.1918335c-2.7832031 -0.07940674 -11.01503 -0.27804565 -13.641312 0.71536255c-2.6262817 0.9934082 -1.4109497 3.6956177 -2.1164093 5.2451477c-0.70547485 1.54953 -1.0188751 2.7011108 -2.1164246 4.0519714c-1.0975494 1.3508911 -2.9790192 3.1791382 -4.468857 4.053314c-1.4898376 0.87420654 -3.254837 0.43688965 -4.4701843 1.1918335c-1.215332 0.75497437 -2.508484 1.3907166 -2.8218842 3.3379517c-0.31340027 1.9472351 0.43185425 3.6168518 0.9414978 8.3454895c0.5096588 4.7286377 1.4500732 14.979828 2.1164246 20.026306c0.6663513 5.046509 1.9992676 6.199402 1.8816986 10.252716c-0.11758423 4.053314 -0.9799652 9.060211 -2.5871735 14.067108c-1.607193 5.0069275 -5.3802032 11.699432 -7.0560303 15.974335c-1.675827 4.2749023 -3.3221436 7.3857727 -2.9989166 9.675171c0.3232422 2.2893982 -1.0103455 3.2497559 4.9383087 4.0611877c5.948654 0.81140137 21.276932 0.513855 30.753601 0.80722046c9.476654 0.29336548 20.853806 1.4298706 26.106384 0.9529724c5.2525787 -0.4769287 4.507553 -1.2714844 5.4090576 -3.8144226c0.9015045 -2.5429382 0.47032166 -7.151703 0 -11.443237c-0.4703064 -4.2915344 -1.900711 -10.014252 -2.8218842 -14.306c-0.92118835 -4.2917786 -1.9798279 -6.7555237 -2.705185 -11.44455c-0.72535706 -4.6890564 -1.078537 -11.205872 -1.6469727 -16.689697c-0.5684509 -5.4838257 -0.6464691 -11.921661 -1.7636871 -16.213226c-1.117218 -4.2915344 -2.50914 -6.714813 -4.9396057 -9.536011c-2.430481 -2.821228 -7.6048126 -5.265259 -9.643204 -7.3912354c-2.038391 -2.1259766 -2.0386047 -3.5766296 -2.5871735 -5.3645935z" fill-rule="evenodd"/><path fill="#cfe2f3" d="m278.69345 214.71277c0.39230347 -2.118454 1.4907532 -1.0199738 1.8830872 -5.6492157c0.39233398 -4.629242 0.9416199 -15.221603 0.4708557 -22.126236c-0.47073364 -6.904648 -1.2554016 -12.710785 -3.2954102 -19.301575c-2.039978 -6.59079 -5.7276917 -14.829315 -8.944611 -20.24318c-3.216919 -5.413864 -5.0215454 -8.081558 -10.356964 -12.240021c-5.3354034 -4.158478 -15.378555 -9.886162 -21.655502 -12.71077c-6.276947 -2.8246078 -10.984619 -3.3737946 -16.006165 -4.2368774c-5.0215454 -0.86307526 -9.729248 -0.78466797 -14.123093 -0.941597c-4.39386 -0.15693665 -7.846176 -0.47077942 -12.240036 0c-4.3938446 0.47077942 -9.258453 1.2554245 -14.123093 2.824669c-4.8646393 1.569252 -10.592361 4.236969 -15.064697 6.5908127c-4.472336 2.353859 -7.6892853 3.6876602 -11.769287 7.53228c-4.080017 3.8446198 -9.493835 9.807724 -12.71077 15.535446c-3.216919 5.727707 -5.1784973 12.396973 -6.590805 18.830826c-1.412323 6.4338684 -1.9615479 13.26001 -1.8830719 19.772324c0.07847595 6.512314 1.3339233 14.044632 2.3539276 19.301575c1.0200195 5.2569275 1.8046265 7.1399994 3.7661438 12.240021c1.9615326 5.1000214 4.629181 12.710861 8.003021 18.360107c3.3738403 5.649231 6.433853 11.376831 12.240021 15.535294c5.8061676 4.158478 15.3785095 7.296997 22.596985 9.415497c7.2184906 2.1184692 11.847733 2.9031067 20.713913 3.2954102c8.86618 0.39230347 23.303177 -6.1035156E-5 32.4832 -0.9416199c9.180038 -0.9415283 16.398514 -2.275299 22.596985 -4.707611c6.198456 -2.432312 10.906128 -5.9631195 14.593842 -9.886215c3.687683 -3.9230957 6.4339294 -9.807739 7.5324097 -13.652359c1.0984497 -3.8446198 -0.78466797 -6.826111 -0.9416199 -9.4153595c-0.15692139 -2.5892334 -0.078430176 -3.9231415 0 -6.1200714c0.07846069 -2.1969452 0.07846069 -4.9430847 0.47073364 -7.061554z" fill-rule="evenodd"/><path stroke="#000000" stroke-width="2.0" stroke-linejoin="round" stroke-linecap="butt" d="m278.69345 214.71277c0.39230347 -2.118454 1.4907532 -1.0199738 1.8830872 -5.6492157c0.39233398 -4.629242 0.9416199 -15.221603 0.4708557 -22.126236c-0.47073364 -6.904648 -1.2554016 -12.710785 -3.2954102 -19.301575c-2.039978 -6.59079 -5.7276917 -14.829315 -8.944611 -20.24318c-3.216919 -5.413864 -5.0215454 -8.081558 -10.356964 -12.240021c-5.3354034 -4.158478 -15.378555 -9.886162 -21.655502 -12.71077c-6.276947 -2.8246078 -10.984619 -3.3737946 -16.006165 -4.2368774c-5.0215454 -0.86307526 -9.729248 -0.78466797 -14.123093 -0.941597c-4.39386 -0.15693665 -7.846176 -0.47077942 -12.240036 0c-4.3938446 0.47077942 -9.258453 1.2554245 -14.123093 2.824669c-4.8646393 1.569252 -10.592361 4.236969 -15.064697 6.5908127c-4.472336 2.353859 -7.6892853 3.6876602 -11.769287 7.53228c-4.080017 3.8446198 -9.493835 9.807724 -12.71077 15.535446c-3.216919 5.727707 -5.1784973 12.396973 -6.590805 18.830826c-1.412323 6.4338684 -1.9615479 13.26001 -1.8830719 19.772324c0.07847595 6.512314 1.3339233 14.044632 2.3539276 19.301575c1.0200195 5.2569275 1.8046265 7.1399994 3.7661438 12.240021c1.9615326 5.1000214 4.629181 12.710861 8.003021 18.360107c3.3738403 5.649231 6.433853 11.376831 12.240021 15.535294c5.8061676 4.158478 15.3785095 7.296997 22.596985 9.415497c7.2184906 2.1184692 11.847733 2.9031067 20.713913 3.2954102c8.86618 0.39230347 23.303177 -6.1035156E-5 32.4832 -0.9416199c9.180038 -0.9415283 16.398514 -2.275299 22.596985 -4.707611c6.198456 -2.432312 10.906128 -5.9631195 14.593842 -9.886215c3.687683 -3.9230957 6.4339294 -9.807739 7.5324097 -13.652359c1.0984497 -3.8446198 -0.78466797 -6.826111 -0.9416199 -9.4153595c-0.15692139 -2.5892334 -0.078430176 -3.9231415 0 -6.1200714c0.07846069 -2.1969452 0.07846069 -4.9430847 0.47073364 -7.061554z" fill-rule="evenodd"/><path fill="#cfe2f3" d="m142.2939 222.22008c-0.862381 -0.6670227 -3.5277863 -3.4527893 -5.1743317 -4.002121c-1.6465454 -0.5493164 -3.4895477 -0.11790466 -4.704895 0.70617676c-1.2153473 0.8240967 -1.9992676 2.7472687 -2.5871735 4.238388c-0.5878906 1.4911041 -1.4498444 2.5501556 -0.94018555 4.7082825c0.5096588 2.158142 2.743866 6.082367 3.998108 8.240494c1.254242 2.158142 2.0770874 3.2171783 3.527359 4.7082977c1.4502869 1.4911041 2.939911 3.4928284 5.1743317 4.238373c2.234436 0.7455597 6.4681396 0.7845001 8.232254 0.23495483c1.7641296 -0.54953 1.9603729 -2.9434967 2.3524475 -3.532196" fill-rule="evenodd"/><path stroke="#000000" stroke-width="2.0" stroke-linejoin="round" stroke-linecap="butt" d="m142.2939 222.22008c-0.862381 -0.6670227 -3.5277863 -3.4527893 -5.1743317 -4.002121c-1.6465454 -0.5493164 -3.4895477 -0.11790466 -4.704895 0.70617676c-1.2153473 0.8240967 -1.9992676 2.7472687 -2.5871735 4.238388c-0.5878906 1.4911041 -1.4498444 2.5501556 -0.94018555 4.7082825c0.5096588 2.158142 2.743866 6.082367 3.998108 8.240494c1.254242 2.158142 2.0770874 3.2171783 3.527359 4.7082977c1.4502869 1.4911041 2.939911 3.4928284 5.1743317 4.238373c2.234436 0.7455597 6.4681396 0.7845001 8.232254 0.23495483c1.7641296 -0.54953 1.9603729 -2.9434967 2.3524475 -3.532196" fill-rule="evenodd"/><path fill="#cfe2f3" d="m135.74968 231.18271c-0.27450562 -0.31391907 -1.6076355 -0.86346436 -1.6469727 -1.8835754c-0.03933716 -1.0201111 0.705246 -3.7662811 1.4109344 -4.2370605c0.7056885 -0.47079468 1.4120331 0.078308105 2.8231964 1.4123535c1.4111633 1.3340302 4.5855713 4.5514374 5.6437836 6.591873c1.0582123 2.0404205 0.5878906 4.7089386 0.70547485 5.6507263" fill-rule="evenodd"/><path stroke="#000000" stroke-width="2.0" stroke-linejoin="round" stroke-linecap="butt" d="m135.74968 231.18271c-0.27450562 -0.31391907 -1.6076355 -0.86346436 -1.6469727 -1.8835754c-0.03933716 -1.0201111 0.705246 -3.7662811 1.4109344 -4.2370605c0.7056885 -0.47079468 1.4120331 0.078308105 2.8231964 1.4123535c1.4111633 1.3340302 4.5855713 4.5514374 5.6437836 6.591873c1.0582123 2.0404205 0.5878906 4.7089386 0.70547485 5.6507263" fill-rule="evenodd"/><path fill="#cfe2f3" d="m194.05916 289.5504c-1.7639008 4.74765 -8.172592 22.188385 -10.583389 28.485992c-2.410797 6.297638 -2.0390472 7.730133 -3.8814087 9.299774c-1.8423615 1.5696411 -4.644348 1.2953186 -7.1727295 0.118133545c-2.5283813 -1.177185 -9.291336 -0.11834717 -7.9975433 -7.181244c1.293808 -7.062866 11.17392 -27.799713 15.760361 -35.196014c4.586441 -7.3962708 9.798584 -7.6513367 11.758301 -9.18161" fill-rule="evenodd"/><path stroke="#000000" stroke-width="2.0" stroke-linejoin="round" stroke-linecap="butt" d="m194.05916 289.5504c-1.7639008 4.74765 -8.172592 22.188385 -10.583389 28.485992c-2.410797 6.297638 -2.0390472 7.730133 -3.8814087 9.299774c-1.8423615 1.5696411 -4.644348 1.2953186 -7.1727295 0.118133545c-2.5283813 -1.177185 -9.291336 -0.11834717 -7.9975433 -7.181244c1.293808 -7.062866 11.17392 -27.799713 15.760361 -35.196014c4.586441 -7.3962708 9.798584 -7.6513367 11.758301 -9.18161" fill-rule="evenodd"/><path fill="#cfe2f3" d="m182.16016 321.44846c-1.6664276 4.453003 -7.7440186 20.734467 -9.998566 26.717926c-2.2545319 5.98349 -1.6863098 7.613312 -3.528656 9.182953c-1.8423615 1.5696411 -4.977646 1.4121399 -7.525482 0.23495483c-2.547821 -1.177185 -7.722809 -2.7468262 -7.761505 -7.2980347c-0.03868103 -4.551239 5.4905853 -14.241699 7.5294037 -20.009277c2.0388336 -5.7675476 3.9196625 -12.163391 4.703598 -14.596069" fill-rule="evenodd"/><path stroke="#000000" stroke-width="2.0" stroke-linejoin="round" stroke-linecap="butt" d="m182.16016 321.44846c-1.6664276 4.453003 -7.7440186 20.734467 -9.998566 26.717926c-2.2545319 5.98349 -1.6863098 7.613312 -3.528656 9.182953c-1.8423615 1.5696411 -4.977646 1.4121399 -7.525482 0.23495483c-2.547821 -1.177185 -7.722809 -2.7468262 -7.761505 -7.2980347c-0.03868103 -4.551239 5.4905853 -14.241699 7.5294037 -20.009277c2.0388336 -5.7675476 3.9196625 -12.163391 4.703598 -14.596069" fill-rule="evenodd"/><path fill="#cfe2f3" d="m154.8768 344.63666c-1.2002563 1.7761536 -5.3338776 7.476349 -7.201584 10.656982c-1.8677063 3.1806335 -3.6709442 5.7660217 -4.004669 8.42688c-0.33370972 2.6608582 0.7046051 5.6166077 2.0023346 7.538269c1.2977448 1.9216309 3.48497 3.585144 5.784088 3.9916077c2.299118 0.40646362 6.2255554 -0.5510864 8.010651 -1.5528259c1.7850952 -1.001709 2.0539093 -2.9887695 2.699936 -4.4575806c0.6460266 -1.4687805 0.72535706 -4.3355103 1.1762238 -4.355194c0.4508667 -0.019683838 0.76579285 3.2117004 1.5289612 4.2370605c0.76316833 1.0253601 2.0112915 1.7973938 3.0500488 1.9151001c1.0387573 0.11767578 2.7696533 0.30691528 3.182495 -1.2089233c0.41282654 -1.5158386 -0.54878235 -5.5122375 -0.70547485 -7.886078c-0.1566925 -2.3738403 -0.43075562 -4.316498 -0.23472595 -6.3569336c0.19604492 -2.0404053 1.1757965 -4.904724 1.4109497 -5.885681" fill-rule="evenodd"/><path stroke="#000000" stroke-width="2.0" stroke-linejoin="round" stroke-linecap="butt" d="m154.8768 344.63666c-1.2002563 1.7761536 -5.3338776 7.476349 -7.201584 10.656982c-1.8677063 3.1806335 -3.6709442 5.7660217 -4.004669 8.42688c-0.33370972 2.6608582 0.7046051 5.6166077 2.0023346 7.538269c1.2977448 1.9216309 3.48497 3.585144 5.784088 3.9916077c2.299118 0.40646362 6.2255554 -0.5510864 8.010651 -1.5528259c1.7850952 -1.001709 2.0539093 -2.9887695 2.699936 -4.4575806c0.6460266 -1.4687805 0.72535706 -4.3355103 1.1762238 -4.355194c0.4508667 -0.019683838 0.76579285 3.2117004 1.5289612 4.2370605c0.76316833 1.0253601 2.0112915 1.7973938 3.0500488 1.9151001c1.0387573 0.11767578 2.7696533 0.30691528 3.182495 -1.2089233c0.41282654 -1.5158386 -0.54878235 -5.5122375 -0.70547485 -7.886078c-0.1566925 -2.3738403 -0.43075562 -4.316498 -0.23472595 -6.3569336c0.19604492 -2.0404053 1.1757965 -4.904724 1.4109497 -5.885681" fill-rule="evenodd"/><path fill="#cfe2f3" d="m177.87451 352.68765c-0.22877502 0.7187195 -1.1854706 2.6351929 -1.3726959 4.3123474c-0.18722534 1.6771545 -1.708664 4.1671143 0.24934387 5.7506714c1.9580078 1.5835266 5.915573 2.9588623 11.498688 3.7506409c5.5831146 0.79177856 14.291336 0.8753357 22.0 1.0c7.708664 0.12466431 18.668411 0.20648193 24.251968 -0.25198364c5.583542 -0.45843506 7.718277 -1.0822144 9.249344 -2.4986572c1.5310516 -1.4164734 -0.021438599 -4.2917786 -0.06300354 -6.0c-0.041549683 -1.708252 -0.1552887 -3.5411377 -0.18634033 -4.249359" fill-rule="evenodd"/><path stroke="#000000" stroke-width="2.0" stroke-linejoin="round" stroke-linecap="butt" d="m177.87451 352.68765c-0.22877502 0.7187195 -1.1854706 2.6351929 -1.3726959 4.3123474c-0.18722534 1.6771545 -1.708664 4.1671143 0.24934387 5.7506714c1.9580078 1.5835266 5.915573 2.9588623 11.498688 3.7506409c5.5831146 0.79177856 14.291336 0.8753357 22.0 1.0c7.708664 0.12466431 18.668411 0.20648193 24.251968 -0.25198364c5.583542 -0.45843506 7.718277 -1.0822144 9.249344 -2.4986572c1.5310516 -1.4164734 -0.021438599 -4.2917786 -0.06300354 -6.0c-0.041549683 -1.708252 -0.1552887 -3.5411377 -0.18634033 -4.249359" fill-rule="evenodd"/><path fill="#cfe2f3" d="m175.98787 358.6453c-0.12741089 3.7080994 -0.5194855 15.322845 -0.7644806 22.248566c-0.24499512 6.9256897 -0.39186096 13.184387 -0.70547485 19.305695c-0.3136139 6.121277 -1.5289612 13.733704 -1.1762238 17.42212c0.35273743 3.688385 1.6069794 3.6096191 3.292633 4.7082825c1.685669 1.0986328 3.9205322 1.4911194 6.8213196 1.8835754c2.9007874 0.39245605 7.721939 0.6282959 10.583389 0.47122192c2.8614502 -0.15707397 4.860504 -0.5895691 6.5852814 -1.4136658c1.7247772 -0.8240967 2.901001 -1.9223022 3.763382 -3.5308838c0.86239624 -1.6086121 0.47010803 0.7855835 1.4109497 -6.1206665c0.9408417 -6.9062195 3.254181 -26.684021 4.234146 -35.316772c0.9799652 -8.632721 1.3713837 -13.733063 1.6456604 -16.479675" fill-rule="evenodd"/><path stroke="#000000" stroke-width="2.0" stroke-linejoin="round" stroke-linecap="butt" d="m175.98787 358.6453c-0.12741089 3.7080994 -0.5194855 15.322845 -0.7644806 22.248566c-0.24499512 6.9256897 -0.39186096 13.184387 -0.70547485 19.305695c-0.3136139 6.121277 -1.5289612 13.733704 -1.1762238 17.42212c0.35273743 3.688385 1.6069794 3.6096191 3.292633 4.7082825c1.685669 1.0986328 3.9205322 1.4911194 6.8213196 1.8835754c2.9007874 0.39245605 7.721939 0.6282959 10.583389 0.47122192c2.8614502 -0.15707397 4.860504 -0.5895691 6.5852814 -1.4136658c1.7247772 -0.8240967 2.901001 -1.9223022 3.763382 -3.5308838c0.86239624 -1.6086121 0.47010803 0.7855835 1.4109497 -6.1206665c0.9408417 -6.9062195 3.254181 -26.684021 4.234146 -35.316772c0.9799652 -8.632721 1.3713837 -13.733063 1.6456604 -16.479675" fill-rule="evenodd"/><path fill="#cfe2f3" d="m173.34267 413.37918c-0.2351532 2.0795898 -1.1364441 7.2588806 -1.4109344 12.47757c-0.27450562 5.2186584 -0.2557068 12.928864 -0.23603821 18.834473c0.01966858 5.9055786 0.079559326 12.94986 0.35404968 16.599121c0.27449036 3.649231 0.13659668 4.0996704 1.292923 5.2963257c1.1563416 1.1966553 2.3131104 1.4519348 5.645096 1.8835754c3.3319702 0.4316101 11.054138 1.1377869 14.346771 0.70617676c3.2926483 -0.43164062 4.311508 -1.6871338 5.4090576 -3.295929c1.0975494 -1.6088257 0.9801941 -4.0025635 1.1762238 -6.3569336c0.19604492 -2.3543396 -0.35273743 -4.1593933 0 -7.7692566c0.35273743 -3.6098633 1.332489 -8.828308 2.1164246 -13.889923c0.7839203 -5.0615845 1.999054 -12.595032 2.5871582 -16.479675c0.5881195 -3.884613 0.7845917 -5.690094 0.94151306 -6.828125" fill-rule="evenodd"/><path stroke="#000000" stroke-width="2.0" stroke-linejoin="round" stroke-linecap="butt" d="m173.34267 413.37918c-0.2351532 2.0795898 -1.1364441 7.2588806 -1.4109344 12.47757c-0.27450562 5.2186584 -0.2557068 12.928864 -0.23603821 18.834473c0.01966858 5.9055786 0.079559326 12.94986 0.35404968 16.599121c0.27449036 3.649231 0.13659668 4.0996704 1.292923 5.2963257c1.1563416 1.1966553 2.3131104 1.4519348 5.645096 1.8835754c3.3319702 0.4316101 11.054138 1.1377869 14.346771 0.70617676c3.2926483 -0.43164062 4.311508 -1.6871338 5.4090576 -3.295929c1.0975494 -1.6088257 0.9801941 -4.0025635 1.1762238 -6.3569336c0.19604492 -2.3543396 -0.35273743 -4.1593933 0 -7.7692566c0.35273743 -3.6098633 1.332489 -8.828308 2.1164246 -13.889923c0.7839203 -5.0615845 1.999054 -12.595032 2.5871582 -16.479675c0.5881195 -3.884613 0.7845917 -5.690094 0.94151306 -6.828125" fill-rule="evenodd"/><path fill="#cfe2f3" d="m171.93114 459.4044c0.058792114 1.0004272 -0.27449036 3.7072144 0.35273743 6.002533c0.6272278 2.295288 2.019165 5.728821 3.4106598 7.7692566c1.3914948 2.0404358 3.3311005 3.4138489 4.9382935 4.4733276c1.6072083 1.0595093 2.35289 1.4911194 4.704895 1.883606c2.3520203 0.39245605 6.898468 0.510376 9.407166 0.47122192c2.5087128 -0.03918457 4.390625 -0.23519897 5.645096 -0.70617676c1.2544556 -0.4710083 1.7641144 -1.138916 1.8816986 -2.119873c0.11756897 -0.9809265 -0.70570374 -1.7256165 -1.1762238 -3.7658386c-0.47053528 -2.0402222 -1.450943 -6.2387695 -1.6469879 -8.475433c-0.19602966 -2.2366638 0.39230347 -4.1204834 0.47076416 -4.94458" fill-rule="evenodd"/><path stroke="#000000" stroke-width="2.0" stroke-linejoin="round" stroke-linecap="butt" d="m171.93114 459.4044c0.058792114 1.0004272 -0.27449036 3.7072144 0.35273743 6.002533c0.6272278 2.295288 2.019165 5.728821 3.4106598 7.7692566c1.3914948 2.0404358 3.3311005 3.4138489 4.9382935 4.4733276c1.6072083 1.0595093 2.35289 1.4911194 4.704895 1.883606c2.3520203 0.39245605 6.898468 0.510376 9.407166 0.47122192c2.5087128 -0.03918457 4.390625 -0.23519897 5.645096 -0.70617676c1.2544556 -0.4710083 1.7641144 -1.138916 1.8816986 -2.119873c0.11756897 -0.9809265 -0.70570374 -1.7256165 -1.1762238 -3.7658386c-0.47053528 -2.0402222 -1.450943 -6.2387695 -1.6469879 -8.475433c-0.19602966 -2.2366638 0.39230347 -4.1204834 0.47076416 -4.94458" fill-rule="evenodd"/><path fill="#cfe2f3" d="m209.80183 359.58652c0.30749512 3.736969 1.0536194 15.501556 1.844986 22.421783c0.7913513 6.9202576 2.0707397 13.026886 2.903183 19.09964c0.83244324 6.0727234 1.0575562 13.778778 2.091507 17.336792c1.0339508 3.558014 2.25148 3.2464905 4.1121826 4.0112915c1.8607178 0.764801 4.1290283 0.7335205 7.052109 0.57754517c2.9230652 -0.15597534 7.704239 -0.82473755 10.486343 -1.5134277c2.7821198 -0.68865967 4.665344 -1.4869385 6.206314 -2.6186218c1.5409851 -1.1316833 2.4918823 -2.4300537 3.039566 -4.1714478c0.5476837 -1.7413635 0.60887146 0.68408203 0.246521 -6.276825c-0.36235046 -6.9609375 -1.7346039 -26.951813 -2.4206238 -35.48874c-0.68603516 -8.536926 -1.4129181 -13.110657 -1.6954956 -15.732788" fill-rule="evenodd"/><path stroke="#000000" stroke-width="2.0" stroke-linejoin="round" stroke-linecap="butt" d="m209.80183 359.58652c0.30749512 3.736969 1.0536194 15.501556 1.844986 22.421783c0.7913513 6.9202576 2.0707397 13.026886 2.903183 19.09964c0.83244324 6.0727234 1.0575562 13.778778 2.091507 17.336792c1.0339508 3.558014 2.25148 3.2464905 4.1121826 4.0112915c1.8607178 0.764801 4.1290283 0.7335205 7.052109 0.57754517c2.9230652 -0.15597534 7.704239 -0.82473755 10.486343 -1.5134277c2.7821198 -0.68865967 4.665344 -1.4869385 6.206314 -2.6186218c1.5409851 -1.1316833 2.4918823 -2.4300537 3.039566 -4.1714478c0.5476837 -1.7413635 0.60887146 0.68408203 0.246521 -6.276825c-0.36235046 -6.9609375 -1.7346039 -26.951813 -2.4206238 -35.48874c-0.68603516 -8.536926 -1.4129181 -13.110657 -1.6954956 -15.732788" fill-rule="evenodd"/><path fill="#cfe2f3" d="m215.84416 414.27484c0.15649414 2.086914 0.23612976 7.343384 0.9389801 12.521484c0.70285034 5.1781006 2.1582031 12.749115 3.278122 18.54712c1.1199036 5.798004 2.4915314 12.707153 3.44133 16.240936c0.9497986 3.5337524 0.89823914 4.002014 2.2574615 4.96167c1.3592072 0.95965576 2.5434113 0.9944458 5.897812 0.7962036c3.3543854 -0.19821167 11.073685 -0.9465637 14.228546 -1.9854736c3.1548615 -1.0389404 3.9220123 -2.462616 4.7006226 -4.2480774c0.7786102 -1.7854614 0.2171936 -4.1151733 -0.028945923 -6.4647217c-0.24613953 -2.3495483 -1.1217499 -4.020355 -1.4479065 -7.6325684c-0.32614136 -3.6122131 -0.33598328 -8.921814 -0.5090027 -14.040741c-0.17300415 -5.118927 -0.3829956 -12.746735 -0.52908325 -16.672821c-0.14607239 -3.926117 -0.289505 -5.736511 -0.34739685 -6.8838196" fill-rule="evenodd"/><path stroke="#000000" stroke-width="2.0" stroke-linejoin="round" stroke-linecap="butt" d="m215.84416 414.27484c0.15649414 2.086914 0.23612976 7.343384 0.9389801 12.521484c0.70285034 5.1781006 2.1582031 12.749115 3.278122 18.54712c1.1199036 5.798004 2.4915314 12.707153 3.44133 16.240936c0.9497986 3.5337524 0.89823914 4.002014 2.2574615 4.96167c1.3592072 0.95965576 2.5434113 0.9944458 5.897812 0.7962036c3.3543854 -0.19821167 11.073685 -0.9465637 14.228546 -1.9854736c3.1548615 -1.0389404 3.9220123 -2.462616 4.7006226 -4.2480774c0.7786102 -1.7854614 0.2171936 -4.1151733 -0.028945923 -6.4647217c-0.24613953 -2.3495483 -1.1217499 -4.020355 -1.4479065 -7.6325684c-0.32614136 -3.6122131 -0.33598328 -8.921814 -0.5090027 -14.040741c-0.17300415 -5.118927 -0.3829956 -12.746735 -0.52908325 -16.672821c-0.14607239 -3.926117 -0.289505 -5.736511 -0.34739685 -6.8838196" fill-rule="evenodd"/><path fill="#cfe2f3" d="m223.02637 459.75754c0.24420166 0.9718323 0.4211731 3.6932373 1.4652405 5.831024c1.0440674 2.1377563 3.0516357 5.250946 4.799164 6.9956055c1.7475281 1.74469 3.909317 2.73172 5.685974 3.472412c1.7766571 0.74069214 2.589798 1.0254822 4.973984 0.97180176c2.384201 -0.05368042 6.873459 -0.78689575 9.331177 -1.2938538c2.457718 -0.5069885 4.27034 -1.0509949 5.4151764 -1.7479858c1.1448364 -0.69696045 1.5211487 -1.4483032 1.4538574 -2.4339294c-0.06726074 -0.98565674 -1.0149841 -1.5634766 -1.857544 -3.4799194c-0.8425598 -1.9164429 -2.5883484 -5.8580627 -3.1977997 -8.018738c-0.6094513 -2.1607056 -0.3824463 -4.121216 -0.45892334 -4.945465" fill-rule="evenodd"/><path stroke="#000000" stroke-width="2.0" stroke-linejoin="round" stroke-linecap="butt" d="m223.02637 459.75754c0.24420166 0.9718323 0.4211731 3.6932373 1.4652405 5.831024c1.0440674 2.1377563 3.0516357 5.250946 4.799164 6.9956055c1.7475281 1.74469 3.909317 2.73172 5.685974 3.472412c1.7766571 0.74069214 2.589798 1.0254822 4.973984 0.97180176c2.384201 -0.05368042 6.873459 -0.78689575 9.331177 -1.2938538c2.457718 -0.5069885 4.27034 -1.0509949 5.4151764 -1.7479858c1.1448364 -0.69696045 1.5211487 -1.4483032 1.4538574 -2.4339294c-0.06726074 -0.98565674 -1.0149841 -1.5634766 -1.857544 -3.4799194c-0.8425598 -1.9164429 -2.5883484 -5.8580627 -3.1977997 -8.018738c-0.6094513 -2.1607056 -0.3824463 -4.121216 -0.45892334 -4.945465" fill-rule="evenodd"/><path fill="#cfe2f3" d="m215.95866 133.82422c-4.138321 -0.13276672 -16.711227 -0.84085083 -24.829865 -0.79660034c-8.118637 0.044265747 -18.679977 -1.4111786 -23.881927 1.0621338c-5.20195 2.4733276 -7.053879 9.627121 -7.329788 13.777771c-0.27592468 4.1506653 1.693924 9.183319 5.67424 11.12619c3.9803314 1.9428711 13.517517 0.4868164 18.207672 0.5310669c4.6901703 0.04425049 5.755478 -1.5021973 9.933289 -0.26553345c4.1777954 1.2366638 12.177948 5.8305054 15.13356 7.685486c2.9556122 1.8549805 2.0093536 3.7978668 2.6001434 3.4444427c0.5907898 -0.35342407 0.94459534 -3.974884 0.94459534 -5.5649567c0 -1.5900879 -1.7328796 -3.6663513 -0.94459534 -3.9755096c0.78826904 -0.30917358 3.5069122 0.7074585 5.6742554 2.120514c2.1673431 1.4130554 4.885971 6.534851 7.329788 6.3578186c2.4438324 -0.17701721 5.3226776 -5.741974 7.333145 -7.4199524c2.0104675 -1.6779633 3.9808807 -3.2661743 4.729645 -2.6478424c0.7487793 0.6183319 -0.31541443 4.8119965 -0.236969 6.3578186c0.078430176 1.5458221 -0.47453308 3.5354462 0.7076111 2.9171295c1.1821289 -0.6183319 3.6660004 -4.683609 6.385193 -6.6271057c2.7191925 -1.9434967 5.713196 -3.6208344 9.929947 -5.03389c4.216736 -1.4130554 12.059998 -1.1045227 15.370544 -3.4444427c3.3105469 -2.3399353 5.280945 -7.592621 4.492676 -10.595123c-0.78826904 -3.0025177 -4.0598755 -5.9183807 -9.222321 -7.4199524c-5.1624756 -1.5015717 -18.127014 -1.3245544 -21.752426 -1.5894623" fill-rule="evenodd"/><path stroke="#000000" stroke-width="2.0" stroke-linejoin="round" stroke-linecap="butt" d="m215.95866 133.82422c-4.138321 -0.13276672 -16.711227 -0.84085083 -24.829865 -0.79660034c-8.118637 0.044265747 -18.679977 -1.4111786 -23.881927 1.0621338c-5.20195 2.4733276 -7.053879 9.627121 -7.329788 13.777771c-0.27592468 4.1506653 1.693924 9.183319 5.67424 11.12619c3.9803314 1.9428711 13.517517 0.4868164 18.207672 0.5310669c4.6901703 0.04425049 5.755478 -1.5021973 9.933289 -0.26553345c4.1777954 1.2366638 12.177948 5.8305054 15.13356 7.685486c2.9556122 1.8549805 2.0093536 3.7978668 2.6001434 3.4444427c0.5907898 -0.35342407 0.94459534 -3.974884 0.94459534 -5.5649567c0 -1.5900879 -1.7328796 -3.6663513 -0.94459534 -3.9755096c0.78826904 -0.30917358 3.5069122 0.7074585 5.6742554 2.120514c2.1673431 1.4130554 4.885971 6.534851 7.329788 6.3578186c2.4438324 -0.17701721 5.3226776 -5.741974 7.333145 -7.4199524c2.0104675 -1.6779633 3.9808807 -3.2661743 4.729645 -2.6478424c0.7487793 0.6183319 -0.31541443 4.8119965 -0.236969 6.3578186c0.078430176 1.5458221 -0.47453308 3.5354462 0.7076111 2.9171295c1.1821289 -0.6183319 3.6660004 -4.683609 6.385193 -6.6271057c2.7191925 -1.9434967 5.713196 -3.6208344 9.929947 -5.03389c4.216736 -1.4130554 12.059998 -1.1045227 15.370544 -3.4444427c3.3105469 -2.3399353 5.280945 -7.592621 4.492676 -10.595123c-0.78826904 -3.0025177 -4.0598755 -5.9183807 -9.222321 -7.4199524c-5.1624756 -1.5015717 -18.127014 -1.3245544 -21.752426 -1.5894623" fill-rule="evenodd"/><path fill="#cfe2f3" d="m206.97127 160.84784c1.7734833 0.6177063 -4.2979736 -3.754242 -7.096161 -5.2994385c-2.7981873 -1.5451965 -6.5009155 -2.6029663 -9.692947 -3.9717712c-3.192047 -1.3688049 -8.592041 -2.4745636 -9.45932 -4.241043c-0.8672638 -1.7664795 1.2605743 -6.4905853 4.2556915 -6.3578186c2.9951172 0.13276672 9.734116 4.9908905 13.714996 7.154419c3.9808807 2.1635284 7.923935 4.193054 10.170273 5.8267517c2.2463226 1.6337128 3.1503143 3.9312592 3.3077545 3.9755096c0.15742493 0.044265747 -0.70817566 -2.4733124 -2.3631592 -3.7099762c-1.6549988 -1.2366486 -5.0050354 -2.4296722 -7.5667877 -3.7099762c-2.5617523 -1.2802887 -6.897003 -2.2937927 -7.803772 -3.971756c-0.9067688 -1.6779785 -1.1837921 -5.786865 2.3631592 -6.096039c3.5469666 -0.30915833 14.03154 2.695221 18.918625 4.241043c4.8871 1.5458221 5.0834656 5.7849884 10.403915 5.033905c5.32045 -0.75109863 16.868103 -8.568726 21.518768 -9.540482c4.65065 -0.9717407 6.8975525 2.2084198 6.385193 3.7099762c-0.51234436 1.5015717 -6.5036926 3.179535 -9.459305 5.2994385c-2.9556274 2.1198883 -8.037964 7.199295 -8.274399 7.4199524c-0.23641968 0.22065735 3.9397125 -4.0646515 6.855835 -6.096039c2.9161224 -2.0313873 8.276062 -5.8273773 10.640884 -6.092285c2.3648224 -0.26490784 3.98143 3.4432068 3.5480804 4.502838c-0.4333496 1.0596313 -4.295746 1.060257 -6.148224 1.8549805c-1.8524628 0.79473877 -3.114151 1.6767273 -4.966629 2.913391c-1.852478 1.2366486 -6.108719 4.5502014 -6.148224 4.5065613c-0.039489746 -0.043624878 3.1130524 -3.3110504 5.9112396 -4.7683563c2.7981873 -1.4573212 7.8037567 -3.224411 10.877869 -3.9755096c3.0741272 -0.75109863 7.8032227 1.9858856 7.5667725 -0.5310669c-0.23641968 -2.5169525 -4.8470154 -12.804153 -8.985336 -14.570633c-4.1383057 -1.7664795 -11.430283 2.1616516 -15.844513 3.9717712c-4.4142303 1.8101044 -6.9759827 6.1820374 -10.640884 6.8888855c-3.6649017 0.7068329 -6.89534 -1.1026459 -11.348511 -2.6478424c-4.453171 -1.5452118 -10.601944 -5.3424377 -15.370544 -6.623352c-4.7686005 -1.2809143 -8.8267975 -1.5919495 -13.241028 -1.0621338c-4.4142456 0.5298157 -11.4709015 1.1936493 -13.244385 4.241043c-1.773468 3.0473785 0.35714722 11.923401 2.603485 14.043304c2.246338 2.1198883 6.105942 -2.6042175 10.874542 -1.3239288c4.7686005 1.2802887 15.963562 8.38797 17.737045 9.005676z" fill-rule="evenodd"/><path stroke="#000000" stroke-width="2.0" stroke-linejoin="round" stroke-linecap="butt" d="m206.97127 160.84784c1.7734833 0.6177063 -4.2979736 -3.754242 -7.096161 -5.2994385c-2.7981873 -1.5451965 -6.5009155 -2.6029663 -9.692947 -3.9717712c-3.192047 -1.3688049 -8.592041 -2.4745636 -9.45932 -4.241043c-0.8672638 -1.7664795 1.2605743 -6.4905853 4.2556915 -6.3578186c2.9951172 0.13276672 9.734116 4.9908905 13.714996 7.154419c3.9808807 2.1635284 7.923935 4.193054 10.170273 5.8267517c2.2463226 1.6337128 3.1503143 3.9312592 3.3077545 3.9755096c0.15742493 0.044265747 -0.70817566 -2.4733124 -2.3631592 -3.7099762c-1.6549988 -1.2366486 -5.0050354 -2.4296722 -7.5667877 -3.7099762c-2.5617523 -1.2802887 -6.897003 -2.2937927 -7.803772 -3.971756c-0.9067688 -1.6779785 -1.1837921 -5.786865 2.3631592 -6.096039c3.5469666 -0.30915833 14.03154 2.695221 18.918625 4.241043c4.8871 1.5458221 5.0834656 5.7849884 10.403915 5.033905c5.32045 -0.75109863 16.868103 -8.568726 21.518768 -9.540482c4.65065 -0.9717407 6.8975525 2.2084198 6.385193 3.7099762c-0.51234436 1.5015717 -6.5036926 3.179535 -9.459305 5.2994385c-2.9556274 2.1198883 -8.037964 7.199295 -8.274399 7.4199524c-0.23641968 0.22065735 3.9397125 -4.0646515 6.855835 -6.096039c2.9161224 -2.0313873 8.276062 -5.8273773 10.640884 -6.092285c2.3648224 -0.26490784 3.98143 3.4432068 3.5480804 4.502838c-0.4333496 1.0596313 -4.295746 1.060257 -6.148224 1.8549805c-1.8524628 0.79473877 -3.114151 1.6767273 -4.966629 2.913391c-1.852478 1.2366486 -6.108719 4.5502014 -6.148224 4.5065613c-0.039489746 -0.043624878 3.1130524 -3.3110504 5.9112396 -4.7683563c2.7981873 -1.4573212 7.8037567 -3.224411 10.877869 -3.9755096c3.0741272 -0.75109863 7.8032227 1.9858856 7.5667725 -0.5310669c-0.23641968 -2.5169525 -4.8470154 -12.804153 -8.985336 -14.570633c-4.1383057 -1.7664795 -11.430283 2.1616516 -15.844513 3.9717712c-4.4142303 1.8101044 -6.9759827 6.1820374 -10.640884 6.8888855c-3.6649017 0.7068329 -6.89534 -1.1026459 -11.348511 -2.6478424c-4.453171 -1.5452118 -10.601944 -5.3424377 -15.370544 -6.623352c-4.7686005 -1.2809143 -8.8267975 -1.5919495 -13.241028 -1.0621338c-4.4142456 0.5298157 -11.4709015 1.1936493 -13.244385 4.241043c-1.773468 3.0473785 0.35714722 11.923401 2.603485 14.043304c2.246338 2.1198883 6.105942 -2.6042175 10.874542 -1.3239288c4.7686005 1.2802887 15.963562 8.38797 17.737045 9.005676z" fill-rule="evenodd"/><path fill="#cfe2f3" d="m227.07338 142.57048c-1.9704132 -0.66197205 -5.084015 -5.3418274 -7.803772 -7.947281c-2.7197418 -2.6054688 -5.7949677 -5.7862396 -8.514709 -7.685486c-2.7197418 -1.8992462 -5.0845795 -2.5618286 -7.803772 -3.7099762c-2.7191772 -1.1481476 -5.67424 -2.2956696 -8.511368 -3.1789093c-2.8371277 -0.88323975 -5.9101257 -1.6349564 -8.511383 -2.1205215c-2.6012573 -0.4855652 -4.2584686 -1.0583954 -7.0961456 -0.79286194c-2.8376923 0.26553345 -6.855835 1.1493988 -9.929947 2.386055c-3.074112 1.2366562 -5.9134674 2.7382278 -8.514709 5.0338974c-2.6012573 2.2956772 -5.2014008 5.9140244 -7.092819 8.740135c-1.8914185 2.8261108 -3.0735626 4.418686 -4.2556915 8.216553c-1.1821289 3.7978668 -1.9698486 8.697754 -2.8371277 14.570633c-0.8672638 5.872879 -1.9720764 13.7335205 -2.3665009 20.666656c-0.39440918 6.933136 -0.31541443 14.131821 0 20.93219c0.3154297 6.8003845 0.67089844 13.113937 1.8925323 19.870071c1.2216339 6.756119 3.2304382 14.440353 5.437271 20.666656c2.206833 6.226303 4.7686005 11.303833 7.803772 16.691147c3.0351562 5.387314 7.6875 12.629623 10.407242 15.632767c2.7197418 3.0031433 5.3599396 4.991516 5.9112396 2.3860474c0.5512848 -2.6054688 -1.7362213 -11.6597595 -2.603485 -18.018814c-0.86727905 -6.35907 -1.9303589 -12.849655 -2.6001434 -20.13559c-0.66978455 -7.2859497 -1.1426392 -15.18959 -1.4185638 -23.580048c-0.27592468 -8.390442 -0.51290894 -19.299728 -0.23698425 -26.76268c0.27592468 -7.462967 1.1832428 -13.025436 1.8925323 -18.015076c0.7092743 -4.9896393 2.560089 -13.026672 2.3631592 -11.922791c-0.19692993 1.1038971 -2.7959595 12.451981 -3.5447388 18.546143c-0.7487793 6.094162 -0.98742676 11.968918 -0.947937 18.018814c0.039505005 6.0498962 0.6330719 13.77652 1.1849213 18.28061c0.55184937 4.504074 0.74710083 5.8735046 2.126175 8.743866c1.3790588 2.8703766 5.241455 9.847153 6.148224 8.478348c0.9067688 -1.3688049 -0.5896759 -10.906158 -0.70762634 -16.691147c-0.11793518 -5.7850037 -0.3148651 -10.909271 0 -18.018814c0.31488037 -7.109543 0.51013184 -18.058716 1.8892059 -24.638428c1.3790588 -6.579727 3.5475159 -11.306961 6.385193 -14.839905c2.8376923 -3.532959 7.093933 -5.739502 10.6409 -6.3578186c3.5469513 -0.6183319 7.4877777 1.323288 10.640884 2.6478424c3.1531067 1.3245392 5.440048 2.3405457 8.2777405 5.299423c2.837677 2.9588776 6.0291595 11.658508 8.748352 12.453857c2.7191925 0.7953491 5.00502 -4.9441376 7.5667877 -7.6817474c2.5617523 -2.7376099 5.2420044 -6.668228 7.8037567 -8.743881c2.5617676 -2.0756378 4.9655304 -4.0627594 7.5667877 -3.709961c2.6012573 0.3527832 5.6759186 1.4990692 8.040756 5.8267517c2.3648071 4.3276825 4.611725 14.310089 6.148224 20.139328c1.536499 5.829254 2.2435303 8.874771 3.0707703 14.836166c0.8272095 5.9613953 1.5375977 15.2357025 1.8925171 20.93219c0.35491943 5.6964874 -0.5907898 12.451981 0.23699951 13.246719c0.8277588 0.7947235 3.3895264 -5.166046 4.729645 -8.478348c1.3401184 -3.3123016 2.8777466 -7.11203 3.3110962 -11.395462c0.4333496 -4.283432 -0.35604858 -9.448227 -0.710968 -14.3050995c-0.35491943 -4.8568726 -0.70925903 -10.419968 -1.4185486 -14.836166c-0.70928955 -4.4161835 -2.8766174 -11.70462 -2.8371277 -11.6609955c0.039489746 0.043640137 2.246338 6.491211 3.0740967 11.922791c0.8277893 5.4315796 1.6561279 13.512863 1.8925476 20.666656c0.23641968 7.1537933 -0.23754883 16.47113 -0.4739685 22.256119c-0.23641968 5.7849884 -0.31430054 6.889511 -0.9446106 12.453857c-0.63027954 5.564331 -1.0636292 13.204315 -2.8371277 20.93219c-1.773468 7.7278595 -8.513031 23.2715 -7.8037415 25.435013c0.70925903 2.1635437 8.788391 -7.684845 12.059448 -12.453827c3.2710266 -4.7690125 5.3599243 -10.817032 7.5667725 -16.160095c2.2068481 -5.3430634 4.058777 -9.892654 5.6742554 -15.8983c1.6154785 -6.0056458 3.1119385 -12.981796 4.0187073 -20.13559c0.9067688 -7.1537933 1.3824158 -16.251724 1.4219055 -22.787186c0.039489746 -6.5354614 -0.71151733 -11.612366 -1.1849365 -16.425613c-0.47338867 -4.8132477 -0.5918884 -7.375702 -1.6555481 -12.453857c-1.0636292 -5.0781555 -2.9528198 -13.510986 -4.7263184 -18.015076c-1.773468 -4.504074 -3.5497437 -6.4918365 -5.914551 -9.009399c-2.3648376 -2.5175781 -5.476227 -4.594467 -8.274414 -6.096031c-2.7981873 -1.5015717 -5.834442 -2.6042175 -8.514709 -2.9133759c-2.6802368 -0.30916595 -5.1235046 0.44005585 -7.5667725 1.0583878c-2.4432678 0.6183319 -4.334137 1.0615082 -7.092819 2.6515884c-2.7586823 1.5900726 -6.7006226 4.7253494 -9.459305 6.888878c-2.7586975 2.1635284 -5.240906 4.414322 -7.092819 6.0923004c-1.8519287 1.6779633 -2.048294 4.6374664 -4.0187073 3.9755096z" fill-rule="evenodd"/><path stroke="#000000" stroke-width="2.0" stroke-linejoin="round" stroke-linecap="butt" d="m227.07338 142.57048c-1.9704132 -0.66197205 -5.084015 -5.3418274 -7.803772 -7.947281c-2.7197418 -2.6054688 -5.7949677 -5.7862396 -8.514709 -7.685486c-2.7197418 -1.8992462 -5.0845795 -2.5618286 -7.803772 -3.7099762c-2.7191772 -1.1481476 -5.67424 -2.2956696 -8.511368 -3.1789093c-2.8371277 -0.88323975 -5.9101257 -1.6349564 -8.511383 -2.1205215c-2.6012573 -0.4855652 -4.2584686 -1.0583954 -7.0961456 -0.79286194c-2.8376923 0.26553345 -6.855835 1.1493988 -9.929947 2.386055c-3.074112 1.2366562 -5.9134674 2.7382278 -8.514709 5.0338974c-2.6012573 2.2956772 -5.2014008 5.9140244 -7.092819 8.740135c-1.8914185 2.8261108 -3.0735626 4.418686 -4.2556915 8.216553c-1.1821289 3.7978668 -1.9698486 8.697754 -2.8371277 14.570633c-0.8672638 5.872879 -1.9720764 13.7335205 -2.3665009 20.666656c-0.39440918 6.933136 -0.31541443 14.131821 0 20.93219c0.3154297 6.8003845 0.67089844 13.113937 1.8925323 19.870071c1.2216339 6.756119 3.2304382 14.440353 5.437271 20.666656c2.206833 6.226303 4.7686005 11.303833 7.803772 16.691147c3.0351562 5.387314 7.6875 12.629623 10.407242 15.632767c2.7197418 3.0031433 5.3599396 4.991516 5.9112396 2.3860474c0.5512848 -2.6054688 -1.7362213 -11.6597595 -2.603485 -18.018814c-0.86727905 -6.35907 -1.9303589 -12.849655 -2.6001434 -20.13559c-0.66978455 -7.2859497 -1.1426392 -15.18959 -1.4185638 -23.580048c-0.27592468 -8.390442 -0.51290894 -19.299728 -0.23698425 -26.76268c0.27592468 -7.462967 1.1832428 -13.025436 1.8925323 -18.015076c0.7092743 -4.9896393 2.560089 -13.026672 2.3631592 -11.922791c-0.19692993 1.1038971 -2.7959595 12.451981 -3.5447388 18.546143c-0.7487793 6.094162 -0.98742676 11.968918 -0.947937 18.018814c0.039505005 6.0498962 0.6330719 13.77652 1.1849213 18.28061c0.55184937 4.504074 0.74710083 5.8735046 2.126175 8.743866c1.3790588 2.8703766 5.241455 9.847153 6.148224 8.478348c0.9067688 -1.3688049 -0.5896759 -10.906158 -0.70762634 -16.691147c-0.11793518 -5.7850037 -0.3148651 -10.909271 0 -18.018814c0.31488037 -7.109543 0.51013184 -18.058716 1.8892059 -24.638428c1.3790588 -6.579727 3.5475159 -11.306961 6.385193 -14.839905c2.8376923 -3.532959 7.093933 -5.739502 10.6409 -6.3578186c3.5469513 -0.6183319 7.4877777 1.323288 10.640884 2.6478424c3.1531067 1.3245392 5.440048 2.3405457 8.2777405 5.299423c2.837677 2.9588776 6.0291595 11.658508 8.748352 12.453857c2.7191925 0.7953491 5.00502 -4.9441376 7.5667877 -7.6817474c2.5617523 -2.7376099 5.2420044 -6.668228 7.8037567 -8.743881c2.5617676 -2.0756378 4.9655304 -4.0627594 7.5667877 -3.709961c2.6012573 0.3527832 5.6759186 1.4990692 8.040756 5.8267517c2.3648071 4.3276825 4.611725 14.310089 6.148224 20.139328c1.536499 5.829254 2.2435303 8.874771 3.0707703 14.836166c0.8272095 5.9613953 1.5375977 15.2357025 1.8925171 20.93219c0.35491943 5.6964874 -0.5907898 12.451981 0.23699951 13.246719c0.8277588 0.7947235 3.3895264 -5.166046 4.729645 -8.478348c1.3401184 -3.3123016 2.8777466 -7.11203 3.3110962 -11.395462c0.4333496 -4.283432 -0.35604858 -9.448227 -0.710968 -14.3050995c-0.35491943 -4.8568726 -0.70925903 -10.419968 -1.4185486 -14.836166c-0.70928955 -4.4161835 -2.8766174 -11.70462 -2.8371277 -11.6609955c0.039489746 0.043640137 2.246338 6.491211 3.0740967 11.922791c0.8277893 5.4315796 1.6561279 13.512863 1.8925476 20.666656c0.23641968 7.1537933 -0.23754883 16.47113 -0.4739685 22.256119c-0.23641968 5.7849884 -0.31430054 6.889511 -0.9446106 12.453857c-0.63027954 5.564331 -1.0636292 13.204315 -2.8371277 20.93219c-1.773468 7.7278595 -8.513031 23.2715 -7.8037415 25.435013c0.70925903 2.1635437 8.788391 -7.684845 12.059448 -12.453827c3.2710266 -4.7690125 5.3599243 -10.817032 7.5667725 -16.160095c2.2068481 -5.3430634 4.058777 -9.892654 5.6742554 -15.8983c1.6154785 -6.0056458 3.1119385 -12.981796 4.0187073 -20.13559c0.9067688 -7.1537933 1.3824158 -16.251724 1.4219055 -22.787186c0.039489746 -6.5354614 -0.71151733 -11.612366 -1.1849365 -16.425613c-0.47338867 -4.8132477 -0.5918884 -7.375702 -1.6555481 -12.453857c-1.0636292 -5.0781555 -2.9528198 -13.510986 -4.7263184 -18.015076c-1.773468 -4.504074 -3.5497437 -6.4918365 -5.914551 -9.009399c-2.3648376 -2.5175781 -5.476227 -4.594467 -8.274414 -6.096031c-2.7981873 -1.5015717 -5.834442 -2.6042175 -8.514709 -2.9133759c-2.6802368 -0.30916595 -5.1235046 0.44005585 -7.5667725 1.0583878c-2.4432678 0.6183319 -4.334137 1.0615082 -7.092819 2.6515884c-2.7586823 1.5900726 -6.7006226 4.7253494 -9.459305 6.888878c-2.7586975 2.1635284 -5.240906 4.414322 -7.092819 6.0923004c-1.8519287 1.6779633 -2.048294 4.6374664 -4.0187073 3.9755096z" fill-rule="evenodd"/></g></svg>