<svg version="1.1" viewBox="0.0 0.0 424.6955380577428 584.6062992125984" fill="none" stroke="none" stroke-linecap="square" stroke-miterlimit="10" xmlns:xlink="http://www.w3.org/1999/xlink" xmlns="http://www.w3.org/2000/svg"><clipPath id="p.0"><path d="m0 0l424.69553 0l0 584.6063l-424.69553 0l0 -584.6063z" clip-rule="nonzero"/></clipPath><g clip-path="url(#p.0)"><path fill="#000000" fill-opacity="0.0" d="m0 0l424.69553 0l0 584.6063l-424.69553 0z" fill-rule="evenodd"/><path fill="#cfe2f3" d="m174.66191 143.90414c3.3192902 -0.6716461 5.238327 -3.7526855 6.5353546 -7.0566406c1.2970123 -3.3039398 1.6609955 -8.342712 1.2467651 -12.767036c-0.41423035 -4.424324 -2.0725098 -10.08194 -3.7321625 -13.7789c-1.6596375 -3.6969528 -3.7348633 -6.049164 -6.2256927 -8.40284c-2.4908142 -2.3536758 -4.879776 -5.0461044 -8.719238 -5.7192154c-3.839447 -0.67310333 -11.205978 0.5601883 -14.317474 1.6805725c-3.1114807 1.1203766 -2.8480072 2.9123993 -4.351471 5.0417023c-1.5034485 2.1293106 -4.150467 4.8202667 -4.6692657 7.7341385c-0.5188141 2.9138641 -0.3110199 6.165016 1.556427 9.749054c1.8674316 3.5840378 6.432129 8.339783 9.648193 11.755173c3.2160645 3.4154053 5.8101044 6.776535 9.648209 8.737198c3.838089 1.9606628 10.061066 3.6984253 13.380356 3.0267944z" fill-rule="evenodd"/><path stroke="#000000" stroke-width="1.0" stroke-linejoin="round" stroke-linecap="butt" d="m174.66191 143.90414c3.3192902 -0.6716461 5.238327 -3.7526855 6.5353546 -7.0566406c1.2970123 -3.3039398 1.6609955 -8.342712 1.2467651 -12.767036c-0.41423035 -4.424324 -2.0725098 -10.08194 -3.7321625 -13.7789c-1.6596375 -3.6969528 -3.7348633 -6.049164 -6.2256927 -8.40284c-2.4908142 -2.3536758 -4.879776 -5.0461044 -8.719238 -5.7192154c-3.839447 -0.67310333 -11.205978 0.5601883 -14.317474 1.6805725c-3.1114807 1.1203766 -2.8480072 2.9123993 -4.351471 5.0417023c-1.5034485 2.1293106 -4.150467 4.8202667 -4.6692657 7.7341385c-0.5188141 2.9138641 -0.3110199 6.165016 1.556427 9.749054c1.8674316 3.5840378 6.432129 8.339783 9.648193 11.755173c3.2160645 3.4154053 5.8101044 6.776535 9.648209 8.737198c3.838089 1.9606628 10.061066 3.6984253 13.380356 3.0267944z" fill-rule="evenodd"/><path fill="#cfe2f3" d="m137.62558 162.05347c-1.712616 2.4079437 -7.059601 8.454178 -10.275658 14.447617c-3.216072 5.9934387 -7.1017 14.454941 -9.020744 21.513031c-1.9190445 7.05809 -1.6107483 12.209778 -2.493538 20.835526c-0.8827896 8.625748 -2.4405746 19.940994 -2.8031921 30.918945c-0.36262512 10.977966 1.301094 25.314117 0.62745667 34.94879c-0.6736374 9.634674 -2.1268463 16.136963 -4.6692734 22.859253c-2.5424347 6.7222595 -6.486458 13.49881 -10.5853195 17.474396c-4.098854 3.975586 -9.494728 6.323395 -14.00782 6.37912c-4.5130844 0.055725098 -10.373444 -2.5164795 -13.070702 -6.0447693c-2.697258 -3.5283203 -2.801834 -9.580414 -3.1128464 -15.125122c-0.3110199 -5.5447083 -0.93304443 -12.318298 1.2467651 -18.143097c2.1798096 -5.8247986 5.249199 -11.692139 11.832085 -16.805695c6.5828857 -5.113556 22.569511 -11.423767 27.665245 -13.875671c5.095726 -2.4519348 2.3848877 1.6130981 2.9091263 -0.835907c0.5242386 -2.4489746 0.7863617 -11.134857 0.23631287 -13.858078c-0.5500412 -2.723236 0.9248886 -3.5459137 -3.536583 -2.4812622c-4.461479 1.0646515 -16.300354 5.318863 -23.232285 8.869171c-6.9319305 3.5503082 -12.705368 7.6725616 -18.359291 12.4326935c-5.653923 4.760132 -12.19199 9.79892 -15.564243 16.128174c-3.3722534 6.329254 -4.8241005 14.509216 -4.6692734 21.847382c0.15482712 7.338196 1.396164 15.739563 5.59824 22.181763c4.202072 6.442169 12.50708 13.054474 19.614204 16.471313c7.107132 3.41687 15.247803 4.4228516 23.028564 4.029846c7.7807617 -0.39300537 16.756691 -1.5148621 23.656021 -6.387909c6.89933 -4.8730774 13.070702 -13.944611 17.739983 -22.850464c4.6692657 -8.905823 8.511444 -20.894165 10.27565 -30.584564c1.7642212 -9.690399 0.30966187 -20.444 0.30966187 -27.5578c0 -7.1138306 -0.28112793 -6.165039 -0.30966187 -15.125137c-0.028518677 -8.960098 0.035324097 -38.804108 0.13853455 -38.635468c0.10322571 0.16864014 0.48078918 32.070114 0.48078918 39.64734c0 7.5772247 -0.6274719 3.0663757 -0.48078918 5.8159943c0.14668274 2.7496185 -1.3649292 8.458557 1.3608551 10.681732c2.7257843 2.2231445 8.91481 -0.026397705 14.99382 2.6572266c6.0790253 2.6836243 15.255951 8.0112915 21.480286 13.44455c6.22435 5.433258 11.716644 11.649597 15.865753 19.154968c4.149109 7.505371 7.991272 17.19577 9.0289 25.877228c1.0376129 8.6814575 -0.6763611 19.377869 -2.8031921 26.211578c-2.1268463 6.83374 -10.21727 12.214203 -9.9578705 14.7907715c0.25941467 2.5765686 6.430786 3.0766296 11.514282 0.6687012c5.0835114 -2.4079285 14.6800995 -8.675598 18.986755 -15.1163025c4.306656 -6.440735 6.4891815 -16.63852 6.8531494 -23.527954c0.36398315 -6.8894653 -2.126831 -11.366577 -4.6692657 -17.808746c-2.5424347 -6.4421997 -6.1754456 -14.402161 -10.585312 -20.84433c-4.4098816 -6.4421997 -11.568619 -13.328705 -15.873901 -17.808746c-4.305298 -4.480072 -5.185364 -5.6546936 -9.957855 -9.071564c-4.7724915 -3.41687 -11.132645 -8.621338 -18.677094 -11.429626c-7.544449 -2.8082733 -22.158005 -4.5167084 -26.5896 -5.420044" fill-rule="evenodd"/><path stroke="#000000" stroke-width="1.0" stroke-linejoin="round" stroke-linecap="butt" d="m137.62558 162.05347c-1.712616 2.4079437 -7.059601 8.454178 -10.275658 14.447617c-3.216072 5.9934387 -7.1017 14.454941 -9.020744 21.513031c-1.9190445 7.05809 -1.6107483 12.209778 -2.493538 20.835526c-0.8827896 8.625748 -2.4405746 19.940994 -2.8031921 30.918945c-0.36262512 10.977966 1.301094 25.314117 0.62745667 34.94879c-0.6736374 9.634674 -2.1268463 16.136963 -4.6692734 22.859253c-2.5424347 6.7222595 -6.486458 13.49881 -10.5853195 17.474396c-4.098854 3.975586 -9.494728 6.323395 -14.00782 6.37912c-4.5130844 0.055725098 -10.373444 -2.5164795 -13.070702 -6.0447693c-2.697258 -3.5283203 -2.801834 -9.580414 -3.1128464 -15.125122c-0.3110199 -5.5447083 -0.93304443 -12.318298 1.2467651 -18.143097c2.1798096 -5.8247986 5.249199 -11.692139 11.832085 -16.805695c6.5828857 -5.113556 22.569511 -11.423767 27.665245 -13.875671c5.095726 -2.4519348 2.3848877 1.6130981 2.9091263 -0.835907c0.5242386 -2.4489746 0.7863617 -11.134857 0.23631287 -13.858078c-0.5500412 -2.723236 0.9248886 -3.5459137 -3.536583 -2.4812622c-4.461479 1.0646515 -16.300354 5.318863 -23.232285 8.869171c-6.9319305 3.5503082 -12.705368 7.6725616 -18.359291 12.4326935c-5.653923 4.760132 -12.19199 9.79892 -15.564243 16.128174c-3.3722534 6.329254 -4.8241005 14.509216 -4.6692734 21.847382c0.15482712 7.338196 1.396164 15.739563 5.59824 22.181763c4.202072 6.442169 12.50708 13.054474 19.614204 16.471313c7.107132 3.41687 15.247803 4.4228516 23.028564 4.029846c7.7807617 -0.39300537 16.756691 -1.5148621 23.656021 -6.387909c6.89933 -4.8730774 13.070702 -13.944611 17.739983 -22.850464c4.6692657 -8.905823 8.511444 -20.894165 10.27565 -30.584564c1.7642212 -9.690399 0.30966187 -20.444 0.30966187 -27.5578c0 -7.1138306 -0.28112793 -6.165039 -0.30966187 -15.125137c-0.028518677 -8.960098 0.035324097 -38.804108 0.13853455 -38.635468c0.10322571 0.16864014 0.48078918 32.070114 0.48078918 39.64734c0 7.5772247 -0.6274719 3.0663757 -0.48078918 5.8159943c0.14668274 2.7496185 -1.3649292 8.458557 1.3608551 10.681732c2.7257843 2.2231445 8.91481 -0.026397705 14.99382 2.6572266c6.0790253 2.6836243 15.255951 8.0112915 21.480286 13.44455c6.22435 5.433258 11.716644 11.649597 15.865753 19.154968c4.149109 7.505371 7.991272 17.19577 9.0289 25.877228c1.0376129 8.6814575 -0.6763611 19.377869 -2.8031921 26.211578c-2.1268463 6.83374 -10.21727 12.214203 -9.9578705 14.7907715c0.25941467 2.5765686 6.430786 3.0766296 11.514282 0.6687012c5.0835114 -2.4079285 14.6800995 -8.675598 18.986755 -15.1163025c4.306656 -6.440735 6.4891815 -16.63852 6.8531494 -23.527954c0.36398315 -6.8894653 -2.126831 -11.366577 -4.6692657 -17.808746c-2.5424347 -6.4421997 -6.1754456 -14.402161 -10.585312 -20.84433c-4.4098816 -6.4421997 -11.568619 -13.328705 -15.873901 -17.808746c-4.305298 -4.480072 -5.185364 -5.6546936 -9.957855 -9.071564c-4.7724915 -3.41687 -11.132645 -8.621338 -18.677094 -11.429626c-7.544449 -2.8082733 -22.158005 -4.5167084 -26.5896 -5.420044" fill-rule="evenodd"/><path fill="#cfe2f3" d="m153.50316 135.84116c-6.6915283 -1.289032 -13.27713 -3.1983643 -19.606049 -4.0386505c-6.3289185 -0.84028625 -13.801384 -1.3388824 -18.36744 -1.003067c-4.5660553 0.3358307 -7.109848 0.9458771 -9.0288925 3.01799c-1.9190521 2.072113 -2.7447968 4.988907 -2.4853897 9.414703c0.2593994 4.4257812 2.693184 12.155518 4.041809 17.14003c1.3486328 4.9845276 3.3749695 8.678543 4.049965 12.767044c0.6749954 4.088501 -0.5704193 8.402847 0 11.763977c0.5704193 3.361145 1.3472748 7.338196 3.4225082 8.402847c2.0752258 1.0646515 5.137825 0.22583008 9.028885 -2.014923c3.8910599 -2.2407532 9.182365 -7.676941 14.317482 -11.429626c5.1351166 -3.7526855 11.306488 -7.389511 16.49321 -11.086472c5.186722 -3.6969604 11.359451 -7.734131 14.627121 -11.095276c3.267685 -3.3611298 4.30394 -6.047699 4.9789276 -9.071548c0.67500305 -3.0238495 2.6497345 -6.9437103 -0.9289551 -9.071548c-3.5786896 -2.1278381 -13.851639 -2.4064636 -20.543182 -3.6954803z" fill-rule="evenodd"/><path stroke="#000000" stroke-width="1.0" stroke-linejoin="round" stroke-linecap="butt" d="m153.50316 135.84116c-6.6915283 -1.289032 -13.27713 -3.1983643 -19.606049 -4.0386505c-6.3289185 -0.84028625 -13.801384 -1.3388824 -18.36744 -1.003067c-4.5660553 0.3358307 -7.109848 0.9458771 -9.0288925 3.01799c-1.9190521 2.072113 -2.7447968 4.988907 -2.4853897 9.414703c0.2593994 4.4257812 2.693184 12.155518 4.041809 17.14003c1.3486328 4.9845276 3.3749695 8.678543 4.049965 12.767044c0.6749954 4.088501 -0.5704193 8.402847 0 11.763977c0.5704193 3.361145 1.3472748 7.338196 3.4225082 8.402847c2.0752258 1.0646515 5.137825 0.22583008 9.028885 -2.014923c3.8910599 -2.2407532 9.182365 -7.676941 14.317482 -11.429626c5.1351166 -3.7526855 11.306488 -7.389511 16.49321 -11.086472c5.186722 -3.6969604 11.359451 -7.734131 14.627121 -11.095276c3.267685 -3.3611298 4.30394 -6.047699 4.9789276 -9.071548c0.67500305 -3.0238495 2.6497345 -6.9437103 -0.9289551 -9.071548c-3.5786896 -2.1278381 -13.851639 -2.4064636 -20.543182 -3.6954803z" fill-rule="evenodd"/><path fill="#cfe2f3" d="m174.04906 148.61186c-2.0236206 -0.22291565 -8.250687 0.6203003 -12.141739 2.6924286c-3.8910675 2.072113 -8.299576 5.7646637 -11.204636 9.74025c-2.9050446 3.975586 -3.5800476 8.511368 -6.2256927 14.113251c-2.6456451 5.601898 -6.794754 13.447479 -9.648209 19.498123c-2.8534393 6.0506287 -5.761215 12.101257 -7.472458 16.80568c-1.7112579 4.704422 -3.1074219 7.5009613 -2.795044 11.420822c0.3123703 3.9198608 1.3499832 9.241669 4.6692657 12.098343c3.3192902 2.8566742 11.770966 4.5929565 15.246445 5.0417023c3.4754639 0.44873047 4.517166 -0.05279541 5.6063843 -2.3492737c1.0892334 -2.2964935 0.46176147 -6.94812 0.92897034 -11.429626c0.4671936 -4.4815216 1.0444031 -10.30632 1.8742218 -15.459473c0.8298187 -5.1531525 0.87464905 -8.458572 3.1047058 -15.459473c2.2300568 -7.0009003 7.2660217 -19.432114 10.275665 -26.545944c3.0096283 -7.1138153 6.485092 -12.775833 7.7821198 -16.136978c1.2970123 -3.3611298 2.0236206 -3.8069305 0 -4.029831z" fill-rule="evenodd"/><path stroke="#000000" stroke-width="1.0" stroke-linejoin="round" stroke-linecap="butt" d="m174.04906 148.61186c-2.0236206 -0.22291565 -8.250687 0.6203003 -12.141739 2.6924286c-3.8910675 2.072113 -8.299576 5.7646637 -11.204636 9.74025c-2.9050446 3.975586 -3.5800476 8.511368 -6.2256927 14.113251c-2.6456451 5.601898 -6.794754 13.447479 -9.648209 19.498123c-2.8534393 6.0506287 -5.761215 12.101257 -7.472458 16.80568c-1.7112579 4.704422 -3.1074219 7.5009613 -2.795044 11.420822c0.3123703 3.9198608 1.3499832 9.241669 4.6692657 12.098343c3.3192902 2.8566742 11.770966 4.5929565 15.246445 5.0417023c3.4754639 0.44873047 4.517166 -0.05279541 5.6063843 -2.3492737c1.0892334 -2.2964935 0.46176147 -6.94812 0.92897034 -11.429626c0.4671936 -4.4815216 1.0444031 -10.30632 1.8742218 -15.459473c0.8298187 -5.1531525 0.87464905 -8.458572 3.1047058 -15.459473c2.2300568 -7.0009003 7.2660217 -19.432114 10.275665 -26.545944c3.0096283 -7.1138153 6.485092 -12.775833 7.7821198 -16.136978c1.2970123 -3.3611298 2.0236206 -3.8069305 0 -4.029831z" fill-rule="evenodd"/><path fill="#cfe2f3" d="m183.86499 261.4369c-4.0105896 -1.8154907 -18.30632 -8.93811 -24.063461 -10.892914c-5.757141 -1.9548035 -8.732819 -0.6965637 -10.479385 -0.83587646" fill-rule="evenodd"/><path stroke="#000000" stroke-width="1.0" stroke-linejoin="round" stroke-linecap="butt" d="m183.86499 261.4369c-4.0105896 -1.8154907 -18.30632 -8.93811 -24.063461 -10.892914c-5.757141 -1.9548035 -8.732819 -0.6965637 -10.479385 -0.83587646" fill-rule="evenodd"/><path fill="#000000" fill-opacity="0.0" d="m133.0245 302.49973c0.71165466 -4.1896973 3.6886902 -15.2908325 4.2699738 -25.138153c0.58128357 -9.84729 -0.58807373 -23.259583 -0.7822876 -33.94571c-0.19421387 -10.686127 -0.31915283 -25.142532 -0.3829956 -30.171051" fill-rule="evenodd"/><path stroke="#000000" stroke-width="1.0" stroke-linejoin="round" stroke-linecap="butt" d="m133.0245 302.49973c0.71165466 -4.1896973 3.6886902 -15.2908325 4.2699738 -25.138153c0.58128357 -9.84729 -0.58807373 -23.259583 -0.7822876 -33.94571c-0.19421387 -10.686127 -0.31915283 -25.142532 -0.3829956 -30.171051" fill-rule="evenodd"/><path fill="#cfe2f3" d="m216.8683 288.25165c1.7639008 4.7476807 8.172592 22.188385 10.583389 28.486023c2.410797 6.297638 2.0390472 7.7301025 3.8814087 9.299744c1.8423615 1.5696716 4.6443634 1.2953186 7.1727295 0.118133545c2.5283813 -1.177185 9.291336 -0.11834717 7.9975433 -7.1812134c-1.293808 -7.062866 -11.173904 -27.799744 -15.760345 -35.196014c-4.586441 -7.3962708 -9.798584 -7.651367 -11.758301 -9.181641" fill-rule="evenodd"/><path stroke="#000000" stroke-width="2.0" stroke-linejoin="round" stroke-linecap="butt" d="m216.8683 288.25165c1.7639008 4.7476807 8.172592 22.188385 10.583389 28.486023c2.410797 6.297638 2.0390472 7.7301025 3.8814087 9.299744c1.8423615 1.5696716 4.6443634 1.2953186 7.1727295 0.118133545c2.5283813 -1.177185 9.291336 -0.11834717 7.9975433 -7.1812134c-1.293808 -7.062866 -11.173904 -27.799744 -15.760345 -35.196014c-4.586441 -7.3962708 -9.798584 -7.651367 -11.758301 -9.181641" fill-rule="evenodd"/><path fill="#cfe2f3" d="m228.74971 320.14972c1.6664124 4.4529724 7.7440186 20.734436 9.99855 26.717926c2.2545319 5.98349 1.6863098 7.6132812 3.5286713 9.182953c1.8423615 1.5696411 4.977646 1.4121094 7.525467 0.23495483c2.5478363 -1.177185 7.722809 -2.7468567 7.761505 -7.298065c0.03869629 -4.5512085 -5.49057 -14.241699 -7.5294037 -20.009247c-2.0388336 -5.7675476 -3.9196472 -12.163422 -4.703583 -14.5961" fill-rule="evenodd"/><path stroke="#000000" stroke-width="2.0" stroke-linejoin="round" stroke-linecap="butt" d="m228.74971 320.14972c1.6664124 4.4529724 7.7440186 20.734436 9.99855 26.717926c2.2545319 5.98349 1.6863098 7.6132812 3.5286713 9.182953c1.8423615 1.5696411 4.977646 1.4121094 7.525467 0.23495483c2.5478363 -1.177185 7.722809 -2.7468567 7.761505 -7.298065c0.03869629 -4.5512085 -5.49057 -14.241699 -7.5294037 -20.009247c-2.0388336 -5.7675476 -3.9196472 -12.163422 -4.703583 -14.5961" fill-rule="evenodd"/><path fill="#cfe2f3" d="m256.03305 343.3379c1.2002563 1.7761841 5.3338623 7.476349 7.201599 10.657013c1.8677063 3.1806335 3.670929 5.7660217 4.0046387 8.42688c0.33374023 2.6608582 -0.70458984 5.6166077 -2.0023193 7.5382385c-1.2977295 1.9216614 -3.4849548 3.585144 -5.784088 3.9916077c-2.2991028 0.40646362 -6.22554 -0.5510559 -8.010635 -1.5527954c-1.7851105 -1.0017395 -2.0539246 -2.9888 -2.6999512 -4.4575806c-0.6460266 -1.468811 -0.72535706 -4.3355103 -1.1762238 -4.355194c-0.45085144 -0.019714355 -0.7657776 3.2117004 -1.5289459 4.2370605c-0.76316833 1.0253601 -2.0113068 1.7973938 -3.050064 1.9150696c-1.0387573 0.1177063 -2.7696533 0.3069458 -3.1824799 -1.2088928c-0.4128418 -1.5158386 0.5487671 -5.512268 0.7054596 -7.8861084c0.15670776 -2.3738098 0.43077087 -4.3164673 0.23472595 -6.356903c-0.19602966 -2.0404358 -1.1757812 -4.9047546 -1.4109497 -5.885681" fill-rule="evenodd"/><path stroke="#000000" stroke-width="2.0" stroke-linejoin="round" stroke-linecap="butt" d="m256.03305 343.3379c1.2002563 1.7761841 5.3338623 7.476349 7.201599 10.657013c1.8677063 3.1806335 3.670929 5.7660217 4.0046387 8.42688c0.33374023 2.6608582 -0.70458984 5.6166077 -2.0023193 7.5382385c-1.2977295 1.9216614 -3.4849548 3.585144 -5.784088 3.9916077c-2.2991028 0.40646362 -6.22554 -0.5510559 -8.010635 -1.5527954c-1.7851105 -1.0017395 -2.0539246 -2.9888 -2.6999512 -4.4575806c-0.6460266 -1.468811 -0.72535706 -4.3355103 -1.1762238 -4.355194c-0.45085144 -0.019714355 -0.7657776 3.2117004 -1.5289459 4.2370605c-0.76316833 1.0253601 -2.0113068 1.7973938 -3.050064 1.9150696c-1.0387573 0.1177063 -2.7696533 0.3069458 -3.1824799 -1.2088928c-0.4128418 -1.5158386 0.5487671 -5.512268 0.7054596 -7.8861084c0.15670776 -2.3738098 0.43077087 -4.3164673 0.23472595 -6.356903c-0.19602966 -2.0404358 -1.1757812 -4.9047546 -1.4109497 -5.885681" fill-rule="evenodd"/><path fill="#cfe2f3" d="m217.0881 269.2687c-0.54855347 -1.7879944 -0.07714844 -4.270752 -0.70414734 -5.3632812c-0.62701416 -1.0925293 -0.27471924 -1.1124268 -3.0579224 -1.1918335c-2.7832031 -0.07940674 -11.01503 -0.27804565 -13.641312 0.71536255c-2.6262817 0.9934082 -1.4109497 3.6956177 -2.1164093 5.2451477c-0.70547485 1.54953 -1.0188751 2.7011108 -2.1164246 4.0519714c-1.0975494 1.3508911 -2.9790192 3.1791382 -4.468857 4.053314c-1.4898376 0.87420654 -3.254837 0.43688965 -4.4701843 1.1918335c-1.215332 0.75497437 -2.508484 1.3907166 -2.8218842 3.3379517c-0.31340027 1.9472351 0.43185425 3.6168518 0.9414978 8.3454895c0.5096588 4.7286377 1.4500732 14.979828 2.1164246 20.026306c0.6663513 5.046509 1.9992676 6.199402 1.8816986 10.252716c-0.11758423 4.053314 -0.9799652 9.060211 -2.5871735 14.067108c-1.607193 5.0069275 -5.3802032 11.699432 -7.0560303 15.974335c-1.675827 4.2749023 -3.3221436 7.3857727 -2.9989166 9.675171c0.3232422 2.2893982 -1.0103455 3.2497559 4.9383087 4.0611877c5.948654 0.81140137 21.276932 0.513855 30.753601 0.80722046c9.476654 0.29336548 20.853806 1.4298706 26.106384 0.9529724c5.2525787 -0.4769287 4.507553 -1.2714844 5.4090576 -3.8144226c0.9015045 -2.5429382 0.47032166 -7.151703 0 -11.443237c-0.4703064 -4.2915344 -1.900711 -10.014252 -2.8218842 -14.306c-0.92118835 -4.2917786 -1.9798279 -6.7555237 -2.705185 -11.44455c-0.72535706 -4.6890564 -1.078537 -11.205872 -1.6469727 -16.689697c-0.5684509 -5.4838257 -0.6464691 -11.921661 -1.7636871 -16.213226c-1.117218 -4.2915344 -2.50914 -6.714813 -4.9396057 -9.536011c-2.430481 -2.821228 -7.6048126 -5.265259 -9.643204 -7.3912354c-2.038391 -2.1259766 -2.0386047 -3.5766296 -2.5871735 -5.3645935z" fill-rule="evenodd"/><path stroke="#000000" stroke-width="2.0" stroke-linejoin="round" stroke-linecap="butt" d="m217.0881 269.2687c-0.54855347 -1.7879944 -0.07714844 -4.270752 -0.70414734 -5.3632812c-0.62701416 -1.0925293 -0.27471924 -1.1124268 -3.0579224 -1.1918335c-2.7832031 -0.07940674 -11.01503 -0.27804565 -13.641312 0.71536255c-2.6262817 0.9934082 -1.4109497 3.6956177 -2.1164093 5.2451477c-0.70547485 1.54953 -1.0188751 2.7011108 -2.1164246 4.0519714c-1.0975494 1.3508911 -2.9790192 3.1791382 -4.468857 4.053314c-1.4898376 0.87420654 -3.254837 0.43688965 -4.4701843 1.1918335c-1.215332 0.75497437 -2.508484 1.3907166 -2.8218842 3.3379517c-0.31340027 1.9472351 0.43185425 3.6168518 0.9414978 8.3454895c0.5096588 4.7286377 1.4500732 14.979828 2.1164246 20.026306c0.6663513 5.046509 1.9992676 6.199402 1.8816986 10.252716c-0.11758423 4.053314 -0.9799652 9.060211 -2.5871735 14.067108c-1.607193 5.0069275 -5.3802032 11.699432 -7.0560303 15.974335c-1.675827 4.2749023 -3.3221436 7.3857727 -2.9989166 9.675171c0.3232422 2.2893982 -1.0103455 3.2497559 4.9383087 4.0611877c5.948654 0.81140137 21.276932 0.513855 30.753601 0.80722046c9.476654 0.29336548 20.853806 1.4298706 26.106384 0.9529724c5.2525787 -0.4769287 4.507553 -1.2714844 5.4090576 -3.8144226c0.9015045 -2.5429382 0.47032166 -7.151703 0 -11.443237c-0.4703064 -4.2915344 -1.900711 -10.014252 -2.8218842 -14.306c-0.92118835 -4.2917786 -1.9798279 -6.7555237 -2.705185 -11.44455c-0.72535706 -4.6890564 -1.078537 -11.205872 -1.6469727 -16.689697c-0.5684509 -5.4838257 -0.6464691 -11.921661 -1.7636871 -16.213226c-1.117218 -4.2915344 -2.50914 -6.714813 -4.9396057 -9.536011c-2.430481 -2.821228 -7.6048126 -5.265259 -9.643204 -7.3912354c-2.038391 -2.1259766 -2.0386047 -3.5766296 -2.5871735 -5.3645935z" fill-rule="evenodd"/><path fill="#cfe2f3" d="m278.69345 214.71277c0.39230347 -2.118454 1.4907532 -1.0199738 1.8830872 -5.6492157c0.39233398 -4.629242 0.9416199 -15.221603 0.4708557 -22.126236c-0.47073364 -6.904648 -1.2554016 -12.710785 -3.2954102 -19.301575c-2.039978 -6.59079 -5.7276917 -14.829315 -8.944611 -20.24318c-3.216919 -5.413864 -5.0215454 -8.081558 -10.356964 -12.240021c-5.3354034 -4.158478 -15.378555 -9.886162 -21.655502 -12.71077c-6.276947 -2.8246078 -10.984619 -3.3737946 -16.006165 -4.2368774c-5.0215454 -0.86307526 -9.729248 -0.78466797 -14.123093 -0.941597c-4.39386 -0.15693665 -7.846176 -0.47077942 -12.240036 0c-4.3938446 0.47077942 -9.258453 1.2554245 -14.123093 2.824669c-4.8646393 1.569252 -10.592361 4.236969 -15.064697 6.5908127c-4.472336 2.353859 -7.6892853 3.6876602 -11.769287 7.53228c-4.080017 3.8446198 -9.493835 9.807724 -12.71077 15.535446c-3.216919 5.727707 -5.1784973 12.396973 -6.590805 18.830826c-1.412323 6.4338684 -1.9615479 13.26001 -1.8830719 19.772324c0.07847595 6.512314 1.3339233 14.044632 2.3539276 19.301575c1.0200195 5.2569275 1.8046265 7.1399994 3.7661438 12.240021c1.9615326 5.1000214 4.629181 12.710861 8.003021 18.360107c3.3738403 5.649231 6.433853 11.376831 12.240021 15.535294c5.8061676 4.158478 15.3785095 7.296997 22.596985 9.415497c7.2184906 2.1184692 11.847733 2.9031067 20.713913 3.2954102c8.86618 0.39230347 23.303177 -6.1035156E-5 32.4832 -0.9416199c9.180038 -0.9415283 16.398514 -2.275299 22.596985 -4.707611c6.198456 -2.432312 10.906128 -5.9631195 14.593842 -9.886215c3.687683 -3.9230957 6.4339294 -9.807739 7.5324097 -13.652359c1.0984497 -3.8446198 -0.78466797 -6.826111 -0.9416199 -9.4153595c-0.15692139 -2.5892334 -0.078430176 -3.9231415 0 -6.1200714c0.07846069 -2.1969452 0.07846069 -4.9430847 0.47073364 -7.061554z" fill-rule="evenodd"/><path stroke="#000000" stroke-width="2.0" stroke-linejoin="round" stroke-linecap="butt" d="m278.69345 214.71277c0.39230347 -2.118454 1.4907532 -1.0199738 1.8830872 -5.6492157c0.39233398 -4.629242 0.9416199 -15.221603 0.4708557 -22.126236c-0.47073364 -6.904648 -1.2554016 -12.710785 -3.2954102 -19.301575c-2.039978 -6.59079 -5.7276917 -14.829315 -8.944611 -20.24318c-3.216919 -5.413864 -5.0215454 -8.081558 -10.356964 -12.240021c-5.3354034 -4.158478 -15.378555 -9.886162 -21.655502 -12.71077c-6.276947 -2.8246078 -10.984619 -3.3737946 -16.006165 -4.2368774c-5.0215454 -0.86307526 -9.729248 -0.78466797 -14.123093 -0.941597c-4.39386 -0.15693665 -7.846176 -0.47077942 -12.240036 0c-4.3938446 0.47077942 -9.258453 1.2554245 -14.123093 2.824669c-4.8646393 1.569252 -10.592361 4.236969 -15.064697 6.5908127c-4.472336 2.353859 -7.6892853 3.6876602 -11.769287 7.53228c-4.080017 3.8446198 -9.493835 9.807724 -12.71077 15.535446c-3.216919 5.727707 -5.1784973 12.396973 -6.590805 18.830826c-1.412323 6.4338684 -1.9615479 13.26001 -1.8830719 19.772324c0.07847595 6.512314 1.3339233 14.044632 2.3539276 19.301575c1.0200195 5.2569275 1.8046265 7.1399994 3.7661438 12.240021c1.9615326 5.1000214 4.629181 12.710861 8.003021 18.360107c3.3738403 5.649231 6.433853 11.376831 12.240021 15.535294c5.8061676 4.158478 15.3785095 7.296997 22.596985 9.415497c7.2184906 2.1184692 11.847733 2.9031067 20.713913 3.2954102c8.86618 0.39230347 23.303177 -6.1035156E-5 32.4832 -0.9416199c9.180038 -0.9415283 16.398514 -2.275299 22.596985 -4.707611c6.198456 -2.432312 10.906128 -5.9631195 14.593842 -9.886215c3.687683 -3.9230957 6.4339294 -9.807739 7.5324097 -13.652359c1.0984497 -3.8446198 -0.78466797 -6.826111 -0.9416199 -9.4153595c-0.15692139 -2.5892334 -0.078430176 -3.9231415 0 -6.1200714c0.07846069 -2.1969452 0.07846069 -4.9430847 0.47073364 -7.061554z" fill-rule="evenodd"/><path fill="#cfe2f3" d="m142.2939 222.22008c-0.862381 -0.6670227 -3.5277863 -3.4527893 -5.1743317 -4.002121c-1.6465454 -0.5493164 -3.4895477 -0.11790466 -4.704895 0.70617676c-1.2153473 0.8240967 -1.9992676 2.7472687 -2.5871735 4.238388c-0.5878906 1.4911041 -1.4498444 2.5501556 -0.94018555 4.7082825c0.5096588 2.158142 2.743866 6.082367 3.998108 8.240494c1.254242 2.158142 2.0770874 3.2171783 3.527359 4.7082977c1.4502869 1.4911041 2.939911 3.4928284 5.1743317 4.238373c2.234436 0.7455597 6.4681396 0.7845001 8.232254 0.23495483c1.7641296 -0.54953 1.9603729 -2.9434967 2.3524475 -3.532196" fill-rule="evenodd"/><path stroke="#000000" stroke-width="2.0" stroke-linejoin="round" stroke-linecap="butt" d="m142.2939 222.22008c-0.862381 -0.6670227 -3.5277863 -3.4527893 -5.1743317 -4.002121c-1.6465454 -0.5493164 -3.4895477 -0.11790466 -4.704895 0.70617676c-1.2153473 0.8240967 -1.9992676 2.7472687 -2.5871735 4.238388c-0.5878906 1.4911041 -1.4498444 2.5501556 -0.94018555 4.7082825c0.5096588 2.158142 2.743866 6.082367 3.998108 8.240494c1.254242 2.158142 2.0770874 3.2171783 3.527359 4.7082977c1.4502869 1.4911041 2.939911 3.4928284 5.1743317 4.238373c2.234436 0.7455597 6.4681396 0.7845001 8.232254 0.23495483c1.7641296 -0.54953 1.9603729 -2.9434967 2.3524475 -3.532196" fill-rule="evenodd"/><path fill="#cfe2f3" d="m135.74968 231.18271c-0.27450562 -0.31391907 -1.6076355 -0.86346436 -1.6469727 -1.8835754c-0.03933716 -1.0201111 0.705246 -3.7662811 1.4109344 -4.2370605c0.7056885 -0.47079468 1.4120331 0.078308105 2.8231964 1.4123535c1.4111633 1.3340302 4.5855713 4.5514374 5.6437836 6.591873c1.0582123 2.0404205 0.5878906 4.7089386 0.70547485 5.6507263" fill-rule="evenodd"/><path stroke="#000000" stroke-width="2.0" stroke-linejoin="round" stroke-linecap="butt" d="m135.74968 231.18271c-0.27450562 -0.31391907 -1.6076355 -0.86346436 -1.6469727 -1.8835754c-0.03933716 -1.0201111 0.705246 -3.7662811 1.4109344 -4.2370605c0.7056885 -0.47079468 1.4120331 0.078308105 2.8231964 1.4123535c1.4111633 1.3340302 4.5855713 4.5514374 5.6437836 6.591873c1.0582123 2.0404205 0.5878906 4.7089386 0.70547485 5.6507263" fill-rule="evenodd"/><path fill="#cfe2f3" d="m194.05916 289.5504c-1.7639008 4.74765 -8.172592 22.188385 -10.583389 28.485992c-2.410797 6.297638 -2.0390472 7.730133 -3.8814087 9.299774c-1.8423615 1.5696411 -4.644348 1.2953186 -7.1727295 0.118133545c-2.5283813 -1.177185 -9.291336 -0.11834717 -7.9975433 -7.181244c1.293808 -7.062866 11.17392 -27.799713 15.760361 -35.196014c4.586441 -7.3962708 9.798584 -7.6513367 11.758301 -9.18161" fill-rule="evenodd"/><path stroke="#000000" stroke-width="2.0" stroke-linejoin="round" stroke-linecap="butt" d="m194.05916 289.5504c-1.7639008 4.74765 -8.172592 22.188385 -10.583389 28.485992c-2.410797 6.297638 -2.0390472 7.730133 -3.8814087 9.299774c-1.8423615 1.5696411 -4.644348 1.2953186 -7.1727295 0.118133545c-2.5283813 -1.177185 -9.291336 -0.11834717 -7.9975433 -7.181244c1.293808 -7.062866 11.17392 -27.799713 15.760361 -35.196014c4.586441 -7.3962708 9.798584 -7.6513367 11.758301 -9.18161" fill-rule="evenodd"/><path fill="#cfe2f3" d="m182.16016 321.44846c-1.6664276 4.453003 -7.7440186 20.734467 -9.998566 26.717926c-2.2545319 5.98349 -1.6863098 7.613312 -3.528656 9.182953c-1.8423615 1.5696411 -4.977646 1.4121399 -7.525482 0.23495483c-2.547821 -1.177185 -7.722809 -2.7468262 -7.761505 -7.2980347c-0.03868103 -4.551239 5.4905853 -14.241699 7.5294037 -20.009277c2.0388336 -5.7675476 3.9196625 -12.163391 4.703598 -14.596069" fill-rule="evenodd"/><path stroke="#000000" stroke-width="2.0" stroke-linejoin="round" stroke-linecap="butt" d="m182.16016 321.44846c-1.6664276 4.453003 -7.7440186 20.734467 -9.998566 26.717926c-2.2545319 5.98349 -1.6863098 7.613312 -3.528656 9.182953c-1.8423615 1.5696411 -4.977646 1.4121399 -7.525482 0.23495483c-2.547821 -1.177185 -7.722809 -2.7468262 -7.761505 -7.2980347c-0.03868103 -4.551239 5.4905853 -14.241699 7.5294037 -20.009277c2.0388336 -5.7675476 3.9196625 -12.163391 4.703598 -14.596069" fill-rule="evenodd"/><path fill="#cfe2f3" d="m154.8768 344.63666c-1.2002563 1.7761536 -5.3338776 7.476349 -7.201584 10.656982c-1.8677063 3.1806335 -3.6709442 5.7660217 -4.004669 8.42688c-0.33370972 2.6608582 0.7046051 5.6166077 2.0023346 7.538269c1.2977448 1.9216309 3.48497 3.585144 5.784088 3.9916077c2.299118 0.40646362 6.2255554 -0.5510864 8.010651 -1.5528259c1.7850952 -1.001709 2.0539093 -2.9887695 2.699936 -4.4575806c0.6460266 -1.4687805 0.72535706 -4.3355103 1.1762238 -4.355194c0.4508667 -0.019683838 0.76579285 3.2117004 1.5289612 4.2370605c0.76316833 1.0253601 2.0112915 1.7973938 3.0500488 1.9151001c1.0387573 0.11767578 2.7696533 0.30691528 3.182495 -1.2089233c0.41282654 -1.5158386 -0.54878235 -5.5122375 -0.70547485 -7.886078c-0.1566925 -2.3738403 -0.43075562 -4.316498 -0.23472595 -6.3569336c0.19604492 -2.0404053 1.1757965 -4.904724 1.4109497 -5.885681" fill-rule="evenodd"/><path stroke="#000000" stroke-width="2.0" stroke-linejoin="round" stroke-linecap="butt" d="m154.8768 344.63666c-1.2002563 1.7761536 -5.3338776 7.476349 -7.201584 10.656982c-1.8677063 3.1806335 -3.6709442 5.7660217 -4.004669 8.42688c-0.33370972 2.6608582 0.7046051 5.6166077 2.0023346 7.538269c1.2977448 1.9216309 3.48497 3.585144 5.784088 3.9916077c2.299118 0.40646362 6.2255554 -0.5510864 8.010651 -1.5528259c1.7850952 -1.001709 2.0539093 -2.9887695 2.699936 -4.4575806c0.6460266 -1.4687805 0.72535706 -4.3355103 1.1762238 -4.355194c0.4508667 -0.019683838 0.76579285 3.2117004 1.5289612 4.2370605c0.76316833 1.0253601 2.0112915 1.7973938 3.0500488 1.9151001c1.0387573 0.11767578 2.7696533 0.30691528 3.182495 -1.2089233c0.41282654 -1.5158386 -0.54878235 -5.5122375 -0.70547485 -7.886078c-0.1566925 -2.3738403 -0.43075562 -4.316498 -0.23472595 -6.3569336c0.19604492 -2.0404053 1.1757965 -4.904724 1.4109497 -5.885681" fill-rule="evenodd"/><path fill="#cfe2f3" d="m177.87451 352.68765c-0.22877502 0.7187195 -1.1854706 2.6351929 -1.3726959 4.3123474c-0.18722534 1.6771545 -1.708664 4.1671143 0.24934387 5.7506714c1.9580078 1.5835266 5.915573 2.9588623 11.498688 3.7506409c5.5831146 0.79177856 14.291336 0.8753357 22.0 1.0c7.708664 0.12466431 18.668411 0.20648193 24.251968 -0.25198364c5.583542 -0.45843506 7.718277 -1.0822144 9.249344 -2.4986572c1.5310516 -1.4164734 -0.021438599 -4.2917786 -0.06300354 -6.0c-0.041549683 -1.708252 -0.1552887 -3.5411377 -0.18634033 -4.249359" fill-rule="evenodd"/><path stroke="#000000" stroke-width="2.0" stroke-linejoin="round" stroke-linecap="butt" d="m177.87451 352.68765c-0.22877502 0.7187195 -1.1854706 2.6351929 -1.3726959 4.3123474c-0.18722534 1.6771545 -1.708664 4.1671143 0.24934387 5.7506714c1.9580078 1.5835266 5.915573 2.9588623 11.498688 3.7506409c5.5831146 0.79177856 14.291336 0.8753357 22.0 1.0c7.708664 0.12466431 18.668411 0.20648193 24.251968 -0.25198364c5.583542 -0.45843506 7.718277 -1.0822144 9.249344 -2.4986572c1.5310516 -1.4164734 -0.021438599 -4.2917786 -0.06300354 -6.0c-0.041549683 -1.708252 -0.1552887 -3.5411377 -0.18634033 -4.249359" fill-rule="evenodd"/><path fill="#cfe2f3" d="m175.98787 358.6453c-0.12741089 3.7080994 -0.5194855 15.322845 -0.7644806 22.248566c-0.24499512 6.9256897 -0.39186096 13.184387 -0.70547485 19.305695c-0.3136139 6.121277 -1.5289612 13.733704 -1.1762238 17.42212c0.35273743 3.688385 1.6069794 3.6096191 3.292633 4.7082825c1.685669 1.0986328 3.9205322 1.4911194 6.8213196 1.8835754c2.9007874 0.39245605 7.721939 0.6282959 10.583389 0.47122192c2.8614502 -0.15707397 4.860504 -0.5895691 6.5852814 -1.4136658c1.7247772 -0.8240967 2.901001 -1.9223022 3.763382 -3.5308838c0.86239624 -1.6086121 0.47010803 0.7855835 1.4109497 -6.1206665c0.9408417 -6.9062195 3.254181 -26.684021 4.234146 -35.316772c0.9799652 -8.632721 1.3713837 -13.733063 1.6456604 -16.479675" fill-rule="evenodd"/><path stroke="#000000" stroke-width="2.0" stroke-linejoin="round" stroke-linecap="butt" d="m175.98787 358.6453c-0.12741089 3.7080994 -0.5194855 15.322845 -0.7644806 22.248566c-0.24499512 6.9256897 -0.39186096 13.184387 -0.70547485 19.305695c-0.3136139 6.121277 -1.5289612 13.733704 -1.1762238 17.42212c0.35273743 3.688385 1.6069794 3.6096191 3.292633 4.7082825c1.685669 1.0986328 3.9205322 1.4911194 6.8213196 1.8835754c2.9007874 0.39245605 7.721939 0.6282959 10.583389 0.47122192c2.8614502 -0.15707397 4.860504 -0.5895691 6.5852814 -1.4136658c1.7247772 -0.8240967 2.901001 -1.9223022 3.763382 -3.5308838c0.86239624 -1.6086121 0.47010803 0.7855835 1.4109497 -6.1206665c0.9408417 -6.9062195 3.254181 -26.684021 4.234146 -35.316772c0.9799652 -8.632721 1.3713837 -13.733063 1.6456604 -16.479675" fill-rule="evenodd"/><path fill="#cfe2f3" d="m173.34267 413.37918c-0.2351532 2.0795898 -1.1364441 7.2588806 -1.4109344 12.47757c-0.27450562 5.2186584 -0.2557068 12.928864 -0.23603821 18.834473c0.01966858 5.9055786 0.079559326 12.94986 0.35404968 16.599121c0.27449036 3.649231 0.13659668 4.0996704 1.292923 5.2963257c1.1563416 1.1966553 2.3131104 1.4519348 5.645096 1.8835754c3.3319702 0.4316101 11.054138 1.1377869 14.346771 0.70617676c3.2926483 -0.43164062 4.311508 -1.6871338 5.4090576 -3.295929c1.0975494 -1.6088257 0.9801941 -4.0025635 1.1762238 -6.3569336c0.19604492 -2.3543396 -0.35273743 -4.1593933 0 -7.7692566c0.35273743 -3.6098633 1.332489 -8.828308 2.1164246 -13.889923c0.7839203 -5.0615845 1.999054 -12.595032 2.5871582 -16.479675c0.5881195 -3.884613 0.7845917 -5.690094 0.94151306 -6.828125" fill-rule="evenodd"/><path stroke="#000000" stroke-width="2.0" stroke-linejoin="round" stroke-linecap="butt" d="m173.34267 413.37918c-0.2351532 2.0795898 -1.1364441 7.2588806 -1.4109344 12.47757c-0.27450562 5.2186584 -0.2557068 12.928864 -0.23603821 18.834473c0.01966858 5.9055786 0.079559326 12.94986 0.35404968 16.599121c0.27449036 3.649231 0.13659668 4.0996704 1.292923 5.2963257c1.1563416 1.1966553 2.3131104 1.4519348 5.645096 1.8835754c3.3319702 0.4316101 11.054138 1.1377869 14.346771 0.70617676c3.2926483 -0.43164062 4.311508 -1.6871338 5.4090576 -3.295929c1.0975494 -1.6088257 0.9801941 -4.0025635 1.1762238 -6.3569336c0.19604492 -2.3543396 -0.35273743 -4.1593933 0 -7.7692566c0.35273743 -3.6098633 1.332489 -8.828308 2.1164246 -13.889923c0.7839203 -5.0615845 1.999054 -12.595032 2.5871582 -16.479675c0.5881195 -3.884613 0.7845917 -5.690094 0.94151306 -6.828125" fill-rule="evenodd"/><path fill="#cfe2f3" d="m171.93114 459.4044c0.058792114 1.0004272 -0.27449036 3.7072144 0.35273743 6.002533c0.6272278 2.295288 2.019165 5.728821 3.4106598 7.7692566c1.3914948 2.0404358 3.3311005 3.4138489 4.9382935 4.4733276c1.6072083 1.0595093 2.35289 1.4911194 4.704895 1.883606c2.3520203 0.39245605 6.898468 0.510376 9.407166 0.47122192c2.5087128 -0.03918457 4.390625 -0.23519897 5.645096 -0.70617676c1.2544556 -0.4710083 1.7641144 -1.138916 1.8816986 -2.119873c0.11756897 -0.9809265 -0.70570374 -1.7256165 -1.1762238 -3.7658386c-0.47053528 -2.0402222 -1.450943 -6.2387695 -1.6469879 -8.475433c-0.19602966 -2.2366638 0.39230347 -4.1204834 0.47076416 -4.94458" fill-rule="evenodd"/><path stroke="#000000" stroke-width="2.0" stroke-linejoin="round" stroke-linecap="butt" d="m171.93114 459.4044c0.058792114 1.0004272 -0.27449036 3.7072144 0.35273743 6.002533c0.6272278 2.295288 2.019165 5.728821 3.4106598 7.7692566c1.3914948 2.0404358 3.3311005 3.4138489 4.9382935 4.4733276c1.6072083 1.0595093 2.35289 1.4911194 4.704895 1.883606c2.3520203 0.39245605 6.898468 0.510376 9.407166 0.47122192c2.5087128 -0.03918457 4.390625 -0.23519897 5.645096 -0.70617676c1.2544556 -0.4710083 1.7641144 -1.138916 1.8816986 -2.119873c0.11756897 -0.9809265 -0.70570374 -1.7256165 -1.1762238 -3.7658386c-0.47053528 -2.0402222 -1.450943 -6.2387695 -1.6469879 -8.475433c-0.19602966 -2.2366638 0.39230347 -4.1204834 0.47076416 -4.94458" fill-rule="evenodd"/><path fill="#cfe2f3" d="m209.80183 359.58652c0.30749512 3.736969 1.0536194 15.501556 1.844986 22.421783c0.7913513 6.9202576 2.0707397 13.026886 2.903183 19.09964c0.83244324 6.0727234 1.0575562 13.778778 2.091507 17.336792c1.0339508 3.558014 2.25148 3.2464905 4.1121826 4.0112915c1.8607178 0.764801 4.1290283 0.7335205 7.052109 0.57754517c2.9230652 -0.15597534 7.704239 -0.82473755 10.486343 -1.5134277c2.7821198 -0.68865967 4.665344 -1.4869385 6.206314 -2.6186218c1.5409851 -1.1316833 2.4918823 -2.4300537 3.039566 -4.1714478c0.5476837 -1.7413635 0.60887146 0.68408203 0.246521 -6.276825c-0.36235046 -6.9609375 -1.7346039 -26.951813 -2.4206238 -35.48874c-0.68603516 -8.536926 -1.4129181 -13.110657 -1.6954956 -15.732788" fill-rule="evenodd"/><path stroke="#000000" stroke-width="2.0" stroke-linejoin="round" stroke-linecap="butt" d="m209.80183 359.58652c0.30749512 3.736969 1.0536194 15.501556 1.844986 22.421783c0.7913513 6.9202576 2.0707397 13.026886 2.903183 19.09964c0.83244324 6.0727234 1.0575562 13.778778 2.091507 17.336792c1.0339508 3.558014 2.25148 3.2464905 4.1121826 4.0112915c1.8607178 0.764801 4.1290283 0.7335205 7.052109 0.57754517c2.9230652 -0.15597534 7.704239 -0.82473755 10.486343 -1.5134277c2.7821198 -0.68865967 4.665344 -1.4869385 6.206314 -2.6186218c1.5409851 -1.1316833 2.4918823 -2.4300537 3.039566 -4.1714478c0.5476837 -1.7413635 0.60887146 0.68408203 0.246521 -6.276825c-0.36235046 -6.9609375 -1.7346039 -26.951813 -2.4206238 -35.48874c-0.68603516 -8.536926 -1.4129181 -13.110657 -1.6954956 -15.732788" fill-rule="evenodd"/><path fill="#cfe2f3" d="m215.84416 414.27484c0.15649414 2.086914 0.23612976 7.343384 0.9389801 12.521484c0.70285034 5.1781006 2.1582031 12.749115 3.278122 18.54712c1.1199036 5.798004 2.4915314 12.707153 3.44133 16.240936c0.9497986 3.5337524 0.89823914 4.002014 2.2574615 4.96167c1.3592072 0.95965576 2.5434113 0.9944458 5.897812 0.7962036c3.3543854 -0.19821167 11.073685 -0.9465637 14.228546 -1.9854736c3.1548615 -1.0389404 3.9220123 -2.462616 4.7006226 -4.2480774c0.7786102 -1.7854614 0.2171936 -4.1151733 -0.028945923 -6.4647217c-0.24613953 -2.3495483 -1.1217499 -4.020355 -1.4479065 -7.6325684c-0.32614136 -3.6122131 -0.33598328 -8.921814 -0.5090027 -14.040741c-0.17300415 -5.118927 -0.3829956 -12.746735 -0.52908325 -16.672821c-0.14607239 -3.926117 -0.289505 -5.736511 -0.34739685 -6.8838196" fill-rule="evenodd"/><path stroke="#000000" stroke-width="2.0" stroke-linejoin="round" stroke-linecap="butt" d="m215.84416 414.27484c0.15649414 2.086914 0.23612976 7.343384 0.9389801 12.521484c0.70285034 5.1781006 2.1582031 12.749115 3.278122 18.54712c1.1199036 5.798004 2.4915314 12.707153 3.44133 16.240936c0.9497986 3.5337524 0.89823914 4.002014 2.2574615 4.96167c1.3592072 0.95965576 2.5434113 0.9944458 5.897812 0.7962036c3.3543854 -0.19821167 11.073685 -0.9465637 14.228546 -1.9854736c3.1548615 -1.0389404 3.9220123 -2.462616 4.7006226 -4.2480774c0.7786102 -1.7854614 0.2171936 -4.1151733 -0.028945923 -6.4647217c-0.24613953 -2.3495483 -1.1217499 -4.020355 -1.4479065 -7.6325684c-0.32614136 -3.6122131 -0.33598328 -8.921814 -0.5090027 -14.040741c-0.17300415 -5.118927 -0.3829956 -12.746735 -0.52908325 -16.672821c-0.14607239 -3.926117 -0.289505 -5.736511 -0.34739685 -6.8838196" fill-rule="evenodd"/><path fill="#cfe2f3" d="m223.02637 459.75754c0.24420166 0.9718323 0.4211731 3.6932373 1.4652405 5.831024c1.0440674 2.1377563 3.0516357 5.250946 4.799164 6.9956055c1.7475281 1.74469 3.909317 2.73172 5.685974 3.472412c1.7766571 0.74069214 2.589798 1.0254822 4.973984 0.97180176c2.384201 -0.05368042 6.873459 -0.78689575 9.331177 -1.2938538c2.457718 -0.5069885 4.27034 -1.0509949 5.4151764 -1.7479858c1.1448364 -0.69696045 1.5211487 -1.4483032 1.4538574 -2.4339294c-0.06726074 -0.98565674 -1.0149841 -1.5634766 -1.857544 -3.4799194c-0.8425598 -1.9164429 -2.5883484 -5.8580627 -3.1977997 -8.018738c-0.6094513 -2.1607056 -0.3824463 -4.121216 -0.45892334 -4.945465" fill-rule="evenodd"/><path stroke="#000000" stroke-width="2.0" stroke-linejoin="round" stroke-linecap="butt" d="m223.02637 459.75754c0.24420166 0.9718323 0.4211731 3.6932373 1.4652405 5.831024c1.0440674 2.1377563 3.0516357 5.250946 4.799164 6.9956055c1.7475281 1.74469 3.909317 2.73172 5.685974 3.472412c1.7766571 0.74069214 2.589798 1.0254822 4.973984 0.97180176c2.384201 -0.05368042 6.873459 -0.78689575 9.331177 -1.2938538c2.457718 -0.5069885 4.27034 -1.0509949 5.4151764 -1.7479858c1.1448364 -0.69696045 1.5211487 -1.4483032 1.4538574 -2.4339294c-0.06726074 -0.98565674 -1.0149841 -1.5634766 -1.857544 -3.4799194c-0.8425598 -1.9164429 -2.5883484 -5.8580627 -3.1977997 -8.018738c-0.6094513 -2.1607056 -0.3824463 -4.121216 -0.45892334 -4.945465" fill-rule="evenodd"/></g></svg>