<svg version="1.1" viewBox="0.0 0.0 395.8005249343832 583.0761154855643" fill="none" stroke="none" stroke-linecap="square" stroke-miterlimit="10" xmlns:xlink="http://www.w3.org/1999/xlink" xmlns="http://www.w3.org/2000/svg"><clipPath id="p.0"><path d="m0 0l395.80054 0l0 583.0761l-395.80054 0l0 -583.0761z" clip-rule="nonzero"/></clipPath><g clip-path="url(#p.0)"><path fill="#000000" fill-opacity="0.0" d="m0 0l395.80054 0l0 583.0761l-395.80054 0z" fill-rule="evenodd"/><path fill="#cfe2f3" d="m216.8683 288.25165c1.7639008 4.7476807 8.172592 22.188385 10.583389 28.486023c2.410797 6.297638 2.0390472 7.7301025 3.8814087 9.299744c1.8423615 1.5696716 4.6443634 1.2953186 7.1727295 0.118133545c2.5283813 -1.177185 9.291336 -0.11834717 7.9975433 -7.1812134c-1.293808 -7.062866 -11.173904 -27.799744 -15.760345 -35.196014c-4.586441 -7.3962708 -9.798584 -7.651367 -11.758301 -9.181641" fill-rule="evenodd"/><path stroke="#000000" stroke-width="2.0" stroke-linejoin="round" stroke-linecap="butt" d="m216.8683 288.25165c1.7639008 4.7476807 8.172592 22.188385 10.583389 28.486023c2.410797 6.297638 2.0390472 7.7301025 3.8814087 9.299744c1.8423615 1.5696716 4.6443634 1.2953186 7.1727295 0.118133545c2.5283813 -1.177185 9.291336 -0.11834717 7.9975433 -7.1812134c-1.293808 -7.062866 -11.173904 -27.799744 -15.760345 -35.196014c-4.586441 -7.3962708 -9.798584 -7.651367 -11.758301 -9.181641" fill-rule="evenodd"/><path fill="#cfe2f3" d="m228.74971 320.14972c1.6664124 4.4529724 7.7440186 20.734436 9.99855 26.717926c2.2545319 5.98349 1.6863098 7.6132812 3.5286713 9.182953c1.8423615 1.5696411 4.977646 1.4121094 7.525467 0.23495483c2.5478363 -1.177185 7.722809 -2.7468567 7.761505 -7.298065c0.03869629 -4.5512085 -5.49057 -14.241699 -7.5294037 -20.009247c-2.0388336 -5.7675476 -3.9196472 -12.163422 -4.703583 -14.5961" fill-rule="evenodd"/><path stroke="#000000" stroke-width="2.0" stroke-linejoin="round" stroke-linecap="butt" d="m228.74971 320.14972c1.6664124 4.4529724 7.7440186 20.734436 9.99855 26.717926c2.2545319 5.98349 1.6863098 7.6132812 3.5286713 9.182953c1.8423615 1.5696411 4.977646 1.4121094 7.525467 0.23495483c2.5478363 -1.177185 7.722809 -2.7468567 7.761505 -7.298065c0.03869629 -4.5512085 -5.49057 -14.241699 -7.5294037 -20.009247c-2.0388336 -5.7675476 -3.9196472 -12.163422 -4.703583 -14.5961" fill-rule="evenodd"/><path fill="#cfe2f3" d="m256.03305 343.3379c1.2002563 1.7761841 5.3338623 7.476349 7.201599 10.657013c1.8677063 3.1806335 3.670929 5.7660217 4.0046387 8.42688c0.33374023 2.6608582 -0.70458984 5.6166077 -2.0023193 7.5382385c-1.2977295 1.9216614 -3.4849548 3.585144 -5.784088 3.9916077c-2.2991028 0.40646362 -6.22554 -0.5510559 -8.010635 -1.5527954c-1.7851105 -1.0017395 -2.0539246 -2.9888 -2.6999512 -4.4575806c-0.6460266 -1.468811 -0.72535706 -4.3355103 -1.1762238 -4.355194c-0.45085144 -0.019714355 -0.7657776 3.2117004 -1.5289459 4.2370605c-0.76316833 1.0253601 -2.0113068 1.7973938 -3.050064 1.9150696c-1.0387573 0.1177063 -2.7696533 0.3069458 -3.1824799 -1.2088928c-0.4128418 -1.5158386 0.5487671 -5.512268 0.7054596 -7.8861084c0.15670776 -2.3738098 0.43077087 -4.3164673 0.23472595 -6.356903c-0.19602966 -2.0404358 -1.1757812 -4.9047546 -1.4109497 -5.885681" fill-rule="evenodd"/><path stroke="#000000" stroke-width="2.0" stroke-linejoin="round" stroke-linecap="butt" d="m256.03305 343.3379c1.2002563 1.7761841 5.3338623 7.476349 7.201599 10.657013c1.8677063 3.1806335 3.670929 5.7660217 4.0046387 8.42688c0.33374023 2.6608582 -0.70458984 5.6166077 -2.0023193 7.5382385c-1.2977295 1.9216614 -3.4849548 3.585144 -5.784088 3.9916077c-2.2991028 0.40646362 -6.22554 -0.5510559 -8.010635 -1.5527954c-1.7851105 -1.0017395 -2.0539246 -2.9888 -2.6999512 -4.4575806c-0.6460266 -1.468811 -0.72535706 -4.3355103 -1.1762238 -4.355194c-0.45085144 -0.019714355 -0.7657776 3.2117004 -1.5289459 4.2370605c-0.76316833 1.0253601 -2.0113068 1.7973938 -3.050064 1.9150696c-1.0387573 0.1177063 -2.7696533 0.3069458 -3.1824799 -1.2088928c-0.4128418 -1.5158386 0.5487671 -5.512268 0.7054596 -7.8861084c0.15670776 -2.3738098 0.43077087 -4.3164673 0.23472595 -6.356903c-0.19602966 -2.0404358 -1.1757812 -4.9047546 -1.4109497 -5.885681" fill-rule="evenodd"/><path fill="#cfe2f3" d="m217.0881 269.2687c-0.54855347 -1.7879944 -0.07714844 -4.270752 -0.70414734 -5.3632812c-0.62701416 -1.0925293 -0.27471924 -1.1124268 -3.0579224 -1.1918335c-2.7832031 -0.07940674 -11.01503 -0.27804565 -13.641312 0.71536255c-2.6262817 0.9934082 -1.4109497 3.6956177 -2.1164093 5.2451477c-0.70547485 1.54953 -1.0188751 2.7011108 -2.1164246 4.0519714c-1.0975494 1.3508911 -2.9790192 3.1791382 -4.468857 4.053314c-1.4898376 0.87420654 -3.254837 0.43688965 -4.4701843 1.1918335c-1.215332 0.75497437 -2.508484 1.3907166 -2.8218842 3.3379517c-0.31340027 1.9472351 0.43185425 3.6168518 0.9414978 8.3454895c0.5096588 4.7286377 1.4500732 14.979828 2.1164246 20.026306c0.6663513 5.046509 1.9992676 6.199402 1.8816986 10.252716c-0.11758423 4.053314 -0.9799652 9.060211 -2.5871735 14.067108c-1.607193 5.0069275 -5.3802032 11.699432 -7.0560303 15.974335c-1.675827 4.2749023 -3.3221436 7.3857727 -2.9989166 9.675171c0.3232422 2.2893982 -1.0103455 3.2497559 4.9383087 4.0611877c5.948654 0.81140137 21.276932 0.513855 30.753601 0.80722046c9.476654 0.29336548 20.853806 1.4298706 26.106384 0.9529724c5.2525787 -0.4769287 4.507553 -1.2714844 5.4090576 -3.8144226c0.9015045 -2.5429382 0.47032166 -7.151703 0 -11.443237c-0.4703064 -4.2915344 -1.900711 -10.014252 -2.8218842 -14.306c-0.92118835 -4.2917786 -1.9798279 -6.7555237 -2.705185 -11.44455c-0.72535706 -4.6890564 -1.078537 -11.205872 -1.6469727 -16.689697c-0.5684509 -5.4838257 -0.6464691 -11.921661 -1.7636871 -16.213226c-1.117218 -4.2915344 -2.50914 -6.714813 -4.9396057 -9.536011c-2.430481 -2.821228 -7.6048126 -5.265259 -9.643204 -7.3912354c-2.038391 -2.1259766 -2.0386047 -3.5766296 -2.5871735 -5.3645935z" fill-rule="evenodd"/><path stroke="#000000" stroke-width="2.0" stroke-linejoin="round" stroke-linecap="butt" d="m217.0881 269.2687c-0.54855347 -1.7879944 -0.07714844 -4.270752 -0.70414734 -5.3632812c-0.62701416 -1.0925293 -0.27471924 -1.1124268 -3.0579224 -1.1918335c-2.7832031 -0.07940674 -11.01503 -0.27804565 -13.641312 0.71536255c-2.6262817 0.9934082 -1.4109497 3.6956177 -2.1164093 5.2451477c-0.70547485 1.54953 -1.0188751 2.7011108 -2.1164246 4.0519714c-1.0975494 1.3508911 -2.9790192 3.1791382 -4.468857 4.053314c-1.4898376 0.87420654 -3.254837 0.43688965 -4.4701843 1.1918335c-1.215332 0.75497437 -2.508484 1.3907166 -2.8218842 3.3379517c-0.31340027 1.9472351 0.43185425 3.6168518 0.9414978 8.3454895c0.5096588 4.7286377 1.4500732 14.979828 2.1164246 20.026306c0.6663513 5.046509 1.9992676 6.199402 1.8816986 10.252716c-0.11758423 4.053314 -0.9799652 9.060211 -2.5871735 14.067108c-1.607193 5.0069275 -5.3802032 11.699432 -7.0560303 15.974335c-1.675827 4.2749023 -3.3221436 7.3857727 -2.9989166 9.675171c0.3232422 2.2893982 -1.0103455 3.2497559 4.9383087 4.0611877c5.948654 0.81140137 21.276932 0.513855 30.753601 0.80722046c9.476654 0.29336548 20.853806 1.4298706 26.106384 0.9529724c5.2525787 -0.4769287 4.507553 -1.2714844 5.4090576 -3.8144226c0.9015045 -2.5429382 0.47032166 -7.151703 0 -11.443237c-0.4703064 -4.2915344 -1.900711 -10.014252 -2.8218842 -14.306c-0.92118835 -4.2917786 -1.9798279 -6.7555237 -2.705185 -11.44455c-0.72535706 -4.6890564 -1.078537 -11.205872 -1.6469727 -16.689697c-0.5684509 -5.4838257 -0.6464691 -11.921661 -1.7636871 -16.213226c-1.117218 -4.2915344 -2.50914 -6.714813 -4.9396057 -9.536011c-2.430481 -2.821228 -7.6048126 -5.265259 -9.643204 -7.3912354c-2.038391 -2.1259766 -2.0386047 -3.5766296 -2.5871735 -5.3645935z" fill-rule="evenodd"/><path fill="#cfe2f3" d="m142.2939 222.22008c-0.862381 -0.6670227 -3.5277863 -3.4527893 -5.1743317 -4.002121c-1.6465454 -0.5493164 -3.4895477 -0.11790466 -4.704895 0.70617676c-1.2153473 0.8240967 -1.9992676 2.7472687 -2.5871735 4.238388c-0.5878906 1.4911041 -1.4498444 2.5501556 -0.94018555 4.7082825c0.5096588 2.158142 2.743866 6.082367 3.998108 8.240494c1.254242 2.158142 2.0770874 3.2171783 3.527359 4.7082977c1.4502869 1.4911041 2.939911 3.4928284 5.1743317 4.238373c2.234436 0.7455597 6.4681396 0.7845001 8.232254 0.23495483c1.7641296 -0.54953 1.9603729 -2.9434967 2.3524475 -3.532196" fill-rule="evenodd"/><path stroke="#000000" stroke-width="2.0" stroke-linejoin="round" stroke-linecap="butt" d="m142.2939 222.22008c-0.862381 -0.6670227 -3.5277863 -3.4527893 -5.1743317 -4.002121c-1.6465454 -0.5493164 -3.4895477 -0.11790466 -4.704895 0.70617676c-1.2153473 0.8240967 -1.9992676 2.7472687 -2.5871735 4.238388c-0.5878906 1.4911041 -1.4498444 2.5501556 -0.94018555 4.7082825c0.5096588 2.158142 2.743866 6.082367 3.998108 8.240494c1.254242 2.158142 2.0770874 3.2171783 3.527359 4.7082977c1.4502869 1.4911041 2.939911 3.4928284 5.1743317 4.238373c2.234436 0.7455597 6.4681396 0.7845001 8.232254 0.23495483c1.7641296 -0.54953 1.9603729 -2.9434967 2.3524475 -3.532196" fill-rule="evenodd"/><path fill="#cfe2f3" d="m135.74968 231.18271c-0.27450562 -0.31391907 -1.6076355 -0.86346436 -1.6469727 -1.8835754c-0.03933716 -1.0201111 0.705246 -3.7662811 1.4109344 -4.2370605c0.7056885 -0.47079468 1.4120331 0.078308105 2.8231964 1.4123535c1.4111633 1.3340302 4.5855713 4.5514374 5.6437836 6.591873c1.0582123 2.0404205 0.5878906 4.7089386 0.70547485 5.6507263" fill-rule="evenodd"/><path stroke="#000000" stroke-width="2.0" stroke-linejoin="round" stroke-linecap="butt" d="m135.74968 231.18271c-0.27450562 -0.31391907 -1.6076355 -0.86346436 -1.6469727 -1.8835754c-0.03933716 -1.0201111 0.705246 -3.7662811 1.4109344 -4.2370605c0.7056885 -0.47079468 1.4120331 0.078308105 2.8231964 1.4123535c1.4111633 1.3340302 4.5855713 4.5514374 5.6437836 6.591873c1.0582123 2.0404205 0.5878906 4.7089386 0.70547485 5.6507263" fill-rule="evenodd"/><path fill="#cfe2f3" d="m194.05916 289.5504c-1.7639008 4.74765 -8.172592 22.188385 -10.583389 28.485992c-2.410797 6.297638 -2.0390472 7.730133 -3.8814087 9.299774c-1.8423615 1.5696411 -4.644348 1.2953186 -7.1727295 0.118133545c-2.5283813 -1.177185 -9.291336 -0.11834717 -7.9975433 -7.181244c1.293808 -7.062866 11.17392 -27.799713 15.760361 -35.196014c4.586441 -7.3962708 9.798584 -7.6513367 11.758301 -9.18161" fill-rule="evenodd"/><path stroke="#000000" stroke-width="2.0" stroke-linejoin="round" stroke-linecap="butt" d="m194.05916 289.5504c-1.7639008 4.74765 -8.172592 22.188385 -10.583389 28.485992c-2.410797 6.297638 -2.0390472 7.730133 -3.8814087 9.299774c-1.8423615 1.5696411 -4.644348 1.2953186 -7.1727295 0.118133545c-2.5283813 -1.177185 -9.291336 -0.11834717 -7.9975433 -7.181244c1.293808 -7.062866 11.17392 -27.799713 15.760361 -35.196014c4.586441 -7.3962708 9.798584 -7.6513367 11.758301 -9.18161" fill-rule="evenodd"/><path fill="#cfe2f3" d="m182.16016 321.44846c-1.6664276 4.453003 -7.7440186 20.734467 -9.998566 26.717926c-2.2545319 5.98349 -1.6863098 7.613312 -3.528656 9.182953c-1.8423615 1.5696411 -4.977646 1.4121399 -7.525482 0.23495483c-2.547821 -1.177185 -7.722809 -2.7468262 -7.761505 -7.2980347c-0.03868103 -4.551239 5.4905853 -14.241699 7.5294037 -20.009277c2.0388336 -5.7675476 3.9196625 -12.163391 4.703598 -14.596069" fill-rule="evenodd"/><path stroke="#000000" stroke-width="2.0" stroke-linejoin="round" stroke-linecap="butt" d="m182.16016 321.44846c-1.6664276 4.453003 -7.7440186 20.734467 -9.998566 26.717926c-2.2545319 5.98349 -1.6863098 7.613312 -3.528656 9.182953c-1.8423615 1.5696411 -4.977646 1.4121399 -7.525482 0.23495483c-2.547821 -1.177185 -7.722809 -2.7468262 -7.761505 -7.2980347c-0.03868103 -4.551239 5.4905853 -14.241699 7.5294037 -20.009277c2.0388336 -5.7675476 3.9196625 -12.163391 4.703598 -14.596069" fill-rule="evenodd"/><path fill="#cfe2f3" d="m154.8768 344.63666c-1.2002563 1.7761536 -5.3338776 7.476349 -7.201584 10.656982c-1.8677063 3.1806335 -3.6709442 5.7660217 -4.004669 8.42688c-0.33370972 2.6608582 0.7046051 5.6166077 2.0023346 7.538269c1.2977448 1.9216309 3.48497 3.585144 5.784088 3.9916077c2.299118 0.40646362 6.2255554 -0.5510864 8.010651 -1.5528259c1.7850952 -1.001709 2.0539093 -2.9887695 2.699936 -4.4575806c0.6460266 -1.4687805 0.72535706 -4.3355103 1.1762238 -4.355194c0.4508667 -0.019683838 0.76579285 3.2117004 1.5289612 4.2370605c0.76316833 1.0253601 2.0112915 1.7973938 3.0500488 1.9151001c1.0387573 0.11767578 2.7696533 0.30691528 3.182495 -1.2089233c0.41282654 -1.5158386 -0.54878235 -5.5122375 -0.70547485 -7.886078c-0.1566925 -2.3738403 -0.43075562 -4.316498 -0.23472595 -6.3569336c0.19604492 -2.0404053 1.1757965 -4.904724 1.4109497 -5.885681" fill-rule="evenodd"/><path stroke="#000000" stroke-width="2.0" stroke-linejoin="round" stroke-linecap="butt" d="m154.8768 344.63666c-1.2002563 1.7761536 -5.3338776 7.476349 -7.201584 10.656982c-1.8677063 3.1806335 -3.6709442 5.7660217 -4.004669 8.42688c-0.33370972 2.6608582 0.7046051 5.6166077 2.0023346 7.538269c1.2977448 1.9216309 3.48497 3.585144 5.784088 3.9916077c2.299118 0.40646362 6.2255554 -0.5510864 8.010651 -1.5528259c1.7850952 -1.001709 2.0539093 -2.9887695 2.699936 -4.4575806c0.6460266 -1.4687805 0.72535706 -4.3355103 1.1762238 -4.355194c0.4508667 -0.019683838 0.76579285 3.2117004 1.5289612 4.2370605c0.76316833 1.0253601 2.0112915 1.7973938 3.0500488 1.9151001c1.0387573 0.11767578 2.7696533 0.30691528 3.182495 -1.2089233c0.41282654 -1.5158386 -0.54878235 -5.5122375 -0.70547485 -7.886078c-0.1566925 -2.3738403 -0.43075562 -4.316498 -0.23472595 -6.3569336c0.19604492 -2.0404053 1.1757965 -4.904724 1.4109497 -5.885681" fill-rule="evenodd"/><path fill="#cfe2f3" d="m177.87451 352.68765c-0.22877502 0.7187195 -1.1854706 2.6351929 -1.3726959 4.3123474c-0.18722534 1.6771545 -1.708664 4.1671143 0.24934387 5.7506714c1.9580078 1.5835266 5.915573 2.9588623 11.498688 3.7506409c5.5831146 0.79177856 14.291336 0.8753357 22.0 1.0c7.708664 0.12466431 18.668411 0.20648193 24.251968 -0.25198364c5.583542 -0.45843506 7.718277 -1.0822144 9.249344 -2.4986572c1.5310516 -1.4164734 -0.021438599 -4.2917786 -0.06300354 -6.0c-0.041549683 -1.708252 -0.1552887 -3.5411377 -0.18634033 -4.249359" fill-rule="evenodd"/><path stroke="#000000" stroke-width="2.0" stroke-linejoin="round" stroke-linecap="butt" d="m177.87451 352.68765c-0.22877502 0.7187195 -1.1854706 2.6351929 -1.3726959 4.3123474c-0.18722534 1.6771545 -1.708664 4.1671143 0.24934387 5.7506714c1.9580078 1.5835266 5.915573 2.9588623 11.498688 3.7506409c5.5831146 0.79177856 14.291336 0.8753357 22.0 1.0c7.708664 0.12466431 18.668411 0.20648193 24.251968 -0.25198364c5.583542 -0.45843506 7.718277 -1.0822144 9.249344 -2.4986572c1.5310516 -1.4164734 -0.021438599 -4.2917786 -0.06300354 -6.0c-0.041549683 -1.708252 -0.1552887 -3.5411377 -0.18634033 -4.249359" fill-rule="evenodd"/><path fill="#cfe2f3" d="m175.98787 358.6453c-0.12741089 3.7080994 -0.5194855 15.322845 -0.7644806 22.248566c-0.24499512 6.9256897 -0.39186096 13.184387 -0.70547485 19.305695c-0.3136139 6.121277 -1.5289612 13.733704 -1.1762238 17.42212c0.35273743 3.688385 1.6069794 3.6096191 3.292633 4.7082825c1.685669 1.0986328 3.9205322 1.4911194 6.8213196 1.8835754c2.9007874 0.39245605 7.721939 0.6282959 10.583389 0.47122192c2.8614502 -0.15707397 4.860504 -0.5895691 6.5852814 -1.4136658c1.7247772 -0.8240967 2.901001 -1.9223022 3.763382 -3.5308838c0.86239624 -1.6086121 0.47010803 0.7855835 1.4109497 -6.1206665c0.9408417 -6.9062195 3.254181 -26.684021 4.234146 -35.316772c0.9799652 -8.632721 1.3713837 -13.733063 1.6456604 -16.479675" fill-rule="evenodd"/><path stroke="#000000" stroke-width="2.0" stroke-linejoin="round" stroke-linecap="butt" d="m175.98787 358.6453c-0.12741089 3.7080994 -0.5194855 15.322845 -0.7644806 22.248566c-0.24499512 6.9256897 -0.39186096 13.184387 -0.70547485 19.305695c-0.3136139 6.121277 -1.5289612 13.733704 -1.1762238 17.42212c0.35273743 3.688385 1.6069794 3.6096191 3.292633 4.7082825c1.685669 1.0986328 3.9205322 1.4911194 6.8213196 1.8835754c2.9007874 0.39245605 7.721939 0.6282959 10.583389 0.47122192c2.8614502 -0.15707397 4.860504 -0.5895691 6.5852814 -1.4136658c1.7247772 -0.8240967 2.901001 -1.9223022 3.763382 -3.5308838c0.86239624 -1.6086121 0.47010803 0.7855835 1.4109497 -6.1206665c0.9408417 -6.9062195 3.254181 -26.684021 4.234146 -35.316772c0.9799652 -8.632721 1.3713837 -13.733063 1.6456604 -16.479675" fill-rule="evenodd"/><path fill="#cfe2f3" d="m173.34267 413.37918c-0.2351532 2.0795898 -1.1364441 7.2588806 -1.4109344 12.47757c-0.27450562 5.2186584 -0.2557068 12.928864 -0.23603821 18.834473c0.01966858 5.9055786 0.079559326 12.94986 0.35404968 16.599121c0.27449036 3.649231 0.13659668 4.0996704 1.292923 5.2963257c1.1563416 1.1966553 2.3131104 1.4519348 5.645096 1.8835754c3.3319702 0.4316101 11.054138 1.1377869 14.346771 0.70617676c3.2926483 -0.43164062 4.311508 -1.6871338 5.4090576 -3.295929c1.0975494 -1.6088257 0.9801941 -4.0025635 1.1762238 -6.3569336c0.19604492 -2.3543396 -0.35273743 -4.1593933 0 -7.7692566c0.35273743 -3.6098633 1.332489 -8.828308 2.1164246 -13.889923c0.7839203 -5.0615845 1.999054 -12.595032 2.5871582 -16.479675c0.5881195 -3.884613 0.7845917 -5.690094 0.94151306 -6.828125" fill-rule="evenodd"/><path stroke="#000000" stroke-width="2.0" stroke-linejoin="round" stroke-linecap="butt" d="m173.34267 413.37918c-0.2351532 2.0795898 -1.1364441 7.2588806 -1.4109344 12.47757c-0.27450562 5.2186584 -0.2557068 12.928864 -0.23603821 18.834473c0.01966858 5.9055786 0.079559326 12.94986 0.35404968 16.599121c0.27449036 3.649231 0.13659668 4.0996704 1.292923 5.2963257c1.1563416 1.1966553 2.3131104 1.4519348 5.645096 1.8835754c3.3319702 0.4316101 11.054138 1.1377869 14.346771 0.70617676c3.2926483 -0.43164062 4.311508 -1.6871338 5.4090576 -3.295929c1.0975494 -1.6088257 0.9801941 -4.0025635 1.1762238 -6.3569336c0.19604492 -2.3543396 -0.35273743 -4.1593933 0 -7.7692566c0.35273743 -3.6098633 1.332489 -8.828308 2.1164246 -13.889923c0.7839203 -5.0615845 1.999054 -12.595032 2.5871582 -16.479675c0.5881195 -3.884613 0.7845917 -5.690094 0.94151306 -6.828125" fill-rule="evenodd"/><path fill="#cfe2f3" d="m171.93114 459.4044c0.058792114 1.0004272 -0.27449036 3.7072144 0.35273743 6.002533c0.6272278 2.295288 2.019165 5.728821 3.4106598 7.7692566c1.3914948 2.0404358 3.3311005 3.4138489 4.9382935 4.4733276c1.6072083 1.0595093 2.35289 1.4911194 4.704895 1.883606c2.3520203 0.39245605 6.898468 0.510376 9.407166 0.47122192c2.5087128 -0.03918457 4.390625 -0.23519897 5.645096 -0.70617676c1.2544556 -0.4710083 1.7641144 -1.138916 1.8816986 -2.119873c0.11756897 -0.9809265 -0.70570374 -1.7256165 -1.1762238 -3.7658386c-0.47053528 -2.0402222 -1.450943 -6.2387695 -1.6469879 -8.475433c-0.19602966 -2.2366638 0.39230347 -4.1204834 0.47076416 -4.94458" fill-rule="evenodd"/><path stroke="#000000" stroke-width="2.0" stroke-linejoin="round" stroke-linecap="butt" d="m171.93114 459.4044c0.058792114 1.0004272 -0.27449036 3.7072144 0.35273743 6.002533c0.6272278 2.295288 2.019165 5.728821 3.4106598 7.7692566c1.3914948 2.0404358 3.3311005 3.4138489 4.9382935 4.4733276c1.6072083 1.0595093 2.35289 1.4911194 4.704895 1.883606c2.3520203 0.39245605 6.898468 0.510376 9.407166 0.47122192c2.5087128 -0.03918457 4.390625 -0.23519897 5.645096 -0.70617676c1.2544556 -0.4710083 1.7641144 -1.138916 1.8816986 -2.119873c0.11756897 -0.9809265 -0.70570374 -1.7256165 -1.1762238 -3.7658386c-0.47053528 -2.0402222 -1.450943 -6.2387695 -1.6469879 -8.475433c-0.19602966 -2.2366638 0.39230347 -4.1204834 0.47076416 -4.94458" fill-rule="evenodd"/><path fill="#cfe2f3" d="m209.80183 359.58652c0.30749512 3.736969 1.0536194 15.501556 1.844986 22.421783c0.7913513 6.9202576 2.0707397 13.026886 2.903183 19.09964c0.83244324 6.0727234 1.0575562 13.778778 2.091507 17.336792c1.0339508 3.558014 2.25148 3.2464905 4.1121826 4.0112915c1.8607178 0.764801 4.1290283 0.7335205 7.052109 0.57754517c2.9230652 -0.15597534 7.704239 -0.82473755 10.486343 -1.5134277c2.7821198 -0.68865967 4.665344 -1.4869385 6.206314 -2.6186218c1.5409851 -1.1316833 2.4918823 -2.4300537 3.039566 -4.1714478c0.5476837 -1.7413635 0.60887146 0.68408203 0.246521 -6.276825c-0.36235046 -6.9609375 -1.7346039 -26.951813 -2.4206238 -35.48874c-0.68603516 -8.536926 -1.4129181 -13.110657 -1.6954956 -15.732788" fill-rule="evenodd"/><path stroke="#000000" stroke-width="2.0" stroke-linejoin="round" stroke-linecap="butt" d="m209.80183 359.58652c0.30749512 3.736969 1.0536194 15.501556 1.844986 22.421783c0.7913513 6.9202576 2.0707397 13.026886 2.903183 19.09964c0.83244324 6.0727234 1.0575562 13.778778 2.091507 17.336792c1.0339508 3.558014 2.25148 3.2464905 4.1121826 4.0112915c1.8607178 0.764801 4.1290283 0.7335205 7.052109 0.57754517c2.9230652 -0.15597534 7.704239 -0.82473755 10.486343 -1.5134277c2.7821198 -0.68865967 4.665344 -1.4869385 6.206314 -2.6186218c1.5409851 -1.1316833 2.4918823 -2.4300537 3.039566 -4.1714478c0.5476837 -1.7413635 0.60887146 0.68408203 0.246521 -6.276825c-0.36235046 -6.9609375 -1.7346039 -26.951813 -2.4206238 -35.48874c-0.68603516 -8.536926 -1.4129181 -13.110657 -1.6954956 -15.732788" fill-rule="evenodd"/><path fill="#cfe2f3" d="m215.84416 414.27484c0.15649414 2.086914 0.23612976 7.343384 0.9389801 12.521484c0.70285034 5.1781006 2.1582031 12.749115 3.278122 18.54712c1.1199036 5.798004 2.4915314 12.707153 3.44133 16.240936c0.9497986 3.5337524 0.89823914 4.002014 2.2574615 4.96167c1.3592072 0.95965576 2.5434113 0.9944458 5.897812 0.7962036c3.3543854 -0.19821167 11.073685 -0.9465637 14.228546 -1.9854736c3.1548615 -1.0389404 3.9220123 -2.462616 4.7006226 -4.2480774c0.7786102 -1.7854614 0.2171936 -4.1151733 -0.028945923 -6.4647217c-0.24613953 -2.3495483 -1.1217499 -4.020355 -1.4479065 -7.6325684c-0.32614136 -3.6122131 -0.33598328 -8.921814 -0.5090027 -14.040741c-0.17300415 -5.118927 -0.3829956 -12.746735 -0.52908325 -16.672821c-0.14607239 -3.926117 -0.289505 -5.736511 -0.34739685 -6.8838196" fill-rule="evenodd"/><path stroke="#000000" stroke-width="2.0" stroke-linejoin="round" stroke-linecap="butt" d="m215.84416 414.27484c0.15649414 2.086914 0.23612976 7.343384 0.9389801 12.521484c0.70285034 5.1781006 2.1582031 12.749115 3.278122 18.54712c1.1199036 5.798004 2.4915314 12.707153 3.44133 16.240936c0.9497986 3.5337524 0.89823914 4.002014 2.2574615 4.96167c1.3592072 0.95965576 2.5434113 0.9944458 5.897812 0.7962036c3.3543854 -0.19821167 11.073685 -0.9465637 14.228546 -1.9854736c3.1548615 -1.0389404 3.9220123 -2.462616 4.7006226 -4.2480774c0.7786102 -1.7854614 0.2171936 -4.1151733 -0.028945923 -6.4647217c-0.24613953 -2.3495483 -1.1217499 -4.020355 -1.4479065 -7.6325684c-0.32614136 -3.6122131 -0.33598328 -8.921814 -0.5090027 -14.040741c-0.17300415 -5.118927 -0.3829956 -12.746735 -0.52908325 -16.672821c-0.14607239 -3.926117 -0.289505 -5.736511 -0.34739685 -6.8838196" fill-rule="evenodd"/><path fill="#cfe2f3" d="m223.02637 459.75754c0.24420166 0.9718323 0.4211731 3.6932373 1.4652405 5.831024c1.0440674 2.1377563 3.0516357 5.250946 4.799164 6.9956055c1.7475281 1.74469 3.909317 2.73172 5.685974 3.472412c1.7766571 0.74069214 2.589798 1.0254822 4.973984 0.97180176c2.384201 -0.05368042 6.873459 -0.78689575 9.331177 -1.2938538c2.457718 -0.5069885 4.27034 -1.0509949 5.4151764 -1.7479858c1.1448364 -0.69696045 1.5211487 -1.4483032 1.4538574 -2.4339294c-0.06726074 -0.98565674 -1.0149841 -1.5634766 -1.857544 -3.4799194c-0.8425598 -1.9164429 -2.5883484 -5.8580627 -3.1977997 -8.018738c-0.6094513 -2.1607056 -0.3824463 -4.121216 -0.45892334 -4.945465" fill-rule="evenodd"/><path stroke="#000000" stroke-width="2.0" stroke-linejoin="round" stroke-linecap="butt" d="m223.02637 459.75754c0.24420166 0.9718323 0.4211731 3.6932373 1.4652405 5.831024c1.0440674 2.1377563 3.0516357 5.250946 4.799164 6.9956055c1.7475281 1.74469 3.909317 2.73172 5.685974 3.472412c1.7766571 0.74069214 2.589798 1.0254822 4.973984 0.97180176c2.384201 -0.05368042 6.873459 -0.78689575 9.331177 -1.2938538c2.457718 -0.5069885 4.27034 -1.0509949 5.4151764 -1.7479858c1.1448364 -0.69696045 1.5211487 -1.4483032 1.4538574 -2.4339294c-0.06726074 -0.98565674 -1.0149841 -1.5634766 -1.857544 -3.4799194c-0.8425598 -1.9164429 -2.5883484 -5.8580627 -3.1977997 -8.018738c-0.6094513 -2.1607056 -0.3824463 -4.121216 -0.45892334 -4.945465" fill-rule="evenodd"/><path fill="#cfe2f3" d="m122.262115 251.49248c-0.21959686 -1.7174072 -0.35957336 -6.2957153 -1.3175812 -10.304459c-0.9580078 -4.0087433 -3.0109406 -9.377518 -4.4304504 -13.748032c-1.4195099 -4.370514 -2.9553757 -8.497818 -4.086609 -12.475067c-1.1312332 -3.9772491 -2.073494 -6.576996 -2.7007904 -11.388443c-0.62729645 -4.8114624 -1.2432175 -11.327652 -1.0629883 -17.480316c0.18022156 -6.1526794 0.86395264 -13.305786 2.1443558 -19.4357c1.2804031 -6.1299286 2.696846 -11.765533 5.5380554 -17.343842c2.8412094 -5.578293 7.2318497 -11.709534 11.509186 -16.125977c4.277336 -4.416443 9.987312 -7.975067 14.154854 -10.372704c4.1675415 -2.3976364 7.0533752 -2.945755 10.850403 -4.0131226c3.7970123 -1.0673676 9.691589 -3.7161026 11.931747 -2.3910751c2.240158 1.3250198 1.2528534 10.122047 1.5091858 10.341202c0.25634766 0.21916199 -1.1242218 -6.3171463 0.028869629 -9.026245c1.1531067 -2.7090988 3.8280945 -4.8398895 6.8897705 -7.228348c3.061676 -2.3884506 7.8167114 -5.5384903 11.480316 -7.102356c3.6636047 -1.5638733 5.7550354 -1.9750671 10.501312 -2.2808456c4.746277 -0.30577087 12.17366 -0.6338577 17.97638 0.4461975c5.802704 1.0800552 11.248032 3.424759 16.83989 6.0341187c5.591873 2.6093597 11.683289 5.7222214 16.711288 9.622047c5.028 3.899826 9.431763 9.713036 13.456696 13.776901c4.024933 4.0638733 7.164032 8.215668 10.692902 10.606308c3.5288696 2.3906403 7.377533 3.0393677 10.480316 3.7375336c3.1028137 0.69815063 7.939209 -0.22441101 8.136505 0.45143127c0.19726562 0.67585754 -4.6872253 2.8267822 -6.952759 3.6036835c-2.2655334 0.77690125 -4.7244263 1.1797943 -6.640442 1.0577393c-1.9159851 -0.122039795 -5.2322693 -2.5691223 -4.8556213 -1.7900238c0.37661743 0.77908325 4.31015 3.1504822 7.1154785 6.464569c2.8053284 3.314087 7.3827515 9.264648 9.716522 13.419937c2.3337708 4.155304 3.572174 7.6194305 4.2861023 11.51181c0.7138977 3.892395 0.45492554 7.619873 -0.0026245117 11.842529c-0.45758057 4.2226562 -1.4501343 9.440506 -2.7427979 13.493439c-1.292633 4.0529327 -2.9059448 7.538925 -5.0131226 10.824142c-2.1071472 3.2852173 -7.6426086 8.784348 -7.6299133 8.887146c0.0126953125 0.10279846 6.6810913 -7.508316 7.7060547 -8.27034c1.0249329 -0.7620392 -1.5065613 2.3031464 -1.5564575 3.6981506c-0.049865723 1.3950195 0.4610901 2.335083 1.2572327 4.671921c0.7961426 2.3368378 2.6789246 6.902893 3.5196838 9.349075c0.8407593 2.4461975 2.3416443 3.2861023 1.5249329 5.3280945c-0.8167114 2.0419922 -3.795288 4.8490753 -6.4252014 6.923874c-2.6299133 2.0748138 -6.036316 3.5231934 -9.35434 5.524948c-3.3179932 2.0017395 -7.7751465 4.1736603 -10.5538025 6.48555c-2.778656 2.3119202 -4.7484436 5.423004 -6.118103 7.3858337c-1.3696442 1.9628296 -2.0739288 4.430023 -2.0997314 4.391083c-0.025817871 -0.03894043 0.46543884 -2.6172485 1.9448853 -4.6246643c1.4794312 -2.0074463 3.8053284 -5.0450745 6.9317627 -7.4199524c3.1264038 -2.3749084 10.913391 -6.613312 11.826752 -6.8294067c0.9133911 -0.21609497 -4.4295654 3.3464508 -6.3464355 5.5328064c-1.9169006 2.1863403 -4.0538025 5.132538 -5.1548767 7.5852966c-1.1010437 2.4527588 -1.7720947 4.924774 -1.4514465 7.131256c0.3206482 2.2064514 2.2480469 4.74057 3.3753357 6.107605c1.1272888 1.3670044 2.4597473 0.90200806 3.3884583 2.0944824c0.9286804 1.1924744 2.0100708 3.118103 2.1837158 5.060364c0.17367554 1.9422607 0.41513062 4.3670044 -1.1417236 6.59317c-1.5568542 2.2261658 -5.6841736 4.4317627 -8.199463 6.763794c-2.5153198 2.3320007 -5.5923157 4.9501343 -6.892395 7.2283325c-1.3000946 2.2782288 -1.2283478 4.067383 -0.9081421 6.4409485c0.3202057 2.3735962 1.0761108 5.068695 2.8294067 7.800537c1.7532654 2.731842 8.359558 8.425201 7.690277 8.590546c-0.669281 0.16534424 -8.428253 -5.125122 -11.706039 -7.598419c-3.277771 -2.4733276 -6.14917 -4.7987976 -7.960617 -7.2414856c-1.8114624 -2.442688 -2.5315094 -4.6614075 -2.908142 -7.4147034c-0.37664795 -2.7532654 -0.09361267 -6.277771 0.6482849 -9.10498c0.74191284 -2.8272095 3.4098969 -5.4295654 3.8031616 -7.8582764c0.39326477 -2.4286804 -0.2099762 -4.556427 -1.443573 -6.7138977c-1.2335968 -2.1574707 -4.3250275 -4.225708 -5.958008 -6.230957c-1.6329803 -2.005249 -3.2698975 -3.175415 -3.8398895 -5.800537c-0.56999207 -2.625122 -0.52230835 -6.963257 0.41993713 -9.950134c0.94226074 -2.9868774 3.162735 -5.8490753 5.233597 -7.9711304c2.070877 -2.1220398 4.3823395 -2.9571228 7.1916046 -4.761154c2.8092804 -1.8040161 6.832901 -3.493866 9.664032 -6.0629883c2.8311462 -2.5691223 5.5577393 -6.265091 7.3228455 -9.3517c1.7651062 -3.0866241 2.963684 -6.5201263 3.2677307 -9.167984c0.3040161 -2.6478577 -0.9501343 -4.377075 -1.443573 -6.719162c-0.49343872 -2.3420868 -1.3888855 -3.1920319 -1.5170593 -7.3333282c-0.12817383 -4.1412964 0.3805542 -13.239288 0.74801636 -17.514435c0.36746216 -4.2751617 1.6089172 -5.596237 1.4566956 -8.13649c-0.15222168 -2.5402374 -0.33377075 -4.449692 -2.3700867 -7.1049805c-2.0362854 -2.655304 -4.268585 -6.320221 -9.847763 -8.826782c-5.579178 -2.5065613 -13.987305 -4.753708 -23.627289 -6.2125854c-9.639984 -1.4588928 -24.001312 -2.7392883 -34.2126 -2.5406952c-10.211288 0.1986084 -20.187668 1.548996 -27.055115 3.7322845c-6.867462 2.1832886 -10.549438 5.4829407 -14.149612 9.367462c-3.600174 3.8845062 -5.226166 7.935257 -7.4514465 13.939636c-2.2252808 6.004364 -5.074356 17.202972 -5.9002533 22.086609c-0.8258972 4.8836365 -0.12205505 5.0577393 0.94487 7.215225c1.0669403 2.1574707 4.706482 3.1675415 5.4566956 5.72966c0.7502289 2.5621185 -0.38757324 8.989059 -0.9553833 9.643036c-0.5677948 0.65397644 -1.4413757 -3.9409485 -2.4514313 -5.719162c-1.0100708 -1.7782135 -2.2567902 -3.6089172 -3.6089325 -4.950119c-1.3521423 -1.341217 -2.5726166 -2.7777863 -4.503937 -3.0971222c-1.9313202 -0.31933594 -5.5590515 0.57437134 -7.0839844 1.1811066c-1.5249329 0.6067352 -1.4265137 1.5905457 -2.0656128 2.45932c-0.6391144 0.86875916 -0.6264343 3.6395416 -1.7690353 2.7532806c-1.1426086 -0.886261 -3.550743 -4.8460236 -5.0866165 -8.070877c-1.5358658 -3.2248383 -3.459755 -7.3285217 -4.1286087 -11.2782135c-0.66885376 -3.9496918 -0.14829254 -8.325012 0.115486145 -12.419937c0.2637787 -4.094925 1.0021896 -9.534119 1.4671936 -12.149612c0.46500397 -2.6154785 1.5643005 -4.7322845 1.3228302 -3.5433044c-0.24146271 1.1889801 -2.2497787 6.300522 -2.7716522 10.67717c-0.5218735 4.3766327 -1.1395416 10.371826 -0.359581 15.582672c0.77996826 5.210846 3.5153122 11.870071 5.0393753 15.682419c1.5240555 3.8123322 3.4208221 5.992996 4.104988 7.1915894" fill-rule="evenodd"/><path stroke="#000000" stroke-width="2.0" stroke-linejoin="round" stroke-linecap="butt" d="m122.262115 251.49248c-0.21959686 -1.7174072 -0.35957336 -6.2957153 -1.3175812 -10.304459c-0.9580078 -4.0087433 -3.0109406 -9.377518 -4.4304504 -13.748032c-1.4195099 -4.370514 -2.9553757 -8.497818 -4.086609 -12.475067c-1.1312332 -3.9772491 -2.073494 -6.576996 -2.7007904 -11.388443c-0.62729645 -4.8114624 -1.2432175 -11.327652 -1.0629883 -17.480316c0.18022156 -6.1526794 0.86395264 -13.305786 2.1443558 -19.4357c1.2804031 -6.1299286 2.696846 -11.765533 5.5380554 -17.343842c2.8412094 -5.578293 7.2318497 -11.709534 11.509186 -16.125977c4.277336 -4.416443 9.987312 -7.975067 14.154854 -10.372704c4.1675415 -2.3976364 7.0533752 -2.945755 10.850403 -4.0131226c3.7970123 -1.0673676 9.691589 -3.7161026 11.931747 -2.3910751c2.240158 1.3250198 1.2528534 10.122047 1.5091858 10.341202c0.25634766 0.21916199 -1.1242218 -6.3171463 0.028869629 -9.026245c1.1531067 -2.7090988 3.8280945 -4.8398895 6.8897705 -7.228348c3.061676 -2.3884506 7.8167114 -5.5384903 11.480316 -7.102356c3.6636047 -1.5638733 5.7550354 -1.9750671 10.501312 -2.2808456c4.746277 -0.30577087 12.17366 -0.6338577 17.97638 0.4461975c5.802704 1.0800552 11.248032 3.424759 16.83989 6.0341187c5.591873 2.6093597 11.683289 5.7222214 16.711288 9.622047c5.028 3.899826 9.431763 9.713036 13.456696 13.776901c4.024933 4.0638733 7.164032 8.215668 10.692902 10.606308c3.5288696 2.3906403 7.377533 3.0393677 10.480316 3.7375336c3.1028137 0.69815063 7.939209 -0.22441101 8.136505 0.45143127c0.19726562 0.67585754 -4.6872253 2.8267822 -6.952759 3.6036835c-2.2655334 0.77690125 -4.7244263 1.1797943 -6.640442 1.0577393c-1.9159851 -0.122039795 -5.2322693 -2.5691223 -4.8556213 -1.7900238c0.37661743 0.77908325 4.31015 3.1504822 7.1154785 6.464569c2.8053284 3.314087 7.3827515 9.264648 9.716522 13.419937c2.3337708 4.155304 3.572174 7.6194305 4.2861023 11.51181c0.7138977 3.892395 0.45492554 7.619873 -0.0026245117 11.842529c-0.45758057 4.2226562 -1.4501343 9.440506 -2.7427979 13.493439c-1.292633 4.0529327 -2.9059448 7.538925 -5.0131226 10.824142c-2.1071472 3.2852173 -7.6426086 8.784348 -7.6299133 8.887146c0.0126953125 0.10279846 6.6810913 -7.508316 7.7060547 -8.27034c1.0249329 -0.7620392 -1.5065613 2.3031464 -1.5564575 3.6981506c-0.049865723 1.3950195 0.4610901 2.335083 1.2572327 4.671921c0.7961426 2.3368378 2.6789246 6.902893 3.5196838 9.349075c0.8407593 2.4461975 2.3416443 3.2861023 1.5249329 5.3280945c-0.8167114 2.0419922 -3.795288 4.8490753 -6.4252014 6.923874c-2.6299133 2.0748138 -6.036316 3.5231934 -9.35434 5.524948c-3.3179932 2.0017395 -7.7751465 4.1736603 -10.5538025 6.48555c-2.778656 2.3119202 -4.7484436 5.423004 -6.118103 7.3858337c-1.3696442 1.9628296 -2.0739288 4.430023 -2.0997314 4.391083c-0.025817871 -0.03894043 0.46543884 -2.6172485 1.9448853 -4.6246643c1.4794312 -2.0074463 3.8053284 -5.0450745 6.9317627 -7.4199524c3.1264038 -2.3749084 10.913391 -6.613312 11.826752 -6.8294067c0.9133911 -0.21609497 -4.4295654 3.3464508 -6.3464355 5.5328064c-1.9169006 2.1863403 -4.0538025 5.132538 -5.1548767 7.5852966c-1.1010437 2.4527588 -1.7720947 4.924774 -1.4514465 7.131256c0.3206482 2.2064514 2.2480469 4.74057 3.3753357 6.107605c1.1272888 1.3670044 2.4597473 0.90200806 3.3884583 2.0944824c0.9286804 1.1924744 2.0100708 3.118103 2.1837158 5.060364c0.17367554 1.9422607 0.41513062 4.3670044 -1.1417236 6.59317c-1.5568542 2.2261658 -5.6841736 4.4317627 -8.199463 6.763794c-2.5153198 2.3320007 -5.5923157 4.9501343 -6.892395 7.2283325c-1.3000946 2.2782288 -1.2283478 4.067383 -0.9081421 6.4409485c0.3202057 2.3735962 1.0761108 5.068695 2.8294067 7.800537c1.7532654 2.731842 8.359558 8.425201 7.690277 8.590546c-0.669281 0.16534424 -8.428253 -5.125122 -11.706039 -7.598419c-3.277771 -2.4733276 -6.14917 -4.7987976 -7.960617 -7.2414856c-1.8114624 -2.442688 -2.5315094 -4.6614075 -2.908142 -7.4147034c-0.37664795 -2.7532654 -0.09361267 -6.277771 0.6482849 -9.10498c0.74191284 -2.8272095 3.4098969 -5.4295654 3.8031616 -7.8582764c0.39326477 -2.4286804 -0.2099762 -4.556427 -1.443573 -6.7138977c-1.2335968 -2.1574707 -4.3250275 -4.225708 -5.958008 -6.230957c-1.6329803 -2.005249 -3.2698975 -3.175415 -3.8398895 -5.800537c-0.56999207 -2.625122 -0.52230835 -6.963257 0.41993713 -9.950134c0.94226074 -2.9868774 3.162735 -5.8490753 5.233597 -7.9711304c2.070877 -2.1220398 4.3823395 -2.9571228 7.1916046 -4.761154c2.8092804 -1.8040161 6.832901 -3.493866 9.664032 -6.0629883c2.8311462 -2.5691223 5.5577393 -6.265091 7.3228455 -9.3517c1.7651062 -3.0866241 2.963684 -6.5201263 3.2677307 -9.167984c0.3040161 -2.6478577 -0.9501343 -4.377075 -1.443573 -6.719162c-0.49343872 -2.3420868 -1.3888855 -3.1920319 -1.5170593 -7.3333282c-0.12817383 -4.1412964 0.3805542 -13.239288 0.74801636 -17.514435c0.36746216 -4.2751617 1.6089172 -5.596237 1.4566956 -8.13649c-0.15222168 -2.5402374 -0.33377075 -4.449692 -2.3700867 -7.1049805c-2.0362854 -2.655304 -4.268585 -6.320221 -9.847763 -8.826782c-5.579178 -2.5065613 -13.987305 -4.753708 -23.627289 -6.2125854c-9.639984 -1.4588928 -24.001312 -2.7392883 -34.2126 -2.5406952c-10.211288 0.1986084 -20.187668 1.548996 -27.055115 3.7322845c-6.867462 2.1832886 -10.549438 5.4829407 -14.149612 9.367462c-3.600174 3.8845062 -5.226166 7.935257 -7.4514465 13.939636c-2.2252808 6.004364 -5.074356 17.202972 -5.9002533 22.086609c-0.8258972 4.8836365 -0.12205505 5.0577393 0.94487 7.215225c1.0669403 2.1574707 4.706482 3.1675415 5.4566956 5.72966c0.7502289 2.5621185 -0.38757324 8.989059 -0.9553833 9.643036c-0.5677948 0.65397644 -1.4413757 -3.9409485 -2.4514313 -5.719162c-1.0100708 -1.7782135 -2.2567902 -3.6089172 -3.6089325 -4.950119c-1.3521423 -1.341217 -2.5726166 -2.7777863 -4.503937 -3.0971222c-1.9313202 -0.31933594 -5.5590515 0.57437134 -7.0839844 1.1811066c-1.5249329 0.6067352 -1.4265137 1.5905457 -2.0656128 2.45932c-0.6391144 0.86875916 -0.6264343 3.6395416 -1.7690353 2.7532806c-1.1426086 -0.886261 -3.550743 -4.8460236 -5.0866165 -8.070877c-1.5358658 -3.2248383 -3.459755 -7.3285217 -4.1286087 -11.2782135c-0.66885376 -3.9496918 -0.14829254 -8.325012 0.115486145 -12.419937c0.2637787 -4.094925 1.0021896 -9.534119 1.4671936 -12.149612c0.46500397 -2.6154785 1.5643005 -4.7322845 1.3228302 -3.5433044c-0.24146271 1.1889801 -2.2497787 6.300522 -2.7716522 10.67717c-0.5218735 4.3766327 -1.1395416 10.371826 -0.359581 15.582672c0.77996826 5.210846 3.5153122 11.870071 5.0393753 15.682419c1.5240555 3.8123322 3.4208221 5.992996 4.104988 7.1915894" fill-rule="evenodd"/><path fill="#cfe2f3" d="m278.69345 214.71277c0.39230347 -2.118454 1.4907532 -1.0199738 1.8830872 -5.6492157c0.39233398 -4.629242 0.9416199 -15.221603 0.4708557 -22.126236c-0.47073364 -6.904648 -1.2554016 -12.710785 -3.2954102 -19.301575c-2.039978 -6.59079 -5.7276917 -14.829315 -8.944611 -20.24318c-3.216919 -5.413864 -5.0215454 -8.081558 -10.356964 -12.240021c-5.3354034 -4.158478 -15.378555 -9.886162 -21.655502 -12.71077c-6.276947 -2.8246078 -10.984619 -3.3737946 -16.006165 -4.2368774c-5.0215454 -0.86307526 -9.729248 -0.78466797 -14.123093 -0.941597c-4.39386 -0.15693665 -7.846176 -0.47077942 -12.240036 0c-4.3938446 0.47077942 -9.258453 1.2554245 -14.123093 2.824669c-4.8646393 1.569252 -10.592361 4.236969 -15.064697 6.5908127c-4.472336 2.353859 -7.6892853 3.6876602 -11.769287 7.53228c-4.080017 3.8446198 -9.493835 9.807724 -12.71077 15.535446c-3.216919 5.727707 -5.1784973 12.396973 -6.590805 18.830826c-1.412323 6.4338684 -1.9615479 13.26001 -1.8830719 19.772324c0.07847595 6.512314 1.3339233 14.044632 2.3539276 19.301575c1.0200195 5.2569275 1.8046265 7.1399994 3.7661438 12.240021c1.9615326 5.1000214 4.629181 12.710861 8.003021 18.360107c3.3738403 5.649231 6.433853 11.376831 12.240021 15.535294c5.8061676 4.158478 15.3785095 7.296997 22.596985 9.415497c7.2184906 2.1184692 11.847733 2.9031067 20.713913 3.2954102c8.86618 0.39230347 23.303177 -6.1035156E-5 32.4832 -0.9416199c9.180038 -0.9415283 16.398514 -2.275299 22.596985 -4.707611c6.198456 -2.432312 10.906128 -5.9631195 14.593842 -9.886215c3.687683 -3.9230957 6.4339294 -9.807739 7.5324097 -13.652359c1.0984497 -3.8446198 -0.78466797 -6.826111 -0.9416199 -9.4153595c-0.15692139 -2.5892334 -0.078430176 -3.9231415 0 -6.1200714c0.07846069 -2.1969452 0.07846069 -4.9430847 0.47073364 -7.061554z" fill-rule="evenodd"/><path stroke="#000000" stroke-width="2.0" stroke-linejoin="round" stroke-linecap="butt" d="m278.69345 214.71277c0.39230347 -2.118454 1.4907532 -1.0199738 1.8830872 -5.6492157c0.39233398 -4.629242 0.9416199 -15.221603 0.4708557 -22.126236c-0.47073364 -6.904648 -1.2554016 -12.710785 -3.2954102 -19.301575c-2.039978 -6.59079 -5.7276917 -14.829315 -8.944611 -20.24318c-3.216919 -5.413864 -5.0215454 -8.081558 -10.356964 -12.240021c-5.3354034 -4.158478 -15.378555 -9.886162 -21.655502 -12.71077c-6.276947 -2.8246078 -10.984619 -3.3737946 -16.006165 -4.2368774c-5.0215454 -0.86307526 -9.729248 -0.78466797 -14.123093 -0.941597c-4.39386 -0.15693665 -7.846176 -0.47077942 -12.240036 0c-4.3938446 0.47077942 -9.258453 1.2554245 -14.123093 2.824669c-4.8646393 1.569252 -10.592361 4.236969 -15.064697 6.5908127c-4.472336 2.353859 -7.6892853 3.6876602 -11.769287 7.53228c-4.080017 3.8446198 -9.493835 9.807724 -12.71077 15.535446c-3.216919 5.727707 -5.1784973 12.396973 -6.590805 18.830826c-1.412323 6.4338684 -1.9615479 13.26001 -1.8830719 19.772324c0.07847595 6.512314 1.3339233 14.044632 2.3539276 19.301575c1.0200195 5.2569275 1.8046265 7.1399994 3.7661438 12.240021c1.9615326 5.1000214 4.629181 12.710861 8.003021 18.360107c3.3738403 5.649231 6.433853 11.376831 12.240021 15.535294c5.8061676 4.158478 15.3785095 7.296997 22.596985 9.415497c7.2184906 2.1184692 11.847733 2.9031067 20.713913 3.2954102c8.86618 0.39230347 23.303177 -6.1035156E-5 32.4832 -0.9416199c9.180038 -0.9415283 16.398514 -2.275299 22.596985 -4.707611c6.198456 -2.432312 10.906128 -5.9631195 14.593842 -9.886215c3.687683 -3.9230957 6.4339294 -9.807739 7.5324097 -13.652359c1.0984497 -3.8446198 -0.78466797 -6.826111 -0.9416199 -9.4153595c-0.15692139 -2.5892334 -0.078430176 -3.9231415 0 -6.1200714c0.07846069 -2.1969452 0.07846069 -4.9430847 0.47073364 -7.061554z" fill-rule="evenodd"/><path fill="#cfe2f3" d="m132.60419 195.93176c-0.67474365 2.0221252 -2.331131 6.6241455 -4.0484924 12.132797c-1.7173538 5.508667 -4.599663 15.201141 -6.255638 20.919128c-1.6559753 5.717972 -2.1768723 6.9065094 -3.6802216 13.388779c-1.5033493 6.4822845 -3.595932 18.392273 -5.339882 25.504852c-1.7439499 7.11261 -3.6626282 11.603455 -5.1238327 17.170715c-1.4612045 5.5672607 -4.5918884 10.355804 -3.6433945 16.23288c0.94849396 5.877075 5.4229507 13.8526 9.334358 19.029572c3.911415 5.1769714 10.795975 9.763641 14.134117 12.032318c3.3381348 2.2686768 5.0964203 2.0351562 5.894745 1.579773c0.7983093 -0.45541382 0.407547 1.375061 -1.1048126 -4.3122253c-1.5123444 -5.6872864 -7.784767 -29.448181 -7.9693146 -29.811493c-0.1845398 -0.36331177 4.458084 21.523865 6.8620605 27.631653c2.4039612 6.1078186 0.10925293 5.5068054 7.5617676 9.015198c7.4524994 3.5083618 30.929977 10.378143 37.15329 12.035095c6.2233276 1.6569824 1.2071075 -0.4689026 0.18659973 -2.0932922c-1.0205078 -1.6244202 -1.6637573 -1.7067566 -6.309662 -7.653137c-4.6459045 -5.9463806 -16.777863 -21.293121 -21.56575 -28.025208c-4.7878876 -6.7320557 -4.622177 -7.360504 -7.1615753 -12.367249c-2.5394135 -5.006714 -6.2032776 -11.902069 -8.07489 -17.673096c-1.8716125 -5.770996 -3.451889 -17.733551 -3.154831 -16.953003c0.29707336 0.7805786 2.9821472 15.632843 4.9372406 21.636444c1.9550934 6.003601 1.9125366 6.5994873 6.7933197 14.385193c4.880768 7.7857056 16.448883 24.23816 22.491333 32.32904c6.04245 8.090851 9.342545 13.020355 13.763397 16.216156c4.4208527 3.1957703 9.234512 3.8479614 12.7617035 2.9585266c3.5271912 -0.8894043 2.3344116 2.820404 8.401413 -8.295074c6.0670013 -11.115448 27.37416 -57.332886 28.000626 -58.397675c0.62646484 -1.0647888 -19.121277 40.780396 -24.241837 52.00891c-5.1205597 11.228485 -9.100723 13.081757 -6.4815216 15.362091c2.6192017 2.280304 17.592148 -1.2183228 22.196732 -1.6802368c4.6045685 -0.46191406 3.949463 1.4467163 5.430725 -1.0913086c1.481247 -2.538025 2.1420898 -9.212433 3.4568024 -14.13681c1.3147125 -4.9243774 4.928238 -17.321869 4.431488 -15.409515c-0.49674988 1.9123535 -6.70166 21.676422 -7.4120026 26.883636c-0.7103424 5.2072144 1.3040771 4.3936157 3.1499176 4.3596497c1.8458405 -0.033935547 4.9904327 -1.2243347 7.925125 -4.5634155c2.9346771 -3.3390503 6.782257 -9.348236 9.682983 -15.470917c2.900711 -6.1226807 6.115692 -13.134338 7.721344 -21.265228c1.6056519 -8.130859 0.8073273 -17.091614 1.9125366 -27.519989c1.1052246 -10.428406 3.9097595 -24.742432 4.71875 -35.05034c0.80895996 -10.307907 -0.21237183 -19.809204 0.13500977 -26.79712c0.3474121 -6.9879303 1.6244812 -12.608688 1.9493713 -15.130432" fill-rule="evenodd"/><path stroke="#000000" stroke-width="2.0" stroke-linejoin="round" stroke-linecap="butt" d="m132.60419 195.93176c-0.67474365 2.0221252 -2.331131 6.6241455 -4.0484924 12.132797c-1.7173538 5.508667 -4.599663 15.201141 -6.255638 20.919128c-1.6559753 5.717972 -2.1768723 6.9065094 -3.6802216 13.388779c-1.5033493 6.4822845 -3.595932 18.392273 -5.339882 25.504852c-1.7439499 7.11261 -3.6626282 11.603455 -5.1238327 17.170715c-1.4612045 5.5672607 -4.5918884 10.355804 -3.6433945 16.23288c0.94849396 5.877075 5.4229507 13.8526 9.334358 19.029572c3.911415 5.1769714 10.795975 9.763641 14.134117 12.032318c3.3381348 2.2686768 5.0964203 2.0351562 5.894745 1.579773c0.7983093 -0.45541382 0.407547 1.375061 -1.1048126 -4.3122253c-1.5123444 -5.6872864 -7.784767 -29.448181 -7.9693146 -29.811493c-0.1845398 -0.36331177 4.458084 21.523865 6.8620605 27.631653c2.4039612 6.1078186 0.10925293 5.5068054 7.5617676 9.015198c7.4524994 3.5083618 30.929977 10.378143 37.15329 12.035095c6.2233276 1.6569824 1.2071075 -0.4689026 0.18659973 -2.0932922c-1.0205078 -1.6244202 -1.6637573 -1.7067566 -6.309662 -7.653137c-4.6459045 -5.9463806 -16.777863 -21.293121 -21.56575 -28.025208c-4.7878876 -6.7320557 -4.622177 -7.360504 -7.1615753 -12.367249c-2.5394135 -5.006714 -6.2032776 -11.902069 -8.07489 -17.673096c-1.8716125 -5.770996 -3.451889 -17.733551 -3.154831 -16.953003c0.29707336 0.7805786 2.9821472 15.632843 4.9372406 21.636444c1.9550934 6.003601 1.9125366 6.5994873 6.7933197 14.385193c4.880768 7.7857056 16.448883 24.23816 22.491333 32.32904c6.04245 8.090851 9.342545 13.020355 13.763397 16.216156c4.4208527 3.1957703 9.234512 3.8479614 12.7617035 2.9585266c3.5271912 -0.8894043 2.3344116 2.820404 8.401413 -8.295074c6.0670013 -11.115448 27.37416 -57.332886 28.000626 -58.397675c0.62646484 -1.0647888 -19.121277 40.780396 -24.241837 52.00891c-5.1205597 11.228485 -9.100723 13.081757 -6.4815216 15.362091c2.6192017 2.280304 17.592148 -1.2183228 22.196732 -1.6802368c4.6045685 -0.46191406 3.949463 1.4467163 5.430725 -1.0913086c1.481247 -2.538025 2.1420898 -9.212433 3.4568024 -14.13681c1.3147125 -4.9243774 4.928238 -17.321869 4.431488 -15.409515c-0.49674988 1.9123535 -6.70166 21.676422 -7.4120026 26.883636c-0.7103424 5.2072144 1.3040771 4.3936157 3.1499176 4.3596497c1.8458405 -0.033935547 4.9904327 -1.2243347 7.925125 -4.5634155c2.9346771 -3.3390503 6.782257 -9.348236 9.682983 -15.470917c2.900711 -6.1226807 6.115692 -13.134338 7.721344 -21.265228c1.6056519 -8.130859 0.8073273 -17.091614 1.9125366 -27.519989c1.1052246 -10.428406 3.9097595 -24.742432 4.71875 -35.05034c0.80895996 -10.307907 -0.21237183 -19.809204 0.13500977 -26.79712c0.3474121 -6.9879303 1.6244812 -12.608688 1.9493713 -15.130432" fill-rule="evenodd"/></g></svg>