<svg version="1.1" viewBox="0.0 0.0 374.1391076115486 584.5931758530184" fill="none" stroke="none" stroke-linecap="square" stroke-miterlimit="10" xmlns:xlink="http://www.w3.org/1999/xlink" xmlns="http://www.w3.org/2000/svg"><clipPath id="p.0"><path d="m0 0l374.1391 0l0 584.5932l-374.1391 0l0 -584.5932z" clip-rule="nonzero"/></clipPath><g clip-path="url(#p.0)"><path fill="#000000" fill-opacity="0.0" d="m0 0l374.1391 0l0 584.5932l-374.1391 0z" fill-rule="evenodd"/><path fill="#cfe2f3" d="m216.8683 288.25165c1.7639008 4.7476807 8.172592 22.188385 10.583389 28.486023c2.410797 6.297638 2.0390472 7.7301025 3.8814087 9.299744c1.8423615 1.5696716 4.6443634 1.2953186 7.1727295 0.118133545c2.5283813 -1.177185 9.291336 -0.11834717 7.9975433 -7.1812134c-1.293808 -7.062866 -11.173904 -27.799744 -15.760345 -35.196014c-4.586441 -7.3962708 -9.798584 -7.651367 -11.758301 -9.181641" fill-rule="evenodd"/><path stroke="#000000" stroke-width="2.0" stroke-linejoin="round" stroke-linecap="butt" d="m216.8683 288.25165c1.7639008 4.7476807 8.172592 22.188385 10.583389 28.486023c2.410797 6.297638 2.0390472 7.7301025 3.8814087 9.299744c1.8423615 1.5696716 4.6443634 1.2953186 7.1727295 0.118133545c2.5283813 -1.177185 9.291336 -0.11834717 7.9975433 -7.1812134c-1.293808 -7.062866 -11.173904 -27.799744 -15.760345 -35.196014c-4.586441 -7.3962708 -9.798584 -7.651367 -11.758301 -9.181641" fill-rule="evenodd"/><path fill="#cfe2f3" d="m228.74971 320.14972c1.6664124 4.4529724 7.7440186 20.734436 9.99855 26.717926c2.2545319 5.98349 1.6863098 7.6132812 3.5286713 9.182953c1.8423615 1.5696411 4.977646 1.4121094 7.525467 0.23495483c2.5478363 -1.177185 7.722809 -2.7468567 7.761505 -7.298065c0.03869629 -4.5512085 -5.49057 -14.241699 -7.5294037 -20.009247c-2.0388336 -5.7675476 -3.9196472 -12.163422 -4.703583 -14.5961" fill-rule="evenodd"/><path stroke="#000000" stroke-width="2.0" stroke-linejoin="round" stroke-linecap="butt" d="m228.74971 320.14972c1.6664124 4.4529724 7.7440186 20.734436 9.99855 26.717926c2.2545319 5.98349 1.6863098 7.6132812 3.5286713 9.182953c1.8423615 1.5696411 4.977646 1.4121094 7.525467 0.23495483c2.5478363 -1.177185 7.722809 -2.7468567 7.761505 -7.298065c0.03869629 -4.5512085 -5.49057 -14.241699 -7.5294037 -20.009247c-2.0388336 -5.7675476 -3.9196472 -12.163422 -4.703583 -14.5961" fill-rule="evenodd"/><path fill="#cfe2f3" d="m256.03305 343.3379c1.2002563 1.7761841 5.3338623 7.476349 7.201599 10.657013c1.8677063 3.1806335 3.670929 5.7660217 4.0046387 8.42688c0.33374023 2.6608582 -0.70458984 5.6166077 -2.0023193 7.5382385c-1.2977295 1.9216614 -3.4849548 3.585144 -5.784088 3.9916077c-2.2991028 0.40646362 -6.22554 -0.5510559 -8.010635 -1.5527954c-1.7851105 -1.0017395 -2.0539246 -2.9888 -2.6999512 -4.4575806c-0.6460266 -1.468811 -0.72535706 -4.3355103 -1.1762238 -4.355194c-0.45085144 -0.019714355 -0.7657776 3.2117004 -1.5289459 4.2370605c-0.76316833 1.0253601 -2.0113068 1.7973938 -3.050064 1.9150696c-1.0387573 0.1177063 -2.7696533 0.3069458 -3.1824799 -1.2088928c-0.4128418 -1.5158386 0.5487671 -5.512268 0.7054596 -7.8861084c0.15670776 -2.3738098 0.43077087 -4.3164673 0.23472595 -6.356903c-0.19602966 -2.0404358 -1.1757812 -4.9047546 -1.4109497 -5.885681" fill-rule="evenodd"/><path stroke="#000000" stroke-width="2.0" stroke-linejoin="round" stroke-linecap="butt" d="m256.03305 343.3379c1.2002563 1.7761841 5.3338623 7.476349 7.201599 10.657013c1.8677063 3.1806335 3.670929 5.7660217 4.0046387 8.42688c0.33374023 2.6608582 -0.70458984 5.6166077 -2.0023193 7.5382385c-1.2977295 1.9216614 -3.4849548 3.585144 -5.784088 3.9916077c-2.2991028 0.40646362 -6.22554 -0.5510559 -8.010635 -1.5527954c-1.7851105 -1.0017395 -2.0539246 -2.9888 -2.6999512 -4.4575806c-0.6460266 -1.468811 -0.72535706 -4.3355103 -1.1762238 -4.355194c-0.45085144 -0.019714355 -0.7657776 3.2117004 -1.5289459 4.2370605c-0.76316833 1.0253601 -2.0113068 1.7973938 -3.050064 1.9150696c-1.0387573 0.1177063 -2.7696533 0.3069458 -3.1824799 -1.2088928c-0.4128418 -1.5158386 0.5487671 -5.512268 0.7054596 -7.8861084c0.15670776 -2.3738098 0.43077087 -4.3164673 0.23472595 -6.356903c-0.19602966 -2.0404358 -1.1757812 -4.9047546 -1.4109497 -5.885681" fill-rule="evenodd"/><path fill="#cfe2f3" d="m217.0881 269.2687c-0.54855347 -1.7879944 -0.07714844 -4.270752 -0.70414734 -5.3632812c-0.62701416 -1.0925293 -0.27471924 -1.1124268 -3.0579224 -1.1918335c-2.7832031 -0.07940674 -11.01503 -0.27804565 -13.641312 0.71536255c-2.6262817 0.9934082 -1.4109497 3.6956177 -2.1164093 5.2451477c-0.70547485 1.54953 -1.0188751 2.7011108 -2.1164246 4.0519714c-1.0975494 1.3508911 -2.9790192 3.1791382 -4.468857 4.053314c-1.4898376 0.87420654 -3.254837 0.43688965 -4.4701843 1.1918335c-1.215332 0.75497437 -2.508484 1.3907166 -2.8218842 3.3379517c-0.31340027 1.9472351 0.43185425 3.6168518 0.9414978 8.3454895c0.5096588 4.7286377 1.4500732 14.979828 2.1164246 20.026306c0.6663513 5.046509 1.9992676 6.199402 1.8816986 10.252716c-0.11758423 4.053314 -0.9799652 9.060211 -2.5871735 14.067108c-1.607193 5.0069275 -5.3802032 11.699432 -7.0560303 15.974335c-1.675827 4.2749023 -3.3221436 7.3857727 -2.9989166 9.675171c0.3232422 2.2893982 -1.0103455 3.2497559 4.9383087 4.0611877c5.948654 0.81140137 21.276932 0.513855 30.753601 0.80722046c9.476654 0.29336548 20.853806 1.4298706 26.106384 0.9529724c5.2525787 -0.4769287 4.507553 -1.2714844 5.4090576 -3.8144226c0.9015045 -2.5429382 0.47032166 -7.151703 0 -11.443237c-0.4703064 -4.2915344 -1.900711 -10.014252 -2.8218842 -14.306c-0.92118835 -4.2917786 -1.9798279 -6.7555237 -2.705185 -11.44455c-0.72535706 -4.6890564 -1.078537 -11.205872 -1.6469727 -16.689697c-0.5684509 -5.4838257 -0.6464691 -11.921661 -1.7636871 -16.213226c-1.117218 -4.2915344 -2.50914 -6.714813 -4.9396057 -9.536011c-2.430481 -2.821228 -7.6048126 -5.265259 -9.643204 -7.3912354c-2.038391 -2.1259766 -2.0386047 -3.5766296 -2.5871735 -5.3645935z" fill-rule="evenodd"/><path stroke="#000000" stroke-width="2.0" stroke-linejoin="round" stroke-linecap="butt" d="m217.0881 269.2687c-0.54855347 -1.7879944 -0.07714844 -4.270752 -0.70414734 -5.3632812c-0.62701416 -1.0925293 -0.27471924 -1.1124268 -3.0579224 -1.1918335c-2.7832031 -0.07940674 -11.01503 -0.27804565 -13.641312 0.71536255c-2.6262817 0.9934082 -1.4109497 3.6956177 -2.1164093 5.2451477c-0.70547485 1.54953 -1.0188751 2.7011108 -2.1164246 4.0519714c-1.0975494 1.3508911 -2.9790192 3.1791382 -4.468857 4.053314c-1.4898376 0.87420654 -3.254837 0.43688965 -4.4701843 1.1918335c-1.215332 0.75497437 -2.508484 1.3907166 -2.8218842 3.3379517c-0.31340027 1.9472351 0.43185425 3.6168518 0.9414978 8.3454895c0.5096588 4.7286377 1.4500732 14.979828 2.1164246 20.026306c0.6663513 5.046509 1.9992676 6.199402 1.8816986 10.252716c-0.11758423 4.053314 -0.9799652 9.060211 -2.5871735 14.067108c-1.607193 5.0069275 -5.3802032 11.699432 -7.0560303 15.974335c-1.675827 4.2749023 -3.3221436 7.3857727 -2.9989166 9.675171c0.3232422 2.2893982 -1.0103455 3.2497559 4.9383087 4.0611877c5.948654 0.81140137 21.276932 0.513855 30.753601 0.80722046c9.476654 0.29336548 20.853806 1.4298706 26.106384 0.9529724c5.2525787 -0.4769287 4.507553 -1.2714844 5.4090576 -3.8144226c0.9015045 -2.5429382 0.47032166 -7.151703 0 -11.443237c-0.4703064 -4.2915344 -1.900711 -10.014252 -2.8218842 -14.306c-0.92118835 -4.2917786 -1.9798279 -6.7555237 -2.705185 -11.44455c-0.72535706 -4.6890564 -1.078537 -11.205872 -1.6469727 -16.689697c-0.5684509 -5.4838257 -0.6464691 -11.921661 -1.7636871 -16.213226c-1.117218 -4.2915344 -2.50914 -6.714813 -4.9396057 -9.536011c-2.430481 -2.821228 -7.6048126 -5.265259 -9.643204 -7.3912354c-2.038391 -2.1259766 -2.0386047 -3.5766296 -2.5871735 -5.3645935z" fill-rule="evenodd"/><path fill="#cfe2f3" d="m278.69345 214.71277c0.39230347 -2.118454 1.4907532 -1.0199738 1.8830872 -5.6492157c0.39233398 -4.629242 0.9416199 -15.221603 0.4708557 -22.126236c-0.47073364 -6.904648 -1.2554016 -12.710785 -3.2954102 -19.301575c-2.039978 -6.59079 -5.7276917 -14.829315 -8.944611 -20.24318c-3.216919 -5.413864 -5.0215454 -8.081558 -10.356964 -12.240021c-5.3354034 -4.158478 -15.378555 -9.886162 -21.655502 -12.71077c-6.276947 -2.8246078 -10.984619 -3.3737946 -16.006165 -4.2368774c-5.0215454 -0.86307526 -9.729248 -0.78466797 -14.123093 -0.941597c-4.39386 -0.15693665 -7.846176 -0.47077942 -12.240036 0c-4.3938446 0.47077942 -9.258453 1.2554245 -14.123093 2.824669c-4.8646393 1.569252 -10.592361 4.236969 -15.064697 6.5908127c-4.472336 2.353859 -7.6892853 3.6876602 -11.769287 7.53228c-4.080017 3.8446198 -9.493835 9.807724 -12.71077 15.535446c-3.216919 5.727707 -5.1784973 12.396973 -6.590805 18.830826c-1.412323 6.4338684 -1.9615479 13.26001 -1.8830719 19.772324c0.07847595 6.512314 1.3339233 14.044632 2.3539276 19.301575c1.0200195 5.2569275 1.8046265 7.1399994 3.7661438 12.240021c1.9615326 5.1000214 4.629181 12.710861 8.003021 18.360107c3.3738403 5.649231 6.433853 11.376831 12.240021 15.535294c5.8061676 4.158478 15.3785095 7.296997 22.596985 9.415497c7.2184906 2.1184692 11.847733 2.9031067 20.713913 3.2954102c8.86618 0.39230347 23.303177 -6.1035156E-5 32.4832 -0.9416199c9.180038 -0.9415283 16.398514 -2.275299 22.596985 -4.707611c6.198456 -2.432312 10.906128 -5.9631195 14.593842 -9.886215c3.687683 -3.9230957 6.4339294 -9.807739 7.5324097 -13.652359c1.0984497 -3.8446198 -0.78466797 -6.826111 -0.9416199 -9.4153595c-0.15692139 -2.5892334 -0.078430176 -3.9231415 0 -6.1200714c0.07846069 -2.1969452 0.07846069 -4.9430847 0.47073364 -7.061554z" fill-rule="evenodd"/><path stroke="#000000" stroke-width="2.0" stroke-linejoin="round" stroke-linecap="butt" d="m278.69345 214.71277c0.39230347 -2.118454 1.4907532 -1.0199738 1.8830872 -5.6492157c0.39233398 -4.629242 0.9416199 -15.221603 0.4708557 -22.126236c-0.47073364 -6.904648 -1.2554016 -12.710785 -3.2954102 -19.301575c-2.039978 -6.59079 -5.7276917 -14.829315 -8.944611 -20.24318c-3.216919 -5.413864 -5.0215454 -8.081558 -10.356964 -12.240021c-5.3354034 -4.158478 -15.378555 -9.886162 -21.655502 -12.71077c-6.276947 -2.8246078 -10.984619 -3.3737946 -16.006165 -4.2368774c-5.0215454 -0.86307526 -9.729248 -0.78466797 -14.123093 -0.941597c-4.39386 -0.15693665 -7.846176 -0.47077942 -12.240036 0c-4.3938446 0.47077942 -9.258453 1.2554245 -14.123093 2.824669c-4.8646393 1.569252 -10.592361 4.236969 -15.064697 6.5908127c-4.472336 2.353859 -7.6892853 3.6876602 -11.769287 7.53228c-4.080017 3.8446198 -9.493835 9.807724 -12.71077 15.535446c-3.216919 5.727707 -5.1784973 12.396973 -6.590805 18.830826c-1.412323 6.4338684 -1.9615479 13.26001 -1.8830719 19.772324c0.07847595 6.512314 1.3339233 14.044632 2.3539276 19.301575c1.0200195 5.2569275 1.8046265 7.1399994 3.7661438 12.240021c1.9615326 5.1000214 4.629181 12.710861 8.003021 18.360107c3.3738403 5.649231 6.433853 11.376831 12.240021 15.535294c5.8061676 4.158478 15.3785095 7.296997 22.596985 9.415497c7.2184906 2.1184692 11.847733 2.9031067 20.713913 3.2954102c8.86618 0.39230347 23.303177 -6.1035156E-5 32.4832 -0.9416199c9.180038 -0.9415283 16.398514 -2.275299 22.596985 -4.707611c6.198456 -2.432312 10.906128 -5.9631195 14.593842 -9.886215c3.687683 -3.9230957 6.4339294 -9.807739 7.5324097 -13.652359c1.0984497 -3.8446198 -0.78466797 -6.826111 -0.9416199 -9.4153595c-0.15692139 -2.5892334 -0.078430176 -3.9231415 0 -6.1200714c0.07846069 -2.1969452 0.07846069 -4.9430847 0.47073364 -7.061554z" fill-rule="evenodd"/><path fill="#cfe2f3" d="m142.2939 222.22008c-0.862381 -0.6670227 -3.5277863 -3.4527893 -5.1743317 -4.002121c-1.6465454 -0.5493164 -3.4895477 -0.11790466 -4.704895 0.70617676c-1.2153473 0.8240967 -1.9992676 2.7472687 -2.5871735 4.238388c-0.5878906 1.4911041 -1.4498444 2.5501556 -0.94018555 4.7082825c0.5096588 2.158142 2.743866 6.082367 3.998108 8.240494c1.254242 2.158142 2.0770874 3.2171783 3.527359 4.7082977c1.4502869 1.4911041 2.939911 3.4928284 5.1743317 4.238373c2.234436 0.7455597 6.4681396 0.7845001 8.232254 0.23495483c1.7641296 -0.54953 1.9603729 -2.9434967 2.3524475 -3.532196" fill-rule="evenodd"/><path stroke="#000000" stroke-width="2.0" stroke-linejoin="round" stroke-linecap="butt" d="m142.2939 222.22008c-0.862381 -0.6670227 -3.5277863 -3.4527893 -5.1743317 -4.002121c-1.6465454 -0.5493164 -3.4895477 -0.11790466 -4.704895 0.70617676c-1.2153473 0.8240967 -1.9992676 2.7472687 -2.5871735 4.238388c-0.5878906 1.4911041 -1.4498444 2.5501556 -0.94018555 4.7082825c0.5096588 2.158142 2.743866 6.082367 3.998108 8.240494c1.254242 2.158142 2.0770874 3.2171783 3.527359 4.7082977c1.4502869 1.4911041 2.939911 3.4928284 5.1743317 4.238373c2.234436 0.7455597 6.4681396 0.7845001 8.232254 0.23495483c1.7641296 -0.54953 1.9603729 -2.9434967 2.3524475 -3.532196" fill-rule="evenodd"/><path fill="#cfe2f3" d="m135.74968 231.18271c-0.27450562 -0.31391907 -1.6076355 -0.86346436 -1.6469727 -1.8835754c-0.03933716 -1.0201111 0.705246 -3.7662811 1.4109344 -4.2370605c0.7056885 -0.47079468 1.4120331 0.078308105 2.8231964 1.4123535c1.4111633 1.3340302 4.5855713 4.5514374 5.6437836 6.591873c1.0582123 2.0404205 0.5878906 4.7089386 0.70547485 5.6507263" fill-rule="evenodd"/><path stroke="#000000" stroke-width="2.0" stroke-linejoin="round" stroke-linecap="butt" d="m135.74968 231.18271c-0.27450562 -0.31391907 -1.6076355 -0.86346436 -1.6469727 -1.8835754c-0.03933716 -1.0201111 0.705246 -3.7662811 1.4109344 -4.2370605c0.7056885 -0.47079468 1.4120331 0.078308105 2.8231964 1.4123535c1.4111633 1.3340302 4.5855713 4.5514374 5.6437836 6.591873c1.0582123 2.0404205 0.5878906 4.7089386 0.70547485 5.6507263" fill-rule="evenodd"/><path fill="#cfe2f3" d="m194.05916 289.5504c-1.7639008 4.74765 -8.172592 22.188385 -10.583389 28.485992c-2.410797 6.297638 -2.0390472 7.730133 -3.8814087 9.299774c-1.8423615 1.5696411 -4.644348 1.2953186 -7.1727295 0.118133545c-2.5283813 -1.177185 -9.291336 -0.11834717 -7.9975433 -7.181244c1.293808 -7.062866 11.17392 -27.799713 15.760361 -35.196014c4.586441 -7.3962708 9.798584 -7.6513367 11.758301 -9.18161" fill-rule="evenodd"/><path stroke="#000000" stroke-width="2.0" stroke-linejoin="round" stroke-linecap="butt" d="m194.05916 289.5504c-1.7639008 4.74765 -8.172592 22.188385 -10.583389 28.485992c-2.410797 6.297638 -2.0390472 7.730133 -3.8814087 9.299774c-1.8423615 1.5696411 -4.644348 1.2953186 -7.1727295 0.118133545c-2.5283813 -1.177185 -9.291336 -0.11834717 -7.9975433 -7.181244c1.293808 -7.062866 11.17392 -27.799713 15.760361 -35.196014c4.586441 -7.3962708 9.798584 -7.6513367 11.758301 -9.18161" fill-rule="evenodd"/><path fill="#cfe2f3" d="m182.16016 321.44846c-1.6664276 4.453003 -7.7440186 20.734467 -9.998566 26.717926c-2.2545319 5.98349 -1.6863098 7.613312 -3.528656 9.182953c-1.8423615 1.5696411 -4.977646 1.4121399 -7.525482 0.23495483c-2.547821 -1.177185 -7.722809 -2.7468262 -7.761505 -7.2980347c-0.03868103 -4.551239 5.4905853 -14.241699 7.5294037 -20.009277c2.0388336 -5.7675476 3.9196625 -12.163391 4.703598 -14.596069" fill-rule="evenodd"/><path stroke="#000000" stroke-width="2.0" stroke-linejoin="round" stroke-linecap="butt" d="m182.16016 321.44846c-1.6664276 4.453003 -7.7440186 20.734467 -9.998566 26.717926c-2.2545319 5.98349 -1.6863098 7.613312 -3.528656 9.182953c-1.8423615 1.5696411 -4.977646 1.4121399 -7.525482 0.23495483c-2.547821 -1.177185 -7.722809 -2.7468262 -7.761505 -7.2980347c-0.03868103 -4.551239 5.4905853 -14.241699 7.5294037 -20.009277c2.0388336 -5.7675476 3.9196625 -12.163391 4.703598 -14.596069" fill-rule="evenodd"/><path fill="#cfe2f3" d="m154.8768 344.63666c-1.2002563 1.7761536 -5.3338776 7.476349 -7.201584 10.656982c-1.8677063 3.1806335 -3.6709442 5.7660217 -4.004669 8.42688c-0.33370972 2.6608582 0.7046051 5.6166077 2.0023346 7.538269c1.2977448 1.9216309 3.48497 3.585144 5.784088 3.9916077c2.299118 0.40646362 6.2255554 -0.5510864 8.010651 -1.5528259c1.7850952 -1.001709 2.0539093 -2.9887695 2.699936 -4.4575806c0.6460266 -1.4687805 0.72535706 -4.3355103 1.1762238 -4.355194c0.4508667 -0.019683838 0.76579285 3.2117004 1.5289612 4.2370605c0.76316833 1.0253601 2.0112915 1.7973938 3.0500488 1.9151001c1.0387573 0.11767578 2.7696533 0.30691528 3.182495 -1.2089233c0.41282654 -1.5158386 -0.54878235 -5.5122375 -0.70547485 -7.886078c-0.1566925 -2.3738403 -0.43075562 -4.316498 -0.23472595 -6.3569336c0.19604492 -2.0404053 1.1757965 -4.904724 1.4109497 -5.885681" fill-rule="evenodd"/><path stroke="#000000" stroke-width="2.0" stroke-linejoin="round" stroke-linecap="butt" d="m154.8768 344.63666c-1.2002563 1.7761536 -5.3338776 7.476349 -7.201584 10.656982c-1.8677063 3.1806335 -3.6709442 5.7660217 -4.004669 8.42688c-0.33370972 2.6608582 0.7046051 5.6166077 2.0023346 7.538269c1.2977448 1.9216309 3.48497 3.585144 5.784088 3.9916077c2.299118 0.40646362 6.2255554 -0.5510864 8.010651 -1.5528259c1.7850952 -1.001709 2.0539093 -2.9887695 2.699936 -4.4575806c0.6460266 -1.4687805 0.72535706 -4.3355103 1.1762238 -4.355194c0.4508667 -0.019683838 0.76579285 3.2117004 1.5289612 4.2370605c0.76316833 1.0253601 2.0112915 1.7973938 3.0500488 1.9151001c1.0387573 0.11767578 2.7696533 0.30691528 3.182495 -1.2089233c0.41282654 -1.5158386 -0.54878235 -5.5122375 -0.70547485 -7.886078c-0.1566925 -2.3738403 -0.43075562 -4.316498 -0.23472595 -6.3569336c0.19604492 -2.0404053 1.1757965 -4.904724 1.4109497 -5.885681" fill-rule="evenodd"/><path fill="#cfe2f3" d="m177.87451 352.68765c-0.22877502 0.7187195 -1.1854706 2.6351929 -1.3726959 4.3123474c-0.18722534 1.6771545 -1.708664 4.1671143 0.24934387 5.7506714c1.9580078 1.5835266 5.915573 2.9588623 11.498688 3.7506409c5.5831146 0.79177856 14.291336 0.8753357 22.0 1.0c7.708664 0.12466431 18.668411 0.20648193 24.251968 -0.25198364c5.583542 -0.45843506 7.718277 -1.0822144 9.249344 -2.4986572c1.5310516 -1.4164734 -0.021438599 -4.2917786 -0.06300354 -6.0c-0.041549683 -1.708252 -0.1552887 -3.5411377 -0.18634033 -4.249359" fill-rule="evenodd"/><path stroke="#000000" stroke-width="2.0" stroke-linejoin="round" stroke-linecap="butt" d="m177.87451 352.68765c-0.22877502 0.7187195 -1.1854706 2.6351929 -1.3726959 4.3123474c-0.18722534 1.6771545 -1.708664 4.1671143 0.24934387 5.7506714c1.9580078 1.5835266 5.915573 2.9588623 11.498688 3.7506409c5.5831146 0.79177856 14.291336 0.8753357 22.0 1.0c7.708664 0.12466431 18.668411 0.20648193 24.251968 -0.25198364c5.583542 -0.45843506 7.718277 -1.0822144 9.249344 -2.4986572c1.5310516 -1.4164734 -0.021438599 -4.2917786 -0.06300354 -6.0c-0.041549683 -1.708252 -0.1552887 -3.5411377 -0.18634033 -4.249359" fill-rule="evenodd"/><path fill="#cfe2f3" d="m175.98787 358.6453c-0.12741089 3.7080994 -0.5194855 15.322845 -0.7644806 22.248566c-0.24499512 6.9256897 -0.39186096 13.184387 -0.70547485 19.305695c-0.3136139 6.121277 -1.5289612 13.733704 -1.1762238 17.42212c0.35273743 3.688385 1.6069794 3.6096191 3.292633 4.7082825c1.685669 1.0986328 3.9205322 1.4911194 6.8213196 1.8835754c2.9007874 0.39245605 7.721939 0.6282959 10.583389 0.47122192c2.8614502 -0.15707397 4.860504 -0.5895691 6.5852814 -1.4136658c1.7247772 -0.8240967 2.901001 -1.9223022 3.763382 -3.5308838c0.86239624 -1.6086121 0.47010803 0.7855835 1.4109497 -6.1206665c0.9408417 -6.9062195 3.254181 -26.684021 4.234146 -35.316772c0.9799652 -8.632721 1.3713837 -13.733063 1.6456604 -16.479675" fill-rule="evenodd"/><path stroke="#000000" stroke-width="2.0" stroke-linejoin="round" stroke-linecap="butt" d="m175.98787 358.6453c-0.12741089 3.7080994 -0.5194855 15.322845 -0.7644806 22.248566c-0.24499512 6.9256897 -0.39186096 13.184387 -0.70547485 19.305695c-0.3136139 6.121277 -1.5289612 13.733704 -1.1762238 17.42212c0.35273743 3.688385 1.6069794 3.6096191 3.292633 4.7082825c1.685669 1.0986328 3.9205322 1.4911194 6.8213196 1.8835754c2.9007874 0.39245605 7.721939 0.6282959 10.583389 0.47122192c2.8614502 -0.15707397 4.860504 -0.5895691 6.5852814 -1.4136658c1.7247772 -0.8240967 2.901001 -1.9223022 3.763382 -3.5308838c0.86239624 -1.6086121 0.47010803 0.7855835 1.4109497 -6.1206665c0.9408417 -6.9062195 3.254181 -26.684021 4.234146 -35.316772c0.9799652 -8.632721 1.3713837 -13.733063 1.6456604 -16.479675" fill-rule="evenodd"/><path fill="#cfe2f3" d="m173.34267 413.37918c-0.2351532 2.0795898 -1.1364441 7.2588806 -1.4109344 12.47757c-0.27450562 5.2186584 -0.2557068 12.928864 -0.23603821 18.834473c0.01966858 5.9055786 0.079559326 12.94986 0.35404968 16.599121c0.27449036 3.649231 0.13659668 4.0996704 1.292923 5.2963257c1.1563416 1.1966553 2.3131104 1.4519348 5.645096 1.8835754c3.3319702 0.4316101 11.054138 1.1377869 14.346771 0.70617676c3.2926483 -0.43164062 4.311508 -1.6871338 5.4090576 -3.295929c1.0975494 -1.6088257 0.9801941 -4.0025635 1.1762238 -6.3569336c0.19604492 -2.3543396 -0.35273743 -4.1593933 0 -7.7692566c0.35273743 -3.6098633 1.332489 -8.828308 2.1164246 -13.889923c0.7839203 -5.0615845 1.999054 -12.595032 2.5871582 -16.479675c0.5881195 -3.884613 0.7845917 -5.690094 0.94151306 -6.828125" fill-rule="evenodd"/><path stroke="#000000" stroke-width="2.0" stroke-linejoin="round" stroke-linecap="butt" d="m173.34267 413.37918c-0.2351532 2.0795898 -1.1364441 7.2588806 -1.4109344 12.47757c-0.27450562 5.2186584 -0.2557068 12.928864 -0.23603821 18.834473c0.01966858 5.9055786 0.079559326 12.94986 0.35404968 16.599121c0.27449036 3.649231 0.13659668 4.0996704 1.292923 5.2963257c1.1563416 1.1966553 2.3131104 1.4519348 5.645096 1.8835754c3.3319702 0.4316101 11.054138 1.1377869 14.346771 0.70617676c3.2926483 -0.43164062 4.311508 -1.6871338 5.4090576 -3.295929c1.0975494 -1.6088257 0.9801941 -4.0025635 1.1762238 -6.3569336c0.19604492 -2.3543396 -0.35273743 -4.1593933 0 -7.7692566c0.35273743 -3.6098633 1.332489 -8.828308 2.1164246 -13.889923c0.7839203 -5.0615845 1.999054 -12.595032 2.5871582 -16.479675c0.5881195 -3.884613 0.7845917 -5.690094 0.94151306 -6.828125" fill-rule="evenodd"/><path fill="#cfe2f3" d="m171.93114 459.4044c0.058792114 1.0004272 -0.27449036 3.7072144 0.35273743 6.002533c0.6272278 2.295288 2.019165 5.728821 3.4106598 7.7692566c1.3914948 2.0404358 3.3311005 3.4138489 4.9382935 4.4733276c1.6072083 1.0595093 2.35289 1.4911194 4.704895 1.883606c2.3520203 0.39245605 6.898468 0.510376 9.407166 0.47122192c2.5087128 -0.03918457 4.390625 -0.23519897 5.645096 -0.70617676c1.2544556 -0.4710083 1.7641144 -1.138916 1.8816986 -2.119873c0.11756897 -0.9809265 -0.70570374 -1.7256165 -1.1762238 -3.7658386c-0.47053528 -2.0402222 -1.450943 -6.2387695 -1.6469879 -8.475433c-0.19602966 -2.2366638 0.39230347 -4.1204834 0.47076416 -4.94458" fill-rule="evenodd"/><path stroke="#000000" stroke-width="2.0" stroke-linejoin="round" stroke-linecap="butt" d="m171.93114 459.4044c0.058792114 1.0004272 -0.27449036 3.7072144 0.35273743 6.002533c0.6272278 2.295288 2.019165 5.728821 3.4106598 7.7692566c1.3914948 2.0404358 3.3311005 3.4138489 4.9382935 4.4733276c1.6072083 1.0595093 2.35289 1.4911194 4.704895 1.883606c2.3520203 0.39245605 6.898468 0.510376 9.407166 0.47122192c2.5087128 -0.03918457 4.390625 -0.23519897 5.645096 -0.70617676c1.2544556 -0.4710083 1.7641144 -1.138916 1.8816986 -2.119873c0.11756897 -0.9809265 -0.70570374 -1.7256165 -1.1762238 -3.7658386c-0.47053528 -2.0402222 -1.450943 -6.2387695 -1.6469879 -8.475433c-0.19602966 -2.2366638 0.39230347 -4.1204834 0.47076416 -4.94458" fill-rule="evenodd"/><path fill="#cfe2f3" d="m209.80183 359.58652c0.30749512 3.736969 1.0536194 15.501556 1.844986 22.421783c0.7913513 6.9202576 2.0707397 13.026886 2.903183 19.09964c0.83244324 6.0727234 1.0575562 13.778778 2.091507 17.336792c1.0339508 3.558014 2.25148 3.2464905 4.1121826 4.0112915c1.8607178 0.764801 4.1290283 0.7335205 7.052109 0.57754517c2.9230652 -0.15597534 7.704239 -0.82473755 10.486343 -1.5134277c2.7821198 -0.68865967 4.665344 -1.4869385 6.206314 -2.6186218c1.5409851 -1.1316833 2.4918823 -2.4300537 3.039566 -4.1714478c0.5476837 -1.7413635 0.60887146 0.68408203 0.246521 -6.276825c-0.36235046 -6.9609375 -1.7346039 -26.951813 -2.4206238 -35.48874c-0.68603516 -8.536926 -1.4129181 -13.110657 -1.6954956 -15.732788" fill-rule="evenodd"/><path stroke="#000000" stroke-width="2.0" stroke-linejoin="round" stroke-linecap="butt" d="m209.80183 359.58652c0.30749512 3.736969 1.0536194 15.501556 1.844986 22.421783c0.7913513 6.9202576 2.0707397 13.026886 2.903183 19.09964c0.83244324 6.0727234 1.0575562 13.778778 2.091507 17.336792c1.0339508 3.558014 2.25148 3.2464905 4.1121826 4.0112915c1.8607178 0.764801 4.1290283 0.7335205 7.052109 0.57754517c2.9230652 -0.15597534 7.704239 -0.82473755 10.486343 -1.5134277c2.7821198 -0.68865967 4.665344 -1.4869385 6.206314 -2.6186218c1.5409851 -1.1316833 2.4918823 -2.4300537 3.039566 -4.1714478c0.5476837 -1.7413635 0.60887146 0.68408203 0.246521 -6.276825c-0.36235046 -6.9609375 -1.7346039 -26.951813 -2.4206238 -35.48874c-0.68603516 -8.536926 -1.4129181 -13.110657 -1.6954956 -15.732788" fill-rule="evenodd"/><path fill="#cfe2f3" d="m215.84416 414.27484c0.15649414 2.086914 0.23612976 7.343384 0.9389801 12.521484c0.70285034 5.1781006 2.1582031 12.749115 3.278122 18.54712c1.1199036 5.798004 2.4915314 12.707153 3.44133 16.240936c0.9497986 3.5337524 0.89823914 4.002014 2.2574615 4.96167c1.3592072 0.95965576 2.5434113 0.9944458 5.897812 0.7962036c3.3543854 -0.19821167 11.073685 -0.9465637 14.228546 -1.9854736c3.1548615 -1.0389404 3.9220123 -2.462616 4.7006226 -4.2480774c0.7786102 -1.7854614 0.2171936 -4.1151733 -0.028945923 -6.4647217c-0.24613953 -2.3495483 -1.1217499 -4.020355 -1.4479065 -7.6325684c-0.32614136 -3.6122131 -0.33598328 -8.921814 -0.5090027 -14.040741c-0.17300415 -5.118927 -0.3829956 -12.746735 -0.52908325 -16.672821c-0.14607239 -3.926117 -0.289505 -5.736511 -0.34739685 -6.8838196" fill-rule="evenodd"/><path stroke="#000000" stroke-width="2.0" stroke-linejoin="round" stroke-linecap="butt" d="m215.84416 414.27484c0.15649414 2.086914 0.23612976 7.343384 0.9389801 12.521484c0.70285034 5.1781006 2.1582031 12.749115 3.278122 18.54712c1.1199036 5.798004 2.4915314 12.707153 3.44133 16.240936c0.9497986 3.5337524 0.89823914 4.002014 2.2574615 4.96167c1.3592072 0.95965576 2.5434113 0.9944458 5.897812 0.7962036c3.3543854 -0.19821167 11.073685 -0.9465637 14.228546 -1.9854736c3.1548615 -1.0389404 3.9220123 -2.462616 4.7006226 -4.2480774c0.7786102 -1.7854614 0.2171936 -4.1151733 -0.028945923 -6.4647217c-0.24613953 -2.3495483 -1.1217499 -4.020355 -1.4479065 -7.6325684c-0.32614136 -3.6122131 -0.33598328 -8.921814 -0.5090027 -14.040741c-0.17300415 -5.118927 -0.3829956 -12.746735 -0.52908325 -16.672821c-0.14607239 -3.926117 -0.289505 -5.736511 -0.34739685 -6.8838196" fill-rule="evenodd"/><path fill="#cfe2f3" d="m223.02637 459.75754c0.24420166 0.9718323 0.4211731 3.6932373 1.4652405 5.831024c1.0440674 2.1377563 3.0516357 5.250946 4.799164 6.9956055c1.7475281 1.74469 3.909317 2.73172 5.685974 3.472412c1.7766571 0.74069214 2.589798 1.0254822 4.973984 0.97180176c2.384201 -0.05368042 6.873459 -0.78689575 9.331177 -1.2938538c2.457718 -0.5069885 4.27034 -1.0509949 5.4151764 -1.7479858c1.1448364 -0.69696045 1.5211487 -1.4483032 1.4538574 -2.4339294c-0.06726074 -0.98565674 -1.0149841 -1.5634766 -1.857544 -3.4799194c-0.8425598 -1.9164429 -2.5883484 -5.8580627 -3.1977997 -8.018738c-0.6094513 -2.1607056 -0.3824463 -4.121216 -0.45892334 -4.945465" fill-rule="evenodd"/><path stroke="#000000" stroke-width="2.0" stroke-linejoin="round" stroke-linecap="butt" d="m223.02637 459.75754c0.24420166 0.9718323 0.4211731 3.6932373 1.4652405 5.831024c1.0440674 2.1377563 3.0516357 5.250946 4.799164 6.9956055c1.7475281 1.74469 3.909317 2.73172 5.685974 3.472412c1.7766571 0.74069214 2.589798 1.0254822 4.973984 0.97180176c2.384201 -0.05368042 6.873459 -0.78689575 9.331177 -1.2938538c2.457718 -0.5069885 4.27034 -1.0509949 5.4151764 -1.7479858c1.1448364 -0.69696045 1.5211487 -1.4483032 1.4538574 -2.4339294c-0.06726074 -0.98565674 -1.0149841 -1.5634766 -1.857544 -3.4799194c-0.8425598 -1.9164429 -2.5883484 -5.8580627 -3.1977997 -8.018738c-0.6094513 -2.1607056 -0.3824463 -4.121216 -0.45892334 -4.945465" fill-rule="evenodd"/><path fill="#cfe2f3" d="m201.52231 223.8259c-1.9680634 0.99212646 -3.3013916 0.9461975 -5.671921 1.0236206c-2.370514 0.077423096 -6.056427 -0.094055176 -8.551178 -0.5590515c-2.494751 -0.4650116 -4.170166 -1.1461029 -6.4173126 -2.2309723c-2.2471619 -1.0848694 -5.113312 -2.7287903 -7.065628 -4.2782135c-1.9523163 -1.5494385 -3.563858 -3.1124268 -4.648285 -5.0183716c-1.0844269 -1.9059601 -1.6259918 -4.0616913 -1.8582764 -6.417328c-0.23228455 -2.3556366 -0.74409485 -6.198166 0.4645691 -7.7165375c1.208664 -1.5183716 3.2856598 -1.2852173 6.7873993 -1.393692c3.5017548 -0.10848999 9.032379 0.5411072 14.223099 0.7427826c5.190735 0.20166016 13.512253 -0.23010254 16.921265 0.46717834c3.4090118 0.69729614 2.789154 1.6246796 3.5328064 3.7165375c0.74365234 2.0918732 1.1924744 6.0455017 0.9291382 8.834656c-0.26335144 2.7891388 -1.0682526 5.762024 -2.5091858 7.9002533c-1.4409485 2.1382294 -4.1684265 3.9370117 -6.13649 4.929138z" fill-rule="evenodd"/><path stroke="#000000" stroke-width="1.0" stroke-linejoin="round" stroke-linecap="butt" d="m201.52231 223.8259c-1.9680634 0.99212646 -3.3013916 0.9461975 -5.671921 1.0236206c-2.370514 0.077423096 -6.056427 -0.094055176 -8.551178 -0.5590515c-2.494751 -0.4650116 -4.170166 -1.1461029 -6.4173126 -2.2309723c-2.2471619 -1.0848694 -5.113312 -2.7287903 -7.065628 -4.2782135c-1.9523163 -1.5494385 -3.563858 -3.1124268 -4.648285 -5.0183716c-1.0844269 -1.9059601 -1.6259918 -4.0616913 -1.8582764 -6.417328c-0.23228455 -2.3556366 -0.74409485 -6.198166 0.4645691 -7.7165375c1.208664 -1.5183716 3.2856598 -1.2852173 6.7873993 -1.393692c3.5017548 -0.10848999 9.032379 0.5411072 14.223099 0.7427826c5.190735 0.20166016 13.512253 -0.23010254 16.921265 0.46717834c3.4090118 0.69729614 2.789154 1.6246796 3.5328064 3.7165375c0.74365234 2.0918732 1.1924744 6.0455017 0.9291382 8.834656c-0.26335144 2.7891388 -1.0682526 5.762024 -2.5091858 7.9002533c-1.4409485 2.1382294 -4.1684265 3.9370117 -6.13649 4.929138z" fill-rule="evenodd"/><path fill="#cfe2f3" d="m181.99693 199.74454c-0.3560791 0.27908325 -0.16885376 0.2655182 -0.3700714 1.118103c-0.20123291 0.85258484 -0.74409485 2.3394623 -0.8372803 3.9973755c-0.093170166 1.6579132 -0.09361267 4.1373596 0.27822876 5.9501343c0.37182617 1.8127747 1.1312256 3.5319366 1.9527435 4.9265137c0.8215332 1.394577 1.5971222 2.4956207 2.9763794 3.4409332c1.3792725 0.94532776 3.3779602 1.8127747 5.299225 2.2309723c1.9212494 0.41819763 4.3692017 0.65005493 6.2283325 0.2782135c1.8591461 -0.37182617 3.686798 -1.502182 4.9265137 -2.5091858c1.2397156 -1.0069885 1.7677155 -2.2156525 2.5118103 -3.5328064c0.74409485 -1.3171387 1.5966797 -2.7121582 1.9527588 -4.3700714c0.3560791 -1.6579285 0.38539124 -3.8884583 0.18373108 -5.5774384c-0.20166016 -1.6889648 -0.68110657 -3.5489807 -1.3937073 -4.556427c-0.7126007 -1.007431 -1.069107 -1.2090912 -2.8818817 -1.4881897c-1.8127747 -0.27908325 -5.2830353 -0.10891724 -7.994751 -0.18634033c-2.711731 -0.077438354 -6.43132 -0.2318573 -8.275589 -0.27822876c-1.844284 -0.0463562 -2.0306244 -0.09272766 -2.790039 0c-0.7593994 0.09274292 -1.4103241 0.27734375 -1.7664032 0.55644226z" fill-rule="evenodd"/><path stroke="#000000" stroke-width="1.0" stroke-linejoin="round" stroke-linecap="butt" d="m181.99693 199.74454c-0.3560791 0.27908325 -0.16885376 0.2655182 -0.3700714 1.118103c-0.20123291 0.85258484 -0.74409485 2.3394623 -0.8372803 3.9973755c-0.093170166 1.6579132 -0.09361267 4.1373596 0.27822876 5.9501343c0.37182617 1.8127747 1.1312256 3.5319366 1.9527435 4.9265137c0.8215332 1.394577 1.5971222 2.4956207 2.9763794 3.4409332c1.3792725 0.94532776 3.3779602 1.8127747 5.299225 2.2309723c1.9212494 0.41819763 4.3692017 0.65005493 6.2283325 0.2782135c1.8591461 -0.37182617 3.686798 -1.502182 4.9265137 -2.5091858c1.2397156 -1.0069885 1.7677155 -2.2156525 2.5118103 -3.5328064c0.74409485 -1.3171387 1.5966797 -2.7121582 1.9527588 -4.3700714c0.3560791 -1.6579285 0.38539124 -3.8884583 0.18373108 -5.5774384c-0.20166016 -1.6889648 -0.68110657 -3.5489807 -1.3937073 -4.556427c-0.7126007 -1.007431 -1.069107 -1.2090912 -2.8818817 -1.4881897c-1.8127747 -0.27908325 -5.2830353 -0.10891724 -7.994751 -0.18634033c-2.711731 -0.077438354 -6.43132 -0.2318573 -8.275589 -0.27822876c-1.844284 -0.0463562 -2.0306244 -0.09272766 -2.790039 0c-0.7593994 0.09274292 -1.4103241 0.27734375 -1.7664032 0.55644226z" fill-rule="evenodd"/><path fill="#cfe2f3" d="m189.71504 201.23247c4.307953 0.06211853 15.324142 -0.122909546 19.895004 0.5590668c4.570862 0.6819763 7.0651855 4.3075256 7.530182 3.5328064c0.4650116 -0.77471924 -2.8188934 -6.7865295 -4.740158 -8.181107c-1.9212494 -1.394577 -2.6653442 -0.031051636 -6.7873993 -0.18635559c-4.12204 -0.1552887 -11.142166 -0.3888855 -17.944885 -0.7454071c-6.802704 -0.35650635 -17.804459 -1.115036 -22.871384 -1.393692c-5.066925 -0.278656 -6.5852966 -0.8980713 -7.530182 -0.2782135c-0.94488525 0.6198578 0.7449646 1.5336761 1.8608856 3.9973755c1.115921 2.463684 3.3315887 8.119415 4.834656 10.784775c1.5030518 2.6653442 2.7117157 3.8438263 4.183716 5.2073517c1.4720001 1.3635101 4.075241 3.051178 4.6483 2.973755c0.5730438 -0.077438354 -0.83815 -2.260727 -1.2099762 -3.438324c-0.37182617 -1.1776123 -0.726593 -2.21698 -1.0209961 -3.627304c-0.29440308 -1.4103241 -0.62117004 -3.3005219 -0.7454071 -4.8346405c-0.12423706 -1.5341187 -0.44926453 -3.5953674 0 -4.3700867c0.44924927 -0.774704 0.37138367 -0.30926514 2.6955414 -0.2782135c2.3241425 0.031066895 8.382324 0.41819763 11.249344 0.4645691c2.8670197 0.04637146 1.6447906 -0.24845886 5.952759 -0.18635559z" fill-rule="evenodd"/><path stroke="#000000" stroke-width="1.0" stroke-linejoin="round" stroke-linecap="butt" d="m189.71504 201.23247c4.307953 0.06211853 15.324142 -0.122909546 19.895004 0.5590668c4.570862 0.6819763 7.0651855 4.3075256 7.530182 3.5328064c0.4650116 -0.77471924 -2.8188934 -6.7865295 -4.740158 -8.181107c-1.9212494 -1.394577 -2.6653442 -0.031051636 -6.7873993 -0.18635559c-4.12204 -0.1552887 -11.142166 -0.3888855 -17.944885 -0.7454071c-6.802704 -0.35650635 -17.804459 -1.115036 -22.871384 -1.393692c-5.066925 -0.278656 -6.5852966 -0.8980713 -7.530182 -0.2782135c-0.94488525 0.6198578 0.7449646 1.5336761 1.8608856 3.9973755c1.115921 2.463684 3.3315887 8.119415 4.834656 10.784775c1.5030518 2.6653442 2.7117157 3.8438263 4.183716 5.2073517c1.4720001 1.3635101 4.075241 3.051178 4.6483 2.973755c0.5730438 -0.077438354 -0.83815 -2.260727 -1.2099762 -3.438324c-0.37182617 -1.1776123 -0.726593 -2.21698 -1.0209961 -3.627304c-0.29440308 -1.4103241 -0.62117004 -3.3005219 -0.7454071 -4.8346405c-0.12423706 -1.5341187 -0.44926453 -3.5953674 0 -4.3700867c0.44924927 -0.774704 0.37138367 -0.30926514 2.6955414 -0.2782135c2.3241425 0.031066895 8.382324 0.41819763 11.249344 0.4645691c2.8670197 0.04637146 1.6447906 -0.24845886 5.952759 -0.18635559z" fill-rule="evenodd"/><path fill="#cfe2f3" d="m206.54114 213.78368c-0.4339447 -0.46499634 -1.6273041 -0.6977234 -2.6036835 -0.837265c-0.9763794 -0.13954163 -2.3250122 -0.12423706 -3.254593 0c-0.9295654 0.12423706 -1.8582611 0.3888855 -2.3228302 0.7454071c-0.4645691 0.3565216 -0.8053436 0.9597626 -0.4645691 1.3937073c0.34077454 0.4339447 1.5485535 1.0393677 2.5091858 1.2099762c0.9606323 0.17059326 2.231842 -0.093185425 3.254593 -0.18635559c1.0227509 -0.093185425 2.4015808 0.014862061 2.881897 -0.37271118c0.48031616 -0.38757324 0.4339447 -1.4877472 0 -1.9527588z" fill-rule="evenodd"/><path stroke="#000000" stroke-width="1.0" stroke-linejoin="round" stroke-linecap="butt" d="m206.54114 213.78368c-0.4339447 -0.46499634 -1.6273041 -0.6977234 -2.6036835 -0.837265c-0.9763794 -0.13954163 -2.3250122 -0.12423706 -3.254593 0c-0.9295654 0.12423706 -1.8582611 0.3888855 -2.3228302 0.7454071c-0.4645691 0.3565216 -0.8053436 0.9597626 -0.4645691 1.3937073c0.34077454 0.4339447 1.5485535 1.0393677 2.5091858 1.2099762c0.9606323 0.17059326 2.231842 -0.093185425 3.254593 -0.18635559c1.0227509 -0.093185425 2.4015808 0.014862061 2.881897 -0.37271118c0.48031616 -0.38757324 0.4339447 -1.4877472 0 -1.9527588z" fill-rule="evenodd"/><path fill="#cfe2f3" d="m248.95038 222.5021c1.4286194 0.89985657 2.3964844 0.8582001 4.1172485 0.928421c1.7207489 0.070236206 4.3963623 -0.08529663 6.207306 -0.5070648c1.8109436 -0.42175293 3.0270996 -1.039505 4.658325 -2.0234833c1.6312256 -0.9839783 3.711731 -2.475006 5.128937 -3.8803406c1.4171753 -1.4053345 2.5870056 -2.8229675 3.374176 -4.5516663c0.7872009 -1.7286987 1.1803284 -3.6839447 1.348938 -5.820511c0.16860962 -2.1365662 0.5401306 -5.6217346 -0.33724976 -6.9989014c-0.87734985 -1.3771667 -2.3850403 -1.1656799 -4.9269714 -1.2640839c-2.5419006 -0.09838867 -6.5565796 0.49079895 -10.324524 0.67370605c-3.7679596 0.1829071 -9.808548 -0.20869446 -12.283157 0.42373657c-2.474594 0.6324463 -2.024643 1.473587 -2.5644684 3.3708954c-0.5398102 1.8973236 -0.86561584 5.4832764 -0.67445374 8.013031c0.19116211 2.5297546 0.7754364 5.226166 1.8214264 7.1655426c1.0459747 1.9393768 3.0258484 3.5708618 4.454468 4.4707184z" fill-rule="evenodd"/><path stroke="#000000" stroke-width="1.0" stroke-linejoin="round" stroke-linecap="butt" d="m248.95038 222.5021c1.4286194 0.89985657 2.3964844 0.8582001 4.1172485 0.928421c1.7207489 0.070236206 4.3963623 -0.08529663 6.207306 -0.5070648c1.8109436 -0.42175293 3.0270996 -1.039505 4.658325 -2.0234833c1.6312256 -0.9839783 3.711731 -2.475006 5.128937 -3.8803406c1.4171753 -1.4053345 2.5870056 -2.8229675 3.374176 -4.5516663c0.7872009 -1.7286987 1.1803284 -3.6839447 1.348938 -5.820511c0.16860962 -2.1365662 0.5401306 -5.6217346 -0.33724976 -6.9989014c-0.87734985 -1.3771667 -2.3850403 -1.1656799 -4.9269714 -1.2640839c-2.5419006 -0.09838867 -6.5565796 0.49079895 -10.324524 0.67370605c-3.7679596 0.1829071 -9.808548 -0.20869446 -12.283157 0.42373657c-2.474594 0.6324463 -2.024643 1.473587 -2.5644684 3.3708954c-0.5398102 1.8973236 -0.86561584 5.4832764 -0.67445374 8.013031c0.19116211 2.5297546 0.7754364 5.226166 1.8214264 7.1655426c1.0459747 1.9393768 3.0258484 3.5708618 4.454468 4.4707184z" fill-rule="evenodd"/><path fill="#cfe2f3" d="m263.12384 200.66031c0.2584839 0.25312805 0.12258911 0.24082947 0.26864624 1.0141296c0.14605713 0.7732849 0.5401306 2.1218872 0.6077881 3.6256104c0.06762695 1.5037384 0.06793213 3.752594 -0.20196533 5.3967743c-0.26992798 1.6441803 -0.821167 3.2034607 -1.417511 4.468338c-0.596344 1.2648926 -1.1593323 2.2635345 -2.160553 3.1209412c-1.0012207 0.8574066 -2.452057 1.6441803 -3.8467102 2.0234985c-1.3946381 0.37930298 -3.1716003 0.58958435 -4.5211487 0.2523346c-1.3495483 -0.33724976 -2.676239 -1.3624878 -3.5761566 -2.2758331c-0.89990234 -0.91334534 -1.2831726 -2.0095978 -1.8233185 -3.2042542c-0.5401306 -1.1946564 -1.1590271 -2.4599304 -1.417511 -3.9636688c-0.25846863 -1.5037231 -0.27973938 -3.526825 -0.13336182 -5.058716c0.14639282 -1.5319061 0.49441528 -3.2189484 1.0116882 -4.1326904c0.51727295 -0.91374207 0.7760773 -1.0966492 2.0919647 -1.3497772c1.3158875 -0.2531433 3.8349457 -0.09880066 5.8033905 -0.1690216c1.9684448 -0.070236206 4.6684875 -0.21029663 6.007263 -0.25234985c1.3387451 -0.042053223 1.4740295 -0.084106445 2.0252686 0c0.551239 0.084121704 1.0237427 0.2515564 1.2822266 0.50468445z" fill-rule="evenodd"/><path stroke="#000000" stroke-width="1.0" stroke-linejoin="round" stroke-linecap="butt" d="m263.12384 200.66031c0.2584839 0.25312805 0.12258911 0.24082947 0.26864624 1.0141296c0.14605713 0.7732849 0.5401306 2.1218872 0.6077881 3.6256104c0.06762695 1.5037384 0.06793213 3.752594 -0.20196533 5.3967743c-0.26992798 1.6441803 -0.821167 3.2034607 -1.417511 4.468338c-0.596344 1.2648926 -1.1593323 2.2635345 -2.160553 3.1209412c-1.0012207 0.8574066 -2.452057 1.6441803 -3.8467102 2.0234985c-1.3946381 0.37930298 -3.1716003 0.58958435 -4.5211487 0.2523346c-1.3495483 -0.33724976 -2.676239 -1.3624878 -3.5761566 -2.2758331c-0.89990234 -0.91334534 -1.2831726 -2.0095978 -1.8233185 -3.2042542c-0.5401306 -1.1946564 -1.1590271 -2.4599304 -1.417511 -3.9636688c-0.25846863 -1.5037231 -0.27973938 -3.526825 -0.13336182 -5.058716c0.14639282 -1.5319061 0.49441528 -3.2189484 1.0116882 -4.1326904c0.51727295 -0.91374207 0.7760773 -1.0966492 2.0919647 -1.3497772c1.3158875 -0.2531433 3.8349457 -0.09880066 5.8033905 -0.1690216c1.9684448 -0.070236206 4.6684875 -0.21029663 6.007263 -0.25234985c1.3387451 -0.042053223 1.4740295 -0.084106445 2.0252686 0c0.551239 0.084121704 1.0237427 0.2515564 1.2822266 0.50468445z" fill-rule="evenodd"/><path fill="#cfe2f3" d="m257.52127 202.00987c-3.1271362 0.05633545 -11.123795 -0.11149597 -14.441788 0.5070648c-3.3179932 0.61854553 -5.1286163 3.9069214 -5.466156 3.2042542c-0.33753967 -0.70266724 2.0462341 -6.1553802 3.4408875 -7.4202576c1.3946381 -1.2648773 1.9347687 -0.028167725 4.9269714 -0.1690216c2.9921875 -0.14085388 8.088104 -0.35272217 13.026199 -0.6760864c4.93808 -0.32336426 12.924255 -1.0113525 16.602325 -1.2640839c3.6781006 -0.25273132 4.7802734 -0.81455994 5.466156 -0.2523346c0.6859131 0.5622101 -0.5407715 1.391037 -1.3507996 3.6256104c-0.8100586 2.2345734 -2.418396 7.364319 -3.509491 9.781799c-1.0910645 2.4174652 -1.9684448 3.4863586 -3.0369568 4.723068c-1.0685425 1.2367096 -2.9582214 2.7674103 -3.3742065 2.6971893c-0.4159851 -0.070236206 0.60842896 -2.050476 0.8783264 -3.1185608c0.26989746 -1.0680847 0.5274353 -2.010788 0.7411499 -3.2899628c0.21368408 -1.2791595 0.45089722 -2.993576 0.54107666 -4.38501c0.09017944 -1.391449 0.32611084 -3.2610016 0 -3.9636688c-0.32611084 -0.70266724 -0.2695923 -0.28051758 -1.9566956 -0.2523346c-1.6870728 0.028167725 -6.084717 0.37930298 -8.165894 0.4213562c-2.0811462 0.042053223 -1.1939392 -0.22535706 -4.321106 -0.1690216z" fill-rule="evenodd"/><path stroke="#000000" stroke-width="1.0" stroke-linejoin="round" stroke-linecap="butt" d="m257.52127 202.00987c-3.1271362 0.05633545 -11.123795 -0.11149597 -14.441788 0.5070648c-3.3179932 0.61854553 -5.1286163 3.9069214 -5.466156 3.2042542c-0.33753967 -0.70266724 2.0462341 -6.1553802 3.4408875 -7.4202576c1.3946381 -1.2648773 1.9347687 -0.028167725 4.9269714 -0.1690216c2.9921875 -0.14085388 8.088104 -0.35272217 13.026199 -0.6760864c4.93808 -0.32336426 12.924255 -1.0113525 16.602325 -1.2640839c3.6781006 -0.25273132 4.7802734 -0.81455994 5.466156 -0.2523346c0.6859131 0.5622101 -0.5407715 1.391037 -1.3507996 3.6256104c-0.8100586 2.2345734 -2.418396 7.364319 -3.509491 9.781799c-1.0910645 2.4174652 -1.9684448 3.4863586 -3.0369568 4.723068c-1.0685425 1.2367096 -2.9582214 2.7674103 -3.3742065 2.6971893c-0.4159851 -0.070236206 0.60842896 -2.050476 0.8783264 -3.1185608c0.26989746 -1.0680847 0.5274353 -2.010788 0.7411499 -3.2899628c0.21368408 -1.2791595 0.45089722 -2.993576 0.54107666 -4.38501c0.09017944 -1.391449 0.32611084 -3.2610016 0 -3.9636688c-0.32611084 -0.70266724 -0.2695923 -0.28051758 -1.9566956 -0.2523346c-1.6870728 0.028167725 -6.084717 0.37930298 -8.165894 0.4213562c-2.0811462 0.042053223 -1.1939392 -0.22535706 -4.321106 -0.1690216z" fill-rule="evenodd"/><path fill="#cfe2f3" d="m245.30722 213.39381c0.31498718 -0.42175293 1.1812439 -0.63282776 1.8899994 -0.7593994c0.7087555 -0.12657166 1.6877289 -0.11268616 2.362503 0c0.6747894 0.11268616 1.3489227 0.35272217 1.6861572 0.6760864c0.33721924 0.32336426 0.5845947 0.87049866 0.33721924 1.2640839c-0.24736023 0.3935852 -1.1240845 0.94270325 -1.8214111 1.0974426c-0.69732666 0.15473938 -1.6201019 -0.084503174 -2.3625183 -0.1690216c-0.7424011 -0.084503174 -1.7433014 0.0134887695 -2.0919495 -0.3380432c-0.34866333 -0.35153198 -0.31500244 -1.3493805 0 -1.7711487z" fill-rule="evenodd"/><path stroke="#000000" stroke-width="1.0" stroke-linejoin="round" stroke-linecap="butt" d="m245.30722 213.39381c0.31498718 -0.42175293 1.1812439 -0.63282776 1.8899994 -0.7593994c0.7087555 -0.12657166 1.6877289 -0.11268616 2.362503 0c0.6747894 0.11268616 1.3489227 0.35272217 1.6861572 0.6760864c0.33721924 0.32336426 0.5845947 0.87049866 0.33721924 1.2640839c-0.24736023 0.3935852 -1.1240845 0.94270325 -1.8214111 1.0974426c-0.69732666 0.15473938 -1.6201019 -0.084503174 -2.3625183 -0.1690216c-0.7424011 -0.084503174 -1.7433014 0.0134887695 -2.0919495 -0.3380432c-0.34866333 -0.35153198 -0.31500244 -1.3493805 0 -1.7711487z" fill-rule="evenodd"/><path fill="#000000" fill-opacity="0.0" d="m205.56459 252.83539c1.1698151 -0.7830963 4.7962036 -3.8927155 7.018921 -4.6985474c2.2227325 -0.80584717 4.422333 -0.36717224 6.3174286 -0.13647461c1.8950958 0.23069763 3.321869 0.8071289 5.0531464 1.5206909c1.7312927 0.713562 3.3925476 2.000946 5.334549 2.7606506c1.9419861 0.75968933 4.2585144 1.6591034 6.3174286 1.7975311c2.0589142 0.13842773 4.7023926 -0.43736267 6.0360413 -0.9670105c1.3336334 -0.52963257 1.6381378 -1.8423767 1.9657745 -2.210846" fill-rule="evenodd"/><path stroke="#000000" stroke-width="4.0" stroke-linejoin="round" stroke-linecap="butt" d="m205.56459 252.83539c1.1698151 -0.7830963 4.7962036 -3.8927155 7.018921 -4.6985474c2.2227325 -0.80584717 4.422333 -0.36717224 6.3174286 -0.13647461c1.8950958 0.23069763 3.321869 0.8071289 5.0531464 1.5206909c1.7312927 0.713562 3.3925476 2.000946 5.334549 2.7606506c1.9419861 0.75968933 4.2585144 1.6591034 6.3174286 1.7975311c2.0589142 0.13842773 4.7023926 -0.43736267 6.0360413 -0.9670105c1.3336334 -0.52963257 1.6381378 -1.8423767 1.9657745 -2.210846" fill-rule="evenodd"/></g></svg>