<svg version="1.1" viewBox="0.0 0.0 440.31496062992125 584.6062992125984" fill="none" stroke="none" stroke-linecap="square" stroke-miterlimit="10" xmlns:xlink="http://www.w3.org/1999/xlink" xmlns="http://www.w3.org/2000/svg"><clipPath id="p.0"><path d="m0 0l440.31497 0l0 584.6063l-440.31497 0l0 -584.6063z" clip-rule="nonzero"/></clipPath><g clip-path="url(#p.0)"><path fill="#000000" fill-opacity="0.0" d="m0 0l440.31497 0l0 584.6063l-440.31497 0z" fill-rule="evenodd"/><path fill="#cfe2f3" d="m216.8683 288.25165c1.7639008 4.7476807 8.172592 22.188385 10.583389 28.486023c2.410797 6.297638 2.0390472 7.7301025 3.8814087 9.299744c1.8423615 1.5696716 4.6443634 1.2953186 7.1727295 0.118133545c2.5283813 -1.177185 9.291336 -0.11834717 7.9975433 -7.1812134c-1.293808 -7.062866 -11.173904 -27.799744 -15.760345 -35.196014c-4.586441 -7.3962708 -9.798584 -7.651367 -11.758301 -9.181641" fill-rule="evenodd"/><path stroke="#000000" stroke-width="2.0" stroke-linejoin="round" stroke-linecap="butt" d="m216.8683 288.25165c1.7639008 4.7476807 8.172592 22.188385 10.583389 28.486023c2.410797 6.297638 2.0390472 7.7301025 3.8814087 9.299744c1.8423615 1.5696716 4.6443634 1.2953186 7.1727295 0.118133545c2.5283813 -1.177185 9.291336 -0.11834717 7.9975433 -7.1812134c-1.293808 -7.062866 -11.173904 -27.799744 -15.760345 -35.196014c-4.586441 -7.3962708 -9.798584 -7.651367 -11.758301 -9.181641" fill-rule="evenodd"/><path fill="#cfe2f3" d="m228.74971 320.14972c1.6664124 4.4529724 7.7440186 20.734436 9.99855 26.717926c2.2545319 5.98349 1.6863098 7.6132812 3.5286713 9.182953c1.8423615 1.5696411 4.977646 1.4121094 7.525467 0.23495483c2.5478363 -1.177185 7.722809 -2.7468567 7.761505 -7.298065c0.03869629 -4.5512085 -5.49057 -14.241699 -7.5294037 -20.009247c-2.0388336 -5.7675476 -3.9196472 -12.163422 -4.703583 -14.5961" fill-rule="evenodd"/><path stroke="#000000" stroke-width="2.0" stroke-linejoin="round" stroke-linecap="butt" d="m228.74971 320.14972c1.6664124 4.4529724 7.7440186 20.734436 9.99855 26.717926c2.2545319 5.98349 1.6863098 7.6132812 3.5286713 9.182953c1.8423615 1.5696411 4.977646 1.4121094 7.525467 0.23495483c2.5478363 -1.177185 7.722809 -2.7468567 7.761505 -7.298065c0.03869629 -4.5512085 -5.49057 -14.241699 -7.5294037 -20.009247c-2.0388336 -5.7675476 -3.9196472 -12.163422 -4.703583 -14.5961" fill-rule="evenodd"/><path fill="#cfe2f3" d="m256.03305 343.3379c1.2002563 1.7761841 5.3338623 7.476349 7.201599 10.657013c1.8677063 3.1806335 3.670929 5.7660217 4.0046387 8.42688c0.33374023 2.6608582 -0.70458984 5.6166077 -2.0023193 7.5382385c-1.2977295 1.9216614 -3.4849548 3.585144 -5.784088 3.9916077c-2.2991028 0.40646362 -6.22554 -0.5510559 -8.010635 -1.5527954c-1.7851105 -1.0017395 -2.0539246 -2.9888 -2.6999512 -4.4575806c-0.6460266 -1.468811 -0.72535706 -4.3355103 -1.1762238 -4.355194c-0.45085144 -0.019714355 -0.7657776 3.2117004 -1.5289459 4.2370605c-0.76316833 1.0253601 -2.0113068 1.7973938 -3.050064 1.9150696c-1.0387573 0.1177063 -2.7696533 0.3069458 -3.1824799 -1.2088928c-0.4128418 -1.5158386 0.5487671 -5.512268 0.7054596 -7.8861084c0.15670776 -2.3738098 0.43077087 -4.3164673 0.23472595 -6.356903c-0.19602966 -2.0404358 -1.1757812 -4.9047546 -1.4109497 -5.885681" fill-rule="evenodd"/><path stroke="#000000" stroke-width="2.0" stroke-linejoin="round" stroke-linecap="butt" d="m256.03305 343.3379c1.2002563 1.7761841 5.3338623 7.476349 7.201599 10.657013c1.8677063 3.1806335 3.670929 5.7660217 4.0046387 8.42688c0.33374023 2.6608582 -0.70458984 5.6166077 -2.0023193 7.5382385c-1.2977295 1.9216614 -3.4849548 3.585144 -5.784088 3.9916077c-2.2991028 0.40646362 -6.22554 -0.5510559 -8.010635 -1.5527954c-1.7851105 -1.0017395 -2.0539246 -2.9888 -2.6999512 -4.4575806c-0.6460266 -1.468811 -0.72535706 -4.3355103 -1.1762238 -4.355194c-0.45085144 -0.019714355 -0.7657776 3.2117004 -1.5289459 4.2370605c-0.76316833 1.0253601 -2.0113068 1.7973938 -3.050064 1.9150696c-1.0387573 0.1177063 -2.7696533 0.3069458 -3.1824799 -1.2088928c-0.4128418 -1.5158386 0.5487671 -5.512268 0.7054596 -7.8861084c0.15670776 -2.3738098 0.43077087 -4.3164673 0.23472595 -6.356903c-0.19602966 -2.0404358 -1.1757812 -4.9047546 -1.4109497 -5.885681" fill-rule="evenodd"/><path fill="#cfe2f3" d="m217.0881 269.2687c-0.54855347 -1.7879944 -0.07714844 -4.270752 -0.70414734 -5.3632812c-0.62701416 -1.0925293 -0.27471924 -1.1124268 -3.0579224 -1.1918335c-2.7832031 -0.07940674 -11.01503 -0.27804565 -13.641312 0.71536255c-2.6262817 0.9934082 -1.4109497 3.6956177 -2.1164093 5.2451477c-0.70547485 1.54953 -1.0188751 2.7011108 -2.1164246 4.0519714c-1.0975494 1.3508911 -2.9790192 3.1791382 -4.468857 4.053314c-1.4898376 0.87420654 -3.254837 0.43688965 -4.4701843 1.1918335c-1.215332 0.75497437 -2.508484 1.3907166 -2.8218842 3.3379517c-0.31340027 1.9472351 0.43185425 3.6168518 0.9414978 8.3454895c0.5096588 4.7286377 1.4500732 14.979828 2.1164246 20.026306c0.6663513 5.046509 1.9992676 6.199402 1.8816986 10.252716c-0.11758423 4.053314 -0.9799652 9.060211 -2.5871735 14.067108c-1.607193 5.0069275 -5.3802032 11.699432 -7.0560303 15.974335c-1.675827 4.2749023 -3.3221436 7.3857727 -2.9989166 9.675171c0.3232422 2.2893982 -1.0103455 3.2497559 4.9383087 4.0611877c5.948654 0.81140137 21.276932 0.513855 30.753601 0.80722046c9.476654 0.29336548 20.853806 1.4298706 26.106384 0.9529724c5.2525787 -0.4769287 4.507553 -1.2714844 5.4090576 -3.8144226c0.9015045 -2.5429382 0.47032166 -7.151703 0 -11.443237c-0.4703064 -4.2915344 -1.900711 -10.014252 -2.8218842 -14.306c-0.92118835 -4.2917786 -1.9798279 -6.7555237 -2.705185 -11.44455c-0.72535706 -4.6890564 -1.078537 -11.205872 -1.6469727 -16.689697c-0.5684509 -5.4838257 -0.6464691 -11.921661 -1.7636871 -16.213226c-1.117218 -4.2915344 -2.50914 -6.714813 -4.9396057 -9.536011c-2.430481 -2.821228 -7.6048126 -5.265259 -9.643204 -7.3912354c-2.038391 -2.1259766 -2.0386047 -3.5766296 -2.5871735 -5.3645935z" fill-rule="evenodd"/><path stroke="#000000" stroke-width="2.0" stroke-linejoin="round" stroke-linecap="butt" d="m217.0881 269.2687c-0.54855347 -1.7879944 -0.07714844 -4.270752 -0.70414734 -5.3632812c-0.62701416 -1.0925293 -0.27471924 -1.1124268 -3.0579224 -1.1918335c-2.7832031 -0.07940674 -11.01503 -0.27804565 -13.641312 0.71536255c-2.6262817 0.9934082 -1.4109497 3.6956177 -2.1164093 5.2451477c-0.70547485 1.54953 -1.0188751 2.7011108 -2.1164246 4.0519714c-1.0975494 1.3508911 -2.9790192 3.1791382 -4.468857 4.053314c-1.4898376 0.87420654 -3.254837 0.43688965 -4.4701843 1.1918335c-1.215332 0.75497437 -2.508484 1.3907166 -2.8218842 3.3379517c-0.31340027 1.9472351 0.43185425 3.6168518 0.9414978 8.3454895c0.5096588 4.7286377 1.4500732 14.979828 2.1164246 20.026306c0.6663513 5.046509 1.9992676 6.199402 1.8816986 10.252716c-0.11758423 4.053314 -0.9799652 9.060211 -2.5871735 14.067108c-1.607193 5.0069275 -5.3802032 11.699432 -7.0560303 15.974335c-1.675827 4.2749023 -3.3221436 7.3857727 -2.9989166 9.675171c0.3232422 2.2893982 -1.0103455 3.2497559 4.9383087 4.0611877c5.948654 0.81140137 21.276932 0.513855 30.753601 0.80722046c9.476654 0.29336548 20.853806 1.4298706 26.106384 0.9529724c5.2525787 -0.4769287 4.507553 -1.2714844 5.4090576 -3.8144226c0.9015045 -2.5429382 0.47032166 -7.151703 0 -11.443237c-0.4703064 -4.2915344 -1.900711 -10.014252 -2.8218842 -14.306c-0.92118835 -4.2917786 -1.9798279 -6.7555237 -2.705185 -11.44455c-0.72535706 -4.6890564 -1.078537 -11.205872 -1.6469727 -16.689697c-0.5684509 -5.4838257 -0.6464691 -11.921661 -1.7636871 -16.213226c-1.117218 -4.2915344 -2.50914 -6.714813 -4.9396057 -9.536011c-2.430481 -2.821228 -7.6048126 -5.265259 -9.643204 -7.3912354c-2.038391 -2.1259766 -2.0386047 -3.5766296 -2.5871735 -5.3645935z" fill-rule="evenodd"/><path fill="#cfe2f3" d="m278.69345 214.71277c0.39230347 -2.118454 1.4907532 -1.0199738 1.8830872 -5.6492157c0.39233398 -4.629242 0.9416199 -15.221603 0.4708557 -22.126236c-0.47073364 -6.904648 -1.2554016 -12.710785 -3.2954102 -19.301575c-2.039978 -6.59079 -5.7276917 -14.829315 -8.944611 -20.24318c-3.216919 -5.413864 -5.0215454 -8.081558 -10.356964 -12.240021c-5.3354034 -4.158478 -15.378555 -9.886162 -21.655502 -12.71077c-6.276947 -2.8246078 -10.984619 -3.3737946 -16.006165 -4.2368774c-5.0215454 -0.86307526 -9.729248 -0.78466797 -14.123093 -0.941597c-4.39386 -0.15693665 -7.846176 -0.47077942 -12.240036 0c-4.3938446 0.47077942 -9.258453 1.2554245 -14.123093 2.824669c-4.8646393 1.569252 -10.592361 4.236969 -15.064697 6.5908127c-4.472336 2.353859 -7.6892853 3.6876602 -11.769287 7.53228c-4.080017 3.8446198 -9.493835 9.807724 -12.71077 15.535446c-3.216919 5.727707 -5.1784973 12.396973 -6.590805 18.830826c-1.412323 6.4338684 -1.9615479 13.26001 -1.8830719 19.772324c0.07847595 6.512314 1.3339233 14.044632 2.3539276 19.301575c1.0200195 5.2569275 1.8046265 7.1399994 3.7661438 12.240021c1.9615326 5.1000214 4.629181 12.710861 8.003021 18.360107c3.3738403 5.649231 6.433853 11.376831 12.240021 15.535294c5.8061676 4.158478 15.3785095 7.296997 22.596985 9.415497c7.2184906 2.1184692 11.847733 2.9031067 20.713913 3.2954102c8.86618 0.39230347 23.303177 -6.1035156E-5 32.4832 -0.9416199c9.180038 -0.9415283 16.398514 -2.275299 22.596985 -4.707611c6.198456 -2.432312 10.906128 -5.9631195 14.593842 -9.886215c3.687683 -3.9230957 6.4339294 -9.807739 7.5324097 -13.652359c1.0984497 -3.8446198 -0.78466797 -6.826111 -0.9416199 -9.4153595c-0.15692139 -2.5892334 -0.078430176 -3.9231415 0 -6.1200714c0.07846069 -2.1969452 0.07846069 -4.9430847 0.47073364 -7.061554z" fill-rule="evenodd"/><path stroke="#000000" stroke-width="2.0" stroke-linejoin="round" stroke-linecap="butt" d="m278.69345 214.71277c0.39230347 -2.118454 1.4907532 -1.0199738 1.8830872 -5.6492157c0.39233398 -4.629242 0.9416199 -15.221603 0.4708557 -22.126236c-0.47073364 -6.904648 -1.2554016 -12.710785 -3.2954102 -19.301575c-2.039978 -6.59079 -5.7276917 -14.829315 -8.944611 -20.24318c-3.216919 -5.413864 -5.0215454 -8.081558 -10.356964 -12.240021c-5.3354034 -4.158478 -15.378555 -9.886162 -21.655502 -12.71077c-6.276947 -2.8246078 -10.984619 -3.3737946 -16.006165 -4.2368774c-5.0215454 -0.86307526 -9.729248 -0.78466797 -14.123093 -0.941597c-4.39386 -0.15693665 -7.846176 -0.47077942 -12.240036 0c-4.3938446 0.47077942 -9.258453 1.2554245 -14.123093 2.824669c-4.8646393 1.569252 -10.592361 4.236969 -15.064697 6.5908127c-4.472336 2.353859 -7.6892853 3.6876602 -11.769287 7.53228c-4.080017 3.8446198 -9.493835 9.807724 -12.71077 15.535446c-3.216919 5.727707 -5.1784973 12.396973 -6.590805 18.830826c-1.412323 6.4338684 -1.9615479 13.26001 -1.8830719 19.772324c0.07847595 6.512314 1.3339233 14.044632 2.3539276 19.301575c1.0200195 5.2569275 1.8046265 7.1399994 3.7661438 12.240021c1.9615326 5.1000214 4.629181 12.710861 8.003021 18.360107c3.3738403 5.649231 6.433853 11.376831 12.240021 15.535294c5.8061676 4.158478 15.3785095 7.296997 22.596985 9.415497c7.2184906 2.1184692 11.847733 2.9031067 20.713913 3.2954102c8.86618 0.39230347 23.303177 -6.1035156E-5 32.4832 -0.9416199c9.180038 -0.9415283 16.398514 -2.275299 22.596985 -4.707611c6.198456 -2.432312 10.906128 -5.9631195 14.593842 -9.886215c3.687683 -3.9230957 6.4339294 -9.807739 7.5324097 -13.652359c1.0984497 -3.8446198 -0.78466797 -6.826111 -0.9416199 -9.4153595c-0.15692139 -2.5892334 -0.078430176 -3.9231415 0 -6.1200714c0.07846069 -2.1969452 0.07846069 -4.9430847 0.47073364 -7.061554z" fill-rule="evenodd"/><path fill="#cfe2f3" d="m142.2939 222.22008c-0.862381 -0.6670227 -3.5277863 -3.4527893 -5.1743317 -4.002121c-1.6465454 -0.5493164 -3.4895477 -0.11790466 -4.704895 0.70617676c-1.2153473 0.8240967 -1.9992676 2.7472687 -2.5871735 4.238388c-0.5878906 1.4911041 -1.4498444 2.5501556 -0.94018555 4.7082825c0.5096588 2.158142 2.743866 6.082367 3.998108 8.240494c1.254242 2.158142 2.0770874 3.2171783 3.527359 4.7082977c1.4502869 1.4911041 2.939911 3.4928284 5.1743317 4.238373c2.234436 0.7455597 6.4681396 0.7845001 8.232254 0.23495483c1.7641296 -0.54953 1.9603729 -2.9434967 2.3524475 -3.532196" fill-rule="evenodd"/><path stroke="#000000" stroke-width="2.0" stroke-linejoin="round" stroke-linecap="butt" d="m142.2939 222.22008c-0.862381 -0.6670227 -3.5277863 -3.4527893 -5.1743317 -4.002121c-1.6465454 -0.5493164 -3.4895477 -0.11790466 -4.704895 0.70617676c-1.2153473 0.8240967 -1.9992676 2.7472687 -2.5871735 4.238388c-0.5878906 1.4911041 -1.4498444 2.5501556 -0.94018555 4.7082825c0.5096588 2.158142 2.743866 6.082367 3.998108 8.240494c1.254242 2.158142 2.0770874 3.2171783 3.527359 4.7082977c1.4502869 1.4911041 2.939911 3.4928284 5.1743317 4.238373c2.234436 0.7455597 6.4681396 0.7845001 8.232254 0.23495483c1.7641296 -0.54953 1.9603729 -2.9434967 2.3524475 -3.532196" fill-rule="evenodd"/><path fill="#cfe2f3" d="m135.74968 231.18271c-0.27450562 -0.31391907 -1.6076355 -0.86346436 -1.6469727 -1.8835754c-0.03933716 -1.0201111 0.705246 -3.7662811 1.4109344 -4.2370605c0.7056885 -0.47079468 1.4120331 0.078308105 2.8231964 1.4123535c1.4111633 1.3340302 4.5855713 4.5514374 5.6437836 6.591873c1.0582123 2.0404205 0.5878906 4.7089386 0.70547485 5.6507263" fill-rule="evenodd"/><path stroke="#000000" stroke-width="2.0" stroke-linejoin="round" stroke-linecap="butt" d="m135.74968 231.18271c-0.27450562 -0.31391907 -1.6076355 -0.86346436 -1.6469727 -1.8835754c-0.03933716 -1.0201111 0.705246 -3.7662811 1.4109344 -4.2370605c0.7056885 -0.47079468 1.4120331 0.078308105 2.8231964 1.4123535c1.4111633 1.3340302 4.5855713 4.5514374 5.6437836 6.591873c1.0582123 2.0404205 0.5878906 4.7089386 0.70547485 5.6507263" fill-rule="evenodd"/><path fill="#cfe2f3" d="m194.05916 289.5504c-1.7639008 4.74765 -8.172592 22.188385 -10.583389 28.485992c-2.410797 6.297638 -2.0390472 7.730133 -3.8814087 9.299774c-1.8423615 1.5696411 -4.644348 1.2953186 -7.1727295 0.118133545c-2.5283813 -1.177185 -9.291336 -0.11834717 -7.9975433 -7.181244c1.293808 -7.062866 11.17392 -27.799713 15.760361 -35.196014c4.586441 -7.3962708 9.798584 -7.6513367 11.758301 -9.18161" fill-rule="evenodd"/><path stroke="#000000" stroke-width="2.0" stroke-linejoin="round" stroke-linecap="butt" d="m194.05916 289.5504c-1.7639008 4.74765 -8.172592 22.188385 -10.583389 28.485992c-2.410797 6.297638 -2.0390472 7.730133 -3.8814087 9.299774c-1.8423615 1.5696411 -4.644348 1.2953186 -7.1727295 0.118133545c-2.5283813 -1.177185 -9.291336 -0.11834717 -7.9975433 -7.181244c1.293808 -7.062866 11.17392 -27.799713 15.760361 -35.196014c4.586441 -7.3962708 9.798584 -7.6513367 11.758301 -9.18161" fill-rule="evenodd"/><path fill="#cfe2f3" d="m182.16016 321.44846c-1.6664276 4.453003 -7.7440186 20.734467 -9.998566 26.717926c-2.2545319 5.98349 -1.6863098 7.613312 -3.528656 9.182953c-1.8423615 1.5696411 -4.977646 1.4121399 -7.525482 0.23495483c-2.547821 -1.177185 -7.722809 -2.7468262 -7.761505 -7.2980347c-0.03868103 -4.551239 5.4905853 -14.241699 7.5294037 -20.009277c2.0388336 -5.7675476 3.9196625 -12.163391 4.703598 -14.596069" fill-rule="evenodd"/><path stroke="#000000" stroke-width="2.0" stroke-linejoin="round" stroke-linecap="butt" d="m182.16016 321.44846c-1.6664276 4.453003 -7.7440186 20.734467 -9.998566 26.717926c-2.2545319 5.98349 -1.6863098 7.613312 -3.528656 9.182953c-1.8423615 1.5696411 -4.977646 1.4121399 -7.525482 0.23495483c-2.547821 -1.177185 -7.722809 -2.7468262 -7.761505 -7.2980347c-0.03868103 -4.551239 5.4905853 -14.241699 7.5294037 -20.009277c2.0388336 -5.7675476 3.9196625 -12.163391 4.703598 -14.596069" fill-rule="evenodd"/><path fill="#cfe2f3" d="m154.8768 344.63666c-1.2002563 1.7761536 -5.3338776 7.476349 -7.201584 10.656982c-1.8677063 3.1806335 -3.6709442 5.7660217 -4.004669 8.42688c-0.33370972 2.6608582 0.7046051 5.6166077 2.0023346 7.538269c1.2977448 1.9216309 3.48497 3.585144 5.784088 3.9916077c2.299118 0.40646362 6.2255554 -0.5510864 8.010651 -1.5528259c1.7850952 -1.001709 2.0539093 -2.9887695 2.699936 -4.4575806c0.6460266 -1.4687805 0.72535706 -4.3355103 1.1762238 -4.355194c0.4508667 -0.019683838 0.76579285 3.2117004 1.5289612 4.2370605c0.76316833 1.0253601 2.0112915 1.7973938 3.0500488 1.9151001c1.0387573 0.11767578 2.7696533 0.30691528 3.182495 -1.2089233c0.41282654 -1.5158386 -0.54878235 -5.5122375 -0.70547485 -7.886078c-0.1566925 -2.3738403 -0.43075562 -4.316498 -0.23472595 -6.3569336c0.19604492 -2.0404053 1.1757965 -4.904724 1.4109497 -5.885681" fill-rule="evenodd"/><path stroke="#000000" stroke-width="2.0" stroke-linejoin="round" stroke-linecap="butt" d="m154.8768 344.63666c-1.2002563 1.7761536 -5.3338776 7.476349 -7.201584 10.656982c-1.8677063 3.1806335 -3.6709442 5.7660217 -4.004669 8.42688c-0.33370972 2.6608582 0.7046051 5.6166077 2.0023346 7.538269c1.2977448 1.9216309 3.48497 3.585144 5.784088 3.9916077c2.299118 0.40646362 6.2255554 -0.5510864 8.010651 -1.5528259c1.7850952 -1.001709 2.0539093 -2.9887695 2.699936 -4.4575806c0.6460266 -1.4687805 0.72535706 -4.3355103 1.1762238 -4.355194c0.4508667 -0.019683838 0.76579285 3.2117004 1.5289612 4.2370605c0.76316833 1.0253601 2.0112915 1.7973938 3.0500488 1.9151001c1.0387573 0.11767578 2.7696533 0.30691528 3.182495 -1.2089233c0.41282654 -1.5158386 -0.54878235 -5.5122375 -0.70547485 -7.886078c-0.1566925 -2.3738403 -0.43075562 -4.316498 -0.23472595 -6.3569336c0.19604492 -2.0404053 1.1757965 -4.904724 1.4109497 -5.885681" fill-rule="evenodd"/><path fill="#cfe2f3" d="m177.87451 352.68765c-0.22877502 0.7187195 -1.1854706 2.6351929 -1.3726959 4.3123474c-0.18722534 1.6771545 -1.708664 4.1671143 0.24934387 5.7506714c1.9580078 1.5835266 5.915573 2.9588623 11.498688 3.7506409c5.5831146 0.79177856 14.291336 0.8753357 22.0 1.0c7.708664 0.12466431 18.668411 0.20648193 24.251968 -0.25198364c5.583542 -0.45843506 7.718277 -1.0822144 9.249344 -2.4986572c1.5310516 -1.4164734 -0.021438599 -4.2917786 -0.06300354 -6.0c-0.041549683 -1.708252 -0.1552887 -3.5411377 -0.18634033 -4.249359" fill-rule="evenodd"/><path stroke="#000000" stroke-width="2.0" stroke-linejoin="round" stroke-linecap="butt" d="m177.87451 352.68765c-0.22877502 0.7187195 -1.1854706 2.6351929 -1.3726959 4.3123474c-0.18722534 1.6771545 -1.708664 4.1671143 0.24934387 5.7506714c1.9580078 1.5835266 5.915573 2.9588623 11.498688 3.7506409c5.5831146 0.79177856 14.291336 0.8753357 22.0 1.0c7.708664 0.12466431 18.668411 0.20648193 24.251968 -0.25198364c5.583542 -0.45843506 7.718277 -1.0822144 9.249344 -2.4986572c1.5310516 -1.4164734 -0.021438599 -4.2917786 -0.06300354 -6.0c-0.041549683 -1.708252 -0.1552887 -3.5411377 -0.18634033 -4.249359" fill-rule="evenodd"/><path fill="#cfe2f3" d="m175.98787 358.6453c-0.12741089 3.7080994 -0.5194855 15.322845 -0.7644806 22.248566c-0.24499512 6.9256897 -0.39186096 13.184387 -0.70547485 19.305695c-0.3136139 6.121277 -1.5289612 13.733704 -1.1762238 17.42212c0.35273743 3.688385 1.6069794 3.6096191 3.292633 4.7082825c1.685669 1.0986328 3.9205322 1.4911194 6.8213196 1.8835754c2.9007874 0.39245605 7.721939 0.6282959 10.583389 0.47122192c2.8614502 -0.15707397 4.860504 -0.5895691 6.5852814 -1.4136658c1.7247772 -0.8240967 2.901001 -1.9223022 3.763382 -3.5308838c0.86239624 -1.6086121 0.47010803 0.7855835 1.4109497 -6.1206665c0.9408417 -6.9062195 3.254181 -26.684021 4.234146 -35.316772c0.9799652 -8.632721 1.3713837 -13.733063 1.6456604 -16.479675" fill-rule="evenodd"/><path stroke="#000000" stroke-width="2.0" stroke-linejoin="round" stroke-linecap="butt" d="m175.98787 358.6453c-0.12741089 3.7080994 -0.5194855 15.322845 -0.7644806 22.248566c-0.24499512 6.9256897 -0.39186096 13.184387 -0.70547485 19.305695c-0.3136139 6.121277 -1.5289612 13.733704 -1.1762238 17.42212c0.35273743 3.688385 1.6069794 3.6096191 3.292633 4.7082825c1.685669 1.0986328 3.9205322 1.4911194 6.8213196 1.8835754c2.9007874 0.39245605 7.721939 0.6282959 10.583389 0.47122192c2.8614502 -0.15707397 4.860504 -0.5895691 6.5852814 -1.4136658c1.7247772 -0.8240967 2.901001 -1.9223022 3.763382 -3.5308838c0.86239624 -1.6086121 0.47010803 0.7855835 1.4109497 -6.1206665c0.9408417 -6.9062195 3.254181 -26.684021 4.234146 -35.316772c0.9799652 -8.632721 1.3713837 -13.733063 1.6456604 -16.479675" fill-rule="evenodd"/><path fill="#cfe2f3" d="m173.34267 413.37918c-0.2351532 2.0795898 -1.1364441 7.2588806 -1.4109344 12.47757c-0.27450562 5.2186584 -0.2557068 12.928864 -0.23603821 18.834473c0.01966858 5.9055786 0.079559326 12.94986 0.35404968 16.599121c0.27449036 3.649231 0.13659668 4.0996704 1.292923 5.2963257c1.1563416 1.1966553 2.3131104 1.4519348 5.645096 1.8835754c3.3319702 0.4316101 11.054138 1.1377869 14.346771 0.70617676c3.2926483 -0.43164062 4.311508 -1.6871338 5.4090576 -3.295929c1.0975494 -1.6088257 0.9801941 -4.0025635 1.1762238 -6.3569336c0.19604492 -2.3543396 -0.35273743 -4.1593933 0 -7.7692566c0.35273743 -3.6098633 1.332489 -8.828308 2.1164246 -13.889923c0.7839203 -5.0615845 1.999054 -12.595032 2.5871582 -16.479675c0.5881195 -3.884613 0.7845917 -5.690094 0.94151306 -6.828125" fill-rule="evenodd"/><path stroke="#000000" stroke-width="2.0" stroke-linejoin="round" stroke-linecap="butt" d="m173.34267 413.37918c-0.2351532 2.0795898 -1.1364441 7.2588806 -1.4109344 12.47757c-0.27450562 5.2186584 -0.2557068 12.928864 -0.23603821 18.834473c0.01966858 5.9055786 0.079559326 12.94986 0.35404968 16.599121c0.27449036 3.649231 0.13659668 4.0996704 1.292923 5.2963257c1.1563416 1.1966553 2.3131104 1.4519348 5.645096 1.8835754c3.3319702 0.4316101 11.054138 1.1377869 14.346771 0.70617676c3.2926483 -0.43164062 4.311508 -1.6871338 5.4090576 -3.295929c1.0975494 -1.6088257 0.9801941 -4.0025635 1.1762238 -6.3569336c0.19604492 -2.3543396 -0.35273743 -4.1593933 0 -7.7692566c0.35273743 -3.6098633 1.332489 -8.828308 2.1164246 -13.889923c0.7839203 -5.0615845 1.999054 -12.595032 2.5871582 -16.479675c0.5881195 -3.884613 0.7845917 -5.690094 0.94151306 -6.828125" fill-rule="evenodd"/><path fill="#cfe2f3" d="m171.93114 459.4044c0.058792114 1.0004272 -0.27449036 3.7072144 0.35273743 6.002533c0.6272278 2.295288 2.019165 5.728821 3.4106598 7.7692566c1.3914948 2.0404358 3.3311005 3.4138489 4.9382935 4.4733276c1.6072083 1.0595093 2.35289 1.4911194 4.704895 1.883606c2.3520203 0.39245605 6.898468 0.510376 9.407166 0.47122192c2.5087128 -0.03918457 4.390625 -0.23519897 5.645096 -0.70617676c1.2544556 -0.4710083 1.7641144 -1.138916 1.8816986 -2.119873c0.11756897 -0.9809265 -0.70570374 -1.7256165 -1.1762238 -3.7658386c-0.47053528 -2.0402222 -1.450943 -6.2387695 -1.6469879 -8.475433c-0.19602966 -2.2366638 0.39230347 -4.1204834 0.47076416 -4.94458" fill-rule="evenodd"/><path stroke="#000000" stroke-width="2.0" stroke-linejoin="round" stroke-linecap="butt" d="m171.93114 459.4044c0.058792114 1.0004272 -0.27449036 3.7072144 0.35273743 6.002533c0.6272278 2.295288 2.019165 5.728821 3.4106598 7.7692566c1.3914948 2.0404358 3.3311005 3.4138489 4.9382935 4.4733276c1.6072083 1.0595093 2.35289 1.4911194 4.704895 1.883606c2.3520203 0.39245605 6.898468 0.510376 9.407166 0.47122192c2.5087128 -0.03918457 4.390625 -0.23519897 5.645096 -0.70617676c1.2544556 -0.4710083 1.7641144 -1.138916 1.8816986 -2.119873c0.11756897 -0.9809265 -0.70570374 -1.7256165 -1.1762238 -3.7658386c-0.47053528 -2.0402222 -1.450943 -6.2387695 -1.6469879 -8.475433c-0.19602966 -2.2366638 0.39230347 -4.1204834 0.47076416 -4.94458" fill-rule="evenodd"/><path fill="#cfe2f3" d="m209.80183 359.58652c0.30749512 3.736969 1.0536194 15.501556 1.844986 22.421783c0.7913513 6.9202576 2.0707397 13.026886 2.903183 19.09964c0.83244324 6.0727234 1.0575562 13.778778 2.091507 17.336792c1.0339508 3.558014 2.25148 3.2464905 4.1121826 4.0112915c1.8607178 0.764801 4.1290283 0.7335205 7.052109 0.57754517c2.9230652 -0.15597534 7.704239 -0.82473755 10.486343 -1.5134277c2.7821198 -0.68865967 4.665344 -1.4869385 6.206314 -2.6186218c1.5409851 -1.1316833 2.4918823 -2.4300537 3.039566 -4.1714478c0.5476837 -1.7413635 0.60887146 0.68408203 0.246521 -6.276825c-0.36235046 -6.9609375 -1.7346039 -26.951813 -2.4206238 -35.48874c-0.68603516 -8.536926 -1.4129181 -13.110657 -1.6954956 -15.732788" fill-rule="evenodd"/><path stroke="#000000" stroke-width="2.0" stroke-linejoin="round" stroke-linecap="butt" d="m209.80183 359.58652c0.30749512 3.736969 1.0536194 15.501556 1.844986 22.421783c0.7913513 6.9202576 2.0707397 13.026886 2.903183 19.09964c0.83244324 6.0727234 1.0575562 13.778778 2.091507 17.336792c1.0339508 3.558014 2.25148 3.2464905 4.1121826 4.0112915c1.8607178 0.764801 4.1290283 0.7335205 7.052109 0.57754517c2.9230652 -0.15597534 7.704239 -0.82473755 10.486343 -1.5134277c2.7821198 -0.68865967 4.665344 -1.4869385 6.206314 -2.6186218c1.5409851 -1.1316833 2.4918823 -2.4300537 3.039566 -4.1714478c0.5476837 -1.7413635 0.60887146 0.68408203 0.246521 -6.276825c-0.36235046 -6.9609375 -1.7346039 -26.951813 -2.4206238 -35.48874c-0.68603516 -8.536926 -1.4129181 -13.110657 -1.6954956 -15.732788" fill-rule="evenodd"/><path fill="#cfe2f3" d="m215.84416 414.27484c0.15649414 2.086914 0.23612976 7.343384 0.9389801 12.521484c0.70285034 5.1781006 2.1582031 12.749115 3.278122 18.54712c1.1199036 5.798004 2.4915314 12.707153 3.44133 16.240936c0.9497986 3.5337524 0.89823914 4.002014 2.2574615 4.96167c1.3592072 0.95965576 2.5434113 0.9944458 5.897812 0.7962036c3.3543854 -0.19821167 11.073685 -0.9465637 14.228546 -1.9854736c3.1548615 -1.0389404 3.9220123 -2.462616 4.7006226 -4.2480774c0.7786102 -1.7854614 0.2171936 -4.1151733 -0.028945923 -6.4647217c-0.24613953 -2.3495483 -1.1217499 -4.020355 -1.4479065 -7.6325684c-0.32614136 -3.6122131 -0.33598328 -8.921814 -0.5090027 -14.040741c-0.17300415 -5.118927 -0.3829956 -12.746735 -0.52908325 -16.672821c-0.14607239 -3.926117 -0.289505 -5.736511 -0.34739685 -6.8838196" fill-rule="evenodd"/><path stroke="#000000" stroke-width="2.0" stroke-linejoin="round" stroke-linecap="butt" d="m215.84416 414.27484c0.15649414 2.086914 0.23612976 7.343384 0.9389801 12.521484c0.70285034 5.1781006 2.1582031 12.749115 3.278122 18.54712c1.1199036 5.798004 2.4915314 12.707153 3.44133 16.240936c0.9497986 3.5337524 0.89823914 4.002014 2.2574615 4.96167c1.3592072 0.95965576 2.5434113 0.9944458 5.897812 0.7962036c3.3543854 -0.19821167 11.073685 -0.9465637 14.228546 -1.9854736c3.1548615 -1.0389404 3.9220123 -2.462616 4.7006226 -4.2480774c0.7786102 -1.7854614 0.2171936 -4.1151733 -0.028945923 -6.4647217c-0.24613953 -2.3495483 -1.1217499 -4.020355 -1.4479065 -7.6325684c-0.32614136 -3.6122131 -0.33598328 -8.921814 -0.5090027 -14.040741c-0.17300415 -5.118927 -0.3829956 -12.746735 -0.52908325 -16.672821c-0.14607239 -3.926117 -0.289505 -5.736511 -0.34739685 -6.8838196" fill-rule="evenodd"/><path fill="#cfe2f3" d="m223.02637 459.75754c0.24420166 0.9718323 0.4211731 3.6932373 1.4652405 5.831024c1.0440674 2.1377563 3.0516357 5.250946 4.799164 6.9956055c1.7475281 1.74469 3.909317 2.73172 5.685974 3.472412c1.7766571 0.74069214 2.589798 1.0254822 4.973984 0.97180176c2.384201 -0.05368042 6.873459 -0.78689575 9.331177 -1.2938538c2.457718 -0.5069885 4.27034 -1.0509949 5.4151764 -1.7479858c1.1448364 -0.69696045 1.5211487 -1.4483032 1.4538574 -2.4339294c-0.06726074 -0.98565674 -1.0149841 -1.5634766 -1.857544 -3.4799194c-0.8425598 -1.9164429 -2.5883484 -5.8580627 -3.1977997 -8.018738c-0.6094513 -2.1607056 -0.3824463 -4.121216 -0.45892334 -4.945465" fill-rule="evenodd"/><path stroke="#000000" stroke-width="2.0" stroke-linejoin="round" stroke-linecap="butt" d="m223.02637 459.75754c0.24420166 0.9718323 0.4211731 3.6932373 1.4652405 5.831024c1.0440674 2.1377563 3.0516357 5.250946 4.799164 6.9956055c1.7475281 1.74469 3.909317 2.73172 5.685974 3.472412c1.7766571 0.74069214 2.589798 1.0254822 4.973984 0.97180176c2.384201 -0.05368042 6.873459 -0.78689575 9.331177 -1.2938538c2.457718 -0.5069885 4.27034 -1.0509949 5.4151764 -1.7479858c1.1448364 -0.69696045 1.5211487 -1.4483032 1.4538574 -2.4339294c-0.06726074 -0.98565674 -1.0149841 -1.5634766 -1.857544 -3.4799194c-0.8425598 -1.9164429 -2.5883484 -5.8580627 -3.1977997 -8.018738c-0.6094513 -2.1607056 -0.3824463 -4.121216 -0.45892334 -4.945465" fill-rule="evenodd"/><path fill="#cfe2f3" d="m201.92213 115.72933c-2.0139008 0.24715424 -0.8728943 0.044075012 -2.2787933 -0.24369812c-1.405899 -0.28777313 -3.382309 -1.4414444 -6.156601 -1.4829254c-2.774292 -0.04147339 -6.651291 0.32839203 -10.489197 1.2340469c-3.837906 0.9056473 -8.738602 2.9243622 -12.538208 4.199875c-3.799591 1.2755203 -6.231598 0.61356354 -10.259399 3.4532394c-4.0278015 2.839676 -10.904907 10.332924 -13.907394 13.584801c-3.0025024 3.251892 -2.663391 3.581131 -4.1075897 5.9264984c-1.4442139 2.3453674 -2.8860168 5.100357 -4.557617 8.145706c-1.6716003 3.0453339 -3.8378906 7.1631317 -5.472 10.126373c-1.6340942 2.9632568 -2.7368011 5.306885 -4.332596 7.653122c-1.5958023 2.3462372 -3.3799057 4.612961 -5.2422028 6.4242706c-1.862297 1.8112946 -4.449089 3.3737183 -5.931595 4.443573c-1.4824982 1.0698395 -1.0260925 1.2763824 -2.9634018 1.9754944c-1.9373016 0.6991272 -8.052406 0.8200989 -8.660408 2.2192078c-0.6079941 1.3990936 2.732811 4.529129 5.012413 6.1753693c2.279602 1.6462555 5.7009964 3.3313904 8.665199 3.702118c2.9641953 0.3707428 8.550293 -1.6013031 9.119995 -1.4777374c0.56970215 0.12358093 -3.953598 0.82011414 -5.7017975 2.2192078c-1.7481995 1.3990936 -2.8500977 3.0885468 -4.7873993 6.1753845c-1.9373016 3.0868225 -5.3164062 8.723816 -6.8364105 12.345566c-1.5199966 3.6217499 -1.788887 5.5160217 -2.2835846 9.384933c-0.4947052 3.8688965 -1.3309021 9.918976 -0.68460083 13.828491c0.64630127 3.9095154 1.3316956 6.501175 4.562393 9.628616c3.2306976 3.1274414 12.921997 8.60112 14.821793 9.136047c1.8997955 0.53492737 -2.5484924 -3.951004 -3.422989 -5.9264984c-0.87449646 -1.9755096 -1.7481995 -4.074585 -1.8240051 -5.9264984c-0.075798035 -1.8519287 -0.22660065 -0.8641815 1.3692017 -5.1850433c1.5958023 -4.320862 7.63591 -19.711792 8.205612 -20.740158c0.5696869 -1.0283661 -3.875412 10.042557 -4.787407 14.569962c-0.91200256 4.527405 -1.3309021 9.055664 -0.68460083 12.594452c0.64630127 3.5387878 2.9657974 5.92218 4.562401 8.638275c1.5965881 2.7161102 3.0415955 5.517761 5.0171967 7.6582947c1.9756012 2.140564 5.3164062 4.115204 6.8364105 5.1850586c1.519989 1.0698547 2.2835846 2.1802979 2.2835846 1.2340393c0 -0.94628906 -1.7513885 -4.1955566 -2.2835846 -6.9116516c-0.5322113 -2.716095 -1.2136078 -6.050949 -0.90960693 -9.384933c0.30400085 -3.3339844 2.2014008 -10.866119 2.7335968 -10.6189575c0.53219604 0.2471466 -0.33911133 8.8914795 0.45959473 12.101883c0.7986908 3.2104034 2.2428894 4.7736816 4.332596 7.1605225c2.0897064 2.3868713 5.5462036 5.4322205 8.205612 7.160553c2.6593933 1.7283325 6.952896 3.9916077 7.7507935 3.2095337c0.7979126 -0.782074 -2.393692 -5.1858826 -2.9633942 -7.902008c-0.56970215 -2.716095 -0.5689087 -5.4727936 -0.45480347 -8.394562c0.114105225 -2.9217682 0.11329651 -9.588867 1.1394043 -9.136047c1.0260925 0.45283508 2.850891 8.725571 5.0171967 11.853012c2.1662903 3.1274261 5.5485992 4.813431 7.980591 6.9116364c2.4320068 2.098236 5.0156097 4.607788 6.6114044 5.677643c1.5957947 1.0698242 3.0774994 2.3876953 2.9634094 0.7414551c-0.114105225 -1.6462402 -1.6716156 -6.4216614 -3.6480103 -10.6189575c-1.9763947 -4.197296 -5.625992 -8.844818 -8.210388 -14.564789c-2.5843964 -5.7199554 -5.738495 -13.828491 -7.2960052 -19.75499c-1.5574951 -5.9264984 -1.8973999 -9.548248 -2.0490112 -15.804001c-0.15159607 -6.2557526 -0.22819519 -15.268219 1.1394043 -21.7305c1.3675995 -6.4622955 4.0262146 -12.968658 7.066208 -17.043228c3.0399933 -4.0745697 6.34729 -4.811722 11.173798 -7.404236c4.8264923 -2.592514 12.6171875 -6.2989655 17.785202 -8.150879c5.1679993 -1.8519287 9.613098 -3.2484283 13.222794 -2.9606628c3.6096954 0.2877655 6.1932983 4.56456 8.43541 4.687271c2.242096 0.12271118 3.6112976 -3.128296 5.0171967 -3.9509888c1.405899 -0.8226929 1.8607025 -1.0266418 3.4181976 -0.98516846c1.5574951 0.041488647 2.9243011 -0.04147339 5.9268036 1.2340393c3.0025024 1.275528 9.199783 4.9785004 12.088196 6.4190826c2.8883972 1.4405823 2.2787933 0.289505 5.2422028 2.2243805c2.9634094 1.9348907 8.890198 5.475403 12.538208 9.384918c3.6479797 3.9095306 7.183502 8.845688 9.3497925 14.072205c2.1662903 5.2265167 3.3822937 11.4010315 3.6480103 17.286926c0.26568604 5.8858795 -0.49551392 12.060394 -2.0538025 18.028381c-1.5583191 5.967972 -4.4084167 12.347305 -7.2960205 17.779495c-2.8875732 5.43219 -6.913788 10.739075 -10.029602 14.81366c-3.1157837 4.0745697 -6.6887817 7.3696747 -8.665192 9.633804c-1.9763947 2.2641296 -4.63739 3.9509888 -3.1931915 3.9509888c1.4441986 0 7.868088 -1.4812012 11.858383 -3.9509888c3.9902954 -2.469818 8.967621 -6.340439 12.083405 -10.867844c3.1158142 -4.527405 6.421509 -16.58435 6.6114197 -16.296585c0.18988037 0.2877655 -3.496399 12.591003 -5.4720154 18.023193c-1.9755859 5.43219 -7.4460144 13.417175 -6.381592 14.569977c1.0643921 1.1528015 9.386475 -5.060608 12.767975 -7.653137c3.3815002 -2.5924988 5.6595154 -5.5151367 7.5210266 -7.901993c1.8615112 -2.3868408 2.9259033 -3.661499 3.6479797 -6.4190826c0.72210693 -2.7575684 1.0644226 -6.0518036 0.68460083 -10.126373c-0.37979126 -4.074585 -2.963379 -13.704056 -2.963379 -14.321075c0 -0.61701965 2.3553772 7.202881 2.963379 10.6189575c0.6080017 3.4160767 0.64630127 7.1614075 0.68460083 9.877502c0.03829956 2.716095 0.34310913 3.7029724 -0.45480347 6.4190674c-0.7978821 2.7161102 -4.9780884 9.301117 -4.3325806 9.877502c0.6455078 0.576416 5.54541 -3.3737335 8.205597 -6.4190674c2.6601868 -3.0453491 6.083191 -7.0784454 7.7555847 -11.853012c1.6723938 -4.7745514 2.6211243 -10.949936 2.2788086 -16.794342c-0.34228516 -5.844406 -1.7106934 -12.839874 -4.3325806 -18.27208c-2.6219177 -5.43219 -10.068726 -12.304092 -11.398804 -14.321075c-1.3301086 -2.016983 1.3284912 2.713501 3.4181824 2.2191925c2.0897217 -0.49430847 6.649719 -3.1689148 9.119995 -5.185028c2.4703064 -2.0161285 5.5877075 -5.5946655 5.7018127 -6.911667c0.114105225 -1.3170013 -3.230713 -0.41394043 -5.017212 -0.9903412c-1.786499 -0.57640076 -3.8019714 -1.2746582 -5.701782 -2.4680786c-1.8998108 -1.1934204 -3.8730164 -1.6877289 -5.6970215 -4.692459c-1.8239746 -3.0047302 -3.4604797 -9.343445 -5.2469788 -13.335922c-1.786499 -3.9924774 -3.9144897 -7.7386627 -5.4720154 -10.6189575c-1.5574951 -2.8802948 -1.2893982 -3.6174316 -3.8729858 -6.662781c-2.5836182 -3.0453491 -7.752411 -8.398895 -11.628601 -11.609299c-3.8762207 -3.2104034 -7.296814 -5.348366 -11.628601 -7.653122c-4.3318024 -2.3047485 -9.498215 -4.8583755 -14.362213 -6.175377c-4.8639984 -1.3170013 -10.10939 -1.4388504 -14.821793 -1.7266235c-4.7124023 -0.2877655 -9.576401 -0.2877655 -13.452591 0c-3.8762054 0.28777313 -7.7907104 1.4794693 -9.804611 1.7266235z" fill-rule="evenodd"/><path stroke="#000000" stroke-width="2.0" stroke-linejoin="round" stroke-linecap="butt" d="m201.92213 115.72933c-2.0139008 0.24715424 -0.8728943 0.044075012 -2.2787933 -0.24369812c-1.405899 -0.28777313 -3.382309 -1.4414444 -6.156601 -1.4829254c-2.774292 -0.04147339 -6.651291 0.32839203 -10.489197 1.2340469c-3.837906 0.9056473 -8.738602 2.9243622 -12.538208 4.199875c-3.799591 1.2755203 -6.231598 0.61356354 -10.259399 3.4532394c-4.0278015 2.839676 -10.904907 10.332924 -13.907394 13.584801c-3.0025024 3.251892 -2.663391 3.581131 -4.1075897 5.9264984c-1.4442139 2.3453674 -2.8860168 5.100357 -4.557617 8.145706c-1.6716003 3.0453339 -3.8378906 7.1631317 -5.472 10.126373c-1.6340942 2.9632568 -2.7368011 5.306885 -4.332596 7.653122c-1.5958023 2.3462372 -3.3799057 4.612961 -5.2422028 6.4242706c-1.862297 1.8112946 -4.449089 3.3737183 -5.931595 4.443573c-1.4824982 1.0698395 -1.0260925 1.2763824 -2.9634018 1.9754944c-1.9373016 0.6991272 -8.052406 0.8200989 -8.660408 2.2192078c-0.6079941 1.3990936 2.732811 4.529129 5.012413 6.1753693c2.279602 1.6462555 5.7009964 3.3313904 8.665199 3.702118c2.9641953 0.3707428 8.550293 -1.6013031 9.119995 -1.4777374c0.56970215 0.12358093 -3.953598 0.82011414 -5.7017975 2.2192078c-1.7481995 1.3990936 -2.8500977 3.0885468 -4.7873993 6.1753845c-1.9373016 3.0868225 -5.3164062 8.723816 -6.8364105 12.345566c-1.5199966 3.6217499 -1.788887 5.5160217 -2.2835846 9.384933c-0.4947052 3.8688965 -1.3309021 9.918976 -0.68460083 13.828491c0.64630127 3.9095154 1.3316956 6.501175 4.562393 9.628616c3.2306976 3.1274414 12.921997 8.60112 14.821793 9.136047c1.8997955 0.53492737 -2.5484924 -3.951004 -3.422989 -5.9264984c-0.87449646 -1.9755096 -1.7481995 -4.074585 -1.8240051 -5.9264984c-0.075798035 -1.8519287 -0.22660065 -0.8641815 1.3692017 -5.1850433c1.5958023 -4.320862 7.63591 -19.711792 8.205612 -20.740158c0.5696869 -1.0283661 -3.875412 10.042557 -4.787407 14.569962c-0.91200256 4.527405 -1.3309021 9.055664 -0.68460083 12.594452c0.64630127 3.5387878 2.9657974 5.92218 4.562401 8.638275c1.5965881 2.7161102 3.0415955 5.517761 5.0171967 7.6582947c1.9756012 2.140564 5.3164062 4.115204 6.8364105 5.1850586c1.519989 1.0698547 2.2835846 2.1802979 2.2835846 1.2340393c0 -0.94628906 -1.7513885 -4.1955566 -2.2835846 -6.9116516c-0.5322113 -2.716095 -1.2136078 -6.050949 -0.90960693 -9.384933c0.30400085 -3.3339844 2.2014008 -10.866119 2.7335968 -10.6189575c0.53219604 0.2471466 -0.33911133 8.8914795 0.45959473 12.101883c0.7986908 3.2104034 2.2428894 4.7736816 4.332596 7.1605225c2.0897064 2.3868713 5.5462036 5.4322205 8.205612 7.160553c2.6593933 1.7283325 6.952896 3.9916077 7.7507935 3.2095337c0.7979126 -0.782074 -2.393692 -5.1858826 -2.9633942 -7.902008c-0.56970215 -2.716095 -0.5689087 -5.4727936 -0.45480347 -8.394562c0.114105225 -2.9217682 0.11329651 -9.588867 1.1394043 -9.136047c1.0260925 0.45283508 2.850891 8.725571 5.0171967 11.853012c2.1662903 3.1274261 5.5485992 4.813431 7.980591 6.9116364c2.4320068 2.098236 5.0156097 4.607788 6.6114044 5.677643c1.5957947 1.0698242 3.0774994 2.3876953 2.9634094 0.7414551c-0.114105225 -1.6462402 -1.6716156 -6.4216614 -3.6480103 -10.6189575c-1.9763947 -4.197296 -5.625992 -8.844818 -8.210388 -14.564789c-2.5843964 -5.7199554 -5.738495 -13.828491 -7.2960052 -19.75499c-1.5574951 -5.9264984 -1.8973999 -9.548248 -2.0490112 -15.804001c-0.15159607 -6.2557526 -0.22819519 -15.268219 1.1394043 -21.7305c1.3675995 -6.4622955 4.0262146 -12.968658 7.066208 -17.043228c3.0399933 -4.0745697 6.34729 -4.811722 11.173798 -7.404236c4.8264923 -2.592514 12.6171875 -6.2989655 17.785202 -8.150879c5.1679993 -1.8519287 9.613098 -3.2484283 13.222794 -2.9606628c3.6096954 0.2877655 6.1932983 4.56456 8.43541 4.687271c2.242096 0.12271118 3.6112976 -3.128296 5.0171967 -3.9509888c1.405899 -0.8226929 1.8607025 -1.0266418 3.4181976 -0.98516846c1.5574951 0.041488647 2.9243011 -0.04147339 5.9268036 1.2340393c3.0025024 1.275528 9.199783 4.9785004 12.088196 6.4190826c2.8883972 1.4405823 2.2787933 0.289505 5.2422028 2.2243805c2.9634094 1.9348907 8.890198 5.475403 12.538208 9.384918c3.6479797 3.9095306 7.183502 8.845688 9.3497925 14.072205c2.1662903 5.2265167 3.3822937 11.4010315 3.6480103 17.286926c0.26568604 5.8858795 -0.49551392 12.060394 -2.0538025 18.028381c-1.5583191 5.967972 -4.4084167 12.347305 -7.2960205 17.779495c-2.8875732 5.43219 -6.913788 10.739075 -10.029602 14.81366c-3.1157837 4.0745697 -6.6887817 7.3696747 -8.665192 9.633804c-1.9763947 2.2641296 -4.63739 3.9509888 -3.1931915 3.9509888c1.4441986 0 7.868088 -1.4812012 11.858383 -3.9509888c3.9902954 -2.469818 8.967621 -6.340439 12.083405 -10.867844c3.1158142 -4.527405 6.421509 -16.58435 6.6114197 -16.296585c0.18988037 0.2877655 -3.496399 12.591003 -5.4720154 18.023193c-1.9755859 5.43219 -7.4460144 13.417175 -6.381592 14.569977c1.0643921 1.1528015 9.386475 -5.060608 12.767975 -7.653137c3.3815002 -2.5924988 5.6595154 -5.5151367 7.5210266 -7.901993c1.8615112 -2.3868408 2.9259033 -3.661499 3.6479797 -6.4190826c0.72210693 -2.7575684 1.0644226 -6.0518036 0.68460083 -10.126373c-0.37979126 -4.074585 -2.963379 -13.704056 -2.963379 -14.321075c0 -0.61701965 2.3553772 7.202881 2.963379 10.6189575c0.6080017 3.4160767 0.64630127 7.1614075 0.68460083 9.877502c0.03829956 2.716095 0.34310913 3.7029724 -0.45480347 6.4190674c-0.7978821 2.7161102 -4.9780884 9.301117 -4.3325806 9.877502c0.6455078 0.576416 5.54541 -3.3737335 8.205597 -6.4190674c2.6601868 -3.0453491 6.083191 -7.0784454 7.7555847 -11.853012c1.6723938 -4.7745514 2.6211243 -10.949936 2.2788086 -16.794342c-0.34228516 -5.844406 -1.7106934 -12.839874 -4.3325806 -18.27208c-2.6219177 -5.43219 -10.068726 -12.304092 -11.398804 -14.321075c-1.3301086 -2.016983 1.3284912 2.713501 3.4181824 2.2191925c2.0897217 -0.49430847 6.649719 -3.1689148 9.119995 -5.185028c2.4703064 -2.0161285 5.5877075 -5.5946655 5.7018127 -6.911667c0.114105225 -1.3170013 -3.230713 -0.41394043 -5.017212 -0.9903412c-1.786499 -0.57640076 -3.8019714 -1.2746582 -5.701782 -2.4680786c-1.8998108 -1.1934204 -3.8730164 -1.6877289 -5.6970215 -4.692459c-1.8239746 -3.0047302 -3.4604797 -9.343445 -5.2469788 -13.335922c-1.786499 -3.9924774 -3.9144897 -7.7386627 -5.4720154 -10.6189575c-1.5574951 -2.8802948 -1.2893982 -3.6174316 -3.8729858 -6.662781c-2.5836182 -3.0453491 -7.752411 -8.398895 -11.628601 -11.609299c-3.8762207 -3.2104034 -7.296814 -5.348366 -11.628601 -7.653122c-4.3318024 -2.3047485 -9.498215 -4.8583755 -14.362213 -6.175377c-4.8639984 -1.3170013 -10.10939 -1.4388504 -14.821793 -1.7266235c-4.7124023 -0.2877655 -9.576401 -0.2877655 -13.452591 0c-3.8762054 0.28777313 -7.7907104 1.4794693 -9.804611 1.7266235z" fill-rule="evenodd"/><path fill="#cfe2f3" d="m186.10002 133.00647c-1.0260925 -0.41134644 -3.9902954 -2.180313 -6.156601 -2.4680786c-2.1662903 -0.2877655 -4.2950897 -0.286911 -6.841202 0.7414551c-2.5460968 1.0283661 -5.927597 3.0419006 -8.435394 5.4287415c-2.5077972 2.3868408 -4.103607 5.10553 -6.6114044 8.892334c-2.5077972 3.7868195 -6.1932983 9.466156 -8.435394 13.828506c-2.2421112 4.3623505 -3.4206085 8.929504 -5.0171967 12.345581c-1.5966034 3.4160767 -2.928299 5.8461304 -4.562393 8.150879c-1.6341095 2.3047485 -3.3424072 4.1964264 -5.2422028 5.6776123c-1.8998108 1.4812012 -6.4223022 2.5095673 -6.156601 3.209549c0.2657013 0.6999817 4.9389954 1.5252686 7.7507935 0.9903412c2.811798 -0.53492737 6.7255096 -2.635727 9.12001 -4.19989c2.3945007 -1.564148 5.4368896 -5.3500824 5.246994 -5.185028c-0.18991089 0.16505432 -4.8280945 3.747055 -6.3863983 6.1753845c-1.5583038 2.4283142 -2.0514069 4.772827 -2.9634094 8.394577c-0.9119873 3.6217499 -2.1287994 8.644318 -2.5085907 13.335922c-0.37980652 4.6915894 -0.37820435 10.122055 0.22979736 14.813644c0.6080017 4.6916046 2.506195 10.866119 3.4181976 13.335922c0.91200256 2.469818 1.7872925 3.0056 2.0538025 1.4829254c0.26649475 -1.5226746 -1.0245056 -4.9802246 -0.45480347 -10.6189575c0.56970215 -5.638733 3.5690002 -22.020004 3.873001 -23.213425c0.30400085 -1.1934204 -1.5176086 11.731155 -2.0490112 16.052887c-0.5314026 4.3217316 -2.203003 5.9264984 -1.139389 9.877502c1.0635986 3.9509888 4.291107 9.7539215 7.520996 13.828491c3.2299042 4.074585 7.222595 7.1207886 11.858398 10.6189575c4.635803 3.4981842 12.194305 7.6133575 15.956406 10.370071c3.7621002 2.7567139 5.3618927 5.800354 6.6161957 6.1701965c1.254303 0.36987305 2.7718964 -1.1112976 0.90960693 -3.9509888c-1.8623047 -2.8396606 -8.473709 -7.5312805 -12.083405 -13.087036c-3.6096954 -5.555771 -7.598404 -14.48613 -9.574799 -20.247574c-1.9764099 -5.761444 -2.4734955 -14.526764 -2.2835999 -14.321091c0.18991089 0.20567322 1.7122955 10.369217 3.422989 15.55513c1.7107086 5.185898 3.6495972 10.456497 6.841202 15.560303c3.1916046 5.1038055 9.420807 12.182236 12.308411 15.062546c2.8876038 2.8802795 4.978897 3.0427551 5.0171967 2.2191772c0.03829956 -0.82354736 -3.115799 -3.4151917 -4.7873993 -7.1605225c-1.6716003 -3.7453308 -3.3041077 -8.726425 -5.2422028 -15.311432c-1.9380951 -6.5849915 -4.979706 -17.531479 -6.3863983 -24.198578c-1.4066925 -6.667099 -1.5598907 -10.495377 -2.0537872 -15.804001c-0.49391174 -5.308609 -1.4043121 -10.985367 -0.90960693 -16.047699c0.49468994 -5.062317 1.7114868 -9.4696045 3.8777924 -14.326263c2.1662903 -4.8566437 5.8143005 -10.492783 9.119995 -14.81366c3.3057098 -4.320862 8.928513 -9.259613 10.714203 -11.1115265" fill-rule="evenodd"/><path stroke="#000000" stroke-width="2.0" stroke-linejoin="round" stroke-linecap="butt" d="m186.10002 133.00647c-1.0260925 -0.41134644 -3.9902954 -2.180313 -6.156601 -2.4680786c-2.1662903 -0.2877655 -4.2950897 -0.286911 -6.841202 0.7414551c-2.5460968 1.0283661 -5.927597 3.0419006 -8.435394 5.4287415c-2.5077972 2.3868408 -4.103607 5.10553 -6.6114044 8.892334c-2.5077972 3.7868195 -6.1932983 9.466156 -8.435394 13.828506c-2.2421112 4.3623505 -3.4206085 8.929504 -5.0171967 12.345581c-1.5966034 3.4160767 -2.928299 5.8461304 -4.562393 8.150879c-1.6341095 2.3047485 -3.3424072 4.1964264 -5.2422028 5.6776123c-1.8998108 1.4812012 -6.4223022 2.5095673 -6.156601 3.209549c0.2657013 0.6999817 4.9389954 1.5252686 7.7507935 0.9903412c2.811798 -0.53492737 6.7255096 -2.635727 9.12001 -4.19989c2.3945007 -1.564148 5.4368896 -5.3500824 5.246994 -5.185028c-0.18991089 0.16505432 -4.8280945 3.747055 -6.3863983 6.1753845c-1.5583038 2.4283142 -2.0514069 4.772827 -2.9634094 8.394577c-0.9119873 3.6217499 -2.1287994 8.644318 -2.5085907 13.335922c-0.37980652 4.6915894 -0.37820435 10.122055 0.22979736 14.813644c0.6080017 4.6916046 2.506195 10.866119 3.4181976 13.335922c0.91200256 2.469818 1.7872925 3.0056 2.0538025 1.4829254c0.26649475 -1.5226746 -1.0245056 -4.9802246 -0.45480347 -10.6189575c0.56970215 -5.638733 3.5690002 -22.020004 3.873001 -23.213425c0.30400085 -1.1934204 -1.5176086 11.731155 -2.0490112 16.052887c-0.5314026 4.3217316 -2.203003 5.9264984 -1.139389 9.877502c1.0635986 3.9509888 4.291107 9.7539215 7.520996 13.828491c3.2299042 4.074585 7.222595 7.1207886 11.858398 10.6189575c4.635803 3.4981842 12.194305 7.6133575 15.956406 10.370071c3.7621002 2.7567139 5.3618927 5.800354 6.6161957 6.1701965c1.254303 0.36987305 2.7718964 -1.1112976 0.90960693 -3.9509888c-1.8623047 -2.8396606 -8.473709 -7.5312805 -12.083405 -13.087036c-3.6096954 -5.555771 -7.598404 -14.48613 -9.574799 -20.247574c-1.9764099 -5.761444 -2.4734955 -14.526764 -2.2835999 -14.321091c0.18991089 0.20567322 1.7122955 10.369217 3.422989 15.55513c1.7107086 5.185898 3.6495972 10.456497 6.841202 15.560303c3.1916046 5.1038055 9.420807 12.182236 12.308411 15.062546c2.8876038 2.8802795 4.978897 3.0427551 5.0171967 2.2191772c0.03829956 -0.82354736 -3.115799 -3.4151917 -4.7873993 -7.1605225c-1.6716003 -3.7453308 -3.3041077 -8.726425 -5.2422028 -15.311432c-1.9380951 -6.5849915 -4.979706 -17.531479 -6.3863983 -24.198578c-1.4066925 -6.667099 -1.5598907 -10.495377 -2.0537872 -15.804001c-0.49391174 -5.308609 -1.4043121 -10.985367 -0.90960693 -16.047699c0.49468994 -5.062317 1.7114868 -9.4696045 3.8777924 -14.326263c2.1662903 -4.8566437 5.8143005 -10.492783 9.119995 -14.81366c3.3057098 -4.320862 8.928513 -9.259613 10.714203 -11.1115265" fill-rule="evenodd"/><path fill="#cfe2f3" d="m247.20103 150.04323c1.368393 0.9056549 5.321991 3.0876923 8.210388 5.433914c2.8884125 2.3462372 6.536392 5.26886 9.12001 8.643463c2.5835876 3.3746033 4.938202 6.871048 6.381592 11.604111c1.4434204 4.733078 2.0505981 10.291443 2.2788086 16.794357c0.22821045 6.502899 -0.3399048 15.021057 -0.90960693 22.223068c-0.56970215 7.2020264 -1.3309021 15.021057 -2.508606 20.989044c-1.1777039 5.967972 -2.6953125 9.345169 -4.5575867 14.818848c-1.8623047 5.4736786 -6.9577026 16.542007 -6.616211 18.023178c0.34152222 1.4812012 6.2707214 -4.8972473 8.665192 -9.136017c2.3945007 -4.238785 4.5999146 -12.674835 5.7018127 -16.296585c1.1018982 -3.6217499 0.9854126 -6.503769 0.90960693 -5.4339294c-0.075805664 1.0698547 -0.11090088 8.025574 -1.3644104 11.852997c-1.2535095 3.827423 -6.6505127 10.370956 -6.156616 11.111557c0.493927 0.7406006 6.7263184 -3.9518738 9.120026 -6.6679688c2.3936768 -2.716095 4.102783 -4.8955383 5.2421875 -9.628616c1.1394043 -4.733078 1.2519226 -17.000015 1.5942078 -18.769852c0.34231567 -1.7698212 0.5354004 4.899002 0.45959473 8.150894c-0.075805664 3.2518768 -1.5982056 11.566086 -0.9143982 11.360413c0.6838074 -0.20567322 3.4588928 -7.861389 5.017212 -12.594452c1.5582886 -4.733078 3.5346985 -10.865265 4.3325806 -15.804001c0.7979126 -4.938751 1.0252991 -9.589737 0.45480347 -13.828506c-0.5704956 -4.2387695 -1.1417847 -7.2823944 -3.877777 -11.604111c-2.736023 -4.3217316 -11.626221 -13.049881 -12.538208 -14.326279c-0.9120178 -1.2763824 5.280487 5.2680054 7.0661926 6.6679688c1.7857056 1.3999634 1.5574951 1.6903229 3.6480103 1.7317963c2.0904846 0.041488647 6.8802795 -0.9471283 8.894989 -1.4829102c2.0147095 -0.5357971 3.4971924 -1.1139221 3.1932068 -1.7318115c-0.3040161 -0.61787415 -3.497223 -0.20652771 -5.017212 -1.9754944c-1.519989 -1.7689667 -2.3163147 -4.8523407 -4.1028137 -8.638275c-1.786499 -3.7859497 -4.0700684 -9.261353 -6.6161804 -14.077377c-2.5460815 -4.81604 -5.924408 -11.032043 -8.6604 -14.818848c-2.7359924 -3.7868042 -5.5892944 -6.1736603 -7.7555847 -7.902008c-2.1663208 -1.7283478 -3.1525269 -2.1802979 -5.242218 -2.4680786c-2.0896912 -0.2877655 -6.080002 0.6178894 -7.2960052 0.74147034" fill-rule="evenodd"/><path stroke="#000000" stroke-width="2.0" stroke-linejoin="round" stroke-linecap="butt" d="m247.20103 150.04323c1.368393 0.9056549 5.321991 3.0876923 8.210388 5.433914c2.8884125 2.3462372 6.536392 5.26886 9.12001 8.643463c2.5835876 3.3746033 4.938202 6.871048 6.381592 11.604111c1.4434204 4.733078 2.0505981 10.291443 2.2788086 16.794357c0.22821045 6.502899 -0.3399048 15.021057 -0.90960693 22.223068c-0.56970215 7.2020264 -1.3309021 15.021057 -2.508606 20.989044c-1.1777039 5.967972 -2.6953125 9.345169 -4.5575867 14.818848c-1.8623047 5.4736786 -6.9577026 16.542007 -6.616211 18.023178c0.34152222 1.4812012 6.2707214 -4.8972473 8.665192 -9.136017c2.3945007 -4.238785 4.5999146 -12.674835 5.7018127 -16.296585c1.1018982 -3.6217499 0.9854126 -6.503769 0.90960693 -5.4339294c-0.075805664 1.0698547 -0.11090088 8.025574 -1.3644104 11.852997c-1.2535095 3.827423 -6.6505127 10.370956 -6.156616 11.111557c0.493927 0.7406006 6.7263184 -3.9518738 9.120026 -6.6679688c2.3936768 -2.716095 4.102783 -4.8955383 5.2421875 -9.628616c1.1394043 -4.733078 1.2519226 -17.000015 1.5942078 -18.769852c0.34231567 -1.7698212 0.5354004 4.899002 0.45959473 8.150894c-0.075805664 3.2518768 -1.5982056 11.566086 -0.9143982 11.360413c0.6838074 -0.20567322 3.4588928 -7.861389 5.017212 -12.594452c1.5582886 -4.733078 3.5346985 -10.865265 4.3325806 -15.804001c0.7979126 -4.938751 1.0252991 -9.589737 0.45480347 -13.828506c-0.5704956 -4.2387695 -1.1417847 -7.2823944 -3.877777 -11.604111c-2.736023 -4.3217316 -11.626221 -13.049881 -12.538208 -14.326279c-0.9120178 -1.2763824 5.280487 5.2680054 7.0661926 6.6679688c1.7857056 1.3999634 1.5574951 1.6903229 3.6480103 1.7317963c2.0904846 0.041488647 6.8802795 -0.9471283 8.894989 -1.4829102c2.0147095 -0.5357971 3.4971924 -1.1139221 3.1932068 -1.7318115c-0.3040161 -0.61787415 -3.497223 -0.20652771 -5.017212 -1.9754944c-1.519989 -1.7689667 -2.3163147 -4.8523407 -4.1028137 -8.638275c-1.786499 -3.7859497 -4.0700684 -9.261353 -6.6161804 -14.077377c-2.5460815 -4.81604 -5.924408 -11.032043 -8.6604 -14.818848c-2.7359924 -3.7868042 -5.5892944 -6.1736603 -7.7555847 -7.902008c-2.1663208 -1.7283478 -3.1525269 -2.1802979 -5.242218 -2.4680786c-2.0896912 -0.2877655 -6.080002 0.6178894 -7.2960052 0.74147034" fill-rule="evenodd"/></g></svg>