<svg version="1.1" viewBox="0.0 0.0 381.5564304461942 583.1207349081365" fill="none" stroke="none" stroke-linecap="square" stroke-miterlimit="10" xmlns:xlink="http://www.w3.org/1999/xlink" xmlns="http://www.w3.org/2000/svg"><clipPath id="p.0"><path d="m0 0l381.55643 0l0 583.1207l-381.55643 0l0 -583.1207z" clip-rule="nonzero"/></clipPath><g clip-path="url(#p.0)"><path fill="#000000" fill-opacity="0.0" d="m0 0l381.55643 0l0 583.1207l-381.55643 0z" fill-rule="evenodd"/><path fill="#cfe2f3" d="m216.8683 288.25165c1.7639008 4.7476807 8.172592 22.188385 10.583389 28.486023c2.410797 6.297638 2.0390472 7.7301025 3.8814087 9.299744c1.8423615 1.5696716 4.6443634 1.2953186 7.1727295 0.118133545c2.5283813 -1.177185 9.291336 -0.11834717 7.9975433 -7.1812134c-1.293808 -7.062866 -11.173904 -27.799744 -15.760345 -35.196014c-4.586441 -7.3962708 -9.798584 -7.651367 -11.758301 -9.181641" fill-rule="evenodd"/><path stroke="#000000" stroke-width="2.0" stroke-linejoin="round" stroke-linecap="butt" d="m216.8683 288.25165c1.7639008 4.7476807 8.172592 22.188385 10.583389 28.486023c2.410797 6.297638 2.0390472 7.7301025 3.8814087 9.299744c1.8423615 1.5696716 4.6443634 1.2953186 7.1727295 0.118133545c2.5283813 -1.177185 9.291336 -0.11834717 7.9975433 -7.1812134c-1.293808 -7.062866 -11.173904 -27.799744 -15.760345 -35.196014c-4.586441 -7.3962708 -9.798584 -7.651367 -11.758301 -9.181641" fill-rule="evenodd"/><path fill="#cfe2f3" d="m228.74971 320.14972c1.6664124 4.4529724 7.7440186 20.734436 9.99855 26.717926c2.2545319 5.98349 1.6863098 7.6132812 3.5286713 9.182953c1.8423615 1.5696411 4.977646 1.4121094 7.525467 0.23495483c2.5478363 -1.177185 7.722809 -2.7468567 7.761505 -7.298065c0.03869629 -4.5512085 -5.49057 -14.241699 -7.5294037 -20.009247c-2.0388336 -5.7675476 -3.9196472 -12.163422 -4.703583 -14.5961" fill-rule="evenodd"/><path stroke="#000000" stroke-width="2.0" stroke-linejoin="round" stroke-linecap="butt" d="m228.74971 320.14972c1.6664124 4.4529724 7.7440186 20.734436 9.99855 26.717926c2.2545319 5.98349 1.6863098 7.6132812 3.5286713 9.182953c1.8423615 1.5696411 4.977646 1.4121094 7.525467 0.23495483c2.5478363 -1.177185 7.722809 -2.7468567 7.761505 -7.298065c0.03869629 -4.5512085 -5.49057 -14.241699 -7.5294037 -20.009247c-2.0388336 -5.7675476 -3.9196472 -12.163422 -4.703583 -14.5961" fill-rule="evenodd"/><path fill="#cfe2f3" d="m256.03305 343.3379c1.2002563 1.7761841 5.3338623 7.476349 7.201599 10.657013c1.8677063 3.1806335 3.670929 5.7660217 4.0046387 8.42688c0.33374023 2.6608582 -0.70458984 5.6166077 -2.0023193 7.5382385c-1.2977295 1.9216614 -3.4849548 3.585144 -5.784088 3.9916077c-2.2991028 0.40646362 -6.22554 -0.5510559 -8.010635 -1.5527954c-1.7851105 -1.0017395 -2.0539246 -2.9888 -2.6999512 -4.4575806c-0.6460266 -1.468811 -0.72535706 -4.3355103 -1.1762238 -4.355194c-0.45085144 -0.019714355 -0.7657776 3.2117004 -1.5289459 4.2370605c-0.76316833 1.0253601 -2.0113068 1.7973938 -3.050064 1.9150696c-1.0387573 0.1177063 -2.7696533 0.3069458 -3.1824799 -1.2088928c-0.4128418 -1.5158386 0.5487671 -5.512268 0.7054596 -7.8861084c0.15670776 -2.3738098 0.43077087 -4.3164673 0.23472595 -6.356903c-0.19602966 -2.0404358 -1.1757812 -4.9047546 -1.4109497 -5.885681" fill-rule="evenodd"/><path stroke="#000000" stroke-width="2.0" stroke-linejoin="round" stroke-linecap="butt" d="m256.03305 343.3379c1.2002563 1.7761841 5.3338623 7.476349 7.201599 10.657013c1.8677063 3.1806335 3.670929 5.7660217 4.0046387 8.42688c0.33374023 2.6608582 -0.70458984 5.6166077 -2.0023193 7.5382385c-1.2977295 1.9216614 -3.4849548 3.585144 -5.784088 3.9916077c-2.2991028 0.40646362 -6.22554 -0.5510559 -8.010635 -1.5527954c-1.7851105 -1.0017395 -2.0539246 -2.9888 -2.6999512 -4.4575806c-0.6460266 -1.468811 -0.72535706 -4.3355103 -1.1762238 -4.355194c-0.45085144 -0.019714355 -0.7657776 3.2117004 -1.5289459 4.2370605c-0.76316833 1.0253601 -2.0113068 1.7973938 -3.050064 1.9150696c-1.0387573 0.1177063 -2.7696533 0.3069458 -3.1824799 -1.2088928c-0.4128418 -1.5158386 0.5487671 -5.512268 0.7054596 -7.8861084c0.15670776 -2.3738098 0.43077087 -4.3164673 0.23472595 -6.356903c-0.19602966 -2.0404358 -1.1757812 -4.9047546 -1.4109497 -5.885681" fill-rule="evenodd"/><path fill="#cfe2f3" d="m217.0881 269.2687c-0.54855347 -1.7879944 -0.07714844 -4.270752 -0.70414734 -5.3632812c-0.62701416 -1.0925293 -0.27471924 -1.1124268 -3.0579224 -1.1918335c-2.7832031 -0.07940674 -11.01503 -0.27804565 -13.641312 0.71536255c-2.6262817 0.9934082 -1.4109497 3.6956177 -2.1164093 5.2451477c-0.70547485 1.54953 -1.0188751 2.7011108 -2.1164246 4.0519714c-1.0975494 1.3508911 -2.9790192 3.1791382 -4.468857 4.053314c-1.4898376 0.87420654 -3.254837 0.43688965 -4.4701843 1.1918335c-1.215332 0.75497437 -2.508484 1.3907166 -2.8218842 3.3379517c-0.31340027 1.9472351 0.43185425 3.6168518 0.9414978 8.3454895c0.5096588 4.7286377 1.4500732 14.979828 2.1164246 20.026306c0.6663513 5.046509 1.9992676 6.199402 1.8816986 10.252716c-0.11758423 4.053314 -0.9799652 9.060211 -2.5871735 14.067108c-1.607193 5.0069275 -5.3802032 11.699432 -7.0560303 15.974335c-1.675827 4.2749023 -3.3221436 7.3857727 -2.9989166 9.675171c0.3232422 2.2893982 -1.0103455 3.2497559 4.9383087 4.0611877c5.948654 0.81140137 21.276932 0.513855 30.753601 0.80722046c9.476654 0.29336548 20.853806 1.4298706 26.106384 0.9529724c5.2525787 -0.4769287 4.507553 -1.2714844 5.4090576 -3.8144226c0.9015045 -2.5429382 0.47032166 -7.151703 0 -11.443237c-0.4703064 -4.2915344 -1.900711 -10.014252 -2.8218842 -14.306c-0.92118835 -4.2917786 -1.9798279 -6.7555237 -2.705185 -11.44455c-0.72535706 -4.6890564 -1.078537 -11.205872 -1.6469727 -16.689697c-0.5684509 -5.4838257 -0.6464691 -11.921661 -1.7636871 -16.213226c-1.117218 -4.2915344 -2.50914 -6.714813 -4.9396057 -9.536011c-2.430481 -2.821228 -7.6048126 -5.265259 -9.643204 -7.3912354c-2.038391 -2.1259766 -2.0386047 -3.5766296 -2.5871735 -5.3645935z" fill-rule="evenodd"/><path stroke="#000000" stroke-width="2.0" stroke-linejoin="round" stroke-linecap="butt" d="m217.0881 269.2687c-0.54855347 -1.7879944 -0.07714844 -4.270752 -0.70414734 -5.3632812c-0.62701416 -1.0925293 -0.27471924 -1.1124268 -3.0579224 -1.1918335c-2.7832031 -0.07940674 -11.01503 -0.27804565 -13.641312 0.71536255c-2.6262817 0.9934082 -1.4109497 3.6956177 -2.1164093 5.2451477c-0.70547485 1.54953 -1.0188751 2.7011108 -2.1164246 4.0519714c-1.0975494 1.3508911 -2.9790192 3.1791382 -4.468857 4.053314c-1.4898376 0.87420654 -3.254837 0.43688965 -4.4701843 1.1918335c-1.215332 0.75497437 -2.508484 1.3907166 -2.8218842 3.3379517c-0.31340027 1.9472351 0.43185425 3.6168518 0.9414978 8.3454895c0.5096588 4.7286377 1.4500732 14.979828 2.1164246 20.026306c0.6663513 5.046509 1.9992676 6.199402 1.8816986 10.252716c-0.11758423 4.053314 -0.9799652 9.060211 -2.5871735 14.067108c-1.607193 5.0069275 -5.3802032 11.699432 -7.0560303 15.974335c-1.675827 4.2749023 -3.3221436 7.3857727 -2.9989166 9.675171c0.3232422 2.2893982 -1.0103455 3.2497559 4.9383087 4.0611877c5.948654 0.81140137 21.276932 0.513855 30.753601 0.80722046c9.476654 0.29336548 20.853806 1.4298706 26.106384 0.9529724c5.2525787 -0.4769287 4.507553 -1.2714844 5.4090576 -3.8144226c0.9015045 -2.5429382 0.47032166 -7.151703 0 -11.443237c-0.4703064 -4.2915344 -1.900711 -10.014252 -2.8218842 -14.306c-0.92118835 -4.2917786 -1.9798279 -6.7555237 -2.705185 -11.44455c-0.72535706 -4.6890564 -1.078537 -11.205872 -1.6469727 -16.689697c-0.5684509 -5.4838257 -0.6464691 -11.921661 -1.7636871 -16.213226c-1.117218 -4.2915344 -2.50914 -6.714813 -4.9396057 -9.536011c-2.430481 -2.821228 -7.6048126 -5.265259 -9.643204 -7.3912354c-2.038391 -2.1259766 -2.0386047 -3.5766296 -2.5871735 -5.3645935z" fill-rule="evenodd"/><path fill="#cfe2f3" d="m278.69345 214.71277c0.39230347 -2.118454 1.4907532 -1.0199738 1.8830872 -5.6492157c0.39233398 -4.629242 0.9416199 -15.221603 0.4708557 -22.126236c-0.47073364 -6.904648 -1.2554016 -12.710785 -3.2954102 -19.301575c-2.039978 -6.59079 -5.7276917 -14.829315 -8.944611 -20.24318c-3.216919 -5.413864 -5.0215454 -8.081558 -10.356964 -12.240021c-5.3354034 -4.158478 -15.378555 -9.886162 -21.655502 -12.71077c-6.276947 -2.8246078 -10.984619 -3.3737946 -16.006165 -4.2368774c-5.0215454 -0.86307526 -9.729248 -0.78466797 -14.123093 -0.941597c-4.39386 -0.15693665 -7.846176 -0.47077942 -12.240036 0c-4.3938446 0.47077942 -9.258453 1.2554245 -14.123093 2.824669c-4.8646393 1.569252 -10.592361 4.236969 -15.064697 6.5908127c-4.472336 2.353859 -7.6892853 3.6876602 -11.769287 7.53228c-4.080017 3.8446198 -9.493835 9.807724 -12.71077 15.535446c-3.216919 5.727707 -5.1784973 12.396973 -6.590805 18.830826c-1.412323 6.4338684 -1.9615479 13.26001 -1.8830719 19.772324c0.07847595 6.512314 1.3339233 14.044632 2.3539276 19.301575c1.0200195 5.2569275 1.8046265 7.1399994 3.7661438 12.240021c1.9615326 5.1000214 4.629181 12.710861 8.003021 18.360107c3.3738403 5.649231 6.433853 11.376831 12.240021 15.535294c5.8061676 4.158478 15.3785095 7.296997 22.596985 9.415497c7.2184906 2.1184692 11.847733 2.9031067 20.713913 3.2954102c8.86618 0.39230347 23.303177 -6.1035156E-5 32.4832 -0.9416199c9.180038 -0.9415283 16.398514 -2.275299 22.596985 -4.707611c6.198456 -2.432312 10.906128 -5.9631195 14.593842 -9.886215c3.687683 -3.9230957 6.4339294 -9.807739 7.5324097 -13.652359c1.0984497 -3.8446198 -0.78466797 -6.826111 -0.9416199 -9.4153595c-0.15692139 -2.5892334 -0.078430176 -3.9231415 0 -6.1200714c0.07846069 -2.1969452 0.07846069 -4.9430847 0.47073364 -7.061554z" fill-rule="evenodd"/><path stroke="#000000" stroke-width="2.0" stroke-linejoin="round" stroke-linecap="butt" d="m278.69345 214.71277c0.39230347 -2.118454 1.4907532 -1.0199738 1.8830872 -5.6492157c0.39233398 -4.629242 0.9416199 -15.221603 0.4708557 -22.126236c-0.47073364 -6.904648 -1.2554016 -12.710785 -3.2954102 -19.301575c-2.039978 -6.59079 -5.7276917 -14.829315 -8.944611 -20.24318c-3.216919 -5.413864 -5.0215454 -8.081558 -10.356964 -12.240021c-5.3354034 -4.158478 -15.378555 -9.886162 -21.655502 -12.71077c-6.276947 -2.8246078 -10.984619 -3.3737946 -16.006165 -4.2368774c-5.0215454 -0.86307526 -9.729248 -0.78466797 -14.123093 -0.941597c-4.39386 -0.15693665 -7.846176 -0.47077942 -12.240036 0c-4.3938446 0.47077942 -9.258453 1.2554245 -14.123093 2.824669c-4.8646393 1.569252 -10.592361 4.236969 -15.064697 6.5908127c-4.472336 2.353859 -7.6892853 3.6876602 -11.769287 7.53228c-4.080017 3.8446198 -9.493835 9.807724 -12.71077 15.535446c-3.216919 5.727707 -5.1784973 12.396973 -6.590805 18.830826c-1.412323 6.4338684 -1.9615479 13.26001 -1.8830719 19.772324c0.07847595 6.512314 1.3339233 14.044632 2.3539276 19.301575c1.0200195 5.2569275 1.8046265 7.1399994 3.7661438 12.240021c1.9615326 5.1000214 4.629181 12.710861 8.003021 18.360107c3.3738403 5.649231 6.433853 11.376831 12.240021 15.535294c5.8061676 4.158478 15.3785095 7.296997 22.596985 9.415497c7.2184906 2.1184692 11.847733 2.9031067 20.713913 3.2954102c8.86618 0.39230347 23.303177 -6.1035156E-5 32.4832 -0.9416199c9.180038 -0.9415283 16.398514 -2.275299 22.596985 -4.707611c6.198456 -2.432312 10.906128 -5.9631195 14.593842 -9.886215c3.687683 -3.9230957 6.4339294 -9.807739 7.5324097 -13.652359c1.0984497 -3.8446198 -0.78466797 -6.826111 -0.9416199 -9.4153595c-0.15692139 -2.5892334 -0.078430176 -3.9231415 0 -6.1200714c0.07846069 -2.1969452 0.07846069 -4.9430847 0.47073364 -7.061554z" fill-rule="evenodd"/><path fill="#cfe2f3" d="m142.2939 222.22008c-0.862381 -0.6670227 -3.5277863 -3.4527893 -5.1743317 -4.002121c-1.6465454 -0.5493164 -3.4895477 -0.11790466 -4.704895 0.70617676c-1.2153473 0.8240967 -1.9992676 2.7472687 -2.5871735 4.238388c-0.5878906 1.4911041 -1.4498444 2.5501556 -0.94018555 4.7082825c0.5096588 2.158142 2.743866 6.082367 3.998108 8.240494c1.254242 2.158142 2.0770874 3.2171783 3.527359 4.7082977c1.4502869 1.4911041 2.939911 3.4928284 5.1743317 4.238373c2.234436 0.7455597 6.4681396 0.7845001 8.232254 0.23495483c1.7641296 -0.54953 1.9603729 -2.9434967 2.3524475 -3.532196" fill-rule="evenodd"/><path stroke="#000000" stroke-width="2.0" stroke-linejoin="round" stroke-linecap="butt" d="m142.2939 222.22008c-0.862381 -0.6670227 -3.5277863 -3.4527893 -5.1743317 -4.002121c-1.6465454 -0.5493164 -3.4895477 -0.11790466 -4.704895 0.70617676c-1.2153473 0.8240967 -1.9992676 2.7472687 -2.5871735 4.238388c-0.5878906 1.4911041 -1.4498444 2.5501556 -0.94018555 4.7082825c0.5096588 2.158142 2.743866 6.082367 3.998108 8.240494c1.254242 2.158142 2.0770874 3.2171783 3.527359 4.7082977c1.4502869 1.4911041 2.939911 3.4928284 5.1743317 4.238373c2.234436 0.7455597 6.4681396 0.7845001 8.232254 0.23495483c1.7641296 -0.54953 1.9603729 -2.9434967 2.3524475 -3.532196" fill-rule="evenodd"/><path fill="#cfe2f3" d="m135.74968 231.18271c-0.27450562 -0.31391907 -1.6076355 -0.86346436 -1.6469727 -1.8835754c-0.03933716 -1.0201111 0.705246 -3.7662811 1.4109344 -4.2370605c0.7056885 -0.47079468 1.4120331 0.078308105 2.8231964 1.4123535c1.4111633 1.3340302 4.5855713 4.5514374 5.6437836 6.591873c1.0582123 2.0404205 0.5878906 4.7089386 0.70547485 5.6507263" fill-rule="evenodd"/><path stroke="#000000" stroke-width="2.0" stroke-linejoin="round" stroke-linecap="butt" d="m135.74968 231.18271c-0.27450562 -0.31391907 -1.6076355 -0.86346436 -1.6469727 -1.8835754c-0.03933716 -1.0201111 0.705246 -3.7662811 1.4109344 -4.2370605c0.7056885 -0.47079468 1.4120331 0.078308105 2.8231964 1.4123535c1.4111633 1.3340302 4.5855713 4.5514374 5.6437836 6.591873c1.0582123 2.0404205 0.5878906 4.7089386 0.70547485 5.6507263" fill-rule="evenodd"/><path fill="#cfe2f3" d="m194.05916 289.5504c-1.7639008 4.74765 -8.172592 22.188385 -10.583389 28.485992c-2.410797 6.297638 -2.0390472 7.730133 -3.8814087 9.299774c-1.8423615 1.5696411 -4.644348 1.2953186 -7.1727295 0.118133545c-2.5283813 -1.177185 -9.291336 -0.11834717 -7.9975433 -7.181244c1.293808 -7.062866 11.17392 -27.799713 15.760361 -35.196014c4.586441 -7.3962708 9.798584 -7.6513367 11.758301 -9.18161" fill-rule="evenodd"/><path stroke="#000000" stroke-width="2.0" stroke-linejoin="round" stroke-linecap="butt" d="m194.05916 289.5504c-1.7639008 4.74765 -8.172592 22.188385 -10.583389 28.485992c-2.410797 6.297638 -2.0390472 7.730133 -3.8814087 9.299774c-1.8423615 1.5696411 -4.644348 1.2953186 -7.1727295 0.118133545c-2.5283813 -1.177185 -9.291336 -0.11834717 -7.9975433 -7.181244c1.293808 -7.062866 11.17392 -27.799713 15.760361 -35.196014c4.586441 -7.3962708 9.798584 -7.6513367 11.758301 -9.18161" fill-rule="evenodd"/><path fill="#cfe2f3" d="m182.16016 321.44846c-1.6664276 4.453003 -7.7440186 20.734467 -9.998566 26.717926c-2.2545319 5.98349 -1.6863098 7.613312 -3.528656 9.182953c-1.8423615 1.5696411 -4.977646 1.4121399 -7.525482 0.23495483c-2.547821 -1.177185 -7.722809 -2.7468262 -7.761505 -7.2980347c-0.03868103 -4.551239 5.4905853 -14.241699 7.5294037 -20.009277c2.0388336 -5.7675476 3.9196625 -12.163391 4.703598 -14.596069" fill-rule="evenodd"/><path stroke="#000000" stroke-width="2.0" stroke-linejoin="round" stroke-linecap="butt" d="m182.16016 321.44846c-1.6664276 4.453003 -7.7440186 20.734467 -9.998566 26.717926c-2.2545319 5.98349 -1.6863098 7.613312 -3.528656 9.182953c-1.8423615 1.5696411 -4.977646 1.4121399 -7.525482 0.23495483c-2.547821 -1.177185 -7.722809 -2.7468262 -7.761505 -7.2980347c-0.03868103 -4.551239 5.4905853 -14.241699 7.5294037 -20.009277c2.0388336 -5.7675476 3.9196625 -12.163391 4.703598 -14.596069" fill-rule="evenodd"/><path fill="#cfe2f3" d="m154.8768 344.63666c-1.2002563 1.7761536 -5.3338776 7.476349 -7.201584 10.656982c-1.8677063 3.1806335 -3.6709442 5.7660217 -4.004669 8.42688c-0.33370972 2.6608582 0.7046051 5.6166077 2.0023346 7.538269c1.2977448 1.9216309 3.48497 3.585144 5.784088 3.9916077c2.299118 0.40646362 6.2255554 -0.5510864 8.010651 -1.5528259c1.7850952 -1.001709 2.0539093 -2.9887695 2.699936 -4.4575806c0.6460266 -1.4687805 0.72535706 -4.3355103 1.1762238 -4.355194c0.4508667 -0.019683838 0.76579285 3.2117004 1.5289612 4.2370605c0.76316833 1.0253601 2.0112915 1.7973938 3.0500488 1.9151001c1.0387573 0.11767578 2.7696533 0.30691528 3.182495 -1.2089233c0.41282654 -1.5158386 -0.54878235 -5.5122375 -0.70547485 -7.886078c-0.1566925 -2.3738403 -0.43075562 -4.316498 -0.23472595 -6.3569336c0.19604492 -2.0404053 1.1757965 -4.904724 1.4109497 -5.885681" fill-rule="evenodd"/><path stroke="#000000" stroke-width="2.0" stroke-linejoin="round" stroke-linecap="butt" d="m154.8768 344.63666c-1.2002563 1.7761536 -5.3338776 7.476349 -7.201584 10.656982c-1.8677063 3.1806335 -3.6709442 5.7660217 -4.004669 8.42688c-0.33370972 2.6608582 0.7046051 5.6166077 2.0023346 7.538269c1.2977448 1.9216309 3.48497 3.585144 5.784088 3.9916077c2.299118 0.40646362 6.2255554 -0.5510864 8.010651 -1.5528259c1.7850952 -1.001709 2.0539093 -2.9887695 2.699936 -4.4575806c0.6460266 -1.4687805 0.72535706 -4.3355103 1.1762238 -4.355194c0.4508667 -0.019683838 0.76579285 3.2117004 1.5289612 4.2370605c0.76316833 1.0253601 2.0112915 1.7973938 3.0500488 1.9151001c1.0387573 0.11767578 2.7696533 0.30691528 3.182495 -1.2089233c0.41282654 -1.5158386 -0.54878235 -5.5122375 -0.70547485 -7.886078c-0.1566925 -2.3738403 -0.43075562 -4.316498 -0.23472595 -6.3569336c0.19604492 -2.0404053 1.1757965 -4.904724 1.4109497 -5.885681" fill-rule="evenodd"/><path fill="#cfe2f3" d="m177.87451 352.68765c-0.22877502 0.7187195 -1.1854706 2.6351929 -1.3726959 4.3123474c-0.18722534 1.6771545 -1.708664 4.1671143 0.24934387 5.7506714c1.9580078 1.5835266 5.915573 2.9588623 11.498688 3.7506409c5.5831146 0.79177856 14.291336 0.8753357 22.0 1.0c7.708664 0.12466431 18.668411 0.20648193 24.251968 -0.25198364c5.583542 -0.45843506 7.718277 -1.0822144 9.249344 -2.4986572c1.5310516 -1.4164734 -0.021438599 -4.2917786 -0.06300354 -6.0c-0.041549683 -1.708252 -0.1552887 -3.5411377 -0.18634033 -4.249359" fill-rule="evenodd"/><path stroke="#000000" stroke-width="2.0" stroke-linejoin="round" stroke-linecap="butt" d="m177.87451 352.68765c-0.22877502 0.7187195 -1.1854706 2.6351929 -1.3726959 4.3123474c-0.18722534 1.6771545 -1.708664 4.1671143 0.24934387 5.7506714c1.9580078 1.5835266 5.915573 2.9588623 11.498688 3.7506409c5.5831146 0.79177856 14.291336 0.8753357 22.0 1.0c7.708664 0.12466431 18.668411 0.20648193 24.251968 -0.25198364c5.583542 -0.45843506 7.718277 -1.0822144 9.249344 -2.4986572c1.5310516 -1.4164734 -0.021438599 -4.2917786 -0.06300354 -6.0c-0.041549683 -1.708252 -0.1552887 -3.5411377 -0.18634033 -4.249359" fill-rule="evenodd"/><path fill="#cfe2f3" d="m175.98787 358.6453c-0.12741089 3.7080994 -0.5194855 15.322845 -0.7644806 22.248566c-0.24499512 6.9256897 -0.39186096 13.184387 -0.70547485 19.305695c-0.3136139 6.121277 -1.5289612 13.733704 -1.1762238 17.42212c0.35273743 3.688385 1.6069794 3.6096191 3.292633 4.7082825c1.685669 1.0986328 3.9205322 1.4911194 6.8213196 1.8835754c2.9007874 0.39245605 7.721939 0.6282959 10.583389 0.47122192c2.8614502 -0.15707397 4.860504 -0.5895691 6.5852814 -1.4136658c1.7247772 -0.8240967 2.901001 -1.9223022 3.763382 -3.5308838c0.86239624 -1.6086121 0.47010803 0.7855835 1.4109497 -6.1206665c0.9408417 -6.9062195 3.254181 -26.684021 4.234146 -35.316772c0.9799652 -8.632721 1.3713837 -13.733063 1.6456604 -16.479675" fill-rule="evenodd"/><path stroke="#000000" stroke-width="2.0" stroke-linejoin="round" stroke-linecap="butt" d="m175.98787 358.6453c-0.12741089 3.7080994 -0.5194855 15.322845 -0.7644806 22.248566c-0.24499512 6.9256897 -0.39186096 13.184387 -0.70547485 19.305695c-0.3136139 6.121277 -1.5289612 13.733704 -1.1762238 17.42212c0.35273743 3.688385 1.6069794 3.6096191 3.292633 4.7082825c1.685669 1.0986328 3.9205322 1.4911194 6.8213196 1.8835754c2.9007874 0.39245605 7.721939 0.6282959 10.583389 0.47122192c2.8614502 -0.15707397 4.860504 -0.5895691 6.5852814 -1.4136658c1.7247772 -0.8240967 2.901001 -1.9223022 3.763382 -3.5308838c0.86239624 -1.6086121 0.47010803 0.7855835 1.4109497 -6.1206665c0.9408417 -6.9062195 3.254181 -26.684021 4.234146 -35.316772c0.9799652 -8.632721 1.3713837 -13.733063 1.6456604 -16.479675" fill-rule="evenodd"/><path fill="#cfe2f3" d="m173.34267 413.37918c-0.2351532 2.0795898 -1.1364441 7.2588806 -1.4109344 12.47757c-0.27450562 5.2186584 -0.2557068 12.928864 -0.23603821 18.834473c0.01966858 5.9055786 0.079559326 12.94986 0.35404968 16.599121c0.27449036 3.649231 0.13659668 4.0996704 1.292923 5.2963257c1.1563416 1.1966553 2.3131104 1.4519348 5.645096 1.8835754c3.3319702 0.4316101 11.054138 1.1377869 14.346771 0.70617676c3.2926483 -0.43164062 4.311508 -1.6871338 5.4090576 -3.295929c1.0975494 -1.6088257 0.9801941 -4.0025635 1.1762238 -6.3569336c0.19604492 -2.3543396 -0.35273743 -4.1593933 0 -7.7692566c0.35273743 -3.6098633 1.332489 -8.828308 2.1164246 -13.889923c0.7839203 -5.0615845 1.999054 -12.595032 2.5871582 -16.479675c0.5881195 -3.884613 0.7845917 -5.690094 0.94151306 -6.828125" fill-rule="evenodd"/><path stroke="#000000" stroke-width="2.0" stroke-linejoin="round" stroke-linecap="butt" d="m173.34267 413.37918c-0.2351532 2.0795898 -1.1364441 7.2588806 -1.4109344 12.47757c-0.27450562 5.2186584 -0.2557068 12.928864 -0.23603821 18.834473c0.01966858 5.9055786 0.079559326 12.94986 0.35404968 16.599121c0.27449036 3.649231 0.13659668 4.0996704 1.292923 5.2963257c1.1563416 1.1966553 2.3131104 1.4519348 5.645096 1.8835754c3.3319702 0.4316101 11.054138 1.1377869 14.346771 0.70617676c3.2926483 -0.43164062 4.311508 -1.6871338 5.4090576 -3.295929c1.0975494 -1.6088257 0.9801941 -4.0025635 1.1762238 -6.3569336c0.19604492 -2.3543396 -0.35273743 -4.1593933 0 -7.7692566c0.35273743 -3.6098633 1.332489 -8.828308 2.1164246 -13.889923c0.7839203 -5.0615845 1.999054 -12.595032 2.5871582 -16.479675c0.5881195 -3.884613 0.7845917 -5.690094 0.94151306 -6.828125" fill-rule="evenodd"/><path fill="#cfe2f3" d="m171.93114 459.4044c0.058792114 1.0004272 -0.27449036 3.7072144 0.35273743 6.002533c0.6272278 2.295288 2.019165 5.728821 3.4106598 7.7692566c1.3914948 2.0404358 3.3311005 3.4138489 4.9382935 4.4733276c1.6072083 1.0595093 2.35289 1.4911194 4.704895 1.883606c2.3520203 0.39245605 6.898468 0.510376 9.407166 0.47122192c2.5087128 -0.03918457 4.390625 -0.23519897 5.645096 -0.70617676c1.2544556 -0.4710083 1.7641144 -1.138916 1.8816986 -2.119873c0.11756897 -0.9809265 -0.70570374 -1.7256165 -1.1762238 -3.7658386c-0.47053528 -2.0402222 -1.450943 -6.2387695 -1.6469879 -8.475433c-0.19602966 -2.2366638 0.39230347 -4.1204834 0.47076416 -4.94458" fill-rule="evenodd"/><path stroke="#000000" stroke-width="2.0" stroke-linejoin="round" stroke-linecap="butt" d="m171.93114 459.4044c0.058792114 1.0004272 -0.27449036 3.7072144 0.35273743 6.002533c0.6272278 2.295288 2.019165 5.728821 3.4106598 7.7692566c1.3914948 2.0404358 3.3311005 3.4138489 4.9382935 4.4733276c1.6072083 1.0595093 2.35289 1.4911194 4.704895 1.883606c2.3520203 0.39245605 6.898468 0.510376 9.407166 0.47122192c2.5087128 -0.03918457 4.390625 -0.23519897 5.645096 -0.70617676c1.2544556 -0.4710083 1.7641144 -1.138916 1.8816986 -2.119873c0.11756897 -0.9809265 -0.70570374 -1.7256165 -1.1762238 -3.7658386c-0.47053528 -2.0402222 -1.450943 -6.2387695 -1.6469879 -8.475433c-0.19602966 -2.2366638 0.39230347 -4.1204834 0.47076416 -4.94458" fill-rule="evenodd"/><path fill="#cfe2f3" d="m209.80183 359.58652c0.30749512 3.736969 1.0536194 15.501556 1.844986 22.421783c0.7913513 6.9202576 2.0707397 13.026886 2.903183 19.09964c0.83244324 6.0727234 1.0575562 13.778778 2.091507 17.336792c1.0339508 3.558014 2.25148 3.2464905 4.1121826 4.0112915c1.8607178 0.764801 4.1290283 0.7335205 7.052109 0.57754517c2.9230652 -0.15597534 7.704239 -0.82473755 10.486343 -1.5134277c2.7821198 -0.68865967 4.665344 -1.4869385 6.206314 -2.6186218c1.5409851 -1.1316833 2.4918823 -2.4300537 3.039566 -4.1714478c0.5476837 -1.7413635 0.60887146 0.68408203 0.246521 -6.276825c-0.36235046 -6.9609375 -1.7346039 -26.951813 -2.4206238 -35.48874c-0.68603516 -8.536926 -1.4129181 -13.110657 -1.6954956 -15.732788" fill-rule="evenodd"/><path stroke="#000000" stroke-width="2.0" stroke-linejoin="round" stroke-linecap="butt" d="m209.80183 359.58652c0.30749512 3.736969 1.0536194 15.501556 1.844986 22.421783c0.7913513 6.9202576 2.0707397 13.026886 2.903183 19.09964c0.83244324 6.0727234 1.0575562 13.778778 2.091507 17.336792c1.0339508 3.558014 2.25148 3.2464905 4.1121826 4.0112915c1.8607178 0.764801 4.1290283 0.7335205 7.052109 0.57754517c2.9230652 -0.15597534 7.704239 -0.82473755 10.486343 -1.5134277c2.7821198 -0.68865967 4.665344 -1.4869385 6.206314 -2.6186218c1.5409851 -1.1316833 2.4918823 -2.4300537 3.039566 -4.1714478c0.5476837 -1.7413635 0.60887146 0.68408203 0.246521 -6.276825c-0.36235046 -6.9609375 -1.7346039 -26.951813 -2.4206238 -35.48874c-0.68603516 -8.536926 -1.4129181 -13.110657 -1.6954956 -15.732788" fill-rule="evenodd"/><path fill="#cfe2f3" d="m215.84416 414.27484c0.15649414 2.086914 0.23612976 7.343384 0.9389801 12.521484c0.70285034 5.1781006 2.1582031 12.749115 3.278122 18.54712c1.1199036 5.798004 2.4915314 12.707153 3.44133 16.240936c0.9497986 3.5337524 0.89823914 4.002014 2.2574615 4.96167c1.3592072 0.95965576 2.5434113 0.9944458 5.897812 0.7962036c3.3543854 -0.19821167 11.073685 -0.9465637 14.228546 -1.9854736c3.1548615 -1.0389404 3.9220123 -2.462616 4.7006226 -4.2480774c0.7786102 -1.7854614 0.2171936 -4.1151733 -0.028945923 -6.4647217c-0.24613953 -2.3495483 -1.1217499 -4.020355 -1.4479065 -7.6325684c-0.32614136 -3.6122131 -0.33598328 -8.921814 -0.5090027 -14.040741c-0.17300415 -5.118927 -0.3829956 -12.746735 -0.52908325 -16.672821c-0.14607239 -3.926117 -0.289505 -5.736511 -0.34739685 -6.8838196" fill-rule="evenodd"/><path stroke="#000000" stroke-width="2.0" stroke-linejoin="round" stroke-linecap="butt" d="m215.84416 414.27484c0.15649414 2.086914 0.23612976 7.343384 0.9389801 12.521484c0.70285034 5.1781006 2.1582031 12.749115 3.278122 18.54712c1.1199036 5.798004 2.4915314 12.707153 3.44133 16.240936c0.9497986 3.5337524 0.89823914 4.002014 2.2574615 4.96167c1.3592072 0.95965576 2.5434113 0.9944458 5.897812 0.7962036c3.3543854 -0.19821167 11.073685 -0.9465637 14.228546 -1.9854736c3.1548615 -1.0389404 3.9220123 -2.462616 4.7006226 -4.2480774c0.7786102 -1.7854614 0.2171936 -4.1151733 -0.028945923 -6.4647217c-0.24613953 -2.3495483 -1.1217499 -4.020355 -1.4479065 -7.6325684c-0.32614136 -3.6122131 -0.33598328 -8.921814 -0.5090027 -14.040741c-0.17300415 -5.118927 -0.3829956 -12.746735 -0.52908325 -16.672821c-0.14607239 -3.926117 -0.289505 -5.736511 -0.34739685 -6.8838196" fill-rule="evenodd"/><path fill="#cfe2f3" d="m223.02637 459.75754c0.24420166 0.9718323 0.4211731 3.6932373 1.4652405 5.831024c1.0440674 2.1377563 3.0516357 5.250946 4.799164 6.9956055c1.7475281 1.74469 3.909317 2.73172 5.685974 3.472412c1.7766571 0.74069214 2.589798 1.0254822 4.973984 0.97180176c2.384201 -0.05368042 6.873459 -0.78689575 9.331177 -1.2938538c2.457718 -0.5069885 4.27034 -1.0509949 5.4151764 -1.7479858c1.1448364 -0.69696045 1.5211487 -1.4483032 1.4538574 -2.4339294c-0.06726074 -0.98565674 -1.0149841 -1.5634766 -1.857544 -3.4799194c-0.8425598 -1.9164429 -2.5883484 -5.8580627 -3.1977997 -8.018738c-0.6094513 -2.1607056 -0.3824463 -4.121216 -0.45892334 -4.945465" fill-rule="evenodd"/><path stroke="#000000" stroke-width="2.0" stroke-linejoin="round" stroke-linecap="butt" d="m223.02637 459.75754c0.24420166 0.9718323 0.4211731 3.6932373 1.4652405 5.831024c1.0440674 2.1377563 3.0516357 5.250946 4.799164 6.9956055c1.7475281 1.74469 3.909317 2.73172 5.685974 3.472412c1.7766571 0.74069214 2.589798 1.0254822 4.973984 0.97180176c2.384201 -0.05368042 6.873459 -0.78689575 9.331177 -1.2938538c2.457718 -0.5069885 4.27034 -1.0509949 5.4151764 -1.7479858c1.1448364 -0.69696045 1.5211487 -1.4483032 1.4538574 -2.4339294c-0.06726074 -0.98565674 -1.0149841 -1.5634766 -1.857544 -3.4799194c-0.8425598 -1.9164429 -2.5883484 -5.8580627 -3.1977997 -8.018738c-0.6094513 -2.1607056 -0.3824463 -4.121216 -0.45892334 -4.945465" fill-rule="evenodd"/><path fill="#cfe2f3" d="m161.55566 219.9484c1.3958588 5.8673553 3.620636 12.033264 5.495529 17.728867c1.8748932 5.6956177 4.0090027 11.04863 5.75383 16.444809c1.7448425 5.396179 4.84523 13.70578 4.7151794 15.932251c-0.13006592 2.2264404 -2.9217987 -0.2607727 -5.4955444 -2.5735474c-2.5737457 -2.3127747 -6.587311 -7.4059143 -9.946915 -11.303101c-3.3596191 -3.8972015 -7.244049 -8.5686035 -10.210709 -12.080032c-2.9666748 -3.5114288 -5.2775574 -5.819702 -7.58934 -8.988525c-2.311798 -3.1688232 -4.798523 -6.3412476 -6.2814026 -10.024429c-1.4828796 -3.6831665 -1.9619141 -9.376984 -2.6158752 -12.0746155c-0.65397644 -2.697647 -1.6129456 -5.6956177 -1.3079376 -4.111206c0.30499268 1.5844116 1.6550751 9.292465 3.1379547 13.617676c1.4828796 4.3252106 2.9675903 8.265564 5.759323 12.333603c2.7917328 4.068039 7.501404 8.006592 10.991074 12.0746155c3.4896698 4.068039 7.7221375 8.565002 9.946915 12.333603c2.2247772 3.7686157 4.4046783 10.149414 3.4017487 10.278015c-1.002945 0.12857056 -6.1476746 -6.5948486 -9.419357 -9.5065c-3.2716827 -2.911621 -6.9830017 -5.4366302 -10.210709 -7.9634094c-3.227707 -2.5267944 -6.494812 -4.62735 -9.155563 -7.197296c-2.6607666 -2.5699615 -7.0700073 -8.565002 -6.808975 -8.222412c0.2610321 0.3426056 5.757492 7.408615 8.375198 10.278c2.6177063 2.8694 5.7171936 4.4969635 7.3310547 6.938339c1.6138458 2.4413452 2.1780548 5.1830444 2.3520813 7.709839c0.17402649 2.5267944 0.3489685 7.8366394 -1.3079376 7.4508667c-1.6569061 -0.3857422 -5.6677246 -5.6973877 -8.633484 -9.765442c-2.9657593 -4.068039 -6.2814026 -9.546936 -9.161072 -14.6427765c-2.879654 -5.0958405 -6.328102 -10.706924 -8.116905 -15.932251c-1.7887955 -5.2253265 -2.1798935 -9.852661 -2.6158752 -15.419693c-0.43598175 -5.567032 -0.26195526 -14.128433 0 -17.982452c0.26195526 -3.8540192 1.7457504 -6.2980804 1.5717239 -5.141693c-0.17402649 1.1563873 -1.9619064 7.925659 -2.6158752 12.080017c-0.6539688 4.154358 -1.0020218 8.178345 -1.3079376 12.846146c-0.30591583 4.667816 -0.6145859 11.649307 -0.52757263 15.160736c0.087013245 3.5114136 1.5295944 5.822403 1.0496521 5.9078217c-0.47994995 0.0854187 -2.3585052 -1.7984314 -3.9293137 -5.395279c-1.5708084 -3.5968475 -4.6675415 -11.046829 -5.495537 -16.185822c-0.8279953 -5.1390076 -0.43231964 -9.5946045 0.52757263 -14.648178c0.95988464 -5.0535736 2.5279465 -10.962296 5.2317505 -15.673279c2.703804 -4.710968 11.253029 -12.078217 10.991074 -12.592575c-0.26195526 -0.51434326 -8.593185 7.6649017 -12.562798 9.506485c-3.9696121 1.8415833 -7.8091583 1.7993164 -11.25486 1.543045c-3.4457016 -0.25627136 -7.762451 -2.0529022 -9.419357 -3.0807037c-1.6568985 -1.0278015 -1.9179382 -2.1437225 -0.52207184 -3.08609c1.3958664 -0.9423828 4.884613 -0.46939087 8.897278 -2.568161c4.012657 -2.098755 10.90406 -6.727005 15.178673 -10.024414c4.2746124 -3.297409 7.720314 -7.1478424 10.469002 -9.760056c2.74868 -2.6122131 4.4522934 -4.756836 6.0231094 -5.9132233c1.5708008 -1.1563873 0.47994995 -0.64024353 3.4017334 -1.0251007c2.9217987 -0.38485718 10.814301 -0.42712402 14.129028 -1.2840729c3.3147278 -0.85694885 6.0203705 -3.986206 5.759323 -3.8576202c-0.2610321 0.12858582 -4.359787 3.6867676 -7.3255463 4.629135c-2.9657593 0.9423828 -6.935364 1.0251007 -10.469009 1.0251007c-3.5336304 0 -7.330124 -0.21130371 -10.73278 -1.0251007c-3.402649 -0.81378174 -6.891403 -2.1868744 -9.683136 -3.8576202c-2.7917328 -1.6707306 -7.198242 -5.653351 -7.0672607 -6.166794c0.13097382 -0.51345825 3.0985641 3.8135529 7.8531265 3.08609c4.7545547 -0.72746277 15.047699 -5.0526733 20.67421 -7.4508667c5.6265106 -2.3982086 8.504349 -5.4393387 13.084885 -6.9383316c4.5805206 -1.4989853 10.253754 -2.0978622 14.3983 -2.0555954c4.1445465 0.042259216 9.902039 2.437767 10.469009 2.3091736c0.56695557 -0.12858582 -4.7115173 -2.0529022 -7.067276 -3.080696c-2.3557434 -1.0278015 -4.8424835 -1.5016861 -7.0672607 -3.0860977c-2.2247772 -1.5844193 -5.0604706 -4.5787964 -6.2813873 -6.4203796c-1.220932 -1.8415909 -2.440033 -4.3288116 -1.0441589 -4.6291504c1.3958588 -0.30033112 5.7117004 2.2273483 9.419357 2.8271255c3.7076569 0.5997772 9.031906 0.38576508 12.826584 0.7715225c3.7946625 0.38576508 6.844696 0.94327545 9.9414215 1.5430527c3.0967407 0.5997772 6.152252 2.2696152 8.638992 2.055603c2.4867249 -0.21401978 3.4896698 -2.3973007 6.2814026 -3.339676c2.7917328 -0.9423752 7.023285 -1.9288177 10.468994 -2.3145752c3.4457092 -0.38576508 7.457443 0.3848648 10.205215 0c2.7477722 -0.3848648 4.448639 -1.5385513 6.2814026 -2.3091812c1.8327637 -0.77062225 4.584198 -3.1706238 4.715164 -2.3145676c0.13098145 0.8560486 -1.8785553 5.1380997 -3.929306 7.4508743c-2.0507507 2.3127747 -5.932434 4.798195 -8.375198 6.4257736c-2.4427643 1.6275711 -7.0672607 3.339676 -6.2814026 3.339676c0.78585815 0 7.28891 -2.6113129 10.996567 -3.339676c3.7076569 -0.72836304 7.0187225 -1.3731003 11.249374 -1.0305023c4.230652 0.34259796 8.900024 2.0151367 14.1345215 3.0860977c5.234497 1.070961 12.735901 2.9116516 17.272491 3.339676c4.53656 0.4280243 7.373169 -0.30033875 9.946899 -0.7715225c2.573761 -0.4711914 4.7976074 -2.6976395 5.4955444 -2.055603c0.697937 0.64204407 -0.13006592 3.8953934 -1.3079224 5.9078293c-1.177887 2.012436 -3.3605347 4.924988 -5.7593384 6.166794c-2.3988037 1.2418213 -5.9727173 1.7121124 -8.633484 1.2840881c-2.6607666 -0.4280243 -4.452301 -2.6967468 -7.3310547 -3.852234c-2.8787537 -1.1554871 -6.364746 -2.5240936 -9.9414215 -3.0807037c-3.5766907 -0.5566101 -11.605667 -0.25897217 -11.518646 -0.25897217c0.087005615 0 8.289093 -0.5116501 12.04071 0.25897217c3.7516327 0.7706299 7.110306 2.8666992 10.469009 4.3647766c3.358673 1.4980927 5.9315186 2.8675995 9.683136 4.623749c3.7516174 1.7561646 8.246063 4.5428314 12.826599 5.9132233c4.5805054 1.3704071 11.079895 1.9665833 14.656586 2.3091888c3.5766907 0.34259033 7.1094055 -1.025116 6.803467 -0.25358582c-0.3059082 0.77153015 -6.327179 3.4700623 -8.638977 4.882721c-2.311798 1.412674 -2.7459412 2.6517792 -5.2317505 3.5932617c-2.4858093 0.9414673 -6.54245 1.7984161 -9.683136 2.055603c-3.1407166 0.25717163 -6.674347 9.0026855E-4 -9.161072 -0.512558c-2.4867249 -0.513443 -5.9333496 -2.6113129 -5.759308 -2.5681458c0.17401123 0.043151855 4.0556946 2.141922 6.803467 2.827118c2.7477722 0.6851959 7.0654297 -0.21490479 9.683136 1.2840729c2.6177063 1.4989929 4.234314 4.8404694 6.023102 7.709854c1.7888184 2.8693848 3.1828308 5.951889 4.7096863 9.50647c1.5268555 3.554596 2.7505188 8.224197 4.4513855 11.82106c1.7008667 3.5968475 4.4019165 7.448166 5.7538147 9.76004c1.3519287 2.3118896 3.4045105 3.9826202 2.357605 4.111206c-1.0469055 0.12858582 -5.760254 -1.7984314 -8.638977 -3.339676c-2.8787537 -1.5412445 -6.1037292 -3.2524567 -8.633514 -5.9078217c-2.5297546 -2.6553802 -6.1082764 -9.381485 -6.545166 -10.024429c-0.43688965 -0.6429291 2.1789856 3.7254486 3.9237976 6.166809c1.7448425 2.4413605 5.0614014 5.8682556 6.5451965 8.481369c1.4837952 2.6131134 2.008606 3.899887 2.3575745 7.197296c0.3489685 3.297409 0.60910034 8.64772 -0.26376343 12.587173c-0.8728943 3.9394531 -2.8796692 8.308731 -4.97348 11.04953c-2.093811 2.740799 -6.935364 6.2513275 -7.589325 5.395279c-0.6539917 -0.8560486 2.8805542 -7.1487427 3.6655273 -10.531586c0.7849426 -3.3828278 1.3060913 -6.339447 1.0441284 -9.765442c-0.26193237 -3.4260101 -2.6598206 -10.919144 -2.6158752 -10.790558c0.04397583 0.12858582 2.8356934 7.622635 2.8796692 11.562073c0.04397583 3.9394531 -1.8739624 8.991226 -2.6158752 12.074631c-0.7418823 3.0834045 -2.7074585 6.2117615 -1.8355103 6.4257812c0.87194824 0.21400452 5.8454285 -4.8413696 7.0672607 -5.1417084c1.2218323 -0.30033875 0.30682373 1.7552643 0.26379395 3.339676c-0.043060303 1.5844116 -0.8710327 3.9394531 -0.5220947 6.166809c0.3489685 2.2273407 1.9179688 5.055374 2.6159058 7.197296c0.6979065 2.141922 0.5248108 3.6418152 1.5717163 5.654251c1.0469055 2.012436 4.928589 5.9069214 4.709656 6.4203796c-0.21890259 0.513443 -3.972351 -1.969284 -6.023102 -3.339676c-2.0507507 -1.3704071 -4.7115173 -3.0843048 -6.2814026 -4.882736c-1.5698853 -1.7984161 -2.8329468 -3.3810272 -3.1379395 -5.9078217c-0.30499268 -2.5267944 1.4828796 -9.552338 1.3079224 -9.252899c-0.17492676 0.29943848 -1.2236633 7.62352 -2.3575745 11.04953c-1.1339111 3.4259949 -2.7010498 5.309845 -4.4458923 9.50647c-1.7448425 4.1966248 -4.3652954 11.776077 -6.023102 15.673264c-1.6578369 3.8971863 -3.3138123 8.779938 -3.9238281 7.7098694c-0.60998535 -1.0700684 0.21981812 -9.676422 0.26379395 -14.130249c0.04397583 -4.453781 -0.52297974 -8.224182 0 -12.59256c0.52297974 -4.3683777 2.0480042 -8.821274 3.1379395 -13.617676c1.0899658 -4.796402 2.659851 -9.936295 3.401764 -15.160721c0.7418823 -5.2244263 1.5295715 -10.9614105 1.0496216 -16.185822c-0.47991943 -5.2244263 -2.620453 -10.406601 -3.9292908 -15.160736c-1.3088684 -4.754135 -2.4848938 -8.567688 -3.9238281 -13.36409c-1.4389038 -4.796402 -2.4418335 -12.116898 -4.709656 -15.414307c-2.2678528 -3.297409 -5.756592 -3.770401 -8.897293 -4.370178c-3.1407013 -0.59976196 -6.3262787 0.12860107 -9.946915 0.77153015c-3.6206512 0.64294434 -8.985214 2.2291412 -11.776947 3.0861053c-2.7917328 0.85694885 -2.3557434 2.3981934 -4.973465 2.0555878c-2.6177063 -0.34259033 -6.6761627 -2.7830505 -10.732773 -4.111191c-4.0566254 -1.3281403 -9.245331 -3.1292572 -13.606964 -3.8576202c-4.361618 -0.72836304 -8.331238 -0.5557251 -12.56279 -0.512558c-4.2315674 0.043167114 -10.121872 -0.34170532 -12.826584 0.77153015c-2.7047272 1.1132202 -2.0928955 3.1670227 -3.4017487 5.9078217c-1.3088531 2.740799 -3.6664429 6.6820526 -4.4513855 10.536972c-0.7849426 3.8549194 1.006607 8.995728 -0.25828552 12.592575c-1.2648926 3.5968475 -5.2372437 5.5202637 -7.3310547 8.988525c-2.0937958 3.4682617 -4.839737 6.938324 -5.2317505 11.821045c-0.39201355 4.882736 1.4837952 11.607941 2.8796692 17.475311z" fill-rule="evenodd"/><path stroke="#000000" stroke-width="2.0" stroke-linejoin="round" stroke-linecap="butt" d="m161.55566 219.9484c1.3958588 5.8673553 3.620636 12.033264 5.495529 17.728867c1.8748932 5.6956177 4.0090027 11.04863 5.75383 16.444809c1.7448425 5.396179 4.84523 13.70578 4.7151794 15.932251c-0.13006592 2.2264404 -2.9217987 -0.2607727 -5.4955444 -2.5735474c-2.5737457 -2.3127747 -6.587311 -7.4059143 -9.946915 -11.303101c-3.3596191 -3.8972015 -7.244049 -8.5686035 -10.210709 -12.080032c-2.9666748 -3.5114288 -5.2775574 -5.819702 -7.58934 -8.988525c-2.311798 -3.1688232 -4.798523 -6.3412476 -6.2814026 -10.024429c-1.4828796 -3.6831665 -1.9619141 -9.376984 -2.6158752 -12.0746155c-0.65397644 -2.697647 -1.6129456 -5.6956177 -1.3079376 -4.111206c0.30499268 1.5844116 1.6550751 9.292465 3.1379547 13.617676c1.4828796 4.3252106 2.9675903 8.265564 5.759323 12.333603c2.7917328 4.068039 7.501404 8.006592 10.991074 12.0746155c3.4896698 4.068039 7.7221375 8.565002 9.946915 12.333603c2.2247772 3.7686157 4.4046783 10.149414 3.4017487 10.278015c-1.002945 0.12857056 -6.1476746 -6.5948486 -9.419357 -9.5065c-3.2716827 -2.911621 -6.9830017 -5.4366302 -10.210709 -7.9634094c-3.227707 -2.5267944 -6.494812 -4.62735 -9.155563 -7.197296c-2.6607666 -2.5699615 -7.0700073 -8.565002 -6.808975 -8.222412c0.2610321 0.3426056 5.757492 7.408615 8.375198 10.278c2.6177063 2.8694 5.7171936 4.4969635 7.3310547 6.938339c1.6138458 2.4413452 2.1780548 5.1830444 2.3520813 7.709839c0.17402649 2.5267944 0.3489685 7.8366394 -1.3079376 7.4508667c-1.6569061 -0.3857422 -5.6677246 -5.6973877 -8.633484 -9.765442c-2.9657593 -4.068039 -6.2814026 -9.546936 -9.161072 -14.6427765c-2.879654 -5.0958405 -6.328102 -10.706924 -8.116905 -15.932251c-1.7887955 -5.2253265 -2.1798935 -9.852661 -2.6158752 -15.419693c-0.43598175 -5.567032 -0.26195526 -14.128433 0 -17.982452c0.26195526 -3.8540192 1.7457504 -6.2980804 1.5717239 -5.141693c-0.17402649 1.1563873 -1.9619064 7.925659 -2.6158752 12.080017c-0.6539688 4.154358 -1.0020218 8.178345 -1.3079376 12.846146c-0.30591583 4.667816 -0.6145859 11.649307 -0.52757263 15.160736c0.087013245 3.5114136 1.5295944 5.822403 1.0496521 5.9078217c-0.47994995 0.0854187 -2.3585052 -1.7984314 -3.9293137 -5.395279c-1.5708084 -3.5968475 -4.6675415 -11.046829 -5.495537 -16.185822c-0.8279953 -5.1390076 -0.43231964 -9.5946045 0.52757263 -14.648178c0.95988464 -5.0535736 2.5279465 -10.962296 5.2317505 -15.673279c2.703804 -4.710968 11.253029 -12.078217 10.991074 -12.592575c-0.26195526 -0.51434326 -8.593185 7.6649017 -12.562798 9.506485c-3.9696121 1.8415833 -7.8091583 1.7993164 -11.25486 1.543045c-3.4457016 -0.25627136 -7.762451 -2.0529022 -9.419357 -3.0807037c-1.6568985 -1.0278015 -1.9179382 -2.1437225 -0.52207184 -3.08609c1.3958664 -0.9423828 4.884613 -0.46939087 8.897278 -2.568161c4.012657 -2.098755 10.90406 -6.727005 15.178673 -10.024414c4.2746124 -3.297409 7.720314 -7.1478424 10.469002 -9.760056c2.74868 -2.6122131 4.4522934 -4.756836 6.0231094 -5.9132233c1.5708008 -1.1563873 0.47994995 -0.64024353 3.4017334 -1.0251007c2.9217987 -0.38485718 10.814301 -0.42712402 14.129028 -1.2840729c3.3147278 -0.85694885 6.0203705 -3.986206 5.759323 -3.8576202c-0.2610321 0.12858582 -4.359787 3.6867676 -7.3255463 4.629135c-2.9657593 0.9423828 -6.935364 1.0251007 -10.469009 1.0251007c-3.5336304 0 -7.330124 -0.21130371 -10.73278 -1.0251007c-3.402649 -0.81378174 -6.891403 -2.1868744 -9.683136 -3.8576202c-2.7917328 -1.6707306 -7.198242 -5.653351 -7.0672607 -6.166794c0.13097382 -0.51345825 3.0985641 3.8135529 7.8531265 3.08609c4.7545547 -0.72746277 15.047699 -5.0526733 20.67421 -7.4508667c5.6265106 -2.3982086 8.504349 -5.4393387 13.084885 -6.9383316c4.5805206 -1.4989853 10.253754 -2.0978622 14.3983 -2.0555954c4.1445465 0.042259216 9.902039 2.437767 10.469009 2.3091736c0.56695557 -0.12858582 -4.7115173 -2.0529022 -7.067276 -3.080696c-2.3557434 -1.0278015 -4.8424835 -1.5016861 -7.0672607 -3.0860977c-2.2247772 -1.5844193 -5.0604706 -4.5787964 -6.2813873 -6.4203796c-1.220932 -1.8415909 -2.440033 -4.3288116 -1.0441589 -4.6291504c1.3958588 -0.30033112 5.7117004 2.2273483 9.419357 2.8271255c3.7076569 0.5997772 9.031906 0.38576508 12.826584 0.7715225c3.7946625 0.38576508 6.844696 0.94327545 9.9414215 1.5430527c3.0967407 0.5997772 6.152252 2.2696152 8.638992 2.055603c2.4867249 -0.21401978 3.4896698 -2.3973007 6.2814026 -3.339676c2.7917328 -0.9423752 7.023285 -1.9288177 10.468994 -2.3145752c3.4457092 -0.38576508 7.457443 0.3848648 10.205215 0c2.7477722 -0.3848648 4.448639 -1.5385513 6.2814026 -2.3091812c1.8327637 -0.77062225 4.584198 -3.1706238 4.715164 -2.3145676c0.13098145 0.8560486 -1.8785553 5.1380997 -3.929306 7.4508743c-2.0507507 2.3127747 -5.932434 4.798195 -8.375198 6.4257736c-2.4427643 1.6275711 -7.0672607 3.339676 -6.2814026 3.339676c0.78585815 0 7.28891 -2.6113129 10.996567 -3.339676c3.7076569 -0.72836304 7.0187225 -1.3731003 11.249374 -1.0305023c4.230652 0.34259796 8.900024 2.0151367 14.1345215 3.0860977c5.234497 1.070961 12.735901 2.9116516 17.272491 3.339676c4.53656 0.4280243 7.373169 -0.30033875 9.946899 -0.7715225c2.573761 -0.4711914 4.7976074 -2.6976395 5.4955444 -2.055603c0.697937 0.64204407 -0.13006592 3.8953934 -1.3079224 5.9078293c-1.177887 2.012436 -3.3605347 4.924988 -5.7593384 6.166794c-2.3988037 1.2418213 -5.9727173 1.7121124 -8.633484 1.2840881c-2.6607666 -0.4280243 -4.452301 -2.6967468 -7.3310547 -3.852234c-2.8787537 -1.1554871 -6.364746 -2.5240936 -9.9414215 -3.0807037c-3.5766907 -0.5566101 -11.605667 -0.25897217 -11.518646 -0.25897217c0.087005615 0 8.289093 -0.5116501 12.04071 0.25897217c3.7516327 0.7706299 7.110306 2.8666992 10.469009 4.3647766c3.358673 1.4980927 5.9315186 2.8675995 9.683136 4.623749c3.7516174 1.7561646 8.246063 4.5428314 12.826599 5.9132233c4.5805054 1.3704071 11.079895 1.9665833 14.656586 2.3091888c3.5766907 0.34259033 7.1094055 -1.025116 6.803467 -0.25358582c-0.3059082 0.77153015 -6.327179 3.4700623 -8.638977 4.882721c-2.311798 1.412674 -2.7459412 2.6517792 -5.2317505 3.5932617c-2.4858093 0.9414673 -6.54245 1.7984161 -9.683136 2.055603c-3.1407166 0.25717163 -6.674347 9.0026855E-4 -9.161072 -0.512558c-2.4867249 -0.513443 -5.9333496 -2.6113129 -5.759308 -2.5681458c0.17401123 0.043151855 4.0556946 2.141922 6.803467 2.827118c2.7477722 0.6851959 7.0654297 -0.21490479 9.683136 1.2840729c2.6177063 1.4989929 4.234314 4.8404694 6.023102 7.709854c1.7888184 2.8693848 3.1828308 5.951889 4.7096863 9.50647c1.5268555 3.554596 2.7505188 8.224197 4.4513855 11.82106c1.7008667 3.5968475 4.4019165 7.448166 5.7538147 9.76004c1.3519287 2.3118896 3.4045105 3.9826202 2.357605 4.111206c-1.0469055 0.12858582 -5.760254 -1.7984314 -8.638977 -3.339676c-2.8787537 -1.5412445 -6.1037292 -3.2524567 -8.633514 -5.9078217c-2.5297546 -2.6553802 -6.1082764 -9.381485 -6.545166 -10.024429c-0.43688965 -0.6429291 2.1789856 3.7254486 3.9237976 6.166809c1.7448425 2.4413605 5.0614014 5.8682556 6.5451965 8.481369c1.4837952 2.6131134 2.008606 3.899887 2.3575745 7.197296c0.3489685 3.297409 0.60910034 8.64772 -0.26376343 12.587173c-0.8728943 3.9394531 -2.8796692 8.308731 -4.97348 11.04953c-2.093811 2.740799 -6.935364 6.2513275 -7.589325 5.395279c-0.6539917 -0.8560486 2.8805542 -7.1487427 3.6655273 -10.531586c0.7849426 -3.3828278 1.3060913 -6.339447 1.0441284 -9.765442c-0.26193237 -3.4260101 -2.6598206 -10.919144 -2.6158752 -10.790558c0.04397583 0.12858582 2.8356934 7.622635 2.8796692 11.562073c0.04397583 3.9394531 -1.8739624 8.991226 -2.6158752 12.074631c-0.7418823 3.0834045 -2.7074585 6.2117615 -1.8355103 6.4257812c0.87194824 0.21400452 5.8454285 -4.8413696 7.0672607 -5.1417084c1.2218323 -0.30033875 0.30682373 1.7552643 0.26379395 3.339676c-0.043060303 1.5844116 -0.8710327 3.9394531 -0.5220947 6.166809c0.3489685 2.2273407 1.9179688 5.055374 2.6159058 7.197296c0.6979065 2.141922 0.5248108 3.6418152 1.5717163 5.654251c1.0469055 2.012436 4.928589 5.9069214 4.709656 6.4203796c-0.21890259 0.513443 -3.972351 -1.969284 -6.023102 -3.339676c-2.0507507 -1.3704071 -4.7115173 -3.0843048 -6.2814026 -4.882736c-1.5698853 -1.7984161 -2.8329468 -3.3810272 -3.1379395 -5.9078217c-0.30499268 -2.5267944 1.4828796 -9.552338 1.3079224 -9.252899c-0.17492676 0.29943848 -1.2236633 7.62352 -2.3575745 11.04953c-1.1339111 3.4259949 -2.7010498 5.309845 -4.4458923 9.50647c-1.7448425 4.1966248 -4.3652954 11.776077 -6.023102 15.673264c-1.6578369 3.8971863 -3.3138123 8.779938 -3.9238281 7.7098694c-0.60998535 -1.0700684 0.21981812 -9.676422 0.26379395 -14.130249c0.04397583 -4.453781 -0.52297974 -8.224182 0 -12.59256c0.52297974 -4.3683777 2.0480042 -8.821274 3.1379395 -13.617676c1.0899658 -4.796402 2.659851 -9.936295 3.401764 -15.160721c0.7418823 -5.2244263 1.5295715 -10.9614105 1.0496216 -16.185822c-0.47991943 -5.2244263 -2.620453 -10.406601 -3.9292908 -15.160736c-1.3088684 -4.754135 -2.4848938 -8.567688 -3.9238281 -13.36409c-1.4389038 -4.796402 -2.4418335 -12.116898 -4.709656 -15.414307c-2.2678528 -3.297409 -5.756592 -3.770401 -8.897293 -4.370178c-3.1407013 -0.59976196 -6.3262787 0.12860107 -9.946915 0.77153015c-3.6206512 0.64294434 -8.985214 2.2291412 -11.776947 3.0861053c-2.7917328 0.85694885 -2.3557434 2.3981934 -4.973465 2.0555878c-2.6177063 -0.34259033 -6.6761627 -2.7830505 -10.732773 -4.111191c-4.0566254 -1.3281403 -9.245331 -3.1292572 -13.606964 -3.8576202c-4.361618 -0.72836304 -8.331238 -0.5557251 -12.56279 -0.512558c-4.2315674 0.043167114 -10.121872 -0.34170532 -12.826584 0.77153015c-2.7047272 1.1132202 -2.0928955 3.1670227 -3.4017487 5.9078217c-1.3088531 2.740799 -3.6664429 6.6820526 -4.4513855 10.536972c-0.7849426 3.8549194 1.006607 8.995728 -0.25828552 12.592575c-1.2648926 3.5968475 -5.2372437 5.5202637 -7.3310547 8.988525c-2.0937958 3.4682617 -4.839737 6.938324 -5.2317505 11.821045c-0.39201355 4.882736 1.4837952 11.607941 2.8796692 17.475311z" fill-rule="evenodd"/></g></svg>