<?xml version="1.0" standalone="no"?>
<!DOCTYPE svg PUBLIC "-//W3C//DTD SVG 20010904//EN"
 "http://www.w3.org/TR/2001/REC-SVG-20010904/DTD/svg10.dtd">
<svg version="1.0" xmlns="http://www.w3.org/2000/svg"
 width="582.000000pt" height="535.000000pt" viewBox="0 0 582.000000 535.000000"
 preserveAspectRatio="xMidYMid meet">
<metadata>
Created by potrace 1.16, written by Peter Selinger 2001-2019
</metadata>
<g transform="translate(0.000000,535.000000) scale(0.100000,-0.100000)"
fill="#000000" stroke="none">
<path d="M2545 5259 c-486 -61 -944 -290 -1310 -654 -281 -280 -500 -625 -559
-880 -37 -161 -44 -208 -76 -555 -32 -344 -39 -644 -19 -846 15 -156 93 -618
140 -829 70 -319 112 -431 220 -582 130 -184 282 -353 452 -502 223 -196 230
-202 257 -199 40 5 40 50 0 80 -39 28 -116 177 -153 294 -43 135 -106 440
-127 614 -62 501 -33 715 214 1632 47 175 86 332 86 351 0 18 9 82 20 142 18
101 49 323 51 363 0 19 -1 23 50 -98 66 -158 196 -363 443 -699 289 -394 290
-394 340 -375 24 9 20 28 -34 176 -43 120 -67 209 -141 528 -11 47 -24 121
-29 165 -5 44 -18 129 -30 189 -11 61 -20 114 -20 119 0 5 53 -41 118 -101 64
-61 164 -150 222 -198 58 -48 127 -107 153 -130 50 -45 420 -286 627 -409 164
-97 568 -302 613 -310 23 -5 43 -3 49 3 6 6 26 73 45 149 26 104 36 170 41
267 l7 128 34 -48 c19 -27 50 -65 70 -85 20 -19 56 -58 81 -85 46 -50 167
-151 208 -173 30 -16 29 -29 -18 -358 -76 -526 -107 -651 -194 -778 -83 -120
-100 -154 -85 -171 16 -19 49 -18 104 6 69 30 79 27 71 -17 -4 -21 -18 -78
-31 -128 -13 -49 -28 -118 -34 -152 -22 -119 -120 -397 -246 -696 -15 -36 -15
-38 2 -28 41 22 220 190 304 284 173 195 302 388 423 637 92 190 128 293 161
470 36 195 40 274 25 473 -9 122 -10 171 -2 179 28 28 314 -153 485 -307 53
-49 66 -56 97 -53 54 5 52 35 -8 121 -103 149 -468 808 -536 967 -27 63 -55
152 -70 225 -46 216 -211 634 -311 787 -414 631 -1004 1015 -1685 1098 -100
12 -395 11 -495 -1z m584 -104 c395 -61 504 -105 903 -368 101 -66 170 -118
175 -131 4 -12 46 -56 93 -97 219 -192 315 -318 421 -552 28 -62 59 -121 70
-133 10 -11 19 -27 19 -36 0 -8 11 -40 24 -69 57 -131 97 -255 116 -365 11
-65 30 -153 41 -194 23 -86 100 -251 132 -283 12 -12 38 -53 58 -92 20 -38 97
-178 172 -310 74 -132 134 -241 132 -243 -2 -2 -33 19 -69 47 -122 93 -189
128 -416 215 -112 43 -162 70 -295 158 -128 84 -179 125 -255 204 -93 97 -170
186 -170 197 0 3 -16 29 -36 58 -74 111 -204 371 -204 410 0 49 -132 321 -219
450 -115 172 -365 469 -394 469 -26 0 -40 -18 -34 -42 4 -14 70 -101 148 -194
154 -183 252 -323 314 -449 22 -44 42 -82 45 -85 3 -3 11 -23 19 -45 7 -22 32
-80 53 -130 22 -49 47 -110 55 -135 9 -25 22 -60 30 -79 8 -19 25 -81 39 -138
23 -98 24 -112 14 -229 -8 -101 -51 -318 -65 -332 -5 -6 -369 181 -510 261
-147 84 -579 355 -611 383 -22 20 -255 215 -390 326 -117 97 -202 192 -236
263 -38 83 -55 177 -69 391 -6 98 -15 187 -20 197 -13 23 -31 22 -48 -5 -16
-26 -16 -89 3 -268 15 -137 27 -214 90 -580 19 -113 35 -216 34 -230 0 -14 28
-148 61 -299 34 -150 60 -275 59 -276 -2 -2 -82 110 -178 248 -96 138 -187
265 -201 282 -38 43 -145 234 -180 318 -55 133 -106 350 -155 662 -18 119 -34
153 -54 116 -9 -17 -3 -75 25 -279 22 -151 35 -273 31 -297 -59 -414 -131
-778 -215 -1090 -171 -638 -221 -894 -221 -1130 0 -159 19 -449 37 -555 17
-108 115 -501 137 -554 8 -20 13 -36 10 -36 -2 0 -56 47 -118 105 -129 118
-234 244 -328 390 -108 167 -106 163 -198 560 -55 240 -124 634 -141 810 -27
273 27 1086 87 1333 20 78 97 264 155 372 162 299 396 534 815 816 114 76 263
157 281 152 4 -1 28 8 53 20 73 34 280 87 515 130 28 5 128 10 224 11 141 1
206 -4 340 -24z m1661 -2591 c19 -10 47 -29 62 -41 15 -11 49 -28 76 -37 l49
-17 7 -62 c14 -135 18 -389 7 -512 -9 -112 -17 -149 -55 -262 -118 -343 -324
-695 -544 -928 -26 -28 -57 -64 -68 -80 -12 -17 -25 -27 -29 -23 -5 5 -1 16 8
26 10 10 17 23 17 28 0 6 11 32 24 60 12 27 36 90 51 139 15 50 40 131 56 180
88 283 125 447 106 481 -7 12 -6 55 3 133 20 185 77 611 107 798 l27 172 30
-18 c17 -10 47 -27 66 -37z"/>
</g>
</svg>
