<?xml version="1.0" standalone="no"?>
<!DOCTYPE svg PUBLIC "-//W3C//DTD SVG 20010904//EN"
 "http://www.w3.org/TR/2001/REC-SVG-20010904/DTD/svg10.dtd">
<svg version="1.0" xmlns="http://www.w3.org/2000/svg"
 width="735.000000pt" height="437.000000pt" viewBox="0 0 735.000000 437.000000"
 preserveAspectRatio="xMidYMid meet">
<metadata>
Created by potrace 1.16, written by Peter Selinger 2001-2019
</metadata>
<g transform="translate(0.000000,437.000000) scale(0.100000,-0.100000)"
fill="#000000" stroke="none">
<path d="M3460 3610 c-220 -8 -268 -13 -392 -45 -58 -16 -252 -90 -348 -134
-25 -11 -56 -21 -69 -21 -25 0 -137 -64 -286 -164 -169 -112 -265 -224 -383
-446 l-51 -95 -20 -180 c-59 -529 -55 -648 34 -1025 21 -92 23 -99 30 -110 10
-16 54 -11 63 8 5 9 20 99 33 200 13 104 26 177 31 170 4 -7 8 -26 8 -43 0
-41 53 -189 82 -230 12 -18 58 -79 101 -135 42 -55 77 -105 77 -110 0 -15 26
-12 39 4 7 8 18 107 27 237 8 123 21 258 28 299 l12 75 8 -60 c11 -76 21 -95
51 -95 30 0 36 13 98 216 25 82 67 201 94 264 l48 113 3 -49 c4 -64 -12 -156
-49 -271 -36 -111 -36 -156 0 -161 18 -3 41 13 98 70 92 91 162 193 201 295
28 73 110 357 113 392 1 9 6 -22 10 -69 14 -150 -4 -247 -82 -434 -57 -134
-61 -179 -19 -184 15 -1 47 12 80 32 30 19 80 50 110 67 30 18 78 57 106 86
28 29 55 53 59 53 11 0 41 38 92 117 25 40 48 71 50 69 7 -7 -17 -185 -43
-317 -15 -75 -24 -143 -21 -152 4 -11 18 -17 36 -17 34 0 160 97 236 182 39
43 46 48 42 28 -21 -101 -39 -231 -34 -244 11 -27 39 -18 168 50 236 127 336
203 413 315 43 62 41 43 -10 -76 -37 -88 -44 -149 -18 -159 37 -14 56 -2 143
92 197 213 250 311 326 606 38 150 30 158 84 -86 54 -241 61 -306 61 -554 0
-249 2 -259 51 -252 24 3 51 44 120 178 45 87 42 97 39 -140 -2 -168 6 -203
47 -198 20 2 35 16 60 58 27 45 32 50 28 25 -57 -308 -79 -446 -75 -466 4 -16
14 -25 31 -27 25 -3 40 11 136 128 93 112 171 251 237 418 20 52 43 104 50
115 8 12 24 76 37 142 32 159 32 339 2 435 -11 36 -28 97 -38 135 -9 39 -30
95 -47 125 -48 86 -74 143 -82 174 -9 38 -91 158 -156 229 -28 31 -104 96
-168 144 -65 48 -134 100 -156 116 -49 38 -347 168 -499 218 -182 60 -262 70
-582 74 -154 2 -381 -1 -505 -5z m495 -70 c405 -13 482 -29 814 -171 165 -70
201 -90 316 -174 206 -150 266 -214 389 -412 50 -80 63 -113 102 -255 25 -90
50 -201 56 -248 l11 -85 -52 -195 c-66 -247 -112 -385 -156 -469 -35 -66 -125
-194 -132 -187 -2 1 21 139 52 306 55 301 61 350 48 364 -4 3 -6 89 -4 189 2
163 -10 419 -25 535 -5 40 -8 43 -32 40 l-27 -3 0 -390 c0 -428 -2 -444 -65
-579 l-28 -61 -1 132 c-1 72 -5 134 -10 137 -5 3 -7 23 -4 44 4 38 -1 77 -37
272 -12 63 -24 131 -27 150 -22 170 -56 370 -66 393 -13 30 -53 38 -63 12 -4
-9 3 -57 15 -108 12 -50 21 -123 21 -160 0 -38 6 -80 14 -95 15 -30 30 -190
28 -297 -2 -103 -20 -192 -52 -260 l-28 -60 -1 157 c-1 107 -7 193 -21 275
-25 147 -100 485 -110 498 -4 6 -15 66 -24 135 -20 143 -28 170 -55 170 -29 0
-43 -70 -30 -154 8 -47 8 -75 0 -94 -6 -15 -31 -108 -55 -207 -54 -217 -75
-278 -121 -361 -31 -55 -149 -214 -159 -214 -1 0 8 37 21 82 13 45 28 127 34
183 6 55 17 125 26 155 8 31 13 72 10 95 -4 24 3 77 16 135 12 52 21 114 19
138 -3 37 -6 42 -27 42 -34 0 -47 -30 -53 -127 -3 -54 -10 -90 -19 -99 -8 -8
-28 -65 -43 -127 -39 -153 -74 -256 -111 -330 -43 -84 -150 -188 -266 -257
-89 -53 -173 -99 -183 -100 -3 0 9 87 27 193 34 201 39 272 23 282 -5 3 -7 29
-5 58 5 50 19 332 29 540 l4 97 -28 0 c-36 0 -34 10 -55 -290 -20 -286 -32
-385 -55 -487 -31 -133 -90 -232 -180 -303 l-41 -32 7 63 c3 35 10 82 16 104
28 114 36 287 14 329 -12 23 -11 34 0 75 11 34 14 92 12 207 l-3 159 -30 0
-30 0 -6 -155 c-5 -119 -11 -170 -27 -220 -12 -36 -22 -73 -22 -82 0 -10 -4
-18 -10 -18 -5 0 -10 -9 -10 -19 0 -23 -105 -184 -151 -230 -39 -39 -141 -116
-182 -138 -28 -14 -28 -14 -17 7 6 12 17 43 25 68 7 26 26 81 41 122 27 72 28
82 28 265 1 226 -9 281 -73 409 -43 84 -48 91 -76 91 -43 0 -43 -29 -1 -113
l35 -69 -15 -54 c-8 -30 -19 -88 -25 -129 -6 -41 -15 -80 -20 -86 -5 -6 -27
-75 -50 -155 -45 -160 -100 -284 -152 -344 l-34 -39 19 89 c12 61 18 135 19
230 0 77 1 158 2 180 2 37 0 40 -25 43 -26 3 -31 -4 -93 -129 -36 -72 -65
-140 -65 -150 0 -11 -4 -19 -9 -19 -9 0 -65 -141 -97 -243 -18 -58 -34 -60
-34 -5 0 15 -5 38 -11 51 -9 20 -5 53 21 165 37 167 37 196 -2 200 -35 4 -39
-5 -73 -163 -80 -367 -105 -524 -121 -753 l-6 -104 -35 49 c-51 71 -102 182
-119 260 -9 43 -17 150 -21 288 -6 241 -13 275 -58 275 -17 0 -29 -8 -35 -22
-5 -13 -25 -151 -45 -308 -20 -157 -38 -289 -39 -295 -1 -5 -11 33 -20 85 -27
144 -31 327 -12 530 42 433 37 406 90 505 74 137 149 245 208 301 80 76 352
254 387 254 10 0 45 12 77 26 306 138 436 173 679 183 96 4 178 10 181 14 9 9
11 9 369 -3z"/>
</g>
</svg>
