<?xml version="1.0" standalone="no"?>
<!DOCTYPE svg PUBLIC "-//W3C//DTD SVG 20010904//EN"
 "http://www.w3.org/TR/2001/REC-SVG-20010904/DTD/svg10.dtd">
<svg version="1.0" xmlns="http://www.w3.org/2000/svg"
 width="597.000000pt" height="446.000000pt" viewBox="0 0 597.000000 446.000000"
 preserveAspectRatio="xMidYMid meet">
<metadata>
Created by potrace 1.16, written by Peter Selinger 2001-2019
</metadata>
<g transform="translate(0.000000,446.000000) scale(0.100000,-0.100000)"
fill="#000000" stroke="none">
<path d="M2441 4325 c-96 -24 -139 -39 -150 -53 -28 -36 -849 -506 -1129 -647
-316 -159 -422 -190 -632 -189 -120 0 -167 5 -275 28 -161 35 -188 37 -193 13
-5 -25 66 -114 171 -213 172 -162 271 -207 453 -208 117 -1 113 11 46 -122
-75 -149 -154 -234 -410 -443 -118 -96 -127 -116 -63 -149 22 -12 75 -28 118
-37 84 -18 139 -14 208 13 62 24 192 101 199 117 3 8 11 15 19 15 7 0 30 9 52
20 22 11 40 20 41 20 1 0 -2 -16 -6 -34 -4 -19 -5 -37 -3 -40 3 -3 -2 -26 -11
-53 -8 -26 -22 -84 -30 -128 -8 -44 -32 -165 -53 -270 -37 -188 -37 -193 -37
-430 0 -200 3 -247 17 -285 9 -25 17 -58 17 -73 0 -15 7 -41 15 -56 8 -16 18
-62 24 -102 5 -41 22 -112 38 -159 27 -81 29 -85 60 -88 23 -2 34 2 41 15 5
10 15 92 22 183 7 91 15 169 18 175 3 5 14 -56 24 -135 28 -227 66 -361 147
-525 38 -77 114 -210 169 -295 80 -125 104 -156 124 -158 38 -5 50 18 38 71
-5 25 -10 133 -10 239 0 106 -4 218 -9 248 -6 30 -15 132 -21 226 -8 139 -7
180 4 220 8 27 19 92 25 144 20 162 117 548 133 532 8 -8 26 -64 50 -157 5
-22 12 -47 15 -55 3 -8 5 -30 4 -48 -3 -41 99 -256 128 -272 11 -5 22 -23 26
-40 4 -16 10 -30 15 -30 4 0 11 -19 15 -42 7 -43 70 -233 117 -358 23 -59 28
-65 54 -65 32 0 18 -34 178 415 51 146 105 288 119 315 13 28 49 102 78 165
l54 114 7 -99 c4 -55 7 -133 7 -174 0 -84 30 -375 42 -408 11 -29 49 -31 73
-4 22 24 84 219 106 332 5 26 25 80 44 120 19 41 53 126 76 189 24 63 70 171
104 240 64 132 175 324 183 316 8 -7 -83 -218 -162 -376 -83 -165 -91 -203
-44 -208 51 -6 354 258 468 409 79 104 159 238 176 295 8 26 25 57 39 68 21
18 251 453 270 511 3 11 17 37 29 57 l23 38 21 -53 c136 -343 253 -665 332
-912 137 -427 180 -746 197 -1486 4 -150 11 -282 16 -291 10 -21 47 -23 72 -5
24 17 164 556 196 752 7 39 16 88 21 111 23 109 32 376 20 652 -6 152 -14 309
-17 347 l-5 70 51 -95 c28 -52 58 -115 67 -140 8 -25 27 -72 43 -105 15 -33
36 -87 48 -120 51 -150 47 -140 80 -196 55 -93 68 -109 96 -119 54 -19 59 -2
58 172 -2 229 -37 377 -147 605 l-53 112 41 -15 c23 -9 58 -24 77 -34 20 -10
75 -30 124 -44 85 -25 97 -26 372 -26 308 0 296 -2 274 54 -5 15 -27 34 -52
47 -125 63 -366 201 -455 261 -101 69 -244 199 -319 292 -21 27 -49 62 -62 77
l-24 29 97 -35 c54 -19 112 -35 130 -35 18 0 44 -9 58 -20 44 -35 216 -71 368
-77 l135 -6 22 28 c26 32 15 65 -21 65 -12 0 -32 6 -43 14 -11 8 -72 33 -135
56 -141 52 -257 109 -329 161 l-55 41 50 -6 c77 -8 529 -26 534 -20 3 2 1 16
-5 31 -8 23 -37 37 -229 114 -277 111 -417 181 -524 260 -95 69 -364 328 -421
404 -57 77 -168 193 -214 224 -22 15 -81 45 -130 66 l-89 38 -100 -18 c-66
-12 -106 -24 -118 -36 -14 -14 -33 -19 -68 -19 -36 0 -89 -15 -195 -56 l-145
-55 -70 29 c-71 30 -279 150 -316 182 -28 24 -92 56 -196 96 -88 34 -89 34
-251 33 -150 0 -173 -3 -297 -34z m414 -39 c33 -8 90 -27 126 -43 l67 -28
-186 -100 c-350 -189 -463 -279 -550 -443 -50 -94 -347 -538 -471 -702 -159
-213 -307 -344 -628 -559 -94 -62 -123 -87 -123 -103 0 -28 28 -58 55 -58 28
0 251 75 281 95 13 8 32 15 44 15 28 0 328 111 488 180 283 123 541 290 984
637 58 45 109 83 112 83 3 0 -8 -29 -24 -65 -16 -36 -27 -65 -23 -65 3 0 -2
-11 -11 -25 -9 -13 -64 -136 -122 -272 -166 -386 -282 -690 -320 -835 -8 -33
-59 -149 -113 -257 -140 -280 -190 -399 -266 -631 -37 -113 -78 -229 -93 -258
l-25 -52 -19 27 c-10 16 -18 37 -18 49 0 11 -9 47 -20 80 -45 130 -55 193 -54
354 0 179 17 298 100 724 30 153 54 291 52 305 -2 20 -9 27 -30 29 -37 4 -40
-5 -82 -223 -92 -476 -126 -695 -126 -815 l0 -55 -24 40 c-63 103 -118 274
-137 423 -22 175 -22 177 -46 180 -50 7 -84 -79 -178 -443 -49 -191 -59 -348
-51 -815 3 -201 8 -387 11 -415 l6 -50 -43 65 c-221 339 -268 496 -322 1088
-12 139 -27 257 -33 263 -6 6 -21 9 -34 7 -21 -3 -24 -9 -27 -48 -2 -24 -7
-49 -12 -55 -5 -6 -12 -85 -15 -175 -5 -113 -12 -172 -21 -187 -8 -12 -14 -44
-14 -70 0 -93 -16 -79 -45 39 -15 62 -34 123 -41 135 -19 31 -19 292 1 449 18
146 60 383 115 644 22 107 40 209 38 225 -5 55 -38 45 -213 -62 -217 -134
-271 -153 -374 -132 -34 6 -61 14 -60 18 0 3 39 38 86 76 226 183 319 294 408
489 l48 104 111 22 c143 28 606 140 629 152 27 14 19 62 -11 66 -13 2 -126
-22 -252 -53 -574 -140 -727 -153 -885 -76 -58 29 -199 144 -230 188 -13 18
-11 18 89 1 199 -34 377 -18 569 52 114 42 397 182 617 305 314 176 815 467
835 485 16 14 142 48 310 83 44 10 133 6 190 -7z m413 -203 c124 -76 267 -143
307 -143 11 0 82 25 157 55 161 63 262 93 373 109 75 11 85 11 147 -11 111
-38 172 -88 299 -248 84 -105 384 -393 469 -451 41 -28 143 -81 225 -118 83
-37 157 -74 166 -82 8 -8 22 -14 31 -14 8 0 18 -3 22 -7 4 -5 22 -13 39 -20
59 -22 -182 -16 -304 7 -156 30 -427 107 -479 137 -25 14 -94 50 -155 80 -60
30 -194 100 -298 155 -114 61 -196 98 -210 96 -25 -3 -35 -41 -17 -63 15 -18
303 -183 455 -260 143 -73 251 -113 440 -164 136 -37 143 -40 234 -109 103
-76 216 -140 326 -184 49 -19 62 -27 44 -28 -46 0 -207 46 -413 119 -110 39
-210 71 -222 71 -31 0 -37 -13 -29 -60 10 -56 175 -246 345 -395 150 -132 204
-169 398 -275 72 -40 132 -75 132 -78 0 -11 -318 7 -390 22 -41 9 -111 30
-155 47 -44 17 -99 36 -122 43 -23 6 -50 19 -60 28 -10 9 -30 21 -44 26 -26
11 -33 23 -163 302 -59 129 -63 135 -92 135 -24 0 -30 -5 -32 -25 -3 -25 194
-468 222 -499 43 -49 154 -305 207 -476 22 -72 24 -91 33 -280 l6 -110 -38
110 c-70 199 -109 309 -127 355 -15 36 -276 515 -658 1205 -31 57 -50 81 -66
83 -59 9 -31 -58 168 -398 152 -260 213 -382 247 -495 25 -87 26 -103 36 -455
12 -484 3 -640 -52 -905 -30 -144 -102 -436 -107 -431 -2 2 -8 116 -14 252
-11 285 -33 564 -55 709 -21 135 -143 598 -204 770 -50 143 -155 420 -253 670
l-55 140 -47 9 c-28 5 -50 5 -56 -1 -5 -5 -80 -146 -165 -314 -305 -595 -339
-646 -646 -957 -37 -38 -32 -11 17 88 25 52 45 101 45 110 0 9 41 128 90 265
50 137 90 258 88 270 -2 13 -12 21 -30 23 -29 4 -29 4 -204 -278 -109 -174
-109 -174 -181 -324 -32 -65 -68 -137 -80 -160 -11 -23 -63 -163 -113 -311
-51 -149 -96 -274 -100 -278 -11 -12 -30 231 -30 375 0 124 28 337 50 378 5
10 12 34 14 52 7 51 32 128 98 303 118 311 448 1078 480 1112 27 29 21 67 -12
71 -19 2 -57 -23 -155 -100 -568 -447 -836 -624 -1150 -758 -130 -56 -535
-203 -541 -197 -2 2 33 30 79 62 277 197 398 333 713 800 81 121 152 221 156
223 4 2 33 52 64 111 71 137 122 195 242 275 103 69 498 286 520 286 7 0 70
-35 140 -77z"/>
</g>
</svg>
