<?xml version="1.0" standalone="no"?>
<!DOCTYPE svg PUBLIC "-//W3C//DTD SVG 20010904//EN"
 "http://www.w3.org/TR/2001/REC-SVG-20010904/DTD/svg10.dtd">
<svg version="1.0" xmlns="http://www.w3.org/2000/svg"
 width="451.000000pt" height="313.000000pt" viewBox="0 0 451.000000 313.000000"
 preserveAspectRatio="xMidYMid meet">
<metadata>
Created by potrace 1.16, written by Peter Selinger 2001-2019
</metadata>
<g transform="translate(0.000000,313.000000) scale(0.100000,-0.100000)"
fill="#000000" stroke="none">
<path d="M2395 3059 c-225 -35 -423 -71 -500 -94 -49 -14 -163 -62 -253 -107
-152 -75 -166 -85 -220 -147 -81 -93 -326 -364 -528 -581 -200 -216 -356 -369
-473 -463 -46 -37 -92 -78 -103 -92 -11 -14 -26 -25 -35 -25 -8 0 -55 -28
-104 -62 -61 -42 -95 -73 -108 -99 -32 -62 -22 -68 185 -100 98 -16 205 -28
237 -29 79 0 203 27 255 55 37 21 42 22 37 7 -3 -10 -21 -93 -40 -185 -77
-367 -67 -507 65 -928 36 -113 44 -131 70 -144 46 -24 62 0 115 167 l47 148
38 -6 37 -6 209 258 c412 510 547 706 747 1082 33 63 63 110 66 105 4 -4 15
-94 24 -200 20 -229 50 -409 77 -470 11 -25 20 -57 20 -70 0 -14 16 -61 35
-105 23 -55 32 -85 26 -97 -5 -9 -11 -77 -13 -151 -5 -144 -21 -205 -94 -352
-24 -49 -26 -62 -18 -95 18 -73 76 -48 178 77 29 36 77 91 106 123 l52 57 34
-37 c18 -21 41 -57 51 -80 14 -33 23 -43 41 -43 12 0 25 7 29 17 3 9 -6 77
-20 152 -31 155 -34 213 -12 231 8 7 15 16 15 21 0 5 21 39 47 76 60 87 89
139 168 298 35 72 71 137 79 146 9 8 32 60 51 114 20 55 41 106 48 113 6 8 14
35 18 60 3 26 14 90 24 142 9 52 15 123 13 157 -2 34 -3 61 -2 60 37 -47 208
-351 263 -468 87 -184 127 -326 215 -766 30 -150 58 -277 61 -283 3 -5 17 -10
29 -10 22 0 24 -6 34 -87 6 -49 14 -117 17 -153 8 -85 12 -98 35 -105 33 -11
78 21 89 63 166 631 177 822 72 1239 -17 65 -29 118 -28 120 2 1 25 -17 52
-40 68 -58 141 -76 313 -77 119 0 134 2 152 20 37 37 26 57 -107 197 -274 287
-324 358 -489 686 -103 206 -119 232 -167 272 -79 68 -186 144 -242 172 -109
56 -408 126 -516 121 -40 -1 -53 4 -105 44 -32 25 -102 73 -155 107 -105 67
-116 69 -244 50z m239 -143 c186 -123 252 -194 289 -311 30 -95 93 -478 102
-625 7 -107 -6 -178 -19 -99 -9 58 -103 405 -122 447 -12 28 -19 33 -42 30
-40 -4 -39 -28 7 -190 49 -177 79 -318 89 -425 6 -66 4 -98 -11 -160 -10 -43
-16 -90 -13 -106 11 -54 -97 -292 -258 -572 l-46 -80 0 132 c0 158 17 257 88
504 28 96 53 194 57 218 l7 43 -33 -7 c-19 -4 -36 -9 -38 -11 -7 -6 -83 -261
-111 -374 -53 -211 -63 -404 -32 -587 10 -57 15 -99 11 -95 -4 4 -28 43 -53
87 -37 65 -50 100 -65 180 -32 165 -34 230 -16 340 14 79 76 324 100 392 7 21
-28 53 -51 47 -17 -4 -26 -21 -39 -67 -36 -126 -87 -355 -97 -437 l-11 -85
-23 88 c-25 102 -58 354 -74 572 -7 83 -15 159 -20 170 -6 16 17 70 100 235
87 172 107 218 99 233 -7 12 -19 17 -37 15 -23 -3 -43 -36 -197 -338 -337
-660 -441 -821 -880 -1365 -164 -204 -177 -217 -171 -180 75 492 97 562 304
966 l125 246 -22 22 c-12 12 -28 20 -35 18 -15 -6 -154 -270 -232 -440 -111
-241 -139 -328 -180 -554 -13 -73 -30 -143 -38 -155 -13 -21 -31 -76 -114
-340 -15 -48 -30 -88 -33 -88 -3 0 -22 55 -42 123 -111 374 -110 463 4 957 33
145 50 197 77 244 71 120 275 595 270 628 -2 18 -9 23 -33 23 -29 0 -32 -4
-107 -180 -114 -264 -189 -423 -206 -437 -8 -7 -23 -31 -32 -53 -58 -134 -217
-194 -441 -165 -57 7 -129 18 -160 24 l-57 11 122 86 c179 128 291 226 491
430 184 188 658 704 709 771 51 68 372 213 551 249 83 17 414 67 448 68 20 1
64 -22 141 -73z m476 -162 c58 -9 138 -29 178 -44 65 -25 253 -142 324 -202
16 -14 73 -115 142 -253 162 -324 215 -400 454 -654 l126 -133 -115 4 c-153 5
-167 13 -309 178 -97 112 -117 131 -139 128 -31 -4 -41 -41 -17 -67 20 -22
130 -454 152 -596 30 -195 16 -359 -58 -678 -30 -130 -48 -171 -48 -110 0 16
-9 81 -21 147 l-21 118 22 134 c43 264 43 459 0 636 -30 123 -147 486 -167
518 -9 13 -35 81 -57 150 -41 123 -42 125 -71 125 -24 0 -31 -5 -33 -23 -2
-12 30 -116 71 -230 148 -411 192 -567 206 -730 11 -131 -5 -347 -35 -472 -4
-17 -20 39 -49 175 -102 480 -153 612 -392 1010 -84 139 -114 180 -133 185
-33 8 -50 43 -50 105 -1 124 -69 451 -113 545 -12 25 -23 49 -25 54 -5 9 6 7
178 -20z m-653 -2093 l32 -56 -77 -87 c-41 -48 -77 -86 -78 -85 -2 2 8 34 23
72 18 49 27 98 31 165 6 107 3 107 69 -9z"/>
</g>
</svg>
