<?xml version="1.0" standalone="no"?>
<!DOCTYPE svg PUBLIC "-//W3C//DTD SVG 20010904//EN"
 "http://www.w3.org/TR/2001/REC-SVG-20010904/DTD/svg10.dtd">
<svg version="1.0" xmlns="http://www.w3.org/2000/svg"
 width="391.000000pt" height="419.000000pt" viewBox="0 0 391.000000 419.000000"
 preserveAspectRatio="xMidYMid meet">
<metadata>
Created by potrace 1.16, written by Peter Selinger 2001-2019
</metadata>
<g transform="translate(0.000000,419.000000) scale(0.100000,-0.100000)"
fill="#000000" stroke="none">
<path d="M1739 4070 c-568 -100 -1053 -492 -1338 -1081 -159 -327 -231 -653
-231 -1039 0 -285 32 -492 116 -756 102 -319 306 -657 525 -870 105 -101 137
-123 151 -103 6 9 8 100 5 237 -2 122 -3 222 -1 222 3 0 49 -22 104 -50 55
-27 111 -50 125 -50 43 0 42 27 -2 73 -50 51 -103 130 -176 262 -43 78 -58
115 -66 170 -26 177 -23 1160 4 1228 4 9 17 17 29 17 28 0 458 120 616 171
243 80 339 137 473 280 48 50 87 96 87 100 0 5 5 9 11 9 8 0 10 -73 6 -257 -4
-212 -9 -273 -25 -343 -44 -185 -108 -361 -271 -743 -56 -132 -101 -249 -99
-260 2 -17 11 -23 39 -25 36 -3 39 0 185 173 180 213 268 330 354 468 36 58
66 104 68 102 5 -5 -38 -558 -58 -730 -27 -240 -58 -396 -155 -784 -47 -187
-85 -353 -85 -370 0 -21 7 -34 21 -42 19 -10 34 2 163 133 78 78 175 179 215
223 69 76 72 78 64 45 -13 -54 -8 -282 7 -309 12 -23 20 -15 252 220 203 207
311 331 400 459 17 24 17 23 2 -15 -24 -59 -115 -238 -171 -335 -87 -151 -123
-237 -123 -292 0 -49 1 -50 25 -44 42 11 213 136 303 221 135 129 222 258 330
492 94 203 154 354 163 408 4 28 19 104 33 170 35 169 46 286 46 500 0 280
-24 455 -96 692 -159 525 -479 953 -905 1211 -170 102 -375 178 -576 212 -153
26 -394 26 -544 0z m474 -51 c197 -40 411 -113 542 -185 243 -133 339 -215
576 -487 135 -156 138 -162 208 -313 39 -85 71 -162 71 -171 0 -8 23 -86 51
-172 85 -262 100 -336 106 -511 6 -172 -8 -345 -58 -694 -16 -115 -29 -221
-29 -237 0 -16 -27 -93 -61 -171 -169 -398 -254 -526 -495 -743 -48 -44 -85
-75 -82 -70 3 6 45 80 93 165 128 223 205 391 273 590 l59 175 18 290 c21 340
17 688 -9 825 -32 171 -179 719 -207 773 -6 9 -21 17 -34 17 -23 0 -25 -4 -25
-45 0 -26 24 -128 55 -233 74 -255 122 -453 140 -583 26 -185 19 -583 -16
-938 l-12 -114 -130 -196 c-158 -239 -229 -328 -428 -540 l-154 -164 -3 63
c-2 46 5 91 27 171 17 60 31 120 31 132 0 12 29 78 64 147 35 69 93 197 129
285 60 145 70 178 101 350 58 318 61 356 59 662 -2 306 -5 326 -51 321 l-27
-3 -6 -355 c-6 -371 -7 -379 -65 -673 -47 -235 -218 -609 -363 -792 -47 -59
-314 -346 -318 -341 -2 2 26 120 61 262 70 278 113 485 126 598 4 39 15 130
24 201 18 154 56 652 56 745 0 71 39 266 101 510 10 41 29 140 40 220 19 128
21 172 15 370 -5 218 -34 532 -49 558 -12 18 -57 15 -64 -5 -4 -9 2 -103 13
-207 28 -279 26 -620 -4 -778 -47 -250 -114 -523 -137 -558 -12 -19 -57 -93
-99 -165 -42 -71 -105 -169 -139 -217 -68 -94 -228 -291 -233 -286 -2 2 34 93
80 203 99 238 154 399 192 561 24 104 28 144 32 324 2 113 -1 266 -6 340 -17
222 -43 463 -52 488 -12 27 -31 28 -55 2 -18 -19 -18 -27 -1 -193 9 -94 16
-183 16 -197 0 -33 -147 -210 -232 -281 -114 -94 -251 -149 -683 -270 -205
-57 -242 -65 -251 -53 -14 18 -7 51 10 51 23 0 177 64 280 116 101 51 225 137
481 335 130 101 146 116 143 140 -5 45 -41 41 -112 -14 -267 -209 -445 -336
-543 -386 -127 -65 -221 -103 -230 -94 -15 15 32 203 69 276 59 116 91 173
120 210 15 19 70 94 123 165 103 140 116 177 64 183 -22 3 -35 -9 -82 -70 -31
-40 -77 -97 -101 -126 -52 -61 -186 -294 -233 -405 -110 -260 -141 -564 -128
-1257 9 -513 10 -544 24 -843 7 -137 11 -251 8 -253 -4 -4 -143 346 -193 486
-142 399 -162 649 -93 1190 11 85 24 211 29 280 5 69 16 143 24 165 8 22 15
62 16 88 0 57 -19 71 -54 38 -18 -17 -25 -40 -35 -118 -7 -52 -26 -159 -42
-237 -51 -243 -71 -806 -35 -1006 34 -193 96 -393 208 -675 22 -55 49 -122 59
-150 l19 -50 -50 55 c-97 106 -270 378 -305 478 -15 42 -44 124 -65 182 -103
284 -114 359 -114 770 -1 529 15 600 224 1022 167 336 248 450 425 593 52 43
95 81 95 85 0 14 228 170 314 216 85 45 250 104 292 104 14 0 75 13 137 29
143 38 143 38 265 40 70 1 136 -6 205 -20z"/>
</g>
</svg>
