<svg version="1.1" viewBox="0.0 0.0 359.6036745406824 583.8635170603675" fill="none" stroke="none" stroke-linecap="square" stroke-miterlimit="10" xmlns:xlink="http://www.w3.org/1999/xlink" xmlns="http://www.w3.org/2000/svg"><clipPath id="p.0"><path d="m0 0l359.60367 0l0 583.8635l-359.60367 0l0 -583.8635z" clip-rule="nonzero"/></clipPath><g clip-path="url(#p.0)"><path fill="#000000" fill-opacity="0.0" d="m0 0l359.60367 0l0 583.8635l-359.60367 0z" fill-rule="evenodd"/><path fill="#cfe2f3" d="m228.74971 320.14972c1.6664124 4.4529724 7.7440186 20.734436 9.99855 26.717926c2.2545319 5.98349 1.6863098 7.6132812 3.5286713 9.182953c1.8423615 1.5696411 4.977646 1.4121094 7.525467 0.23495483c2.5478363 -1.177185 7.722809 -2.7468567 7.761505 -7.298065c0.03869629 -4.5512085 -5.49057 -14.241699 -7.5294037 -20.009247c-2.0388336 -5.7675476 -3.9196472 -12.163422 -4.703583 -14.5961" fill-rule="evenodd"/><path stroke="#000000" stroke-width="2.0" stroke-linejoin="round" stroke-linecap="butt" d="m228.74971 320.14972c1.6664124 4.4529724 7.7440186 20.734436 9.99855 26.717926c2.2545319 5.98349 1.6863098 7.6132812 3.5286713 9.182953c1.8423615 1.5696411 4.977646 1.4121094 7.525467 0.23495483c2.5478363 -1.177185 7.722809 -2.7468567 7.761505 -7.298065c0.03869629 -4.5512085 -5.49057 -14.241699 -7.5294037 -20.009247c-2.0388336 -5.7675476 -3.9196472 -12.163422 -4.703583 -14.5961" fill-rule="evenodd"/><path fill="#cfe2f3" d="m216.8683 288.25165c1.7639008 4.7476807 8.172592 22.188385 10.583389 28.486023c2.410797 6.297638 2.0390472 7.7301025 3.8814087 9.299744c1.8423615 1.5696716 4.6443634 1.2953186 7.1727295 0.118133545c2.5283813 -1.177185 9.291336 -0.11834717 7.9975433 -7.1812134c-1.293808 -7.062866 -11.173904 -27.799744 -15.760345 -35.196014c-4.586441 -7.3962708 -9.798584 -7.651367 -11.758301 -9.181641" fill-rule="evenodd"/><path stroke="#000000" stroke-width="2.0" stroke-linejoin="round" stroke-linecap="butt" d="m216.8683 288.25165c1.7639008 4.7476807 8.172592 22.188385 10.583389 28.486023c2.410797 6.297638 2.0390472 7.7301025 3.8814087 9.299744c1.8423615 1.5696716 4.6443634 1.2953186 7.1727295 0.118133545c2.5283813 -1.177185 9.291336 -0.11834717 7.9975433 -7.1812134c-1.293808 -7.062866 -11.173904 -27.799744 -15.760345 -35.196014c-4.586441 -7.3962708 -9.798584 -7.651367 -11.758301 -9.181641" fill-rule="evenodd"/><path fill="#cfe2f3" d="m256.03305 343.3379c1.2002563 1.7761841 5.3338623 7.476349 7.201599 10.657013c1.8677063 3.1806335 3.670929 5.7660217 4.0046387 8.42688c0.33374023 2.6608582 -0.70458984 5.6166077 -2.0023193 7.5382385c-1.2977295 1.9216614 -3.4849548 3.585144 -5.784088 3.9916077c-2.2991028 0.40646362 -6.22554 -0.5510559 -8.010635 -1.5527954c-1.7851105 -1.0017395 -2.0539246 -2.9888 -2.6999512 -4.4575806c-0.6460266 -1.468811 -0.72535706 -4.3355103 -1.1762238 -4.355194c-0.45085144 -0.019714355 -0.7657776 3.2117004 -1.5289459 4.2370605c-0.76316833 1.0253601 -2.0113068 1.7973938 -3.050064 1.9150696c-1.0387573 0.1177063 -2.7696533 0.3069458 -3.1824799 -1.2088928c-0.4128418 -1.5158386 0.5487671 -5.512268 0.7054596 -7.8861084c0.15670776 -2.3738098 0.43077087 -4.3164673 0.23472595 -6.356903c-0.19602966 -2.0404358 -1.1757812 -4.9047546 -1.4109497 -5.885681" fill-rule="evenodd"/><path stroke="#000000" stroke-width="2.0" stroke-linejoin="round" stroke-linecap="butt" d="m256.03305 343.3379c1.2002563 1.7761841 5.3338623 7.476349 7.201599 10.657013c1.8677063 3.1806335 3.670929 5.7660217 4.0046387 8.42688c0.33374023 2.6608582 -0.70458984 5.6166077 -2.0023193 7.5382385c-1.2977295 1.9216614 -3.4849548 3.585144 -5.784088 3.9916077c-2.2991028 0.40646362 -6.22554 -0.5510559 -8.010635 -1.5527954c-1.7851105 -1.0017395 -2.0539246 -2.9888 -2.6999512 -4.4575806c-0.6460266 -1.468811 -0.72535706 -4.3355103 -1.1762238 -4.355194c-0.45085144 -0.019714355 -0.7657776 3.2117004 -1.5289459 4.2370605c-0.76316833 1.0253601 -2.0113068 1.7973938 -3.050064 1.9150696c-1.0387573 0.1177063 -2.7696533 0.3069458 -3.1824799 -1.2088928c-0.4128418 -1.5158386 0.5487671 -5.512268 0.7054596 -7.8861084c0.15670776 -2.3738098 0.43077087 -4.3164673 0.23472595 -6.356903c-0.19602966 -2.0404358 -1.1757812 -4.9047546 -1.4109497 -5.885681" fill-rule="evenodd"/><path fill="#cfe2f3" d="m217.0881 269.2687c-0.54855347 -1.7879944 -0.07714844 -4.270752 -0.70414734 -5.3632812c-0.62701416 -1.0925293 -0.27471924 -1.1124268 -3.0579224 -1.1918335c-2.7832031 -0.07940674 -11.01503 -0.27804565 -13.641312 0.71536255c-2.6262817 0.9934082 -1.4109497 3.6956177 -2.1164093 5.2451477c-0.70547485 1.54953 -1.0188751 2.7011108 -2.1164246 4.0519714c-1.0975494 1.3508911 -2.9790192 3.1791382 -4.468857 4.053314c-1.4898376 0.87420654 -3.254837 0.43688965 -4.4701843 1.1918335c-1.215332 0.75497437 -2.508484 1.3907166 -2.8218842 3.3379517c-0.31340027 1.9472351 0.43185425 3.6168518 0.9414978 8.3454895c0.5096588 4.7286377 1.4500732 14.979828 2.1164246 20.026306c0.6663513 5.046509 1.9992676 6.199402 1.8816986 10.252716c-0.11758423 4.053314 -0.9799652 9.060211 -2.5871735 14.067108c-1.607193 5.0069275 -5.3802032 11.699432 -7.0560303 15.974335c-1.675827 4.2749023 -3.3221436 7.3857727 -2.9989166 9.675171c0.3232422 2.2893982 -1.0103455 3.2497559 4.9383087 4.0611877c5.948654 0.81140137 21.276932 0.513855 30.753601 0.80722046c9.476654 0.29336548 20.853806 1.4298706 26.106384 0.9529724c5.2525787 -0.4769287 4.507553 -1.2714844 5.4090576 -3.8144226c0.9015045 -2.5429382 0.47032166 -7.151703 0 -11.443237c-0.4703064 -4.2915344 -1.900711 -10.014252 -2.8218842 -14.306c-0.92118835 -4.2917786 -1.9798279 -6.7555237 -2.705185 -11.44455c-0.72535706 -4.6890564 -1.078537 -11.205872 -1.6469727 -16.689697c-0.5684509 -5.4838257 -0.6464691 -11.921661 -1.7636871 -16.213226c-1.117218 -4.2915344 -2.50914 -6.714813 -4.9396057 -9.536011c-2.430481 -2.821228 -7.6048126 -5.265259 -9.643204 -7.3912354c-2.038391 -2.1259766 -2.0386047 -3.5766296 -2.5871735 -5.3645935z" fill-rule="evenodd"/><path stroke="#000000" stroke-width="2.0" stroke-linejoin="round" stroke-linecap="butt" d="m217.0881 269.2687c-0.54855347 -1.7879944 -0.07714844 -4.270752 -0.70414734 -5.3632812c-0.62701416 -1.0925293 -0.27471924 -1.1124268 -3.0579224 -1.1918335c-2.7832031 -0.07940674 -11.01503 -0.27804565 -13.641312 0.71536255c-2.6262817 0.9934082 -1.4109497 3.6956177 -2.1164093 5.2451477c-0.70547485 1.54953 -1.0188751 2.7011108 -2.1164246 4.0519714c-1.0975494 1.3508911 -2.9790192 3.1791382 -4.468857 4.053314c-1.4898376 0.87420654 -3.254837 0.43688965 -4.4701843 1.1918335c-1.215332 0.75497437 -2.508484 1.3907166 -2.8218842 3.3379517c-0.31340027 1.9472351 0.43185425 3.6168518 0.9414978 8.3454895c0.5096588 4.7286377 1.4500732 14.979828 2.1164246 20.026306c0.6663513 5.046509 1.9992676 6.199402 1.8816986 10.252716c-0.11758423 4.053314 -0.9799652 9.060211 -2.5871735 14.067108c-1.607193 5.0069275 -5.3802032 11.699432 -7.0560303 15.974335c-1.675827 4.2749023 -3.3221436 7.3857727 -2.9989166 9.675171c0.3232422 2.2893982 -1.0103455 3.2497559 4.9383087 4.0611877c5.948654 0.81140137 21.276932 0.513855 30.753601 0.80722046c9.476654 0.29336548 20.853806 1.4298706 26.106384 0.9529724c5.2525787 -0.4769287 4.507553 -1.2714844 5.4090576 -3.8144226c0.9015045 -2.5429382 0.47032166 -7.151703 0 -11.443237c-0.4703064 -4.2915344 -1.900711 -10.014252 -2.8218842 -14.306c-0.92118835 -4.2917786 -1.9798279 -6.7555237 -2.705185 -11.44455c-0.72535706 -4.6890564 -1.078537 -11.205872 -1.6469727 -16.689697c-0.5684509 -5.4838257 -0.6464691 -11.921661 -1.7636871 -16.213226c-1.117218 -4.2915344 -2.50914 -6.714813 -4.9396057 -9.536011c-2.430481 -2.821228 -7.6048126 -5.265259 -9.643204 -7.3912354c-2.038391 -2.1259766 -2.0386047 -3.5766296 -2.5871735 -5.3645935z" fill-rule="evenodd"/><path fill="#cfe2f3" d="m278.69345 214.71277c0.39230347 -2.118454 1.4907532 -1.0199738 1.8830872 -5.6492157c0.39233398 -4.629242 0.9416199 -15.221603 0.4708557 -22.126236c-0.47073364 -6.904648 -1.2554016 -12.710785 -3.2954102 -19.301575c-2.039978 -6.59079 -5.7276917 -14.829315 -8.944611 -20.24318c-3.216919 -5.413864 -5.0215454 -8.081558 -10.356964 -12.240021c-5.3354034 -4.158478 -15.378555 -9.886162 -21.655502 -12.71077c-6.276947 -2.8246078 -10.984619 -3.3737946 -16.006165 -4.2368774c-5.0215454 -0.86307526 -9.729248 -0.78466797 -14.123093 -0.941597c-4.39386 -0.15693665 -7.846176 -0.47077942 -12.240036 0c-4.3938446 0.47077942 -9.258453 1.2554245 -14.123093 2.824669c-4.8646393 1.569252 -10.592361 4.236969 -15.064697 6.5908127c-4.472336 2.353859 -7.6892853 3.6876602 -11.769287 7.53228c-4.080017 3.8446198 -9.493835 9.807724 -12.71077 15.535446c-3.216919 5.727707 -5.1784973 12.396973 -6.590805 18.830826c-1.412323 6.4338684 -1.9615479 13.26001 -1.8830719 19.772324c0.07847595 6.512314 1.3339233 14.044632 2.3539276 19.301575c1.0200195 5.2569275 1.8046265 7.1399994 3.7661438 12.240021c1.9615326 5.1000214 4.629181 12.710861 8.003021 18.360107c3.3738403 5.649231 6.433853 11.376831 12.240021 15.535294c5.8061676 4.158478 15.3785095 7.296997 22.596985 9.415497c7.2184906 2.1184692 11.847733 2.9031067 20.713913 3.2954102c8.86618 0.39230347 23.303177 -6.1035156E-5 32.4832 -0.9416199c9.180038 -0.9415283 16.398514 -2.275299 22.596985 -4.707611c6.198456 -2.432312 10.906128 -5.9631195 14.593842 -9.886215c3.687683 -3.9230957 6.4339294 -9.807739 7.5324097 -13.652359c1.0984497 -3.8446198 -0.78466797 -6.826111 -0.9416199 -9.4153595c-0.15692139 -2.5892334 -0.078430176 -3.9231415 0 -6.1200714c0.07846069 -2.1969452 0.07846069 -4.9430847 0.47073364 -7.061554z" fill-rule="evenodd"/><path stroke="#000000" stroke-width="2.0" stroke-linejoin="round" stroke-linecap="butt" d="m278.69345 214.71277c0.39230347 -2.118454 1.4907532 -1.0199738 1.8830872 -5.6492157c0.39233398 -4.629242 0.9416199 -15.221603 0.4708557 -22.126236c-0.47073364 -6.904648 -1.2554016 -12.710785 -3.2954102 -19.301575c-2.039978 -6.59079 -5.7276917 -14.829315 -8.944611 -20.24318c-3.216919 -5.413864 -5.0215454 -8.081558 -10.356964 -12.240021c-5.3354034 -4.158478 -15.378555 -9.886162 -21.655502 -12.71077c-6.276947 -2.8246078 -10.984619 -3.3737946 -16.006165 -4.2368774c-5.0215454 -0.86307526 -9.729248 -0.78466797 -14.123093 -0.941597c-4.39386 -0.15693665 -7.846176 -0.47077942 -12.240036 0c-4.3938446 0.47077942 -9.258453 1.2554245 -14.123093 2.824669c-4.8646393 1.569252 -10.592361 4.236969 -15.064697 6.5908127c-4.472336 2.353859 -7.6892853 3.6876602 -11.769287 7.53228c-4.080017 3.8446198 -9.493835 9.807724 -12.71077 15.535446c-3.216919 5.727707 -5.1784973 12.396973 -6.590805 18.830826c-1.412323 6.4338684 -1.9615479 13.26001 -1.8830719 19.772324c0.07847595 6.512314 1.3339233 14.044632 2.3539276 19.301575c1.0200195 5.2569275 1.8046265 7.1399994 3.7661438 12.240021c1.9615326 5.1000214 4.629181 12.710861 8.003021 18.360107c3.3738403 5.649231 6.433853 11.376831 12.240021 15.535294c5.8061676 4.158478 15.3785095 7.296997 22.596985 9.415497c7.2184906 2.1184692 11.847733 2.9031067 20.713913 3.2954102c8.86618 0.39230347 23.303177 -6.1035156E-5 32.4832 -0.9416199c9.180038 -0.9415283 16.398514 -2.275299 22.596985 -4.707611c6.198456 -2.432312 10.906128 -5.9631195 14.593842 -9.886215c3.687683 -3.9230957 6.4339294 -9.807739 7.5324097 -13.652359c1.0984497 -3.8446198 -0.78466797 -6.826111 -0.9416199 -9.4153595c-0.15692139 -2.5892334 -0.078430176 -3.9231415 0 -6.1200714c0.07846069 -2.1969452 0.07846069 -4.9430847 0.47073364 -7.061554z" fill-rule="evenodd"/><path fill="#cfe2f3" d="m142.2939 222.22008c-0.862381 -0.6670227 -3.5277863 -3.4527893 -5.1743317 -4.002121c-1.6465454 -0.5493164 -3.4895477 -0.11790466 -4.704895 0.70617676c-1.2153473 0.8240967 -1.9992676 2.7472687 -2.5871735 4.238388c-0.5878906 1.4911041 -1.4498444 2.5501556 -0.94018555 4.7082825c0.5096588 2.158142 2.743866 6.082367 3.998108 8.240494c1.254242 2.158142 2.0770874 3.2171783 3.527359 4.7082977c1.4502869 1.4911041 2.939911 3.4928284 5.1743317 4.238373c2.234436 0.7455597 6.4681396 0.7845001 8.232254 0.23495483c1.7641296 -0.54953 1.9603729 -2.9434967 2.3524475 -3.532196" fill-rule="evenodd"/><path stroke="#000000" stroke-width="2.0" stroke-linejoin="round" stroke-linecap="butt" d="m142.2939 222.22008c-0.862381 -0.6670227 -3.5277863 -3.4527893 -5.1743317 -4.002121c-1.6465454 -0.5493164 -3.4895477 -0.11790466 -4.704895 0.70617676c-1.2153473 0.8240967 -1.9992676 2.7472687 -2.5871735 4.238388c-0.5878906 1.4911041 -1.4498444 2.5501556 -0.94018555 4.7082825c0.5096588 2.158142 2.743866 6.082367 3.998108 8.240494c1.254242 2.158142 2.0770874 3.2171783 3.527359 4.7082977c1.4502869 1.4911041 2.939911 3.4928284 5.1743317 4.238373c2.234436 0.7455597 6.4681396 0.7845001 8.232254 0.23495483c1.7641296 -0.54953 1.9603729 -2.9434967 2.3524475 -3.532196" fill-rule="evenodd"/><path fill="#cfe2f3" d="m135.74968 231.18271c-0.27450562 -0.31391907 -1.6076355 -0.86346436 -1.6469727 -1.8835754c-0.03933716 -1.0201111 0.705246 -3.7662811 1.4109344 -4.2370605c0.7056885 -0.47079468 1.4120331 0.078308105 2.8231964 1.4123535c1.4111633 1.3340302 4.5855713 4.5514374 5.6437836 6.591873c1.0582123 2.0404205 0.5878906 4.7089386 0.70547485 5.6507263" fill-rule="evenodd"/><path stroke="#000000" stroke-width="2.0" stroke-linejoin="round" stroke-linecap="butt" d="m135.74968 231.18271c-0.27450562 -0.31391907 -1.6076355 -0.86346436 -1.6469727 -1.8835754c-0.03933716 -1.0201111 0.705246 -3.7662811 1.4109344 -4.2370605c0.7056885 -0.47079468 1.4120331 0.078308105 2.8231964 1.4123535c1.4111633 1.3340302 4.5855713 4.5514374 5.6437836 6.591873c1.0582123 2.0404205 0.5878906 4.7089386 0.70547485 5.6507263" fill-rule="evenodd"/><path fill="#cfe2f3" d="m194.05916 289.5504c-1.7639008 4.74765 -8.172592 22.188385 -10.583389 28.485992c-2.410797 6.297638 -2.0390472 7.730133 -3.8814087 9.299774c-1.8423615 1.5696411 -4.644348 1.2953186 -7.1727295 0.118133545c-2.5283813 -1.177185 -9.291336 -0.11834717 -7.9975433 -7.181244c1.293808 -7.062866 11.17392 -27.799713 15.760361 -35.196014c4.586441 -7.3962708 9.798584 -7.6513367 11.758301 -9.18161" fill-rule="evenodd"/><path stroke="#000000" stroke-width="2.0" stroke-linejoin="round" stroke-linecap="butt" d="m194.05916 289.5504c-1.7639008 4.74765 -8.172592 22.188385 -10.583389 28.485992c-2.410797 6.297638 -2.0390472 7.730133 -3.8814087 9.299774c-1.8423615 1.5696411 -4.644348 1.2953186 -7.1727295 0.118133545c-2.5283813 -1.177185 -9.291336 -0.11834717 -7.9975433 -7.181244c1.293808 -7.062866 11.17392 -27.799713 15.760361 -35.196014c4.586441 -7.3962708 9.798584 -7.6513367 11.758301 -9.18161" fill-rule="evenodd"/><path fill="#cfe2f3" d="m154.8768 344.63666c-1.2002563 1.7761536 -5.3338776 7.476349 -7.201584 10.656982c-1.8677063 3.1806335 -3.6709442 5.7660217 -4.004669 8.42688c-0.33370972 2.6608582 0.7046051 5.6166077 2.0023346 7.538269c1.2977448 1.9216309 3.48497 3.585144 5.784088 3.9916077c2.299118 0.40646362 6.2255554 -0.5510864 8.010651 -1.5528259c1.7850952 -1.001709 2.0539093 -2.9887695 2.699936 -4.4575806c0.6460266 -1.4687805 0.72535706 -4.3355103 1.1762238 -4.355194c0.4508667 -0.019683838 0.76579285 3.2117004 1.5289612 4.2370605c0.76316833 1.0253601 2.0112915 1.7973938 3.0500488 1.9151001c1.0387573 0.11767578 2.7696533 0.30691528 3.182495 -1.2089233c0.41282654 -1.5158386 -0.54878235 -5.5122375 -0.70547485 -7.886078c-0.1566925 -2.3738403 -0.43075562 -4.316498 -0.23472595 -6.3569336c0.19604492 -2.0404053 1.1757965 -4.904724 1.4109497 -5.885681" fill-rule="evenodd"/><path stroke="#000000" stroke-width="2.0" stroke-linejoin="round" stroke-linecap="butt" d="m154.8768 344.63666c-1.2002563 1.7761536 -5.3338776 7.476349 -7.201584 10.656982c-1.8677063 3.1806335 -3.6709442 5.7660217 -4.004669 8.42688c-0.33370972 2.6608582 0.7046051 5.6166077 2.0023346 7.538269c1.2977448 1.9216309 3.48497 3.585144 5.784088 3.9916077c2.299118 0.40646362 6.2255554 -0.5510864 8.010651 -1.5528259c1.7850952 -1.001709 2.0539093 -2.9887695 2.699936 -4.4575806c0.6460266 -1.4687805 0.72535706 -4.3355103 1.1762238 -4.355194c0.4508667 -0.019683838 0.76579285 3.2117004 1.5289612 4.2370605c0.76316833 1.0253601 2.0112915 1.7973938 3.0500488 1.9151001c1.0387573 0.11767578 2.7696533 0.30691528 3.182495 -1.2089233c0.41282654 -1.5158386 -0.54878235 -5.5122375 -0.70547485 -7.886078c-0.1566925 -2.3738403 -0.43075562 -4.316498 -0.23472595 -6.3569336c0.19604492 -2.0404053 1.1757965 -4.904724 1.4109497 -5.885681" fill-rule="evenodd"/><path fill="#cfe2f3" d="m177.87451 352.68765c-0.22877502 0.7187195 -1.1854706 2.6351929 -1.3726959 4.3123474c-0.18722534 1.6771545 -1.708664 4.1671143 0.24934387 5.7506714c1.9580078 1.5835266 5.915573 2.9588623 11.498688 3.7506409c5.5831146 0.79177856 14.291336 0.8753357 22.0 1.0c7.708664 0.12466431 18.668411 0.20648193 24.251968 -0.25198364c5.583542 -0.45843506 7.718277 -1.0822144 9.249344 -2.4986572c1.5310516 -1.4164734 -0.021438599 -4.2917786 -0.06300354 -6.0c-0.041549683 -1.708252 -0.1552887 -3.5411377 -0.18634033 -4.249359" fill-rule="evenodd"/><path stroke="#000000" stroke-width="2.0" stroke-linejoin="round" stroke-linecap="butt" d="m177.87451 352.68765c-0.22877502 0.7187195 -1.1854706 2.6351929 -1.3726959 4.3123474c-0.18722534 1.6771545 -1.708664 4.1671143 0.24934387 5.7506714c1.9580078 1.5835266 5.915573 2.9588623 11.498688 3.7506409c5.5831146 0.79177856 14.291336 0.8753357 22.0 1.0c7.708664 0.12466431 18.668411 0.20648193 24.251968 -0.25198364c5.583542 -0.45843506 7.718277 -1.0822144 9.249344 -2.4986572c1.5310516 -1.4164734 -0.021438599 -4.2917786 -0.06300354 -6.0c-0.041549683 -1.708252 -0.1552887 -3.5411377 -0.18634033 -4.249359" fill-rule="evenodd"/><path fill="#cfe2f3" d="m175.98787 358.6453c-0.12741089 3.7080994 -0.5194855 15.322845 -0.7644806 22.248566c-0.24499512 6.9256897 -0.39186096 13.184387 -0.70547485 19.305695c-0.3136139 6.121277 -1.5289612 13.733704 -1.1762238 17.42212c0.35273743 3.688385 1.6069794 3.6096191 3.292633 4.7082825c1.685669 1.0986328 3.9205322 1.4911194 6.8213196 1.8835754c2.9007874 0.39245605 7.721939 0.6282959 10.583389 0.47122192c2.8614502 -0.15707397 4.860504 -0.5895691 6.5852814 -1.4136658c1.7247772 -0.8240967 2.901001 -1.9223022 3.763382 -3.5308838c0.86239624 -1.6086121 0.47010803 0.7855835 1.4109497 -6.1206665c0.9408417 -6.9062195 3.254181 -26.684021 4.234146 -35.316772c0.9799652 -8.632721 1.3713837 -13.733063 1.6456604 -16.479675" fill-rule="evenodd"/><path stroke="#000000" stroke-width="2.0" stroke-linejoin="round" stroke-linecap="butt" d="m175.98787 358.6453c-0.12741089 3.7080994 -0.5194855 15.322845 -0.7644806 22.248566c-0.24499512 6.9256897 -0.39186096 13.184387 -0.70547485 19.305695c-0.3136139 6.121277 -1.5289612 13.733704 -1.1762238 17.42212c0.35273743 3.688385 1.6069794 3.6096191 3.292633 4.7082825c1.685669 1.0986328 3.9205322 1.4911194 6.8213196 1.8835754c2.9007874 0.39245605 7.721939 0.6282959 10.583389 0.47122192c2.8614502 -0.15707397 4.860504 -0.5895691 6.5852814 -1.4136658c1.7247772 -0.8240967 2.901001 -1.9223022 3.763382 -3.5308838c0.86239624 -1.6086121 0.47010803 0.7855835 1.4109497 -6.1206665c0.9408417 -6.9062195 3.254181 -26.684021 4.234146 -35.316772c0.9799652 -8.632721 1.3713837 -13.733063 1.6456604 -16.479675" fill-rule="evenodd"/><path fill="#cfe2f3" d="m173.34267 413.37918c-0.2351532 2.0795898 -1.1364441 7.2588806 -1.4109344 12.47757c-0.27450562 5.2186584 -0.2557068 12.928864 -0.23603821 18.834473c0.01966858 5.9055786 0.079559326 12.94986 0.35404968 16.599121c0.27449036 3.649231 0.13659668 4.0996704 1.292923 5.2963257c1.1563416 1.1966553 2.3131104 1.4519348 5.645096 1.8835754c3.3319702 0.4316101 11.054138 1.1377869 14.346771 0.70617676c3.2926483 -0.43164062 4.311508 -1.6871338 5.4090576 -3.295929c1.0975494 -1.6088257 0.9801941 -4.0025635 1.1762238 -6.3569336c0.19604492 -2.3543396 -0.35273743 -4.1593933 0 -7.7692566c0.35273743 -3.6098633 1.332489 -8.828308 2.1164246 -13.889923c0.7839203 -5.0615845 1.999054 -12.595032 2.5871582 -16.479675c0.5881195 -3.884613 0.7845917 -5.690094 0.94151306 -6.828125" fill-rule="evenodd"/><path stroke="#000000" stroke-width="2.0" stroke-linejoin="round" stroke-linecap="butt" d="m173.34267 413.37918c-0.2351532 2.0795898 -1.1364441 7.2588806 -1.4109344 12.47757c-0.27450562 5.2186584 -0.2557068 12.928864 -0.23603821 18.834473c0.01966858 5.9055786 0.079559326 12.94986 0.35404968 16.599121c0.27449036 3.649231 0.13659668 4.0996704 1.292923 5.2963257c1.1563416 1.1966553 2.3131104 1.4519348 5.645096 1.8835754c3.3319702 0.4316101 11.054138 1.1377869 14.346771 0.70617676c3.2926483 -0.43164062 4.311508 -1.6871338 5.4090576 -3.295929c1.0975494 -1.6088257 0.9801941 -4.0025635 1.1762238 -6.3569336c0.19604492 -2.3543396 -0.35273743 -4.1593933 0 -7.7692566c0.35273743 -3.6098633 1.332489 -8.828308 2.1164246 -13.889923c0.7839203 -5.0615845 1.999054 -12.595032 2.5871582 -16.479675c0.5881195 -3.884613 0.7845917 -5.690094 0.94151306 -6.828125" fill-rule="evenodd"/><path fill="#cfe2f3" d="m182.16016 321.44846c-1.6664276 4.453003 -7.7440186 20.734467 -9.998566 26.717926c-2.2545319 5.98349 -1.6863098 7.613312 -3.528656 9.182953c-1.8423615 1.5696411 -4.977646 1.4121399 -7.525482 0.23495483c-2.547821 -1.177185 -7.722809 -2.7468262 -7.761505 -7.2980347c-0.03868103 -4.551239 5.4905853 -14.241699 7.5294037 -20.009277c2.0388336 -5.7675476 3.9196625 -12.163391 4.703598 -14.596069" fill-rule="evenodd"/><path stroke="#000000" stroke-width="2.0" stroke-linejoin="round" stroke-linecap="butt" d="m182.16016 321.44846c-1.6664276 4.453003 -7.7440186 20.734467 -9.998566 26.717926c-2.2545319 5.98349 -1.6863098 7.613312 -3.528656 9.182953c-1.8423615 1.5696411 -4.977646 1.4121399 -7.525482 0.23495483c-2.547821 -1.177185 -7.722809 -2.7468262 -7.761505 -7.2980347c-0.03868103 -4.551239 5.4905853 -14.241699 7.5294037 -20.009277c2.0388336 -5.7675476 3.9196625 -12.163391 4.703598 -14.596069" fill-rule="evenodd"/><path fill="#cfe2f3" d="m171.93114 459.4044c0.058792114 1.0004272 -0.27449036 3.7072144 0.35273743 6.002533c0.6272278 2.295288 2.019165 5.728821 3.4106598 7.7692566c1.3914948 2.0404358 3.3311005 3.4138489 4.9382935 4.4733276c1.6072083 1.0595093 2.35289 1.4911194 4.704895 1.883606c2.3520203 0.39245605 6.898468 0.510376 9.407166 0.47122192c2.5087128 -0.03918457 4.390625 -0.23519897 5.645096 -0.70617676c1.2544556 -0.4710083 1.7641144 -1.138916 1.8816986 -2.119873c0.11756897 -0.9809265 -0.70570374 -1.7256165 -1.1762238 -3.7658386c-0.47053528 -2.0402222 -1.450943 -6.2387695 -1.6469879 -8.475433c-0.19602966 -2.2366638 0.39230347 -4.1204834 0.47076416 -4.94458" fill-rule="evenodd"/><path stroke="#000000" stroke-width="2.0" stroke-linejoin="round" stroke-linecap="butt" d="m171.93114 459.4044c0.058792114 1.0004272 -0.27449036 3.7072144 0.35273743 6.002533c0.6272278 2.295288 2.019165 5.728821 3.4106598 7.7692566c1.3914948 2.0404358 3.3311005 3.4138489 4.9382935 4.4733276c1.6072083 1.0595093 2.35289 1.4911194 4.704895 1.883606c2.3520203 0.39245605 6.898468 0.510376 9.407166 0.47122192c2.5087128 -0.03918457 4.390625 -0.23519897 5.645096 -0.70617676c1.2544556 -0.4710083 1.7641144 -1.138916 1.8816986 -2.119873c0.11756897 -0.9809265 -0.70570374 -1.7256165 -1.1762238 -3.7658386c-0.47053528 -2.0402222 -1.450943 -6.2387695 -1.6469879 -8.475433c-0.19602966 -2.2366638 0.39230347 -4.1204834 0.47076416 -4.94458" fill-rule="evenodd"/><path fill="#cfe2f3" d="m209.80183 359.58652c0.30749512 3.736969 1.0536194 15.501556 1.844986 22.421783c0.7913513 6.9202576 2.0707397 13.026886 2.903183 19.09964c0.83244324 6.0727234 1.0575562 13.778778 2.091507 17.336792c1.0339508 3.558014 2.25148 3.2464905 4.1121826 4.0112915c1.8607178 0.764801 4.1290283 0.7335205 7.052109 0.57754517c2.9230652 -0.15597534 7.704239 -0.82473755 10.486343 -1.5134277c2.7821198 -0.68865967 4.665344 -1.4869385 6.206314 -2.6186218c1.5409851 -1.1316833 2.4918823 -2.4300537 3.039566 -4.1714478c0.5476837 -1.7413635 0.60887146 0.68408203 0.246521 -6.276825c-0.36235046 -6.9609375 -1.7346039 -26.951813 -2.4206238 -35.48874c-0.68603516 -8.536926 -1.4129181 -13.110657 -1.6954956 -15.732788" fill-rule="evenodd"/><path stroke="#000000" stroke-width="2.0" stroke-linejoin="round" stroke-linecap="butt" d="m209.80183 359.58652c0.30749512 3.736969 1.0536194 15.501556 1.844986 22.421783c0.7913513 6.9202576 2.0707397 13.026886 2.903183 19.09964c0.83244324 6.0727234 1.0575562 13.778778 2.091507 17.336792c1.0339508 3.558014 2.25148 3.2464905 4.1121826 4.0112915c1.8607178 0.764801 4.1290283 0.7335205 7.052109 0.57754517c2.9230652 -0.15597534 7.704239 -0.82473755 10.486343 -1.5134277c2.7821198 -0.68865967 4.665344 -1.4869385 6.206314 -2.6186218c1.5409851 -1.1316833 2.4918823 -2.4300537 3.039566 -4.1714478c0.5476837 -1.7413635 0.60887146 0.68408203 0.246521 -6.276825c-0.36235046 -6.9609375 -1.7346039 -26.951813 -2.4206238 -35.48874c-0.68603516 -8.536926 -1.4129181 -13.110657 -1.6954956 -15.732788" fill-rule="evenodd"/><path fill="#cfe2f3" d="m215.84416 414.27484c0.15649414 2.086914 0.23612976 7.343384 0.9389801 12.521484c0.70285034 5.1781006 2.1582031 12.749115 3.278122 18.54712c1.1199036 5.798004 2.4915314 12.707153 3.44133 16.240936c0.9497986 3.5337524 0.89823914 4.002014 2.2574615 4.96167c1.3592072 0.95965576 2.5434113 0.9944458 5.897812 0.7962036c3.3543854 -0.19821167 11.073685 -0.9465637 14.228546 -1.9854736c3.1548615 -1.0389404 3.9220123 -2.462616 4.7006226 -4.2480774c0.7786102 -1.7854614 0.2171936 -4.1151733 -0.028945923 -6.4647217c-0.24613953 -2.3495483 -1.1217499 -4.020355 -1.4479065 -7.6325684c-0.32614136 -3.6122131 -0.33598328 -8.921814 -0.5090027 -14.040741c-0.17300415 -5.118927 -0.3829956 -12.746735 -0.52908325 -16.672821c-0.14607239 -3.926117 -0.289505 -5.736511 -0.34739685 -6.8838196" fill-rule="evenodd"/><path stroke="#000000" stroke-width="2.0" stroke-linejoin="round" stroke-linecap="butt" d="m215.84416 414.27484c0.15649414 2.086914 0.23612976 7.343384 0.9389801 12.521484c0.70285034 5.1781006 2.1582031 12.749115 3.278122 18.54712c1.1199036 5.798004 2.4915314 12.707153 3.44133 16.240936c0.9497986 3.5337524 0.89823914 4.002014 2.2574615 4.96167c1.3592072 0.95965576 2.5434113 0.9944458 5.897812 0.7962036c3.3543854 -0.19821167 11.073685 -0.9465637 14.228546 -1.9854736c3.1548615 -1.0389404 3.9220123 -2.462616 4.7006226 -4.2480774c0.7786102 -1.7854614 0.2171936 -4.1151733 -0.028945923 -6.4647217c-0.24613953 -2.3495483 -1.1217499 -4.020355 -1.4479065 -7.6325684c-0.32614136 -3.6122131 -0.33598328 -8.921814 -0.5090027 -14.040741c-0.17300415 -5.118927 -0.3829956 -12.746735 -0.52908325 -16.672821c-0.14607239 -3.926117 -0.289505 -5.736511 -0.34739685 -6.8838196" fill-rule="evenodd"/><path fill="#cfe2f3" d="m223.02637 459.75754c0.24420166 0.9718323 0.4211731 3.6932373 1.4652405 5.831024c1.0440674 2.1377563 3.0516357 5.250946 4.799164 6.9956055c1.7475281 1.74469 3.909317 2.73172 5.685974 3.472412c1.7766571 0.74069214 2.589798 1.0254822 4.973984 0.97180176c2.384201 -0.05368042 6.873459 -0.78689575 9.331177 -1.2938538c2.457718 -0.5069885 4.27034 -1.0509949 5.4151764 -1.7479858c1.1448364 -0.69696045 1.5211487 -1.4483032 1.4538574 -2.4339294c-0.06726074 -0.98565674 -1.0149841 -1.5634766 -1.857544 -3.4799194c-0.8425598 -1.9164429 -2.5883484 -5.8580627 -3.1977997 -8.018738c-0.6094513 -2.1607056 -0.3824463 -4.121216 -0.45892334 -4.945465" fill-rule="evenodd"/><path stroke="#000000" stroke-width="2.0" stroke-linejoin="round" stroke-linecap="butt" d="m223.02637 459.75754c0.24420166 0.9718323 0.4211731 3.6932373 1.4652405 5.831024c1.0440674 2.1377563 3.0516357 5.250946 4.799164 6.9956055c1.7475281 1.74469 3.909317 2.73172 5.685974 3.472412c1.7766571 0.74069214 2.589798 1.0254822 4.973984 0.97180176c2.384201 -0.05368042 6.873459 -0.78689575 9.331177 -1.2938538c2.457718 -0.5069885 4.27034 -1.0509949 5.4151764 -1.7479858c1.1448364 -0.69696045 1.5211487 -1.4483032 1.4538574 -2.4339294c-0.06726074 -0.98565674 -1.0149841 -1.5634766 -1.857544 -3.4799194c-0.8425598 -1.9164429 -2.5883484 -5.8580627 -3.1977997 -8.018738c-0.6094513 -2.1607056 -0.3824463 -4.121216 -0.45892334 -4.945465" fill-rule="evenodd"/><path fill="#cfe2f3" d="m159.12213 338.08914c-2.2858124 0.39089966 -4.5029755 0.82714844 -5.7601166 1.7923279c-1.2571411 0.96517944 -0.8913727 2.2290955 -1.7827454 3.9987488c-0.8913727 1.7696533 -3.6341553 4.619812 -3.565506 6.6192017c0.06863403 1.9993591 1.0742645 2.757019 3.977356 5.377014c2.9030914 2.6199646 11.498123 9.653229 13.441193 10.342834c1.9430847 0.68963623 -0.84529114 -4.159912 -1.7827454 -6.2051086c-0.9374542 -2.045227 -2.9045258 -4.388214 -3.8419952 -6.066162c-0.9374542 -1.6779785 0.18289185 -3.4500427 -1.7827454 -4.001648c-1.9656372 -0.5516052 -10.125305 0.7837219 -10.011063 0.6920471c0.11424255 -0.09170532 7.679184 -1.2880249 10.696518 -1.2421875c3.017334 0.045837402 6.607315 4.8828125E-4 7.407486 1.517273c0.8001709 1.5167542 -2.3779602 5.836914 -2.6064453 7.5834045c-0.2284851 1.7464905 0.77809143 2.481964 1.2355499 2.8955383c0.45744324 0.41357422 0.27456665 0.987854 1.50914 -0.4140625c1.2345886 -1.4019165 6.538681 -6.090271 5.898346 -7.997467c-0.6403351 -1.907196 -9.808502 -3.3766785 -9.740341 -3.4457092c0.06816101 -0.069000244 8.274872 3.4457092 10.149307 3.0316467c1.8744354 -0.4140625 1.6229095 -4.228943 1.0973053 -5.5160217c-0.52560425 -1.2870483 -2.6966858 -1.677948 -4.2509613 -2.2063904c-1.5542603 -0.5284424 -3.1546173 -0.7344971 -5.074646 -0.9642029c-1.920044 -0.22973633 -4.274002 -0.52893066 -6.4455566 -0.4140625c-2.1715698 0.11483765 -6.8122864 1.1031799 -6.5838013 1.1031799c0.2284851 0 4.8000793 -1.1490479 7.9546967 -1.1031799c3.1546173 0.045837402 8.572968 0.87249756 10.973007 1.3782654c2.4000397 0.5057678 2.512848 2.4833984 3.4272614 1.65625c0.91441345 -0.82714844 2.5162048 -5.2399597 2.0592346 -6.6192017c-0.4569702 -1.379242 -3.2006989 -1.173645 -4.8010406 -1.65625c-1.600357 -0.48257446 -2.7893372 0.16262817 -4.801056 -1.2392883c-2.0117188 -1.4019165 -5.463455 -6.8045044 -7.2692413 -7.172241c-1.8058014 -0.36773682 -3.6341553 3.678772 -3.565506 4.965851c0.06863403 1.2870483 2.0117035 2.2971191 3.9773407 2.7565308c1.9656372 0.45944214 7.839508 -0.092163086 7.8164673 0c-0.023040771 0.0921936 -5.6688995 0.16217041 -7.9546967 0.55307007z" fill-rule="evenodd"/><path stroke="#000000" stroke-width="1.0" stroke-linejoin="round" stroke-linecap="butt" d="m159.12213 338.08914c-2.2858124 0.39089966 -4.5029755 0.82714844 -5.7601166 1.7923279c-1.2571411 0.96517944 -0.8913727 2.2290955 -1.7827454 3.9987488c-0.8913727 1.7696533 -3.6341553 4.619812 -3.565506 6.6192017c0.06863403 1.9993591 1.0742645 2.757019 3.977356 5.377014c2.9030914 2.6199646 11.498123 9.653229 13.441193 10.342834c1.9430847 0.68963623 -0.84529114 -4.159912 -1.7827454 -6.2051086c-0.9374542 -2.045227 -2.9045258 -4.388214 -3.8419952 -6.066162c-0.9374542 -1.6779785 0.18289185 -3.4500427 -1.7827454 -4.001648c-1.9656372 -0.5516052 -10.125305 0.7837219 -10.011063 0.6920471c0.11424255 -0.09170532 7.679184 -1.2880249 10.696518 -1.2421875c3.017334 0.045837402 6.607315 4.8828125E-4 7.407486 1.517273c0.8001709 1.5167542 -2.3779602 5.836914 -2.6064453 7.5834045c-0.2284851 1.7464905 0.77809143 2.481964 1.2355499 2.8955383c0.45744324 0.41357422 0.27456665 0.987854 1.50914 -0.4140625c1.2345886 -1.4019165 6.538681 -6.090271 5.898346 -7.997467c-0.6403351 -1.907196 -9.808502 -3.3766785 -9.740341 -3.4457092c0.06816101 -0.069000244 8.274872 3.4457092 10.149307 3.0316467c1.8744354 -0.4140625 1.6229095 -4.228943 1.0973053 -5.5160217c-0.52560425 -1.2870483 -2.6966858 -1.677948 -4.2509613 -2.2063904c-1.5542603 -0.5284424 -3.1546173 -0.7344971 -5.074646 -0.9642029c-1.920044 -0.22973633 -4.274002 -0.52893066 -6.4455566 -0.4140625c-2.1715698 0.11483765 -6.8122864 1.1031799 -6.5838013 1.1031799c0.2284851 0 4.8000793 -1.1490479 7.9546967 -1.1031799c3.1546173 0.045837402 8.572968 0.87249756 10.973007 1.3782654c2.4000397 0.5057678 2.512848 2.4833984 3.4272614 1.65625c0.91441345 -0.82714844 2.5162048 -5.2399597 2.0592346 -6.6192017c-0.4569702 -1.379242 -3.2006989 -1.173645 -4.8010406 -1.65625c-1.600357 -0.48257446 -2.7893372 0.16262817 -4.801056 -1.2392883c-2.0117188 -1.4019165 -5.463455 -6.8045044 -7.2692413 -7.172241c-1.8058014 -0.36773682 -3.6341553 3.678772 -3.565506 4.965851c0.06863403 1.2870483 2.0117035 2.2971191 3.9773407 2.7565308c1.9656372 0.45944214 7.839508 -0.092163086 7.8164673 0c-0.023040771 0.0921936 -5.6688995 0.16217041 -7.9546967 0.55307007z" fill-rule="evenodd"/><path fill="#cfe2f3" d="m192.09605 276.39044c-0.9998627 0.19689941 -5.3765717 -0.86816406 -5.9991455 1.1813965c-0.62257385 2.0495605 2.1821136 10.869843 2.2637177 11.115967c0.081604004 0.24612427 -0.90530396 -8.179413 -1.7741089 -9.639252c-0.8688202 -1.4598389 -1.3569946 -1.677002 -3.4387817 0.880249c-2.0818024 2.557251 -8.288315 11.890533 -9.052002 14.463196c-0.7637024 2.5726929 3.1214905 0.64089966 4.4698334 0.9729004c1.3483429 0.33203125 3.5314178 0.9883423 3.620224 1.0192566c0.08880615 0.030883789 -1.7899475 -0.71713257 -3.0874176 -0.83392334c-1.2974548 -0.11679077 -3.3394165 -0.6418457 -4.697357 0.13317871c-1.3579559 0.77505493 -2.8358917 3.5576477 -3.4503021 4.5170593c-0.6144104 0.9593811 -0.6667328 0.89712524 -0.23617554 1.2392883c0.4305725 0.3421631 0.8534546 0.22055054 2.81958 0.81362915c1.9661102 0.59310913 9.1393585 2.737732 8.977127 2.7449646c-0.1622467 0.0072631836 -7.709427 -2.3608093 -9.950592 -2.7015076c-2.24115 -0.34072876 -2.8037262 0.09649658 -3.4963837 0.6572876c-0.6926422 0.5607605 -0.91345215 2.2232666 -0.65953064 2.707306c0.2539215 0.4840393 0.7512207 -0.20993042 2.1830902 0.19689941c1.4318542 0.40682983 4.7108 1.4675598 6.4081116 2.244049c1.6973114 0.77648926 3.6663055 2.359375 3.7757416 2.4148865c0.109451294 0.055480957 -1.4217834 -1.3054199 -3.1190948 -2.0819092c-1.6973114 -0.77648926 -5.5148163 -2.205902 -7.0647583 -2.5770264c-1.5499573 -0.37109375 -1.4587555 0.14382935 -2.2349243 0.3503723c-0.7761841 0.20654297 -1.9421234 0.4010315 -2.4221344 0.888916c-0.47999573 0.48791504 -0.24047852 1.4111023 -0.45791626 2.0384521c-0.217453 0.6273804 -1.5417938 1.5472107 -0.8467407 1.7257385c0.6950531 0.17855835 1.6593933 -1.6036377 5.017044 -0.6543884c3.357666 0.9492798 14.992126 6.3383484 15.1289215 6.3499146c0.1368103 0.01159668 -10.996033 -5.3345337 -14.308105 -6.2803955c-3.3120575 -0.94589233 -4.202469 0.0134887695 -5.5642548 0.6051636c-1.3617859 0.5916443 -2.3477173 1.8608704 -2.6064453 2.9447632c-0.25872803 1.0838928 0.2284851 3.0451355 1.0540924 3.5585938c0.82562256 0.51348877 1.7016296 -0.7933655 3.8995972 -0.4777527c2.1979523 0.3156128 6.940918 1.1664124 9.288162 2.37146c2.3472443 1.2050171 3.581833 4.311432 4.795288 4.8587036c1.2134705 0.5472412 1.7880402 -0.7147217 2.485489 -1.5751648c0.69744873 -0.86047363 1.4693146 -2.570282 1.699234 -3.5875854c0.22991943 -1.0173035 -0.6278534 -1.8989868 -0.3196869 -2.5162354c0.3081665 -0.617218 1.7721863 -0.34552002 2.1686707 -1.1871643c0.39649963 -0.84161377 1.3709106 -2.234375 0.21025085 -3.8626404c-1.1606598 -1.6282654 -7.220291 -5.911255 -7.1742096 -5.906891c0.046081543 0.004333496 5.902664 5.539154 7.450699 5.932953c1.5480194 0.39379883 0.2275238 0.27651978 1.8374634 -3.5701904c1.6099548 -3.8467407 6.518524 -16.258453 7.822235 -19.510132" fill-rule="evenodd"/><path stroke="#000000" stroke-width="1.0" stroke-linejoin="round" stroke-linecap="butt" d="m192.09605 276.39044c-0.9998627 0.19689941 -5.3765717 -0.86816406 -5.9991455 1.1813965c-0.62257385 2.0495605 2.1821136 10.869843 2.2637177 11.115967c0.081604004 0.24612427 -0.90530396 -8.179413 -1.7741089 -9.639252c-0.8688202 -1.4598389 -1.3569946 -1.677002 -3.4387817 0.880249c-2.0818024 2.557251 -8.288315 11.890533 -9.052002 14.463196c-0.7637024 2.5726929 3.1214905 0.64089966 4.4698334 0.9729004c1.3483429 0.33203125 3.5314178 0.9883423 3.620224 1.0192566c0.08880615 0.030883789 -1.7899475 -0.71713257 -3.0874176 -0.83392334c-1.2974548 -0.11679077 -3.3394165 -0.6418457 -4.697357 0.13317871c-1.3579559 0.77505493 -2.8358917 3.5576477 -3.4503021 4.5170593c-0.6144104 0.9593811 -0.6667328 0.89712524 -0.23617554 1.2392883c0.4305725 0.3421631 0.8534546 0.22055054 2.81958 0.81362915c1.9661102 0.59310913 9.1393585 2.737732 8.977127 2.7449646c-0.1622467 0.0072631836 -7.709427 -2.3608093 -9.950592 -2.7015076c-2.24115 -0.34072876 -2.8037262 0.09649658 -3.4963837 0.6572876c-0.6926422 0.5607605 -0.91345215 2.2232666 -0.65953064 2.707306c0.2539215 0.4840393 0.7512207 -0.20993042 2.1830902 0.19689941c1.4318542 0.40682983 4.7108 1.4675598 6.4081116 2.244049c1.6973114 0.77648926 3.6663055 2.359375 3.7757416 2.4148865c0.109451294 0.055480957 -1.4217834 -1.3054199 -3.1190948 -2.0819092c-1.6973114 -0.77648926 -5.5148163 -2.205902 -7.0647583 -2.5770264c-1.5499573 -0.37109375 -1.4587555 0.14382935 -2.2349243 0.3503723c-0.7761841 0.20654297 -1.9421234 0.4010315 -2.4221344 0.888916c-0.47999573 0.48791504 -0.24047852 1.4111023 -0.45791626 2.0384521c-0.217453 0.6273804 -1.5417938 1.5472107 -0.8467407 1.7257385c0.6950531 0.17855835 1.6593933 -1.6036377 5.017044 -0.6543884c3.357666 0.9492798 14.992126 6.3383484 15.1289215 6.3499146c0.1368103 0.01159668 -10.996033 -5.3345337 -14.308105 -6.2803955c-3.3120575 -0.94589233 -4.202469 0.0134887695 -5.5642548 0.6051636c-1.3617859 0.5916443 -2.3477173 1.8608704 -2.6064453 2.9447632c-0.25872803 1.0838928 0.2284851 3.0451355 1.0540924 3.5585938c0.82562256 0.51348877 1.7016296 -0.7933655 3.8995972 -0.4777527c2.1979523 0.3156128 6.940918 1.1664124 9.288162 2.37146c2.3472443 1.2050171 3.581833 4.311432 4.795288 4.8587036c1.2134705 0.5472412 1.7880402 -0.7147217 2.485489 -1.5751648c0.69744873 -0.86047363 1.4693146 -2.570282 1.699234 -3.5875854c0.22991943 -1.0173035 -0.6278534 -1.8989868 -0.3196869 -2.5162354c0.3081665 -0.617218 1.7721863 -0.34552002 2.1686707 -1.1871643c0.39649963 -0.84161377 1.3709106 -2.234375 0.21025085 -3.8626404c-1.1606598 -1.6282654 -7.220291 -5.911255 -7.1742096 -5.906891c0.046081543 0.004333496 5.902664 5.539154 7.450699 5.932953c1.5480194 0.39379883 0.2275238 0.27651978 1.8374634 -3.5701904c1.6099548 -3.8467407 6.518524 -16.258453 7.822235 -19.510132" fill-rule="evenodd"/><path fill="#cfe2f3" d="m253.46912 339.40146c2.2858124 0.39089966 4.50296 0.82717896 5.7601013 1.7923584c1.2571411 0.96517944 0.89138794 2.229065 1.7827454 3.9987183c0.89138794 1.7696533 3.6341553 4.6198425 3.5655212 6.6192017c-0.06863403 1.9993896 -1.0742493 2.7570496 -3.977356 5.377014c-2.9031067 2.619995 -11.498123 9.653259 -13.441208 10.342865c-1.9430695 0.68963623 0.8453064 -4.159912 1.7827606 -6.205139c0.9374542 -2.0451965 2.9045258 -4.3881836 3.84198 -6.066162c0.9374695 -1.677948 -0.18287659 -3.4500122 1.7827606 -4.0016174c1.965622 -0.5516052 10.12529 0.7837219 10.011063 0.6920166c-0.11425781 -0.091674805 -7.6791687 -1.2880249 -10.696518 -1.242157c-3.017334 0.045837402 -6.607315 4.5776367E-4 -7.407501 1.5172424c-0.8001709 1.5167847 2.3779755 5.836914 2.6064606 7.5834045c0.2284851 1.746521 -0.7781067 2.481964 -1.2355499 2.8955383c-0.45744324 0.41360474 -0.27456665 0.9878845 -1.50914 -0.41403198c-1.2345886 -1.401947 -6.538681 -6.0903015 -5.898346 -7.9974976c0.6403198 -1.907196 9.808487 -3.3766785 9.740326 -3.4456787c-0.06816101 -0.06903076 -8.274872 3.4456787 -10.149307 3.0316162c-1.8744354 -0.4140625 -1.6229095 -4.2289124 -1.09729 -5.515991c0.52560425 -1.2870789 2.6966858 -1.6779785 4.2509613 -2.2063904c1.5542603 -0.5284424 3.1546173 -0.7345276 5.074646 -0.9642334c1.9200287 -0.22970581 4.274002 -0.52890015 6.4455566 -0.4140625c2.1715698 0.114868164 6.8122864 1.1032104 6.5838013 1.1032104c-0.2284851 0 -4.8000793 -1.1490479 -7.954712 -1.1032104c-3.1546173 0.04586792 -8.572952 0.8725281 -10.972992 1.3782959c-2.4000397 0.5057373 -2.512848 2.4833984 -3.4272614 1.65625c-0.91441345 -0.82717896 -2.5162048 -5.2399597 -2.0592346 -6.6192017c0.45695496 -1.379242 3.2006989 -1.1736755 4.8010406 -1.65625c1.6003418 -0.48260498 2.7893372 0.16262817 4.8010406 -1.2392883c2.0117188 -1.401947 5.4634705 -6.804535 7.2692566 -7.1722717c1.8058014 -0.3677063 3.63414 3.6788025 3.565506 4.965851c-0.06863403 1.2870789 -2.0117188 2.2971497 -3.977356 2.7565613c-1.9656372 0.45941162 -7.839493 -0.092163086 -7.816452 0c0.023040771 0.092163086 5.6688995 0.1621399 7.9546967 0.55303955z" fill-rule="evenodd"/><path stroke="#000000" stroke-width="1.0" stroke-linejoin="round" stroke-linecap="butt" d="m253.46912 339.40146c2.2858124 0.39089966 4.50296 0.82717896 5.7601013 1.7923584c1.2571411 0.96517944 0.89138794 2.229065 1.7827454 3.9987183c0.89138794 1.7696533 3.6341553 4.6198425 3.5655212 6.6192017c-0.06863403 1.9993896 -1.0742493 2.7570496 -3.977356 5.377014c-2.9031067 2.619995 -11.498123 9.653259 -13.441208 10.342865c-1.9430695 0.68963623 0.8453064 -4.159912 1.7827606 -6.205139c0.9374542 -2.0451965 2.9045258 -4.3881836 3.84198 -6.066162c0.9374695 -1.677948 -0.18287659 -3.4500122 1.7827606 -4.0016174c1.965622 -0.5516052 10.12529 0.7837219 10.011063 0.6920166c-0.11425781 -0.091674805 -7.6791687 -1.2880249 -10.696518 -1.242157c-3.017334 0.045837402 -6.607315 4.5776367E-4 -7.407501 1.5172424c-0.8001709 1.5167847 2.3779755 5.836914 2.6064606 7.5834045c0.2284851 1.746521 -0.7781067 2.481964 -1.2355499 2.8955383c-0.45744324 0.41360474 -0.27456665 0.9878845 -1.50914 -0.41403198c-1.2345886 -1.401947 -6.538681 -6.0903015 -5.898346 -7.9974976c0.6403198 -1.907196 9.808487 -3.3766785 9.740326 -3.4456787c-0.06816101 -0.06903076 -8.274872 3.4456787 -10.149307 3.0316162c-1.8744354 -0.4140625 -1.6229095 -4.2289124 -1.09729 -5.515991c0.52560425 -1.2870789 2.6966858 -1.6779785 4.2509613 -2.2063904c1.5542603 -0.5284424 3.1546173 -0.7345276 5.074646 -0.9642334c1.9200287 -0.22970581 4.274002 -0.52890015 6.4455566 -0.4140625c2.1715698 0.114868164 6.8122864 1.1032104 6.5838013 1.1032104c-0.2284851 0 -4.8000793 -1.1490479 -7.954712 -1.1032104c-3.1546173 0.04586792 -8.572952 0.8725281 -10.972992 1.3782959c-2.4000397 0.5057373 -2.512848 2.4833984 -3.4272614 1.65625c-0.91441345 -0.82717896 -2.5162048 -5.2399597 -2.0592346 -6.6192017c0.45695496 -1.379242 3.2006989 -1.1736755 4.8010406 -1.65625c1.6003418 -0.48260498 2.7893372 0.16262817 4.8010406 -1.2392883c2.0117188 -1.401947 5.4634705 -6.804535 7.2692566 -7.1722717c1.8058014 -0.3677063 3.63414 3.6788025 3.565506 4.965851c-0.06863403 1.2870789 -2.0117188 2.2971497 -3.977356 2.7565613c-1.9656372 0.45941162 -7.839493 -0.092163086 -7.816452 0c0.023040771 0.092163086 5.6688995 0.1621399 7.9546967 0.55303955z" fill-rule="evenodd"/><path fill="#cfe2f3" d="m220.4952 277.7028c0.9998474 0.19689941 5.3765717 -0.8681946 5.9991455 1.181366c0.62257385 2.0495605 -2.1821136 10.869873 -2.2637177 11.115967c-0.081604004 0.24612427 0.9052887 -8.179382 1.7741089 -9.639221c0.8688202 -1.4598389 1.3569794 -1.677002 3.4387817 0.8802185c2.0818024 2.557251 8.288315 11.890533 9.052002 14.463226c0.7637024 2.5726929 -3.1214905 0.64086914 -4.4698334 0.9729004c-1.3483429 0.33203125 -3.531433 0.9883423 -3.620224 1.0192261c-0.08880615 0.030883789 1.7899475 -0.71713257 3.0874023 -0.83392334c1.2974701 -0.116760254 3.3394318 -0.6418457 4.6973724 0.13320923c1.3579407 0.7750244 2.8358917 3.5576477 3.4503021 4.517029c0.6144104 0.9594116 0.6667328 0.89715576 0.23616028 1.2392883c-0.43055725 0.3421631 -0.8534546 0.22055054 -2.8195648 0.81365967c-1.9661102 0.59310913 -9.139374 2.737732 -8.977127 2.7449646c0.1622467 0.007232666 7.709427 -2.3608398 9.950577 -2.701538c2.2411652 -0.34069824 2.8037415 0.0965271 3.4963837 0.6572876c0.6926575 0.5607605 0.9134674 2.223297 0.6595459 2.7073364c-0.25393677 0.4840393 -0.7512207 -0.20993042 -2.1830902 0.19689941c-1.4318695 0.40682983 -4.7108 1.4675598 -6.4081116 2.244049c-1.6973114 0.77645874 -3.6663055 2.359375 -3.7757568 2.414856c-0.109436035 0.055511475 1.4217987 -1.3053894 3.11911 -2.0818787c1.6972961 -0.77648926 5.5148163 -2.2059326 7.0647583 -2.5770264c1.5499573 -0.37112427 1.4587555 0.14379883 2.2349243 0.3503418c0.7761688 0.20657349 1.9421082 0.4010315 2.4221191 0.88894653c0.480011 0.48788452 0.24049377 1.4111023 0.45793152 2.0384521c0.217453 0.6273804 1.5417938 1.5471802 0.8467407 1.7257385c-0.6950531 0.17855835 -1.6593933 -1.6036377 -5.0170593 -0.6543884c-3.3576508 0.94924927 -14.992111 6.3383484 -15.128906 6.3499146c-0.1368103 0.01159668 10.996033 -5.3345337 14.30809 -6.280426c3.3120728 -0.9458618 4.202484 0.013519287 5.56427 0.6051636c1.3617859 0.5916748 2.3477173 1.8608704 2.6064453 2.9447632c0.25872803 1.0838928 -0.2284851 3.0451355 -1.0541077 3.5586243c-0.8256073 0.51348877 -1.7016296 -0.7933655 -3.899582 -0.4777527c-2.1979675 0.3156128 -6.940933 1.1664124 -9.2881775 2.3714294c-2.347229 1.2050171 -3.5818176 4.3114624 -4.795288 4.8587036c-1.2134552 0.5472717 -1.7880249 -0.71469116 -2.4854736 -1.5751648c-0.697464 -0.8604431 -1.4693146 -2.5702515 -1.699234 -3.587555c-0.22991943 -1.0173035 0.6278534 -1.8989868 0.3196869 -2.5162354c-0.3081665 -0.617218 -1.7722015 -0.34552002 -2.168686 -1.1871643c-0.39648438 -0.8416443 -1.3708954 -2.2344055 -0.2102356 -3.8626404c1.1606598 -1.6282654 7.220291 -5.911255 7.1742096 -5.9069214c-0.046081543 0.0043640137 -5.902664 5.5391846 -7.450699 5.9329834c-1.5480347 0.3937683 -0.2275238 0.27651978 -1.8374786 -3.570221c-1.6099396 -3.8467102 -6.518509 -16.258423 -7.82222 -19.510132" fill-rule="evenodd"/><path stroke="#000000" stroke-width="1.0" stroke-linejoin="round" stroke-linecap="butt" d="m220.4952 277.7028c0.9998474 0.19689941 5.3765717 -0.8681946 5.9991455 1.181366c0.62257385 2.0495605 -2.1821136 10.869873 -2.2637177 11.115967c-0.081604004 0.24612427 0.9052887 -8.179382 1.7741089 -9.639221c0.8688202 -1.4598389 1.3569794 -1.677002 3.4387817 0.8802185c2.0818024 2.557251 8.288315 11.890533 9.052002 14.463226c0.7637024 2.5726929 -3.1214905 0.64086914 -4.4698334 0.9729004c-1.3483429 0.33203125 -3.531433 0.9883423 -3.620224 1.0192261c-0.08880615 0.030883789 1.7899475 -0.71713257 3.0874023 -0.83392334c1.2974701 -0.116760254 3.3394318 -0.6418457 4.6973724 0.13320923c1.3579407 0.7750244 2.8358917 3.5576477 3.4503021 4.517029c0.6144104 0.9594116 0.6667328 0.89715576 0.23616028 1.2392883c-0.43055725 0.3421631 -0.8534546 0.22055054 -2.8195648 0.81365967c-1.9661102 0.59310913 -9.139374 2.737732 -8.977127 2.7449646c0.1622467 0.007232666 7.709427 -2.3608398 9.950577 -2.701538c2.2411652 -0.34069824 2.8037415 0.0965271 3.4963837 0.6572876c0.6926575 0.5607605 0.9134674 2.223297 0.6595459 2.7073364c-0.25393677 0.4840393 -0.7512207 -0.20993042 -2.1830902 0.19689941c-1.4318695 0.40682983 -4.7108 1.4675598 -6.4081116 2.244049c-1.6973114 0.77645874 -3.6663055 2.359375 -3.7757568 2.414856c-0.109436035 0.055511475 1.4217987 -1.3053894 3.11911 -2.0818787c1.6972961 -0.77648926 5.5148163 -2.2059326 7.0647583 -2.5770264c1.5499573 -0.37112427 1.4587555 0.14379883 2.2349243 0.3503418c0.7761688 0.20657349 1.9421082 0.4010315 2.4221191 0.88894653c0.480011 0.48788452 0.24049377 1.4111023 0.45793152 2.0384521c0.217453 0.6273804 1.5417938 1.5471802 0.8467407 1.7257385c-0.6950531 0.17855835 -1.6593933 -1.6036377 -5.0170593 -0.6543884c-3.3576508 0.94924927 -14.992111 6.3383484 -15.128906 6.3499146c-0.1368103 0.01159668 10.996033 -5.3345337 14.30809 -6.280426c3.3120728 -0.9458618 4.202484 0.013519287 5.56427 0.6051636c1.3617859 0.5916748 2.3477173 1.8608704 2.6064453 2.9447632c0.25872803 1.0838928 -0.2284851 3.0451355 -1.0541077 3.5586243c-0.8256073 0.51348877 -1.7016296 -0.7933655 -3.899582 -0.4777527c-2.1979675 0.3156128 -6.940933 1.1664124 -9.2881775 2.3714294c-2.347229 1.2050171 -3.5818176 4.3114624 -4.795288 4.8587036c-1.2134552 0.5472717 -1.7880249 -0.71469116 -2.4854736 -1.5751648c-0.697464 -0.8604431 -1.4693146 -2.5702515 -1.699234 -3.587555c-0.22991943 -1.0173035 0.6278534 -1.8989868 0.3196869 -2.5162354c-0.3081665 -0.617218 -1.7722015 -0.34552002 -2.168686 -1.1871643c-0.39648438 -0.8416443 -1.3708954 -2.2344055 -0.2102356 -3.8626404c1.1606598 -1.6282654 7.220291 -5.911255 7.1742096 -5.9069214c-0.046081543 0.0043640137 -5.902664 5.5391846 -7.450699 5.9329834c-1.5480347 0.3937683 -0.2275238 0.27651978 -1.8374786 -3.570221c-1.6099396 -3.8467102 -6.518509 -16.258423 -7.82222 -19.510132" fill-rule="evenodd"/></g></svg>