<?xml version="1.0" standalone="no"?>
<!DOCTYPE svg PUBLIC "-//W3C//DTD SVG 20010904//EN"
 "http://www.w3.org/TR/2001/REC-SVG-20010904/DTD/svg10.dtd">
<svg version="1.0" xmlns="http://www.w3.org/2000/svg"
 width="808.000000pt" height="450.000000pt" viewBox="0 0 808.000000 450.000000"
 preserveAspectRatio="xMidYMid meet">
<metadata>
Created by potrace 1.16, written by Peter Selinger 2001-2019
</metadata>
<g transform="translate(0.000000,450.000000) scale(0.100000,-0.100000)"
fill="#000000" stroke="none">
<path d="M1954 4305 c-12 -30 8 -127 37 -183 86 -163 237 -239 457 -230 98 4
114 7 184 41 91 44 174 117 210 184 53 100 43 135 -31 108 -80 -28 -203 -45
-326 -45 l-123 0 -48 -40 c-27 -22 -52 -40 -55 -40 -4 0 -15 23 -25 51 -25 69
-34 74 -79 43 -21 -14 -43 -23 -49 -21 -7 3 -18 24 -25 46 -8 30 -24 50 -53
71 -46 33 -66 37 -74 15z m99 -132 c18 -37 40 -69 48 -71 9 -1 28 10 43 25
l28 27 19 -24 c10 -14 19 -32 19 -41 0 -21 36 -53 53 -46 7 3 35 21 63 41 l49
37 157 4 c87 2 161 6 166 9 5 3 27 9 50 14 l41 10 -14 -27 c-28 -52 -97 -104
-206 -152 -119 -54 -157 -59 -250 -35 -167 44 -241 96 -290 204 -31 68 -36 92
-19 92 6 0 25 -30 43 -67z"/>
<path d="M5542 4198 c-18 -18 -15 -26 24 -74 28 -33 38 -56 41 -92 7 -77 12
-92 31 -92 28 0 42 20 42 60 l0 35 48 1 c29 0 65 10 96 26 47 24 51 24 97 11
43 -13 55 -13 104 2 31 8 69 28 86 43 28 25 29 29 15 47 -15 20 -15 20 -64 -7
-56 -32 -105 -35 -159 -13 -35 15 -37 14 -82 -16 -42 -28 -51 -30 -106 -26
-39 4 -63 11 -72 22 -23 33 -74 85 -81 85 -5 0 -13 -5 -20 -12z"/>
<path d="M3870 4135 c-21 -25 22 -80 88 -112 46 -23 70 -28 132 -28 85 0 139
22 184 75 29 35 32 52 12 69 -18 15 -40 6 -55 -23 -21 -39 -63 -56 -138 -56
-79 0 -142 25 -168 64 -19 29 -37 33 -55 11z"/>
<path d="M7843 4115 c-12 -9 -57 -24 -99 -35 -138 -35 -514 -23 -594 20 -18
10 -25 9 -38 -4 -15 -15 -15 -17 0 -32 31 -31 127 -46 334 -51 217 -6 313 6
393 47 48 24 58 38 39 56 -12 12 -17 12 -35 -1z"/>
<path d="M1930 3775 c-16 -19 0 -136 25 -189 19 -40 131 -143 184 -171 75 -38
168 -56 288 -54 83 1 116 5 119 14 7 17 -41 113 -75 148 -30 33 -132 97 -153
97 -8 0 -25 -9 -38 -20 -13 -11 -25 -20 -26 -20 -2 0 -18 25 -35 55 -17 30
-36 55 -42 55 -5 0 -25 -11 -43 -25 l-33 -26 -40 64 c-29 46 -49 66 -74 75
-42 15 -42 15 -57 -3z m89 -102 c11 -21 31 -51 44 -68 23 -28 26 -29 44 -14
34 30 60 32 75 6 7 -14 23 -43 36 -66 12 -22 29 -41 36 -41 8 0 27 18 43 40
l30 39 66 -62 c37 -34 67 -70 67 -78 0 -20 -29 -29 -95 -29 -76 0 -135 23
-234 90 -73 48 -97 71 -121 113 -29 51 -40 107 -20 107 5 0 18 -17 29 -37z"/>
<path d="M7103 2988 c-53 -56 -65 -80 -65 -136 0 -81 127 -237 140 -171 1 8
-12 33 -29 55 -78 96 -79 147 -8 220 27 28 40 48 36 58 -10 26 -30 19 -74 -26z"/>
<path d="M2186 2995 c-3 -10 13 -36 45 -71 67 -75 82 -112 74 -184 -8 -66 7
-90 40 -66 14 10 20 31 24 87 l6 74 35 2 c19 1 61 -5 92 -14 64 -17 88 -13 88
17 0 32 -61 53 -164 55 l-89 2 -49 57 c-51 57 -89 73 -102 41z"/>
<path d="M5733 2975 c-34 -7 -83 -23 -110 -35 -64 -29 -80 -31 -87 -14 -6 16
-32 19 -41 3 -12 -18 54 -139 75 -139 28 0 33 16 15 44 -16 23 -15 25 7 40 94
61 283 79 390 37 32 -12 85 -40 118 -62 58 -39 80 -43 80 -14 0 20 -67 72
-135 104 -107 51 -196 61 -312 36z"/>
<path d="M4225 2950 c-89 -10 -245 -51 -332 -88 -51 -21 -69 -34 -71 -50 -4
-29 6 -28 107 12 143 58 408 104 426 76 5 -7 -16 -35 -51 -71 -43 -43 -55 -62
-47 -70 19 -19 48 -1 123 76 56 58 70 78 61 89 -6 7 -8 16 -4 19 3 4 -5 7 -18
7 -13 0 -46 2 -74 4 -27 3 -81 1 -120 -4z"/>
<path d="M434 2938 c-5 -7 -9 -42 -9 -77 0 -50 4 -66 18 -75 14 -9 21 -6 40
16 l22 26 246 7 c243 6 246 6 252 -14 7 -29 45 -27 57 3 11 30 -7 106 -28 114
-9 3 -22 -3 -31 -15 -16 -19 -32 -20 -263 -25 l-246 -5 -6 28 c-6 31 -36 40
-52 17z"/>
<path d="M7244 2859 c-18 -30 22 -37 286 -47 220 -8 267 -7 280 4 30 29 -5 37
-192 45 -269 11 -366 11 -374 -2z"/>
<path d="M5887 2813 c-2 -4 -8 -38 -12 -75 -8 -78 -21 -99 -100 -153 -55 -38
-68 -66 -34 -73 25 -5 142 88 162 129 10 22 18 64 20 105 2 57 -1 69 -15 72
-9 2 -18 -1 -21 -5z"/>
<path d="M3105 2650 c-4 -7 -14 -44 -22 -83 -22 -108 -41 -155 -95 -239 -56
-87 -60 -121 -16 -126 22 -3 32 5 66 55 61 90 91 156 113 249 26 111 23 148
-13 152 -14 2 -29 -2 -33 -8z"/>
<path d="M3411 2638 c-4 -13 -13 -81 -20 -151 -12 -140 -23 -175 -77 -248 -42
-58 -43 -92 -2 -97 23 -3 34 6 72 58 25 34 53 85 61 113 18 60 42 305 32 330
-10 26 -56 22 -66 -5z"/>
<path d="M7290 1903 c-366 -20 -489 -50 -697 -171 l-70 -41 -87 45 c-100 52
-139 56 -144 12 -3 -24 3 -31 65 -62 79 -39 143 -103 143 -142 0 -38 18 -64
43 -64 27 0 61 36 50 53 -4 6 -10 31 -13 54 -6 40 -5 44 18 50 13 3 178 3 365
0 420 -7 503 -18 785 -109 108 -34 122 -31 166 30 l25 35 -24 53 c-43 98 -78
138 -144 168 -56 25 -376 98 -411 94 -8 -1 -40 -3 -70 -5z m-106 -121 c5 -37
5 -67 0 -72 -13 -12 -433 -32 -469 -22 -47 13 -44 39 7 60 131 57 330 103 418
99 l35 -2 9 -63z m282 56 c3 -3 2 -40 -2 -82 l-7 -76 -38 0 c-21 0 -70 5 -109
12 l-70 12 0 67 c0 56 3 68 18 73 21 6 201 1 208 -6z m175 -49 c50 -11 89 -26
89 -32 0 -14 -38 -135 -46 -149 -4 -5 -10 -5 -17 0 -7 5 -35 14 -62 20 -103
22 -104 22 -98 94 8 103 0 99 134 67z m243 -174 l19 -35 -26 -26 c-24 -24 -29
-25 -64 -14 -42 14 -73 37 -73 54 0 6 11 34 25 61 13 28 25 57 25 65 1 19 68
-56 94 -105z"/>
<path d="M2482 1853 c-105 -64 -342 -318 -342 -366 0 -39 39 -14 98 61 112
145 257 275 318 286 65 12 109 -58 120 -192 7 -87 16 -104 42 -79 13 14 14 28
4 106 -12 103 -45 171 -96 202 -45 27 -75 24 -144 -18z"/>
<path d="M1132 1798 c-7 -7 -12 -20 -12 -30 0 -24 -30 -38 -82 -38 -83 -1
-128 -16 -168 -55 l-39 -38 -45 37 c-81 66 -125 80 -261 82 -111 2 -120 3
-129 23 -12 28 -40 23 -44 -7 -4 -27 35 -112 72 -157 20 -25 27 -28 38 -17 11
11 9 20 -8 52 -32 57 -21 64 82 57 115 -7 165 -26 238 -88 l59 -50 50 50 c52
52 54 53 180 64 47 5 49 4 44 -19 -2 -13 1 -31 7 -39 10 -13 14 -14 30 -2 25
19 36 156 14 175 -11 9 -17 9 -26 0z"/>
<path d="M3717 1753 c-14 -13 -6 -99 12 -138 89 -193 467 -217 641 -40 39 39
42 47 30 60 -9 9 -133 35 -325 70 -316 56 -347 60 -358 48z m223 -77 c74 -13
193 -35 264 -47 l128 -23 -33 -27 c-108 -88 -348 -96 -457 -15 -46 33 -74 73
-79 110 -4 30 -2 33 19 30 13 -2 84 -15 158 -28z"/>
<path d="M5591 1685 c-35 -8 -74 -21 -88 -30 l-24 -16 23 -41 c26 -46 91 -93
153 -109 23 -7 91 -9 160 -7 99 3 128 8 166 26 64 31 95 62 108 107 17 62 6
71 -100 78 -145 11 -328 7 -398 -8z m446 -49 c14 -13 -22 -57 -66 -78 -41 -20
-61 -23 -181 -23 -133 0 -136 0 -185 31 -27 17 -52 39 -54 50 -2 10 0 16 3 13
3 -3 28 0 54 7 49 14 415 14 429 0z"/>
<path d="M613 1534 c-4 -12 5 -26 28 -45 61 -50 152 -99 185 -99 37 0 97 41
137 93 31 41 34 55 11 64 -11 4 -32 -12 -68 -51 -67 -72 -82 -72 -186 -1 -44
30 -85 55 -91 55 -5 0 -12 -7 -16 -16z"/>
<path d="M5968 636 c-137 -57 -242 -167 -302 -316 -14 -35 -33 -71 -42 -81
-36 -40 -16 -46 172 -53 111 -5 188 -12 204 -20 49 -25 70 8 25 41 -23 17 -25
26 -31 138 -4 67 -4 151 0 187 7 62 9 67 37 77 21 7 30 16 27 28 -5 26 -26 25
-90 -1z m-25 -239 l5 -167 -126 6 c-70 4 -128 7 -129 8 -1 1 11 30 25 66 l28
65 64 5 c49 4 65 9 65 20 0 10 -13 16 -42 18 -24 2 -43 8 -43 14 0 18 137 146
146 135 1 -1 4 -77 7 -170z"/>
<path d="M2610 612 c-80 -27 -109 -27 -333 9 -62 10 -87 11 -125 1 -146 -39
-226 -198 -165 -334 50 -111 173 -117 295 -12 64 54 145 86 217 85 47 0 73 -9
182 -66 132 -68 160 -75 195 -50 37 25 47 67 42 177 -5 118 -19 154 -75 193
-50 33 -130 33 -233 -3z m195 -34 c33 -15 72 -75 57 -90 -36 -36 -258 -61
-412 -47 -191 17 -370 58 -370 84 0 7 14 21 31 29 49 25 117 29 194 12 105
-22 213 -29 270 -16 28 6 56 11 63 12 6 1 12 5 12 9 0 19 116 25 155 7z m-595
-138 c47 -10 114 -22 150 -26 51 -5 60 -9 40 -15 -50 -14 -126 -58 -164 -94
-86 -81 -174 -73 -208 18 -17 46 -12 102 13 148 9 18 12 18 47 3 20 -8 75 -23
122 -34z m660 -59 c0 -42 -5 -65 -18 -81 -17 -21 -20 -21 -52 -8 -19 8 -49 27
-66 42 -18 14 -51 35 -74 45 -36 16 -39 20 -22 25 11 4 24 6 28 4 20 -5 141
15 164 27 14 7 28 11 32 8 5 -2 8 -30 8 -62z"/>
<path d="M7240 618 c-87 -44 -114 -138 -70 -236 45 -99 252 -252 340 -252 46
0 183 75 251 137 139 129 148 286 19 351 -62 31 -131 30 -199 -4 -29 -15 -55
-33 -58 -40 -4 -10 -13 -8 -37 11 -78 59 -169 71 -246 33z m166 -77 c18 -11
44 -35 59 -55 15 -20 35 -36 45 -36 10 0 33 18 50 40 39 49 77 70 125 70 42 0
90 -22 99 -45 33 -87 -58 -207 -212 -279 l-62 -30 -62 30 c-190 90 -281 254
-173 312 31 18 97 14 131 -7z"/>
<path d="M352 618 c-7 -7 -12 -22 -12 -35 0 -43 -33 -108 -78 -155 -41 -43
-48 -68 -18 -68 7 0 25 14 41 30 16 17 33 30 38 30 5 0 32 -20 60 -44 163
-138 280 -184 443 -172 51 3 100 9 107 12 12 4 13 -2 4 -41 -8 -33 -7 -49 1
-57 19 -19 40 0 47 44 11 68 47 119 155 218 55 51 100 99 100 107 0 26 -31 26
-59 -1 -34 -32 -94 -50 -240 -72 -95 -13 -130 -14 -203 -5 -99 13 -219 55
-293 104 -43 28 -51 38 -55 71 -5 42 -18 54 -38 34z m204 -217 c125 -46 285
-61 399 -38 11 3 38 8 60 12 l39 7 -49 -54 c-44 -47 -57 -54 -110 -65 -156
-31 -273 -3 -410 100 -104 78 -127 100 -120 119 6 15 13 13 58 -17 29 -19 89
-48 133 -64z"/>
<path d="M4230 620 c-288 -19 -441 -42 -478 -73 -11 -8 -13 -29 -10 -82 9
-131 63 -208 190 -269 200 -95 402 -74 522 54 54 58 80 107 96 183 13 64 5
160 -15 177 -19 15 -151 20 -305 10z m271 -59 c0 -3 2 -21 5 -40 6 -46 -21
-147 -51 -193 -52 -79 -139 -132 -229 -141 -100 -9 -249 32 -343 95 -49 33
-54 58 -16 76 38 17 38 17 84 -33 47 -51 55 -49 84 15 10 21 20 38 24 38 7 -2
252 15 264 18 4 1 14 2 22 3 8 0 15 8 15 17 0 15 -9 16 -72 11 -40 -4 -114
-10 -164 -13 l-90 -7 -23 -39 -22 -39 -22 28 c-23 30 -57 63 -65 63 -3 0 -20
-12 -39 -26 -42 -32 -58 -27 -66 23 -12 71 -9 93 16 102 53 20 227 38 467 49
165 7 219 5 221 -7z"/>
</g>
</svg>
