<?xml version="1.0" standalone="no"?>
<!DOCTYPE svg PUBLIC "-//W3C//DTD SVG 20010904//EN"
 "http://www.w3.org/TR/2001/REC-SVG-20010904/DTD/svg10.dtd">
<svg version="1.0" xmlns="http://www.w3.org/2000/svg"
 width="655.000000pt" height="769.000000pt" viewBox="0 0 655.000000 769.000000"
 preserveAspectRatio="xMidYMid meet">
<metadata>
Created by potrace 1.16, written by Peter Selinger 2001-2019
</metadata>
<g transform="translate(0.000000,769.000000) scale(0.100000,-0.100000)"
fill="#000000" stroke="none">
<path d="M2545 6440 c-60 -22 -122 -42 -138 -45 -15 -3 -45 -12 -66 -21 -35
-14 -43 -25 -84 -112 -66 -142 -128 -295 -233 -580 -86 -232 -98 -259 -145
-315 -88 -105 -96 -159 -31 -219 40 -38 60 -46 138 -53 l70 -7 143 76 c176 94
325 162 399 181 74 20 168 19 274 -3 l86 -18 5 36 c3 26 -2 45 -19 72 -13 21
-24 41 -24 45 0 10 -88 103 -98 103 -4 0 -13 4 -21 9 -11 7 -8 17 17 47 63 79
121 260 105 325 -14 54 -40 49 -148 -27 -53 -36 -120 -75 -148 -86 l-52 -19
57 51 c61 55 158 199 158 236 0 26 -30 54 -57 54 -18 0 -124 -29 -171 -47 -8
-4 16 25 55 63 53 52 79 88 107 146 35 76 45 121 27 132 -5 4 -29 8 -53 11
-34 4 -67 -4 -153 -35z m104 -82 c-37 -74 -68 -106 -185 -195 -119 -89 -131
-108 -97 -145 9 -10 27 -18 41 -18 19 0 154 38 270 75 19 7 -62 -109 -99 -139
-18 -15 -86 -54 -151 -87 -99 -50 -118 -63 -118 -82 0 -51 42 -58 193 -31 99
17 183 45 239 80 l37 24 -20 -34 c-37 -64 -97 -122 -152 -149 -49 -24 -223
-65 -352 -83 -27 -3 -58 -11 -67 -16 -41 -20 -6 -98 44 -98 16 0 109 12 206
26 270 39 351 30 401 -45 15 -23 15 -23 -9 -16 -104 35 -287 -19 -697 -203
-102 -46 -118 -50 -163 -45 -38 4 -56 12 -70 31 -23 29 -19 40 46 113 56 63
53 57 165 363 50 138 122 322 161 410 38 89 72 168 75 178 3 11 57 35 161 71
87 30 158 55 160 56 1 0 -7 -18 -19 -41z"/>
<path d="M5825 5695 c-37 -11 -90 -13 -210 -8 l-161 6 -89 -61 c-111 -75 -232
-148 -319 -193 -109 -56 -101 -91 22 -100 l77 -5 -45 -19 c-97 -41 -205 -103
-205 -118 0 -8 97 -85 218 -172 174 -125 217 -161 217 -179 0 -18 20 -36 85
-79 47 -32 87 -57 90 -57 3 0 27 -16 54 -35 26 -19 50 -35 53 -35 2 0 21 33
42 74 50 97 49 101 -62 318 -2 3 11 9 29 13 33 8 68 -5 105 -38 12 -10 28 -17
35 -16 8 1 30 -1 50 -5 58 -12 79 5 79 63 0 27 -7 67 -15 90 -8 22 -12 41 -9
41 11 0 -34 56 -89 109 l-61 59 59 64 c63 67 155 218 155 254 0 24 -18 44 -39
43 -9 0 -38 -7 -66 -14z m-42 -145 c-67 -105 -137 -159 -208 -160 -37 0 -55
-16 -55 -46 0 -26 17 -34 70 -34 47 0 107 -43 162 -115 32 -42 64 -112 55
-121 -1 -2 -36 6 -77 17 -43 12 -123 23 -186 26 -107 5 -112 5 -123 -16 -19
-34 -5 -55 81 -128 62 -52 86 -80 104 -121 27 -60 28 -61 14 -98 l-11 -27 -27
26 c-16 15 -33 27 -39 27 -6 0 -20 11 -30 25 -27 37 -235 205 -254 205 -9 0
-45 21 -80 47 -35 26 -88 63 -116 84 -41 29 -50 39 -40 47 7 6 60 30 118 52
122 47 129 51 143 73 14 22 -14 52 -72 77 l-45 20 26 20 c14 11 28 20 32 20 3
0 56 32 118 72 66 42 128 74 152 79 22 3 104 6 181 5 l141 -1 -34 -55z"/>
</g>
</svg>
