<?xml version="1.0" standalone="no"?>
<!DOCTYPE svg PUBLIC "-//W3C//DTD SVG 20010904//EN"
 "http://www.w3.org/TR/2001/REC-SVG-20010904/DTD/svg10.dtd">
<svg version="1.0" xmlns="http://www.w3.org/2000/svg"
 width="655.000000pt" height="769.000000pt" viewBox="0 0 655.000000 769.000000"
 preserveAspectRatio="xMidYMid meet">
<metadata>
Created by potrace 1.16, written by Peter Selinger 2001-2019
</metadata>
<g transform="translate(0.000000,769.000000) scale(0.100000,-0.100000)"
fill="#000000" stroke="none">
<path d="M2868 7578 c-985 -1098 -1168 -1331 -1683 -2133 -81 -126 -171 -266
-200 -310 -50 -76 -54 -87 -79 -220 -14 -77 -31 -174 -37 -215 -15 -95 -6
-356 16 -512 l17 -118 -70 -157 c-147 -333 -172 -453 -252 -1228 -43 -423 -54
-468 -128 -547 -24 -26 -103 -91 -174 -144 l-129 -97 3 -41 c3 -41 3 -41 48
-44 61 -5 337 16 435 34 52 9 107 27 158 53 92 46 106 58 159 129 24 32 46 52
55 50 9 -2 21 -22 28 -46 7 -23 16 -50 20 -60 60 -143 173 -515 204 -672 27
-133 69 -408 82 -525 5 -49 24 -222 43 -383 36 -313 41 -332 93 -332 21 0 30
14 68 95 61 131 138 342 164 449 33 134 66 339 105 661 20 160 40 324 46 365
5 41 17 181 25 310 32 484 60 753 91 875 18 68 74 218 80 212 2 -2 11 -64 20
-138 18 -153 14 -422 -11 -759 -21 -285 -21 -296 13 -314 19 -10 33 -11 45 -4
34 18 240 454 297 628 21 63 49 174 61 245 22 121 23 153 22 485 -1 195 -6
436 -10 535 -10 219 -1 435 22 550 9 47 15 92 12 99 -3 7 3 22 12 35 16 21 18
21 31 6 10 -12 13 -51 12 -153 -2 -260 -8 -332 -37 -427 -50 -162 -50 -165
-39 -183 17 -27 46 -25 79 5 45 42 334 405 399 502 91 137 65 73 -51 -122 -61
-102 -65 -113 -57 -146 7 -26 15 -37 32 -39 39 -6 376 177 542 293 81 57 327
260 400 329 75 71 117 71 84 -1 -10 -21 -21 -40 -24 -43 -3 -3 -16 -20 -28
-37 -13 -18 -73 -66 -135 -107 -169 -113 -171 -114 -163 -162 6 -34 12 -41 49
-57 23 -9 52 -17 64 -17 12 0 24 -4 28 -10 3 -5 48 -9 99 -9 52 0 104 -2 117
-5 66 -15 391 -25 494 -16 192 19 296 53 579 189 l163 78 -64 -146 c-77 -179
-96 -253 -117 -448 l-17 -152 47 -143 c25 -79 56 -165 69 -193 12 -27 32 -70
43 -95 24 -57 113 -156 147 -164 18 -5 31 0 49 19 l26 25 -14 74 c-8 40 -17
107 -20 147 -6 72 -6 73 8 37 19 -48 42 -204 61 -403 25 -273 85 -1083 85
-1143 0 -31 4 -106 10 -167 6 -60 15 -155 19 -210 13 -144 39 -316 67 -424 26
-105 79 -228 104 -241 8 -5 25 -28 37 -52 12 -24 47 -73 78 -110 49 -60 61
-68 90 -68 38 0 55 20 55 65 0 24 5 20 56 -39 96 -113 204 -179 282 -174 42 3
47 6 50 29 2 16 -16 62 -47 122 -59 111 -131 278 -156 357 -11 37 -19 118 -26
252 -5 116 -13 205 -20 216 -9 14 -6 60 14 203 59 417 71 618 63 1004 -6 254
-12 344 -42 585 -57 473 -102 710 -168 892 -19 53 -40 127 -46 165 -12 71
-104 395 -120 425 -17 31 -11 50 34 107 135 173 307 409 347 477 26 44 63 115
82 160 51 118 138 407 148 494 11 87 96 898 101 950 3 35 3 35 -37 34 -28 0
-113 -33 -275 -104 -129 -57 -247 -112 -262 -122 -14 -10 -33 -18 -41 -18 -9
0 -112 -40 -229 -89 -201 -84 -575 -213 -808 -280 -214 -60 -637 -170 -683
-177 -47 -6 -51 -10 -100 -81 -29 -40 -59 -95 -69 -121 -9 -27 -23 -48 -33
-50 -9 -2 -53 7 -98 20 -76 21 -98 23 -283 20 l-202 -2 -51 80 c-58 91 -68 95
-138 54 -25 -14 -47 -23 -50 -20 -3 3 6 66 21 139 68 341 59 612 -38 1147 -14
74 -39 214 -56 310 -39 220 -39 220 -88 220 -35 0 -44 -6 -104 -72z m106 -125
c6 -22 98 -552 123 -713 14 -87 18 -174 18 -355 0 -225 -2 -252 -33 -428 -36
-213 -38 -235 -17 -243 41 -16 81 -10 117 19 l38 29 17 -32 c47 -85 45 -84
157 -74 192 17 339 10 461 -20 161 -40 172 -41 183 -19 5 10 13 36 16 58 4 22
24 66 44 98 30 47 48 63 97 87 79 38 239 86 575 171 365 93 525 140 705 206
128 47 621 255 863 363 40 18 74 31 77 28 2 -2 0 -44 -5 -94 -6 -49 -24 -215
-40 -369 -47 -432 -77 -600 -141 -774 -98 -264 -310 -596 -488 -764 -43 -39
-61 -64 -61 -81 0 -14 4 -27 9 -31 19 -11 185 -590 241 -838 23 -100 48 -204
55 -232 8 -27 14 -76 14 -107 0 -32 2 -66 5 -75 3 -10 19 -119 35 -243 25
-192 31 -273 36 -550 11 -537 -16 -813 -181 -1799 l-28 -164 -30 39 c-17 21
-52 62 -78 91 -26 29 -56 70 -68 92 -31 61 -83 258 -77 294 4 31 -36 386 -47
417 -3 8 -8 85 -10 170 -4 145 -36 628 -71 1080 -29 370 -58 539 -111 647 -25
52 -25 53 -9 111 22 78 18 106 -17 110 -34 4 -39 -6 -73 -143 -28 -110 -35
-226 -20 -330 l6 -40 -26 30 c-58 67 -65 78 -65 97 0 25 -56 186 -76 215 -7
12 -14 36 -14 52 0 16 -4 40 -9 53 -12 33 13 289 37 378 11 41 50 143 86 227
79 182 87 212 58 220 -11 3 -23 11 -26 19 -3 8 -15 14 -26 14 -23 0 -123 -48
-128 -61 -2 -5 -9 -9 -16 -9 -7 0 -70 -27 -139 -60 -70 -32 -165 -73 -212 -89
-46 -17 -97 -37 -112 -44 -17 -9 -60 -15 -107 -15 -44 -1 -98 -4 -121 -7 -22
-4 -119 -1 -215 5 -96 7 -218 13 -271 15 -52 1 -111 7 -130 13 -19 6 -44 12
-57 14 -18 2 -3 18 84 82 58 43 108 85 111 92 3 8 11 14 18 14 19 0 75 68 97
117 15 34 18 62 16 140 -3 96 -3 98 -28 101 -20 2 -57 -25 -175 -129 -82 -72
-162 -141 -177 -152 -16 -11 -28 -27 -28 -34 0 -7 -5 -13 -11 -13 -6 0 -66
-42 -134 -92 -104 -79 -276 -191 -358 -234 -42 -23 -117 -54 -117 -49 0 3 19
35 42 72 100 164 124 247 113 401 -6 95 -9 107 -33 129 -16 15 -35 23 -51 21
-29 -3 -32 -13 -50 -158 -12 -93 -59 -202 -126 -290 -19 -25 -56 -76 -82 -113
-60 -86 -152 -197 -162 -197 -5 0 -2 28 5 63 7 34 17 115 20 180 9 143 -14
530 -31 554 -11 14 -19 15 -51 8 l-39 -10 -42 -125 c-23 -69 -49 -160 -58
-203 -28 -138 -36 -437 -24 -857 19 -661 -4 -833 -161 -1180 -50 -112 -108
-230 -118 -240 -4 -5 -1 74 19 385 13 215 8 423 -16 600 -21 158 -24 165 -75
165 l-41 0 -44 -92 c-103 -220 -121 -326 -170 -993 -36 -497 -115 -1141 -171
-1393 -27 -122 -84 -296 -131 -401 l-29 -64 -23 204 c-93 835 -129 1011 -304
1504 -100 280 -102 285 -131 285 -17 0 -40 -22 -89 -84 -114 -144 -159 -173
-307 -200 -83 -15 -340 -39 -346 -33 -2 2 34 31 80 65 133 99 190 161 219 240
39 105 45 135 62 322 26 289 73 699 95 826 38 221 85 369 187 584 l55 115 -22
196 c-29 255 -24 418 19 632 16 81 33 153 37 160 36 62 361 562 488 752 254
379 429 607 766 995 233 270 609 692 629 707 19 14 67 -8 75 -34z m3092 -6766
c15 -45 53 -138 86 -206 32 -68 57 -126 55 -128 -11 -10 -109 77 -172 152 -82
97 -78 78 -50 240 8 44 17 103 21 130 l7 50 13 -78 c7 -43 25 -115 40 -160z"/>
<path d="M2859 7398 c-23 -35 -45 -65 -48 -68 -16 -13 -91 -138 -91 -151 0
-14 -58 -127 -195 -379 -197 -363 -341 -683 -501 -1117 -86 -233 -98 -260
-145 -316 -88 -105 -96 -159 -31 -219 39 -37 59 -45 132 -53 36 -4 69 -9 73
-12 4 -3 -24 -27 -63 -55 -43 -30 -88 -72 -113 -107 -23 -32 -62 -71 -86 -87
-66 -42 -217 -190 -368 -359 -106 -119 -133 -155 -131 -175 2 -19 10 -26 29
-28 22 -3 41 13 123 106 223 254 381 373 627 473 151 62 221 83 329 104 114
21 130 29 130 60 0 35 -21 40 -109 26 -80 -13 -337 -73 -387 -90 l-29 -11 24
18 c12 9 62 40 109 67 89 53 105 69 74 77 -11 3 -21 17 -24 31 -5 24 4 30 136
96 205 102 264 123 371 128 63 3 116 -2 177 -14 l86 -19 5 36 c3 26 -2 45 -19
72 -13 21 -24 45 -24 53 0 21 47 154 64 179 7 12 27 102 44 201 78 454 73 628
-35 1275 -20 118 -37 238 -37 265 -1 46 -3 50 -28 53 -23 3 -32 -6 -69 -60z
m65 -328 c67 -411 71 -447 70 -705 0 -237 -1 -243 -43 -480 -23 -132 -45 -254
-48 -270 -2 -17 -11 -39 -18 -49 -13 -18 -15 -18 -52 5 -21 12 -40 24 -42 25
-1 2 11 20 28 41 62 78 120 259 104 324 -14 54 -40 49 -148 -27 -53 -36 -120
-75 -148 -86 l-52 -19 57 51 c60 53 158 199 158 234 0 27 -29 56 -55 56 -20 0
-124 -29 -173 -47 -8 -4 16 25 55 63 53 52 79 88 107 147 21 46 36 90 34 105
-3 23 -9 28 -48 35 -40 8 -60 4 -172 -36 -71 -25 -128 -44 -128 -41 0 16 401
784 449 860 14 23 27 39 28 35 1 -3 18 -103 37 -221z m-275 -712 c-37 -74 -68
-106 -185 -195 -119 -89 -131 -108 -97 -145 9 -10 27 -18 41 -18 19 0 154 38
270 75 19 7 -62 -109 -99 -139 -18 -15 -86 -54 -151 -87 -99 -50 -118 -63
-118 -82 0 -51 42 -58 193 -31 99 17 183 45 239 80 l37 24 -20 -34 c-37 -64
-97 -122 -152 -149 -49 -24 -223 -65 -352 -83 -27 -3 -58 -11 -67 -16 -41 -20
-6 -98 44 -98 16 0 109 12 206 26 270 39 351 30 401 -45 15 -23 15 -23 -9 -16
-104 35 -287 -19 -697 -203 -102 -46 -118 -50 -163 -45 -38 4 -56 12 -70 31
-23 29 -19 40 46 113 56 63 53 57 165 363 50 138 122 322 161 410 38 89 72
168 75 178 3 11 57 35 161 71 87 30 158 55 160 56 1 0 -7 -18 -19 -41z"/>
<path d="M6124 6294 c-58 -40 -150 -122 -334 -299 -183 -177 -249 -235 -360
-317 -94 -69 -272 -180 -373 -233 -121 -63 -116 -102 11 -107 l77 -4 -45 -19
c-25 -11 -72 -33 -105 -50 l-60 -30 -137 92 c-161 108 -266 163 -438 227 -140
53 -173 55 -178 13 -4 -30 15 -41 153 -87 153 -52 355 -170 625 -365 41 -29
91 -62 110 -72 60 -31 235 -210 383 -391 123 -151 144 -173 166 -170 56 6 28
72 -83 197 -24 27 -19 24 24 -12 71 -61 97 -61 117 3 28 92 34 143 23 191
l-11 47 42 44 c40 43 44 45 75 35 24 -7 41 -7 59 1 22 10 25 18 25 61 0 26 -6
67 -14 89 -12 34 -12 41 -1 46 14 5 25 26 107 216 72 166 109 284 172 557 56
242 67 328 44 351 -18 18 -31 15 -74 -14z m-53 -342 c-65 -278 -120 -441 -219
-649 l-29 -62 -53 54 -53 54 59 63 c62 67 154 218 154 254 0 41 -23 48 -99 29
-55 -13 -89 -15 -158 -10 l-88 8 60 51 c33 28 152 140 264 250 113 109 207
193 209 188 2 -6 -20 -109 -47 -230z m-288 -402 c-67 -105 -137 -159 -208
-160 -37 0 -55 -16 -55 -46 0 -26 17 -34 70 -34 47 0 107 -43 162 -115 32 -42
64 -112 55 -121 -1 -2 -36 6 -77 17 -43 12 -123 23 -186 26 -107 5 -112 5
-123 -16 -19 -34 -5 -55 81 -128 62 -52 86 -80 104 -121 27 -60 28 -61 14 -98
l-11 -27 -27 26 c-16 15 -33 27 -39 27 -6 0 -20 11 -30 25 -27 37 -235 205
-254 205 -9 0 -45 21 -80 47 -35 26 -88 63 -116 84 -41 29 -50 39 -40 47 7 6
60 30 118 52 122 47 129 51 143 73 14 22 -14 52 -72 77 l-45 20 26 20 c14 11
28 20 32 20 3 0 56 32 118 72 66 42 128 74 152 79 22 3 104 6 181 5 l141 -1
-34 -55z"/>
<path d="M3948 5515 c-14 -30 1 -51 41 -60 16 -3 41 -19 56 -35 16 -17 38 -30
50 -30 22 0 436 -226 634 -347 180 -110 283 -186 394 -292 144 -139 225 -253
423 -601 104 -182 114 -195 140 -195 55 0 44 35 -88 265 -241 419 -353 558
-597 739 -47 34 -103 72 -125 83 -22 11 -56 33 -76 49 -49 39 -422 249 -442
249 -9 0 -29 10 -45 23 -38 31 -120 80 -163 97 -19 7 -42 19 -50 25 -27 22
-99 55 -120 55 -12 0 -25 -10 -32 -25z"/>
</g>
</svg>
