<?xml version="1.0" standalone="no"?>
<!DOCTYPE svg PUBLIC "-//W3C//DTD SVG 20010904//EN"
 "http://www.w3.org/TR/2001/REC-SVG-20010904/DTD/svg10.dtd">
<svg version="1.0" xmlns="http://www.w3.org/2000/svg"
 width="468.000000pt" height="354.000000pt" viewBox="0 0 468.000000 354.000000"
 preserveAspectRatio="xMidYMid meet">
<metadata>
Created by potrace 1.16, written by Peter Selinger 2001-2019
</metadata>
<g transform="translate(0.000000,354.000000) scale(0.100000,-0.100000)"
fill="#000000" stroke="none">
<path d="M1570 3444 c-41 -14 -151 -50 -245 -79 -211 -67 -457 -187 -765 -373
-205 -124 -241 -153 -210 -172 13 -8 270 -3 279 5 2 3 17 5 33 5 48 0 32 -31
-49 -95 -129 -103 -187 -167 -236 -262 -84 -163 -167 -360 -182 -432 -34 -164
-60 -434 -95 -988 -25 -398 -25 -413 -4 -413 46 0 111 81 155 194 9 22 24 43
34 45 16 3 17 -3 11 -50 -11 -78 -53 -259 -87 -369 -16 -53 -29 -106 -29 -118
0 -12 -4 -22 -10 -22 -14 0 -13 -33 2 -48 25 -25 46 -14 166 94 31 28 78 61
104 73 112 53 160 172 162 403 1 104 11 131 40 103 9 -9 16 -23 16 -31 0 -8
11 -41 25 -73 13 -32 26 -70 29 -83 4 -25 18 -55 76 -163 70 -131 218 -288
346 -367 110 -68 224 -131 224 -125 0 3 -47 84 -105 181 -273 460 -330 597
-380 927 -23 144 -19 162 37 178 60 18 438 163 593 228 253 106 416 205 745
452 107 81 208 153 223 161 26 13 43 11 170 -14 78 -16 221 -48 317 -72 488
-120 529 -163 710 -754 28 -91 60 -199 71 -240 38 -143 36 -140 72 -133 18 3
33 7 35 8 1 1 9 40 18 86 19 104 21 381 3 694 -11 206 -13 222 -36 251 -20 27
-21 33 -9 43 12 10 18 8 33 -8 9 -12 21 -21 25 -21 4 0 29 -16 55 -36 26 -20
56 -40 68 -44 11 -4 53 -28 94 -54 84 -52 149 -75 306 -111 135 -30 132 -30
137 0 10 50 -43 134 -359 570 -171 236 -193 261 -267 319 -41 31 -38 47 11 51
41 4 253 127 250 145 -2 16 -27 23 -311 85 -292 63 -425 115 -661 255 -97 58
-149 81 -274 121 -196 63 -286 73 -376 39 -33 -12 -86 -26 -118 -30 -32 -4
-71 -13 -88 -20 -25 -11 -43 -8 -137 19 -201 58 -321 81 -447 86 -108 3 -128
1 -195 -21z m310 -54 c127 -9 308 -54 405 -100 l40 -19 110 35 c139 44 221 56
305 44 88 -13 269 -67 302 -90 41 -30 266 -146 339 -175 66 -26 405 -133 444
-140 11 -2 36 -9 55 -15 19 -7 54 -19 78 -27 55 -19 57 -45 3 -61 -43 -13
-210 -14 -346 -2 -49 4 -303 45 -564 89 -492 84 -490 84 -491 40 0 -13 45 -25
243 -63 341 -65 748 -133 837 -141 46 -3 94 -14 125 -29 57 -26 201 -158 248
-226 17 -25 47 -60 68 -78 21 -18 40 -45 44 -60 3 -15 27 -54 53 -86 26 -32
54 -68 62 -80 8 -11 33 -41 55 -64 53 -58 155 -224 155 -253 0 -14 -66 -3 -95
15 -11 7 -63 25 -115 40 -133 38 -137 40 -396 253 -105 85 -171 149 -223 213
-63 78 -77 91 -100 88 -51 -6 -39 -44 45 -148 199 -246 228 -327 240 -665 3
-88 10 -180 15 -205 11 -48 2 -260 -11 -260 -4 0 -11 12 -14 27 -6 26 -134
451 -155 516 -21 63 -109 196 -171 257 -126 127 -268 169 -870 260 -307 46
-343 47 -348 11 -5 -30 9 -43 55 -50 l38 -7 -160 -114 c-600 -427 -750 -505
-1280 -665 -65 -20 -120 -37 -122 -38 -4 -5 15 -159 36 -292 40 -250 90 -387
227 -631 89 -158 91 -163 54 -134 -56 44 -154 152 -201 221 -73 107 -137 268
-245 614 -54 174 -75 215 -110 215 -14 0 -27 -7 -31 -16 -3 -9 1 -110 11 -223
35 -429 19 -505 -135 -665 -45 -47 -85 -86 -90 -86 -4 0 1 19 11 42 10 24 31
84 46 133 25 83 27 107 31 305 5 243 0 273 -44 268 -25 -3 -31 -11 -58 -93
-31 -90 -94 -219 -103 -211 -5 5 10 263 34 576 58 781 124 940 554 1333 197
181 182 164 170 187 -15 29 -38 25 -189 -26 -115 -39 -247 -68 -231 -52 11 12
394 216 560 299 196 98 296 136 485 185 146 37 142 37 315 24z"/>
<path d="M1983 2883 c-11 -10 -28 -43 -37 -73 -19 -56 -251 -417 -322 -498
-20 -24 -154 -156 -298 -295 -252 -242 -377 -351 -436 -382 l-29 -15 29 63
c16 34 55 157 85 272 75 279 71 268 115 361 48 100 103 161 241 271 82 64 109
91 109 108 0 16 -7 25 -26 29 -21 6 -40 -3 -101 -50 -129 -97 -221 -191 -271
-279 -51 -88 -79 -156 -92 -225 -16 -86 -91 -345 -115 -397 -13 -29 -37 -72
-54 -97 -17 -25 -31 -48 -31 -51 0 -4 -9 -20 -21 -36 -29 -41 -24 -113 8 -117
25 -4 212 100 283 156 154 124 337 292 479 441 90 94 169 171 177 171 12 0
118 142 223 298 38 57 76 132 141 279 19 43 21 55 10 68 -17 20 -43 19 -67 -2z"/>
</g>
</svg>
