<?xml version="1.0" standalone="no"?>
<!DOCTYPE svg PUBLIC "-//W3C//DTD SVG 20010904//EN"
 "http://www.w3.org/TR/2001/REC-SVG-20010904/DTD/svg10.dtd">
<svg version="1.0" xmlns="http://www.w3.org/2000/svg"
 width="463.000000pt" height="537.000000pt" viewBox="0 0 463.000000 537.000000"
 preserveAspectRatio="xMidYMid meet">
<metadata>
Created by potrace 1.16, written by Peter Selinger 2001-2019
</metadata>
<g transform="translate(0.000000,537.000000) scale(0.100000,-0.100000)"
fill="#000000" stroke="none">
<path d="M1985 5344 c-288 -42 -432 -77 -665 -164 -189 -70 -279 -112 -365
-169 -178 -117 -551 -473 -638 -608 -48 -72 -143 -281 -178 -385 -20 -64 -30
-128 -60 -423 -31 -297 -35 -451 -15 -563 30 -174 97 -306 292 -579 86 -120
98 -134 122 -131 41 5 39 43 -8 203 -22 76 -40 145 -40 154 1 10 13 1 33 -24
18 -22 73 -85 123 -140 l91 -100 17 -290 c58 -975 91 -1143 339 -1715 65 -148
75 -165 98 -168 18 -2 31 4 41 20 14 21 13 35 -4 138 -11 63 -21 167 -22 230
-2 63 -15 214 -29 335 -34 284 -48 475 -42 539 3 28 7 110 9 181 2 72 11 177
20 235 9 58 25 180 36 272 11 92 31 236 44 320 30 192 46 322 46 380 0 59 43
266 116 556 l59 232 40 11 c167 45 621 223 635 249 5 10 53 41 106 69 53 29
180 101 283 161 103 61 195 110 205 110 9 0 32 -15 50 -34 73 -72 234 -211
301 -259 109 -77 216 -124 371 -162 123 -30 566 -105 621 -105 20 0 22 -7 28
-107 4 -60 5 -292 2 -518 -8 -535 -19 -631 -114 -955 -79 -271 -122 -400 -200
-590 -149 -363 -170 -445 -183 -693 -8 -164 -8 -172 20 -302 16 -74 33 -142
39 -153 5 -10 26 -81 45 -158 22 -89 41 -143 52 -151 26 -19 62 -16 74 6 11
22 13 156 1 184 -13 34 42 450 73 547 l15 45 0 -59 c1 -77 20 -235 31 -263 7
-18 18 -23 45 -23 44 0 50 12 65 145 16 148 41 240 146 550 109 324 230 727
269 900 34 155 58 318 85 590 12 121 26 224 31 230 22 23 3 548 -27 720 -21
124 -73 275 -150 435 -36 74 -70 147 -74 163 -17 55 -136 251 -196 321 -33 39
-94 97 -135 128 -94 72 -339 228 -358 228 -8 0 -50 23 -93 51 -173 111 -413
216 -624 274 -227 62 -341 77 -619 80 -137 2 -263 1 -280 -1z m525 -69 c225
-26 562 -132 792 -248 189 -95 249 -134 373 -237 50 -41 115 -93 145 -114 219
-156 320 -271 401 -456 20 -47 59 -132 87 -190 106 -224 136 -349 153 -650 13
-230 11 -273 -25 -620 -31 -289 -32 -301 -57 -450 -38 -230 -138 -585 -293
-1040 -51 -151 -102 -308 -112 -348 -10 -39 -22 -72 -25 -72 -21 0 17 217 73
414 46 165 46 190 1 194 -23 2 -34 -2 -41 -15 -15 -29 -148 -417 -187 -548
-37 -121 -68 -289 -82 -445 l-8 -85 -42 165 -42 165 9 170 c11 197 19 235 88
406 28 69 66 171 86 227 19 55 48 134 64 174 29 71 137 409 166 518 24 87 55
256 67 365 6 55 13 325 16 600 3 275 9 510 14 522 6 17 26 26 109 45 98 22
101 24 95 48 -4 14 -7 26 -8 26 -1 1 -157 64 -347 139 -524 208 -710 305 -796
411 -75 94 -134 186 -177 277 -43 91 -48 97 -76 97 -16 0 -32 -4 -35 -9 -10
-16 131 -290 189 -367 110 -147 234 -223 615 -382 118 -49 254 -104 302 -123
49 -19 88 -38 88 -42 0 -16 -34 -20 -74 -8 -23 6 -128 25 -234 41 -229 35
-357 65 -511 119 -190 67 -302 154 -542 421 -130 145 -157 170 -179 168 -46
-5 -38 -45 25 -121 31 -38 55 -70 53 -72 -6 -5 -423 -242 -485 -275 -35 -18
-63 -37 -63 -41 0 -30 -530 -232 -725 -277 -138 -32 -446 -62 -630 -62 l-60 0
125 71 c69 40 258 141 420 227 500 262 633 349 1073 700 150 119 168 137 165
160 -2 20 -9 28 -28 30 -19 2 -59 -25 -170 -114 -169 -136 -392 -305 -494
-373 -142 -96 -280 -173 -741 -416 -259 -136 -476 -254 -482 -263 -19 -24 -16
-51 10 -78 20 -22 30 -24 128 -24 l107 0 -35 -112 c-18 -62 -46 -169 -60 -238
-25 -116 -27 -143 -27 -370 1 -135 4 -267 8 -295 l8 -50 -32 30 c-63 59 -156
185 -200 271 l-45 87 1 216 c0 214 0 217 39 386 22 94 39 190 40 215 0 42 -2
45 -27 48 -36 4 -39 -4 -83 -210 -54 -258 -58 -298 -51 -546 6 -208 21 -336
47 -420 6 -18 9 -35 6 -38 -2 -3 -31 37 -64 88 -185 286 -204 422 -133 988 24
193 38 269 66 358 72 232 138 353 266 488 87 92 338 320 425 387 103 79 263
156 488 234 245 86 239 85 460 128 150 29 190 33 340 34 94 1 226 -6 295 -14z
m-1213 -1629 c-3 -8 -28 -87 -56 -177 -107 -349 -126 -465 -156 -949 -9 -135
-22 -299 -30 -365 -62 -508 -60 -819 11 -1429 14 -120 23 -223 21 -229 -8 -26
-188 446 -227 597 -40 157 -51 263 -60 576 -4 151 -14 361 -23 465 -32 388
-41 565 -41 775 0 247 8 303 81 553 l46 157 49 0 c63 0 280 20 333 30 58 11
58 11 52 -4z"/>
</g>
</svg>
