<?xml version="1.0" standalone="no"?>
<!DOCTYPE svg PUBLIC "-//W3C//DTD SVG 20010904//EN"
 "http://www.w3.org/TR/2001/REC-SVG-20010904/DTD/svg10.dtd">
<svg version="1.0" xmlns="http://www.w3.org/2000/svg"
 width="713.000000pt" height="769.000000pt" viewBox="0 0 713.000000 769.000000"
 preserveAspectRatio="xMidYMid meet">
<metadata>
Created by potrace 1.16, written by Peter Selinger 2001-2019
</metadata>
<g transform="translate(0.000000,769.000000) scale(0.100000,-0.100000)"
fill="#000000" stroke="none">
<path d="M2719 7263 c-78 -95 -122 -160 -171 -253 -36 -69 -98 -186 -138 -260
-105 -193 -268 -530 -340 -705 -62 -148 -260 -678 -260 -694 0 -5 7 -14 15
-21 11 -9 33 -10 102 0 97 13 253 44 323 65 55 16 135 34 175 40 17 2 62 12
100 20 76 18 185 24 226 12 25 -6 28 -3 67 81 56 122 88 229 106 362 9 63 21
134 26 158 19 81 5 454 -26 702 -13 104 -89 586 -97 613 -1 5 -50 -49 -108
-120z m95 -233 c66 -406 71 -448 70 -700 0 -219 -2 -248 -33 -428 -18 -106
-43 -223 -55 -260 -20 -60 -26 -67 -51 -70 -15 -2 -44 0 -64 4 l-36 8 35 5
c32 5 38 13 71 77 43 87 74 216 61 259 -14 49 -41 44 -147 -31 -53 -36 -120
-75 -148 -86 l-52 -19 57 51 c60 53 158 199 158 234 0 27 -29 56 -55 56 -20 0
-124 -29 -173 -47 -8 -4 16 25 55 63 53 52 79 88 107 147 21 46 36 90 34 105
-3 23 -9 28 -48 35 -40 8 -60 4 -172 -36 -71 -25 -128 -44 -128 -41 0 9 137
277 272 534 171 323 201 377 204 364 2 -5 19 -106 38 -224z m-275 -712 c-37
-74 -68 -106 -185 -195 -119 -89 -131 -108 -97 -145 9 -10 27 -18 41 -18 19 0
154 38 270 75 19 7 -62 -109 -99 -139 -18 -15 -86 -54 -151 -87 -99 -50 -118
-63 -118 -82 0 -51 42 -58 193 -31 99 17 183 45 239 80 l37 24 -20 -34 c-37
-64 -97 -122 -152 -149 -49 -24 -223 -65 -352 -83 -27 -3 -58 -11 -67 -16 -22
-11 -23 -41 -3 -72 l16 -24 -53 -6 c-29 -4 -70 -9 -90 -12 l-38 -6 36 99 c89
246 168 449 224 578 34 77 64 147 67 157 3 11 57 35 161 71 87 30 158 55 160
56 1 0 -7 -18 -19 -41z"/>
<path d="M6124 6294 c-58 -40 -150 -122 -334 -299 -183 -177 -249 -236 -360
-317 -82 -60 -236 -158 -316 -202 l-51 -28 -42 21 -41 21 -20 -20 c-30 -30
-14 -51 85 -107 l84 -48 -62 -17 c-76 -22 -156 -23 -204 -3 -19 8 -38 15 -40
15 -9 0 9 -65 20 -75 7 -6 17 -19 23 -30 21 -38 303 -141 475 -173 57 -11 158
-23 225 -27 l121 -7 49 37 c27 21 62 57 79 81 16 24 36 44 44 44 8 0 12 3 8 6
-3 4 2 14 12 23 25 23 86 165 101 233 6 32 19 63 29 70 22 16 51 89 51 127 0
16 11 53 24 82 14 30 29 90 35 134 24 178 33 221 50 240 34 39 55 207 29 233
-18 18 -31 15 -74 -14z m-53 -342 c-65 -278 -120 -441 -219 -649 l-29 -62 -53
54 -53 54 59 63 c62 67 154 218 154 254 0 41 -23 48 -99 29 -55 -13 -89 -15
-158 -10 l-88 8 60 51 c33 28 152 140 264 250 113 109 207 193 209 188 2 -6
-20 -109 -47 -230z m-288 -402 c-67 -105 -137 -159 -208 -160 -37 0 -55 -16
-55 -46 0 -25 17 -34 69 -34 39 0 66 -14 119 -64 57 -52 58 -61 16 -118 l-38
-51 -115 8 c-153 9 -259 28 -389 70 -59 18 -118 35 -132 37 -18 3 5 14 75 37
126 42 152 56 160 82 9 27 -16 54 -73 79 l-45 20 26 20 c14 11 28 20 32 20 3
0 56 32 118 72 66 42 128 74 152 79 22 3 104 6 181 5 l141 -1 -34 -55z"/>
<path d="M2183 3976 c-67 -24 -123 -41 -125 -36 -2 4 -24 3 -49 -3 l-45 -11
-53 -114 c-71 -154 -161 -380 -261 -655 -101 -275 -102 -266 37 -247 97 13
253 44 323 65 55 16 134 34 175 40 97 14 160 34 175 54 8 13 28 38 44 57 18
22 23 34 15 35 -8 1 2 4 21 8 31 5 39 13 71 77 43 87 74 216 61 259 -14 49
-41 44 -147 -31 -53 -36 -120 -75 -148 -86 l-52 -19 57 51 c61 55 158 199 158
236 0 26 -30 54 -57 54 -18 0 -124 -29 -171 -47 -8 -4 16 25 55 63 53 52 79
88 107 146 35 76 45 121 27 132 -5 4 -29 8 -53 11 -34 4 -68 -4 -165 -39z
m116 -78 c-37 -74 -68 -106 -185 -195 -119 -89 -131 -108 -97 -145 9 -10 27
-18 41 -18 19 0 154 38 270 75 19 7 -62 -109 -99 -139 -18 -15 -86 -54 -151
-87 -99 -50 -118 -63 -118 -82 0 -51 42 -58 193 -31 99 17 183 45 239 80 l37
24 -20 -34 c-37 -64 -97 -122 -152 -149 -49 -24 -223 -65 -352 -83 -27 -3 -58
-11 -67 -16 -22 -11 -23 -41 -3 -72 l16 -24 -53 -6 c-29 -4 -70 -9 -90 -12
l-38 -6 36 99 c89 246 168 449 224 578 34 77 64 147 67 157 3 11 57 35 161 71
87 30 158 55 160 56 1 0 -7 -18 -19 -41z"/>
<path d="M5125 3904 c-28 -8 -76 -13 -110 -11 -33 2 -75 0 -94 -5 -22 -7 -41
-6 -55 1 -12 5 -41 12 -66 14 -39 3 -52 -1 -95 -33 -61 -45 -222 -146 -291
-184 l-51 -28 -42 21 -41 21 -20 -20 c-30 -30 -14 -51 85 -107 l84 -48 -62
-17 c-76 -22 -156 -23 -204 -3 -19 8 -38 15 -40 15 -9 0 9 -65 20 -75 7 -6 17
-19 23 -30 21 -38 303 -141 475 -173 57 -11 158 -23 225 -27 l121 -7 49 37
c27 21 62 57 79 81 16 24 36 44 43 44 7 0 10 5 7 10 -3 6 0 10 7 10 7 0 -25
38 -71 84 l-84 85 59 63 c62 67 154 218 154 254 0 24 -18 44 -39 43 -9 0 -38
-7 -66 -15z m-42 -144 c-67 -105 -137 -159 -208 -160 -37 0 -55 -16 -55 -46 0
-25 17 -34 69 -34 39 0 66 -14 119 -64 57 -52 58 -61 16 -118 l-38 -51 -115 8
c-153 9 -259 28 -389 70 -59 18 -118 35 -132 37 -18 3 5 14 75 37 126 42 152
56 160 82 9 27 -16 54 -73 79 l-45 20 26 20 c14 11 28 20 32 20 3 0 56 32 118
72 66 42 128 74 152 79 22 3 104 6 181 5 l141 -1 -34 -55z"/>
</g>
</svg>
