<?xml version="1.0" standalone="no"?>
<!DOCTYPE svg PUBLIC "-//W3C//DTD SVG 20010904//EN"
 "http://www.w3.org/TR/2001/REC-SVG-20010904/DTD/svg10.dtd">
<svg version="1.0" xmlns="http://www.w3.org/2000/svg"
 width="713.000000pt" height="769.000000pt" viewBox="0 0 713.000000 769.000000"
 preserveAspectRatio="xMidYMid meet">
<metadata>
Created by potrace 1.16, written by Peter Selinger 2001-2019
</metadata>
<g transform="translate(0.000000,769.000000) scale(0.100000,-0.100000)"
fill="#000000" stroke="none">
<path d="M2868 7578 c-985 -1098 -1168 -1331 -1683 -2133 -81 -126 -171 -266
-200 -310 -49 -76 -54 -87 -79 -219 -25 -130 -30 -144 -68 -195 -89 -120 -319
-377 -455 -509 -34 -34 -43 -50 -41 -70 2 -21 9 -28 30 -30 48 -6 330 79 430
129 32 16 62 29 68 29 5 0 10 -14 10 -31 0 -35 -32 -83 -278 -409 -85 -113
-194 -246 -243 -295 -84 -85 -89 -93 -89 -133 0 -54 14 -82 42 -82 29 0 290
138 518 275 104 62 190 111 190 107 0 -19 -39 -105 -73 -162 -53 -88 -109
-166 -206 -285 -61 -75 -81 -106 -79 -125 4 -36 54 -39 103 -6 21 15 41 26 44
26 11 0 -16 -231 -34 -290 -15 -47 -66 -185 -156 -420 -12 -30 -38 -84 -57
-120 -20 -36 -46 -85 -58 -110 -27 -55 -95 -120 -242 -229 -110 -81 -112 -84
-112 -122 0 -34 4 -41 28 -50 33 -14 158 -6 353 21 172 24 164 22 266 72 78
38 107 62 161 133 12 17 20 23 17 15 -57 -175 -105 -352 -103 -375 2 -24 8
-31 30 -33 33 -4 377 105 501 158 l89 39 35 -20 c20 -11 45 -19 57 -17 18 3
22 11 26 63 4 51 11 68 47 115 22 30 58 87 79 125 20 39 39 72 41 74 6 8 32
-35 89 -148 30 -62 77 -141 105 -177 27 -36 49 -69 49 -73 0 -5 60 -60 133
-123 220 -190 220 -189 247 -186 22 3 26 10 33 56 8 50 6 58 -41 162 l-50 110
102 -107 c55 -59 162 -155 236 -215 123 -98 139 -108 177 -108 38 0 43 3 49
27 8 32 18 6 -151 383 -223 497 -317 748 -380 1017 -14 56 -27 117 -30 135
-20 130 -26 167 -35 193 -14 44 -40 205 -40 245 0 20 -4 40 -9 45 -5 6 -11 29
-13 53 l-3 44 216 77 c119 43 267 103 330 133 121 58 365 198 489 280 41 27
82 48 91 46 9 -2 108 -90 220 -197 350 -333 434 -393 651 -467 154 -52 425
-117 558 -133 36 -5 127 -23 203 -40 168 -39 280 -41 285 -5 3 23 -44 103
-100 171 -21 24 -38 50 -38 57 0 7 -13 25 -30 41 -16 16 -28 30 -26 33 9 8
185 -81 179 -91 -3 -6 -1 -7 6 -3 17 11 78 -39 111 -91 29 -45 56 -133 96
-313 12 -58 27 -123 33 -144 12 -47 -6 -210 -64 -596 -51 -339 -117 -726 -126
-736 -18 -22 -7 -59 19 -62 42 -6 239 174 321 293 47 67 158 284 176 343 6 22
11 19 85 -52 43 -42 95 -83 116 -92 47 -20 244 -35 244 -19 0 6 -31 85 -69
176 -169 405 -201 534 -217 870 -4 75 -4 145 0 155 6 15 21 4 92 -67 202 -200
240 -271 353 -665 20 -66 48 -108 79 -116 21 -5 39 80 58 273 33 348 -1 463
-204 682 -24 27 -42 50 -40 52 2 3 44 -11 94 -29 163 -61 313 -108 322 -102
16 10 21 44 8 59 -6 8 -69 54 -141 102 -260 177 -363 270 -423 384 -27 51
-102 250 -102 272 0 12 117 -31 173 -64 69 -41 145 -115 262 -256 87 -105 112
-130 137 -133 21 -3 37 1 49 13 16 16 16 20 -1 80 -23 81 -125 331 -174 429
-21 41 -60 104 -86 140 -46 62 -216 234 -344 348 -48 44 -56 55 -46 67 7 8 18
15 24 15 24 0 176 108 365 259 167 134 192 157 189 179 -6 47 -25 49 -187 21
l-149 -26 24 32 c26 35 31 64 12 83 -20 20 -33 14 -108 -44 l-71 -56 30 59
c51 103 156 415 191 573 35 158 94 705 101 950 l3 65 -40 -1 c-34 -1 -298
-109 -518 -213 -22 -11 -138 -60 -256 -109 -191 -79 -241 -104 -449 -233 -128
-79 -244 -155 -256 -169 -190 -204 -378 -370 -420 -370 -3 0 27 39 66 88 105
129 158 250 147 337 -4 35 -39 46 -66 21 -42 -38 -225 -89 -662 -185 -112 -25
-251 -64 -342 -97 -63 -23 -112 -46 -237 -113 -14 -8 -90 -56 -169 -107 l-143
-94 -30 16 c-25 12 -28 18 -18 30 12 15 42 161 84 424 35 217 45 525 21 705
-16 124 -171 933 -187 973 -7 17 -16 22 -47 22 -35 0 -44 -6 -104 -72z m100
-64 c5 -9 7 -25 5 -34 -3 -10 20 -135 51 -279 104 -483 111 -539 110 -831 0
-246 -2 -262 -36 -460 -32 -181 -72 -328 -97 -353 -12 -12 -61 11 -61 28 0 9
18 69 39 133 25 73 46 161 56 232 8 63 20 134 25 158 19 81 5 454 -26 702 -13
104 -89 586 -97 613 -1 5 -50 -49 -108 -120 -78 -95 -122 -160 -171 -253 -36
-69 -98 -186 -138 -260 -105 -193 -268 -530 -340 -705 -62 -148 -260 -678
-260 -694 0 -5 7 -14 15 -21 11 -9 33 -10 102 0 97 13 253 44 323 65 55 16
135 34 175 40 17 2 59 11 95 18 149 33 231 27 340 -21 l45 -21 -82 0 c-210 -2
-1004 -150 -1038 -193 -5 -8 -56 -53 -111 -101 -92 -79 -120 -110 -208 -229
-15 -21 -33 -38 -40 -38 -7 0 -19 -12 -27 -26 -13 -24 -12 -28 5 -38 11 -6 27
-19 37 -28 10 -9 19 -13 21 -8 2 4 72 -14 156 -41 203 -64 287 -81 407 -82 78
-1 117 4 175 22 95 29 241 106 396 208 66 43 175 110 243 147 67 38 125 75
128 83 3 8 1 28 -4 46 -15 53 -44 47 -157 -33 -55 -39 -134 -89 -175 -112 -42
-23 -92 -53 -111 -66 -51 -35 -193 -101 -290 -135 -121 -42 -263 -48 -461 -17
-79 13 -164 30 -188 40 l-43 17 45 37 c25 20 72 72 105 114 134 173 208 209
547 272 284 53 514 80 682 80 160 0 203 7 203 33 0 14 278 174 459 264 69 35
188 83 266 108 135 44 519 140 618 154 l48 8 -6 -29 c-10 -44 -73 -160 -107
-195 -37 -39 -139 -93 -227 -122 -82 -27 -308 -70 -570 -111 -112 -17 -217
-38 -235 -47 -17 -8 -59 -36 -94 -60 -54 -38 -63 -49 -60 -71 5 -41 44 -41 98
1 78 59 118 74 218 82 60 5 95 12 98 20 3 7 33 15 71 19 36 4 78 13 94 21 15
8 46 15 68 15 22 0 88 9 147 21 73 14 114 17 128 11 12 -5 91 -22 176 -38
l155 -29 -90 -7 c-188 -16 -366 -50 -663 -129 -234 -62 -234 -62 -230 -97 2
-20 9 -28 28 -30 14 -2 129 24 255 58 244 64 386 92 552 110 100 11 103 10
155 -16 32 -15 91 -63 148 -119 139 -136 234 -211 323 -255 43 -22 73 -42 66
-44 -8 -3 -185 -28 -394 -56 -209 -28 -390 -56 -403 -61 -18 -7 -23 -16 -20
-37 2 -22 9 -28 34 -30 17 -2 292 33 610 76 318 44 651 87 739 96 113 12 229
33 393 71 239 57 271 62 288 45 5 -5 24 -6 47 -1 20 5 37 8 37 6 0 -2 -53 -45
-117 -97 -720 -576 -896 -648 -1663 -688 -124 -7 -236 -15 -250 -19 -20 -6
-25 -14 -25 -42 0 -32 2 -34 39 -37 50 -4 549 34 696 54 63 8 147 22 185 31
156 35 376 136 547 251 l104 69 95 -62 c162 -107 230 -190 408 -499 137 -237
137 -234 0 -101 -142 138 -197 176 -312 216 -83 29 -123 35 -143 21 -13 -8 28
-198 46 -216 6 -6 10 -21 10 -36 0 -31 60 -149 103 -204 18 -22 67 -79 109
-126 43 -47 78 -90 78 -97 0 -7 9 -17 21 -23 51 -28 3 -15 -121 31 -151 56
-183 59 -188 16 -3 -24 2 -30 40 -47 29 -12 76 -54 143 -126 239 -256 274
-335 261 -583 -4 -69 -10 -129 -13 -135 -4 -5 -21 37 -40 94 -68 211 -132 310
-322 503 -80 80 -123 117 -138 117 -38 0 -49 -48 -57 -245 -9 -209 3 -344 40
-473 24 -84 113 -305 188 -464 26 -57 32 -78 21 -78 -26 0 -170 49 -203 70
-38 24 -95 100 -102 138 -4 22 -11 27 -35 27 -29 0 -34 -7 -109 -155 -92 -183
-180 -319 -266 -413 -34 -37 -64 -66 -66 -64 -2 1 26 149 62 327 102 508 116
610 118 845 1 192 0 204 -28 300 -16 55 -36 135 -46 177 -37 163 -108 222
-380 321 -357 130 -490 186 -660 281 -191 105 -225 115 -225 61 0 -28 10 -34
190 -133 318 -174 481 -294 647 -476 69 -76 72 -73 -37 -45 -22 6 -62 14 -90
18 -27 5 -64 14 -81 20 -17 7 -35 11 -40 9 -5 -1 -29 3 -54 10 -25 6 -117 27
-206 47 -492 107 -656 206 -1035 621 -80 87 -139 144 -150 144 -11 0 -95 -47
-187 -103 -220 -137 -366 -217 -482 -268 -102 -44 -1071 -372 -1078 -364 -7 7
85 220 141 329 121 232 264 328 808 541 380 149 354 136 354 170 0 25 -5 31
-25 33 -23 3 -373 -129 -605 -228 -355 -151 -499 -269 -620 -510 -51 -100
-145 -328 -145 -350 0 -22 25 -70 41 -80 6 -4 131 32 278 81 146 49 270 88
275 86 5 -2 33 -131 61 -288 75 -404 111 -551 186 -767 86 -242 296 -728 340
-783 16 -20 29 -49 29 -64 0 -14 5 -35 11 -47 6 -11 8 -22 6 -24 -9 -9 -201
152 -277 232 -93 97 -179 218 -348 484 -119 189 -132 205 -158 205 -27 0 -29
-3 -32 -45 -2 -40 11 -74 114 -290 64 -135 117 -251 117 -257 0 -7 4 -13 9
-13 5 0 6 -5 3 -10 -3 -5 -2 -10 3 -10 11 0 65 -120 58 -128 -15 -14 -184 149
-251 243 -77 107 -205 403 -284 656 -11 35 -35 111 -53 169 -37 117 -56 135
-81 78 -9 -18 -37 -139 -62 -268 -41 -202 -46 -246 -41 -310 3 -41 9 -124 12
-185 l7 -110 -35 45 c-64 83 -120 181 -140 243 -17 54 -19 86 -16 237 1 96 -1
181 -5 188 -5 6 -19 12 -32 12 -19 0 -37 -20 -90 -100 -36 -55 -72 -100 -79
-100 -8 0 -23 -16 -35 -35 -15 -27 -40 -45 -103 -75 -48 -23 -86 -36 -91 -31
-11 11 0 31 17 31 13 0 51 74 82 161 42 118 188 823 182 878 -4 37 -49 42 -72
7 -9 -15 -22 -26 -29 -26 -8 0 -55 -23 -106 -51 -50 -29 -94 -50 -96 -47 -3 2
15 31 39 64 53 71 185 326 211 409 26 80 20 149 -13 153 -16 3 -117 -56 -338
-197 -339 -216 -330 -213 -177 -43 40 45 152 188 250 319 l177 238 167 354
c92 194 165 359 162 366 -9 25 -52 46 -71 36 -10 -5 -49 -61 -87 -123 -178
-292 -275 -424 -363 -493 -54 -42 -166 -92 -252 -110 -33 -7 -30 -3 64 96 116
123 218 256 392 514 70 105 133 195 139 201 6 6 34 47 63 92 62 94 66 125 15
130 -32 3 -35 0 -143 -165 -66 -101 -110 -160 -110 -147 0 30 30 82 179 312
72 112 131 209 131 216 0 7 11 23 25 36 13 12 22 26 20 30 -3 4 2 14 11 21 9
7 79 108 157 223 279 415 527 726 1027 1286 56 63 161 186 232 273 100 120
136 157 154 157 13 0 27 -7 32 -16z m-44 -444 c66 -406 71 -448 70 -700 0
-219 -2 -248 -33 -428 -18 -106 -43 -223 -55 -260 -20 -60 -26 -67 -51 -70
-15 -2 -44 0 -64 4 l-36 8 35 5 c32 5 38 13 71 77 43 87 74 216 61 259 -14 49
-41 44 -147 -31 -53 -36 -120 -75 -148 -86 l-52 -19 57 51 c60 53 158 199 158
234 0 27 -29 56 -55 56 -20 0 -124 -29 -173 -47 -8 -4 16 25 55 63 53 52 79
88 107 147 21 46 36 90 34 105 -3 23 -9 28 -48 35 -40 8 -60 4 -172 -36 -71
-25 -128 -44 -128 -41 0 9 137 277 272 534 171 323 201 377 204 364 2 -5 19
-106 38 -224z m3486 -462 c0 -13 -7 -97 -15 -188 -8 -91 -19 -219 -25 -285 -5
-66 -13 -129 -16 -140 -3 -11 -7 -40 -10 -65 -26 -238 -74 -389 -225 -712
l-64 -138 -133 0 -133 0 28 40 c15 22 34 40 42 40 8 0 12 3 8 6 -3 4 2 14 12
23 25 23 86 165 101 233 6 32 19 63 29 70 22 16 51 89 51 127 0 16 11 53 24
82 14 30 29 90 35 134 24 178 33 221 50 240 21 24 41 108 41 175 0 127 -66 87
-416 -252 -187 -180 -253 -238 -364 -320 -82 -60 -236 -158 -316 -202 l-51
-28 -42 21 -41 21 -20 -20 c-30 -30 -14 -51 85 -107 l84 -48 -62 -17 c-102
-29 -160 -24 -252 21 l-80 38 58 26 c47 22 57 30 57 51 0 31 -15 40 -57 38
-18 -2 -93 9 -166 23 -199 38 -192 34 -109 56 146 37 216 86 407 280 206 210
382 315 935 557 151 67 334 148 405 181 72 32 133 60 138 60 4 1 7 -9 7 -21z
m-3761 -250 c-37 -74 -68 -106 -185 -195 -119 -89 -131 -108 -97 -145 9 -10
27 -18 41 -18 19 0 154 38 270 75 19 7 -62 -109 -99 -139 -18 -15 -86 -54
-151 -87 -99 -50 -118 -63 -118 -82 0 -51 42 -58 193 -31 99 17 183 45 239 80
l37 24 -20 -34 c-37 -64 -97 -122 -152 -149 -49 -24 -223 -65 -352 -83 -27 -3
-58 -11 -67 -16 -22 -11 -23 -41 -3 -72 l16 -24 -53 -6 c-29 -4 -70 -9 -90
-12 l-38 -6 36 99 c89 246 168 449 224 578 34 77 64 147 67 157 3 11 57 35
161 71 87 30 158 55 160 56 1 0 -7 -18 -19 -41z m3422 -406 c-65 -278 -120
-441 -219 -649 l-29 -62 -53 54 -53 54 59 63 c62 67 154 218 154 254 0 41 -23
48 -99 29 -55 -13 -89 -15 -158 -10 l-88 8 60 51 c33 28 152 140 264 250 113
109 207 193 209 188 2 -6 -20 -109 -47 -230z m-288 -402 c-67 -105 -137 -159
-208 -160 -37 0 -55 -16 -55 -46 0 -25 17 -34 69 -34 39 0 66 -14 119 -64 57
-52 58 -61 16 -118 l-38 -51 -115 8 c-153 9 -259 28 -389 70 -59 18 -118 35
-132 37 -18 3 5 14 75 37 126 42 152 56 160 82 9 27 -16 54 -73 79 l-45 20 26
20 c14 11 28 20 32 20 3 0 56 32 118 72 66 42 128 74 152 79 22 3 104 6 181 5
l141 -1 -34 -55z m-838 -394 c130 -54 284 -103 401 -127 95 -19 139 -22 352
-22 134 1 241 -2 238 -5 -9 -9 -238 -40 -387 -53 -228 -19 -371 6 -507 89 -62
37 -201 152 -185 152 5 0 44 -15 88 -34z m-3911 -2122 c-69 -345 -102 -467
-158 -592 -25 -56 -46 -108 -46 -116 0 -7 10 -26 22 -41 19 -25 26 -27 72 -22
28 2 60 8 70 12 27 12 -114 -194 -164 -239 -86 -78 -208 -118 -415 -135 -70
-6 -130 -10 -131 -8 -2 2 35 32 81 66 47 35 115 93 150 129 59 59 70 78 125
209 34 79 90 219 126 311 35 92 73 185 84 207 10 22 21 63 24 90 4 44 14 115
31 208 2 15 1 26 -4 23 -15 -10 6 64 25 85 9 10 25 19 34 19 9 0 41 13 71 30
30 16 54 30 55 30 1 0 -23 -120 -52 -266z m640 -519 c15 -47 29 -96 32 -110 2
-13 13 -44 23 -68 l19 -44 -57 -104 c-100 -183 -93 -187 -88 61 4 197 20 350
36 350 4 0 19 -38 35 -85z m-401 -307 c19 -60 75 -163 127 -233 22 -30 40 -58
40 -64 0 -5 -35 -24 -77 -41 -103 -43 -383 -134 -390 -126 -9 9 159 549 177
571 10 11 35 47 56 79 l39 59 6 -99 c4 -54 13 -120 22 -146z"/>
</g>
</svg>
