<?xml version="1.0" standalone="no"?>
<!DOCTYPE svg PUBLIC "-//W3C//DTD SVG 20010904//EN"
 "http://www.w3.org/TR/2001/REC-SVG-20010904/DTD/svg10.dtd">
<svg version="1.0" xmlns="http://www.w3.org/2000/svg"
 width="635.000000pt" height="558.000000pt" viewBox="0 0 635.000000 558.000000"
 preserveAspectRatio="xMidYMid meet">
<metadata>
Created by potrace 1.16, written by Peter Selinger 2001-2019
</metadata>
<g transform="translate(0.000000,558.000000) scale(0.100000,-0.100000)"
fill="#000000" stroke="none">
<path d="M4695 5296 c-253 -104 -629 -333 -809 -491 l-98 -87 -67 7 c-36 3
-82 10 -101 15 -59 15 -370 40 -496 40 -139 0 -499 -26 -564 -40 -25 -5 -90
-19 -145 -30 -55 -10 -125 -27 -155 -36 -30 -9 -102 -29 -160 -44 -58 -15
-127 -39 -155 -53 -27 -14 -62 -29 -77 -32 -16 -4 -28 -10 -28 -14 0 -4 -11
-13 -25 -19 -22 -10 -31 -8 -71 23 -25 19 -52 35 -59 35 -7 0 -48 18 -89 40
-42 23 -82 40 -89 38 -7 -1 -25 2 -42 9 -286 109 -622 190 -832 200 l-123 6
-1 -64 c-7 -350 99 -767 296 -1158 76 -152 75 -145 50 -441 -41 -483 -105
-886 -245 -1525 -53 -240 -80 -386 -84 -450 -4 -62 -34 -132 -86 -202 -41 -53
-49 -73 -29 -73 26 0 168 75 211 110 25 22 49 40 52 40 3 0 6 -13 6 -29 0
-140 73 -332 159 -422 73 -76 99 -65 83 34 -5 31 -8 57 -6 57 1 0 21 -28 45
-62 106 -157 241 -275 403 -354 99 -49 111 -51 124 -27 7 12 -3 36 -43 97 -64
99 -91 153 -139 276 -21 52 -46 113 -56 135 -55 117 -97 354 -105 590 -7 189
5 282 50 415 33 96 51 181 76 360 24 180 81 458 109 536 12 33 27 88 35 124 8
36 19 81 25 100 6 19 15 61 20 93 14 91 87 307 128 377 20 35 58 85 84 111 51
51 212 189 221 189 9 0 -34 -182 -65 -275 -73 -216 -238 -483 -330 -531 -34
-18 -38 -58 -8 -74 16 -8 31 -6 66 10 26 11 58 20 72 20 13 0 50 15 81 32 31
18 104 54 163 79 200 87 324 192 393 332 20 40 55 128 79 196 39 113 44 121
49 91 4 -18 7 -102 7 -187 0 -221 -18 -280 -151 -505 -68 -116 -71 -123 -63
-162 16 -76 52 -64 259 82 66 47 154 120 195 161 103 104 135 172 200 431 28
112 53 206 55 208 9 10 149 -94 234 -174 89 -84 159 -171 196 -244 10 -19 38
-89 62 -155 24 -66 50 -125 57 -131 32 -23 119 7 101 36 -2 4 18 66 45 138 63
170 74 221 68 326 -2 47 -3 86 -1 86 1 0 23 -39 47 -87 65 -131 210 -635 306
-1063 58 -260 63 -350 31 -535 -54 -312 -135 -553 -252 -751 -32 -55 -59 -106
-59 -112 0 -19 26 -14 98 19 42 20 86 32 117 34 28 1 73 5 101 10 l51 7 -9
-68 c-22 -165 -136 -438 -262 -626 -18 -27 -18 -28 0 -35 25 -9 231 99 354
185 114 81 278 241 345 337 69 100 68 99 61 17 -8 -81 -2 -112 21 -112 9 0 44
15 78 34 43 23 70 32 88 29 22 -4 30 0 44 27 10 18 27 40 38 49 11 8 76 71
143 139 68 68 126 121 130 118 3 -4 13 -25 21 -49 31 -83 86 -170 154 -243
103 -111 106 -108 106 89 -1 157 8 256 31 365 l12 53 53 -50 c99 -94 219 -158
359 -191 98 -24 154 -26 162 -5 4 9 -14 37 -46 72 -64 72 -150 213 -189 313
-108 272 -162 413 -159 415 2 2 41 -10 87 -26 85 -30 264 -58 294 -46 33 12
17 42 -44 82 -125 82 -259 253 -362 460 -82 164 -105 229 -122 334 -23 143
-113 544 -132 591 -3 8 -8 25 -10 38 -16 95 -130 359 -212 491 l-52 85 12 85
c21 138 16 424 -10 564 -40 222 -131 500 -225 688 -56 113 -62 116 -161 75z
m110 -118 c65 -144 112 -268 153 -413 72 -251 77 -292 76 -570 -1 -217 -11
-295 -64 -472 -30 -102 -28 -123 11 -123 21 0 39 36 58 118 7 28 16 54 20 57
11 6 84 -125 135 -245 78 -183 165 -510 222 -837 20 -113 35 -169 71 -251 85
-202 183 -357 306 -487 36 -39 62 -71 57 -73 -16 -6 -117 27 -187 60 -43 21
-94 58 -149 111 -87 82 -116 94 -122 46 -2 -20 10 -37 57 -82 45 -43 70 -79
105 -149 41 -86 124 -290 141 -348 4 -14 20 -51 36 -83 15 -31 26 -57 23 -57
-2 0 6 -19 18 -41 13 -23 27 -50 33 -60 5 -11 13 -19 17 -19 5 0 8 -6 8 -13 0
-8 14 -33 31 -56 17 -24 28 -45 25 -48 -11 -11 -148 41 -213 81 -86 53 -105
69 -155 133 l-40 52 25 76 c26 77 27 99 2 109 -26 9 -44 -20 -78 -129 -56
-173 -89 -395 -81 -545 l3 -64 -25 29 c-33 40 -107 164 -117 195 -16 52 -18
101 -7 154 6 31 15 58 19 61 5 2 21 -21 37 -53 39 -75 67 -82 85 -20 20 70 18
338 -4 430 -64 272 -207 517 -463 791 -393 421 -554 631 -666 868 -30 64 -73
142 -95 175 -22 32 -66 104 -98 159 -59 101 -144 203 -154 187 -3 -6 -14 -11
-24 -13 -15 -3 -9 -16 38 -74 138 -172 211 -334 441 -975 102 -286 111 -317
99 -337 -14 -21 -7 -70 13 -96 5 -7 35 -127 66 -267 32 -140 60 -262 63 -270
28 -72 50 -194 48 -265 -4 -137 -52 -227 -164 -308 -63 -46 -199 -113 -246
-121 -11 -2 -40 -9 -65 -16 -84 -23 -83 -23 -39 41 50 73 82 146 112 247 19
67 22 100 21 252 0 146 -4 190 -23 265 -12 50 -26 107 -30 128 -5 21 -11 41
-15 44 -3 3 2 12 11 18 16 12 16 17 1 81 -9 38 -24 112 -34 164 -24 130 -173
677 -241 884 -65 198 -127 322 -242 486 l-83 120 -44 0 c-55 0 -55 0 -8 -185
58 -233 60 -328 6 -500 l-28 -90 -56 108 c-102 195 -186 294 -376 446 -35 28
-89 63 -120 77 -32 15 -65 34 -75 42 -10 10 -21 12 -26 6 -5 -5 -23 -69 -40
-142 -77 -323 -137 -434 -320 -602 -135 -124 -139 -126 -97 -42 63 125 106
239 106 281 0 23 5 41 10 41 22 0 11 183 -16 286 -15 55 -32 124 -38 154 -11
50 -15 55 -42 58 -16 2 -34 8 -40 13 -7 6 -16 -10 -28 -46 -27 -86 -130 -298
-190 -389 -29 -46 -73 -102 -97 -125 -39 -38 -286 -211 -301 -211 -3 0 25 57
62 128 81 150 130 267 160 377 67 247 65 234 38 244 -13 5 -32 23 -43 40 -11
17 -25 33 -31 35 -23 9 -305 -231 -377 -319 -94 -117 -138 -239 -202 -569 -19
-94 -52 -254 -75 -356 -22 -102 -50 -250 -61 -330 -11 -80 -48 -253 -81 -384
-51 -205 -59 -247 -53 -295 3 -31 8 -148 10 -261 4 -193 6 -211 35 -310 17
-58 32 -112 34 -120 11 -39 76 -230 92 -270 11 -25 38 -82 60 -127 23 -46 40
-83 37 -83 -3 0 -35 20 -72 44 -101 68 -222 196 -290 309 -45 74 -95 183 -106
230 -9 40 -18 63 -30 77 -18 21 -49 318 -41 388 8 63 27 128 63 216 25 61 25
86 -2 86 -17 0 -55 -78 -87 -184 -26 -85 -29 -200 -9 -381 14 -130 37 -289 51
-345 4 -19 11 -48 15 -65 l6 -30 -20 22 c-12 12 -21 25 -21 28 0 3 -7 22 -16
43 -41 91 -47 148 -47 407 1 282 11 394 64 689 22 121 38 225 35 233 -6 14
-32 18 -40 5 -10 -17 -86 -470 -95 -572 -6 -58 -13 -178 -17 -267 l-7 -163
-70 -45 c-39 -25 -72 -44 -73 -42 -2 2 6 28 17 57 20 52 51 193 69 310 5 30
31 163 60 295 61 287 126 626 154 810 2 11 6 27 9 35 16 45 40 142 47 187 5
28 11 56 14 61 7 11 29 385 28 477 -1 113 25 177 140 344 232 336 372 491 597
666 126 98 161 118 309 187 287 132 451 171 878 208 123 11 470 9 524 -3 14
-3 52 -8 85 -12 33 -3 76 -10 95 -15 19 -5 61 -14 92 -20 l57 -11 -49 -69
c-52 -70 -62 -103 -34 -114 28 -11 31 -8 106 96 158 221 356 375 710 551 107
54 291 136 304 137 6 0 28 -37 49 -82z m-4043 -392 c79 -14 181 -34 228 -46
47 -11 98 -23 114 -26 54 -10 275 -84 281 -94 3 -6 12 -10 20 -10 14 0 133
-53 195 -88 19 -11 52 -28 73 -38 20 -10 37 -26 37 -34 0 -9 -66 -74 -147
-145 -251 -220 -326 -305 -513 -583 -70 -103 -109 -152 -119 -150 -33 6 -177
317 -245 526 -71 220 -117 454 -129 650 l-3 62 32 0 c18 0 97 -11 176 -24z
m3696 -1981 c66 -82 188 -222 272 -310 158 -167 269 -299 337 -400 50 -76 151
-273 159 -311 1 -7 11 -43 23 -80 26 -88 41 -192 41 -291 l0 -78 -20 30 c-11
17 -43 65 -70 107 -69 105 -199 249 -310 343 -93 78 -238 185 -297 220 -34 20
-43 50 -88 275 -19 97 -100 408 -144 553 -16 55 -28 97 -27 95 2 -1 57 -70
124 -153z m260 -1007 c180 -246 222 -481 135 -758 l-27 -85 -7 90 c-16 196
-29 284 -60 395 -11 41 -24 91 -29 111 -15 58 -61 181 -77 206 -9 13 -12 23
-9 23 4 0 -2 17 -12 38 -11 20 -22 51 -26 67 -4 17 -10 39 -13 50 -9 31 45
-28 125 -137z m-582 79 c34 -162 29 -401 -10 -519 -31 -93 -47 -120 -112 -189
-49 -53 -87 -84 -131 -107 -19 -11 -16 -1 22 75 81 164 151 408 191 670 18
117 27 133 40 70z m804 -204 c100 -105 190 -209 190 -219 0 -3 11 -21 24 -41
24 -35 24 -37 8 -77 -41 -103 -129 -235 -205 -305 -23 -22 -43 -39 -44 -38 0
1 10 43 24 92 20 73 25 114 26 215 1 150 -15 223 -79 356 -24 51 -44 95 -44
98 0 15 39 -16 100 -81z m-270 -381 c-54 -203 -92 -292 -184 -427 -108 -158
-316 -344 -492 -438 l-52 -27 53 106 c55 108 119 294 153 438 l19 80 67 22
c144 49 279 131 345 211 33 40 78 138 87 187 l7 41 12 -43 c12 -39 11 -53 -15
-150z m78 -264 l4 -166 -38 -24 c-22 -14 -45 -28 -53 -33 -11 -7 -13 -1 -8 31
33 224 49 324 59 357 20 68 32 15 36 -165z"/>
<path d="M4540 4826 c-224 -94 -477 -279 -591 -433 -22 -29 -39 -61 -39 -71 0
-46 208 -253 353 -351 70 -47 205 -121 221 -121 4 0 22 -7 39 -14 18 -8 61
-22 97 -31 36 -9 73 -18 82 -21 30 -9 47 37 64 171 20 155 23 401 5 505 -25
148 -96 364 -125 382 -19 13 -49 8 -106 -16z m85 -86 c48 -93 94 -339 95 -503
0 -98 -27 -358 -39 -370 -11 -11 -164 39 -251 83 -41 21 -108 62 -149 91 -78
54 -222 188 -272 250 l-29 37 73 81 c79 89 186 175 313 252 97 58 225 119 236
113 5 -3 15 -18 23 -34z"/>
<path d="M730 4491 c0 -195 61 -437 166 -660 45 -97 49 -102 73 -96 35 9 33 6
80 117 55 129 188 352 255 426 l21 24 -35 30 c-45 38 -202 131 -287 170 -71
32 -236 88 -259 88 -11 0 -14 -20 -14 -99z m184 -25 c92 -36 275 -135 295
-160 10 -12 5 -26 -32 -78 -63 -90 -98 -157 -153 -292 l-48 -120 -33 70 c-43
93 -111 305 -128 401 -19 104 -20 213 -2 213 8 0 53 -15 101 -34z"/>
</g>
</svg>
