<?xml version="1.0" standalone="no"?>
<!DOCTYPE svg PUBLIC "-//W3C//DTD SVG 20010904//EN"
 "http://www.w3.org/TR/2001/REC-SVG-20010904/DTD/svg10.dtd">
<svg version="1.0" xmlns="http://www.w3.org/2000/svg"
 width="623.000000pt" height="499.000000pt" viewBox="0 0 623.000000 499.000000"
 preserveAspectRatio="xMidYMid meet">
<metadata>
Created by potrace 1.16, written by Peter Selinger 2001-2019
</metadata>
<g transform="translate(0.000000,499.000000) scale(0.100000,-0.100000)"
fill="#000000" stroke="none">
<path d="M2125 4850 c-7 -12 -3 -80 5 -80 3 0 14 -24 25 -52 33 -96 93 -205
134 -244 23 -21 71 -55 107 -76 l67 -36 -54 -11 c-30 -6 -126 -24 -214 -41
-214 -41 -203 -38 -215 -60 -8 -15 -5 -25 14 -47 21 -24 34 -29 88 -33 l63 -5
-170 -72 c-210 -89 -382 -147 -500 -169 -65 -12 -172 -18 -383 -21 -259 -5
-294 -7 -302 -22 -6 -12 9 -59 51 -161 113 -276 194 -415 292 -508 32 -29 57
-59 57 -66 0 -7 -11 -23 -25 -36 -14 -13 -25 -29 -25 -36 0 -6 -52 -81 -116
-165 -268 -353 -351 -434 -754 -733 -102 -76 -187 -140 -189 -142 -2 -1 -1
-14 3 -27 l6 -25 106 39 c58 22 111 39 118 39 7 0 52 16 101 35 49 19 91 33
93 30 2 -2 -16 -25 -40 -52 -149 -161 -203 -268 -214 -428 -7 -89 19 -396 40
-479 11 -44 17 -51 39 -54 33 -4 34 -2 86 183 96 336 136 407 335 604 71 71
86 82 92 67 9 -22 -2 -256 -17 -380 -22 -184 -92 -401 -238 -735 -22 -52 -40
-95 -38 -96 12 -8 221 16 251 29 21 9 73 50 116 92 74 71 79 74 85 52 18 -59
129 -276 176 -343 82 -119 279 -299 321 -293 26 3 37 40 19 62 -9 10 -67 355
-126 736 -69 452 -90 706 -62 751 8 13 20 49 27 79 20 86 98 238 150 291 43
44 141 94 225 115 l30 7 -38 -42 c-21 -24 -59 -75 -84 -114 -25 -40 -54 -84
-64 -99 -42 -60 -11 -95 75 -84 73 8 548 102 696 137 155 36 322 91 417 136
94 44 237 161 492 404 112 107 211 195 220 197 9 2 50 -19 91 -46 124 -82 368
-222 489 -280 63 -31 212 -90 330 -133 l216 -77 -3 -43 c-2 -24 -8 -48 -13
-53 -5 -6 -9 -26 -9 -45 0 -41 -26 -202 -40 -246 -9 -26 -15 -63 -35 -193 -3
-18 -16 -79 -30 -135 -64 -272 -159 -524 -385 -1027 -78 -173 -144 -326 -147
-340 -7 -41 13 -80 41 -80 36 0 301 215 423 343 l101 107 -49 -108 c-27 -59
-49 -115 -49 -125 0 -35 29 -77 54 -77 24 0 218 149 342 263 102 93 185 231
258 432 20 55 46 123 57 150 10 28 21 60 23 71 8 40 68 229 75 237 4 4 16 -48
27 -115 23 -150 25 -366 5 -530 -11 -87 -12 -123 -4 -140 6 -13 14 -31 17 -41
3 -10 15 -17 31 -17 45 0 243 285 282 408 9 26 18 98 22 160 l6 113 50 -63
c58 -73 125 -116 234 -153 102 -34 118 -33 134 7 13 31 11 39 -40 152 -64 141
-95 254 -167 610 l-53 266 55 -30 c31 -17 63 -30 72 -30 9 0 25 -9 36 -21 10
-12 50 -37 89 -56 38 -20 74 -42 80 -50 7 -10 24 -13 50 -11 34 3 40 7 43 28
2 19 -19 51 -83 130 -118 143 -215 290 -253 382 -37 88 -94 283 -113 379 -6
35 -22 105 -35 155 -13 51 -24 96 -24 100 0 5 64 9 142 9 l143 0 3 26 c3 24
-14 38 -175 150 -283 195 -361 256 -478 374 -101 100 -306 359 -296 374 2 3
63 38 135 76 137 73 151 88 126 134 -10 20 -19 21 -298 21 -309 1 -458 11
-536 36 -34 12 -70 37 -120 85 l-72 68 -135 -10 c-219 -16 -294 -34 -394 -98
-27 -17 -55 -31 -62 -31 -7 0 -84 42 -171 93 -229 137 -444 234 -645 292 -103
30 -427 105 -587 136 -30 6 -63 15 -72 20 -23 12 -55 12 -63 -1z m420 -160
c398 -94 544 -153 915 -364 102 -58 193 -106 202 -106 9 0 34 11 55 26 110 74
201 100 396 112 116 7 118 7 133 -16 9 -13 31 -30 50 -38 19 -8 34 -20 34 -27
0 -23 40 -37 127 -46 56 -6 91 -14 97 -23 18 -25 138 -28 330 -10 168 15 179
15 191 -1 7 -9 20 -17 30 -17 13 0 8 -7 -16 -25 -41 -29 -356 -193 -384 -199
-11 -3 -36 -8 -55 -11 -19 -4 -91 -21 -160 -37 -234 -56 -304 -50 -522 43
-135 58 -159 59 -169 11 -7 -32 -6 -33 65 -66 39 -19 91 -40 116 -46 25 -7 71
-21 104 -31 90 -31 251 -42 344 -24 42 8 87 15 98 15 24 0 395 168 405 183 12
17 39 -1 39 -24 0 -23 126 -197 222 -307 94 -108 291 -271 438 -362 30 -19 69
-45 85 -59 17 -15 42 -34 55 -44 25 -17 24 -18 -44 -11 -183 16 -269 65 -554
315 l-103 90 -34 -21 c-19 -12 -35 -23 -35 -25 0 -1 90 -71 200 -154 110 -84
200 -158 200 -164 0 -14 51 -47 73 -47 8 0 20 -7 27 -15 7 -8 29 -20 49 -26
56 -17 76 -64 111 -264 17 -93 41 -208 53 -255 26 -102 156 -364 227 -460 27
-36 47 -66 46 -68 -2 -1 -47 22 -101 53 -54 30 -104 55 -111 55 -7 0 -21 11
-30 26 -23 35 -68 30 -72 -7 -4 -34 97 -555 143 -734 18 -74 50 -171 70 -217
20 -46 39 -89 42 -95 8 -20 -17 -15 -82 16 -72 34 -134 97 -210 216 -50 77
-59 86 -83 83 l-27 -3 -5 -205 c-5 -175 -9 -212 -26 -255 -18 -45 -104 -183
-152 -243 -18 -23 -18 -23 -15 45 2 37 8 104 13 147 16 131 12 170 -49 436
-78 342 -81 342 -177 -15 -58 -216 -200 -546 -289 -671 -57 -80 -236 -246
-251 -232 -7 8 47 128 58 128 5 0 6 5 3 10 -3 6 -2 10 3 10 5 0 9 6 9 13 0 6
53 122 117 257 103 216 116 250 114 290 -3 42 -5 45 -32 45 -26 0 -39 -16
-158 -205 -169 -266 -255 -387 -348 -484 -76 -80 -268 -241 -277 -232 -2 2 0
13 6 24 6 12 11 33 11 47 0 15 13 44 29 64 29 37 170 348 260 573 134 338 186
530 271 1003 52 294 47 275 69 275 13 0 20 9 23 30 3 17 2 33 -2 35 -4 2 -121
42 -261 88 -372 124 -468 170 -831 394 -92 56 -176 103 -187 103 -11 0 -70
-57 -150 -144 -379 -415 -543 -514 -1035 -621 -89 -20 -181 -41 -206 -47 -25
-7 -49 -11 -54 -10 -5 2 -23 -2 -40 -9 -17 -6 -53 -15 -81 -20 -27 -4 -68 -12
-90 -18 -109 -28 -106 -31 -37 45 166 182 329 302 647 476 180 99 190 105 190
133 0 54 -34 44 -225 -61 -170 -95 -303 -151 -660 -281 -219 -79 -299 -132
-352 -230 -26 -48 -82 -225 -100 -318 -14 -66 -3 -284 22 -465 11 -80 20 -166
20 -191 0 -38 94 -552 131 -718 5 -24 8 -45 6 -48 -9 -9 -133 137 -192 227
-35 52 -98 165 -141 250 -75 148 -80 155 -109 155 -24 0 -31 -5 -35 -27 -7
-38 -64 -114 -102 -138 -33 -21 -177 -70 -203 -70 -11 0 -5 21 21 78 205 441
242 592 228 937 -8 197 -19 245 -57 245 -15 0 -58 -37 -138 -117 -190 -193
-254 -292 -322 -503 -19 -57 -36 -99 -40 -94 -3 6 -9 66 -13 135 -13 249 21
325 264 586 57 61 117 117 133 124 37 15 50 38 38 61 -13 25 -49 22 -88 -6
-17 -13 -40 -22 -49 -20 -9 3 -73 -18 -141 -46 -69 -27 -129 -50 -135 -50 -6
0 33 29 87 65 53 36 97 70 97 75 0 5 33 30 72 56 40 25 121 93 179 150 58 58
109 101 114 97 4 -5 5 -2 1 5 -5 8 -1 21 10 32 11 10 30 34 44 54 14 20 34 36
45 36 14 0 16 3 8 8 -9 6 14 45 80 138 50 72 108 154 127 182 39 59 32 58 150
16 107 -37 285 -70 515 -93 277 -28 538 -46 558 -38 26 10 22 56 -5 66 -38 13
-339 32 -409 26 -42 -5 -123 1 -234 14 -376 47 -484 87 -609 222 -77 83 -186
238 -186 264 0 12 -23 77 -51 144 -28 66 -49 127 -46 135 5 11 50 14 249 13
275 0 368 13 567 80 99 33 478 191 564 235 35 17 46 18 140 8 166 -18 308 -46
552 -110 126 -34 241 -60 255 -58 19 2 26 10 28 30 4 35 4 35 -230 97 -297 79
-475 113 -663 129 l-90 7 155 29 c85 16 164 33 175 38 15 7 84 -3 234 -31 117
-23 225 -41 241 -41 15 0 30 -6 33 -14 4 -10 34 -16 99 -21 100 -8 140 -23
218 -82 54 -42 93 -42 98 -1 3 22 -6 33 -60 71 -35 24 -77 52 -94 60 -18 9
-123 30 -235 47 -262 41 -488 84 -570 111 -88 29 -190 83 -227 122 -34 35 -97
151 -107 195 l-6 29 48 -8 c26 -4 147 -30 268 -59z"/>
</g>
</svg>
