<svg version="1.1" viewBox="0.0 0.0 373.76640419947506 584.6509186351706" fill="none" stroke="none" stroke-linecap="square" stroke-miterlimit="10" xmlns:xlink="http://www.w3.org/1999/xlink" xmlns="http://www.w3.org/2000/svg"><clipPath id="p.0"><path d="m0 0l373.76642 0l0 584.65094l-373.76642 0l0 -584.65094z" clip-rule="nonzero"/></clipPath><g clip-path="url(#p.0)"><path fill="#000000" fill-opacity="0.0" d="m0 0l373.76642 0l0 584.65094l-373.76642 0z" fill-rule="evenodd"/><path fill="#cfe2f3" d="m216.8683 288.25165c1.7639008 4.7476807 8.172592 22.188385 10.583389 28.486023c2.410797 6.297638 2.0390472 7.7301025 3.8814087 9.299744c1.8423615 1.5696716 4.6443634 1.2953186 7.1727295 0.118133545c2.5283813 -1.177185 9.291336 -0.11834717 7.9975433 -7.1812134c-1.293808 -7.062866 -11.173904 -27.799744 -15.760345 -35.196014c-4.586441 -7.3962708 -9.798584 -7.651367 -11.758301 -9.181641" fill-rule="evenodd"/><path stroke="#000000" stroke-width="2.0" stroke-linejoin="round" stroke-linecap="butt" d="m216.8683 288.25165c1.7639008 4.7476807 8.172592 22.188385 10.583389 28.486023c2.410797 6.297638 2.0390472 7.7301025 3.8814087 9.299744c1.8423615 1.5696716 4.6443634 1.2953186 7.1727295 0.118133545c2.5283813 -1.177185 9.291336 -0.11834717 7.9975433 -7.1812134c-1.293808 -7.062866 -11.173904 -27.799744 -15.760345 -35.196014c-4.586441 -7.3962708 -9.798584 -7.651367 -11.758301 -9.181641" fill-rule="evenodd"/><path fill="#cfe2f3" d="m228.74971 320.14972c1.6664124 4.4529724 7.7440186 20.734436 9.99855 26.717926c2.2545319 5.98349 1.6863098 7.6132812 3.5286713 9.182953c1.8423615 1.5696411 4.977646 1.4121094 7.525467 0.23495483c2.5478363 -1.177185 7.722809 -2.7468567 7.761505 -7.298065c0.03869629 -4.5512085 -5.49057 -14.241699 -7.5294037 -20.009247c-2.0388336 -5.7675476 -3.9196472 -12.163422 -4.703583 -14.5961" fill-rule="evenodd"/><path stroke="#000000" stroke-width="2.0" stroke-linejoin="round" stroke-linecap="butt" d="m228.74971 320.14972c1.6664124 4.4529724 7.7440186 20.734436 9.99855 26.717926c2.2545319 5.98349 1.6863098 7.6132812 3.5286713 9.182953c1.8423615 1.5696411 4.977646 1.4121094 7.525467 0.23495483c2.5478363 -1.177185 7.722809 -2.7468567 7.761505 -7.298065c0.03869629 -4.5512085 -5.49057 -14.241699 -7.5294037 -20.009247c-2.0388336 -5.7675476 -3.9196472 -12.163422 -4.703583 -14.5961" fill-rule="evenodd"/><path fill="#cfe2f3" d="m256.03305 343.3379c1.2002563 1.7761841 5.3338623 7.476349 7.201599 10.657013c1.8677063 3.1806335 3.670929 5.7660217 4.0046387 8.42688c0.33374023 2.6608582 -0.70458984 5.6166077 -2.0023193 7.5382385c-1.2977295 1.9216614 -3.4849548 3.585144 -5.784088 3.9916077c-2.2991028 0.40646362 -6.22554 -0.5510559 -8.010635 -1.5527954c-1.7851105 -1.0017395 -2.0539246 -2.9888 -2.6999512 -4.4575806c-0.6460266 -1.468811 -0.72535706 -4.3355103 -1.1762238 -4.355194c-0.45085144 -0.019714355 -0.7657776 3.2117004 -1.5289459 4.2370605c-0.76316833 1.0253601 -2.0113068 1.7973938 -3.050064 1.9150696c-1.0387573 0.1177063 -2.7696533 0.3069458 -3.1824799 -1.2088928c-0.4128418 -1.5158386 0.5487671 -5.512268 0.7054596 -7.8861084c0.15670776 -2.3738098 0.43077087 -4.3164673 0.23472595 -6.356903c-0.19602966 -2.0404358 -1.1757812 -4.9047546 -1.4109497 -5.885681" fill-rule="evenodd"/><path stroke="#000000" stroke-width="2.0" stroke-linejoin="round" stroke-linecap="butt" d="m256.03305 343.3379c1.2002563 1.7761841 5.3338623 7.476349 7.201599 10.657013c1.8677063 3.1806335 3.670929 5.7660217 4.0046387 8.42688c0.33374023 2.6608582 -0.70458984 5.6166077 -2.0023193 7.5382385c-1.2977295 1.9216614 -3.4849548 3.585144 -5.784088 3.9916077c-2.2991028 0.40646362 -6.22554 -0.5510559 -8.010635 -1.5527954c-1.7851105 -1.0017395 -2.0539246 -2.9888 -2.6999512 -4.4575806c-0.6460266 -1.468811 -0.72535706 -4.3355103 -1.1762238 -4.355194c-0.45085144 -0.019714355 -0.7657776 3.2117004 -1.5289459 4.2370605c-0.76316833 1.0253601 -2.0113068 1.7973938 -3.050064 1.9150696c-1.0387573 0.1177063 -2.7696533 0.3069458 -3.1824799 -1.2088928c-0.4128418 -1.5158386 0.5487671 -5.512268 0.7054596 -7.8861084c0.15670776 -2.3738098 0.43077087 -4.3164673 0.23472595 -6.356903c-0.19602966 -2.0404358 -1.1757812 -4.9047546 -1.4109497 -5.885681" fill-rule="evenodd"/><path fill="#cfe2f3" d="m278.69345 214.71277c0.39230347 -2.118454 1.4907532 -1.0199738 1.8830872 -5.6492157c0.39233398 -4.629242 0.9416199 -15.221603 0.4708557 -22.126236c-0.47073364 -6.904648 -1.2554016 -12.710785 -3.2954102 -19.301575c-2.039978 -6.59079 -5.7276917 -14.829315 -8.944611 -20.24318c-3.216919 -5.413864 -5.0215454 -8.081558 -10.356964 -12.240021c-5.3354034 -4.158478 -15.378555 -9.886162 -21.655502 -12.71077c-6.276947 -2.8246078 -10.984619 -3.3737946 -16.006165 -4.2368774c-5.0215454 -0.86307526 -9.729248 -0.78466797 -14.123093 -0.941597c-4.39386 -0.15693665 -7.846176 -0.47077942 -12.240036 0c-4.3938446 0.47077942 -9.258453 1.2554245 -14.123093 2.824669c-4.8646393 1.569252 -10.592361 4.236969 -15.064697 6.5908127c-4.472336 2.353859 -7.6892853 3.6876602 -11.769287 7.53228c-4.080017 3.8446198 -9.493835 9.807724 -12.71077 15.535446c-3.216919 5.727707 -5.1784973 12.396973 -6.590805 18.830826c-1.412323 6.4338684 -1.9615479 13.26001 -1.8830719 19.772324c0.07847595 6.512314 1.3339233 14.044632 2.3539276 19.301575c1.0200195 5.2569275 1.8046265 7.1399994 3.7661438 12.240021c1.9615326 5.1000214 4.629181 12.710861 8.003021 18.360107c3.3738403 5.649231 6.433853 11.376831 12.240021 15.535294c5.8061676 4.158478 15.3785095 7.296997 22.596985 9.415497c7.2184906 2.1184692 11.847733 2.9031067 20.713913 3.2954102c8.86618 0.39230347 23.303177 -6.1035156E-5 32.4832 -0.9416199c9.180038 -0.9415283 16.398514 -2.275299 22.596985 -4.707611c6.198456 -2.432312 10.906128 -5.9631195 14.593842 -9.886215c3.687683 -3.9230957 6.4339294 -9.807739 7.5324097 -13.652359c1.0984497 -3.8446198 -0.78466797 -6.826111 -0.9416199 -9.4153595c-0.15692139 -2.5892334 -0.078430176 -3.9231415 0 -6.1200714c0.07846069 -2.1969452 0.07846069 -4.9430847 0.47073364 -7.061554z" fill-rule="evenodd"/><path stroke="#000000" stroke-width="2.0" stroke-linejoin="round" stroke-linecap="butt" d="m278.69345 214.71277c0.39230347 -2.118454 1.4907532 -1.0199738 1.8830872 -5.6492157c0.39233398 -4.629242 0.9416199 -15.221603 0.4708557 -22.126236c-0.47073364 -6.904648 -1.2554016 -12.710785 -3.2954102 -19.301575c-2.039978 -6.59079 -5.7276917 -14.829315 -8.944611 -20.24318c-3.216919 -5.413864 -5.0215454 -8.081558 -10.356964 -12.240021c-5.3354034 -4.158478 -15.378555 -9.886162 -21.655502 -12.71077c-6.276947 -2.8246078 -10.984619 -3.3737946 -16.006165 -4.2368774c-5.0215454 -0.86307526 -9.729248 -0.78466797 -14.123093 -0.941597c-4.39386 -0.15693665 -7.846176 -0.47077942 -12.240036 0c-4.3938446 0.47077942 -9.258453 1.2554245 -14.123093 2.824669c-4.8646393 1.569252 -10.592361 4.236969 -15.064697 6.5908127c-4.472336 2.353859 -7.6892853 3.6876602 -11.769287 7.53228c-4.080017 3.8446198 -9.493835 9.807724 -12.71077 15.535446c-3.216919 5.727707 -5.1784973 12.396973 -6.590805 18.830826c-1.412323 6.4338684 -1.9615479 13.26001 -1.8830719 19.772324c0.07847595 6.512314 1.3339233 14.044632 2.3539276 19.301575c1.0200195 5.2569275 1.8046265 7.1399994 3.7661438 12.240021c1.9615326 5.1000214 4.629181 12.710861 8.003021 18.360107c3.3738403 5.649231 6.433853 11.376831 12.240021 15.535294c5.8061676 4.158478 15.3785095 7.296997 22.596985 9.415497c7.2184906 2.1184692 11.847733 2.9031067 20.713913 3.2954102c8.86618 0.39230347 23.303177 -6.1035156E-5 32.4832 -0.9416199c9.180038 -0.9415283 16.398514 -2.275299 22.596985 -4.707611c6.198456 -2.432312 10.906128 -5.9631195 14.593842 -9.886215c3.687683 -3.9230957 6.4339294 -9.807739 7.5324097 -13.652359c1.0984497 -3.8446198 -0.78466797 -6.826111 -0.9416199 -9.4153595c-0.15692139 -2.5892334 -0.078430176 -3.9231415 0 -6.1200714c0.07846069 -2.1969452 0.07846069 -4.9430847 0.47073364 -7.061554z" fill-rule="evenodd"/><path fill="#cfe2f3" d="m142.2939 222.22008c-0.862381 -0.6670227 -3.5277863 -3.4527893 -5.1743317 -4.002121c-1.6465454 -0.5493164 -3.4895477 -0.11790466 -4.704895 0.70617676c-1.2153473 0.8240967 -1.9992676 2.7472687 -2.5871735 4.238388c-0.5878906 1.4911041 -1.4498444 2.5501556 -0.94018555 4.7082825c0.5096588 2.158142 2.743866 6.082367 3.998108 8.240494c1.254242 2.158142 2.0770874 3.2171783 3.527359 4.7082977c1.4502869 1.4911041 2.939911 3.4928284 5.1743317 4.238373c2.234436 0.7455597 6.4681396 0.7845001 8.232254 0.23495483c1.7641296 -0.54953 1.9603729 -2.9434967 2.3524475 -3.532196" fill-rule="evenodd"/><path stroke="#000000" stroke-width="2.0" stroke-linejoin="round" stroke-linecap="butt" d="m142.2939 222.22008c-0.862381 -0.6670227 -3.5277863 -3.4527893 -5.1743317 -4.002121c-1.6465454 -0.5493164 -3.4895477 -0.11790466 -4.704895 0.70617676c-1.2153473 0.8240967 -1.9992676 2.7472687 -2.5871735 4.238388c-0.5878906 1.4911041 -1.4498444 2.5501556 -0.94018555 4.7082825c0.5096588 2.158142 2.743866 6.082367 3.998108 8.240494c1.254242 2.158142 2.0770874 3.2171783 3.527359 4.7082977c1.4502869 1.4911041 2.939911 3.4928284 5.1743317 4.238373c2.234436 0.7455597 6.4681396 0.7845001 8.232254 0.23495483c1.7641296 -0.54953 1.9603729 -2.9434967 2.3524475 -3.532196" fill-rule="evenodd"/><path fill="#cfe2f3" d="m135.74968 231.18271c-0.27450562 -0.31391907 -1.6076355 -0.86346436 -1.6469727 -1.8835754c-0.03933716 -1.0201111 0.705246 -3.7662811 1.4109344 -4.2370605c0.7056885 -0.47079468 1.4120331 0.078308105 2.8231964 1.4123535c1.4111633 1.3340302 4.5855713 4.5514374 5.6437836 6.591873c1.0582123 2.0404205 0.5878906 4.7089386 0.70547485 5.6507263" fill-rule="evenodd"/><path stroke="#000000" stroke-width="2.0" stroke-linejoin="round" stroke-linecap="butt" d="m135.74968 231.18271c-0.27450562 -0.31391907 -1.6076355 -0.86346436 -1.6469727 -1.8835754c-0.03933716 -1.0201111 0.705246 -3.7662811 1.4109344 -4.2370605c0.7056885 -0.47079468 1.4120331 0.078308105 2.8231964 1.4123535c1.4111633 1.3340302 4.5855713 4.5514374 5.6437836 6.591873c1.0582123 2.0404205 0.5878906 4.7089386 0.70547485 5.6507263" fill-rule="evenodd"/><path fill="#cfe2f3" d="m194.05916 289.5504c-1.7639008 4.74765 -8.172592 22.188385 -10.583389 28.485992c-2.410797 6.297638 -2.0390472 7.730133 -3.8814087 9.299774c-1.8423615 1.5696411 -4.644348 1.2953186 -7.1727295 0.118133545c-2.5283813 -1.177185 -9.291336 -0.11834717 -7.9975433 -7.181244c1.293808 -7.062866 11.17392 -27.799713 15.760361 -35.196014c4.586441 -7.3962708 9.798584 -7.6513367 11.758301 -9.18161" fill-rule="evenodd"/><path stroke="#000000" stroke-width="2.0" stroke-linejoin="round" stroke-linecap="butt" d="m194.05916 289.5504c-1.7639008 4.74765 -8.172592 22.188385 -10.583389 28.485992c-2.410797 6.297638 -2.0390472 7.730133 -3.8814087 9.299774c-1.8423615 1.5696411 -4.644348 1.2953186 -7.1727295 0.118133545c-2.5283813 -1.177185 -9.291336 -0.11834717 -7.9975433 -7.181244c1.293808 -7.062866 11.17392 -27.799713 15.760361 -35.196014c4.586441 -7.3962708 9.798584 -7.6513367 11.758301 -9.18161" fill-rule="evenodd"/><path fill="#cfe2f3" d="m182.16016 321.44846c-1.6664276 4.453003 -7.7440186 20.734467 -9.998566 26.717926c-2.2545319 5.98349 -1.6863098 7.613312 -3.528656 9.182953c-1.8423615 1.5696411 -4.977646 1.4121399 -7.525482 0.23495483c-2.547821 -1.177185 -7.722809 -2.7468262 -7.761505 -7.2980347c-0.03868103 -4.551239 5.4905853 -14.241699 7.5294037 -20.009277c2.0388336 -5.7675476 3.9196625 -12.163391 4.703598 -14.596069" fill-rule="evenodd"/><path stroke="#000000" stroke-width="2.0" stroke-linejoin="round" stroke-linecap="butt" d="m182.16016 321.44846c-1.6664276 4.453003 -7.7440186 20.734467 -9.998566 26.717926c-2.2545319 5.98349 -1.6863098 7.613312 -3.528656 9.182953c-1.8423615 1.5696411 -4.977646 1.4121399 -7.525482 0.23495483c-2.547821 -1.177185 -7.722809 -2.7468262 -7.761505 -7.2980347c-0.03868103 -4.551239 5.4905853 -14.241699 7.5294037 -20.009277c2.0388336 -5.7675476 3.9196625 -12.163391 4.703598 -14.596069" fill-rule="evenodd"/><path fill="#cfe2f3" d="m217.0881 269.2687c-0.54855347 -1.7879944 -0.07714844 -4.270752 -0.70414734 -5.3632812c-0.62701416 -1.0925293 -0.27471924 -1.1124268 -3.0579224 -1.1918335c-2.7832031 -0.07940674 -11.01503 -0.27804565 -13.641312 0.71536255c-2.6262817 0.9934082 -1.4109497 3.6956177 -2.1164093 5.2451477c-0.70547485 1.54953 -1.0188751 2.7011108 -2.1164246 4.0519714c-1.0975494 1.3508911 -2.9790192 3.1791382 -4.468857 4.053314c-1.4898376 0.87420654 -3.254837 0.43688965 -4.4701843 1.1918335c-1.215332 0.75497437 -2.508484 1.3907166 -2.8218842 3.3379517c-0.31340027 1.9472351 0.43185425 3.6168518 0.9414978 8.3454895c0.5096588 4.7286377 1.4500732 14.979828 2.1164246 20.026306c0.6663513 5.046509 1.9992676 6.199402 1.8816986 10.252716c-0.11758423 4.053314 -0.9799652 9.060211 -2.5871735 14.067108c-1.607193 5.0069275 -5.3802032 11.699432 -7.0560303 15.974335c-1.675827 4.2749023 -3.3221436 7.3857727 -2.9989166 9.675171c0.3232422 2.2893982 -1.0103455 3.2497559 4.9383087 4.0611877c5.948654 0.81140137 21.276932 0.513855 30.753601 0.80722046c9.476654 0.29336548 20.853806 1.4298706 26.106384 0.9529724c5.2525787 -0.4769287 4.507553 -1.2714844 5.4090576 -3.8144226c0.9015045 -2.5429382 0.47032166 -7.151703 0 -11.443237c-0.4703064 -4.2915344 -1.900711 -10.014252 -2.8218842 -14.306c-0.92118835 -4.2917786 -1.9798279 -6.7555237 -2.705185 -11.44455c-0.72535706 -4.6890564 -1.078537 -11.205872 -1.6469727 -16.689697c-0.5684509 -5.4838257 -0.6464691 -11.921661 -1.7636871 -16.213226c-1.117218 -4.2915344 -2.50914 -6.714813 -4.9396057 -9.536011c-2.430481 -2.821228 -7.6048126 -5.265259 -9.643204 -7.3912354c-2.038391 -2.1259766 -2.0386047 -3.5766296 -2.5871735 -5.3645935z" fill-rule="evenodd"/><path stroke="#000000" stroke-width="2.0" stroke-linejoin="round" stroke-linecap="butt" d="m217.0881 269.2687c-0.54855347 -1.7879944 -0.07714844 -4.270752 -0.70414734 -5.3632812c-0.62701416 -1.0925293 -0.27471924 -1.1124268 -3.0579224 -1.1918335c-2.7832031 -0.07940674 -11.01503 -0.27804565 -13.641312 0.71536255c-2.6262817 0.9934082 -1.4109497 3.6956177 -2.1164093 5.2451477c-0.70547485 1.54953 -1.0188751 2.7011108 -2.1164246 4.0519714c-1.0975494 1.3508911 -2.9790192 3.1791382 -4.468857 4.053314c-1.4898376 0.87420654 -3.254837 0.43688965 -4.4701843 1.1918335c-1.215332 0.75497437 -2.508484 1.3907166 -2.8218842 3.3379517c-0.31340027 1.9472351 0.43185425 3.6168518 0.9414978 8.3454895c0.5096588 4.7286377 1.4500732 14.979828 2.1164246 20.026306c0.6663513 5.046509 1.9992676 6.199402 1.8816986 10.252716c-0.11758423 4.053314 -0.9799652 9.060211 -2.5871735 14.067108c-1.607193 5.0069275 -5.3802032 11.699432 -7.0560303 15.974335c-1.675827 4.2749023 -3.3221436 7.3857727 -2.9989166 9.675171c0.3232422 2.2893982 -1.0103455 3.2497559 4.9383087 4.0611877c5.948654 0.81140137 21.276932 0.513855 30.753601 0.80722046c9.476654 0.29336548 20.853806 1.4298706 26.106384 0.9529724c5.2525787 -0.4769287 4.507553 -1.2714844 5.4090576 -3.8144226c0.9015045 -2.5429382 0.47032166 -7.151703 0 -11.443237c-0.4703064 -4.2915344 -1.900711 -10.014252 -2.8218842 -14.306c-0.92118835 -4.2917786 -1.9798279 -6.7555237 -2.705185 -11.44455c-0.72535706 -4.6890564 -1.078537 -11.205872 -1.6469727 -16.689697c-0.5684509 -5.4838257 -0.6464691 -11.921661 -1.7636871 -16.213226c-1.117218 -4.2915344 -2.50914 -6.714813 -4.9396057 -9.536011c-2.430481 -2.821228 -7.6048126 -5.265259 -9.643204 -7.3912354c-2.038391 -2.1259766 -2.0386047 -3.5766296 -2.5871735 -5.3645935z" fill-rule="evenodd"/><path fill="#cfe2f3" d="m154.8768 344.63666c-1.2002563 1.7761536 -5.3338776 7.476349 -7.201584 10.656982c-1.8677063 3.1806335 -3.6709442 5.7660217 -4.004669 8.42688c-0.33370972 2.6608582 0.7046051 5.6166077 2.0023346 7.538269c1.2977448 1.9216309 3.48497 3.585144 5.784088 3.9916077c2.299118 0.40646362 6.2255554 -0.5510864 8.010651 -1.5528259c1.7850952 -1.001709 2.0539093 -2.9887695 2.699936 -4.4575806c0.6460266 -1.4687805 0.72535706 -4.3355103 1.1762238 -4.355194c0.4508667 -0.019683838 0.76579285 3.2117004 1.5289612 4.2370605c0.76316833 1.0253601 2.0112915 1.7973938 3.0500488 1.9151001c1.0387573 0.11767578 2.7696533 0.30691528 3.182495 -1.2089233c0.41282654 -1.5158386 -0.54878235 -5.5122375 -0.70547485 -7.886078c-0.1566925 -2.3738403 -0.43075562 -4.316498 -0.23472595 -6.3569336c0.19604492 -2.0404053 1.1757965 -4.904724 1.4109497 -5.885681" fill-rule="evenodd"/><path stroke="#000000" stroke-width="2.0" stroke-linejoin="round" stroke-linecap="butt" d="m154.8768 344.63666c-1.2002563 1.7761536 -5.3338776 7.476349 -7.201584 10.656982c-1.8677063 3.1806335 -3.6709442 5.7660217 -4.004669 8.42688c-0.33370972 2.6608582 0.7046051 5.6166077 2.0023346 7.538269c1.2977448 1.9216309 3.48497 3.585144 5.784088 3.9916077c2.299118 0.40646362 6.2255554 -0.5510864 8.010651 -1.5528259c1.7850952 -1.001709 2.0539093 -2.9887695 2.699936 -4.4575806c0.6460266 -1.4687805 0.72535706 -4.3355103 1.1762238 -4.355194c0.4508667 -0.019683838 0.76579285 3.2117004 1.5289612 4.2370605c0.76316833 1.0253601 2.0112915 1.7973938 3.0500488 1.9151001c1.0387573 0.11767578 2.7696533 0.30691528 3.182495 -1.2089233c0.41282654 -1.5158386 -0.54878235 -5.5122375 -0.70547485 -7.886078c-0.1566925 -2.3738403 -0.43075562 -4.316498 -0.23472595 -6.3569336c0.19604492 -2.0404053 1.1757965 -4.904724 1.4109497 -5.885681" fill-rule="evenodd"/><path fill="#cfe2f3" d="m177.87451 352.68765c-0.22877502 0.7187195 -1.1854706 2.6351929 -1.3726959 4.3123474c-0.18722534 1.6771545 -1.708664 4.1671143 0.24934387 5.7506714c1.9580078 1.5835266 5.915573 2.9588623 11.498688 3.7506409c5.5831146 0.79177856 14.291336 0.8753357 22.0 1.0c7.708664 0.12466431 18.668411 0.20648193 24.251968 -0.25198364c5.583542 -0.45843506 7.718277 -1.0822144 9.249344 -2.4986572c1.5310516 -1.4164734 -0.021438599 -4.2917786 -0.06300354 -6.0c-0.041549683 -1.708252 -0.1552887 -3.5411377 -0.18634033 -4.249359" fill-rule="evenodd"/><path stroke="#000000" stroke-width="2.0" stroke-linejoin="round" stroke-linecap="butt" d="m177.87451 352.68765c-0.22877502 0.7187195 -1.1854706 2.6351929 -1.3726959 4.3123474c-0.18722534 1.6771545 -1.708664 4.1671143 0.24934387 5.7506714c1.9580078 1.5835266 5.915573 2.9588623 11.498688 3.7506409c5.5831146 0.79177856 14.291336 0.8753357 22.0 1.0c7.708664 0.12466431 18.668411 0.20648193 24.251968 -0.25198364c5.583542 -0.45843506 7.718277 -1.0822144 9.249344 -2.4986572c1.5310516 -1.4164734 -0.021438599 -4.2917786 -0.06300354 -6.0c-0.041549683 -1.708252 -0.1552887 -3.5411377 -0.18634033 -4.249359" fill-rule="evenodd"/><path fill="#cfe2f3" d="m175.98787 358.6453c-0.12741089 3.7080994 -0.5194855 15.322845 -0.7644806 22.248566c-0.24499512 6.9256897 -0.39186096 13.184387 -0.70547485 19.305695c-0.3136139 6.121277 -1.5289612 13.733704 -1.1762238 17.42212c0.35273743 3.688385 1.6069794 3.6096191 3.292633 4.7082825c1.685669 1.0986328 3.9205322 1.4911194 6.8213196 1.8835754c2.9007874 0.39245605 7.721939 0.6282959 10.583389 0.47122192c2.8614502 -0.15707397 4.860504 -0.5895691 6.5852814 -1.4136658c1.7247772 -0.8240967 2.901001 -1.9223022 3.763382 -3.5308838c0.86239624 -1.6086121 0.47010803 0.7855835 1.4109497 -6.1206665c0.9408417 -6.9062195 3.254181 -26.684021 4.234146 -35.316772c0.9799652 -8.632721 1.3713837 -13.733063 1.6456604 -16.479675" fill-rule="evenodd"/><path stroke="#000000" stroke-width="2.0" stroke-linejoin="round" stroke-linecap="butt" d="m175.98787 358.6453c-0.12741089 3.7080994 -0.5194855 15.322845 -0.7644806 22.248566c-0.24499512 6.9256897 -0.39186096 13.184387 -0.70547485 19.305695c-0.3136139 6.121277 -1.5289612 13.733704 -1.1762238 17.42212c0.35273743 3.688385 1.6069794 3.6096191 3.292633 4.7082825c1.685669 1.0986328 3.9205322 1.4911194 6.8213196 1.8835754c2.9007874 0.39245605 7.721939 0.6282959 10.583389 0.47122192c2.8614502 -0.15707397 4.860504 -0.5895691 6.5852814 -1.4136658c1.7247772 -0.8240967 2.901001 -1.9223022 3.763382 -3.5308838c0.86239624 -1.6086121 0.47010803 0.7855835 1.4109497 -6.1206665c0.9408417 -6.9062195 3.254181 -26.684021 4.234146 -35.316772c0.9799652 -8.632721 1.3713837 -13.733063 1.6456604 -16.479675" fill-rule="evenodd"/><path fill="#cfe2f3" d="m173.34267 413.37918c-0.2351532 2.0795898 -1.1364441 7.2588806 -1.4109344 12.47757c-0.27450562 5.2186584 -0.2557068 12.928864 -0.23603821 18.834473c0.01966858 5.9055786 0.079559326 12.94986 0.35404968 16.599121c0.27449036 3.649231 0.13659668 4.0996704 1.292923 5.2963257c1.1563416 1.1966553 2.3131104 1.4519348 5.645096 1.8835754c3.3319702 0.4316101 11.054138 1.1377869 14.346771 0.70617676c3.2926483 -0.43164062 4.311508 -1.6871338 5.4090576 -3.295929c1.0975494 -1.6088257 0.9801941 -4.0025635 1.1762238 -6.3569336c0.19604492 -2.3543396 -0.35273743 -4.1593933 0 -7.7692566c0.35273743 -3.6098633 1.332489 -8.828308 2.1164246 -13.889923c0.7839203 -5.0615845 1.999054 -12.595032 2.5871582 -16.479675c0.5881195 -3.884613 0.7845917 -5.690094 0.94151306 -6.828125" fill-rule="evenodd"/><path stroke="#000000" stroke-width="2.0" stroke-linejoin="round" stroke-linecap="butt" d="m173.34267 413.37918c-0.2351532 2.0795898 -1.1364441 7.2588806 -1.4109344 12.47757c-0.27450562 5.2186584 -0.2557068 12.928864 -0.23603821 18.834473c0.01966858 5.9055786 0.079559326 12.94986 0.35404968 16.599121c0.27449036 3.649231 0.13659668 4.0996704 1.292923 5.2963257c1.1563416 1.1966553 2.3131104 1.4519348 5.645096 1.8835754c3.3319702 0.4316101 11.054138 1.1377869 14.346771 0.70617676c3.2926483 -0.43164062 4.311508 -1.6871338 5.4090576 -3.295929c1.0975494 -1.6088257 0.9801941 -4.0025635 1.1762238 -6.3569336c0.19604492 -2.3543396 -0.35273743 -4.1593933 0 -7.7692566c0.35273743 -3.6098633 1.332489 -8.828308 2.1164246 -13.889923c0.7839203 -5.0615845 1.999054 -12.595032 2.5871582 -16.479675c0.5881195 -3.884613 0.7845917 -5.690094 0.94151306 -6.828125" fill-rule="evenodd"/><path fill="#cfe2f3" d="m171.93114 459.4044c0.058792114 1.0004272 -0.27449036 3.7072144 0.35273743 6.002533c0.6272278 2.295288 2.019165 5.728821 3.4106598 7.7692566c1.3914948 2.0404358 3.3311005 3.4138489 4.9382935 4.4733276c1.6072083 1.0595093 2.35289 1.4911194 4.704895 1.883606c2.3520203 0.39245605 6.898468 0.510376 9.407166 0.47122192c2.5087128 -0.03918457 4.390625 -0.23519897 5.645096 -0.70617676c1.2544556 -0.4710083 1.7641144 -1.138916 1.8816986 -2.119873c0.11756897 -0.9809265 -0.70570374 -1.7256165 -1.1762238 -3.7658386c-0.47053528 -2.0402222 -1.450943 -6.2387695 -1.6469879 -8.475433c-0.19602966 -2.2366638 0.39230347 -4.1204834 0.47076416 -4.94458" fill-rule="evenodd"/><path stroke="#000000" stroke-width="2.0" stroke-linejoin="round" stroke-linecap="butt" d="m171.93114 459.4044c0.058792114 1.0004272 -0.27449036 3.7072144 0.35273743 6.002533c0.6272278 2.295288 2.019165 5.728821 3.4106598 7.7692566c1.3914948 2.0404358 3.3311005 3.4138489 4.9382935 4.4733276c1.6072083 1.0595093 2.35289 1.4911194 4.704895 1.883606c2.3520203 0.39245605 6.898468 0.510376 9.407166 0.47122192c2.5087128 -0.03918457 4.390625 -0.23519897 5.645096 -0.70617676c1.2544556 -0.4710083 1.7641144 -1.138916 1.8816986 -2.119873c0.11756897 -0.9809265 -0.70570374 -1.7256165 -1.1762238 -3.7658386c-0.47053528 -2.0402222 -1.450943 -6.2387695 -1.6469879 -8.475433c-0.19602966 -2.2366638 0.39230347 -4.1204834 0.47076416 -4.94458" fill-rule="evenodd"/><path fill="#cfe2f3" d="m209.80183 359.58652c0.30749512 3.736969 1.0536194 15.501556 1.844986 22.421783c0.7913513 6.9202576 2.0707397 13.026886 2.903183 19.09964c0.83244324 6.0727234 1.0575562 13.778778 2.091507 17.336792c1.0339508 3.558014 2.25148 3.2464905 4.1121826 4.0112915c1.8607178 0.764801 4.1290283 0.7335205 7.052109 0.57754517c2.9230652 -0.15597534 7.704239 -0.82473755 10.486343 -1.5134277c2.7821198 -0.68865967 4.665344 -1.4869385 6.206314 -2.6186218c1.5409851 -1.1316833 2.4918823 -2.4300537 3.039566 -4.1714478c0.5476837 -1.7413635 0.60887146 0.68408203 0.246521 -6.276825c-0.36235046 -6.9609375 -1.7346039 -26.951813 -2.4206238 -35.48874c-0.68603516 -8.536926 -1.4129181 -13.110657 -1.6954956 -15.732788" fill-rule="evenodd"/><path stroke="#000000" stroke-width="2.0" stroke-linejoin="round" stroke-linecap="butt" d="m209.80183 359.58652c0.30749512 3.736969 1.0536194 15.501556 1.844986 22.421783c0.7913513 6.9202576 2.0707397 13.026886 2.903183 19.09964c0.83244324 6.0727234 1.0575562 13.778778 2.091507 17.336792c1.0339508 3.558014 2.25148 3.2464905 4.1121826 4.0112915c1.8607178 0.764801 4.1290283 0.7335205 7.052109 0.57754517c2.9230652 -0.15597534 7.704239 -0.82473755 10.486343 -1.5134277c2.7821198 -0.68865967 4.665344 -1.4869385 6.206314 -2.6186218c1.5409851 -1.1316833 2.4918823 -2.4300537 3.039566 -4.1714478c0.5476837 -1.7413635 0.60887146 0.68408203 0.246521 -6.276825c-0.36235046 -6.9609375 -1.7346039 -26.951813 -2.4206238 -35.48874c-0.68603516 -8.536926 -1.4129181 -13.110657 -1.6954956 -15.732788" fill-rule="evenodd"/><path fill="#cfe2f3" d="m215.84416 414.27484c0.15649414 2.086914 0.23612976 7.343384 0.9389801 12.521484c0.70285034 5.1781006 2.1582031 12.749115 3.278122 18.54712c1.1199036 5.798004 2.4915314 12.707153 3.44133 16.240936c0.9497986 3.5337524 0.89823914 4.002014 2.2574615 4.96167c1.3592072 0.95965576 2.5434113 0.9944458 5.897812 0.7962036c3.3543854 -0.19821167 11.073685 -0.9465637 14.228546 -1.9854736c3.1548615 -1.0389404 3.9220123 -2.462616 4.7006226 -4.2480774c0.7786102 -1.7854614 0.2171936 -4.1151733 -0.028945923 -6.4647217c-0.24613953 -2.3495483 -1.1217499 -4.020355 -1.4479065 -7.6325684c-0.32614136 -3.6122131 -0.33598328 -8.921814 -0.5090027 -14.040741c-0.17300415 -5.118927 -0.3829956 -12.746735 -0.52908325 -16.672821c-0.14607239 -3.926117 -0.289505 -5.736511 -0.34739685 -6.8838196" fill-rule="evenodd"/><path stroke="#000000" stroke-width="2.0" stroke-linejoin="round" stroke-linecap="butt" d="m215.84416 414.27484c0.15649414 2.086914 0.23612976 7.343384 0.9389801 12.521484c0.70285034 5.1781006 2.1582031 12.749115 3.278122 18.54712c1.1199036 5.798004 2.4915314 12.707153 3.44133 16.240936c0.9497986 3.5337524 0.89823914 4.002014 2.2574615 4.96167c1.3592072 0.95965576 2.5434113 0.9944458 5.897812 0.7962036c3.3543854 -0.19821167 11.073685 -0.9465637 14.228546 -1.9854736c3.1548615 -1.0389404 3.9220123 -2.462616 4.7006226 -4.2480774c0.7786102 -1.7854614 0.2171936 -4.1151733 -0.028945923 -6.4647217c-0.24613953 -2.3495483 -1.1217499 -4.020355 -1.4479065 -7.6325684c-0.32614136 -3.6122131 -0.33598328 -8.921814 -0.5090027 -14.040741c-0.17300415 -5.118927 -0.3829956 -12.746735 -0.52908325 -16.672821c-0.14607239 -3.926117 -0.289505 -5.736511 -0.34739685 -6.8838196" fill-rule="evenodd"/><path fill="#cfe2f3" d="m223.02637 459.75754c0.24420166 0.9718323 0.4211731 3.6932373 1.4652405 5.831024c1.0440674 2.1377563 3.0516357 5.250946 4.799164 6.9956055c1.7475281 1.74469 3.909317 2.73172 5.685974 3.472412c1.7766571 0.74069214 2.589798 1.0254822 4.973984 0.97180176c2.384201 -0.05368042 6.873459 -0.78689575 9.331177 -1.2938538c2.457718 -0.5069885 4.27034 -1.0509949 5.4151764 -1.7479858c1.1448364 -0.69696045 1.5211487 -1.4483032 1.4538574 -2.4339294c-0.06726074 -0.98565674 -1.0149841 -1.5634766 -1.857544 -3.4799194c-0.8425598 -1.9164429 -2.5883484 -5.8580627 -3.1977997 -8.018738c-0.6094513 -2.1607056 -0.3824463 -4.121216 -0.45892334 -4.945465" fill-rule="evenodd"/><path stroke="#000000" stroke-width="2.0" stroke-linejoin="round" stroke-linecap="butt" d="m223.02637 459.75754c0.24420166 0.9718323 0.4211731 3.6932373 1.4652405 5.831024c1.0440674 2.1377563 3.0516357 5.250946 4.799164 6.9956055c1.7475281 1.74469 3.909317 2.73172 5.685974 3.472412c1.7766571 0.74069214 2.589798 1.0254822 4.973984 0.97180176c2.384201 -0.05368042 6.873459 -0.78689575 9.331177 -1.2938538c2.457718 -0.5069885 4.27034 -1.0509949 5.4151764 -1.7479858c1.1448364 -0.69696045 1.5211487 -1.4483032 1.4538574 -2.4339294c-0.06726074 -0.98565674 -1.0149841 -1.5634766 -1.857544 -3.4799194c-0.8425598 -1.9164429 -2.5883484 -5.8580627 -3.1977997 -8.018738c-0.6094513 -2.1607056 -0.3824463 -4.121216 -0.45892334 -4.945465" fill-rule="evenodd"/><path fill="#cfe2f3" d="m185.37709 307.98465c-0.5344391 2.532837 -0.439682 5.692688 -0.6877899 8.576172c-0.24810791 2.883484 -0.57162476 5.765625 -0.80088806 8.724731c-0.2292633 2.9591064 -1.2619629 7.148834 -0.5746918 9.029877c0.6872864 1.881073 2.2355652 1.7050781 4.6983643 2.2564697c2.4627838 0.5514221 6.202835 0.87661743 10.078384 1.0519409c3.8755646 0.17532349 8.897949 0.25094604 13.174973 0c4.2770233 -0.25091553 7.9431915 -0.9790039 12.487167 -1.5056458c4.543991 -0.52664185 12.12291 -0.37539673 14.776749 -1.6542053c2.6538544 -1.2787781 1.0887451 -3.4355469 1.1463165 -6.018585c0.05757141 -2.5830078 -0.59098816 -6.8965454 -0.80088806 -9.479553c-0.2098999 -2.5830383 -0.6872864 -4.664856 -0.4585266 -6.018585c0.22875977 -1.3537598 1.3154602 -1.3015442 1.8310394 -2.1039124c0.5155945 -0.80233765 0.9379425 -1.4808655 1.2624817 -2.710144c0.32453918 -1.2293091 0.5512543 -2.9604492 0.6847229 -4.6655273c0.13348389 -1.7050476 0.23028564 -3.8096313 0.11616516 -5.5648804c-0.11412048 -1.755249 -0.30465698 -3.4368896 -0.80088806 -4.9666443c-0.49623108 -1.5297241 -0.9353943 -3.1839294 -2.176468 -4.211792c-1.2410736 -1.0278625 -3.5321808 -1.9801025 -5.269989 -1.9553223c-1.7378082 0.024749756 -3.343155 0.44900513 -5.1568756 2.1038818c-1.813736 1.6548767 -3.797104 6.746643 -5.725464 7.825348c-1.9283447 1.0787354 -3.5153656 -0.224823 -5.8446655 -1.3530579c-2.3293152 -1.1282349 -5.5155487 -4.262665 -8.131195 -5.416321c-2.615631 -1.153656 -5.3285675 -2.0322876 -7.562607 -1.5056458c-2.2340393 0.52664185 -3.5505219 2.508728 -5.841614 4.665497c-2.2911072 2.1567688 -6.167679 5.792389 -7.9049835 8.275055c-1.7373047 2.4826355 -1.9843903 4.0880127 -2.5188293 6.6208496z" fill-rule="evenodd"/><path stroke="#000000" stroke-width="1.0" stroke-linejoin="round" stroke-linecap="butt" d="m185.37709 307.98465c-0.5344391 2.532837 -0.439682 5.692688 -0.6877899 8.576172c-0.24810791 2.883484 -0.57162476 5.765625 -0.80088806 8.724731c-0.2292633 2.9591064 -1.2619629 7.148834 -0.5746918 9.029877c0.6872864 1.881073 2.2355652 1.7050781 4.6983643 2.2564697c2.4627838 0.5514221 6.202835 0.87661743 10.078384 1.0519409c3.8755646 0.17532349 8.897949 0.25094604 13.174973 0c4.2770233 -0.25091553 7.9431915 -0.9790039 12.487167 -1.5056458c4.543991 -0.52664185 12.12291 -0.37539673 14.776749 -1.6542053c2.6538544 -1.2787781 1.0887451 -3.4355469 1.1463165 -6.018585c0.05757141 -2.5830078 -0.59098816 -6.8965454 -0.80088806 -9.479553c-0.2098999 -2.5830383 -0.6872864 -4.664856 -0.4585266 -6.018585c0.22875977 -1.3537598 1.3154602 -1.3015442 1.8310394 -2.1039124c0.5155945 -0.80233765 0.9379425 -1.4808655 1.2624817 -2.710144c0.32453918 -1.2293091 0.5512543 -2.9604492 0.6847229 -4.6655273c0.13348389 -1.7050476 0.23028564 -3.8096313 0.11616516 -5.5648804c-0.11412048 -1.755249 -0.30465698 -3.4368896 -0.80088806 -4.9666443c-0.49623108 -1.5297241 -0.9353943 -3.1839294 -2.176468 -4.211792c-1.2410736 -1.0278625 -3.5321808 -1.9801025 -5.269989 -1.9553223c-1.7378082 0.024749756 -3.343155 0.44900513 -5.1568756 2.1038818c-1.813736 1.6548767 -3.797104 6.746643 -5.725464 7.825348c-1.9283447 1.0787354 -3.5153656 -0.224823 -5.8446655 -1.3530579c-2.3293152 -1.1282349 -5.5155487 -4.262665 -8.131195 -5.416321c-2.615631 -1.153656 -5.3285675 -2.0322876 -7.562607 -1.5056458c-2.2340393 0.52664185 -3.5505219 2.508728 -5.841614 4.665497c-2.2911072 2.1567688 -6.167679 5.792389 -7.9049835 8.275055c-1.7373047 2.4826355 -1.9843903 4.0880127 -2.5188293 6.6208496z" fill-rule="evenodd"/><path fill="#cfe2f3" d="m210.12949 286.1666c1.5245819 0.7273865 3.3891296 1.4541321 5.3089294 2.5575867c1.9197998 1.1034851 4.779648 4.0130615 6.2098236 4.063263c1.430191 0.0501709 1.4116058 -2.4077148 2.3712463 -3.7621155c0.95965576 -1.3544312 2.445572 -3.1853027 3.3866425 -4.36438c0.9410553 -1.1791077 1.3754425 -2.4090576 2.2597504 -2.7101746c0.8843231 -0.30114746 1.503006 0.17599487 3.046173 0.90338135c1.5431671 0.7273865 4.7259064 1.7807007 6.2128296 3.4609985c1.4869385 1.6802979 2.4079132 5.1914673 2.7087097 6.6208496c0.3007965 1.4293518 0.09339905 2.0556946 -0.90390015 1.9553223c-0.99731445 -0.100372314 -3.5744476 -1.9058228 -5.079956 -2.5575867c-1.5055084 -0.65179443 -2.6735535 -1.8549805 -3.9530792 -1.3530884c-1.2795258 0.5018921 -2.576126 2.734253 -3.7240906 4.36438c-1.1479492 1.630127 -2.3355865 4.0873413 -3.1636658 5.416321c-0.8280792 1.3289795 -0.9204712 2.532837 -1.8047943 2.5575867c-0.8843231 0.024780273 -1.7696533 -1.2807922 -3.5011292 -2.409027c-1.7314758 -1.1282349 -4.7048187 -3.1819458 -6.8877563 -4.3603516c-2.1829376 -1.1784363 -4.7043304 -2.333435 -6.2098236 -2.7101746c-1.5055084 -0.3767395 -1.7691498 -0.12713623 -2.8231964 0.4496765c-1.0540619 0.57684326 -1.5441742 0.62835693 -3.5011292 3.0112915c-1.956955 2.382965 -6.396637 9.205231 -8.240601 11.286377c-1.8439789 2.0811157 -1.900711 1.025177 -2.8231964 1.2005005c-0.92248535 0.17532349 -2.222107 0.67852783 -2.7117157 -0.14855957c-0.48962402 -0.8271179 -0.20739746 -2.7824402 -0.22598267 -4.8140564c-0.018585205 -2.0316467 -0.84565735 -5.469879 0.11450195 -7.375702c0.96014404 -1.9057922 3.5950317 -2.303955 5.646393 -4.0592346c2.051361 -1.755249 4.9117126 -4.842163 6.6617737 -6.4722595c1.750061 -1.630127 2.5404816 -2.8821716 3.8385925 -3.3084412c1.2980957 -0.426239 2.651947 0.32455444 3.950058 0.750824c1.298111 0.42626953 2.3139954 1.0793762 3.8385925 1.8067932z" fill-rule="evenodd"/><path stroke="#000000" stroke-width="1.0" stroke-linejoin="round" stroke-linecap="butt" d="m210.12949 286.1666c1.5245819 0.7273865 3.3891296 1.4541321 5.3089294 2.5575867c1.9197998 1.1034851 4.779648 4.0130615 6.2098236 4.063263c1.430191 0.0501709 1.4116058 -2.4077148 2.3712463 -3.7621155c0.95965576 -1.3544312 2.445572 -3.1853027 3.3866425 -4.36438c0.9410553 -1.1791077 1.3754425 -2.4090576 2.2597504 -2.7101746c0.8843231 -0.30114746 1.503006 0.17599487 3.046173 0.90338135c1.5431671 0.7273865 4.7259064 1.7807007 6.2128296 3.4609985c1.4869385 1.6802979 2.4079132 5.1914673 2.7087097 6.6208496c0.3007965 1.4293518 0.09339905 2.0556946 -0.90390015 1.9553223c-0.99731445 -0.100372314 -3.5744476 -1.9058228 -5.079956 -2.5575867c-1.5055084 -0.65179443 -2.6735535 -1.8549805 -3.9530792 -1.3530884c-1.2795258 0.5018921 -2.576126 2.734253 -3.7240906 4.36438c-1.1479492 1.630127 -2.3355865 4.0873413 -3.1636658 5.416321c-0.8280792 1.3289795 -0.9204712 2.532837 -1.8047943 2.5575867c-0.8843231 0.024780273 -1.7696533 -1.2807922 -3.5011292 -2.409027c-1.7314758 -1.1282349 -4.7048187 -3.1819458 -6.8877563 -4.3603516c-2.1829376 -1.1784363 -4.7043304 -2.333435 -6.2098236 -2.7101746c-1.5055084 -0.3767395 -1.7691498 -0.12713623 -2.8231964 0.4496765c-1.0540619 0.57684326 -1.5441742 0.62835693 -3.5011292 3.0112915c-1.956955 2.382965 -6.396637 9.205231 -8.240601 11.286377c-1.8439789 2.0811157 -1.900711 1.025177 -2.8231964 1.2005005c-0.92248535 0.17532349 -2.222107 0.67852783 -2.7117157 -0.14855957c-0.48962402 -0.8271179 -0.20739746 -2.7824402 -0.22598267 -4.8140564c-0.018585205 -2.0316467 -0.84565735 -5.469879 0.11450195 -7.375702c0.96014404 -1.9057922 3.5950317 -2.303955 5.646393 -4.0592346c2.051361 -1.755249 4.9117126 -4.842163 6.6617737 -6.4722595c1.750061 -1.630127 2.5404816 -2.8821716 3.8385925 -3.3084412c1.2980957 -0.426239 2.651947 0.32455444 3.950058 0.750824c1.298111 0.42626953 2.3139954 1.0793762 3.8385925 1.8067932z" fill-rule="evenodd"/><path fill="#cfe2f3" d="m241.86465 340.7368c0.88038635 0.85635376 0.839859 2.8233948 2.4700775 4.750458c1.6302185 1.9270325 4.7420807 4.4977417 7.311203 6.811798c2.5691223 2.3140564 5.290802 4.5875244 8.103546 7.07251c2.8127136 2.4849854 6.036133 5.5233154 8.772827 7.837372c2.7366943 2.3140564 5.3603516 4.1822205 7.647339 6.046936c2.2870178 1.8647461 4.838135 3.513977 6.0746765 5.1414795c1.2365112 1.6274719 1.5901794 3.3172913 1.344574 4.6235046c-0.24560547 1.3062439 -1.6947327 2.4638367 -2.8182373 3.2138367c-1.1234741 0.7500305 -3.4544983 0.19381714 -3.922699 1.2862244c-0.4682312 1.0924377 1.226532 3.6826172 1.1134644 5.2683716c-0.11303711 1.5857544 -0.7623291 3.2384033 -1.7917786 4.2462463c-1.0294495 1.0078125 -3.1843872 1.7149658 -4.384918 1.8006897c-1.200531 0.085754395 -2.0673828 -1.5217285 -2.8182373 -1.2861938c-0.750824 0.23550415 -0.9944153 1.9287415 -1.6867371 2.6993408c-0.69229126 0.77056885 -1.5311584 1.5606079 -2.4670715 1.9241943c-0.9359131 0.3635559 -2.0038757 0.5573425 -3.1483765 0.25723267c-1.1445007 -0.30010986 -2.6676636 -0.96551514 -3.718628 -2.057953c-1.0509644 -1.0924377 -1.8177795 -2.8262634 -2.5871277 -4.496643c-0.7693329 -1.6703491 -0.94140625 -4.0901794 -2.028885 -5.5256042c-1.0874786 -1.4353943 -3.072342 -2.9154053 -4.4959717 -3.086914c-1.4236145 -0.17150879 -2.7712097 1.3079529 -4.045761 2.057953c-1.2745667 0.75 -2.963791 1.3496704 -3.6015778 2.4421082c-0.6377716 1.0924377 -0.44969177 2.634735 -0.22509766 4.1124573c0.22459412 1.4777222 1.1029816 3.254425 1.5726929 4.7538757c0.46969604 1.4994507 1.4516296 3.085785 1.2455444 4.2428284c-0.20610046 1.1570129 -1.6752319 2.2065735 -2.4820862 2.6993408c-0.80685425 0.49276733 -2.0043793 -0.36413574 -2.3590393 0.25723267c-0.35464478 0.6213989 0.45570374 2.4003906 0.23110962 3.4710999c-0.22460938 1.0707092 -0.7718353 2.310028 -1.5786896 2.9531555c-0.80685425 0.6430969 -2.1559448 0.86260986 -3.262436 0.90548706c-1.1064758 0.042877197 -2.7006836 -0.8832092 -3.3764648 -0.6482544c-0.6757965 0.23495483 -0.35966492 1.3725586 -0.67829895 2.057953c-0.3186493 0.6854248 -0.42819214 1.5183105 -1.233551 2.054535c-0.8053436 0.53619385 -2.361023 1.1627502 -3.5985718 1.1627502c-1.2375336 0 -2.7952118 -0.73342896 -3.8266754 -1.1627502c-1.0314484 -0.4293213 -1.5001526 -1.541748 -2.36203 -1.4131165c-0.86187744 0.12860107 -1.7417603 1.5840454 -2.8092194 2.184845c-1.0674744 0.60079956 -2.39505 1.3119507 -3.595581 1.4199829c-1.2005157 0.108062744 -2.5391083 -0.36413574 -3.6075745 -0.7717285c-1.0684662 -0.40759277 -2.0353851 -0.9878235 -2.8032227 -1.6737976c-0.7678375 -0.6859741 -0.9779358 -2.099701 -1.8037872 -2.4421082c-0.8258667 -0.34240723 -2.1764526 0.45217896 -3.1513824 0.38757324c-0.9749298 -0.064575195 -2.0418854 -0.26065063 -2.6981812 -0.7751465c-0.6562805 -0.51449585 -0.97743225 -1.4548645 -1.2395325 -2.3117676c-0.26211548 -0.8569031 -0.29563904 -2.10083 -0.33314514 -2.8296814c-0.037521362 -0.72888184 0.3896637 -1.1593323 0.10803223 -1.5434875c-0.2816162 -0.38412476 -1.2355347 -0.26922607 -1.7977753 -0.7614136c-0.56225586 -0.49221802 -1.4076233 -1.2913818 -1.5756989 -2.191742c-0.1680603 -0.9003601 0.28562927 -1.7755432 0.56726074 -3.2103882c0.2816162 -1.4348755 1.0669556 -3.6203003 1.1224823 -5.398712c0.055526733 -1.7784119 0.35365295 -3.878662 -0.78933716 -5.2717896c-1.1430054 -1.3931274 -4.194336 -2.8296814 -6.0686646 -3.086914c-1.8743134 -0.25726318 -3.9397125 0.6002197 -5.1772614 1.543457c-1.2375336 0.9432373 -1.9113312 2.852539 -2.2479858 4.115906c-0.3366394 1.2633667 0.13456726 2.0082092 0.22810364 3.4642334c0.09353638 1.4559937 0.57725525 3.9861145 0.33314514 5.271759c-0.2441101 1.285675 -0.8603668 1.992218 -1.7977905 2.4421082c-0.93740845 0.44989014 -3.039322 -0.21377563 -3.8266602 0.25726318c-0.7873535 0.47103882 -0.3536682 1.8407288 -0.8973999 2.5690002c-0.5437317 0.728302 -1.4936523 1.310791 -2.365036 1.8007202c-0.87138367 0.48989868 -1.6647186 1.1787415 -2.8632507 1.1387329c-1.1985168 -0.040039062 -3.114853 -0.72314453 -4.327896 -1.3788452c-1.213028 -0.65567017 -2.097412 -1.7355347 -2.9502869 -2.5552673c-0.85287476 -0.8197632 -1.1499939 -1.9042053 -2.1669464 -2.3632202c-1.0169373 -0.4590454 -2.394043 -0.39102173 -3.934723 -0.39102173c-1.5406647 0 -3.9982452 0.78430176 -5.309311 0.39102173c-1.3110809 -0.39331055 -1.8368073 -1.505188 -2.557129 -2.7507935c-0.7203064 -1.245636 -1.6332092 -2.755951 -1.7647705 -4.7230225c-0.13156128 -1.967041 -0.076034546 -4.664673 0.97543335 -7.0793457c1.0514526 -2.4146729 3.0048065 -4.206238 5.3333282 -7.4086304c2.3285217 -3.2023926 5.380356 -7.432068 8.637772 -11.805786c3.257431 -4.3737183 7.529297 -9.549469 10.906769 -14.436554c3.3774872 -4.8870544 7.592331 -12.018433 9.358093 -14.885864c1.7657776 -2.8674011 0.16757202 -1.9750366 1.2365417 -2.3186035c1.0689697 -0.3435669 3.1713867 0.19262695 5.1772614 0.25723267c2.00589 0.06460571 4.589508 0.06518555 6.8580017 0.13034058c2.2684937 0.06515503 4.4279327 0.23895264 6.75296 0.26068115c2.3250122 0.021728516 4.7235565 -0.10861206 7.1971436 -0.13034058c2.473587 -0.021728516 5.0392 0.021728516 7.644348 0c2.605133 -0.021728516 5.7565155 -0.10861206 7.9864807 -0.13034058c2.2299805 -0.021728516 3.6501007 -0.021728516 5.3933563 0c1.7432709 0.021728516 3.6591034 0.10861206 5.066223 0.13034058c1.4071198 0.021728516 2.3450165 -0.06460571 3.37648 0c1.0314484 0.06460571 1.931839 -0.46875 2.8122253 0.38757324z" fill-rule="evenodd"/><path stroke="#000000" stroke-width="1.0" stroke-linejoin="round" stroke-linecap="butt" d="m241.86465 340.7368c0.88038635 0.85635376 0.839859 2.8233948 2.4700775 4.750458c1.6302185 1.9270325 4.7420807 4.4977417 7.311203 6.811798c2.5691223 2.3140564 5.290802 4.5875244 8.103546 7.07251c2.8127136 2.4849854 6.036133 5.5233154 8.772827 7.837372c2.7366943 2.3140564 5.3603516 4.1822205 7.647339 6.046936c2.2870178 1.8647461 4.838135 3.513977 6.0746765 5.1414795c1.2365112 1.6274719 1.5901794 3.3172913 1.344574 4.6235046c-0.24560547 1.3062439 -1.6947327 2.4638367 -2.8182373 3.2138367c-1.1234741 0.7500305 -3.4544983 0.19381714 -3.922699 1.2862244c-0.4682312 1.0924377 1.226532 3.6826172 1.1134644 5.2683716c-0.11303711 1.5857544 -0.7623291 3.2384033 -1.7917786 4.2462463c-1.0294495 1.0078125 -3.1843872 1.7149658 -4.384918 1.8006897c-1.200531 0.085754395 -2.0673828 -1.5217285 -2.8182373 -1.2861938c-0.750824 0.23550415 -0.9944153 1.9287415 -1.6867371 2.6993408c-0.69229126 0.77056885 -1.5311584 1.5606079 -2.4670715 1.9241943c-0.9359131 0.3635559 -2.0038757 0.5573425 -3.1483765 0.25723267c-1.1445007 -0.30010986 -2.6676636 -0.96551514 -3.718628 -2.057953c-1.0509644 -1.0924377 -1.8177795 -2.8262634 -2.5871277 -4.496643c-0.7693329 -1.6703491 -0.94140625 -4.0901794 -2.028885 -5.5256042c-1.0874786 -1.4353943 -3.072342 -2.9154053 -4.4959717 -3.086914c-1.4236145 -0.17150879 -2.7712097 1.3079529 -4.045761 2.057953c-1.2745667 0.75 -2.963791 1.3496704 -3.6015778 2.4421082c-0.6377716 1.0924377 -0.44969177 2.634735 -0.22509766 4.1124573c0.22459412 1.4777222 1.1029816 3.254425 1.5726929 4.7538757c0.46969604 1.4994507 1.4516296 3.085785 1.2455444 4.2428284c-0.20610046 1.1570129 -1.6752319 2.2065735 -2.4820862 2.6993408c-0.80685425 0.49276733 -2.0043793 -0.36413574 -2.3590393 0.25723267c-0.35464478 0.6213989 0.45570374 2.4003906 0.23110962 3.4710999c-0.22460938 1.0707092 -0.7718353 2.310028 -1.5786896 2.9531555c-0.80685425 0.6430969 -2.1559448 0.86260986 -3.262436 0.90548706c-1.1064758 0.042877197 -2.7006836 -0.8832092 -3.3764648 -0.6482544c-0.6757965 0.23495483 -0.35966492 1.3725586 -0.67829895 2.057953c-0.3186493 0.6854248 -0.42819214 1.5183105 -1.233551 2.054535c-0.8053436 0.53619385 -2.361023 1.1627502 -3.5985718 1.1627502c-1.2375336 0 -2.7952118 -0.73342896 -3.8266754 -1.1627502c-1.0314484 -0.4293213 -1.5001526 -1.541748 -2.36203 -1.4131165c-0.86187744 0.12860107 -1.7417603 1.5840454 -2.8092194 2.184845c-1.0674744 0.60079956 -2.39505 1.3119507 -3.595581 1.4199829c-1.2005157 0.108062744 -2.5391083 -0.36413574 -3.6075745 -0.7717285c-1.0684662 -0.40759277 -2.0353851 -0.9878235 -2.8032227 -1.6737976c-0.7678375 -0.6859741 -0.9779358 -2.099701 -1.8037872 -2.4421082c-0.8258667 -0.34240723 -2.1764526 0.45217896 -3.1513824 0.38757324c-0.9749298 -0.064575195 -2.0418854 -0.26065063 -2.6981812 -0.7751465c-0.6562805 -0.51449585 -0.97743225 -1.4548645 -1.2395325 -2.3117676c-0.26211548 -0.8569031 -0.29563904 -2.10083 -0.33314514 -2.8296814c-0.037521362 -0.72888184 0.3896637 -1.1593323 0.10803223 -1.5434875c-0.2816162 -0.38412476 -1.2355347 -0.26922607 -1.7977753 -0.7614136c-0.56225586 -0.49221802 -1.4076233 -1.2913818 -1.5756989 -2.191742c-0.1680603 -0.9003601 0.28562927 -1.7755432 0.56726074 -3.2103882c0.2816162 -1.4348755 1.0669556 -3.6203003 1.1224823 -5.398712c0.055526733 -1.7784119 0.35365295 -3.878662 -0.78933716 -5.2717896c-1.1430054 -1.3931274 -4.194336 -2.8296814 -6.0686646 -3.086914c-1.8743134 -0.25726318 -3.9397125 0.6002197 -5.1772614 1.543457c-1.2375336 0.9432373 -1.9113312 2.852539 -2.2479858 4.115906c-0.3366394 1.2633667 0.13456726 2.0082092 0.22810364 3.4642334c0.09353638 1.4559937 0.57725525 3.9861145 0.33314514 5.271759c-0.2441101 1.285675 -0.8603668 1.992218 -1.7977905 2.4421082c-0.93740845 0.44989014 -3.039322 -0.21377563 -3.8266602 0.25726318c-0.7873535 0.47103882 -0.3536682 1.8407288 -0.8973999 2.5690002c-0.5437317 0.728302 -1.4936523 1.310791 -2.365036 1.8007202c-0.87138367 0.48989868 -1.6647186 1.1787415 -2.8632507 1.1387329c-1.1985168 -0.040039062 -3.114853 -0.72314453 -4.327896 -1.3788452c-1.213028 -0.65567017 -2.097412 -1.7355347 -2.9502869 -2.5552673c-0.85287476 -0.8197632 -1.1499939 -1.9042053 -2.1669464 -2.3632202c-1.0169373 -0.4590454 -2.394043 -0.39102173 -3.934723 -0.39102173c-1.5406647 0 -3.9982452 0.78430176 -5.309311 0.39102173c-1.3110809 -0.39331055 -1.8368073 -1.505188 -2.557129 -2.7507935c-0.7203064 -1.245636 -1.6332092 -2.755951 -1.7647705 -4.7230225c-0.13156128 -1.967041 -0.076034546 -4.664673 0.97543335 -7.0793457c1.0514526 -2.4146729 3.0048065 -4.206238 5.3333282 -7.4086304c2.3285217 -3.2023926 5.380356 -7.432068 8.637772 -11.805786c3.257431 -4.3737183 7.529297 -9.549469 10.906769 -14.436554c3.3774872 -4.8870544 7.592331 -12.018433 9.358093 -14.885864c1.7657776 -2.8674011 0.16757202 -1.9750366 1.2365417 -2.3186035c1.0689697 -0.3435669 3.1713867 0.19262695 5.1772614 0.25723267c2.00589 0.06460571 4.589508 0.06518555 6.8580017 0.13034058c2.2684937 0.06515503 4.4279327 0.23895264 6.75296 0.26068115c2.3250122 0.021728516 4.7235565 -0.10861206 7.1971436 -0.13034058c2.473587 -0.021728516 5.0392 0.021728516 7.644348 0c2.605133 -0.021728516 5.7565155 -0.10861206 7.9864807 -0.13034058c2.2299805 -0.021728516 3.6501007 -0.021728516 5.3933563 0c1.7432709 0.021728516 3.6591034 0.10861206 5.066223 0.13034058c1.4071198 0.021728516 2.3450165 -0.06460571 3.37648 0c1.0314484 0.06460571 1.931839 -0.46875 2.8122253 0.38757324z" fill-rule="evenodd"/><path fill="#cfe2f3" d="m183.46568 351.4839c-0.35835266 1.3769531 -1.3314362 5.1525574 -2.1501465 8.261658c-0.8187256 3.1091309 -1.9944305 6.9292603 -2.762146 10.393066c-0.7677307 3.4637756 -1.502655 7.114105 -1.8441772 10.389709c-0.34150696 3.2756042 -0.29005432 6.614105 -0.20489502 9.2638855c0.08514404 2.6497498 0.30644226 4.9443054 0.71580505 6.6347046c0.4093628 1.6904297 0.8528595 2.693756 1.7403412 3.507782c0.8874817 0.8140259 2.645584 1.4810486 3.5845032 1.3763733c0.9389343 -0.10467529 1.3665009 -0.98217773 2.0490723 -2.004425c0.6825714 -1.0222778 1.381073 -3.5245056 2.046341 -4.129181c0.66526794 -0.6046753 1.5527496 -0.39587402 1.9452515 0.50112915c0.3925171 0.89697266 -0.016845703 3.5038757 0.40982056 4.880829c0.426651 1.3769226 1.1943817 2.8591003 2.1501617 3.3808289c0.9557648 0.521698 2.4752655 0.83462524 3.5845032 -0.25054932c1.1092224 -1.0852051 2.0814056 -3.736084 3.070877 -6.260559c0.98947144 -2.5245056 2.2006989 -5.7360535 2.8659668 -8.886383c0.6652527 -3.1503296 0.7841034 -6.906433 1.1256256 -10.015533c0.34150696 -3.1091309 0.58192444 -4.7995605 0.92344666 -8.63916c0.34150696 -3.8396301 0.9380188 -11.99884 1.1256104 -14.398621" fill-rule="evenodd"/><path stroke="#000000" stroke-width="1.0" stroke-linejoin="round" stroke-linecap="butt" d="m183.46568 351.4839c-0.35835266 1.3769531 -1.3314362 5.1525574 -2.1501465 8.261658c-0.8187256 3.1091309 -1.9944305 6.9292603 -2.762146 10.393066c-0.7677307 3.4637756 -1.502655 7.114105 -1.8441772 10.389709c-0.34150696 3.2756042 -0.29005432 6.614105 -0.20489502 9.2638855c0.08514404 2.6497498 0.30644226 4.9443054 0.71580505 6.6347046c0.4093628 1.6904297 0.8528595 2.693756 1.7403412 3.507782c0.8874817 0.8140259 2.645584 1.4810486 3.5845032 1.3763733c0.9389343 -0.10467529 1.3665009 -0.98217773 2.0490723 -2.004425c0.6825714 -1.0222778 1.381073 -3.5245056 2.046341 -4.129181c0.66526794 -0.6046753 1.5527496 -0.39587402 1.9452515 0.50112915c0.3925171 0.89697266 -0.016845703 3.5038757 0.40982056 4.880829c0.426651 1.3769226 1.1943817 2.8591003 2.1501617 3.3808289c0.9557648 0.521698 2.4752655 0.83462524 3.5845032 -0.25054932c1.1092224 -1.0852051 2.0814056 -3.736084 3.070877 -6.260559c0.98947144 -2.5245056 2.2006989 -5.7360535 2.8659668 -8.886383c0.6652527 -3.1503296 0.7841034 -6.906433 1.1256256 -10.015533c0.34150696 -3.1091309 0.58192444 -4.7995605 0.92344666 -8.63916c0.34150696 -3.8396301 0.9380188 -11.99884 1.1256104 -14.398621" fill-rule="evenodd"/><path fill="#cfe2f3" d="m229.71478 376.7264c0.075042725 1.2850647 0.11305237 5.3540955 0.4501953 7.710449c0.3371582 2.3563538 0.4106903 4.349701 1.5726929 6.4276733c1.1620026 2.0779724 3.899704 4.497772 5.399353 6.0401c1.4996643 1.5423279 2.3800507 2.6135864 3.598587 3.2138367c1.2185211 0.6002197 2.4750824 0.81573486 3.712616 0.38757324c1.2375488 -0.42816162 2.8317413 -1.7566833 3.7126312 -2.956604c0.88087463 -1.1998901 0.5792389 -3.835785 1.5726776 -4.242798c0.9934387 -0.40701294 2.5131073 1.543457 4.387924 1.8007202c1.8748169 0.25723267 5.9425964 1.1352844 6.8609924 -0.25726318c0.918396 -1.3925476 -0.7693176 -5.848572 -1.3505859 -8.098053c-0.5812683 -2.2494507 -1.0309448 -3.5133667 -2.1369324 -5.3986816c-1.1059875 -1.885315 -2.7742157 -3.9421387 -4.4989624 -5.9131775c-1.724762 -1.9710693 -4.106308 -3.8992615 -5.8495636 -5.9131775c-1.7432556 -2.0139465 -3.2229156 -4.156494 -4.610016 -6.1704407c-1.3871002 -2.0139465 -2.5126038 -3.7712097 -3.7126312 -5.9131775c-1.2000122 -2.1419983 -2.9062653 -5.7822876 -3.4875183 -6.938751" fill-rule="evenodd"/><path stroke="#000000" stroke-width="1.0" stroke-linejoin="round" stroke-linecap="butt" d="m229.71478 376.7264c0.075042725 1.2850647 0.11305237 5.3540955 0.4501953 7.710449c0.3371582 2.3563538 0.4106903 4.349701 1.5726929 6.4276733c1.1620026 2.0779724 3.899704 4.497772 5.399353 6.0401c1.4996643 1.5423279 2.3800507 2.6135864 3.598587 3.2138367c1.2185211 0.6002197 2.4750824 0.81573486 3.712616 0.38757324c1.2375488 -0.42816162 2.8317413 -1.7566833 3.7126312 -2.956604c0.88087463 -1.1998901 0.5792389 -3.835785 1.5726776 -4.242798c0.9934387 -0.40701294 2.5131073 1.543457 4.387924 1.8007202c1.8748169 0.25723267 5.9425964 1.1352844 6.8609924 -0.25726318c0.918396 -1.3925476 -0.7693176 -5.848572 -1.3505859 -8.098053c-0.5812683 -2.2494507 -1.0309448 -3.5133667 -2.1369324 -5.3986816c-1.1059875 -1.885315 -2.7742157 -3.9421387 -4.4989624 -5.9131775c-1.724762 -1.9710693 -4.106308 -3.8992615 -5.8495636 -5.9131775c-1.7432556 -2.0139465 -3.2229156 -4.156494 -4.610016 -6.1704407c-1.3871002 -2.0139465 -2.5126038 -3.7712097 -3.7126312 -5.9131775c-1.2000122 -2.1419983 -2.9062653 -5.7822876 -3.4875183 -6.938751" fill-rule="evenodd"/><path fill="#cfe2f3" d="m184.27367 332.63733c-0.6187744 0.49276733 -0.7893524 1.5857849 -1.0144501 2.6993408c-0.22509766 1.1135864 -0.5427246 2.9754639 -0.33613586 3.9821472c0.20658875 1.0066833 0.3011322 1.543457 1.5756836 2.057953c1.2745514 0.51449585 3.5225372 0.55792236 6.0716553 1.0289917c2.549118 0.47103882 6.1671906 1.4119568 9.223038 1.7972717c3.055832 0.38528442 5.5499268 0.36413574 9.111984 0.51449585c3.5620575 0.15032959 8.661285 0.47332764 12.260361 0.38757324c3.5990753 -0.085754395 6.1101685 -0.30184937 9.334076 -0.9020691c3.2239075 -0.60025024 8.078537 -1.9710693 10.009384 -2.6993408c1.9308319 -0.728302 1.5381622 -0.27841187 1.5756836 -1.6703796c0.037521362 -1.3919678 -0.61927795 -5.374695 -1.3505859 -6.681488c-0.73132324 -1.3067932 -1.387619 -1.1164551 -3.0373383 -1.1593323c-1.6497192 -0.04284668 -3.9367218 0.53793335 -6.8609924 0.9020691c-2.924286 0.36416626 -6.954544 0.98324585 -10.684677 1.2828064c-3.730133 0.29956055 -7.609833 0.44989014 -11.696106 0.51449585c-4.0862885 0.064575195 -9.241043 0.25839233 -12.8216095 -0.1269226c-3.5805664 -0.38528442 -6.768463 -1.8635864 -8.661789 -2.184845c-1.8933258 -0.32128906 -2.0794067 -0.23553467 -2.6981812 0.25723267z" fill-rule="evenodd"/><path stroke="#000000" stroke-width="1.0" stroke-linejoin="round" stroke-linecap="butt" d="m184.27367 332.63733c-0.6187744 0.49276733 -0.7893524 1.5857849 -1.0144501 2.6993408c-0.22509766 1.1135864 -0.5427246 2.9754639 -0.33613586 3.9821472c0.20658875 1.0066833 0.3011322 1.543457 1.5756836 2.057953c1.2745514 0.51449585 3.5225372 0.55792236 6.0716553 1.0289917c2.549118 0.47103882 6.1671906 1.4119568 9.223038 1.7972717c3.055832 0.38528442 5.5499268 0.36413574 9.111984 0.51449585c3.5620575 0.15032959 8.661285 0.47332764 12.260361 0.38757324c3.5990753 -0.085754395 6.1101685 -0.30184937 9.334076 -0.9020691c3.2239075 -0.60025024 8.078537 -1.9710693 10.009384 -2.6993408c1.9308319 -0.728302 1.5381622 -0.27841187 1.5756836 -1.6703796c0.037521362 -1.3919678 -0.61927795 -5.374695 -1.3505859 -6.681488c-0.73132324 -1.3067932 -1.387619 -1.1164551 -3.0373383 -1.1593323c-1.6497192 -0.04284668 -3.9367218 0.53793335 -6.8609924 0.9020691c-2.924286 0.36416626 -6.954544 0.98324585 -10.684677 1.2828064c-3.730133 0.29956055 -7.609833 0.44989014 -11.696106 0.51449585c-4.0862885 0.064575195 -9.241043 0.25839233 -12.8216095 -0.1269226c-3.5805664 -0.38528442 -6.768463 -1.8635864 -8.661789 -2.184845c-1.8933258 -0.32128906 -2.0794067 -0.23553467 -2.6981812 0.25723267z" fill-rule="evenodd"/><path fill="#cfe2f3" d="m202.15738 330.83853c-0.95591736 0.042877197 -2.0799103 0.79403687 -2.6981812 1.8007202c-0.6182709 1.0066833 -0.842865 2.7187805 -1.0114441 4.23938c-0.16856384 1.5205994 -0.14956665 3.363037 0 4.884186c0.14956665 1.5211792 0.1665802 3.3213196 0.8973999 4.2428284c0.7308197 0.9215088 2.437561 1.2644958 3.4875183 1.2862244c1.0499573 0.021728516 2.2124634 -0.21322632 2.8122253 -1.1558838c0.59976196 -0.9426575 0.6737976 -3.0000305 0.78634644 -4.500061c0.11254883 -1.5000305 0.095047 -2.9577332 -0.11103821 -4.500061c-0.20610046 -1.5423279 -0.43170166 -3.7043152 -1.1255035 -4.7538757c-0.6938019 -1.0495605 -2.0814056 -1.5863342 -3.037323 -1.543457z" fill-rule="evenodd"/><path stroke="#000000" stroke-width="1.0" stroke-linejoin="round" stroke-linecap="butt" d="m202.15738 330.83853c-0.95591736 0.042877197 -2.0799103 0.79403687 -2.6981812 1.8007202c-0.6182709 1.0066833 -0.842865 2.7187805 -1.0114441 4.23938c-0.16856384 1.5205994 -0.14956665 3.363037 0 4.884186c0.14956665 1.5211792 0.1665802 3.3213196 0.8973999 4.2428284c0.7308197 0.9215088 2.437561 1.2644958 3.4875183 1.2862244c1.0499573 0.021728516 2.2124634 -0.21322632 2.8122253 -1.1558838c0.59976196 -0.9426575 0.6737976 -3.0000305 0.78634644 -4.500061c0.11254883 -1.5000305 0.095047 -2.9577332 -0.11103821 -4.500061c-0.20610046 -1.5423279 -0.43170166 -3.7043152 -1.1255035 -4.7538757c-0.6938019 -1.0495605 -2.0814056 -1.5863342 -3.037323 -1.543457z" fill-rule="evenodd"/><path fill="#cfe2f3" d="m235.11102 331.86578c-0.7873535 0.021728516 -1.4706421 0.6917114 -1.9118347 1.5434875c-0.44119263 0.8517456 -0.6127777 2.3832092 -0.7353363 3.5671082c-0.122543335 1.1838989 -0.14155579 2.28891 0 3.536255c0.14157104 1.247345 0.29563904 3.1183777 0.8493805 3.9478455c0.55374146 0.8294678 1.7422638 1.0501099 2.4730835 1.0289612c0.7308197 -0.021148682 1.578186 -0.3475647 1.9118347 -1.1558838c0.33364868 -0.8083191 0.060531616 -2.5352783 0.090042114 -3.6940308c0.029510498 -1.1587219 0.06452942 -2.0316467 0.08703613 -3.2584229c0.022506714 -1.2267456 0.50871277 -3.182953 0.04801941 -4.102173c-0.46070862 -0.91922 -2.024887 -1.434845 -2.8122253 -1.413147z" fill-rule="evenodd"/><path stroke="#000000" stroke-width="1.0" stroke-linejoin="round" stroke-linecap="butt" d="m235.11102 331.86578c-0.7873535 0.021728516 -1.4706421 0.6917114 -1.9118347 1.5434875c-0.44119263 0.8517456 -0.6127777 2.3832092 -0.7353363 3.5671082c-0.122543335 1.1838989 -0.14155579 2.28891 0 3.536255c0.14157104 1.247345 0.29563904 3.1183777 0.8493805 3.9478455c0.55374146 0.8294678 1.7422638 1.0501099 2.4730835 1.0289612c0.7308197 -0.021148682 1.578186 -0.3475647 1.9118347 -1.1558838c0.33364868 -0.8083191 0.060531616 -2.5352783 0.090042114 -3.6940308c0.029510498 -1.1587219 0.06452942 -2.0316467 0.08703613 -3.2584229c0.022506714 -1.2267456 0.50871277 -3.182953 0.04801941 -4.102173c-0.46070862 -0.91922 -2.024887 -1.434845 -2.8122253 -1.413147z" fill-rule="evenodd"/><path fill="#cfe2f3" d="m215.76884 411.30017c2.8112335 0.021728516 8.135559 0.25839233 11.134872 -0.12689209c2.9993134 -0.38531494 5.0617065 -0.89923096 6.8609924 -2.1848755c1.7992859 -1.2856445 3.278946 -3.6225586 3.934723 -5.529022c0.65579224 -1.9064636 -0.2060852 -4.110779 0 -5.9097595c0.2060852 -1.7989807 0.24261475 -3.6202698 1.2365417 -4.8842163c0.99394226 -1.263916 2.8522491 -1.9276123 4.727066 -2.6993408c1.8748169 -0.7717285 4.4224396 -1.7166748 6.5218506 -1.9310608c2.0994263 -0.21435547 4.687546 0.25897217 6.0746613 0.6448364c1.3871155 0.38586426 2.059906 0.87805176 2.2479858 1.6703796c0.18807983 0.79229736 -0.78234863 2.2694702 -1.1195068 3.083496c-0.3371277 0.8140259 -1.2965393 1.3719788 -0.90338135 1.8007202c0.39315796 0.42874146 2.0438843 0.7717285 3.2624207 0.7717285c1.2185364 0 2.4370728 -0.021728516 4.048767 -0.7717285c1.6117249 -0.7500305 3.6541138 -1.9933777 5.62146 -3.7283325c1.9673767 -1.7349854 4.4584656 -4.3039856 6.1827087 -6.681488c1.7242432 -2.3775024 3.48703 -5.8480225 4.1628113 -7.583557c0.67581177 -1.7355347 0.62228394 -1.8441467 -0.10803223 -2.8296814c-0.73031616 -0.98553467 -3.2799377 -2.56958 -4.2738647 -3.083496c-0.9939575 -0.513916 -1.1645203 -0.49276733 -1.6897583 0c-0.5252075 0.49276733 -0.7493286 1.5857544 -1.4616394 2.9565735c-0.7123108 1.3708496 -1.7252502 3.6402893 -2.8122253 5.2683716c-1.0869751 1.6280518 -2.3975525 3.129242 -3.7096252 4.500061c-1.3120728 1.3708191 -3.3189392 3.4465027 -4.1628113 3.724884c-0.8438721 0.27841187 -0.60076904 -1.3050842 -0.9003906 -2.0545044c-0.29962158 -0.7494507 -0.035003662 -1.5852051 -0.8973999 -2.4421082c-0.8623657 -0.8569336 -2.983307 -2.2060242 -4.2768707 -2.6993713c-1.2935638 -0.49331665 -1.928833 -0.28179932 -3.4845123 -0.26065063c-1.5556793 0.021148682 -3.7871552 -0.105773926 -5.8495636 0.38757324c-2.0624084 0.49334717 -4.518982 1.5223083 -6.5248566 2.5724487c-2.0058746 1.0501099 -4.085785 2.1642761 -5.5104065 3.728302c-1.4246216 1.5640564 -2.4190521 3.6854553 -3.037323 5.655945c-0.6182709 1.9704895 -0.1665802 4.432617 -0.67230225 6.166992c-0.50572205 1.7344055 -1.3680878 3.18927 -2.36203 4.2394104c-0.993927 1.0501099 -2.1389313 1.6749268 -3.6015778 2.0613708c-1.4626312 0.3864441 -3.037323 0.27896118 -5.1742554 0.25723267c-2.1369324 -0.021728516 -5.3043213 0.25552368 -7.647354 -0.38757324c-2.3430176 -0.6430969 -4.742569 -2.0785217 -6.410797 -3.4710693c-1.6682281 -1.3925476 -2.4550781 -2.9137268 -3.5985718 -4.8842163c-1.1434937 -1.9704895 -1.8943329 -5.010559 -3.2624207 -6.9387207c-1.368103 -1.9281921 -2.865265 -3.3876343 -4.946167 -4.6304016c-2.0809174 -1.2427673 -5.1392517 -2.526703 -7.5392914 -2.8262634c-2.400055 -0.29953003 -4.9871826 0.12921143 -6.8610077 1.0289917c-1.8738251 0.8997803 -3.3509674 2.7416382 -4.381912 4.3697205c-1.0309601 1.6280518 -0.82836914 4.006134 -1.8037872 5.3986816c-0.97543335 1.3925476 -2.4365692 2.442688 -4.0487823 2.956604c-1.6121979 0.513916 -4.1062927 0.6836853 -5.6244507 0.12689209c-1.518158 -0.5567932 -2.153946 -1.8184204 -3.4845276 -3.4676514c-1.3305817 -1.6492004 -3.467514 -4.9493713 -4.4989624 -6.4276733c-1.0314484 -1.478302 -0.88139343 -2.7244873 -1.689743 -2.4421082c-0.8083496 0.28240967 -2.4035492 3.1195374 -3.1603851 4.136505c-0.7568207 1.0169678 -1.7012329 1.0266724 -1.3806 1.965332c0.3206482 0.93865967 2.6786652 3.0126038 3.3044434 3.6665955c0.6257782 0.6539612 -0.28111267 -0.44989014 0.4501953 0.25723267c0.73132324 0.7071533 2.5506134 2.7645264 3.937729 3.9855652c1.3871002 1.2210693 2.3040009 2.4838562 4.384918 3.3407593c2.080902 0.8569031 5.9631042 1.6292114 8.10054 1.8006897c2.137436 0.17150879 3.4119873 0.12805176 4.72406 -0.7717285c1.3120728 -0.8997803 2.3610382 -2.9342957 3.1483765 -4.626953c0.7873535 -1.6926575 0.92041016 -4.179352 1.5756989 -5.529022c0.65527344 -1.3497009 1.2500458 -2.1408691 2.356018 -2.5690308c1.1059875 -0.42816162 2.9858093 -0.25665283 4.2798767 0c1.2940674 0.25668335 2.3040009 0.5762329 3.4845276 1.5400391c1.1805115 0.96380615 2.3800354 2.5289917 3.5985718 4.2428284c1.2185364 1.7138062 2.7377014 4.240509 3.712616 6.0400696c0.9749298 1.7995605 1.2370453 3.6643066 2.1369476 4.757324c0.8998871 1.0929871 1.2745514 0.96551514 3.2624207 1.8006897c1.9878693 0.8352051 6.2652435 2.6324768 8.664795 3.2104187c2.3995361 0.5779419 2.9212646 0.23550415 5.732498 0.25723267z" fill-rule="evenodd"/><path stroke="#000000" stroke-width="1.0" stroke-linejoin="round" stroke-linecap="butt" d="m215.76884 411.30017c2.8112335 0.021728516 8.135559 0.25839233 11.134872 -0.12689209c2.9993134 -0.38531494 5.0617065 -0.89923096 6.8609924 -2.1848755c1.7992859 -1.2856445 3.278946 -3.6225586 3.934723 -5.529022c0.65579224 -1.9064636 -0.2060852 -4.110779 0 -5.9097595c0.2060852 -1.7989807 0.24261475 -3.6202698 1.2365417 -4.8842163c0.99394226 -1.263916 2.8522491 -1.9276123 4.727066 -2.6993408c1.8748169 -0.7717285 4.4224396 -1.7166748 6.5218506 -1.9310608c2.0994263 -0.21435547 4.687546 0.25897217 6.0746613 0.6448364c1.3871155 0.38586426 2.059906 0.87805176 2.2479858 1.6703796c0.18807983 0.79229736 -0.78234863 2.2694702 -1.1195068 3.083496c-0.3371277 0.8140259 -1.2965393 1.3719788 -0.90338135 1.8007202c0.39315796 0.42874146 2.0438843 0.7717285 3.2624207 0.7717285c1.2185364 0 2.4370728 -0.021728516 4.048767 -0.7717285c1.6117249 -0.7500305 3.6541138 -1.9933777 5.62146 -3.7283325c1.9673767 -1.7349854 4.4584656 -4.3039856 6.1827087 -6.681488c1.7242432 -2.3775024 3.48703 -5.8480225 4.1628113 -7.583557c0.67581177 -1.7355347 0.62228394 -1.8441467 -0.10803223 -2.8296814c-0.73031616 -0.98553467 -3.2799377 -2.56958 -4.2738647 -3.083496c-0.9939575 -0.513916 -1.1645203 -0.49276733 -1.6897583 0c-0.5252075 0.49276733 -0.7493286 1.5857544 -1.4616394 2.9565735c-0.7123108 1.3708496 -1.7252502 3.6402893 -2.8122253 5.2683716c-1.0869751 1.6280518 -2.3975525 3.129242 -3.7096252 4.500061c-1.3120728 1.3708191 -3.3189392 3.4465027 -4.1628113 3.724884c-0.8438721 0.27841187 -0.60076904 -1.3050842 -0.9003906 -2.0545044c-0.29962158 -0.7494507 -0.035003662 -1.5852051 -0.8973999 -2.4421082c-0.8623657 -0.8569336 -2.983307 -2.2060242 -4.2768707 -2.6993713c-1.2935638 -0.49331665 -1.928833 -0.28179932 -3.4845123 -0.26065063c-1.5556793 0.021148682 -3.7871552 -0.105773926 -5.8495636 0.38757324c-2.0624084 0.49334717 -4.518982 1.5223083 -6.5248566 2.5724487c-2.0058746 1.0501099 -4.085785 2.1642761 -5.5104065 3.728302c-1.4246216 1.5640564 -2.4190521 3.6854553 -3.037323 5.655945c-0.6182709 1.9704895 -0.1665802 4.432617 -0.67230225 6.166992c-0.50572205 1.7344055 -1.3680878 3.18927 -2.36203 4.2394104c-0.993927 1.0501099 -2.1389313 1.6749268 -3.6015778 2.0613708c-1.4626312 0.3864441 -3.037323 0.27896118 -5.1742554 0.25723267c-2.1369324 -0.021728516 -5.3043213 0.25552368 -7.647354 -0.38757324c-2.3430176 -0.6430969 -4.742569 -2.0785217 -6.410797 -3.4710693c-1.6682281 -1.3925476 -2.4550781 -2.9137268 -3.5985718 -4.8842163c-1.1434937 -1.9704895 -1.8943329 -5.010559 -3.2624207 -6.9387207c-1.368103 -1.9281921 -2.865265 -3.3876343 -4.946167 -4.6304016c-2.0809174 -1.2427673 -5.1392517 -2.526703 -7.5392914 -2.8262634c-2.400055 -0.29953003 -4.9871826 0.12921143 -6.8610077 1.0289917c-1.8738251 0.8997803 -3.3509674 2.7416382 -4.381912 4.3697205c-1.0309601 1.6280518 -0.82836914 4.006134 -1.8037872 5.3986816c-0.97543335 1.3925476 -2.4365692 2.442688 -4.0487823 2.956604c-1.6121979 0.513916 -4.1062927 0.6836853 -5.6244507 0.12689209c-1.518158 -0.5567932 -2.153946 -1.8184204 -3.4845276 -3.4676514c-1.3305817 -1.6492004 -3.467514 -4.9493713 -4.4989624 -6.4276733c-1.0314484 -1.478302 -0.88139343 -2.7244873 -1.689743 -2.4421082c-0.8083496 0.28240967 -2.4035492 3.1195374 -3.1603851 4.136505c-0.7568207 1.0169678 -1.7012329 1.0266724 -1.3806 1.965332c0.3206482 0.93865967 2.6786652 3.0126038 3.3044434 3.6665955c0.6257782 0.6539612 -0.28111267 -0.44989014 0.4501953 0.25723267c0.73132324 0.7071533 2.5506134 2.7645264 3.937729 3.9855652c1.3871002 1.2210693 2.3040009 2.4838562 4.384918 3.3407593c2.080902 0.8569031 5.9631042 1.6292114 8.10054 1.8006897c2.137436 0.17150879 3.4119873 0.12805176 4.72406 -0.7717285c1.3120728 -0.8997803 2.3610382 -2.9342957 3.1483765 -4.626953c0.7873535 -1.6926575 0.92041016 -4.179352 1.5756989 -5.529022c0.65527344 -1.3497009 1.2500458 -2.1408691 2.356018 -2.5690308c1.1059875 -0.42816162 2.9858093 -0.25665283 4.2798767 0c1.2940674 0.25668335 2.3040009 0.5762329 3.4845276 1.5400391c1.1805115 0.96380615 2.3800354 2.5289917 3.5985718 4.2428284c1.2185364 1.7138062 2.7377014 4.240509 3.712616 6.0400696c0.9749298 1.7995605 1.2370453 3.6643066 2.1369476 4.757324c0.8998871 1.0929871 1.2745514 0.96551514 3.2624207 1.8006897c1.9878693 0.8352051 6.2652435 2.6324768 8.664795 3.2104187c2.3995361 0.5779419 2.9212646 0.23550415 5.732498 0.25723267z" fill-rule="evenodd"/></g></svg>