<?xml version="1.0" standalone="no"?>
<!DOCTYPE svg PUBLIC "-//W3C//DTD SVG 20010904//EN"
 "http://www.w3.org/TR/2001/REC-SVG-20010904/DTD/svg10.dtd">
<svg version="1.0" xmlns="http://www.w3.org/2000/svg"
 width="183.000000pt" height="194.000000pt" viewBox="0 0 183.000000 194.000000"
 preserveAspectRatio="xMidYMid meet">
<metadata>
Created by potrace 1.16, written by Peter Selinger 2001-2019
</metadata>
<g transform="translate(0.000000,194.000000) scale(0.100000,-0.100000)"
fill="#000000" stroke="none">
<path d="M576 1899 c-11 -70 -61 -102 -184 -116 -35 -4 -56 -11 -60 -21 -3 -9
3 -101 14 -206 27 -271 24 -667 -6 -788 -44 -174 -91 -318 -145 -447 -31 -73
-55 -143 -53 -154 3 -19 14 -23 88 -34 47 -7 150 -24 230 -38 317 -54 468 -62
640 -31 126 22 511 126 529 143 12 10 13 21 3 60 -6 27 -27 154 -47 283 -112
738 -136 850 -243 1125 l-38 100 -71 12 c-115 19 -167 56 -167 118 l0 35 -242
0 -241 0 -7 -41z m431 -81 c37 -68 63 -85 161 -106 l82 -17 26 -80 c15 -44 35
-96 45 -115 37 -71 82 -302 175 -890 26 -162 49 -307 51 -322 6 -34 -1 -38
-167 -81 -315 -82 -501 -98 -729 -63 -58 9 -126 16 -153 16 -26 0 -48 4 -48 9
0 9 -147 41 -187 41 -13 0 -23 3 -23 7 0 4 20 55 45 114 50 118 128 381 146
486 18 112 15 555 -4 727 -9 82 -17 150 -17 151 0 2 32 11 72 20 82 21 140 64
158 121 l12 34 163 0 164 0 28 -52z"/>
</g>
</svg>
