<?xml version="1.0" standalone="no"?>
<!DOCTYPE svg PUBLIC "-//W3C//DTD SVG 20010904//EN"
 "http://www.w3.org/TR/2001/REC-SVG-20010904/DTD/svg10.dtd">
<svg version="1.0" xmlns="http://www.w3.org/2000/svg"
 width="208.000000pt" height="213.000000pt" viewBox="0 0 208.000000 213.000000"
 preserveAspectRatio="xMidYMid meet">
<metadata>
Created by potrace 1.16, written by Peter Selinger 2001-2019
</metadata>
<g transform="translate(0.000000,213.000000) scale(0.100000,-0.100000)"
fill="#000000" stroke="none">
<path d="M576 2089 c-11 -70 -61 -102 -184 -116 -35 -4 -56 -11 -60 -21 -3 -9
3 -101 14 -206 27 -271 24 -667 -6 -788 -44 -174 -91 -318 -145 -447 -31 -73
-55 -143 -53 -154 3 -19 14 -23 88 -34 47 -7 150 -24 230 -38 317 -54 468 -62
640 -31 126 22 511 126 529 143 12 10 13 21 3 60 -6 27 -27 154 -47 283 -112
738 -136 850 -243 1125 l-38 100 -71 12 c-115 19 -167 56 -167 118 l0 35 -242
0 -241 0 -7 -41z m431 -81 c37 -68 63 -85 161 -106 l82 -17 26 -80 c15 -44 35
-96 45 -115 37 -71 82 -302 175 -890 26 -162 49 -307 51 -322 6 -34 -1 -38
-167 -81 -315 -82 -501 -98 -729 -63 -58 9 -126 16 -153 16 -26 0 -48 4 -48 9
0 9 -147 41 -187 41 -13 0 -23 3 -23 7 0 4 20 55 45 114 50 118 128 381 146
486 18 112 15 555 -4 727 -9 82 -17 150 -17 151 0 2 32 11 72 20 82 21 140 64
158 121 l12 34 163 0 164 0 28 -52z"/>
<path d="M724 1706 c-40 -17 -71 -58 -85 -109 -14 -52 0 -126 37 -199 32 -63
141 -173 205 -207 l46 -25 49 29 c198 115 302 357 203 470 -61 70 -147 68
-213 -5 -20 -22 -36 -46 -36 -53 0 -6 -8 2 -19 18 -27 44 -63 74 -102 85 -42
12 -47 12 -85 -4z m114 -42 c13 -9 38 -38 55 -66 27 -44 33 -48 42 -33 57 99
124 141 180 114 50 -24 70 -63 70 -132 0 -109 -74 -225 -196 -306 l-61 -41
-41 23 c-106 58 -210 200 -221 303 -14 124 79 199 172 138z"/>
</g>
</svg>
