<?xml version="1.0" standalone="no"?>
<!DOCTYPE svg PUBLIC "-//W3C//DTD SVG 20010904//EN"
 "http://www.w3.org/TR/2001/REC-SVG-20010904/DTD/svg10.dtd">
<svg version="1.0" xmlns="http://www.w3.org/2000/svg"
 width="801.000000pt" height="476.000000pt" viewBox="0 0 801.000000 476.000000"
 preserveAspectRatio="xMidYMid meet">
<metadata>
Created by potrace 1.16, written by Peter Selinger 2001-2019
</metadata>
<g transform="translate(0.000000,476.000000) scale(0.100000,-0.100000)"
fill="#000000" stroke="none">
<path d="M2320 4584 c-14 -7 -36 -14 -50 -14 -43 0 -188 -39 -233 -61 -158
-80 -286 -284 -626 -995 -363 -763 -465 -958 -721 -1394 -133 -225 -194 -315
-393 -574 -59 -76 -107 -148 -107 -160 0 -22 148 -289 228 -411 74 -114 207
-237 382 -355 112 -76 164 -105 187 -106 29 -1 35 -7 73 -80 44 -83 131 -229
152 -254 28 -33 53 -45 107 -52 31 -4 72 -10 92 -14 l35 -6 29 79 c68 187 165
489 165 515 0 32 106 591 220 1158 168 841 244 1118 511 1861 68 188 99 289
99 320 0 24 7 89 15 144 19 133 19 246 0 293 -21 48 -93 122 -120 121 -11 -1
-31 -7 -45 -15z m80 -116 c27 -45 26 -141 -4 -348 -21 -138 -33 -188 -77 -305
-28 -77 -91 -257 -140 -400 -49 -143 -94 -269 -99 -280 -30 -58 -157 -534
-260 -970 -85 -363 -137 -615 -184 -905 -46 -283 -81 -469 -117 -623 l-21 -89
-44 65 c-24 36 -47 68 -52 71 -5 3 -21 -12 -35 -33 l-26 -38 23 -34 c12 -19
39 -62 60 -95 36 -59 37 -63 26 -105 -7 -24 -27 -77 -45 -116 -27 -58 -38 -73
-56 -73 -38 0 -82 62 -178 248 -177 347 -423 679 -617 833 -70 56 -203 129
-235 129 -18 0 -16 5 14 52 19 29 85 121 147 203 140 188 275 390 375 565 89
156 444 869 664 1332 140 297 273 535 349 625 l27 32 34 -29 35 -30 -158 -319
c-100 -203 -156 -328 -154 -343 2 -16 10 -24 30 -26 24 -3 34 8 100 110 198
303 301 480 325 555 13 43 14 56 4 81 -15 36 -64 62 -114 62 -20 0 -39 4 -42
10 -11 18 72 114 127 147 64 39 172 68 261 72 32 1 40 -4 57 -31z m-1996
-3202 c88 -49 201 -150 292 -259 86 -103 259 -345 252 -352 -7 -8 -146 82
-232 149 -130 103 -237 219 -303 331 -111 186 -111 188 -9 131z"/>
<path d="M2140 4123 c-16 -21 -20 -36 -16 -62 6 -39 47 -94 88 -119 24 -14 28
-14 51 1 39 25 77 81 84 121 5 30 1 42 -17 61 -27 28 -48 31 -75 11 -17 -12
-22 -12 -39 0 -30 21 -52 17 -76 -13z m74 -30 l24 -26 26 29 c23 27 26 28 42
12 15 -15 16 -22 6 -57 -7 -22 -26 -51 -43 -65 l-31 -26 -28 20 c-27 19 -60
75 -60 102 0 15 19 38 32 38 4 0 18 -12 32 -27z"/>
<path d="M2000 3823 c-16 -21 -20 -36 -16 -62 6 -39 47 -94 88 -119 24 -14 28
-14 51 1 39 25 77 81 84 121 5 30 1 42 -17 61 -27 28 -48 31 -75 11 -17 -12
-22 -12 -39 0 -30 21 -52 17 -76 -13z m74 -30 l24 -26 26 29 c23 27 26 28 42
12 15 -15 16 -22 6 -57 -7 -22 -26 -51 -43 -65 l-31 -26 -28 20 c-27 19 -60
75 -60 102 0 15 19 38 32 38 4 0 18 -12 32 -27z"/>
<path d="M1850 3513 c-16 -21 -20 -36 -16 -62 6 -39 47 -94 88 -119 24 -14 28
-14 51 1 39 25 77 81 84 121 5 30 1 42 -17 61 -27 28 -48 31 -75 11 -17 -12
-22 -12 -39 0 -30 21 -52 17 -76 -13z m74 -30 l24 -26 26 29 c23 27 26 28 42
12 15 -15 16 -22 6 -57 -7 -22 -26 -51 -43 -65 l-31 -26 -28 20 c-27 19 -60
75 -60 102 0 15 19 38 32 38 4 0 18 -12 32 -27z"/>
<path d="M490 1583 c-17 -26 -30 -50 -30 -54 0 -4 23 -12 50 -18 56 -12 138
-50 188 -88 38 -28 46 -25 63 24 12 37 12 37 -37 82 -49 44 -154 101 -187 101
-10 0 -30 -20 -47 -47z"/>
<path d="M836 1366 l-28 -47 76 -79 c41 -43 82 -92 91 -109 8 -17 19 -31 23
-31 4 0 17 16 30 36 l23 36 -33 55 c-18 30 -60 84 -94 120 l-60 67 -28 -48z"/>
<path d="M1106 1030 l-27 -50 22 -33 c12 -17 46 -61 75 -97 28 -36 61 -82 72
-104 l21 -38 26 52 26 52 -88 134 c-48 73 -91 134 -94 134 -3 0 -18 -23 -33
-50z"/>
<path d="M3193 4448 c-23 -24 -49 -60 -58 -80 -19 -47 -19 -160 0 -293 8 -55
15 -120 15 -144 0 -31 31 -132 99 -320 267 -743 343 -1020 511 -1861 114 -567
220 -1126 220 -1158 0 -26 97 -328 165 -515 l29 -79 35 6 c20 4 61 10 92 14
54 7 79 19 107 52 21 25 108 171 152 254 38 73 44 79 73 80 23 1 75 30 187
106 175 118 308 241 382 355 80 122 228 389 228 411 0 12 -48 84 -107 160
-199 259 -260 349 -393 574 -256 436 -358 631 -721 1394 -340 711 -468 915
-626 995 -45 22 -191 61 -233 61 -14 0 -38 7 -54 15 -43 23 -58 19 -103 -27z
m233 -84 c32 -8 83 -29 112 -47 55 -33 138 -129 127 -147 -3 -6 -22 -10 -42
-10 -50 0 -99 -26 -114 -62 -10 -25 -9 -38 4 -81 24 -75 127 -252 325 -555 66
-102 76 -113 100 -110 20 2 28 10 30 26 2 15 -54 140 -154 343 l-158 319 35
30 34 29 27 -32 c76 -90 209 -328 349 -625 220 -463 575 -1176 664 -1332 100
-175 235 -377 375 -565 62 -82 128 -174 147 -203 30 -47 32 -52 14 -52 -32 0
-165 -73 -235 -129 -194 -154 -440 -486 -617 -833 -96 -186 -140 -248 -178
-248 -18 0 -29 15 -56 73 -18 39 -38 92 -45 116 -11 42 -10 46 26 105 21 33
48 76 60 95 l23 34 -26 38 c-14 21 -30 36 -35 33 -5 -3 -28 -35 -52 -71 l-44
-65 -21 89 c-36 154 -71 340 -117 623 -47 290 -99 542 -184 905 -103 436 -230
912 -260 970 -5 11 -50 137 -99 280 -49 143 -112 323 -140 400 -44 117 -56
167 -77 305 -30 209 -31 303 -3 349 l20 34 63 -7 c34 -3 89 -13 122 -22z
m1858 -3206 c-99 -193 -213 -332 -380 -464 -86 -67 -225 -157 -232 -149 -7 7
166 249 252 352 90 108 204 209 291 259 78 44 91 44 69 2z"/>
<path d="M3292 4017 c-26 -28 -28 -57 -6 -103 18 -38 77 -94 100 -94 8 0 34
20 59 44 52 53 66 102 41 142 -23 34 -44 40 -76 22 -23 -13 -29 -13 -45 -2
-27 20 -48 17 -73 -9z m68 -34 l21 -27 25 27 c14 15 28 27 32 27 13 0 32 -23
32 -38 0 -27 -33 -83 -60 -102 l-28 -20 -31 26 c-38 31 -60 96 -41 119 17 21
25 19 50 -12z"/>
<path d="M3432 3717 c-26 -28 -28 -57 -6 -103 18 -38 77 -94 100 -94 8 0 34
20 59 44 52 53 66 102 41 142 -23 34 -44 40 -76 22 -23 -13 -29 -13 -45 -2
-27 20 -48 17 -73 -9z m68 -34 l21 -27 25 27 c14 15 28 27 32 27 13 0 32 -23
32 -38 0 -27 -33 -83 -60 -102 l-28 -20 -31 26 c-38 31 -60 96 -41 119 17 21
25 19 50 -12z"/>
<path d="M3582 3407 c-26 -28 -28 -57 -6 -103 18 -38 77 -94 100 -94 8 0 34
20 59 44 52 53 66 102 41 142 -23 34 -44 40 -76 22 -23 -13 -29 -13 -45 -2
-27 20 -48 17 -73 -9z m68 -34 l21 -27 25 27 c14 15 28 27 32 27 13 0 32 -23
32 -38 0 -27 -33 -83 -60 -102 l-28 -20 -31 26 c-38 31 -60 96 -41 119 17 21
25 19 50 -12z"/>
<path d="M5005 1492 c-33 -16 -82 -49 -109 -73 -49 -45 -49 -45 -37 -82 17
-49 25 -52 63 -24 50 38 132 76 188 88 27 6 50 14 50 18 0 20 -62 101 -77 101
-10 0 -45 -13 -78 -28z"/>
<path d="M4693 1235 c-32 -36 -74 -89 -92 -119 l-32 -54 23 -36 c13 -20 26
-36 30 -36 4 0 15 14 23 31 9 17 50 66 91 109 l76 79 -27 45 c-15 25 -28 46
-30 46 -2 0 -30 -29 -62 -65z"/>
<path d="M4387 836 l-88 -134 26 -52 26 -52 21 38 c11 22 44 68 72 104 29 36
63 80 75 97 l22 33 -27 50 c-15 27 -30 50 -33 50 -3 0 -46 -61 -94 -134z"/>
<path d="M6603 3835 c-88 -19 -106 -31 -98 -62 13 -53 93 -210 125 -246 18
-21 58 -51 89 -67 52 -26 273 -100 299 -100 17 0 52 74 52 110 0 35 -83 297
-102 323 -26 35 -271 64 -365 42z m205 -31 c58 -8 113 -19 122 -24 19 -10 101
-233 108 -295 3 -31 0 -52 -11 -69 l-16 -24 -103 30 c-131 38 -219 80 -253
120 -28 34 -74 119 -104 197 l-20 48 62 16 c80 20 90 20 215 1z"/>
<path d="M6484 3090 c-7 -7 -6 -38 2 -92 28 -181 14 -365 -42 -578 -43 -168
-155 -521 -180 -570 -13 -26 -24 -59 -24 -73 0 -30 -115 -388 -141 -439 -22
-43 -25 -91 -6 -105 6 -6 197 -23 422 -39 317 -22 482 -29 725 -29 346 0 341
-1 553 68 110 35 127 44 127 62 0 11 -33 120 -74 242 -72 213 -104 343 -125
504 -14 100 -75 404 -111 546 -28 109 -89 250 -115 265 -7 4 -81 62 -165 129
-117 93 -151 115 -147 97 3 -12 13 -74 22 -136 17 -117 14 -170 -11 -209 -34
-53 -184 -94 -222 -61 -9 8 -63 36 -118 60 -175 78 -223 123 -278 260 -14 36
-26 71 -26 76 0 5 -11 14 -25 20 -31 14 -29 14 -41 2z m873 -212 c92 -96 129
-161 163 -278 50 -174 89 -358 105 -500 25 -206 58 -349 134 -574 53 -159 66
-207 57 -215 -17 -14 -163 -48 -261 -60 -218 -27 -439 -23 -785 16 -86 9 -237
16 -373 17 -197 1 -226 3 -221 16 31 82 279 866 329 1040 65 229 84 322 85
419 l0 53 38 -34 c80 -72 211 -147 322 -183 156 -51 295 11 336 151 16 55 16
138 -1 177 -14 33 12 17 72 -45z"/>
<path d="M6849 2427 c-19 -12 -42 -38 -52 -57 -26 -50 -19 -149 13 -214 48
-96 182 -216 241 -216 60 0 190 116 237 210 33 67 42 171 19 216 -28 53 -62
77 -119 82 -47 3 -58 0 -97 -28 -43 -32 -43 -32 -65 -12 -53 49 -122 56 -177
19z m124 -80 c12 -13 30 -38 39 -55 23 -42 53 -42 76 0 40 75 104 101 136 56
22 -30 20 -104 -3 -155 -23 -49 -90 -124 -138 -154 l-34 -21 -40 28 c-117 81
-183 231 -133 302 21 30 68 29 97 -1z"/>
</g>
</svg>
