<?xml version="1.0" standalone="no"?>
<!DOCTYPE svg PUBLIC "-//W3C//DTD SVG 20010904//EN"
 "http://www.w3.org/TR/2001/REC-SVG-20010904/DTD/svg10.dtd">
<svg version="1.0" xmlns="http://www.w3.org/2000/svg"
 width="920.000000pt" height="261.000000pt" viewBox="0 0 920.000000 261.000000"
 preserveAspectRatio="xMidYMid meet">
<metadata>
Created by potrace 1.16, written by Peter Selinger 2001-2019
</metadata>
<g transform="translate(0.000000,261.000000) scale(0.100000,-0.100000)"
fill="#000000" stroke="none">
<path d="M2955 2184 c-11 -2 -46 -9 -77 -15 -60 -12 -79 -32 -54 -57 12 -13
24 -13 72 -4 148 30 359 6 517 -59 88 -37 107 -37 107 -3 0 22 -10 30 -67 56
-106 48 -242 79 -368 83 -60 2 -119 2 -130 -1z"/>
<path d="M1294 2135 c-4 -8 -4 -21 -1 -29 7 -17 102 -49 227 -75 152 -32 190
-31 190 9 0 22 -10 25 -105 40 -84 13 -176 36 -228 55 -48 19 -76 19 -83 0z"/>
<path d="M4930 2086 c-99 -19 -226 -63 -322 -112 -98 -51 -141 -86 -132 -108
10 -26 31 -25 79 5 161 102 340 158 528 163 115 4 140 13 121 44 -9 14 -28 17
-110 19 -54 0 -128 -4 -164 -11z"/>
<path d="M6455 2085 c-27 -7 -69 -20 -92 -29 -68 -28 -80 -95 -22 -126 15 -9
35 -6 87 12 71 24 179 31 259 15 35 -7 45 -5 62 12 26 26 27 72 3 94 -39 35
-199 47 -297 22z"/>
<path d="M2922 2065 c-83 -13 -112 -26 -112 -51 0 -25 30 -31 98 -18 146 29
345 7 483 -51 35 -15 79 -30 97 -32 29 -5 32 -3 32 21 0 20 -9 30 -37 45 -79
39 -199 74 -316 90 -95 13 -137 13 -245 -4z"/>
<path d="M8190 2060 c-189 -23 -481 -116 -512 -164 -12 -17 -9 -71 4 -84 19
-19 74 -14 120 9 135 69 332 110 558 116 199 6 220 12 220 67 0 60 -18 66
-181 65 -79 -1 -173 -5 -209 -9z"/>
<path d="M4955 1980 c-161 -30 -335 -101 -442 -179 -46 -34 -54 -55 -25 -70
14 -8 27 -4 53 13 167 113 353 175 553 185 100 5 121 9 130 24 30 49 -87 61
-269 27z"/>
<path d="M3597 886 c-32 -13 -82 -43 -111 -65 -51 -40 -59 -42 -182 -61 -71
-10 -142 -24 -159 -30 -39 -15 -80 -54 -95 -91 -13 -30 -24 -36 -36 -18 -10
17 -122 66 -190 83 -72 19 -151 20 -226 5 -78 -15 -108 -29 -108 -49 0 -25 19
-29 64 -13 63 21 169 27 237 13 35 -8 105 -35 156 -62 52 -26 98 -48 103 -48
6 0 21 21 34 48 42 83 62 92 256 118 118 16 127 19 159 50 42 41 128 83 185
90 51 7 119 -10 168 -42 43 -28 63 -30 72 -9 7 19 -48 61 -114 86 -68 26 -142
24 -213 -5z"/>
<path d="M4265 891 c-88 -25 -145 -58 -145 -81 0 -27 13 -25 100 12 66 28 86
32 170 32 109 1 188 -21 285 -79 64 -39 95 -44 95 -17 0 21 -44 51 -140 95
-129 60 -249 72 -365 38z"/>
<path d="M1755 729 c-220 -32 -413 -88 -566 -164 -120 -60 -155 -87 -169 -129
-20 -61 32 -136 94 -136 8 0 68 27 132 60 65 33 167 76 228 95 113 35 318 75
387 75 68 0 107 23 130 79 13 32 -5 85 -38 111 -28 22 -88 25 -198 9z"/>
<path d="M5308 697 c-72 -26 -152 -85 -156 -115 -5 -32 20 -28 78 14 102 73
189 89 290 54 48 -16 57 -17 70 -4 13 12 13 16 0 28 -25 23 -111 46 -169 45
-31 0 -82 -10 -113 -22z"/>
</g>
</svg>
