<svg version="1.1" viewBox="0.0 0.0 353.3070866141732 587.010498687664" fill="none" stroke="none" stroke-linecap="square" stroke-miterlimit="10" xmlns:xlink="http://www.w3.org/1999/xlink" xmlns="http://www.w3.org/2000/svg"><clipPath id="p.0"><path d="m0 0l353.3071 0l0 587.0105l-353.3071 0l0 -587.0105z" clip-rule="nonzero"/></clipPath><g clip-path="url(#p.0)"><path fill="#000000" fill-opacity="0.0" d="m0 0l353.3071 0l0 587.0105l-353.3071 0z" fill-rule="evenodd"/><path fill="#cfe2f3" d="m216.8683 288.25165c1.7639008 4.7476807 8.172592 22.188385 10.583389 28.486023c2.410797 6.297638 2.0390472 7.7301025 3.8814087 9.299744c1.8423615 1.5696716 4.6443634 1.2953186 7.1727295 0.118133545c2.5283813 -1.177185 9.291336 -0.11834717 7.9975433 -7.1812134c-1.293808 -7.062866 -11.173904 -27.799744 -15.760345 -35.196014c-4.586441 -7.3962708 -9.798584 -7.651367 -11.758301 -9.181641" fill-rule="evenodd"/><path stroke="#000000" stroke-width="2.0" stroke-linejoin="round" stroke-linecap="butt" d="m216.8683 288.25165c1.7639008 4.7476807 8.172592 22.188385 10.583389 28.486023c2.410797 6.297638 2.0390472 7.7301025 3.8814087 9.299744c1.8423615 1.5696716 4.6443634 1.2953186 7.1727295 0.118133545c2.5283813 -1.177185 9.291336 -0.11834717 7.9975433 -7.1812134c-1.293808 -7.062866 -11.173904 -27.799744 -15.760345 -35.196014c-4.586441 -7.3962708 -9.798584 -7.651367 -11.758301 -9.181641" fill-rule="evenodd"/><path fill="#cfe2f3" d="m228.74971 320.14972c1.6664124 4.4529724 7.7440186 20.734436 9.99855 26.717926c2.2545319 5.98349 1.6863098 7.6132812 3.5286713 9.182953c1.8423615 1.5696411 4.977646 1.4121094 7.525467 0.23495483c2.5478363 -1.177185 7.722809 -2.7468567 7.761505 -7.298065c0.03869629 -4.5512085 -5.49057 -14.241699 -7.5294037 -20.009247c-2.0388336 -5.7675476 -3.9196472 -12.163422 -4.703583 -14.5961" fill-rule="evenodd"/><path stroke="#000000" stroke-width="2.0" stroke-linejoin="round" stroke-linecap="butt" d="m228.74971 320.14972c1.6664124 4.4529724 7.7440186 20.734436 9.99855 26.717926c2.2545319 5.98349 1.6863098 7.6132812 3.5286713 9.182953c1.8423615 1.5696411 4.977646 1.4121094 7.525467 0.23495483c2.5478363 -1.177185 7.722809 -2.7468567 7.761505 -7.298065c0.03869629 -4.5512085 -5.49057 -14.241699 -7.5294037 -20.009247c-2.0388336 -5.7675476 -3.9196472 -12.163422 -4.703583 -14.5961" fill-rule="evenodd"/><path fill="#cfe2f3" d="m256.03305 343.3379c1.2002563 1.7761841 5.3338623 7.476349 7.201599 10.657013c1.8677063 3.1806335 3.670929 5.7660217 4.0046387 8.42688c0.33374023 2.6608582 -0.70458984 5.6166077 -2.0023193 7.5382385c-1.2977295 1.9216614 -3.4849548 3.585144 -5.784088 3.9916077c-2.2991028 0.40646362 -6.22554 -0.5510559 -8.010635 -1.5527954c-1.7851105 -1.0017395 -2.0539246 -2.9888 -2.6999512 -4.4575806c-0.6460266 -1.468811 -0.72535706 -4.3355103 -1.1762238 -4.355194c-0.45085144 -0.019714355 -0.7657776 3.2117004 -1.5289459 4.2370605c-0.76316833 1.0253601 -2.0113068 1.7973938 -3.050064 1.9150696c-1.0387573 0.1177063 -2.7696533 0.3069458 -3.1824799 -1.2088928c-0.4128418 -1.5158386 0.5487671 -5.512268 0.7054596 -7.8861084c0.15670776 -2.3738098 0.43077087 -4.3164673 0.23472595 -6.356903c-0.19602966 -2.0404358 -1.1757812 -4.9047546 -1.4109497 -5.885681" fill-rule="evenodd"/><path stroke="#000000" stroke-width="2.0" stroke-linejoin="round" stroke-linecap="butt" d="m256.03305 343.3379c1.2002563 1.7761841 5.3338623 7.476349 7.201599 10.657013c1.8677063 3.1806335 3.670929 5.7660217 4.0046387 8.42688c0.33374023 2.6608582 -0.70458984 5.6166077 -2.0023193 7.5382385c-1.2977295 1.9216614 -3.4849548 3.585144 -5.784088 3.9916077c-2.2991028 0.40646362 -6.22554 -0.5510559 -8.010635 -1.5527954c-1.7851105 -1.0017395 -2.0539246 -2.9888 -2.6999512 -4.4575806c-0.6460266 -1.468811 -0.72535706 -4.3355103 -1.1762238 -4.355194c-0.45085144 -0.019714355 -0.7657776 3.2117004 -1.5289459 4.2370605c-0.76316833 1.0253601 -2.0113068 1.7973938 -3.050064 1.9150696c-1.0387573 0.1177063 -2.7696533 0.3069458 -3.1824799 -1.2088928c-0.4128418 -1.5158386 0.5487671 -5.512268 0.7054596 -7.8861084c0.15670776 -2.3738098 0.43077087 -4.3164673 0.23472595 -6.356903c-0.19602966 -2.0404358 -1.1757812 -4.9047546 -1.4109497 -5.885681" fill-rule="evenodd"/><path fill="#cfe2f3" d="m217.0881 269.2687c-0.54855347 -1.7879944 -0.07714844 -4.270752 -0.70414734 -5.3632812c-0.62701416 -1.0925293 -0.27471924 -1.1124268 -3.0579224 -1.1918335c-2.7832031 -0.07940674 -11.01503 -0.27804565 -13.641312 0.71536255c-2.6262817 0.9934082 -1.4109497 3.6956177 -2.1164093 5.2451477c-0.70547485 1.54953 -1.0188751 2.7011108 -2.1164246 4.0519714c-1.0975494 1.3508911 -2.9790192 3.1791382 -4.468857 4.053314c-1.4898376 0.87420654 -3.254837 0.43688965 -4.4701843 1.1918335c-1.215332 0.75497437 -2.508484 1.3907166 -2.8218842 3.3379517c-0.31340027 1.9472351 0.43185425 3.6168518 0.9414978 8.3454895c0.5096588 4.7286377 1.4500732 14.979828 2.1164246 20.026306c0.6663513 5.046509 1.9992676 6.199402 1.8816986 10.252716c-0.11758423 4.053314 -0.9799652 9.060211 -2.5871735 14.067108c-1.607193 5.0069275 -5.3802032 11.699432 -7.0560303 15.974335c-1.675827 4.2749023 -3.3221436 7.3857727 -2.9989166 9.675171c0.3232422 2.2893982 -1.0103455 3.2497559 4.9383087 4.0611877c5.948654 0.81140137 21.276932 0.513855 30.753601 0.80722046c9.476654 0.29336548 20.853806 1.4298706 26.106384 0.9529724c5.2525787 -0.4769287 4.507553 -1.2714844 5.4090576 -3.8144226c0.9015045 -2.5429382 0.47032166 -7.151703 0 -11.443237c-0.4703064 -4.2915344 -1.900711 -10.014252 -2.8218842 -14.306c-0.92118835 -4.2917786 -1.9798279 -6.7555237 -2.705185 -11.44455c-0.72535706 -4.6890564 -1.078537 -11.205872 -1.6469727 -16.689697c-0.5684509 -5.4838257 -0.6464691 -11.921661 -1.7636871 -16.213226c-1.117218 -4.2915344 -2.50914 -6.714813 -4.9396057 -9.536011c-2.430481 -2.821228 -7.6048126 -5.265259 -9.643204 -7.3912354c-2.038391 -2.1259766 -2.0386047 -3.5766296 -2.5871735 -5.3645935z" fill-rule="evenodd"/><path stroke="#000000" stroke-width="2.0" stroke-linejoin="round" stroke-linecap="butt" d="m217.0881 269.2687c-0.54855347 -1.7879944 -0.07714844 -4.270752 -0.70414734 -5.3632812c-0.62701416 -1.0925293 -0.27471924 -1.1124268 -3.0579224 -1.1918335c-2.7832031 -0.07940674 -11.01503 -0.27804565 -13.641312 0.71536255c-2.6262817 0.9934082 -1.4109497 3.6956177 -2.1164093 5.2451477c-0.70547485 1.54953 -1.0188751 2.7011108 -2.1164246 4.0519714c-1.0975494 1.3508911 -2.9790192 3.1791382 -4.468857 4.053314c-1.4898376 0.87420654 -3.254837 0.43688965 -4.4701843 1.1918335c-1.215332 0.75497437 -2.508484 1.3907166 -2.8218842 3.3379517c-0.31340027 1.9472351 0.43185425 3.6168518 0.9414978 8.3454895c0.5096588 4.7286377 1.4500732 14.979828 2.1164246 20.026306c0.6663513 5.046509 1.9992676 6.199402 1.8816986 10.252716c-0.11758423 4.053314 -0.9799652 9.060211 -2.5871735 14.067108c-1.607193 5.0069275 -5.3802032 11.699432 -7.0560303 15.974335c-1.675827 4.2749023 -3.3221436 7.3857727 -2.9989166 9.675171c0.3232422 2.2893982 -1.0103455 3.2497559 4.9383087 4.0611877c5.948654 0.81140137 21.276932 0.513855 30.753601 0.80722046c9.476654 0.29336548 20.853806 1.4298706 26.106384 0.9529724c5.2525787 -0.4769287 4.507553 -1.2714844 5.4090576 -3.8144226c0.9015045 -2.5429382 0.47032166 -7.151703 0 -11.443237c-0.4703064 -4.2915344 -1.900711 -10.014252 -2.8218842 -14.306c-0.92118835 -4.2917786 -1.9798279 -6.7555237 -2.705185 -11.44455c-0.72535706 -4.6890564 -1.078537 -11.205872 -1.6469727 -16.689697c-0.5684509 -5.4838257 -0.6464691 -11.921661 -1.7636871 -16.213226c-1.117218 -4.2915344 -2.50914 -6.714813 -4.9396057 -9.536011c-2.430481 -2.821228 -7.6048126 -5.265259 -9.643204 -7.3912354c-2.038391 -2.1259766 -2.0386047 -3.5766296 -2.5871735 -5.3645935z" fill-rule="evenodd"/><path fill="#cfe2f3" d="m278.69345 214.71277c0.39230347 -2.118454 1.4907532 -1.0199738 1.8830872 -5.6492157c0.39233398 -4.629242 0.9416199 -15.221603 0.4708557 -22.126236c-0.47073364 -6.904648 -1.2554016 -12.710785 -3.2954102 -19.301575c-2.039978 -6.59079 -5.7276917 -14.829315 -8.944611 -20.24318c-3.216919 -5.413864 -5.0215454 -8.081558 -10.356964 -12.240021c-5.3354034 -4.158478 -15.378555 -9.886162 -21.655502 -12.71077c-6.276947 -2.8246078 -10.984619 -3.3737946 -16.006165 -4.2368774c-5.0215454 -0.86307526 -9.729248 -0.78466797 -14.123093 -0.941597c-4.39386 -0.15693665 -7.846176 -0.47077942 -12.240036 0c-4.3938446 0.47077942 -9.258453 1.2554245 -14.123093 2.824669c-4.8646393 1.569252 -10.592361 4.236969 -15.064697 6.5908127c-4.472336 2.353859 -7.6892853 3.6876602 -11.769287 7.53228c-4.080017 3.8446198 -9.493835 9.807724 -12.71077 15.535446c-3.216919 5.727707 -5.1784973 12.396973 -6.590805 18.830826c-1.412323 6.4338684 -1.9615479 13.26001 -1.8830719 19.772324c0.07847595 6.512314 1.3339233 14.044632 2.3539276 19.301575c1.0200195 5.2569275 1.8046265 7.1399994 3.7661438 12.240021c1.9615326 5.1000214 4.629181 12.710861 8.003021 18.360107c3.3738403 5.649231 6.433853 11.376831 12.240021 15.535294c5.8061676 4.158478 15.3785095 7.296997 22.596985 9.415497c7.2184906 2.1184692 11.847733 2.9031067 20.713913 3.2954102c8.86618 0.39230347 23.303177 -6.1035156E-5 32.4832 -0.9416199c9.180038 -0.9415283 16.398514 -2.275299 22.596985 -4.707611c6.198456 -2.432312 10.906128 -5.9631195 14.593842 -9.886215c3.687683 -3.9230957 6.4339294 -9.807739 7.5324097 -13.652359c1.0984497 -3.8446198 -0.78466797 -6.826111 -0.9416199 -9.4153595c-0.15692139 -2.5892334 -0.078430176 -3.9231415 0 -6.1200714c0.07846069 -2.1969452 0.07846069 -4.9430847 0.47073364 -7.061554z" fill-rule="evenodd"/><path stroke="#000000" stroke-width="2.0" stroke-linejoin="round" stroke-linecap="butt" d="m278.69345 214.71277c0.39230347 -2.118454 1.4907532 -1.0199738 1.8830872 -5.6492157c0.39233398 -4.629242 0.9416199 -15.221603 0.4708557 -22.126236c-0.47073364 -6.904648 -1.2554016 -12.710785 -3.2954102 -19.301575c-2.039978 -6.59079 -5.7276917 -14.829315 -8.944611 -20.24318c-3.216919 -5.413864 -5.0215454 -8.081558 -10.356964 -12.240021c-5.3354034 -4.158478 -15.378555 -9.886162 -21.655502 -12.71077c-6.276947 -2.8246078 -10.984619 -3.3737946 -16.006165 -4.2368774c-5.0215454 -0.86307526 -9.729248 -0.78466797 -14.123093 -0.941597c-4.39386 -0.15693665 -7.846176 -0.47077942 -12.240036 0c-4.3938446 0.47077942 -9.258453 1.2554245 -14.123093 2.824669c-4.8646393 1.569252 -10.592361 4.236969 -15.064697 6.5908127c-4.472336 2.353859 -7.6892853 3.6876602 -11.769287 7.53228c-4.080017 3.8446198 -9.493835 9.807724 -12.71077 15.535446c-3.216919 5.727707 -5.1784973 12.396973 -6.590805 18.830826c-1.412323 6.4338684 -1.9615479 13.26001 -1.8830719 19.772324c0.07847595 6.512314 1.3339233 14.044632 2.3539276 19.301575c1.0200195 5.2569275 1.8046265 7.1399994 3.7661438 12.240021c1.9615326 5.1000214 4.629181 12.710861 8.003021 18.360107c3.3738403 5.649231 6.433853 11.376831 12.240021 15.535294c5.8061676 4.158478 15.3785095 7.296997 22.596985 9.415497c7.2184906 2.1184692 11.847733 2.9031067 20.713913 3.2954102c8.86618 0.39230347 23.303177 -6.1035156E-5 32.4832 -0.9416199c9.180038 -0.9415283 16.398514 -2.275299 22.596985 -4.707611c6.198456 -2.432312 10.906128 -5.9631195 14.593842 -9.886215c3.687683 -3.9230957 6.4339294 -9.807739 7.5324097 -13.652359c1.0984497 -3.8446198 -0.78466797 -6.826111 -0.9416199 -9.4153595c-0.15692139 -2.5892334 -0.078430176 -3.9231415 0 -6.1200714c0.07846069 -2.1969452 0.07846069 -4.9430847 0.47073364 -7.061554z" fill-rule="evenodd"/><path fill="#cfe2f3" d="m142.2939 222.22008c-0.862381 -0.6670227 -3.5277863 -3.4527893 -5.1743317 -4.002121c-1.6465454 -0.5493164 -3.4895477 -0.11790466 -4.704895 0.70617676c-1.2153473 0.8240967 -1.9992676 2.7472687 -2.5871735 4.238388c-0.5878906 1.4911041 -1.4498444 2.5501556 -0.94018555 4.7082825c0.5096588 2.158142 2.743866 6.082367 3.998108 8.240494c1.254242 2.158142 2.0770874 3.2171783 3.527359 4.7082977c1.4502869 1.4911041 2.939911 3.4928284 5.1743317 4.238373c2.234436 0.7455597 6.4681396 0.7845001 8.232254 0.23495483c1.7641296 -0.54953 1.9603729 -2.9434967 2.3524475 -3.532196" fill-rule="evenodd"/><path stroke="#000000" stroke-width="2.0" stroke-linejoin="round" stroke-linecap="butt" d="m142.2939 222.22008c-0.862381 -0.6670227 -3.5277863 -3.4527893 -5.1743317 -4.002121c-1.6465454 -0.5493164 -3.4895477 -0.11790466 -4.704895 0.70617676c-1.2153473 0.8240967 -1.9992676 2.7472687 -2.5871735 4.238388c-0.5878906 1.4911041 -1.4498444 2.5501556 -0.94018555 4.7082825c0.5096588 2.158142 2.743866 6.082367 3.998108 8.240494c1.254242 2.158142 2.0770874 3.2171783 3.527359 4.7082977c1.4502869 1.4911041 2.939911 3.4928284 5.1743317 4.238373c2.234436 0.7455597 6.4681396 0.7845001 8.232254 0.23495483c1.7641296 -0.54953 1.9603729 -2.9434967 2.3524475 -3.532196" fill-rule="evenodd"/><path fill="#cfe2f3" d="m135.74968 231.18271c-0.27450562 -0.31391907 -1.6076355 -0.86346436 -1.6469727 -1.8835754c-0.03933716 -1.0201111 0.705246 -3.7662811 1.4109344 -4.2370605c0.7056885 -0.47079468 1.4120331 0.078308105 2.8231964 1.4123535c1.4111633 1.3340302 4.5855713 4.5514374 5.6437836 6.591873c1.0582123 2.0404205 0.5878906 4.7089386 0.70547485 5.6507263" fill-rule="evenodd"/><path stroke="#000000" stroke-width="2.0" stroke-linejoin="round" stroke-linecap="butt" d="m135.74968 231.18271c-0.27450562 -0.31391907 -1.6076355 -0.86346436 -1.6469727 -1.8835754c-0.03933716 -1.0201111 0.705246 -3.7662811 1.4109344 -4.2370605c0.7056885 -0.47079468 1.4120331 0.078308105 2.8231964 1.4123535c1.4111633 1.3340302 4.5855713 4.5514374 5.6437836 6.591873c1.0582123 2.0404205 0.5878906 4.7089386 0.70547485 5.6507263" fill-rule="evenodd"/><path fill="#cfe2f3" d="m194.05916 289.5504c-1.7639008 4.74765 -8.172592 22.188385 -10.583389 28.485992c-2.410797 6.297638 -2.0390472 7.730133 -3.8814087 9.299774c-1.8423615 1.5696411 -4.644348 1.2953186 -7.1727295 0.118133545c-2.5283813 -1.177185 -9.291336 -0.11834717 -7.9975433 -7.181244c1.293808 -7.062866 11.17392 -27.799713 15.760361 -35.196014c4.586441 -7.3962708 9.798584 -7.6513367 11.758301 -9.18161" fill-rule="evenodd"/><path stroke="#000000" stroke-width="2.0" stroke-linejoin="round" stroke-linecap="butt" d="m194.05916 289.5504c-1.7639008 4.74765 -8.172592 22.188385 -10.583389 28.485992c-2.410797 6.297638 -2.0390472 7.730133 -3.8814087 9.299774c-1.8423615 1.5696411 -4.644348 1.2953186 -7.1727295 0.118133545c-2.5283813 -1.177185 -9.291336 -0.11834717 -7.9975433 -7.181244c1.293808 -7.062866 11.17392 -27.799713 15.760361 -35.196014c4.586441 -7.3962708 9.798584 -7.6513367 11.758301 -9.18161" fill-rule="evenodd"/><path fill="#cfe2f3" d="m182.16016 321.44846c-1.6664276 4.453003 -7.7440186 20.734467 -9.998566 26.717926c-2.2545319 5.98349 -1.6863098 7.613312 -3.528656 9.182953c-1.8423615 1.5696411 -4.977646 1.4121399 -7.525482 0.23495483c-2.547821 -1.177185 -7.722809 -2.7468262 -7.761505 -7.2980347c-0.03868103 -4.551239 5.4905853 -14.241699 7.5294037 -20.009277c2.0388336 -5.7675476 3.9196625 -12.163391 4.703598 -14.596069" fill-rule="evenodd"/><path stroke="#000000" stroke-width="2.0" stroke-linejoin="round" stroke-linecap="butt" d="m182.16016 321.44846c-1.6664276 4.453003 -7.7440186 20.734467 -9.998566 26.717926c-2.2545319 5.98349 -1.6863098 7.613312 -3.528656 9.182953c-1.8423615 1.5696411 -4.977646 1.4121399 -7.525482 0.23495483c-2.547821 -1.177185 -7.722809 -2.7468262 -7.761505 -7.2980347c-0.03868103 -4.551239 5.4905853 -14.241699 7.5294037 -20.009277c2.0388336 -5.7675476 3.9196625 -12.163391 4.703598 -14.596069" fill-rule="evenodd"/><path fill="#cfe2f3" d="m154.8768 344.63666c-1.2002563 1.7761536 -5.3338776 7.476349 -7.201584 10.656982c-1.8677063 3.1806335 -3.6709442 5.7660217 -4.004669 8.42688c-0.33370972 2.6608582 0.7046051 5.6166077 2.0023346 7.538269c1.2977448 1.9216309 3.48497 3.585144 5.784088 3.9916077c2.299118 0.40646362 6.2255554 -0.5510864 8.010651 -1.5528259c1.7850952 -1.001709 2.0539093 -2.9887695 2.699936 -4.4575806c0.6460266 -1.4687805 0.72535706 -4.3355103 1.1762238 -4.355194c0.4508667 -0.019683838 0.76579285 3.2117004 1.5289612 4.2370605c0.76316833 1.0253601 2.0112915 1.7973938 3.0500488 1.9151001c1.0387573 0.11767578 2.7696533 0.30691528 3.182495 -1.2089233c0.41282654 -1.5158386 -0.54878235 -5.5122375 -0.70547485 -7.886078c-0.1566925 -2.3738403 -0.43075562 -4.316498 -0.23472595 -6.3569336c0.19604492 -2.0404053 1.1757965 -4.904724 1.4109497 -5.885681" fill-rule="evenodd"/><path stroke="#000000" stroke-width="2.0" stroke-linejoin="round" stroke-linecap="butt" d="m154.8768 344.63666c-1.2002563 1.7761536 -5.3338776 7.476349 -7.201584 10.656982c-1.8677063 3.1806335 -3.6709442 5.7660217 -4.004669 8.42688c-0.33370972 2.6608582 0.7046051 5.6166077 2.0023346 7.538269c1.2977448 1.9216309 3.48497 3.585144 5.784088 3.9916077c2.299118 0.40646362 6.2255554 -0.5510864 8.010651 -1.5528259c1.7850952 -1.001709 2.0539093 -2.9887695 2.699936 -4.4575806c0.6460266 -1.4687805 0.72535706 -4.3355103 1.1762238 -4.355194c0.4508667 -0.019683838 0.76579285 3.2117004 1.5289612 4.2370605c0.76316833 1.0253601 2.0112915 1.7973938 3.0500488 1.9151001c1.0387573 0.11767578 2.7696533 0.30691528 3.182495 -1.2089233c0.41282654 -1.5158386 -0.54878235 -5.5122375 -0.70547485 -7.886078c-0.1566925 -2.3738403 -0.43075562 -4.316498 -0.23472595 -6.3569336c0.19604492 -2.0404053 1.1757965 -4.904724 1.4109497 -5.885681" fill-rule="evenodd"/><path fill="#cfe2f3" d="m177.87451 352.68765c-0.22877502 0.7187195 -1.1854706 2.6351929 -1.3726959 4.3123474c-0.18722534 1.6771545 -1.708664 4.1671143 0.24934387 5.7506714c1.9580078 1.5835266 5.915573 2.9588623 11.498688 3.7506409c5.5831146 0.79177856 14.291336 0.8753357 22.0 1.0c7.708664 0.12466431 18.668411 0.20648193 24.251968 -0.25198364c5.583542 -0.45843506 7.718277 -1.0822144 9.249344 -2.4986572c1.5310516 -1.4164734 -0.021438599 -4.2917786 -0.06300354 -6.0c-0.041549683 -1.708252 -0.1552887 -3.5411377 -0.18634033 -4.249359" fill-rule="evenodd"/><path stroke="#000000" stroke-width="2.0" stroke-linejoin="round" stroke-linecap="butt" d="m177.87451 352.68765c-0.22877502 0.7187195 -1.1854706 2.6351929 -1.3726959 4.3123474c-0.18722534 1.6771545 -1.708664 4.1671143 0.24934387 5.7506714c1.9580078 1.5835266 5.915573 2.9588623 11.498688 3.7506409c5.5831146 0.79177856 14.291336 0.8753357 22.0 1.0c7.708664 0.12466431 18.668411 0.20648193 24.251968 -0.25198364c5.583542 -0.45843506 7.718277 -1.0822144 9.249344 -2.4986572c1.5310516 -1.4164734 -0.021438599 -4.2917786 -0.06300354 -6.0c-0.041549683 -1.708252 -0.1552887 -3.5411377 -0.18634033 -4.249359" fill-rule="evenodd"/><path fill="#cfe2f3" d="m175.98787 358.6453c-0.12741089 3.7080994 -0.5194855 15.322845 -0.7644806 22.248566c-0.24499512 6.9256897 -0.39186096 13.184387 -0.70547485 19.305695c-0.3136139 6.121277 -1.5289612 13.733704 -1.1762238 17.42212c0.35273743 3.688385 1.6069794 3.6096191 3.292633 4.7082825c1.685669 1.0986328 3.9205322 1.4911194 6.8213196 1.8835754c2.9007874 0.39245605 7.721939 0.6282959 10.583389 0.47122192c2.8614502 -0.15707397 4.860504 -0.5895691 6.5852814 -1.4136658c1.7247772 -0.8240967 2.901001 -1.9223022 3.763382 -3.5308838c0.86239624 -1.6086121 0.47010803 0.7855835 1.4109497 -6.1206665c0.9408417 -6.9062195 3.254181 -26.684021 4.234146 -35.316772c0.9799652 -8.632721 1.3713837 -13.733063 1.6456604 -16.479675" fill-rule="evenodd"/><path stroke="#000000" stroke-width="2.0" stroke-linejoin="round" stroke-linecap="butt" d="m175.98787 358.6453c-0.12741089 3.7080994 -0.5194855 15.322845 -0.7644806 22.248566c-0.24499512 6.9256897 -0.39186096 13.184387 -0.70547485 19.305695c-0.3136139 6.121277 -1.5289612 13.733704 -1.1762238 17.42212c0.35273743 3.688385 1.6069794 3.6096191 3.292633 4.7082825c1.685669 1.0986328 3.9205322 1.4911194 6.8213196 1.8835754c2.9007874 0.39245605 7.721939 0.6282959 10.583389 0.47122192c2.8614502 -0.15707397 4.860504 -0.5895691 6.5852814 -1.4136658c1.7247772 -0.8240967 2.901001 -1.9223022 3.763382 -3.5308838c0.86239624 -1.6086121 0.47010803 0.7855835 1.4109497 -6.1206665c0.9408417 -6.9062195 3.254181 -26.684021 4.234146 -35.316772c0.9799652 -8.632721 1.3713837 -13.733063 1.6456604 -16.479675" fill-rule="evenodd"/><path fill="#cfe2f3" d="m209.80183 359.58652c0.30749512 3.736969 1.0536194 15.501556 1.844986 22.421783c0.7913513 6.9202576 2.0707397 13.026886 2.903183 19.09964c0.83244324 6.0727234 1.0575562 13.778778 2.091507 17.336792c1.0339508 3.558014 2.25148 3.2464905 4.1121826 4.0112915c1.8607178 0.764801 4.1290283 0.7335205 7.052109 0.57754517c2.9230652 -0.15597534 7.704239 -0.82473755 10.486343 -1.5134277c2.7821198 -0.68865967 4.665344 -1.4869385 6.206314 -2.6186218c1.5409851 -1.1316833 2.4918823 -2.4300537 3.039566 -4.1714478c0.5476837 -1.7413635 0.60887146 0.68408203 0.246521 -6.276825c-0.36235046 -6.9609375 -1.7346039 -26.951813 -2.4206238 -35.48874c-0.68603516 -8.536926 -1.4129181 -13.110657 -1.6954956 -15.732788" fill-rule="evenodd"/><path stroke="#000000" stroke-width="2.0" stroke-linejoin="round" stroke-linecap="butt" d="m209.80183 359.58652c0.30749512 3.736969 1.0536194 15.501556 1.844986 22.421783c0.7913513 6.9202576 2.0707397 13.026886 2.903183 19.09964c0.83244324 6.0727234 1.0575562 13.778778 2.091507 17.336792c1.0339508 3.558014 2.25148 3.2464905 4.1121826 4.0112915c1.8607178 0.764801 4.1290283 0.7335205 7.052109 0.57754517c2.9230652 -0.15597534 7.704239 -0.82473755 10.486343 -1.5134277c2.7821198 -0.68865967 4.665344 -1.4869385 6.206314 -2.6186218c1.5409851 -1.1316833 2.4918823 -2.4300537 3.039566 -4.1714478c0.5476837 -1.7413635 0.60887146 0.68408203 0.246521 -6.276825c-0.36235046 -6.9609375 -1.7346039 -26.951813 -2.4206238 -35.48874c-0.68603516 -8.536926 -1.4129181 -13.110657 -1.6954956 -15.732788" fill-rule="evenodd"/><path fill="#cfe2f3" d="m176.26091 358.32547c-0.3792572 2.668396 -1.7624664 11.699463 -2.275589 16.010498c-0.51312256 4.3110046 -0.4461975 6.73053 -0.80314636 9.855621c-0.3569641 3.125122 -1.7401581 7.0118103 -1.3385773 8.89502c0.40156555 1.8832092 1.828949 1.8434143 3.7480316 2.4042053c1.9190674 0.560791 4.4641266 0.7602844 7.766403 0.9606323c3.3022766 0.2003479 8.790024 0.3215332 12.047241 0.24145508c3.2572174 -0.08004761 5.5328064 -0.30096436 7.496063 -0.72177124c1.9632568 -0.4208374 3.301834 -0.9816284 4.2834625 -1.8031616c0.9816284 -0.8215027 0.74365234 0.3888855 1.6062927 -3.1259766c0.8626404 -3.514862 2.9418182 -12.657928 3.5695648 -17.963257c0.6277313 -5.3053284 0.16403198 -11.557312 0.19683838 -13.868774" fill-rule="evenodd"/><path stroke="#000000" stroke-width="2.0" stroke-linejoin="round" stroke-linecap="butt" d="m176.26091 358.32547c-0.3792572 2.668396 -1.7624664 11.699463 -2.275589 16.010498c-0.51312256 4.3110046 -0.4461975 6.73053 -0.80314636 9.855621c-0.3569641 3.125122 -1.7401581 7.0118103 -1.3385773 8.89502c0.40156555 1.8832092 1.828949 1.8434143 3.7480316 2.4042053c1.9190674 0.560791 4.4641266 0.7602844 7.766403 0.9606323c3.3022766 0.2003479 8.790024 0.3215332 12.047241 0.24145508c3.2572174 -0.08004761 5.5328064 -0.30096436 7.496063 -0.72177124c1.9632568 -0.4208374 3.301834 -0.9816284 4.2834625 -1.8031616c0.9816284 -0.8215027 0.74365234 0.3888855 1.6062927 -3.1259766c0.8626404 -3.514862 2.9418182 -12.657928 3.5695648 -17.963257c0.6277313 -5.3053284 0.16403198 -11.557312 0.19683838 -13.868774" fill-rule="evenodd"/><path fill="#cfe2f3" d="m210.58792 359.40683c0.14743042 2.704712 0.5730591 11.982483 0.8845215 16.228333c0.3114624 4.2458496 0.5415497 6.1483154 0.9842529 9.246735c0.442688 3.0984192 0.39282227 7.5651855 1.6719208 9.343811c1.2790833 1.778656 3.8048859 1.0577698 6.0026245 1.3280945c2.1977234 0.27035522 4.2064667 0.3735962 7.183716 0.29397583c2.9772644 -0.07962036 7.8460236 -0.42037964 10.679794 -0.7716675c2.8337708 -0.35125732 4.6447906 -0.73535156 6.32283 -1.335968c1.6780396 -0.60058594 3.1045532 -0.88974 3.745407 -2.2677002c0.6408539 -1.3779602 0.49301147 -2.5083008 0.099746704 -6.0c-0.39326477 -3.4916992 -1.6229248 -10.015747 -2.45932 -14.950134c-0.83639526 -4.934387 -2.132553 -12.21347 -2.5590515 -14.656158" fill-rule="evenodd"/><path stroke="#000000" stroke-width="2.0" stroke-linejoin="round" stroke-linecap="butt" d="m210.58792 359.40683c0.14743042 2.704712 0.5730591 11.982483 0.8845215 16.228333c0.3114624 4.2458496 0.5415497 6.1483154 0.9842529 9.246735c0.442688 3.0984192 0.39282227 7.5651855 1.6719208 9.343811c1.2790833 1.778656 3.8048859 1.0577698 6.0026245 1.3280945c2.1977234 0.27035522 4.2064667 0.3735962 7.183716 0.29397583c2.9772644 -0.07962036 7.8460236 -0.42037964 10.679794 -0.7716675c2.8337708 -0.35125732 4.6447906 -0.73535156 6.32283 -1.335968c1.6780396 -0.60058594 3.1045532 -0.88974 3.745407 -2.2677002c0.6408539 -1.3779602 0.49301147 -2.5083008 0.099746704 -6.0c-0.39326477 -3.4916992 -1.6229248 -10.015747 -2.45932 -14.950134c-0.83639526 -4.934387 -2.132553 -12.21347 -2.5590515 -14.656158" fill-rule="evenodd"/><path fill="#cfe2f3" d="m179.01466 351.34244c1.5266876 -0.9361267 3.343399 1.7370911 6.687668 2.753296c3.3442688 1.0161743 8.689423 2.622467 13.37796 3.343811c4.6885376 0.7213745 10.491241 0.95144653 14.753281 0.9842529c4.262024 0.032806396 7.2126007 -0.19726562 10.818893 -0.78738403c3.6062927 -0.5901184 7.835083 -1.7370911 10.818893 -2.753296c2.9838257 -1.0161743 5.706909 -3.6062927 7.0839996 -3.343811c1.3770752 0.26245117 0.94924927 3.3775024 1.1784668 4.9186096c0.22923279 1.5411377 1.6067352 3.213501 0.19685364 4.3280945c-1.4098816 1.114624 -5.475937 1.6386719 -8.656174 2.3595886c-3.1802216 0.72091675 -6.556427 1.6054077 -10.425186 1.9658813c-3.8687744 0.36044312 -7.95932 0.30969238 -12.787399 0.19683838c-4.8280945 -0.112854004 -11.886276 -0.4807434 -16.181107 -0.87402344c-4.2948456 -0.3932495 -6.3648376 -0.6985779 -9.587921 -1.4855652c-3.2230988 -0.7869568 -8.537628 -1.3018188 -9.750656 -3.236206c-1.2130432 -1.9343872 0.945755 -7.43396 2.4724274 -8.370087z" fill-rule="evenodd"/><path stroke="#000000" stroke-width="1.0" stroke-linejoin="round" stroke-linecap="butt" d="m179.01466 351.34244c1.5266876 -0.9361267 3.343399 1.7370911 6.687668 2.753296c3.3442688 1.0161743 8.689423 2.622467 13.37796 3.343811c4.6885376 0.7213745 10.491241 0.95144653 14.753281 0.9842529c4.262024 0.032806396 7.2126007 -0.19726562 10.818893 -0.78738403c3.6062927 -0.5901184 7.835083 -1.7370911 10.818893 -2.753296c2.9838257 -1.0161743 5.706909 -3.6062927 7.0839996 -3.343811c1.3770752 0.26245117 0.94924927 3.3775024 1.1784668 4.9186096c0.22923279 1.5411377 1.6067352 3.213501 0.19685364 4.3280945c-1.4098816 1.114624 -5.475937 1.6386719 -8.656174 2.3595886c-3.1802216 0.72091675 -6.556427 1.6054077 -10.425186 1.9658813c-3.8687744 0.36044312 -7.95932 0.30969238 -12.787399 0.19683838c-4.8280945 -0.112854004 -11.886276 -0.4807434 -16.181107 -0.87402344c-4.2948456 -0.3932495 -6.3648376 -0.6985779 -9.587921 -1.4855652c-3.2230988 -0.7869568 -8.537628 -1.3018188 -9.750656 -3.236206c-1.2130432 -1.9343872 0.945755 -7.43396 2.4724274 -8.370087z" fill-rule="evenodd"/><path fill="#cfe2f3" d="m173.34267 413.37918c-0.2351532 2.0795898 -1.1364441 7.2588806 -1.4109344 12.47757c-0.27450562 5.2186584 -0.2557068 12.928864 -0.23603821 18.834473c0.01966858 5.9055786 0.079559326 12.94986 0.35404968 16.599121c0.27449036 3.649231 0.13659668 4.0996704 1.292923 5.2963257c1.1563416 1.1966553 2.3131104 1.4519348 5.645096 1.8835754c3.3319702 0.4316101 11.054138 1.1377869 14.346771 0.70617676c3.2926483 -0.43164062 4.311508 -1.6871338 5.4090576 -3.295929c1.0975494 -1.6088257 0.9801941 -4.0025635 1.1762238 -6.3569336c0.19604492 -2.3543396 -0.35273743 -4.1593933 0 -7.7692566c0.35273743 -3.6098633 1.332489 -8.828308 2.1164246 -13.889923c0.7839203 -5.0615845 1.999054 -12.595032 2.5871582 -16.479675c0.5881195 -3.884613 0.7845917 -5.690094 0.94151306 -6.828125" fill-rule="evenodd"/><path stroke="#000000" stroke-width="2.0" stroke-linejoin="round" stroke-linecap="butt" d="m173.34267 413.37918c-0.2351532 2.0795898 -1.1364441 7.2588806 -1.4109344 12.47757c-0.27450562 5.2186584 -0.2557068 12.928864 -0.23603821 18.834473c0.01966858 5.9055786 0.079559326 12.94986 0.35404968 16.599121c0.27449036 3.649231 0.13659668 4.0996704 1.292923 5.2963257c1.1563416 1.1966553 2.3131104 1.4519348 5.645096 1.8835754c3.3319702 0.4316101 11.054138 1.1377869 14.346771 0.70617676c3.2926483 -0.43164062 4.311508 -1.6871338 5.4090576 -3.295929c1.0975494 -1.6088257 0.9801941 -4.0025635 1.1762238 -6.3569336c0.19604492 -2.3543396 -0.35273743 -4.1593933 0 -7.7692566c0.35273743 -3.6098633 1.332489 -8.828308 2.1164246 -13.889923c0.7839203 -5.0615845 1.999054 -12.595032 2.5871582 -16.479675c0.5881195 -3.884613 0.7845917 -5.690094 0.94151306 -6.828125" fill-rule="evenodd"/><path fill="#cfe2f3" d="m171.93114 459.4044c0.058792114 1.0004272 -0.27449036 3.7072144 0.35273743 6.002533c0.6272278 2.295288 2.019165 5.728821 3.4106598 7.7692566c1.3914948 2.0404358 3.3311005 3.4138489 4.9382935 4.4733276c1.6072083 1.0595093 2.35289 1.4911194 4.704895 1.883606c2.3520203 0.39245605 6.898468 0.510376 9.407166 0.47122192c2.5087128 -0.03918457 4.390625 -0.23519897 5.645096 -0.70617676c1.2544556 -0.4710083 1.7641144 -1.138916 1.8816986 -2.119873c0.11756897 -0.9809265 -0.70570374 -1.7256165 -1.1762238 -3.7658386c-0.47053528 -2.0402222 -1.450943 -6.2387695 -1.6469879 -8.475433c-0.19602966 -2.2366638 0.39230347 -4.1204834 0.47076416 -4.94458" fill-rule="evenodd"/><path stroke="#000000" stroke-width="2.0" stroke-linejoin="round" stroke-linecap="butt" d="m171.93114 459.4044c0.058792114 1.0004272 -0.27449036 3.7072144 0.35273743 6.002533c0.6272278 2.295288 2.019165 5.728821 3.4106598 7.7692566c1.3914948 2.0404358 3.3311005 3.4138489 4.9382935 4.4733276c1.6072083 1.0595093 2.35289 1.4911194 4.704895 1.883606c2.3520203 0.39245605 6.898468 0.510376 9.407166 0.47122192c2.5087128 -0.03918457 4.390625 -0.23519897 5.645096 -0.70617676c1.2544556 -0.4710083 1.7641144 -1.138916 1.8816986 -2.119873c0.11756897 -0.9809265 -0.70570374 -1.7256165 -1.1762238 -3.7658386c-0.47053528 -2.0402222 -1.450943 -6.2387695 -1.6469879 -8.475433c-0.19602966 -2.2366638 0.39230347 -4.1204834 0.47076416 -4.94458" fill-rule="evenodd"/><path fill="#cfe2f3" d="m215.84416 414.27484c0.15649414 2.086914 0.23612976 7.343384 0.9389801 12.521484c0.70285034 5.1781006 2.1582031 12.749115 3.278122 18.54712c1.1199036 5.798004 2.4915314 12.707153 3.44133 16.240936c0.9497986 3.5337524 0.89823914 4.002014 2.2574615 4.96167c1.3592072 0.95965576 2.5434113 0.9944458 5.897812 0.7962036c3.3543854 -0.19821167 11.073685 -0.9465637 14.228546 -1.9854736c3.1548615 -1.0389404 3.9220123 -2.462616 4.7006226 -4.2480774c0.7786102 -1.7854614 0.2171936 -4.1151733 -0.028945923 -6.4647217c-0.24613953 -2.3495483 -1.1217499 -4.020355 -1.4479065 -7.6325684c-0.32614136 -3.6122131 -0.33598328 -8.921814 -0.5090027 -14.040741c-0.17300415 -5.118927 -0.3829956 -12.746735 -0.52908325 -16.672821c-0.14607239 -3.926117 -0.289505 -5.736511 -0.34739685 -6.8838196" fill-rule="evenodd"/><path stroke="#000000" stroke-width="2.0" stroke-linejoin="round" stroke-linecap="butt" d="m215.84416 414.27484c0.15649414 2.086914 0.23612976 7.343384 0.9389801 12.521484c0.70285034 5.1781006 2.1582031 12.749115 3.278122 18.54712c1.1199036 5.798004 2.4915314 12.707153 3.44133 16.240936c0.9497986 3.5337524 0.89823914 4.002014 2.2574615 4.96167c1.3592072 0.95965576 2.5434113 0.9944458 5.897812 0.7962036c3.3543854 -0.19821167 11.073685 -0.9465637 14.228546 -1.9854736c3.1548615 -1.0389404 3.9220123 -2.462616 4.7006226 -4.2480774c0.7786102 -1.7854614 0.2171936 -4.1151733 -0.028945923 -6.4647217c-0.24613953 -2.3495483 -1.1217499 -4.020355 -1.4479065 -7.6325684c-0.32614136 -3.6122131 -0.33598328 -8.921814 -0.5090027 -14.040741c-0.17300415 -5.118927 -0.3829956 -12.746735 -0.52908325 -16.672821c-0.14607239 -3.926117 -0.289505 -5.736511 -0.34739685 -6.8838196" fill-rule="evenodd"/><path fill="#cfe2f3" d="m223.02637 459.75754c0.24420166 0.9718323 0.4211731 3.6932373 1.4652405 5.831024c1.0440674 2.1377563 3.0516357 5.250946 4.799164 6.9956055c1.7475281 1.74469 3.909317 2.73172 5.685974 3.472412c1.7766571 0.74069214 2.589798 1.0254822 4.973984 0.97180176c2.384201 -0.05368042 6.873459 -0.78689575 9.331177 -1.2938538c2.457718 -0.5069885 4.27034 -1.0509949 5.4151764 -1.7479858c1.1448364 -0.69696045 1.5211487 -1.4483032 1.4538574 -2.4339294c-0.06726074 -0.98565674 -1.0149841 -1.5634766 -1.857544 -3.4799194c-0.8425598 -1.9164429 -2.5883484 -5.8580627 -3.1977997 -8.018738c-0.6094513 -2.1607056 -0.3824463 -4.121216 -0.45892334 -4.945465" fill-rule="evenodd"/><path stroke="#000000" stroke-width="2.0" stroke-linejoin="round" stroke-linecap="butt" d="m223.02637 459.75754c0.24420166 0.9718323 0.4211731 3.6932373 1.4652405 5.831024c1.0440674 2.1377563 3.0516357 5.250946 4.799164 6.9956055c1.7475281 1.74469 3.909317 2.73172 5.685974 3.472412c1.7766571 0.74069214 2.589798 1.0254822 4.973984 0.97180176c2.384201 -0.05368042 6.873459 -0.78689575 9.331177 -1.2938538c2.457718 -0.5069885 4.27034 -1.0509949 5.4151764 -1.7479858c1.1448364 -0.69696045 1.5211487 -1.4483032 1.4538574 -2.4339294c-0.06726074 -0.98565674 -1.0149841 -1.5634766 -1.857544 -3.4799194c-0.8425598 -1.9164429 -2.5883484 -5.8580627 -3.1977997 -8.018738c-0.6094513 -2.1607056 -0.3824463 -4.121216 -0.45892334 -4.945465" fill-rule="evenodd"/><path fill="#cfe2f3" d="m171.65022 431.92413c-1.0859222 1.9187317 0.01675415 8.128784 0 12.769196c-0.01675415 4.640442 -0.15126038 10.625183 -0.10054016 15.073364c0.050720215 4.448181 -0.4265747 8.476013 0.4048462 11.615723c0.8314209 3.1397095 2.34346 5.6696167 4.583679 7.222473c2.240219 1.5528564 5.3276978 1.6236267 8.85762 2.094696c3.5299072 0.47106934 9.199066 0.8364563 12.321869 0.73172c3.1228027 -0.10473633 5.0233917 -0.2788086 6.414978 -1.3601379c1.3915863 -1.0813293 2.0196838 -3.4706726 1.934555 -5.127777c-0.08514404 -1.657135 -1.6986237 -3.297058 -2.4453583 -4.8150024c-0.7467346 -1.5179443 -1.8652649 -1.4141235 -2.03508 -4.292694c-0.16981506 -2.8785706 0.5071869 -8.26889 1.0161743 -12.978668c0.5090027 -4.709778 2.2411194 -12.31488 2.037796 -15.280029c-0.20332336 -2.965149 -1.3739166 -2.0574646 -3.2577515 -2.5108337c-1.8838348 -0.45336914 -5.4486084 -0.15686035 -8.045212 -0.20947266c-2.5966034 -0.052581787 -5.0057373 0.17315674 -7.5344086 -0.10614014c-2.5286865 -0.27926636 -5.2787933 -1.0985413 -7.637665 -1.5696106c-2.3588562 -0.47106934 -5.4295807 -3.175537 -6.515503 -1.2568054z" fill-rule="evenodd"/><path stroke="#000000" stroke-width="1.0" stroke-linejoin="round" stroke-linecap="butt" d="m171.65022 431.92413c-1.0859222 1.9187317 0.01675415 8.128784 0 12.769196c-0.01675415 4.640442 -0.15126038 10.625183 -0.10054016 15.073364c0.050720215 4.448181 -0.4265747 8.476013 0.4048462 11.615723c0.8314209 3.1397095 2.34346 5.6696167 4.583679 7.222473c2.240219 1.5528564 5.3276978 1.6236267 8.85762 2.094696c3.5299072 0.47106934 9.199066 0.8364563 12.321869 0.73172c3.1228027 -0.10473633 5.0233917 -0.2788086 6.414978 -1.3601379c1.3915863 -1.0813293 2.0196838 -3.4706726 1.934555 -5.127777c-0.08514404 -1.657135 -1.6986237 -3.297058 -2.4453583 -4.8150024c-0.7467346 -1.5179443 -1.8652649 -1.4141235 -2.03508 -4.292694c-0.16981506 -2.8785706 0.5071869 -8.26889 1.0161743 -12.978668c0.5090027 -4.709778 2.2411194 -12.31488 2.037796 -15.280029c-0.20332336 -2.965149 -1.3739166 -2.0574646 -3.2577515 -2.5108337c-1.8838348 -0.45336914 -5.4486084 -0.15686035 -8.045212 -0.20947266c-2.5966034 -0.052581787 -5.0057373 0.17315674 -7.5344086 -0.10614014c-2.5286865 -0.27926636 -5.2787933 -1.0985413 -7.637665 -1.5696106c-2.3588562 -0.47106934 -5.4295807 -3.175537 -6.515503 -1.2568054z" fill-rule="evenodd"/><path fill="#cfe2f3" d="m188.34935 429.83264c-1.1878052 0.81973267 -1.9336395 1.7427673 -2.4426422 3.661499c-0.5089874 1.9187317 -0.52619934 4.9024963 -0.6113434 7.850891c-0.085128784 2.9483948 0.18566895 6.228668 0.10054016 9.839447c-0.08514404 3.6107483 -0.54341125 9.295746 -0.6113434 11.825195c-0.06791687 2.5294495 -0.47503662 2.531311 0.20378113 3.351471c0.67881775 0.8201904 2.0531921 1.2381897 3.8690948 1.5696411c1.8159027 0.3314209 4.9219513 0.5236511 7.0263214 0.4189148c2.1043549 -0.10473633 4.6153717 -0.33187866 5.5998535 -1.0473328c0.9844818 -0.7154541 0.1711731 -1.6231384 0.30703735 -3.2453613c0.135849 -1.6222229 0.23683167 -3.313324 0.50808716 -6.4879456c0.2712555 -3.174591 0.89889526 -8.651978 1.1194305 -12.559723c0.22053528 -3.9077454 0.28845215 -8.304718 0.20378113 -10.88678c-0.08468628 -2.5820618 0.18746948 -3.6461487 -0.7118683 -4.6054993c-0.899353 -0.9593811 -3.0381317 -0.99383545 -4.6842194 -1.1506958c-1.6460876 -0.15686035 -3.5462189 -0.03491211 -5.1923065 0.20947266c-1.6460876 0.24438477 -3.496399 0.43707275 -4.684204 1.2568054z" fill-rule="evenodd"/><path stroke="#000000" stroke-width="1.0" stroke-linejoin="round" stroke-linecap="butt" d="m188.34935 429.83264c-1.1878052 0.81973267 -1.9336395 1.7427673 -2.4426422 3.661499c-0.5089874 1.9187317 -0.52619934 4.9024963 -0.6113434 7.850891c-0.085128784 2.9483948 0.18566895 6.228668 0.10054016 9.839447c-0.08514404 3.6107483 -0.54341125 9.295746 -0.6113434 11.825195c-0.06791687 2.5294495 -0.47503662 2.531311 0.20378113 3.351471c0.67881775 0.8201904 2.0531921 1.2381897 3.8690948 1.5696411c1.8159027 0.3314209 4.9219513 0.5236511 7.0263214 0.4189148c2.1043549 -0.10473633 4.6153717 -0.33187866 5.5998535 -1.0473328c0.9844818 -0.7154541 0.1711731 -1.6231384 0.30703735 -3.2453613c0.135849 -1.6222229 0.23683167 -3.313324 0.50808716 -6.4879456c0.2712555 -3.174591 0.89889526 -8.651978 1.1194305 -12.559723c0.22053528 -3.9077454 0.28845215 -8.304718 0.20378113 -10.88678c-0.08468628 -2.5820618 0.18746948 -3.6461487 -0.7118683 -4.6054993c-0.899353 -0.9593811 -3.0381317 -0.99383545 -4.6842194 -1.1506958c-1.6460876 -0.15686035 -3.5462189 -0.03491211 -5.1923065 0.20947266c-1.6460876 0.24438477 -3.496399 0.43707275 -4.684204 1.2568054z" fill-rule="evenodd"/><path fill="#cfe2f3" d="m172.05827 460.50082c-0.54341125 0.06982422 -0.3577423 0.33233643 -0.3070221 1.4662781c0.050720215 1.1339111 0.15306091 3.732727 0.6113434 5.3372498c0.4582672 1.6045227 0.6276398 3.1387634 2.138321 4.289917c1.5106812 1.1511536 4.329178 1.9191895 6.9257812 2.6169434c2.5966034 0.6977844 4.6828613 1.342926 8.653839 1.5696411c3.970993 0.22668457 13.15239 1.028717 15.172073 -0.20947266c2.0196838 -1.2381897 -1.6963501 -5.545349 -3.0539856 -7.219696c-1.3576202 -1.6743469 -3.3437958 -2.477295 -5.0917664 -2.826416c-1.7479706 -0.3491211 -3.9365692 0.1387024 -5.3960876 0.7317505c-1.4595032 0.5930176 -2.3937225 1.779541 -3.3609924 2.826416c-0.96728516 1.046875 -1.9504089 2.4605408 -2.4426422 3.454834c-0.49224854 0.9942627 0.20196533 2.2319946 -0.5108032 2.5108337c-0.7127838 0.2788086 -2.6966858 -0.5413513 -3.765854 -0.8378906c-1.0691528 -0.2965088 -2.326706 -0.20852661 -2.6491241 -0.9411926c-0.32243347 -0.73269653 0.8164673 -2.076538 0.71458435 -3.454834c-0.10189819 -1.3782959 -0.54522705 -3.4371643 -1.3259277 -4.8150024c-0.7807007 -1.3778381 -2.3063354 -2.702118 -3.3582916 -3.4520264c-1.0519562 -0.74990845 -2.4100342 -1.117157 -2.9534454 -1.0473328z" fill-rule="evenodd"/><path stroke="#000000" stroke-width="1.0" stroke-linejoin="round" stroke-linecap="butt" d="m172.05827 460.50082c-0.54341125 0.06982422 -0.3577423 0.33233643 -0.3070221 1.4662781c0.050720215 1.1339111 0.15306091 3.732727 0.6113434 5.3372498c0.4582672 1.6045227 0.6276398 3.1387634 2.138321 4.289917c1.5106812 1.1511536 4.329178 1.9191895 6.9257812 2.6169434c2.5966034 0.6977844 4.6828613 1.342926 8.653839 1.5696411c3.970993 0.22668457 13.15239 1.028717 15.172073 -0.20947266c2.0196838 -1.2381897 -1.6963501 -5.545349 -3.0539856 -7.219696c-1.3576202 -1.6743469 -3.3437958 -2.477295 -5.0917664 -2.826416c-1.7479706 -0.3491211 -3.9365692 0.1387024 -5.3960876 0.7317505c-1.4595032 0.5930176 -2.3937225 1.779541 -3.3609924 2.826416c-0.96728516 1.046875 -1.9504089 2.4605408 -2.4426422 3.454834c-0.49224854 0.9942627 0.20196533 2.2319946 -0.5108032 2.5108337c-0.7127838 0.2788086 -2.6966858 -0.5413513 -3.765854 -0.8378906c-1.0691528 -0.2965088 -2.326706 -0.20852661 -2.6491241 -0.9411926c-0.32243347 -0.73269653 0.8164673 -2.076538 0.71458435 -3.454834c-0.10189819 -1.3782959 -0.54522705 -3.4371643 -1.3259277 -4.8150024c-0.7807007 -1.3778381 -2.3063354 -2.702118 -3.3582916 -3.4520264c-1.0519562 -0.74990845 -2.4100342 -1.117157 -2.9534454 -1.0473328z" fill-rule="evenodd"/><path fill="#000000" fill-opacity="0.0" d="m186.71909 434.12415c-0.050720215 -1.6920471 15.2920685 -0.3300476 17.413635 0.10610962c2.1215668 0.43615723 -1.5953674 1.0455017 -4.684204 2.5108337c-3.088852 1.4653625 -13.152847 4.3448486 -13.848862 6.28125c-0.69602966 1.9364319 6.7709045 3.6452332 9.6727295 5.3372803c2.901825 1.6920471 7.059372 3.559082 7.7381897 4.814972c0.67881775 1.2558899 -1.8666229 1.7088013 -3.6653137 2.7203064c-1.7986908 1.0115051 -4.76799 2.284607 -7.1268463 3.3486938c-2.3588562 1.0641174 -8.502594 2.0067139 -7.0263214 3.0358887c1.4762726 1.0292053 13.491104 3.2789001 15.883942 3.1392517c2.3928223 -0.13964844 0.101882935 -2.4768677 -1.5269928 -3.9771118c-1.6288757 -1.5002747 -5.9725494 -3.472046 -8.246277 -5.0244446c-2.2737274 -1.5523987 -7.585129 -2.2841492 -5.3960876 -4.289917c2.1890411 -2.0057983 18.394958 -4.744232 18.53035 -7.744751c0.1354065 -3.0005188 -17.667221 -8.566345 -17.717941 -10.258362z" fill-rule="evenodd"/><path stroke="#000000" stroke-width="1.0" stroke-linejoin="round" stroke-linecap="butt" d="m186.71909 434.12415c-0.050720215 -1.6920471 15.2920685 -0.3300476 17.413635 0.10610962c2.1215668 0.43615723 -1.5953674 1.0455017 -4.684204 2.5108337c-3.088852 1.4653625 -13.152847 4.3448486 -13.848862 6.28125c-0.69602966 1.9364319 6.7709045 3.6452332 9.6727295 5.3372803c2.901825 1.6920471 7.059372 3.559082 7.7381897 4.814972c0.67881775 1.2558899 -1.8666229 1.7088013 -3.6653137 2.7203064c-1.7986908 1.0115051 -4.76799 2.284607 -7.1268463 3.3486938c-2.3588562 1.0641174 -8.502594 2.0067139 -7.0263214 3.0358887c1.4762726 1.0292053 13.491104 3.2789001 15.883942 3.1392517c2.3928223 -0.13964844 0.101882935 -2.4768677 -1.5269928 -3.9771118c-1.6288757 -1.5002747 -5.9725494 -3.472046 -8.246277 -5.0244446c-2.2737274 -1.5523987 -7.585129 -2.2841492 -5.3960876 -4.289917c2.1890411 -2.0057983 18.394958 -4.744232 18.53035 -7.744751c0.1354065 -3.0005188 -17.667221 -8.566345 -17.717941 -10.258362z" fill-rule="evenodd"/><path fill="#cfe2f3" d="m216.17259 427.01328c-0.8339386 2.1891785 1.0708923 8.685822 1.6559906 13.647583c0.58509827 4.961792 1.2271423 11.375366 1.8545837 16.123077c0.6274414 4.747711 0.67388916 9.113495 1.91008 12.363159c1.2361908 3.2496643 3.0719452 5.760803 5.5070496 7.1348267c2.4351196 1.374054 5.522827 1.0559692 9.103607 1.1093445c3.58078 0.053375244 9.280884 -0.27896118 12.381058 -0.789093c3.100174 -0.51013184 4.9726715 -0.9385681 6.220001 -2.271698c1.2473145 -1.3331604 1.5637207 -3.9669495 1.263916 -5.7272034c-0.29978943 -1.7602844 -2.1212616 -3.307251 -3.0626984 -4.8344116c-0.94143677 -1.5271606 -2.0432587 -1.2735901 -2.5858917 -4.3285217c-0.54263306 -3.0549011 -0.5666504 -8.902374 -0.6699219 -14.001038c-0.10328674 -5.0986633 0.6375427 -13.447815 0.05026245 -16.591003c-0.5872803 -3.1431885 -1.6367645 -2.0237732 -3.5739288 -2.2681274c-1.9371796 -0.24438477 -5.453171 0.5270996 -8.049072 0.80197144c-2.5959015 0.27487183 -4.9687653 0.82336426 -7.5263367 0.84729004c-2.5575714 0.023925781 -5.40596 -0.5010071 -7.8190765 -0.70370483c-2.4131165 -0.20269775 -5.8256836 -2.7016602 -6.659622 -0.5124512z" fill-rule="evenodd"/><path stroke="#000000" stroke-width="1.0" stroke-linejoin="round" stroke-linecap="butt" d="m216.17259 427.01328c-0.8339386 2.1891785 1.0708923 8.685822 1.6559906 13.647583c0.58509827 4.961792 1.2271423 11.375366 1.8545837 16.123077c0.6274414 4.747711 0.67388916 9.113495 1.91008 12.363159c1.2361908 3.2496643 3.0719452 5.760803 5.5070496 7.1348267c2.4351196 1.374054 5.522827 1.0559692 9.103607 1.1093445c3.58078 0.053375244 9.280884 -0.27896118 12.381058 -0.789093c3.100174 -0.51013184 4.9726715 -0.9385681 6.220001 -2.271698c1.2473145 -1.3331604 1.5637207 -3.9669495 1.263916 -5.7272034c-0.29978943 -1.7602844 -2.1212616 -3.307251 -3.0626984 -4.8344116c-0.94143677 -1.5271606 -2.0432587 -1.2735901 -2.5858917 -4.3285217c-0.54263306 -3.0549011 -0.5666504 -8.902374 -0.6699219 -14.001038c-0.10328674 -5.0986633 0.6375427 -13.447815 0.05026245 -16.591003c-0.5872803 -3.1431885 -1.6367645 -2.0237732 -3.5739288 -2.2681274c-1.9371796 -0.24438477 -5.453171 0.5270996 -8.049072 0.80197144c-2.5959015 0.27487183 -4.9687653 0.82336426 -7.5263367 0.84729004c-2.5575714 0.023925781 -5.40596 -0.5010071 -7.8190765 -0.70370483c-2.4131165 -0.20269775 -5.8256836 -2.7016602 -6.659622 -0.5124512z" fill-rule="evenodd"/><path fill="#cfe2f3" d="m232.55208 422.64856c-1.0780487 1.0275879 -1.7020111 2.1092224 -1.9607086 4.2248535c-0.25868225 2.115631 0.1111145 5.3068542 0.40859985 8.468903c0.2974701 3.1620483 0.99290466 6.6334534 1.3762817 10.503479c0.38337708 3.869995 0.6636963 10.004486 0.92401123 12.716614c0.26029968 2.7120972 -0.14538574 2.7659912 0.63783264 3.5560608c0.7832184 0.79003906 2.2078247 1.061554 4.061432 1.1842346c1.8536224 0.122680664 4.9756165 -0.06790161 7.0602875 -0.44818115c2.0846863 -0.38027954 4.558975 -0.9432373 5.447815 -1.833435c0.8888397 -0.89019775 -0.03982544 -1.7566528 -0.114746094 -3.507782c-0.074920654 -1.7511292 -0.19354248 -3.5714417 -0.33477783 -6.9990234c-0.14125061 -3.4275818 -0.22576904 -9.361786 -0.51264954 -13.566467c-0.28689575 -4.2046814 -0.7893982 -8.912781 -1.2086945 -11.661652c-0.41929626 -2.7488708 -0.2859192 -3.9208984 -1.3070831 -4.8315735c-1.0211487 -0.91067505 -3.1582031 -0.67477417 -4.8198547 -0.63253784c-1.6616669 0.042236328 -3.5404816 0.41485596 -5.1501007 0.8859558c-1.6096191 0.47106934 -3.4295807 0.9129944 -4.5076447 1.9405518z" fill-rule="evenodd"/><path stroke="#000000" stroke-width="1.0" stroke-linejoin="round" stroke-linecap="butt" d="m232.55208 422.64856c-1.0780487 1.0275879 -1.7020111 2.1092224 -1.9607086 4.2248535c-0.25868225 2.115631 0.1111145 5.3068542 0.40859985 8.468903c0.2974701 3.1620483 0.99290466 6.6334534 1.3762817 10.503479c0.38337708 3.869995 0.6636963 10.004486 0.92401123 12.716614c0.26029968 2.7120972 -0.14538574 2.7659912 0.63783264 3.5560608c0.7832184 0.79003906 2.2078247 1.061554 4.061432 1.1842346c1.8536224 0.122680664 4.9756165 -0.06790161 7.0602875 -0.44818115c2.0846863 -0.38027954 4.558975 -0.9432373 5.447815 -1.833435c0.8888397 -0.89019775 -0.03982544 -1.7566528 -0.114746094 -3.507782c-0.074920654 -1.7511292 -0.19354248 -3.5714417 -0.33477783 -6.9990234c-0.14125061 -3.4275818 -0.22576904 -9.361786 -0.51264954 -13.566467c-0.28689575 -4.2046814 -0.7893982 -8.912781 -1.2086945 -11.661652c-0.41929626 -2.7488708 -0.2859192 -3.9208984 -1.3070831 -4.8315735c-1.0211487 -0.91067505 -3.1582031 -0.67477417 -4.8198547 -0.63253784c-1.6616669 0.042236328 -3.5404816 0.41485596 -5.1501007 0.8859558c-1.6096191 0.47106934 -3.4295807 0.9129944 -4.5076447 1.9405518z" fill-rule="evenodd"/><path fill="#cfe2f3" d="m220.28549 457.50372c-0.53279114 0.1439209 -0.3136139 0.40081787 -0.115982056 1.6062927c0.19763184 1.2054443 0.6367035 3.9699707 1.3017426 5.6264343c0.6650238 1.6564941 1.0328827 3.2746582 2.6884766 4.312378c1.6555939 1.0376892 4.5655212 1.4992065 7.245102 1.9138489c2.6795654 0.41467285 4.843445 0.8381958 8.832306 0.5741272c3.9888763 -0.2640381 13.247681 -0.5775757 15.100937 -2.1584778c1.853241 -1.5809021 -2.4105988 -5.7104797 -3.98143 -7.3269043c-1.5708313 -1.6164246 -3.6553802 -2.2213745 -5.4435577 -2.3716125c-1.7881927 -0.15023804 -3.9071655 0.6502075 -5.285553 1.4701538c-1.3783722 0.8199158 -2.1560059 2.2071838 -2.9847107 3.4494324c-0.82870483 1.242218 -1.6256409 2.8785095 -1.987503 4.003937c-0.36187744 1.1254578 0.49084473 2.3598022 -0.18371582 2.7486877c-0.6745453 0.3888855 -2.7590637 -0.23474121 -3.8635864 -0.41531372c-1.1045227 -0.18057251 -2.3470154 0.073791504 -2.7635193 -0.66815186c-0.4165039 -0.7419739 0.54481506 -2.3234863 0.26446533 -3.7836304c-0.28033447 -1.4601135 -0.98939514 -3.604065 -1.946518 -4.9771423c-0.95713806 -1.3730469 -2.6500854 -2.593933 -3.7962494 -3.2612915c-1.1461487 -0.6673279 -2.5479279 -0.88668823 -3.0807037 -0.74276733z" fill-rule="evenodd"/><path stroke="#000000" stroke-width="1.0" stroke-linejoin="round" stroke-linecap="butt" d="m220.28549 457.50372c-0.53279114 0.1439209 -0.3136139 0.40081787 -0.115982056 1.6062927c0.19763184 1.2054443 0.6367035 3.9699707 1.3017426 5.6264343c0.6650238 1.6564941 1.0328827 3.2746582 2.6884766 4.312378c1.6555939 1.0376892 4.5655212 1.4992065 7.245102 1.9138489c2.6795654 0.41467285 4.843445 0.8381958 8.832306 0.5741272c3.9888763 -0.2640381 13.247681 -0.5775757 15.100937 -2.1584778c1.853241 -1.5809021 -2.4105988 -5.7104797 -3.98143 -7.3269043c-1.5708313 -1.6164246 -3.6553802 -2.2213745 -5.4435577 -2.3716125c-1.7881927 -0.15023804 -3.9071655 0.6502075 -5.285553 1.4701538c-1.3783722 0.8199158 -2.1560059 2.2071838 -2.9847107 3.4494324c-0.82870483 1.242218 -1.6256409 2.8785095 -1.987503 4.003937c-0.36187744 1.1254578 0.49084473 2.3598022 -0.18371582 2.7486877c-0.6745453 0.3888855 -2.7590637 -0.23474121 -3.8635864 -0.41531372c-1.1045227 -0.18057251 -2.3470154 0.073791504 -2.7635193 -0.66815186c-0.4165039 -0.7419739 0.54481506 -2.3234863 0.26446533 -3.7836304c-0.28033447 -1.4601135 -0.98939514 -3.604065 -1.946518 -4.9771423c-0.95713806 -1.3730469 -2.6500854 -2.593933 -3.7962494 -3.2612915c-1.1461487 -0.6673279 -2.5479279 -0.88668823 -3.0807037 -0.74276733z" fill-rule="evenodd"/><path fill="#000000" fill-opacity="0.0" d="m231.4831 427.44315c-0.27000427 -1.8019714 15.204956 -2.3026428 17.376938 -2.1070251c2.1719818 0.1956482 -1.4551544 1.3208313 -4.3450165 3.2808533c-2.889862 1.960022 -12.551254 6.320862 -12.994125 8.479248c-0.4428711 2.1583862 7.2240295 3.0325928 10.336884 4.4710083c3.1128387 1.438446 7.5004883 2.9038086 8.340195 4.1595154c0.8397217 1.2557068 -1.6396027 2.0643616 -3.3018951 3.3747864c-1.6623077 1.3104553 -4.457901 3.0497437 -6.671921 4.4878235c-2.2140198 1.4380798 -8.217697 3.2289429 -6.6122437 4.140686c1.6054688 0.91174316 13.877243 1.7841492 16.245026 1.3298035c2.3677826 -0.45437622 -0.21961975 -2.6602478 -2.0383453 -4.0559998c-1.8187103 -1.395752 -6.4055176 -2.9493408 -8.873978 -4.3186035c-2.46846 -1.3692322 -7.859375 -1.47406 -5.936798 -3.8969421c1.9225769 -2.422882 17.72638 -7.416168 17.47226 -10.64035c-0.25411987 -3.2241821 -18.726974 -6.902832 -18.996979 -8.704803z" fill-rule="evenodd"/><path stroke="#000000" stroke-width="1.0" stroke-linejoin="round" stroke-linecap="butt" d="m231.4831 427.44315c-0.27000427 -1.8019714 15.204956 -2.3026428 17.376938 -2.1070251c2.1719818 0.1956482 -1.4551544 1.3208313 -4.3450165 3.2808533c-2.889862 1.960022 -12.551254 6.320862 -12.994125 8.479248c-0.4428711 2.1583862 7.2240295 3.0325928 10.336884 4.4710083c3.1128387 1.438446 7.5004883 2.9038086 8.340195 4.1595154c0.8397217 1.2557068 -1.6396027 2.0643616 -3.3018951 3.3747864c-1.6623077 1.3104553 -4.457901 3.0497437 -6.671921 4.4878235c-2.2140198 1.4380798 -8.217697 3.2289429 -6.6122437 4.140686c1.6054688 0.91174316 13.877243 1.7841492 16.245026 1.3298035c2.3677826 -0.45437622 -0.21961975 -2.6602478 -2.0383453 -4.0559998c-1.8187103 -1.395752 -6.4055176 -2.9493408 -8.873978 -4.3186035c-2.46846 -1.3692322 -7.859375 -1.47406 -5.936798 -3.8969421c1.9225769 -2.422882 17.72638 -7.416168 17.47226 -10.64035c-0.25411987 -3.2241821 -18.726974 -6.902832 -18.996979 -8.704803z" fill-rule="evenodd"/></g></svg>