<svg version="1.1" viewBox="0.0 0.0 353.3070866141732 587.010498687664" fill="none" stroke="none" stroke-linecap="square" stroke-miterlimit="10" xmlns:xlink="http://www.w3.org/1999/xlink" xmlns="http://www.w3.org/2000/svg"><clipPath id="p.0"><path d="m0 0l353.3071 0l0 587.0105l-353.3071 0l0 -587.0105z" clip-rule="nonzero"/></clipPath><g clip-path="url(#p.0)"><path fill="#000000" fill-opacity="0.0" d="m0 0l353.3071 0l0 587.0105l-353.3071 0z" fill-rule="evenodd"/><path fill="#cfe2f3" d="m216.8683 288.25165c1.7639008 4.7476807 8.172592 22.188385 10.583389 28.486023c2.410797 6.297638 2.0390472 7.7301025 3.8814087 9.299744c1.8423615 1.5696716 4.6443634 1.2953186 7.1727295 0.118133545c2.5283813 -1.177185 9.291336 -0.11834717 7.9975433 -7.1812134c-1.293808 -7.062866 -11.173904 -27.799744 -15.760345 -35.196014c-4.586441 -7.3962708 -9.798584 -7.651367 -11.758301 -9.181641" fill-rule="evenodd"/><path stroke="#000000" stroke-width="2.0" stroke-linejoin="round" stroke-linecap="butt" d="m216.8683 288.25165c1.7639008 4.7476807 8.172592 22.188385 10.583389 28.486023c2.410797 6.297638 2.0390472 7.7301025 3.8814087 9.299744c1.8423615 1.5696716 4.6443634 1.2953186 7.1727295 0.118133545c2.5283813 -1.177185 9.291336 -0.11834717 7.9975433 -7.1812134c-1.293808 -7.062866 -11.173904 -27.799744 -15.760345 -35.196014c-4.586441 -7.3962708 -9.798584 -7.651367 -11.758301 -9.181641" fill-rule="evenodd"/><path fill="#cfe2f3" d="m228.74971 320.14972c1.6664124 4.4529724 7.7440186 20.734436 9.99855 26.717926c2.2545319 5.98349 1.6863098 7.6132812 3.5286713 9.182953c1.8423615 1.5696411 4.977646 1.4121094 7.525467 0.23495483c2.5478363 -1.177185 7.722809 -2.7468567 7.761505 -7.298065c0.03869629 -4.5512085 -5.49057 -14.241699 -7.5294037 -20.009247c-2.0388336 -5.7675476 -3.9196472 -12.163422 -4.703583 -14.5961" fill-rule="evenodd"/><path stroke="#000000" stroke-width="2.0" stroke-linejoin="round" stroke-linecap="butt" d="m228.74971 320.14972c1.6664124 4.4529724 7.7440186 20.734436 9.99855 26.717926c2.2545319 5.98349 1.6863098 7.6132812 3.5286713 9.182953c1.8423615 1.5696411 4.977646 1.4121094 7.525467 0.23495483c2.5478363 -1.177185 7.722809 -2.7468567 7.761505 -7.298065c0.03869629 -4.5512085 -5.49057 -14.241699 -7.5294037 -20.009247c-2.0388336 -5.7675476 -3.9196472 -12.163422 -4.703583 -14.5961" fill-rule="evenodd"/><path fill="#cfe2f3" d="m256.03305 343.3379c1.2002563 1.7761841 5.3338623 7.476349 7.201599 10.657013c1.8677063 3.1806335 3.670929 5.7660217 4.0046387 8.42688c0.33374023 2.6608582 -0.70458984 5.6166077 -2.0023193 7.5382385c-1.2977295 1.9216614 -3.4849548 3.585144 -5.784088 3.9916077c-2.2991028 0.40646362 -6.22554 -0.5510559 -8.010635 -1.5527954c-1.7851105 -1.0017395 -2.0539246 -2.9888 -2.6999512 -4.4575806c-0.6460266 -1.468811 -0.72535706 -4.3355103 -1.1762238 -4.355194c-0.45085144 -0.019714355 -0.7657776 3.2117004 -1.5289459 4.2370605c-0.76316833 1.0253601 -2.0113068 1.7973938 -3.050064 1.9150696c-1.0387573 0.1177063 -2.7696533 0.3069458 -3.1824799 -1.2088928c-0.4128418 -1.5158386 0.5487671 -5.512268 0.7054596 -7.8861084c0.15670776 -2.3738098 0.43077087 -4.3164673 0.23472595 -6.356903c-0.19602966 -2.0404358 -1.1757812 -4.9047546 -1.4109497 -5.885681" fill-rule="evenodd"/><path stroke="#000000" stroke-width="2.0" stroke-linejoin="round" stroke-linecap="butt" d="m256.03305 343.3379c1.2002563 1.7761841 5.3338623 7.476349 7.201599 10.657013c1.8677063 3.1806335 3.670929 5.7660217 4.0046387 8.42688c0.33374023 2.6608582 -0.70458984 5.6166077 -2.0023193 7.5382385c-1.2977295 1.9216614 -3.4849548 3.585144 -5.784088 3.9916077c-2.2991028 0.40646362 -6.22554 -0.5510559 -8.010635 -1.5527954c-1.7851105 -1.0017395 -2.0539246 -2.9888 -2.6999512 -4.4575806c-0.6460266 -1.468811 -0.72535706 -4.3355103 -1.1762238 -4.355194c-0.45085144 -0.019714355 -0.7657776 3.2117004 -1.5289459 4.2370605c-0.76316833 1.0253601 -2.0113068 1.7973938 -3.050064 1.9150696c-1.0387573 0.1177063 -2.7696533 0.3069458 -3.1824799 -1.2088928c-0.4128418 -1.5158386 0.5487671 -5.512268 0.7054596 -7.8861084c0.15670776 -2.3738098 0.43077087 -4.3164673 0.23472595 -6.356903c-0.19602966 -2.0404358 -1.1757812 -4.9047546 -1.4109497 -5.885681" fill-rule="evenodd"/><path fill="#cfe2f3" d="m217.0881 269.2687c-0.54855347 -1.7879944 -0.07714844 -4.270752 -0.70414734 -5.3632812c-0.62701416 -1.0925293 -0.27471924 -1.1124268 -3.0579224 -1.1918335c-2.7832031 -0.07940674 -11.01503 -0.27804565 -13.641312 0.71536255c-2.6262817 0.9934082 -1.4109497 3.6956177 -2.1164093 5.2451477c-0.70547485 1.54953 -1.0188751 2.7011108 -2.1164246 4.0519714c-1.0975494 1.3508911 -2.9790192 3.1791382 -4.468857 4.053314c-1.4898376 0.87420654 -3.254837 0.43688965 -4.4701843 1.1918335c-1.215332 0.75497437 -2.508484 1.3907166 -2.8218842 3.3379517c-0.31340027 1.9472351 0.43185425 3.6168518 0.9414978 8.3454895c0.5096588 4.7286377 1.4500732 14.979828 2.1164246 20.026306c0.6663513 5.046509 1.9992676 6.199402 1.8816986 10.252716c-0.11758423 4.053314 -0.9799652 9.060211 -2.5871735 14.067108c-1.607193 5.0069275 -5.3802032 11.699432 -7.0560303 15.974335c-1.675827 4.2749023 -3.3221436 7.3857727 -2.9989166 9.675171c0.3232422 2.2893982 -1.0103455 3.2497559 4.9383087 4.0611877c5.948654 0.81140137 21.276932 0.513855 30.753601 0.80722046c9.476654 0.29336548 20.853806 1.4298706 26.106384 0.9529724c5.2525787 -0.4769287 4.507553 -1.2714844 5.4090576 -3.8144226c0.9015045 -2.5429382 0.47032166 -7.151703 0 -11.443237c-0.4703064 -4.2915344 -1.900711 -10.014252 -2.8218842 -14.306c-0.92118835 -4.2917786 -1.9798279 -6.7555237 -2.705185 -11.44455c-0.72535706 -4.6890564 -1.078537 -11.205872 -1.6469727 -16.689697c-0.5684509 -5.4838257 -0.6464691 -11.921661 -1.7636871 -16.213226c-1.117218 -4.2915344 -2.50914 -6.714813 -4.9396057 -9.536011c-2.430481 -2.821228 -7.6048126 -5.265259 -9.643204 -7.3912354c-2.038391 -2.1259766 -2.0386047 -3.5766296 -2.5871735 -5.3645935z" fill-rule="evenodd"/><path stroke="#000000" stroke-width="2.0" stroke-linejoin="round" stroke-linecap="butt" d="m217.0881 269.2687c-0.54855347 -1.7879944 -0.07714844 -4.270752 -0.70414734 -5.3632812c-0.62701416 -1.0925293 -0.27471924 -1.1124268 -3.0579224 -1.1918335c-2.7832031 -0.07940674 -11.01503 -0.27804565 -13.641312 0.71536255c-2.6262817 0.9934082 -1.4109497 3.6956177 -2.1164093 5.2451477c-0.70547485 1.54953 -1.0188751 2.7011108 -2.1164246 4.0519714c-1.0975494 1.3508911 -2.9790192 3.1791382 -4.468857 4.053314c-1.4898376 0.87420654 -3.254837 0.43688965 -4.4701843 1.1918335c-1.215332 0.75497437 -2.508484 1.3907166 -2.8218842 3.3379517c-0.31340027 1.9472351 0.43185425 3.6168518 0.9414978 8.3454895c0.5096588 4.7286377 1.4500732 14.979828 2.1164246 20.026306c0.6663513 5.046509 1.9992676 6.199402 1.8816986 10.252716c-0.11758423 4.053314 -0.9799652 9.060211 -2.5871735 14.067108c-1.607193 5.0069275 -5.3802032 11.699432 -7.0560303 15.974335c-1.675827 4.2749023 -3.3221436 7.3857727 -2.9989166 9.675171c0.3232422 2.2893982 -1.0103455 3.2497559 4.9383087 4.0611877c5.948654 0.81140137 21.276932 0.513855 30.753601 0.80722046c9.476654 0.29336548 20.853806 1.4298706 26.106384 0.9529724c5.2525787 -0.4769287 4.507553 -1.2714844 5.4090576 -3.8144226c0.9015045 -2.5429382 0.47032166 -7.151703 0 -11.443237c-0.4703064 -4.2915344 -1.900711 -10.014252 -2.8218842 -14.306c-0.92118835 -4.2917786 -1.9798279 -6.7555237 -2.705185 -11.44455c-0.72535706 -4.6890564 -1.078537 -11.205872 -1.6469727 -16.689697c-0.5684509 -5.4838257 -0.6464691 -11.921661 -1.7636871 -16.213226c-1.117218 -4.2915344 -2.50914 -6.714813 -4.9396057 -9.536011c-2.430481 -2.821228 -7.6048126 -5.265259 -9.643204 -7.3912354c-2.038391 -2.1259766 -2.0386047 -3.5766296 -2.5871735 -5.3645935z" fill-rule="evenodd"/><path fill="#cfe2f3" d="m278.69345 214.71277c0.39230347 -2.118454 1.4907532 -1.0199738 1.8830872 -5.6492157c0.39233398 -4.629242 0.9416199 -15.221603 0.4708557 -22.126236c-0.47073364 -6.904648 -1.2554016 -12.710785 -3.2954102 -19.301575c-2.039978 -6.59079 -5.7276917 -14.829315 -8.944611 -20.24318c-3.216919 -5.413864 -5.0215454 -8.081558 -10.356964 -12.240021c-5.3354034 -4.158478 -15.378555 -9.886162 -21.655502 -12.71077c-6.276947 -2.8246078 -10.984619 -3.3737946 -16.006165 -4.2368774c-5.0215454 -0.86307526 -9.729248 -0.78466797 -14.123093 -0.941597c-4.39386 -0.15693665 -7.846176 -0.47077942 -12.240036 0c-4.3938446 0.47077942 -9.258453 1.2554245 -14.123093 2.824669c-4.8646393 1.569252 -10.592361 4.236969 -15.064697 6.5908127c-4.472336 2.353859 -7.6892853 3.6876602 -11.769287 7.53228c-4.080017 3.8446198 -9.493835 9.807724 -12.71077 15.535446c-3.216919 5.727707 -5.1784973 12.396973 -6.590805 18.830826c-1.412323 6.4338684 -1.9615479 13.26001 -1.8830719 19.772324c0.07847595 6.512314 1.3339233 14.044632 2.3539276 19.301575c1.0200195 5.2569275 1.8046265 7.1399994 3.7661438 12.240021c1.9615326 5.1000214 4.629181 12.710861 8.003021 18.360107c3.3738403 5.649231 6.433853 11.376831 12.240021 15.535294c5.8061676 4.158478 15.3785095 7.296997 22.596985 9.415497c7.2184906 2.1184692 11.847733 2.9031067 20.713913 3.2954102c8.86618 0.39230347 23.303177 -6.1035156E-5 32.4832 -0.9416199c9.180038 -0.9415283 16.398514 -2.275299 22.596985 -4.707611c6.198456 -2.432312 10.906128 -5.9631195 14.593842 -9.886215c3.687683 -3.9230957 6.4339294 -9.807739 7.5324097 -13.652359c1.0984497 -3.8446198 -0.78466797 -6.826111 -0.9416199 -9.4153595c-0.15692139 -2.5892334 -0.078430176 -3.9231415 0 -6.1200714c0.07846069 -2.1969452 0.07846069 -4.9430847 0.47073364 -7.061554z" fill-rule="evenodd"/><path stroke="#000000" stroke-width="2.0" stroke-linejoin="round" stroke-linecap="butt" d="m278.69345 214.71277c0.39230347 -2.118454 1.4907532 -1.0199738 1.8830872 -5.6492157c0.39233398 -4.629242 0.9416199 -15.221603 0.4708557 -22.126236c-0.47073364 -6.904648 -1.2554016 -12.710785 -3.2954102 -19.301575c-2.039978 -6.59079 -5.7276917 -14.829315 -8.944611 -20.24318c-3.216919 -5.413864 -5.0215454 -8.081558 -10.356964 -12.240021c-5.3354034 -4.158478 -15.378555 -9.886162 -21.655502 -12.71077c-6.276947 -2.8246078 -10.984619 -3.3737946 -16.006165 -4.2368774c-5.0215454 -0.86307526 -9.729248 -0.78466797 -14.123093 -0.941597c-4.39386 -0.15693665 -7.846176 -0.47077942 -12.240036 0c-4.3938446 0.47077942 -9.258453 1.2554245 -14.123093 2.824669c-4.8646393 1.569252 -10.592361 4.236969 -15.064697 6.5908127c-4.472336 2.353859 -7.6892853 3.6876602 -11.769287 7.53228c-4.080017 3.8446198 -9.493835 9.807724 -12.71077 15.535446c-3.216919 5.727707 -5.1784973 12.396973 -6.590805 18.830826c-1.412323 6.4338684 -1.9615479 13.26001 -1.8830719 19.772324c0.07847595 6.512314 1.3339233 14.044632 2.3539276 19.301575c1.0200195 5.2569275 1.8046265 7.1399994 3.7661438 12.240021c1.9615326 5.1000214 4.629181 12.710861 8.003021 18.360107c3.3738403 5.649231 6.433853 11.376831 12.240021 15.535294c5.8061676 4.158478 15.3785095 7.296997 22.596985 9.415497c7.2184906 2.1184692 11.847733 2.9031067 20.713913 3.2954102c8.86618 0.39230347 23.303177 -6.1035156E-5 32.4832 -0.9416199c9.180038 -0.9415283 16.398514 -2.275299 22.596985 -4.707611c6.198456 -2.432312 10.906128 -5.9631195 14.593842 -9.886215c3.687683 -3.9230957 6.4339294 -9.807739 7.5324097 -13.652359c1.0984497 -3.8446198 -0.78466797 -6.826111 -0.9416199 -9.4153595c-0.15692139 -2.5892334 -0.078430176 -3.9231415 0 -6.1200714c0.07846069 -2.1969452 0.07846069 -4.9430847 0.47073364 -7.061554z" fill-rule="evenodd"/><path fill="#cfe2f3" d="m142.2939 222.22008c-0.862381 -0.6670227 -3.5277863 -3.4527893 -5.1743317 -4.002121c-1.6465454 -0.5493164 -3.4895477 -0.11790466 -4.704895 0.70617676c-1.2153473 0.8240967 -1.9992676 2.7472687 -2.5871735 4.238388c-0.5878906 1.4911041 -1.4498444 2.5501556 -0.94018555 4.7082825c0.5096588 2.158142 2.743866 6.082367 3.998108 8.240494c1.254242 2.158142 2.0770874 3.2171783 3.527359 4.7082977c1.4502869 1.4911041 2.939911 3.4928284 5.1743317 4.238373c2.234436 0.7455597 6.4681396 0.7845001 8.232254 0.23495483c1.7641296 -0.54953 1.9603729 -2.9434967 2.3524475 -3.532196" fill-rule="evenodd"/><path stroke="#000000" stroke-width="2.0" stroke-linejoin="round" stroke-linecap="butt" d="m142.2939 222.22008c-0.862381 -0.6670227 -3.5277863 -3.4527893 -5.1743317 -4.002121c-1.6465454 -0.5493164 -3.4895477 -0.11790466 -4.704895 0.70617676c-1.2153473 0.8240967 -1.9992676 2.7472687 -2.5871735 4.238388c-0.5878906 1.4911041 -1.4498444 2.5501556 -0.94018555 4.7082825c0.5096588 2.158142 2.743866 6.082367 3.998108 8.240494c1.254242 2.158142 2.0770874 3.2171783 3.527359 4.7082977c1.4502869 1.4911041 2.939911 3.4928284 5.1743317 4.238373c2.234436 0.7455597 6.4681396 0.7845001 8.232254 0.23495483c1.7641296 -0.54953 1.9603729 -2.9434967 2.3524475 -3.532196" fill-rule="evenodd"/><path fill="#cfe2f3" d="m135.74968 231.18271c-0.27450562 -0.31391907 -1.6076355 -0.86346436 -1.6469727 -1.8835754c-0.03933716 -1.0201111 0.705246 -3.7662811 1.4109344 -4.2370605c0.7056885 -0.47079468 1.4120331 0.078308105 2.8231964 1.4123535c1.4111633 1.3340302 4.5855713 4.5514374 5.6437836 6.591873c1.0582123 2.0404205 0.5878906 4.7089386 0.70547485 5.6507263" fill-rule="evenodd"/><path stroke="#000000" stroke-width="2.0" stroke-linejoin="round" stroke-linecap="butt" d="m135.74968 231.18271c-0.27450562 -0.31391907 -1.6076355 -0.86346436 -1.6469727 -1.8835754c-0.03933716 -1.0201111 0.705246 -3.7662811 1.4109344 -4.2370605c0.7056885 -0.47079468 1.4120331 0.078308105 2.8231964 1.4123535c1.4111633 1.3340302 4.5855713 4.5514374 5.6437836 6.591873c1.0582123 2.0404205 0.5878906 4.7089386 0.70547485 5.6507263" fill-rule="evenodd"/><path fill="#cfe2f3" d="m194.05916 289.5504c-1.7639008 4.74765 -8.172592 22.188385 -10.583389 28.485992c-2.410797 6.297638 -2.0390472 7.730133 -3.8814087 9.299774c-1.8423615 1.5696411 -4.644348 1.2953186 -7.1727295 0.118133545c-2.5283813 -1.177185 -9.291336 -0.11834717 -7.9975433 -7.181244c1.293808 -7.062866 11.17392 -27.799713 15.760361 -35.196014c4.586441 -7.3962708 9.798584 -7.6513367 11.758301 -9.18161" fill-rule="evenodd"/><path stroke="#000000" stroke-width="2.0" stroke-linejoin="round" stroke-linecap="butt" d="m194.05916 289.5504c-1.7639008 4.74765 -8.172592 22.188385 -10.583389 28.485992c-2.410797 6.297638 -2.0390472 7.730133 -3.8814087 9.299774c-1.8423615 1.5696411 -4.644348 1.2953186 -7.1727295 0.118133545c-2.5283813 -1.177185 -9.291336 -0.11834717 -7.9975433 -7.181244c1.293808 -7.062866 11.17392 -27.799713 15.760361 -35.196014c4.586441 -7.3962708 9.798584 -7.6513367 11.758301 -9.18161" fill-rule="evenodd"/><path fill="#cfe2f3" d="m182.16016 321.44846c-1.6664276 4.453003 -7.7440186 20.734467 -9.998566 26.717926c-2.2545319 5.98349 -1.6863098 7.613312 -3.528656 9.182953c-1.8423615 1.5696411 -4.977646 1.4121399 -7.525482 0.23495483c-2.547821 -1.177185 -7.722809 -2.7468262 -7.761505 -7.2980347c-0.03868103 -4.551239 5.4905853 -14.241699 7.5294037 -20.009277c2.0388336 -5.7675476 3.9196625 -12.163391 4.703598 -14.596069" fill-rule="evenodd"/><path stroke="#000000" stroke-width="2.0" stroke-linejoin="round" stroke-linecap="butt" d="m182.16016 321.44846c-1.6664276 4.453003 -7.7440186 20.734467 -9.998566 26.717926c-2.2545319 5.98349 -1.6863098 7.613312 -3.528656 9.182953c-1.8423615 1.5696411 -4.977646 1.4121399 -7.525482 0.23495483c-2.547821 -1.177185 -7.722809 -2.7468262 -7.761505 -7.2980347c-0.03868103 -4.551239 5.4905853 -14.241699 7.5294037 -20.009277c2.0388336 -5.7675476 3.9196625 -12.163391 4.703598 -14.596069" fill-rule="evenodd"/><path fill="#cfe2f3" d="m154.8768 344.63666c-1.2002563 1.7761536 -5.3338776 7.476349 -7.201584 10.656982c-1.8677063 3.1806335 -3.6709442 5.7660217 -4.004669 8.42688c-0.33370972 2.6608582 0.7046051 5.6166077 2.0023346 7.538269c1.2977448 1.9216309 3.48497 3.585144 5.784088 3.9916077c2.299118 0.40646362 6.2255554 -0.5510864 8.010651 -1.5528259c1.7850952 -1.001709 2.0539093 -2.9887695 2.699936 -4.4575806c0.6460266 -1.4687805 0.72535706 -4.3355103 1.1762238 -4.355194c0.4508667 -0.019683838 0.76579285 3.2117004 1.5289612 4.2370605c0.76316833 1.0253601 2.0112915 1.7973938 3.0500488 1.9151001c1.0387573 0.11767578 2.7696533 0.30691528 3.182495 -1.2089233c0.41282654 -1.5158386 -0.54878235 -5.5122375 -0.70547485 -7.886078c-0.1566925 -2.3738403 -0.43075562 -4.316498 -0.23472595 -6.3569336c0.19604492 -2.0404053 1.1757965 -4.904724 1.4109497 -5.885681" fill-rule="evenodd"/><path stroke="#000000" stroke-width="2.0" stroke-linejoin="round" stroke-linecap="butt" d="m154.8768 344.63666c-1.2002563 1.7761536 -5.3338776 7.476349 -7.201584 10.656982c-1.8677063 3.1806335 -3.6709442 5.7660217 -4.004669 8.42688c-0.33370972 2.6608582 0.7046051 5.6166077 2.0023346 7.538269c1.2977448 1.9216309 3.48497 3.585144 5.784088 3.9916077c2.299118 0.40646362 6.2255554 -0.5510864 8.010651 -1.5528259c1.7850952 -1.001709 2.0539093 -2.9887695 2.699936 -4.4575806c0.6460266 -1.4687805 0.72535706 -4.3355103 1.1762238 -4.355194c0.4508667 -0.019683838 0.76579285 3.2117004 1.5289612 4.2370605c0.76316833 1.0253601 2.0112915 1.7973938 3.0500488 1.9151001c1.0387573 0.11767578 2.7696533 0.30691528 3.182495 -1.2089233c0.41282654 -1.5158386 -0.54878235 -5.5122375 -0.70547485 -7.886078c-0.1566925 -2.3738403 -0.43075562 -4.316498 -0.23472595 -6.3569336c0.19604492 -2.0404053 1.1757965 -4.904724 1.4109497 -5.885681" fill-rule="evenodd"/><path fill="#cfe2f3" d="m177.87451 352.68765c-0.22877502 0.7187195 -1.1854706 2.6351929 -1.3726959 4.3123474c-0.18722534 1.6771545 -1.708664 4.1671143 0.24934387 5.7506714c1.9580078 1.5835266 5.915573 2.9588623 11.498688 3.7506409c5.5831146 0.79177856 14.291336 0.8753357 22.0 1.0c7.708664 0.12466431 18.668411 0.20648193 24.251968 -0.25198364c5.583542 -0.45843506 7.718277 -1.0822144 9.249344 -2.4986572c1.5310516 -1.4164734 -0.021438599 -4.2917786 -0.06300354 -6.0c-0.041549683 -1.708252 -0.1552887 -3.5411377 -0.18634033 -4.249359" fill-rule="evenodd"/><path stroke="#000000" stroke-width="2.0" stroke-linejoin="round" stroke-linecap="butt" d="m177.87451 352.68765c-0.22877502 0.7187195 -1.1854706 2.6351929 -1.3726959 4.3123474c-0.18722534 1.6771545 -1.708664 4.1671143 0.24934387 5.7506714c1.9580078 1.5835266 5.915573 2.9588623 11.498688 3.7506409c5.5831146 0.79177856 14.291336 0.8753357 22.0 1.0c7.708664 0.12466431 18.668411 0.20648193 24.251968 -0.25198364c5.583542 -0.45843506 7.718277 -1.0822144 9.249344 -2.4986572c1.5310516 -1.4164734 -0.021438599 -4.2917786 -0.06300354 -6.0c-0.041549683 -1.708252 -0.1552887 -3.5411377 -0.18634033 -4.249359" fill-rule="evenodd"/><path fill="#cfe2f3" d="m175.98787 358.6453c-0.12741089 3.7080994 -0.5194855 15.322845 -0.7644806 22.248566c-0.24499512 6.9256897 -0.39186096 13.184387 -0.70547485 19.305695c-0.3136139 6.121277 -1.5289612 13.733704 -1.1762238 17.42212c0.35273743 3.688385 1.6069794 3.6096191 3.292633 4.7082825c1.685669 1.0986328 3.9205322 1.4911194 6.8213196 1.8835754c2.9007874 0.39245605 7.721939 0.6282959 10.583389 0.47122192c2.8614502 -0.15707397 4.860504 -0.5895691 6.5852814 -1.4136658c1.7247772 -0.8240967 2.901001 -1.9223022 3.763382 -3.5308838c0.86239624 -1.6086121 0.47010803 0.7855835 1.4109497 -6.1206665c0.9408417 -6.9062195 3.254181 -26.684021 4.234146 -35.316772c0.9799652 -8.632721 1.3713837 -13.733063 1.6456604 -16.479675" fill-rule="evenodd"/><path stroke="#000000" stroke-width="2.0" stroke-linejoin="round" stroke-linecap="butt" d="m175.98787 358.6453c-0.12741089 3.7080994 -0.5194855 15.322845 -0.7644806 22.248566c-0.24499512 6.9256897 -0.39186096 13.184387 -0.70547485 19.305695c-0.3136139 6.121277 -1.5289612 13.733704 -1.1762238 17.42212c0.35273743 3.688385 1.6069794 3.6096191 3.292633 4.7082825c1.685669 1.0986328 3.9205322 1.4911194 6.8213196 1.8835754c2.9007874 0.39245605 7.721939 0.6282959 10.583389 0.47122192c2.8614502 -0.15707397 4.860504 -0.5895691 6.5852814 -1.4136658c1.7247772 -0.8240967 2.901001 -1.9223022 3.763382 -3.5308838c0.86239624 -1.6086121 0.47010803 0.7855835 1.4109497 -6.1206665c0.9408417 -6.9062195 3.254181 -26.684021 4.234146 -35.316772c0.9799652 -8.632721 1.3713837 -13.733063 1.6456604 -16.479675" fill-rule="evenodd"/><path fill="#cfe2f3" d="m209.80183 359.58652c0.30749512 3.736969 1.0536194 15.501556 1.844986 22.421783c0.7913513 6.9202576 2.0707397 13.026886 2.903183 19.09964c0.83244324 6.0727234 1.0575562 13.778778 2.091507 17.336792c1.0339508 3.558014 2.25148 3.2464905 4.1121826 4.0112915c1.8607178 0.764801 4.1290283 0.7335205 7.052109 0.57754517c2.9230652 -0.15597534 7.704239 -0.82473755 10.486343 -1.5134277c2.7821198 -0.68865967 4.665344 -1.4869385 6.206314 -2.6186218c1.5409851 -1.1316833 2.4918823 -2.4300537 3.039566 -4.1714478c0.5476837 -1.7413635 0.60887146 0.68408203 0.246521 -6.276825c-0.36235046 -6.9609375 -1.7346039 -26.951813 -2.4206238 -35.48874c-0.68603516 -8.536926 -1.4129181 -13.110657 -1.6954956 -15.732788" fill-rule="evenodd"/><path stroke="#000000" stroke-width="2.0" stroke-linejoin="round" stroke-linecap="butt" d="m209.80183 359.58652c0.30749512 3.736969 1.0536194 15.501556 1.844986 22.421783c0.7913513 6.9202576 2.0707397 13.026886 2.903183 19.09964c0.83244324 6.0727234 1.0575562 13.778778 2.091507 17.336792c1.0339508 3.558014 2.25148 3.2464905 4.1121826 4.0112915c1.8607178 0.764801 4.1290283 0.7335205 7.052109 0.57754517c2.9230652 -0.15597534 7.704239 -0.82473755 10.486343 -1.5134277c2.7821198 -0.68865967 4.665344 -1.4869385 6.206314 -2.6186218c1.5409851 -1.1316833 2.4918823 -2.4300537 3.039566 -4.1714478c0.5476837 -1.7413635 0.60887146 0.68408203 0.246521 -6.276825c-0.36235046 -6.9609375 -1.7346039 -26.951813 -2.4206238 -35.48874c-0.68603516 -8.536926 -1.4129181 -13.110657 -1.6954956 -15.732788" fill-rule="evenodd"/><path fill="#cfe2f3" d="m176.26091 358.32547c-0.3792572 2.668396 -1.7624664 11.699463 -2.275589 16.010498c-0.51312256 4.3110046 -0.4461975 6.73053 -0.80314636 9.855621c-0.3569641 3.125122 -1.7401581 7.0118103 -1.3385773 8.89502c0.40156555 1.8832092 1.828949 1.8434143 3.7480316 2.4042053c1.9190674 0.560791 4.4641266 0.7602844 7.766403 0.9606323c3.3022766 0.2003479 8.790024 0.3215332 12.047241 0.24145508c3.2572174 -0.08004761 5.5328064 -0.30096436 7.496063 -0.72177124c1.9632568 -0.4208374 3.301834 -0.9816284 4.2834625 -1.8031616c0.9816284 -0.8215027 0.74365234 0.3888855 1.6062927 -3.1259766c0.8626404 -3.514862 2.9418182 -12.657928 3.5695648 -17.963257c0.6277313 -5.3053284 0.16403198 -11.557312 0.19683838 -13.868774" fill-rule="evenodd"/><path stroke="#000000" stroke-width="2.0" stroke-linejoin="round" stroke-linecap="butt" d="m176.26091 358.32547c-0.3792572 2.668396 -1.7624664 11.699463 -2.275589 16.010498c-0.51312256 4.3110046 -0.4461975 6.73053 -0.80314636 9.855621c-0.3569641 3.125122 -1.7401581 7.0118103 -1.3385773 8.89502c0.40156555 1.8832092 1.828949 1.8434143 3.7480316 2.4042053c1.9190674 0.560791 4.4641266 0.7602844 7.766403 0.9606323c3.3022766 0.2003479 8.790024 0.3215332 12.047241 0.24145508c3.2572174 -0.08004761 5.5328064 -0.30096436 7.496063 -0.72177124c1.9632568 -0.4208374 3.301834 -0.9816284 4.2834625 -1.8031616c0.9816284 -0.8215027 0.74365234 0.3888855 1.6062927 -3.1259766c0.8626404 -3.514862 2.9418182 -12.657928 3.5695648 -17.963257c0.6277313 -5.3053284 0.16403198 -11.557312 0.19683838 -13.868774" fill-rule="evenodd"/><path fill="#cfe2f3" d="m210.58792 359.40683c0.14743042 2.704712 0.5730591 11.982483 0.8845215 16.228333c0.3114624 4.2458496 0.5415497 6.1483154 0.9842529 9.246735c0.442688 3.0984192 0.39282227 7.5651855 1.6719208 9.343811c1.2790833 1.778656 3.8048859 1.0577698 6.0026245 1.3280945c2.1977234 0.27035522 4.2064667 0.3735962 7.183716 0.29397583c2.9772644 -0.07962036 7.8460236 -0.42037964 10.679794 -0.7716675c2.8337708 -0.35125732 4.6447906 -0.73535156 6.32283 -1.335968c1.6780396 -0.60058594 3.1045532 -0.88974 3.745407 -2.2677002c0.6408539 -1.3779602 0.49301147 -2.5083008 0.099746704 -6.0c-0.39326477 -3.4916992 -1.6229248 -10.015747 -2.45932 -14.950134c-0.83639526 -4.934387 -2.132553 -12.21347 -2.5590515 -14.656158" fill-rule="evenodd"/><path stroke="#000000" stroke-width="2.0" stroke-linejoin="round" stroke-linecap="butt" d="m210.58792 359.40683c0.14743042 2.704712 0.5730591 11.982483 0.8845215 16.228333c0.3114624 4.2458496 0.5415497 6.1483154 0.9842529 9.246735c0.442688 3.0984192 0.39282227 7.5651855 1.6719208 9.343811c1.2790833 1.778656 3.8048859 1.0577698 6.0026245 1.3280945c2.1977234 0.27035522 4.2064667 0.3735962 7.183716 0.29397583c2.9772644 -0.07962036 7.8460236 -0.42037964 10.679794 -0.7716675c2.8337708 -0.35125732 4.6447906 -0.73535156 6.32283 -1.335968c1.6780396 -0.60058594 3.1045532 -0.88974 3.745407 -2.2677002c0.6408539 -1.3779602 0.49301147 -2.5083008 0.099746704 -6.0c-0.39326477 -3.4916992 -1.6229248 -10.015747 -2.45932 -14.950134c-0.83639526 -4.934387 -2.132553 -12.21347 -2.5590515 -14.656158" fill-rule="evenodd"/><path fill="#cfe2f3" d="m179.01466 351.34244c1.5266876 -0.9361267 3.343399 1.7370911 6.687668 2.753296c3.3442688 1.0161743 8.689423 2.622467 13.37796 3.343811c4.6885376 0.7213745 10.491241 0.95144653 14.753281 0.9842529c4.262024 0.032806396 7.2126007 -0.19726562 10.818893 -0.78738403c3.6062927 -0.5901184 7.835083 -1.7370911 10.818893 -2.753296c2.9838257 -1.0161743 5.706909 -3.6062927 7.0839996 -3.343811c1.3770752 0.26245117 0.94924927 3.3775024 1.1784668 4.9186096c0.22923279 1.5411377 1.6067352 3.213501 0.19685364 4.3280945c-1.4098816 1.114624 -5.475937 1.6386719 -8.656174 2.3595886c-3.1802216 0.72091675 -6.556427 1.6054077 -10.425186 1.9658813c-3.8687744 0.36044312 -7.95932 0.30969238 -12.787399 0.19683838c-4.8280945 -0.112854004 -11.886276 -0.4807434 -16.181107 -0.87402344c-4.2948456 -0.3932495 -6.3648376 -0.6985779 -9.587921 -1.4855652c-3.2230988 -0.7869568 -8.537628 -1.3018188 -9.750656 -3.236206c-1.2130432 -1.9343872 0.945755 -7.43396 2.4724274 -8.370087z" fill-rule="evenodd"/><path stroke="#000000" stroke-width="1.0" stroke-linejoin="round" stroke-linecap="butt" d="m179.01466 351.34244c1.5266876 -0.9361267 3.343399 1.7370911 6.687668 2.753296c3.3442688 1.0161743 8.689423 2.622467 13.37796 3.343811c4.6885376 0.7213745 10.491241 0.95144653 14.753281 0.9842529c4.262024 0.032806396 7.2126007 -0.19726562 10.818893 -0.78738403c3.6062927 -0.5901184 7.835083 -1.7370911 10.818893 -2.753296c2.9838257 -1.0161743 5.706909 -3.6062927 7.0839996 -3.343811c1.3770752 0.26245117 0.94924927 3.3775024 1.1784668 4.9186096c0.22923279 1.5411377 1.6067352 3.213501 0.19685364 4.3280945c-1.4098816 1.114624 -5.475937 1.6386719 -8.656174 2.3595886c-3.1802216 0.72091675 -6.556427 1.6054077 -10.425186 1.9658813c-3.8687744 0.36044312 -7.95932 0.30969238 -12.787399 0.19683838c-4.8280945 -0.112854004 -11.886276 -0.4807434 -16.181107 -0.87402344c-4.2948456 -0.3932495 -6.3648376 -0.6985779 -9.587921 -1.4855652c-3.2230988 -0.7869568 -8.537628 -1.3018188 -9.750656 -3.236206c-1.2130432 -1.9343872 0.945755 -7.43396 2.4724274 -8.370087z" fill-rule="evenodd"/><path fill="#cfe2f3" d="m173.34267 413.37918c-0.2351532 2.0795898 -1.1364441 7.2588806 -1.4109344 12.47757c-0.27450562 5.2186584 -0.2557068 12.928864 -0.23603821 18.834473c0.01966858 5.9055786 0.079559326 12.94986 0.35404968 16.599121c0.27449036 3.649231 0.13659668 4.0996704 1.292923 5.2963257c1.1563416 1.1966553 2.3131104 1.4519348 5.645096 1.8835754c3.3319702 0.4316101 11.054138 1.1377869 14.346771 0.70617676c3.2926483 -0.43164062 4.311508 -1.6871338 5.4090576 -3.295929c1.0975494 -1.6088257 0.9801941 -4.0025635 1.1762238 -6.3569336c0.19604492 -2.3543396 -0.35273743 -4.1593933 0 -7.7692566c0.35273743 -3.6098633 1.332489 -8.828308 2.1164246 -13.889923c0.7839203 -5.0615845 1.999054 -12.595032 2.5871582 -16.479675c0.5881195 -3.884613 0.7845917 -5.690094 0.94151306 -6.828125" fill-rule="evenodd"/><path stroke="#000000" stroke-width="2.0" stroke-linejoin="round" stroke-linecap="butt" d="m173.34267 413.37918c-0.2351532 2.0795898 -1.1364441 7.2588806 -1.4109344 12.47757c-0.27450562 5.2186584 -0.2557068 12.928864 -0.23603821 18.834473c0.01966858 5.9055786 0.079559326 12.94986 0.35404968 16.599121c0.27449036 3.649231 0.13659668 4.0996704 1.292923 5.2963257c1.1563416 1.1966553 2.3131104 1.4519348 5.645096 1.8835754c3.3319702 0.4316101 11.054138 1.1377869 14.346771 0.70617676c3.2926483 -0.43164062 4.311508 -1.6871338 5.4090576 -3.295929c1.0975494 -1.6088257 0.9801941 -4.0025635 1.1762238 -6.3569336c0.19604492 -2.3543396 -0.35273743 -4.1593933 0 -7.7692566c0.35273743 -3.6098633 1.332489 -8.828308 2.1164246 -13.889923c0.7839203 -5.0615845 1.999054 -12.595032 2.5871582 -16.479675c0.5881195 -3.884613 0.7845917 -5.690094 0.94151306 -6.828125" fill-rule="evenodd"/><path fill="#cfe2f3" d="m171.93114 459.4044c0.058792114 1.0004272 -0.27449036 3.7072144 0.35273743 6.002533c0.6272278 2.295288 2.019165 5.728821 3.4106598 7.7692566c1.3914948 2.0404358 3.3311005 3.4138489 4.9382935 4.4733276c1.6072083 1.0595093 2.35289 1.4911194 4.704895 1.883606c2.3520203 0.39245605 6.898468 0.510376 9.407166 0.47122192c2.5087128 -0.03918457 4.390625 -0.23519897 5.645096 -0.70617676c1.2544556 -0.4710083 1.7641144 -1.138916 1.8816986 -2.119873c0.11756897 -0.9809265 -0.70570374 -1.7256165 -1.1762238 -3.7658386c-0.47053528 -2.0402222 -1.450943 -6.2387695 -1.6469879 -8.475433c-0.19602966 -2.2366638 0.39230347 -4.1204834 0.47076416 -4.94458" fill-rule="evenodd"/><path stroke="#000000" stroke-width="2.0" stroke-linejoin="round" stroke-linecap="butt" d="m171.93114 459.4044c0.058792114 1.0004272 -0.27449036 3.7072144 0.35273743 6.002533c0.6272278 2.295288 2.019165 5.728821 3.4106598 7.7692566c1.3914948 2.0404358 3.3311005 3.4138489 4.9382935 4.4733276c1.6072083 1.0595093 2.35289 1.4911194 4.704895 1.883606c2.3520203 0.39245605 6.898468 0.510376 9.407166 0.47122192c2.5087128 -0.03918457 4.390625 -0.23519897 5.645096 -0.70617676c1.2544556 -0.4710083 1.7641144 -1.138916 1.8816986 -2.119873c0.11756897 -0.9809265 -0.70570374 -1.7256165 -1.1762238 -3.7658386c-0.47053528 -2.0402222 -1.450943 -6.2387695 -1.6469879 -8.475433c-0.19602966 -2.2366638 0.39230347 -4.1204834 0.47076416 -4.94458" fill-rule="evenodd"/><path fill="#cfe2f3" d="m215.84416 414.27484c0.15649414 2.086914 0.23612976 7.343384 0.9389801 12.521484c0.70285034 5.1781006 2.1582031 12.749115 3.278122 18.54712c1.1199036 5.798004 2.4915314 12.707153 3.44133 16.240936c0.9497986 3.5337524 0.89823914 4.002014 2.2574615 4.96167c1.3592072 0.95965576 2.5434113 0.9944458 5.897812 0.7962036c3.3543854 -0.19821167 11.073685 -0.9465637 14.228546 -1.9854736c3.1548615 -1.0389404 3.9220123 -2.462616 4.7006226 -4.2480774c0.7786102 -1.7854614 0.2171936 -4.1151733 -0.028945923 -6.4647217c-0.24613953 -2.3495483 -1.1217499 -4.020355 -1.4479065 -7.6325684c-0.32614136 -3.6122131 -0.33598328 -8.921814 -0.5090027 -14.040741c-0.17300415 -5.118927 -0.3829956 -12.746735 -0.52908325 -16.672821c-0.14607239 -3.926117 -0.289505 -5.736511 -0.34739685 -6.8838196" fill-rule="evenodd"/><path stroke="#000000" stroke-width="2.0" stroke-linejoin="round" stroke-linecap="butt" d="m215.84416 414.27484c0.15649414 2.086914 0.23612976 7.343384 0.9389801 12.521484c0.70285034 5.1781006 2.1582031 12.749115 3.278122 18.54712c1.1199036 5.798004 2.4915314 12.707153 3.44133 16.240936c0.9497986 3.5337524 0.89823914 4.002014 2.2574615 4.96167c1.3592072 0.95965576 2.5434113 0.9944458 5.897812 0.7962036c3.3543854 -0.19821167 11.073685 -0.9465637 14.228546 -1.9854736c3.1548615 -1.0389404 3.9220123 -2.462616 4.7006226 -4.2480774c0.7786102 -1.7854614 0.2171936 -4.1151733 -0.028945923 -6.4647217c-0.24613953 -2.3495483 -1.1217499 -4.020355 -1.4479065 -7.6325684c-0.32614136 -3.6122131 -0.33598328 -8.921814 -0.5090027 -14.040741c-0.17300415 -5.118927 -0.3829956 -12.746735 -0.52908325 -16.672821c-0.14607239 -3.926117 -0.289505 -5.736511 -0.34739685 -6.8838196" fill-rule="evenodd"/><path fill="#cfe2f3" d="m223.02637 459.75754c0.24420166 0.9718323 0.4211731 3.6932373 1.4652405 5.831024c1.0440674 2.1377563 3.0516357 5.250946 4.799164 6.9956055c1.7475281 1.74469 3.909317 2.73172 5.685974 3.472412c1.7766571 0.74069214 2.589798 1.0254822 4.973984 0.97180176c2.384201 -0.05368042 6.873459 -0.78689575 9.331177 -1.2938538c2.457718 -0.5069885 4.27034 -1.0509949 5.4151764 -1.7479858c1.1448364 -0.69696045 1.5211487 -1.4483032 1.4538574 -2.4339294c-0.06726074 -0.98565674 -1.0149841 -1.5634766 -1.857544 -3.4799194c-0.8425598 -1.9164429 -2.5883484 -5.8580627 -3.1977997 -8.018738c-0.6094513 -2.1607056 -0.3824463 -4.121216 -0.45892334 -4.945465" fill-rule="evenodd"/><path stroke="#000000" stroke-width="2.0" stroke-linejoin="round" stroke-linecap="butt" d="m223.02637 459.75754c0.24420166 0.9718323 0.4211731 3.6932373 1.4652405 5.831024c1.0440674 2.1377563 3.0516357 5.250946 4.799164 6.9956055c1.7475281 1.74469 3.909317 2.73172 5.685974 3.472412c1.7766571 0.74069214 2.589798 1.0254822 4.973984 0.97180176c2.384201 -0.05368042 6.873459 -0.78689575 9.331177 -1.2938538c2.457718 -0.5069885 4.27034 -1.0509949 5.4151764 -1.7479858c1.1448364 -0.69696045 1.5211487 -1.4483032 1.4538574 -2.4339294c-0.06726074 -0.98565674 -1.0149841 -1.5634766 -1.857544 -3.4799194c-0.8425598 -1.9164429 -2.5883484 -5.8580627 -3.1977997 -8.018738c-0.6094513 -2.1607056 -0.3824463 -4.121216 -0.45892334 -4.945465" fill-rule="evenodd"/><path fill="#cfe2f3" d="m170.16313 453.716c-1.5761719 0.7334595 -0.04763794 3.436798 0 6.049652c0.04763794 2.612854 -0.23971558 6.5102234 0.2858429 9.627472c0.5255585 3.117218 -0.141922 6.921234 2.867508 9.075928c3.00943 2.154663 10.317108 3.4854126 15.189056 3.8521423c4.8719482 0.36672974 11.224289 -0.5972595 14.042648 -1.6517334c2.8183594 -1.0545044 2.9627838 -2.6123962 2.8674927 -4.6751404c-0.09527588 -2.0627441 -2.8178558 -4.446533 -3.4391937 -7.7013855c-0.6213379 -3.2548828 1.2878113 -9.765137 -0.28886414 -11.827881c-1.5766754 -2.0627747 -5.493286 -0.3652954 -9.171188 -0.54867554c-3.6779175 -0.18334961 -9.1707 -0.18478394 -12.8962555 -0.5515442c-3.7255402 -0.36672974 -7.8808746 -2.3822937 -9.4570465 -1.6488342z" fill-rule="evenodd"/><path stroke="#000000" stroke-width="1.0" stroke-linejoin="round" stroke-linecap="butt" d="m170.16313 453.716c-1.5761719 0.7334595 -0.04763794 3.436798 0 6.049652c0.04763794 2.612854 -0.23971558 6.5102234 0.2858429 9.627472c0.5255585 3.117218 -0.141922 6.921234 2.867508 9.075928c3.00943 2.154663 10.317108 3.4854126 15.189056 3.8521423c4.8719482 0.36672974 11.224289 -0.5972595 14.042648 -1.6517334c2.8183594 -1.0545044 2.9627838 -2.6123962 2.8674927 -4.6751404c-0.09527588 -2.0627441 -2.8178558 -4.446533 -3.4391937 -7.7013855c-0.6213379 -3.2548828 1.2878113 -9.765137 -0.28886414 -11.827881c-1.5766754 -2.0627747 -5.493286 -0.3652954 -9.171188 -0.54867554c-3.6779175 -0.18334961 -9.1707 -0.18478394 -12.8962555 -0.5515442c-3.7255402 -0.36672974 -7.8808746 -2.3822937 -9.4570465 -1.6488342z" fill-rule="evenodd"/><path fill="#cfe2f3" d="m193.66199 449.038c-1.3374786 -0.046203613 -2.9126434 -0.36676025 -4.010895 0c-1.0982666 0.36672974 -2.1007385 0.22906494 -2.578659 2.2003784c-0.47790527 1.9713135 -0.5751953 6.8769836 -0.28884888 9.627472c0.28634644 2.7505188 0.1439209 5.6834106 2.0069427 6.8755493c1.8630371 1.1921082 7.690323 1.3774109 9.171204 0.27719116c1.480896 -1.1001892 -0.2858429 -4.40271 -0.2858429 -6.878418c0 -2.4756775 0.2858429 -6.004883 0.2858429 -7.975708c0 -1.9708252 0.43078613 -3.1615295 -0.2858429 -3.8492737c-0.716629 -0.68774414 -2.6764374 -0.23101807 -4.0139008 -0.27719116z" fill-rule="evenodd"/><path stroke="#000000" stroke-width="1.0" stroke-linejoin="round" stroke-linecap="butt" d="m193.66199 449.038c-1.3374786 -0.046203613 -2.9126434 -0.36676025 -4.010895 0c-1.0982666 0.36672974 -2.1007385 0.22906494 -2.578659 2.2003784c-0.47790527 1.9713135 -0.5751953 6.8769836 -0.28884888 9.627472c0.28634644 2.7505188 0.1439209 5.6834106 2.0069427 6.8755493c1.8630371 1.1921082 7.690323 1.3774109 9.171204 0.27719116c1.480896 -1.1001892 -0.2858429 -4.40271 -0.2858429 -6.878418c0 -2.4756775 0.2858429 -6.004883 0.2858429 -7.975708c0 -1.9708252 0.43078613 -3.1615295 -0.2858429 -3.8492737c-0.716629 -0.68774414 -2.6764374 -0.23101807 -4.0139008 -0.27719116z" fill-rule="evenodd"/><path fill="#cfe2f3" d="m170.8789 472.004c0.09527588 -0.57318115 0.309906 0.50341797 1.8625183 0.9616089c1.552597 0.4581604 5.637726 1.6498108 7.4531097 1.7874451c1.8153839 0.1376648 2.5555725 -0.32003784 3.4391937 -0.96157837c0.8836212 -0.6415405 0.93125916 -2.1542053 1.8625183 -2.8876648c0.93125916 -0.7334595 2.3875885 -0.98565674 3.7250519 -1.5131226c1.3374634 -0.52749634 2.5325165 -1.3764648 4.299759 -1.6517639c1.7672424 -0.27529907 4.6798706 -0.504364 6.3036957 0c1.6238098 0.50439453 2.6985016 1.8115234 3.4391937 3.0262756c0.74069214 1.2147522 1.7451782 3.436798 1.0049744 4.262207c-0.7401886 0.8253784 -3.0099182 0.57510376 -5.4461517 0.6901245c-2.4362183 0.11505127 -6.472183 0.11505127 -9.171188 0c-2.6990051 -0.11502075 -5.75708 -0.5293884 -7.022827 -0.6901245c-1.2657623 -0.1607666 -1.1213379 -0.29745483 -0.57170105 -0.27435303c0.5496216 0.023101807 0.23921204 0.27529907 3.8694763 0.41293335c3.6302643 0.1376648 15.165985 -0.38934326 17.912125 0.41296387c2.7461395 0.8022766 -0.26478577 3.4839478 -1.435257 4.4007874c-1.1704712 0.9168396 -2.673935 0.9168396 -5.58757 1.1001892c-2.9136505 0.18338013 -8.502716 0.4124756 -11.894287 0c-3.3915558 -0.41244507 -6.329773 -1.6955261 -8.455063 -2.4747314c-2.1253052 -0.7791748 -3.3654938 -1.1001892 -4.296753 -2.2003784c-0.93125916 -1.1002197 -1.3861084 -3.8276062 -1.2908173 -4.400818z" fill-rule="evenodd"/><path stroke="#000000" stroke-width="1.0" stroke-linejoin="round" stroke-linecap="butt" d="m170.8789 472.004c0.09527588 -0.57318115 0.309906 0.50341797 1.8625183 0.9616089c1.552597 0.4581604 5.637726 1.6498108 7.4531097 1.7874451c1.8153839 0.1376648 2.5555725 -0.32003784 3.4391937 -0.96157837c0.8836212 -0.6415405 0.93125916 -2.1542053 1.8625183 -2.8876648c0.93125916 -0.7334595 2.3875885 -0.98565674 3.7250519 -1.5131226c1.3374634 -0.52749634 2.5325165 -1.3764648 4.299759 -1.6517639c1.7672424 -0.27529907 4.6798706 -0.504364 6.3036957 0c1.6238098 0.50439453 2.6985016 1.8115234 3.4391937 3.0262756c0.74069214 1.2147522 1.7451782 3.436798 1.0049744 4.262207c-0.7401886 0.8253784 -3.0099182 0.57510376 -5.4461517 0.6901245c-2.4362183 0.11505127 -6.472183 0.11505127 -9.171188 0c-2.6990051 -0.11502075 -5.75708 -0.5293884 -7.022827 -0.6901245c-1.2657623 -0.1607666 -1.1213379 -0.29745483 -0.57170105 -0.27435303c0.5496216 0.023101807 0.23921204 0.27529907 3.8694763 0.41293335c3.6302643 0.1376648 15.165985 -0.38934326 17.912125 0.41296387c2.7461395 0.8022766 -0.26478577 3.4839478 -1.435257 4.4007874c-1.1704712 0.9168396 -2.673935 0.9168396 -5.58757 1.1001892c-2.9136505 0.18338013 -8.502716 0.4124756 -11.894287 0c-3.3915558 -0.41244507 -6.329773 -1.6955261 -8.455063 -2.4747314c-2.1253052 -0.7791748 -3.3654938 -1.1001892 -4.296753 -2.2003784c-0.93125916 -1.1002197 -1.3861084 -3.8276062 -1.2908173 -4.400818z" fill-rule="evenodd"/><path fill="#cfe2f3" d="m174.89143 468.15335c0.7407074 0.16027832 1.4116974 -0.29885864 1.8655396 -0.8258667c0.45384216 -0.52700806 0.9056854 -1.6257629 0.85754395 -2.3361206c-0.04814148 -0.71035767 -0.54963684 -1.5362549 -1.1464081 -1.9260864c-0.59677124 -0.38983154 -1.6699524 -0.5274658 -2.4342194 -0.41293335c-0.76426697 0.11456299 -1.8645325 0.48129272 -2.1513824 1.1002197c-0.28684998 0.618927 -0.07119751 1.8798523 0.4302826 2.6133118c0.5014801 0.73349 1.8379517 1.6272278 2.5786438 1.7874756z" fill-rule="evenodd"/><path stroke="#000000" stroke-width="1.0" stroke-linejoin="round" stroke-linecap="butt" d="m174.89143 468.15335c0.7407074 0.16027832 1.4116974 -0.29885864 1.8655396 -0.8258667c0.45384216 -0.52700806 0.9056854 -1.6257629 0.85754395 -2.3361206c-0.04814148 -0.71035767 -0.54963684 -1.5362549 -1.1464081 -1.9260864c-0.59677124 -0.38983154 -1.6699524 -0.5274658 -2.4342194 -0.41293335c-0.76426697 0.11456299 -1.8645325 0.48129272 -2.1513824 1.1002197c-0.28684998 0.618927 -0.07119751 1.8798523 0.4302826 2.6133118c0.5014801 0.73349 1.8379517 1.6272278 2.5786438 1.7874756z" fill-rule="evenodd"/><path fill="#cfe2f3" d="m193.80748 454.95178c1.6714478 -0.11502075 5.0379333 -1.0092163 4.010895 0.27435303c-1.0270538 1.2835693 -10.364243 5.478363 -10.173172 7.427063c0.19107056 1.9487 11.176147 3.3939514 11.319565 4.2650757c0.14343262 0.87112427 -10.339661 1.8327026 -10.459015 0.96157837c-0.11935425 -0.87109375 9.862244 -4.1943054 9.742889 -6.188263c-0.11935425 -1.993927 -9.718811 -4.652008 -10.459015 -5.775299c-0.7401886 -1.1233215 4.34639 -0.8494568 6.017853 -0.96450806z" fill-rule="evenodd"/><path stroke="#000000" stroke-width="1.0" stroke-linejoin="round" stroke-linecap="butt" d="m193.80748 454.95178c1.6714478 -0.11502075 5.0379333 -1.0092163 4.010895 0.27435303c-1.0270538 1.2835693 -10.364243 5.478363 -10.173172 7.427063c0.19107056 1.9487 11.176147 3.3939514 11.319565 4.2650757c0.14343262 0.87112427 -10.339661 1.8327026 -10.459015 0.96157837c-0.11935425 -0.87109375 9.862244 -4.1943054 9.742889 -6.188263c-0.11935425 -1.993927 -9.718811 -4.652008 -10.459015 -5.775299c-0.7401886 -1.1233215 4.34639 -0.8494568 6.017853 -0.96450806z" fill-rule="evenodd"/><path fill="#cfe2f3" d="m221.18202 454.73737c-1.4720764 0.92071533 0.38442993 3.4154663 0.7599182 6.001831c0.37548828 2.5863342 0.57987976 6.488098 1.4930115 9.516327c0.913147 3.0281982 0.7285614 6.8838806 3.9858093 8.652985c3.257248 1.7690735 10.6766205 2.1943054 15.557663 1.9614563c4.8810425 -0.2328186 11.064087 -1.9671936 13.728607 -3.35849c2.6644897 -1.3912964 2.612152 -2.9545593 2.258484 -4.9893494c-0.3536682 -2.0347595 -3.3550262 -4.0662537 -4.3805084 -7.2192993c-1.0254822 -3.1530457 0.05140686 -9.845612 -1.7724152 -11.698944c-1.823822 -1.853363 -5.4974823 0.31036377 -9.170517 0.5788574c-3.6730194 0.26852417 -9.124313 0.9397888 -12.8676605 1.0322266c-3.743332 0.092437744 -8.120316 -1.3982849 -9.592392 -0.4776001z" fill-rule="evenodd"/><path stroke="#000000" stroke-width="1.0" stroke-linejoin="round" stroke-linecap="butt" d="m221.18202 454.73737c-1.4720764 0.92071533 0.38442993 3.4154663 0.7599182 6.001831c0.37548828 2.5863342 0.57987976 6.488098 1.4930115 9.516327c0.913147 3.0281982 0.7285614 6.8838806 3.9858093 8.652985c3.257248 1.7690735 10.6766205 2.1943054 15.557663 1.9614563c4.8810425 -0.2328186 11.064087 -1.9671936 13.728607 -3.35849c2.6644897 -1.3912964 2.612152 -2.9545593 2.258484 -4.9893494c-0.3536682 -2.0347595 -3.3550262 -4.0662537 -4.3805084 -7.2192993c-1.0254822 -3.1530457 0.05140686 -9.845612 -1.7724152 -11.698944c-1.823822 -1.853363 -5.4974823 0.31036377 -9.170517 0.5788574c-3.6730194 0.26852417 -9.124313 0.9397888 -12.8676605 1.0322266c-3.743332 0.092437744 -8.120316 -1.3982849 -9.592392 -0.4776001z" fill-rule="evenodd"/><path fill="#cfe2f3" d="m243.91492 447.21844c-1.3331146 0.11795044 -2.9365997 -0.0071411133 -3.9804535 0.49121094c-1.0438538 0.49832153 -2.056015 0.4845581 -2.2826843 2.4988098c-0.22666931 2.0142517 0.29299927 6.893036 0.9226837 9.5867c0.6296692 2.693695 0.8567352 5.6208496 2.8553772 6.5753784c1.9986267 0.9545288 7.804962 0.42468262 9.136414 -0.84817505c1.3314514 -1.2728577 -0.8367157 -4.3329163 -1.1476898 -6.789032c-0.31098938 -2.4561157 -0.47062683 -5.992401 -0.7181854 -7.9476624c-0.2475586 -1.9552307 0.030380249 -3.18927 -0.76719666 -3.7838135c-0.7975769 -0.59454346 -2.6851501 0.098602295 -4.018265 0.21658325z" fill-rule="evenodd"/><path stroke="#000000" stroke-width="1.0" stroke-linejoin="round" stroke-linecap="butt" d="m243.91492 447.21844c-1.3331146 0.11795044 -2.9365997 -0.0071411133 -3.9804535 0.49121094c-1.0438538 0.49832153 -2.056015 0.4845581 -2.2826843 2.4988098c-0.22666931 2.0142517 0.29299927 6.893036 0.9226837 9.5867c0.6296692 2.693695 0.8567352 5.6208496 2.8553772 6.5753784c1.9986267 0.9545288 7.804962 0.42468262 9.136414 -0.84817505c1.3314514 -1.2728577 -0.8367157 -4.3329163 -1.1476898 -6.789032c-0.31098938 -2.4561157 -0.47062683 -5.992401 -0.7181854 -7.9476624c-0.2475586 -1.9552307 0.030380249 -3.18927 -0.76719666 -3.7838135c-0.7975769 -0.59454346 -2.6851501 0.098602295 -4.018265 0.21658325z" fill-rule="evenodd"/><path fill="#cfe2f3" d="m224.18958 472.7931c0.02255249 -0.58032227 0.37080383 0.46148682 1.9691772 0.7258911c1.5983734 0.2644043 5.80217 0.9463196 7.6210785 0.8605652c1.8188934 -0.08578491 2.4959717 -0.6305237 3.2923126 -1.3752136c0.7963257 -0.7446594 0.653595 -2.2511902 1.4856567 -3.092926c0.83206177 -0.8417053 2.2456512 -1.2702637 3.5066986 -1.957367c1.2610626 -0.6871033 2.340393 -1.6757202 4.0596466 -2.1652832c1.7192535 -0.48953247 4.581009 -1.0735474 6.2558594 -0.7720032c1.6748505 0.30151367 2.9055786 1.4667053 3.7932434 2.5811462c0.8876648 1.1144104 2.1636353 3.1958923 1.5327454 4.1054077c-0.6309204 0.9095154 -2.914856 0.93917847 -5.3181305 1.3516846c-2.4032898 0.4124756 -6.4086304 0.9067688 -9.101608 1.1231995c-2.6929626 0.21643066 -5.7798767 0.17984009 -7.0562286 0.17538452c-1.2763367 -0.0044555664 -1.150177 -0.15774536 -0.60180664 -0.20214844c0.5483551 -0.044403076 0.27197266 0.24380493 3.891983 -0.064208984c3.619995 -0.30804443 15.001968 -2.2436829 17.828064 -1.7840576c2.8260803 0.45962524 0.1748352 3.488861 -0.87158203 4.5417786c-1.0464172 1.052948 -2.5384674 1.2370605 -5.406967 1.7758179c-2.8684845 0.5387573 -8.386368 1.450531 -11.804001 1.4566956c-3.417633 0.006164551 -6.4947205 -0.9069214 -8.701767 -1.4196472c-2.2070618 -0.51275635 -3.4781494 -0.6793518 -4.5405426 -1.6567993c-1.0623932 -0.9774475 -1.8563843 -3.6275635 -1.8338318 -4.2079163z" fill-rule="evenodd"/><path stroke="#000000" stroke-width="1.0" stroke-linejoin="round" stroke-linecap="butt" d="m224.18958 472.7931c0.02255249 -0.58032227 0.37080383 0.46148682 1.9691772 0.7258911c1.5983734 0.2644043 5.80217 0.9463196 7.6210785 0.8605652c1.8188934 -0.08578491 2.4959717 -0.6305237 3.2923126 -1.3752136c0.7963257 -0.7446594 0.653595 -2.2511902 1.4856567 -3.092926c0.83206177 -0.8417053 2.2456512 -1.2702637 3.5066986 -1.957367c1.2610626 -0.6871033 2.340393 -1.6757202 4.0596466 -2.1652832c1.7192535 -0.48953247 4.581009 -1.0735474 6.2558594 -0.7720032c1.6748505 0.30151367 2.9055786 1.4667053 3.7932434 2.5811462c0.8876648 1.1144104 2.1636353 3.1958923 1.5327454 4.1054077c-0.6309204 0.9095154 -2.914856 0.93917847 -5.3181305 1.3516846c-2.4032898 0.4124756 -6.4086304 0.9067688 -9.101608 1.1231995c-2.6929626 0.21643066 -5.7798767 0.17984009 -7.0562286 0.17538452c-1.2763367 -0.0044555664 -1.150177 -0.15774536 -0.60180664 -0.20214844c0.5483551 -0.044403076 0.27197266 0.24380493 3.891983 -0.064208984c3.619995 -0.30804443 15.001968 -2.2436829 17.828064 -1.7840576c2.8260803 0.45962524 0.1748352 3.488861 -0.87158203 4.5417786c-1.0464172 1.052948 -2.5384674 1.2370605 -5.406967 1.7758179c-2.8684845 0.5387573 -8.386368 1.450531 -11.804001 1.4566956c-3.417633 0.006164551 -6.4947205 -0.9069214 -8.701767 -1.4196472c-2.2070618 -0.51275635 -3.4781494 -0.6793518 -4.5405426 -1.6567993c-1.0623932 -0.9774475 -1.8563843 -3.6275635 -1.8338318 -4.2079163z" fill-rule="evenodd"/><path fill="#cfe2f3" d="m227.68797 468.48148c0.75520325 0.06829834 1.3634338 -0.46939087 1.7476349 -1.047821c0.38420105 -0.57839966 0.69459534 -1.7238159 0.55758667 -2.4226685c-0.13700867 -0.69885254 -0.73843384 -1.4567566 -1.3796387 -1.7704163c-0.6412201 -0.3136902 -1.7235413 -0.31878662 -2.4676208 -0.111572266c-0.7440796 0.20724487 -1.7899323 0.70584106 -1.9968567 1.3549805c-0.20692444 0.6491699 0.16546631 1.8737488 0.75527954 2.539978c0.58981323 0.66625977 2.0284119 1.3892517 2.783615 1.4575195z" fill-rule="evenodd"/><path stroke="#000000" stroke-width="1.0" stroke-linejoin="round" stroke-linecap="butt" d="m227.68797 468.48148c0.75520325 0.06829834 1.3634338 -0.46939087 1.7476349 -1.047821c0.38420105 -0.57839966 0.69459534 -1.7238159 0.55758667 -2.4226685c-0.13700867 -0.69885254 -0.73843384 -1.4567566 -1.3796387 -1.7704163c-0.6412201 -0.3136902 -1.7235413 -0.31878662 -2.4676208 -0.111572266c-0.7440796 0.20724487 -1.7899323 0.70584106 -1.9968567 1.3549805c-0.20692444 0.6491699 0.16546631 1.8737488 0.75527954 2.539978c0.58981323 0.66625977 2.0284119 1.3892517 2.783615 1.4575195z" fill-rule="evenodd"/><path fill="#cfe2f3" d="m244.80215 453.06766c1.6443329 -0.31881714 4.87294 -1.6182556 4.014923 -0.21905518c-0.85801697 1.3992004 -9.597427 6.704376 -9.163025 8.614258c0.43440247 1.9098816 11.517654 1.9983826 11.769409 2.8450317c0.25177002 0.8466797 -10.030975 3.0845337 -10.25885 2.2349243c-0.22787476 -0.8496094 9.260544 -5.3690186 8.891632 -7.33255c-0.36891174 -1.963562 -10.229431 -3.4249878 -11.105118 -4.4487305c-0.8756714 -1.0237732 4.206711 -1.375061 5.8510284 -1.6938782z" fill-rule="evenodd"/><path stroke="#000000" stroke-width="1.0" stroke-linejoin="round" stroke-linecap="butt" d="m244.80215 453.06766c1.6443329 -0.31881714 4.87294 -1.6182556 4.014923 -0.21905518c-0.85801697 1.3992004 -9.597427 6.704376 -9.163025 8.614258c0.43440247 1.9098816 11.517654 1.9983826 11.769409 2.8450317c0.25177002 0.8466797 -10.030975 3.0845337 -10.25885 2.2349243c-0.22787476 -0.8496094 9.260544 -5.3690186 8.891632 -7.33255c-0.36891174 -1.963562 -10.229431 -3.4249878 -11.105118 -4.4487305c-0.8756714 -1.0237732 4.206711 -1.375061 5.8510284 -1.6938782z" fill-rule="evenodd"/></g></svg>